<svg height="480pt" viewBox="0 0 480 480" width="480pt" xmlns="http://www.w3.org/2000/svg"><path d="m0 48h24v416h160v16h112v-16h160v-416h24v-48h-480zm200 416v-16h80v16zm80-32h-32v-64h32zm-48 0h-32v-64h32zm208 16h-144v-96h-112v96h-144v-400h400zm-424-432h448v16h-448zm0 0"/><path d="m168 192v-128h-112v128zm-64-16v-32h16v32zm48 0h-16v-32h16zm-80-96h80v48h-80zm0 96v-32h16v32zm0 0"/><path d="m168 336v-128h-112v128zm-64-16v-32h16v32zm48 0h-16v-32h16zm-80-96h80v48h-80zm0 96v-32h16v32zm0 0"/><path d="m296 336v-128h-112v128zm-64-16v-32h16v32zm48 0h-16v-32h16zm-80-96h80v48h-80zm0 96v-32h16v32zm0 0"/><path d="m424 336v-128h-112v128zm-64-16v-32h16v32zm48 0h-16v-32h16zm-80-96h80v48h-80zm0 96v-32h16v32zm0 0"/><path d="m296 192v-128h-112v128zm-64-16v-32h16v32zm48 0h-16v-32h16zm-80-96h80v48h-80zm0 96v-32h16v32zm0 0"/><path d="m424 192v-128h-112v128zm-64-16v-32h16v32zm48 0h-16v-32h16zm-80-96h80v48h-80zm0 96v-32h16v32zm0 0"/><path d="m168 352h-112v80h112zm-16 64h-80v-48h80zm0 0"/><path d="m424 352h-112v80h112zm-16 64h-80v-48h80zm0 0"/></svg>