<svg height="480pt" viewBox="-31 0 479 480" width="480pt" xmlns="http://www.w3.org/2000/svg"><path d="m352.5 376c0 4.417969 3.582031 8 8 8s8-3.582031 8-8c0-13.253906 10.746094-24 24-24 4.417969 0 8-3.582031 8-8s-3.582031-8-8-8c-13.253906 0-24-10.746094-24-24 0-4.417969-3.582031-8-8-8s-8 3.582031-8 8c0 13.253906-10.746094 24-24 24-4.417969 0-8 3.582031-8 8s3.582031 8 8 8c13.253906 0 24 10.746094 24 24zm8-40.246094c2.332031 3.136719 5.109375 5.914063 8.246094 8.246094-3.136719 2.332031-5.914063 5.109375-8.246094 8.246094-2.332031-3.136719-5.109375-5.914063-8.246094-8.246094 3.136719-2.332031 5.914063-5.109375 8.246094-8.246094zm0 0"/><path d="m64.5 280c0-4.417969-3.582031-8-8-8s-8 3.582031-8 8c0 13.253906-10.746094 24-24 24-4.417969 0-8 3.582031-8 8s3.582031 8 8 8c13.253906 0 24 10.746094 24 24 0 4.417969 3.582031 8 8 8s8-3.582031 8-8c0-13.253906 10.746094-24 24-24 4.417969 0 8-3.582031 8-8s-3.582031-8-8-8c-13.253906 0-24-10.746094-24-24zm-8 40.246094c-2.332031-3.136719-5.109375-5.914063-8.246094-8.246094 3.136719-2.332031 5.914063-5.109375 8.246094-8.246094 2.332031 3.136719 5.109375 5.914063 8.246094 8.246094-3.136719 2.332031-5.914063 5.109375-8.246094 8.246094zm0 0"/><path d="m.5 256h184v16h-27.3125l-36.6875 36.6875v171.3125h112v-32h16v-176h-16v-16h184v-256h-416zm216 208h-16v-16h16zm16-32h-48v-16h48zm0-32h-48v-16h48zm0-32h-48v-16h48zm0-32h-48v-16h48zm0-32h-64v144h16v16h-48v-148.6875l27.3125-27.3125h68.6875zm-16-32h-16v-16h16zm-200-256h384v224h-384zm0 0"/><path d="m208.5 108.960938-60.703125-68.296876c-4.898437-5.511718-11.921875-8.664062-19.296875-8.664062s-14.398438 3.152344-19.296875 8.664062l-60.703125 68.296876v115.039062h160zm-87.335938-57.664063c1.914063-2.003906 4.566407-3.140625 7.335938-3.140625s5.421875 1.136719 7.335938 3.140625l53.960937 60.703125h-122.59375zm-24.664062 156.703125v-48h32v48zm96 0h-48v-64h-64v64h-16v-80h128zm0 0"/><path d="m272.5 152c-.019531-5.921875-2.246094-11.625-6.238281-16 6.390625-7.007812 8.03125-17.132812 4.183593-25.800781-3.847656-8.667969-12.460937-14.242188-21.945312-14.199219h-24v80h24c13.253906 0 24-10.746094 24-24zm-32-40h8c4.417969 0 8 3.582031 8 8s-3.582031 8-8 8h-8zm0 32h8c4.417969 0 8 3.582031 8 8s-3.582031 8-8 8h-8zm0 0"/><path d="m288.5 96h16v80h-16zm0 0"/><path d="m344.5 96h-24v80h24c13.253906 0 24-10.746094 24-24v-32c0-13.253906-10.746094-24-24-24zm8 56c0 4.417969-3.582031 8-8 8h-8v-48h8c4.417969 0 8 3.582031 8 8zm0 0"/><path d="m368.5 80h16v-48h-48v16h32zm0 0"/><path d="m304.5 32h16v16h-16zm0 0"/></svg>