<svg height="480pt" viewBox="0 0 480 480" width="480pt" xmlns="http://www.w3.org/2000/svg"><path d="m432 0c-37.335938 0-47.199219 28.265625-47.59375 29.472656-.269531.816406-.40625 1.667969-.40625 2.527344v48h-376c-4.417969 0-8 3.582031-8 8v384c0 4.417969 3.582031 8 8 8h424c26.5-.027344 47.972656-21.5 48-48v-400c0-.859375-.136719-1.710938-.40625-2.527344-.394531-1.207031-10.257812-29.472656-47.59375-29.472656zm-32 33.601562c6.113281-11.8125 18.75-18.765624 32-17.601562 13.238281-1.171875 25.875 5.757812 32 17.550781v359.914063c-19.46875-12.621094-44.53125-12.621094-64 0zm32 430.398438h-416v-368h368v320c0 3.925781 2.847656 7.269531 6.71875 7.894531 3.867188.597657 7.605469-1.664062 8.875-5.367187.0625-.183594 6.46875-18.527344 32.40625-18.527344 13.25-1.164062 25.886719 5.789062 32 17.601562v14.398438c0 17.671875-14.328125 32-32 32zm0 0"/><path d="m205.65625 162.34375c-3.125-3.121094-8.1875-3.121094-11.3125 0l-96 96c-2.285156 2.289062-2.972656 5.730469-1.734375 8.71875s4.15625 4.9375 7.390625 4.9375h8v104c0 4.417969 3.582031 8 8 8h160c4.417969 0 8-3.582031 8-8v-104h8c3.234375 0 6.152344-1.949219 7.390625-4.9375s.550781-6.429688-1.734375-8.71875zm-5.65625 16.96875 76.6875 76.6875h-153.375zm16 188.6875v-64h32v64zm56 0h-8v-72c0-4.417969-3.582031-8-8-8h-48c-4.417969 0-8 3.582031-8 8v72h-72v-96h144zm0 0"/><path d="m144 336h32c4.417969 0 8-3.582031 8-8v-32c0-4.417969-3.582031-8-8-8h-32c-4.417969 0-8 3.582031-8 8v32c0 4.417969 3.582031 8 8 8zm8-32h16v16h-16zm0 0"/><path d="m48 184h16v184h-16v16h48v-16h-16v-184h16v-16h-48zm0 0"/><path d="m112 144h176v16h16v-48h-16v16h-176v-16h-16v48h16zm0 0"/><path d="m32 416h16v16h-16zm0 0"/><path d="m64 416h16v16h-16zm0 0"/><path d="m304 416h16v16h-16zm0 0"/><path d="m336 416h16v16h-16zm0 0"/></svg>