<svg height="480pt" viewBox="-96 0 480 480" width="480pt" xmlns="http://www.w3.org/2000/svg"><path d="m88 80h16v16h-16zm0 0"/><path d="m136 80h16v16h-16zm0 0"/><path d="m184 8c0-4.417969-3.582031-8-8-8h-112c-4.417969 0-8 3.582031-8 8v64h-16c-8.835938 0-16 7.164062-16 16v16c0 8.835938 7.164062 16 16 16h16v48c0 4.417969 3.582031 8 8 8h112c4.417969 0 8-3.582031 8-8v-48h16c8.835938 0 16-7.164062 16-16v-16c0-8.835938-7.164062-16-16-16h-16zm-112 8h96v32h-96zm-32 88v-16h16v16zm128 56h-96v-96h96zm32-72v16h-16v-16zm0 0"/><path d="m104 128h32v16h-32zm0 0"/><path d="m287.433594 373.175781c-.089844-.214843-.480469-1.144531-.625-1.375-.289063-.433593-.617188-.839843-.984375-1.207031-.089844-.097656-.144531-.210938-.238281-.304688-.648438-.613281-1.390626-1.113281-2.203126-1.480468-.203124-.09375-.410156-.179688-.621093-.25-.878907-.351563-1.816407-.539063-2.761719-.558594h-40v-168c0-4.417969-3.582031-8-8-8h-224c-4.417969 0-8 3.582031-8 8v176c0 4.417969 3.582031 8 8 8h24v88c0 4.417969 3.582031 8 8 8h240c4.417969 0 8-3.582031 8-8v-96c-.109375-.957031-.296875-1.902344-.566406-2.824219zm-79.433594 10.824219h59.054688l-16 32h-43.054688zm0-16v-16h16v16zm16-32h-16v-128h16zm-32 48h-144v-176h16v72c.003906 3.441406 2.207031 6.496094 5.472656 7.585938l48 16h.136719c1.554687.523437 3.242187.523437 4.796875 0h.136719l48-16c3.261719-1.09375 5.457031-4.148438 5.457031-7.585938v-72h16zm-95.160156-116.425781 7.367187 14.730469-24.207031-8.074219v-40.34375zm46.320312 0 16.839844-33.6875v40.34375l-24.207031 8.074219zm.839844-37.460938v-22.113281h11.054688zm-16-22.113281v54.113281l-8 16-8-16v-54.113281zm-32 0v22.113281l-11.054688-22.113281zm-80 0h16v128h-16zm0 160v-16h16v16zm32 32h64v64h-64zm80 0h64v64h-64zm80 64v-32h48c3.046875.015625 5.839844-1.699219 7.199219-4.425781l8.800781-17.6875v54.113281zm0 0"/><path d="m112 320h16v16h-16zm0 0"/><path d="m112 352h16v16h-16zm0 0"/></svg>