<svg height="480pt" viewBox="0 0 480 480" width="480pt" xmlns="http://www.w3.org/2000/svg"><path d="m168 144h16v16h-16zm0 0"/><path d="m232 144h16v16h-16zm0 0"/><path d="m200 160h16v32h-16zm0 0"/><path d="m304 344h-16v16h-32v16h48zm0 0"/><path d="m144 360h-32v16h48v-32h-16zm0 0"/><path d="m440 192v-16h-64v16h-88v-8h16c8.835938 0 16-7.164062 16-16v-16c0-8.835938-7.164062-16-16-16h-16v-8h16v-48h-17.375c-6.023438-28.546875-26.863281-51.683594-54.625-60.648438v-19.351562h-48v19.351562c-27.761719 8.964844-48.601562 32.101563-54.625 60.648438h-17.375v48h16v8h-16c-8.835938 0-16 7.164062-16 16v16c0 8.835938 7.164062 16 16 16h16v8h-128v96h41.472656c-.949218 2.5625-1.445312 5.269531-1.472656 8v72h-16v48h16v64h288v-144h32v8h48v-8h8c13.253906 0 24-10.746094 24-24v-24h40v-96zm-16 0v16h-32v-16zm-120-40v16h-16v-16zm-16-40h-160v-16h160zm-104-75.785156v27.785156h16v-48h16v48h16v-27.785156c18.890625 7.753906 32.992188 23.996094 38.023438 43.785156h-124.046876c5.03125-19.789062 19.132813-36.027344 38.023438-43.785156zm-72 131.785156v-16h16v16zm32-40h128v112h-128zm168 192h-64v-32h64zm-80 144h-48v-115.054688l24-12 24 12zm-128-128h64v48h-64zm80-29.601562 12.320312 18.472656-12.320312 6.160156zm24 7.152343-17.054688-25.550781h34.109376zm-40 6.449219h-64v-32h64zm64 11.054688-12.320312-6.160157 12.320312-18.496093zm-8-59.054688h-32v-16h32zm-208-32h32v-16h-32v-16h112v48h48v16h-160zm40 56c0-4.417969 3.582031-8 8-8h24v80h-32zm-16 88h48v16h-48zm16 80v-48h32v48zm48 0v-64h64v64zm208 0h-64v-64h64zm0-80h-64v-48h64zm16-64v-32h32v32zm48-32h16v40h-16zm48 24c0 4.417969-3.582031 8-8 8h-8v-32h16zm40-72h-48v16h48v16h-224v-16h48v-48h88v16h64v-16h24zm0 0"/><path d="m168 208h80v16h-80zm0 0"/><path d="m80 224h16v16h-16zm0 0"/><path d="m384 240h16v16h-16zm0 0"/></svg>