<svg height="479pt" viewBox="-79 0 479 479.9938" width="479pt" xmlns="http://www.w3.org/2000/svg"><path d="m317.007812 105.394531-152-104c-2.71875-1.859375-6.300781-1.859375-9.023437 0l-152 104c-2.179687 1.488281-3.484375 3.957031-3.488281 6.597657v360c0 4.417968 3.582031 8 8 8h304c4.417968 0 8-3.582032 8-8v-360c0-2.640626-1.304688-5.109376-3.488282-6.597657zm-156.511718-87.703125 144 98.519532v20.582031l-139.488282-95.398438c-2.71875-1.859375-6.300781-1.859375-9.023437 0l-139.488281 95.398438v-20.582031zm144 446.300782h-288v-307.78125l144-98.519532 144 98.519532zm0 0"/><path d="m32.496094 167.992188v112c0 4.417968 3.582031 8 8 8h240c4.417968 0 8-3.582032 8-8v-112c0-4.417969-3.582032-8-8-8h-240c-4.417969 0-8 3.582031-8 8zm16 8h224v96h-224zm0 0"/><path d="m248.496094 183.992188h-16v8h-8v40h16v8h-16v16h8v8h16v-8h8v-40h-16v-8h16v-16h-8zm0 0"/><path d="m88.496094 303.992188h-48c-4.417969 0-8 3.582031-8 8v48c0 4.417968 3.582031 8 8 8h48c4.417968 0 8-3.582032 8-8v-48c0-4.417969-3.582032-8-8-8zm-8 48h-32v-32h32zm0 0"/><path d="m168.496094 303.992188h-48c-4.417969 0-8 3.582031-8 8v48c0 4.417968 3.582031 8 8 8h48c4.417968 0 8-3.582032 8-8v-48c0-4.417969-3.582032-8-8-8zm-8 48h-32v-32h32zm0 0"/><path d="m88.496094 383.992188h-48c-4.417969 0-8 3.582031-8 8v48c0 4.417968 3.582031 8 8 8h48c4.417968 0 8-3.582032 8-8v-48c0-4.417969-3.582032-8-8-8zm-8 48h-32v-32h32zm0 0"/><path d="m168.496094 383.992188h-48c-4.417969 0-8 3.582031-8 8v48c0 4.417968 3.582031 8 8 8h48c4.417968 0 8-3.582032 8-8v-48c0-4.417969-3.582032-8-8-8zm-8 48h-32v-32h32zm0 0"/><path d="m280.496094 303.992188h-80c-4.417969 0-8 3.582031-8 8v128c0 4.417968 3.582031 8 8 8h80c4.417968 0 8-3.582032 8-8v-128c0-4.417969-3.582032-8-8-8zm-8 128h-64v-112h64zm0 0"/><path d="m128.496094 111.992188c0 17.675781 14.328125 32 32 32 17.675781 0 32-14.324219 32-32 0-17.671876-14.324219-32-32-32-17.671875 0-32 14.328124-32 32zm48 0c0 8.839843-7.164063 16-16 16-8.835938 0-16-7.160157-16-16 0-8.835938 7.164062-16 16-16 8.835937 0 16 7.164062 16 16zm0 0"/><path d="m112.496094 191.992188h-40c-4.417969 0-8 3.582031-8 8v32c0 4.417968 3.582031 8 8 8 4.417968 0 8-3.582032 8-8v-24h32c4.417968 0 8-3.582032 8-8 0-4.417969-3.582032-8-8-8zm0 0"/><path d="m160.496094 191.992188h-16c-4.417969 0-8 3.582031-8 8 0 4.417968 3.582031 8 8 8h16c4.417968 0 8-3.582032 8-8 0-4.417969-3.582032-8-8-8zm0 0"/><path d="m232.496094 351.992188h8v24c0 4.417968 3.582031 8 8 8 4.417968 0 8-3.582032 8-8v-32c0-4.417969-3.582032-8-8-8h-16c-4.417969 0-8 3.582031-8 8 0 4.417968 3.582031 8 8 8zm0 0"/></svg>