<svg height="480pt" viewBox="0 0 480 480" width="480pt" xmlns="http://www.w3.org/2000/svg"><path d="m472 336h-24v-48h8c3.234375 0 6.152344-1.949219 7.390625-4.9375s.550781-6.429688-1.734375-8.71875l-61.65625-61.65625v-52.6875h24c13.253906 0 24-10.746094 24-24s-10.746094-24-24-24h-142.496094c-2.539062-4.367188-5.746094-8.304688-9.503906-11.679688v-68.320312c0-17.671875-14.328125-32-32-32s-32 14.328125-32 32v68.320312c-3.757812 3.375-6.964844 7.3125-9.503906 11.679688h-142.496094c-13.253906 0-24 10.746094-24 24s10.746094 24 24 24h24v52.6875l-61.65625 61.65625c-2.285156 2.289062-2.972656 5.730469-1.734375 8.71875s4.15625 4.9375 7.390625 4.9375h8v48h-24c-4.417969 0-8 3.582031-8 8v16c0 13.253906 10.746094 24 24 24h128c13.253906 0 24-10.746094 24-24v-16c0-4.417969-3.582031-8-8-8h-24v-48h8c3.234375 0 6.152344-1.949219 7.390625-4.9375s.550781-6.429688-1.734375-8.71875l-61.65625-61.65625v-52.6875h102.496094c2.539062 4.367188 5.746094 8.304688 9.503906 11.679688v260.320312h-56c-4.417969 0-8 3.582031-8 8v32c0 4.417969 3.582031 8 8 8h176c4.417969 0 8-3.582031 8-8v-32c0-4.417969-3.582031-8-8-8h-56v-260.320312c3.757812-3.375 6.964844-7.3125 9.503906-11.679688h102.496094v52.6875l-61.65625 61.65625c-2.285156 2.289062-2.972656 5.730469-1.734375 8.71875s4.15625 4.9375 7.390625 4.9375h8v48h-24c-4.417969 0-8 3.582031-8 8v16c0 13.253906 10.746094 24 24 24h128c13.253906 0 24-10.746094 24-24v-16c0-4.417969-3.582031-8-8-8zm-312 24c0 4.417969-3.582031 8-8 8h-128c-4.417969 0-8-3.582031-8-8v-8h144zm-64-24h-16v-16h16zm32 0h-16v-24c0-4.417969-3.582031-8-8-8h-32c-4.417969 0-8 3.582031-8 8v24h-16v-48h80zm-84.6875-64 44.6875-44.6875 44.6875 44.6875zm12.6875-128c-4.417969 0-8-3.582031-8-8s3.582031-8 8-8h136.71875c-.957031 5.289062-.957031 10.710938 0 16zm168-112c0-8.835938 7.164062-16 16-16s16 7.164062 16 16v58.800781c-10.339844-3.734375-21.660156-3.734375-32 0zm96 432h-160v-16h160zm-64-32h-32v-250.800781c10.339844 3.734375 21.660156 3.734375 32 0zm-16-264c-17.671875 0-32-14.328125-32-32s14.328125-32 32-32 32 14.328125 32 32-14.328125 32-32 32zm47.28125-40h136.71875c4.417969 0 8 3.582031 8 8s-3.582031 8-8 8h-136.71875c.957031-5.289062.957031-10.710938 0-16zm104.71875 99.3125 44.6875 44.6875h-89.375zm-40 60.6875h80v48h-16v-24c0-4.417969-3.582031-8-8-8h-32c-4.417969 0-8 3.582031-8 8v24h-16zm48 48h-16v-16h16zm64 24c0 4.417969-3.582031 8-8 8h-128c-4.417969 0-8-3.582031-8-8v-8h144zm0 0"/></svg>