<svg height="480pt" viewBox="0 0 480 480" width="480pt" xmlns="http://www.w3.org/2000/svg"><path d="m472 368h-224c-4.417969 0-8 3.582031-8 8v96c0 4.417969 3.582031 8 8 8h224c4.417969 0 8-3.582031 8-8v-96c0-4.417969-3.582031-8-8-8zm-8 96h-208v-80h208zm0 0"/><path d="m472 264h-104v-25.472656c9.585938-3.339844 16.007812-12.378906 16.007812-22.527344s-6.421874-19.1875-16.007812-22.527344v-33.472656h88c4.417969 0 8-3.582031 8-8v-64c0-.128906-.152344-1.152344-.230469-1.550781-.066406-.390625-.164062-.773438-.289062-1.144531-.039063-.121094-.359375-.800782-.480469-1.015626-.179688-.363281-.390625-.710937-.625-1.042968-.246094-.300782-.511719-.585938-.800781-.855469-.261719-.285156-.550781-.554687-.855469-.796875-.332031-.234375-.675781-.441406-1.039062-.625-.222657-.121094-.894532-.441406-1.015626-.480469-.375-.125-.761718-.222656-1.152343-.289062-.359375-.046875-1.382813-.199219-1.511719-.199219h-62.910156l-286.945313-79.703125c-.667969-.191406-1.355469-.2890625-2.046875-.296875h-.097656c-.136719 0-.265625.0546875-.398438.0625-.5625.0234375-1.121093.105469-1.664062.25-.257812.070312-.488281.160156-.730469.246094-.441406.167968-.867187.371094-1.269531.617187-.234375.132813-.457031.277344-.671875.433594-.128906.085937-.265625.144531-.394531.246094l-96 80c-.09375.082031-.933594 1.121093-1.269532 1.601562-.300781.371094-.570312.769531-.800781 1.191407-.34375.980468-.585937 1.992187-.7304685 3.023437 0 .121094-.0703125.222656-.0703125.34375v64c0 .128906.046875.242187.0546875.367187.0273437.398438.0859375.796876.1757815 1.183594.066406.390625.164062.773438.289062 1.144532 0 .121093 0 .25.089844.367187.101563.242187.269531.425781.390625.648437.179688.363282.390625.710938.625 1.042969.246094.300781.511719.585938.800781.855469.261719.285156.550781.554688.855469.800781.332031.230469.675781.4375 1.039062.621094.222657.121094.40625.289063.648438.394531.09375 0 .199219 0 .296875.054688.875.328125 1.800781.5 2.734375.503906h56v312c0 .128906.046875.238281.054688.367188.027343.398437.085937.796874.175781 1.183593.066406.390625.164062.773438.289062 1.144531.039063.121094.039063.25.089844.367188.046875.121094.269531.425781.390625.648438.179688.363281.390625.710937.625 1.042968.246094.300782.511719.585938.800781.855469.261719.285156.550781.554687.855469.796875.332031.234375.675781.441406 1.039062.625.222657.121094.40625.289062.648438.394531.09375.039063.199219 0 .296875.054688.871094.332031 1.796875.507812 2.734375.519531h64c4.417969 0 8-3.582031 8-8v-184h40c4.417969 0 8-3.582031 8-8v-120h160v33.472656c-9.585938 3.339844-16.007812 12.378906-16.007812 22.527344s6.421874 19.1875 16.007812 22.527344v25.472656h-104c-4.417969 0-8 3.582031-8 8v32c0 4.417969 3.582031 8 8 8h224c4.417969 0 8-3.582031 8-8v-32c0-4.417969-3.582031-8-8-8zm-316.6875-120 36.6875-36.6875v36.6875zm-64 0 36.6875-36.6875v36.6875zm236.6875-64h-186.585938l-24-59.960938 215.898438 59.960938zm-248 16h36.6875l-36.6875 36.6875zm3.816406-16 20.183594-50.464844 20.183594 50.464844zm60.183594 16h36.6875l-36.6875 36.6875zm-77.414062-16h-36.488282l54.703125-45.601562zm-50.585938 16h36.6875l-36.6875 36.6875zm192 0h36.6875l-36.6875 36.6875zm64 0h36.6875l-36.6875 36.6875zm64 0h36.6875l-36.6875 36.6875zm112 48h-36.6875l36.6875-36.6875zm-48-11.3125v-36.6875h36.6875zm-336-25.375v36.6875h-36.6875zm64 292.6875h-36.6875l36.6875-36.6875zm-48-11.3125v-36.6875h36.6875zm0 27.3125h36.6875l-36.6875 36.6875zm48-80h-36.6875l36.6875-36.6875zm-48-11.3125v-36.6875h36.6875zm48 139.3125h-36.6875l36.6875-36.6875zm8-192h-56v-112h16v88c.003906 1.050781.214844 2.085938.617188 3.054688.8125 1.960937 2.367187 3.515624 4.328124 4.328124.96875.402344 2.003907.613282 3.054688.617188h72v16zm40-32h-20.6875l10.34375-10.34375c3.03125-3.140625 2.988281-8.128906-.097656-11.214844-3.085938-3.085937-8.074219-3.128906-11.214844-.097656l-21.65625 21.65625h-9.375l26.34375-26.34375c3.03125-3.140625 2.988281-8.128906-.097656-11.214844-3.085938-3.085937-8.074219-3.128906-11.214844-.097656l-26.34375 26.34375v-68.6875h64zm80-132.6875v36.6875h-36.6875zm64 0v36.6875h-36.6875zm64 0v36.6875h-36.6875zm-24 100.6875c4.417969 0 8 3.582031 8 8s-3.582031 8-8 8-8-3.582031-8-8 3.582031-8 8-8zm104 88h-208v-16h208zm0 0"/><path d="m280 448h32c4.417969 0 8-3.582031 8-8v-32c0-4.417969-3.582031-8-8-8h-32c-4.417969 0-8 3.582031-8 8v32c0 4.417969 3.582031 8 8 8zm8-32h16v16h-16zm0 0"/><path d="m344 448h32c4.417969 0 8-3.582031 8-8v-32c0-4.417969-3.582031-8-8-8h-32c-4.417969 0-8 3.582031-8 8v32c0 4.417969 3.582031 8 8 8zm8-32h16v16h-16zm0 0"/><path d="m408 448h32c4.417969 0 8-3.582031 8-8v-32c0-4.417969-3.582031-8-8-8h-32c-4.417969 0-8 3.582031-8 8v32c0 4.417969 3.582031 8 8 8zm8-32h16v16h-16zm0 0"/></svg>