<svg height="480pt" viewBox="0 0 480.01111 480" width="480pt" xmlns="http://www.w3.org/2000/svg"><path d="m120.003906 71.839844c-17.671875 0-32 14.328125-32 32v24c0 4.417968 3.582032 8 8 8h48c4.421875 0 8-3.582032 8-8v-24c0-17.671875-14.324218-32-32-32zm16 48h-32v-16c0-8.835938 7.164063-16 16-16 8.839844 0 16 7.164062 16 16zm0 0"/><path d="m360.003906 71.839844c-17.671875 0-32 14.328125-32 32v24c0 4.417968 3.582032 8 8 8h48c4.421875 0 8-3.582032 8-8v-24c0-17.671875-14.324218-32-32-32zm16 48h-32v-16c0-8.835938 7.164063-16 16-16 8.839844 0 16 7.164062 16 16zm0 0"/><path d="m472.003906 463.839844h-8v-304h8c3.058594 0 5.847656-1.738282 7.191406-4.484375 1.34375-2.746094 1.007813-6.015625-.871093-8.429688l-112-144c-1.574219-1.851562-3.886719-2.92187475-6.320313-2.92187475-2.429687 0-4.742187 1.07031275-6.316406 2.92187475l-112 144c-1.878906 2.414063-2.214844 5.683594-.871094 8.429688 1.34375 2.746093 4.132813 4.484375 7.1875 4.484375h8v96h-32v-96h8c3.058594 0 5.847656-1.738282 7.191406-4.484375 1.34375-2.746094 1.007813-6.015625-.871093-8.429688l-112-144c-1.574219-1.851562-3.886719-2.92187475-6.320313-2.92187475-2.429687 0-4.742187 1.07031275-6.316406 2.92187475l-112 144c-1.878906 2.414063-2.214844 5.683594-.871094 8.429688 1.34375 2.746093 4.132813 4.484375 7.1875 4.484375h8v304h-8c-4.417968 0-7.99999975 3.582031-7.99999975 8 0 4.417968 3.58203175 8 7.99999975 8h464c4.421875 0 8-3.582032 8-8 0-4.417969-3.578125-8-8-8zm-40-192h16v48h-16zm-72-250.96875 95.648438 122.96875h-191.292969zm88 138.96875v96h-48v-56c0-4.417969-3.578125-8-8-8h-64c-4.417968 0-8 3.582031-8 8v56h-48v-96zm-64 160h-16v-48h16zm-32 0h-16v-48h16zm-48-48h16v48h-16zm80-16h-48v-48h48zm16 16h16v48h-16zm-128 0h16v48h-16zm-16 48h-32v-48h32zm-64-48h16v48h-16zm-72-250.96875 95.648438 122.96875h-191.292969zm88 138.96875v96h-48v-56c0-4.417969-3.578125-8-8-8h-64c-4.417968 0-8 3.582031-8 8v56h-48v-96zm-64 160h-16v-48h16zm-32 0h-16v-48h16zm-48-48h16v48h-16zm80-16h-48v-48h48zm16 16h16v48h-16zm-128 0h16v48h-16zm0 64h176v128h-32v-104c0-4.417969-3.578125-8-8-8h-96c-4.417968 0-8 3.582031-8 8v104h-32zm48 32h32v96h-32zm48 96v-96h32v96zm96-128h32v128h-32zm128 128h-32v-96h32zm16 0v-96h32v96zm48 0v-104c0-4.417969-3.578125-8-8-8h-96c-4.417968 0-8 3.582031-8 8v104h-32v-128h176v128zm0 0"/></svg>