<svg height="480pt" viewBox="-8 0 480 480" width="480pt" xmlns="http://www.w3.org/2000/svg"><path d="m0 472c0 4.417969 3.582031 8 8 8h352c4.417969 0 8-3.582031 8-8v-400c0-4.417969-3.582031-8-8-8h-352c-4.417969 0-8 3.582031-8 8zm176-8h-128v-352h128zm16-352h128v352h-128zm-176-32h336v384h-16v-360c0-4.417969-3.582031-8-8-8h-288c-4.417969 0-8 3.582031-8 8v360h-16zm0 0"/><path d="m8 48h32c4.417969 0 8-3.582031 8-8v-32c0-4.417969-3.582031-8-8-8h-32c-4.417969 0-8 3.582031-8 8v32c0 4.417969 3.582031 8 8 8zm8-32h16v16h-16zm0 0"/><path d="m104 48c4.417969 0 8-3.582031 8-8v-32c0-4.417969-3.582031-8-8-8h-32c-4.417969 0-8 3.582031-8 8v32c0 4.417969 3.582031 8 8 8zm-24-32h16v16h-16zm0 0"/><path d="m168 48c4.417969 0 8-3.582031 8-8v-32c0-4.417969-3.582031-8-8-8h-32c-4.417969 0-8 3.582031-8 8v32c0 4.417969 3.582031 8 8 8zm-24-32h16v16h-16zm0 0"/><path d="m232 48c4.417969 0 8-3.582031 8-8v-32c0-4.417969-3.582031-8-8-8h-32c-4.417969 0-8 3.582031-8 8v32c0 4.417969 3.582031 8 8 8zm-24-32h16v16h-16zm0 0"/><path d="m296 48c4.417969 0 8-3.582031 8-8v-32c0-4.417969-3.582031-8-8-8h-32c-4.417969 0-8 3.582031-8 8v32c0 4.417969 3.582031 8 8 8zm-24-32h16v16h-16zm0 0"/><path d="m360 48c4.417969 0 8-3.582031 8-8v-32c0-4.417969-3.582031-8-8-8h-32c-4.417969 0-8 3.582031-8 8v32c0 4.417969 3.582031 8 8 8zm-24-32h16v16h-16zm0 0"/><path d="m384.800781 227.359375c.0625.136719.078125.28125.152344.417969.363281.664062.820313 1.273437 1.351563 1.816406.085937.085938.191406.140625.28125.222656.589843.542969 1.257812.992188 1.980468 1.335938.226563.105468.441406.199218.671875.289062.878907.347656 1.816407.539063 2.761719.558594h64c.949219-.019531 1.886719-.207031 2.769531-.558594.230469-.089844.445313-.183594.679688-.289062.71875-.34375 1.386719-.792969 1.976562-1.335938.085938-.082031.191407-.136718.277344-.214844.53125-.542968.988281-1.160156 1.351563-1.824218.074218-.136719.089843-.28125.152343-.417969.09375-.222656.179688-.449219.25-.679687.253907-.875.433594-1.773438.542969-2.679688v-64c0-4.417969-3.582031-8-8-8h-64c-4.417969 0-8 3.582031-8 8v64c.109375.90625.289062 1.804688.542969 2.679688.074219.230468.160156.457031.257812.679687zm22.144531-11.359375 17.054688-25.601562 17.054688 25.601562zm41.054688-48v29.601562l-17.34375-26.015624c-1.570312-2.101563-4.035156-3.335938-6.65625-3.335938s-5.085938 1.234375-6.65625 3.335938l-17.34375 26.015624v-29.601562zm0 0"/><path d="m384.070312 255.625c0 .136719-.070312.238281-.070312.375v64c0 4.417969 3.582031 8 8 8h64c4.417969 0 8-3.582031 8-8v-64c0-.136719-.070312-.238281-.070312-.375-.042969-.789062-.203126-1.566406-.472657-2.304688-.070312-.230468-.15625-.457031-.25-.679687-.0625-.136719-.078125-.28125-.152343-.417969-.363282-.664062-.820313-1.28125-1.351563-1.824218-.085937-.078126-.191406-.132813-.277344-.214844-.589843-.539063-1.257812-.988282-1.976562-1.335938-.234375-.105468-.449219-.199218-.6875-.289062-.878907-.351563-1.816407-.539063-2.761719-.558594h-64c-.945312.019531-1.882812.207031-2.761719.558594-.238281.089844-.453125.183594-.6875.289062-.71875.34375-1.386719.792969-1.976562 1.335938-.085938.082031-.191407.136718-.277344.222656-.53125.542969-.988281 1.152344-1.351563 1.816406-.074218.136719-.089843.28125-.152343.417969-.09375.222656-.179688.449219-.25.679687-.269531.738282-.429688 1.515626-.472657 2.304688zm39.929688 56.375h-24v-29.601562l17.34375 26.015624c1.484375 2.226563 3.980469 3.5625 6.65625 3.5625s5.171875-1.335937 6.65625-3.5625l17.34375-26.015624v29.601562zm17.054688-48-17.054688 25.601562-17.054688-25.601562zm0 0"/><path d="m112 432h-32v-32h-16v48h48zm0 0"/><path d="m128 432h16v16h-16zm0 0"/><path d="m256 144h32v32h16v-48h-48zm0 0"/><path d="m224 128h16v16h-16zm0 0"/></svg>