<svg height="480pt" viewBox="0 0 480 480" width="480pt" xmlns="http://www.w3.org/2000/svg"><path d="m32 415.996094h48v-48h-48zm16-32h16v16h-16zm0 0"/><path d="m96 415.996094h48v-48h-48zm16-32h16v16h-16zm0 0"/><path d="m472 127.996094h-64c-4.417969 0-8 3.582031-8 8v32c0 4.417968 3.582031 8 8 8h8v96h-72v-96h8c4.417969 0 8-3.582032 8-8v-32c0-4.417969-3.582031-8-8-8h-64c-4.417969 0-8 3.582031-8 8v32c0 4.417968 3.582031 8 8 8h8v96h-72v-96h8c4.417969 0 8-3.582032 8-8v-32c0-4.417969-3.582031-8-8-8h-64c-4.417969 0-8 3.582031-8 8v32c0 4.417968 3.582031 8 8 8h8v96h-8c-4.417969 0-8 3.582031-8 8v47.351562l-67-53.601562c-2.921875-2.339844-7.078125-2.339844-10 0l-80 64c-.136719.113281-.214844.265625-.34375.378906-.234375.222656-.449219.464844-.648438.71875-.421874.484375-.777343 1.023438-1.0625 1.601562-.148437.277344-.277343.5625-.394531.855469-.257812.878907-.441406 1.78125-.550781 2.695313v128c0 4.417968 3.582031 8 8 8h464c4.417969 0 8-3.582032 8-8v-192c0-4.417969-3.582031-8-8-8h-8v-96h8c4.417969 0 8-3.582032 8-8v-32c0-4.417969-3.582031-8-8-8zm-176 16h48v16h-48zm16 32h16v96h-16zm-136-32h48v16h-48zm16 32h16v96h-16zm-16 144h288v16h-288zm-88-29.761719 57.191406 45.761719h-114.382812zm-72 61.761719h144v112h-144zm448 112h-288v-112h288zm-288-160v-16h288v16zm272-32h-16v-96h16zm16-112h-48v-16h48zm0 0"/><path d="m248 415.996094v-48h-48v48zm-32-32h16v16h-16zm0 0"/><path d="m312 367.996094h-48v48h48zm-16 32h-16v-16h16zm0 0"/><path d="m376 367.996094h-48v48h48zm-16 32h-16v-16h16zm0 0"/><path d="m440 367.996094h-48v48h48zm-16 32h-16v-16h16zm0 0"/><path d="m384 87.996094v-48c0-8.355469-4.347656-16.113282-11.476562-20.472656-7.128907-4.363282-16.011719-4.699219-23.453126-.894532-6.28125-13.660156-21.226562-21.105468-35.914062-17.890625-14.6875 3.214844-25.152344 16.222657-25.15625 31.257813v1.367187c-7.347656-2.597656-15.496094-1.464843-21.859375 3.035157-6.359375 4.496093-10.140625 11.804687-10.140625 19.597656v32h16v-32c0-4.417969 3.582031-8 8-8s8 3.582031 8 8h16v-24c0-8.835938 7.164062-16 16-16s16 7.164062 16 16v8h16c0-4.417969 3.582031-8 8-8s8 3.582031 8 8v48zm0 0"/><path d="m312 71.996094h16v40h-16zm0 0"/></svg>