<svg height="480pt" viewBox="0 0 480 480" width="480pt" xmlns="http://www.w3.org/2000/svg"><path d="m244.800781 177.558594c-2.84375-2.132813-6.757812-2.132813-9.601562 0l-96 72c-2.011719 1.511718-3.199219 3.882812-3.199219 6.402344v136c0 4.417968 3.582031 8 8 8h192c4.417969 0 8-3.582032 8-8v-136c0-2.519532-1.1875-4.890626-3.199219-6.402344zm-92.800781 82.402344 88-66 88 66v20l-83.199219-62.402344c-2.84375-2.132813-6.757812-2.132813-9.601562 0l-83.199219 62.402344zm64 124v-56c0-13.253907 10.746094-24 24-24s24 10.746093 24 24v56zm112 0h-48v-56c0-22.09375-17.910156-40-40-40s-40 17.90625-40 40v56h-48v-84l88-66 88 66zm0 0"/><path d="m136 415.960938h208v16h-208zm0 0"/><path d="m384 143.960938h48v48h16v-64h-64zm0 0"/><path d="m472 95.960938h-24v-24c0-4.417969-3.582031-8-8-8h-142.113281l-126.3125-63.160157c-.140625-.074219-.308594-.058593-.453125-.121093-.6875-.292969-1.414063-.488282-2.152344-.5820318-.25 0-.480469-.0820312-.730469-.0898437-.902343-.0390625-1.804687.0742187-2.671875.3437495h-.117187l-48 16c-.875.3125-1.6875.769532-2.402344 1.359376-.199219.175781-.394531.359374-.574219.554687-.519531.496094-.964844 1.070313-1.320312 1.695313-.089844.152343-.242188.238281-.320313.398437l-21.777343 43.601563h-19.054688c-.152344 0-.28125.078124-.433594.085937-.761718.042969-1.511718.191406-2.230468.449219-.222657.078125-.457032.144531-.671876.238281-.847656.378906-1.621093.902344-2.289062 1.546875h-.039062l-48 48c-.632813.664062-1.152344 1.433594-1.527344 2.269531-.101563.246094-.191406.496094-.265625.753907-.238281.679687-.382813 1.390624-.429688 2.109374 0 .179688-.097656.320313-.097656.496094v24h-8.015625c-4.417969 0-8 3.582032-8 8v320.050782c0 4.417968 3.582031 8 8 8h464c4.417969 0 8-3.582032 8-8v-368c0-4.417969-3.582031-8-8-8zm-331.144531-70.519532 11.351562-3.785156-3.78125 7.566406zm-17.28125 9.253906 24.851562 12.464844c1.039063.503906 2.175781.777344 3.335938.800782.070312 0 .148437.054687.230469.054687.816406-.007813 1.625-.144531 2.398437-.398437.160156-.050782.304687-.136719.464844-.203126.710937-.273437 1.375-.644531 1.976562-1.109374.199219-.152344.382813-.296876.566407-.464844.71875-.636719 1.316406-1.398438 1.761718-2.246094l12.414063-24.84375 90.539062 45.210938h-153.167969zm-59.574219 56.578126v20.6875h-20.6875zm-32 36.6875h40c4.417969 0 8-3.582032 8-8v-40h352v16h-166.703125c-13.777344-.011719-26.011719 8.804687-30.351563 21.878906l-8.714843 26.121094h-194.230469zm432 336h-448v-304h216c3.445312 0 6.503906-2.203126 7.59375-5.472657l10.527344-31.585937c2.175781-6.53125 8.289062-10.941406 15.175781-10.941406h198.703125zm0 0"/></svg>