<svg height="480pt" viewBox="0 0 480 480" width="480pt" xmlns="http://www.w3.org/2000/svg"><path d="m48 224c-8.835938 0-16 7.164062-16 16h16v32h16v-32c0-8.835938-7.164062-16-16-16zm0 0"/><path d="m0 176h128v96h-32v-32c0-26.507812-21.492188-48-48-48s-48 21.492188-48 48v240h96v-32h32v32h48v-32h16v32h96v-32h16v32h48v-32h32v32h96v-240c0-26.507812-21.492188-48-48-48s-48 21.492188-48 48v32h-32v-96h128v-176h-480zm144 0h16v96h-16zm96 16c-26.5.027344-47.972656 21.5-48 48v32h-16v-96h128v96h-16v-32c-.027344-26.5-21.5-47.972656-48-48zm-48 96v32h-96v-32zm-64 96h-32v-48h32zm16-48h16v48h-16zm32 0h16v48h-16zm-96 128h-32v-32h-16v32h-16v-224c0-17.671875 14.328125-32 32-32s32 14.328125 32 32zm80 0h-16v-16h16zm-64-32v-32h96v32zm176 32h-32v-32h-16v32h-16v-224c0-17.671875 14.328125-32 32-32s32 14.328125 32 32zm80-128h32v48h-32zm-16 48h-16v-48h16zm-32 0h-16v-48h16zm32 80h-16v-16h16zm-48-32v-32h96v32zm112-192c0-17.671875 14.328125-32 32-32s32 14.328125 32 32v224h-32v-32h-16v32h-16zm-16 48v32h-96v-32zm-48-16h-16v-96h16zm-320-256h448v144h-448zm0 0"/><path d="m32 128h16v-32h16v-16h-16v-16h16v-16h-32zm0 0"/><path d="m128 48h-48v80h48zm-16 64h-16v-48h16zm0 0"/><path d="m160 104 16 12v12h16v-20l-16-12h16v-48h-48v80h16zm0-40h16v16h-16zm0 0"/><path d="m240 104 16 12v12h16v-20l-16-12h16v-48h-48v80h16zm0-40h16v16h-16zm0 0"/><path d="m320 112h-16v-16h16v-16h-16v-16h16v-16h-32v80h32zm0 0"/><path d="m352 88.984375 9.753906 39.015625h22.246094v-80h-16v39.015625l-9.753906-39.015625h-22.246094v80h16zm0 0"/><path d="m416 128h16v-64h16v-16h-48v16h16zm0 0"/><path d="m32 400h16v16h-16zm0 0"/><path d="m224 400h16v16h-16zm0 0"/><path d="m416 400h16v16h-16zm0 0"/><path d="m48 288h16v16h-16zm0 0"/><path d="m240 224c-8.835938 0-16 7.164062-16 16h16v32h16v-32c0-8.835938-7.164062-16-16-16zm0 0"/><path d="m240 288h16v16h-16zm0 0"/><path d="m432 272h16v-32c0-8.835938-7.164062-16-16-16s-16 7.164062-16 16h16zm0 0"/><path d="m432 288h16v16h-16zm0 0"/></svg>