<svg height="480pt" viewBox="0 0 480 480" width="480pt" xmlns="http://www.w3.org/2000/svg"><path d="m245.65625 2.34375c-3.125-3.125-8.1875-3.125-11.3125 0l-232 232c-1.5 1.5-2.34375 3.53125-2.34375 5.65625v48c0 3.234375 1.949219 6.148438 4.9375 7.386719s6.429688.554687 8.71875-1.734375l18.34375-18.34375v196.691406c0 4.417969 3.582031 8 8 8h64c4.417969 0 8-3.582031 8-8v-216h256v216c0 4.417969 3.582031 8 8 8h64c4.417969 0 8-3.582031 8-8v-196.691406l18.34375 18.34375c2.289062 2.289062 5.730469 2.972656 8.71875 1.734375s4.9375-4.152344 4.9375-7.386719v-48c0-2.125-.84375-4.15625-2.34375-5.65625zm138.34375 461.65625v-96h16v-16h-16v-16h32v-16h-32v-72c0-4.421875-3.582031-8-8-8h-272c-4.417969 0-8 3.578125-8 8v72h-32v16h32v16h-16v16h16v96h-48v-32h40v-16h-40v-16h32v-16h-32v-80h32v-16h-32v-16h32v-16h-28.6875l40-40h148.6875v-16h-132.6875l16-16h164.6875v-16h-148.6875l16-16h84.6875v-16h-68.6875l68.6875-68.691406 188.6875 188.691406h-28.6875v16h32v16h-32v16h32v80h-32v16h32v16h-40v16h40v32zm80-195.3125-218.34375-218.34375c-3.125-3.125-8.1875-3.125-11.3125 0l-218.34375 218.34375v-25.378906l224-224 224 224zm0 0"/><path d="m168 432c13.253906 0 24-10.746094 24-24 0-13.257812-10.746094-24-24-24s-24 10.742188-24 24c0 13.253906 10.746094 24 24 24zm0-32c4.417969 0 8 3.578125 8 8 0 4.417969-3.582031 8-8 8s-8-3.582031-8-8c0-4.421875 3.582031-8 8-8zm0 0"/><path d="m288 408c0 13.253906 10.746094 24 24 24s24-10.746094 24-24c0-13.257812-10.746094-24-24-24s-24 10.742188-24 24zm24-8c4.417969 0 8 3.578125 8 8 0 4.417969-3.582031 8-8 8s-8-3.582031-8-8c0-4.421875 3.582031-8 8-8zm0 0"/><path d="m296 480h40c4.417969 0 8-3.582031 8-8v-24c4.417969 0 8-3.582031 8-8v-64c0-4.421875-3.582031-8-8-8h-8.800781l-7.199219-64.882812c-.449219-4.070313-3.902344-7.144532-8-7.117188h-160c-4.078125-.003906-7.503906 3.066406-7.953125 7.117188l-7.199219 64.882812h-8.847656c-4.417969 0-8 3.578125-8 8v64c0 4.417969 3.582031 8 8 8v24c0 4.417969 3.582031 8 8 8h32c4.417969 0 8-3.582031 8-8v-24h104v24c0 4.417969 3.582031 8 8 8zm32-16h-24v-16h24zm-15.199219-152 6.230469 56h-104.933594l31.03125-25.859375c3.390625-2.832031 3.847656-7.878906 1.015625-11.269531-2.832031-3.394532-7.878906-3.847656-11.273437-1.015625l-45.765625 38.144531h-15.007813l31.03125-25.859375c3.390625-2.832031 3.847656-7.878906 1.015625-11.269531-2.832031-3.394532-7.878906-3.847656-11.273437-1.015625l-32.726563 27.269531 5.054688-45.125zm-168.800781 96v-24h192v48h-192zm24 56h-16v-16h16zm0 0"/><path d="m256 200h32v16h-32zm0 0"/><path d="m304 200h16v16h-16zm0 0"/></svg>