<svg height="479pt" viewBox="-15 0 479 479.99829" width="479pt" xmlns="http://www.w3.org/2000/svg"><path d="m213.300781 73.601562c-2.847656-2.136718-6.757812-2.136718-9.601562 0l-96 72c-2.015625 1.507813-3.199219 3.878907-3.199219 6.398438v136c0 4.417969 3.582031 8 8 8h192c4.417969 0 8-3.582031 8-8v-136c0-2.519531-1.1875-4.890625-3.199219-6.398438zm-92.800781 82.398438 88-66 88 66v20l-83.199219-62.398438c-2.847656-2.136718-6.757812-2.136718-9.601562 0l-83.199219 62.398438zm64 124v-56c0-13.253906 10.746094-24 24-24s24 10.746094 24 24v56zm112 0h-48v-56c0-22.089844-17.910156-40-40-40-22.09375 0-40 17.910156-40 40v56h-48v-84l88-66 88 66zm0 0"/><path d="m72.5 400c-13.253906 0-24-10.746094-24-24 0-4.417969-3.582031-8-8-8s-8 3.582031-8 8c0 13.253906-10.746094 24-24 24-4.417969 0-8 3.582031-8 8s3.582031 8 8 8c13.253906 0 24 10.746094 24 24 0 4.417969 3.582031 8 8 8s8-3.582031 8-8c0-13.253906 10.746094-24 24-24 4.417969 0 8-3.582031 8-8s-3.582031-8-8-8zm-32 16.246094c-2.332031-3.136719-5.109375-5.914063-8.25-8.246094 3.140625-2.332031 5.917969-5.109375 8.25-8.246094 2.328125 3.136719 5.109375 5.914063 8.246094 8.246094-3.136719 2.332031-5.917969 5.109375-8.246094 8.246094zm0 0"/><path d="m440.5 32c-13.253906 0-24-10.746094-24-24 0-4.417969-3.582031-8-8-8s-8 3.582031-8 8c0 13.253906-10.746094 24-24 24-4.417969 0-8 3.582031-8 8s3.582031 8 8 8c13.253906 0 24 10.746094 24 24 0 4.417969 3.582031 8 8 8s8-3.582031 8-8c0-13.253906 10.746094-24 24-24 4.417969 0 8-3.582031 8-8s-3.582031-8-8-8zm-32 16.246094c-2.332031-3.136719-5.109375-5.914063-8.25-8.246094 3.140625-2.332031 5.917969-5.109375 8.25-8.246094 2.328125 3.136719 5.109375 5.914063 8.246094 8.246094-3.136719 2.332031-5.917969 5.109375-8.246094 8.246094zm0 0"/><path d="m352.5 184h16v88h-16zm0 0"/><path d="m262.507812 35.03125c-1.519531-1.914062-3.828124-3.03125-6.273437-3.03125h-95.472656v16h91.648437c25.757813 31.710938 60.734375 54.632812 100.089844 65.601562v38.398438h16v-44.558594c0-3.691406-2.519531-6.902344-6.105469-7.777344-39.613281-9.703124-74.804687-32.472656-99.886719-64.632812zm0 0"/><path d="m392.5 72c-46.464844-3.65625-88.476562-29.023438-113.34375-68.441406-1.484375-2.222656-3.984375-3.558594-6.65625-3.558594h-128c-2.675781 0-5.171875 1.335938-6.65625 3.558594-44.886719 67.34375-110.585938 68.441406-113.34375 68.441406-4.417969 0-8 3.582031-8 8v208c0 2.121094.84375 4.15625 2.34375 5.65625l184 184c3.125 3.121094 8.1875 3.121094 11.3125 0l184-184c1.5-1.5 2.34375-3.535156 2.34375-5.65625v-208c0-4.417969-3.582031-8-8-8zm-8 212.6875-176 176-60.6875-60.6875 58.34375-58.34375-11.3125-11.3125-58.34375 58.34375-12.6875-12.6875 42.34375-42.34375-11.3125-11.3125-42.34375 42.34375-80-80v-197.191406c47.28125-5.832032 89.695312-31.921875 116.222656-71.496094h119.550782c26.527343 39.574219 68.941406 65.664062 116.226562 71.496094zm0 0"/></svg>