<svg height="480pt" viewBox="-39 0 479 480" width="480pt" xmlns="http://www.w3.org/2000/svg"><path d="m150.152344 178.34375c-3.121094-3.121094-8.1875-3.121094-11.308594 0l-136 136c-3.125 3.125-3.125 8.1875 0 11.3125l24 24c3.121094 3.121094 8.1875 3.121094 11.308594 0l2.347656-2.34375v124.6875c0 4.417969 3.578125 8 8 8h344c4.417969 0 8-3.582031 8-8s-3.582031-8-8-8h-144v-116.6875l2.34375 2.34375c3.121094 3.121094 8.1875 3.121094 11.308594 0l24-24c3.125-3.125 3.125-8.1875 0-11.3125l-61.652344-61.65625v-92.6875h168c3.609375-.011719 6.761719-2.441406 7.699219-5.925781.933593-3.488281-.582031-7.167969-3.699219-8.984375l-172-100.355469v-20.734375c0-13.253906-10.746094-24-24-24-13.257812 0-24 10.746094-24 24v20.734375l-172 100.355469c-3.121094 1.816406-4.636719 5.496094-3.699219 8.984375.933594 3.484375 4.085938 5.914062 7.699219 5.925781h168v44.6875zm82.347656 285.65625h-176v-132.6875l88-88 88 88zm24-131.3125-106.347656-106.34375c-3.121094-3.121094-8.1875-3.121094-11.308594 0l-106.34375 106.34375-12.691406-12.6875 124.691406-124.6875 124.6875 124.6875zm-48-188.6875v-80.871094l63.535156 80.871094zm154.398438 0h-70.511719l-59.671875-75.945312zm-170.398438-120c0-4.417969 3.578125-8 8-8 4.417969 0 8 3.582031 8 8v11.40625l-4-2.316406h-.089844c-.214844-.121094-.449218-.167969-.664062-.265625-.214844-.097657-.421875-.273438-.664063-.351563-.0625 0-.128906 0-.199219 0-.207031-.066406-.417968-.089844-.625-.136718-.207031-.046876-.289062-.113282-.441406-.136719-.148437-.023438-.390625 0-.589844 0-.199218 0-.464843-.199219-.726562-.199219-.265625 0-.523438.0625-.800781.089844-.28125.023437-.394531 0-.585938 0-.191406 0-.296875.101562-.445312.140625-.203125.03125-.40625.074219-.601563.128906-.070312 0-.144531 0-.214844 0-.230468.101563-.453124.222656-.664062.351563-.226562.074218-.445312.164062-.65625.265624h-.097656l-4 2.320313zm-24.21875 44.054688-59.671875 75.945312h-70.511719zm24.21875-4.925782v80.871094h-63.539062zm0 96.871094h16v76.6875l-16-16zm0 0"/><path d="m176.5 416h-64v-16h-16v32h96v-32h-16zm0 0"/><path d="m104.5 344c2.179688-.214844 4.339844.558594 5.890625 2.109375 1.546875 1.546875 2.320313 3.710937 2.109375 5.890625h16c0-13.253906-10.746094-24-24-24-13.257812 0-24 10.746094-24 24l16 .097656c-.238281-2.195312.523438-4.378906 2.078125-5.949218 1.550781-1.570313 3.722656-2.359376 5.921875-2.148438zm0 0"/><path d="m184.5 344c2.179688-.214844 4.339844.558594 5.890625 2.109375 1.546875 1.546875 2.320313 3.710937 2.109375 5.890625h16c0-13.253906-10.746094-24-24-24-13.257812 0-24 10.746094-24 24l16 .097656c-.238281-2.195312.523438-4.378906 2.078125-5.949218 1.550781-1.570313 3.722656-2.359376 5.921875-2.148438zm0 0"/></svg>