<svg height="480pt" viewBox="0 -112 480.06853 480" width="480pt" xmlns="http://www.w3.org/2000/svg"><path d="m320.0625 8.035156c0-4.417968-3.582031-7.9999998-8-7.9999998s-8 3.5820318-8 7.9999998c0 13.253906-10.746094 24-24 24-4.417969 0-8 3.582032-8 8 0 4.417969 3.582031 8 8 8 13.253906 0 24 10.746094 24 24 0 4.417969 3.582031 8 8 8s8-3.582031 8-8c0-13.253906 10.746094-24 24-24 4.417969 0 8-3.582031 8-8 0-4.417968-3.582031-8-8-8-13.253906 0-24-10.746094-24-24zm-8 40.246094c-2.332031-3.136719-5.109375-5.917969-8.25-8.246094 3.140625-2.332031 5.917969-5.109375 8.25-8.25 2.328125 3.140625 5.109375 5.917969 8.246094 8.25-3.136719 2.328125-5.917969 5.109375-8.246094 8.246094zm0 0"/><path d="m472.0625 128.035156h-8v-48h8c3.140625 0 5.992188-1.835937 7.289062-4.695312 1.300782-2.859375.804688-6.214844-1.265624-8.578125l-56-64c-1.566407-1.660157-3.742188-2.597657-6.023438-2.597657s-4.460938.9375-6.023438 2.597657l-56 64c-2.070312 2.363281-2.566406 5.71875-1.269531 8.578125s4.152344 4.695312 7.292969 4.695312h8v48h-16v-24c0-4.417968-3.582031-8-8-8h-32c-4.417969 0-8 3.582032-8 8v24h-16v-40c0-4.417968-3.582031-8-8-8h-32c-4.417969 0-8 3.582032-8 8v40h-53.554688c-15.582031-44.082031-60.660156-70.523437-106.742187-62.617187s-79.765625 47.859375-79.765625 94.617187c0 46.753906 33.683594 86.710938 79.765625 94.617188s91.160156-18.535156 106.742187-62.617188h285.554688c4.417969 0 8-3.582031 8-8v-48c0-4.417968-3.582031-8-8-8zm-56-107.847656 38.398438 43.847656h-76.800782zm-32 59.847656h64v48h-24v-32c0-4.417968-3.582031-8-8-8s-8 3.582032-8 8v32h-24zm80 96h-283.402344c-3.578125 0-6.722656 2.378906-7.695312 5.824219-10.890625 38.410156-48.4375 62.910156-87.980469 57.414063-39.546875-5.5-68.984375-39.3125-68.984375-79.238282 0-39.925781 29.4375-73.742187 68.984375-79.238281 39.542969-5.5 77.089844 19 87.980469 57.414063.972656 3.445312 4.117187 5.820312 7.695312 5.824218h67.402344c4.417969 0 8-3.582031 8-8v-40h16v40c0 4.417969 3.582031 8 8 8h32c4.417969 0 8-3.582031 8-8v-24h16v24c0 4.417969 3.582031 8 8 8h120zm0 0"/><path d="m96.0625 96.035156c-35.347656 0-64 28.652344-64 64 0 35.34375 28.652344 64 64 64 35.34375 0 64-28.65625 64-64-.039062-35.332031-28.671875-63.960937-64-64zm0 112c-26.511719 0-48-21.492187-48-48 0-26.511718 21.488281-48 48-48 26.507812 0 48 21.488282 48 48-.027344 26.496094-21.503906 47.972656-48 48zm0 0"/></svg>