<svg height="480pt" viewBox="0 -16 480 480" width="480pt" xmlns="http://www.w3.org/2000/svg"><path d="m479.59375 405.472656-31.59375-94.777344v-302.695312c0-4.417969-3.582031-8-8-8h-400c-4.417969 0-8 3.582031-8 8v302.695312l-31.59375 94.777344c-.207031.828125-.3398438 1.675782-.40625 2.527344v32c0 4.417969 3.582031 8 8 8h464c4.417969 0 8-3.582031 8-8v-32c-.066406-.851562-.199219-1.699219-.40625-2.527344zm-431.59375-389.472656h384v288h-384zm-2.230469 304h388.460938l26.671875 80h-441.804688zm418.230469 112h-448v-16h448zm0 0"/><path d="m80 336h32v16h-32zm0 0"/><path d="m128 336h32v16h-32zm0 0"/><path d="m176 336h32v16h-32zm0 0"/><path d="m224 336h32v16h-32zm0 0"/><path d="m272 336h32v16h-32zm0 0"/><path d="m320 336h32v16h-32zm0 0"/><path d="m368 336h32v16h-32zm0 0"/><path d="m80 368h32v16h-32zm0 0"/><path d="m128 368h32v16h-32zm0 0"/><path d="m176 368h32v16h-32zm0 0"/><path d="m224 368h32v16h-32zm0 0"/><path d="m272 368h32v16h-32zm0 0"/><path d="m320 368h32v16h-32zm0 0"/><path d="m368 368h32v16h-32zm0 0"/><path d="m64 32v256h352v-256zm16 16h320v16h-320zm0 224v-192h320v192zm0 0"/><path d="m173.65625 98.34375c-3.125-3.121094-8.1875-3.121094-11.3125 0l-64 64c-2.285156 2.289062-2.972656 5.730469-1.734375 8.71875s4.15625 4.9375 7.390625 4.9375h8v72c0 4.417969 3.582031 8 8 8h96c4.417969 0 8-3.582031 8-8v-72h8c3.234375 0 6.152344-1.949219 7.390625-4.9375s.550781-6.429688-1.734375-8.71875zm-5.65625 16.96875 44.6875 44.6875h-89.375zm-8 124.6875v-32h16v32zm48 0h-16v-40c0-4.417969-3.582031-8-8-8h-32c-4.417969 0-8 3.582031-8 8v40h-16v-64h80zm0 0"/><path d="m256 96h128v16h-128zm0 0"/><path d="m256 128h128v16h-128zm0 0"/><path d="m256 160h32v16h-32zm0 0"/><path d="m304 160h32v16h-32zm0 0"/><path d="m352 160h32v16h-32zm0 0"/><path d="m256 240h48v-48h-48zm16-32h16v16h-16zm0 0"/><path d="m320 240h64v-48h-64zm16-32h32v16h-32zm0 0"/></svg>