<svg height="480pt" viewBox="0 -32 480.00133 480" width="480pt" xmlns="http://www.w3.org/2000/svg"><path d="m8 112h8v184c0 4.417969 3.582031 8 8 8h136v8c0 4.417969 3.582031 8 8 8h19.058594l-42.21875 84.425781c-1.238282 2.480469-1.105469 5.425781.351562 7.78125 1.460938 2.359375 4.035156 3.796875 6.808594 3.792969h176c2.78125.015625 5.371094-1.414062 6.835938-3.773438 1.46875-2.359374 1.609374-5.316406.363281-7.800781l-42.253907-84.425781h19.054688c4.417969 0 8-3.582031 8-8v-8h136c4.417969 0 8-3.582031 8-8v-184h8c2.675781 0 5.175781-1.335938 6.660156-3.5625 1.480469-2.226562 1.753906-5.046875.722656-7.515625l-40-96c-1.242187-2.980469-4.152343-4.921875-7.382812-4.921875h-384c-3.226562 0-6.140625 1.941406-7.382812 4.921875l-40 96c-1.03125 2.46875-.757813 5.289063.726562 7.515625s3.980469 3.5625 6.65625 3.5625zm64 176v-64h16v64zm32 0v-64h16v64zm32 0v-80h-80v80h-24v-176h128v176zm112-16h-16v-56c0-4.417969 3.582031-8 8-8s8 3.582031 8 8zm-8-80c-13.253906 0-24 10.746094-24 24v56h-40v-128h128v128h-40v-56c0-13.253906-10.746094-24-24-24zm48.679688-64h-97.359376l48.679688-37.863281zm15.320312-20.925781v12.566406l-59.085938-45.960937c-2.890624-2.246094-6.9375-2.246094-9.824218 0l-59.089844 45.960937v-12.566406l64-71.074219zm11.058594 292.925781h-150.113282l40-80h70.113282zm-11.058594-96h-128v-16h128zm48-16v-64h24v64zm40 0v-64h16v64zm56 0h-24v-80h-88v80h-16v-176h128zm-394.664062-272h373.328124l33.335938 80h-144.4375l-69.601562-77.351562c-1.554688-1.617188-3.699219-2.53125-5.945313-2.53125-2.242187 0-4.390625.914062-5.941406 2.53125l-69.632813 77.351562h-144.441406zm0 0"/><path d="m56 128v64h80v-64zm32 48h-16v-32h16zm32-32v32h-16v-32zm0 0"/><path d="m424 192v-64h-88v64zm-32-48h16v32h-16zm-40 32v-32h24v32zm0 0"/><path d="m64 336h16v16h-16zm0 0"/><path d="m80 320h16v16h-16zm0 0"/><path d="m128 368h16v16h-16zm0 0"/><path d="m400 336h16v16h-16zm0 0"/><path d="m384 320h16v16h-16zm0 0"/><path d="m336 368h16v16h-16zm0 0"/><path d="m16 384h16v16h-16zm0 0"/><path d="m448 384h16v16h-16zm0 0"/></svg>