<svg height="480pt" viewBox="0 0 480 480" width="480pt" xmlns="http://www.w3.org/2000/svg"><path d="m440 400c3.234375 0 6.152344-1.949219 7.390625-4.9375s.550781-6.429688-1.734375-8.71875l-48-48c-3.125-3.121094-8.1875-3.121094-11.3125 0l-48 48c-2.285156 2.289062-2.972656 5.730469-1.734375 8.71875s4.15625 4.9375 7.390625 4.9375h8v40c0 4.417969 3.582031 8 8 8h64c4.417969 0 8-3.582031 8-8v-40zm-48-44.6875 28.6875 28.6875h-57.375zm24 76.6875h-16v-8c0-4.417969-3.582031-8-8-8s-8 3.582031-8 8v8h-16v-32h48zm0 0"/><path d="m168 176c4.417969 0 8-3.582031 8-8v-160c0-4.417969-3.582031-8-8-8h-96c-4.417969 0-8 3.582031-8 8v160c0 4.417969 3.582031 8 8 8zm-88-160h80v144h-80zm0 0"/><path d="m96 32h16v16h-16zm0 0"/><path d="m128 32h16v16h-16zm0 0"/><path d="m96 64h16v16h-16zm0 0"/><path d="m128 64h16v16h-16zm0 0"/><path d="m96 96h16v16h-16zm0 0"/><path d="m128 96h16v16h-16zm0 0"/><path d="m96 128h16v16h-16zm0 0"/><path d="m128 128h16v16h-16zm0 0"/><path d="m112 368h16v16h-16zm0 0"/><path d="m112 400h16v16h-16zm0 0"/><path d="m64 232h32v16h-32zm0 0"/><path d="m112 232h32v16h-32zm0 0"/><path d="m160 232h32v16h-32zm0 0"/><path d="m232 288h16v32h-16zm0 0"/><path d="m232 336h16v32h-16zm0 0"/><path d="m232 384h16v32h-16zm0 0"/><path d="m232 160h16v32h-16zm0 0"/><path d="m232 112h16v32h-16zm0 0"/><path d="m232 64h16v32h-16zm0 0"/><path d="m392 208c22.089844 0 40-17.910156 40-40s-17.910156-40-40-40-40 17.910156-40 40c.027344 22.082031 17.917969 39.972656 40 40zm0-64c13.253906 0 24 10.746094 24 24s-10.746094 24-24 24-24-10.746094-24-24 10.746094-24 24-24zm0 0"/><path d="m384 304h16v16h-16zm0 0"/><path d="m304 384h16v16h-16zm0 0"/><path d="m464 384h16v16h-16zm0 0"/><path d="m384 464h16v16h-16zm0 0"/><path d="m322.347656 333.65625 11.3125-11.3125 16 16-11.316406 11.3125zm0 0"/><path d="m434.34375 338.339844 15.996094-16 11.316406 11.3125-16 16zm0 0"/><path d="m434.347656 445.65625 11.3125-11.3125 16 16-11.316406 11.3125zm0 0"/><path d="m322.34375 450.347656 15.996094-16 11.316406 11.3125-16 16zm0 0"/><path d="m168 432h-8v-88c0-4.417969-3.582031-8-8-8h-24v-24c0-4.417969-3.582031-8-8-8s-8 3.582031-8 8v24h-24c-4.417969 0-8 3.582031-8 8v88h-8c-4.417969 0-8 3.582031-8 8v32c0 4.417969 3.582031 8 8 8h96c4.417969 0 8-3.582031 8-8v-32c0-4.417969-3.582031-8-8-8zm-72-80h48v80h-48zm64 112h-80v-16h80zm0 0"/><path d="m472 192h-10.921875c.449219-2.078125.859375-4.089844 1.167969-5.921875.859375-4.011719 1.394531-8.085937 1.601562-12.183594.167969-2.398437.183594-3.789062.183594-3.894531-.027344-39.765625-32.285156-71.976562-72.050781-71.949219-39.765625.03125-71.976563 32.289063-71.949219 72.054688 0 0 0 1.421875.175781 3.710937.183594 4.011719.691407 8.003906 1.511719 11.9375.335938 1.925782.761719 4.046875 1.242188 6.246094h-34.960938v-184c0-4.417969-3.582031-8-8-8h-80c-4.417969 0-8 3.582031-8 8v184h-184c-4.417969 0-8 3.582031-8 8v80c0 4.417969 3.582031 8 8 8h184v184c0 4.417969 3.582031 8 8 8h80c4.417969 0 8-3.582031 8-8v-184h184c4.417969 0 8-3.582031 8-8v-80c0-4.417969-3.582031-8-8-8zm-80-80c31.421875.582031 56.460938 26.464844 56 57.886719 0 .113281 0 1.191406-.152344 2.960937v.167969c-.15625 3.367187-.589844 6.71875-1.296875 10.015625-6.21875 35.011719-25.773437 66.246094-54.550781 87.136719-28.851562-20.976563-48.429688-52.332031-54.609375-87.464844-.679687-3.246094-1.097656-6.542969-1.238281-9.855469-.152344-1.769531-.152344-2.847656-.152344-2.847656-.507812-31.464844 24.539062-57.40625 56-58zm-112 160c-4.417969 0-8 3.582031-8 8v184h-24v-32h-16v32h-24v-184c0-4.417969-3.582031-8-8-8h-184v-24h32v-16h-32v-24h184c4.417969 0 8-3.582031 8-8v-184h24v32h16v-32h24v184c0 4.417969 3.582031 8 8 8h47.375c8.292969 24.53125 22.679688 46.554688 41.816406 64zm184 0h-49.191406c19.140625-17.445312 33.539062-39.464844 41.839844-64h7.351562zm0 0"/></svg>