<svg height="480pt" viewBox="0 -48 480 480" width="480pt" xmlns="http://www.w3.org/2000/svg"><path d="m472 0h-192c-4.417969 0-8 3.582031-8 8v128c0 4.417969 3.582031 8 8 8h88v20l-92.800781 69.601562c-2.011719 1.507813-3.199219 3.878907-3.199219 6.398438v136c0 4.417969 3.582031 8 8 8h192c4.417969 0 8-3.582031 8-8v-136c0-2.519531-1.1875-4.890625-3.199219-6.398438l-92.800781-69.601562v-20h88c4.417969 0 8-3.582031 8-8v-128c0-4.417969-3.582031-8-8-8zm-152 368v-80h48v80zm144 0h-80v-88c0-4.417969-3.582031-8-8-8h-64c-4.417969 0-8 3.582031-8 8v88h-16v-84l88-66 88 66zm0-104-83.199219-62.398438c-2.84375-2.136718-6.757812-2.136718-9.601562 0l-83.199219 62.398438v-20l88-66 88 66zm0-136h-176v-112h176zm0 0"/><path d="m328 64h-16v-16h16v-16h-32v48h16v16h-16v16h32zm0 0"/><path d="m352 80h8v32h16v-80h-40v80h16zm8-32v16h-8v-16zm0 0"/><path d="m416 96h-16v-64h-16v80h32zm0 0"/><path d="m456 96h-16v-16h16v-16h-16v-16h16v-16h-32v80h32zm0 0"/><path d="m253.65625 98.34375c-3.125-3.121094-8.1875-3.121094-11.3125 0l-16 16c-2.078125 2.007812-2.914062 4.984375-2.179688 7.78125.730469 2.796875 2.914063 4.980469 5.710938 5.710938 2.796875.734374 5.773438-.101563 7.78125-2.179688l16-16c3.121094-3.125 3.121094-8.1875 0-11.3125zm0 0"/><path d="m248 184h-16c-4.417969 0-8 3.582031-8 8s3.582031 8 8 8h16c4.417969 0 8-3.582031 8-8s-3.582031-8-8-8zm0 0"/><path d="m237.65625 258.34375c-3.140625-3.03125-8.128906-2.988281-11.214844.097656-3.085937 3.085938-3.128906 8.074219-.097656 11.214844l16 16c3.140625 3.03125 8.128906 2.988281 11.214844-.097656 3.085937-3.085938 3.128906-8.074219.097656-11.214844zm0 0"/><path d="m40 232h8v24c0 13.253906 10.746094 24 24 24s24-10.746094 24-24v-24h6.113281l57.886719 28.945312v11.054688c0 4.417969 3.582031 8 8 8h32c4.417969 0 8-3.582031 8-8v-160c0-4.417969-3.582031-8-8-8h-32c-4.417969 0-8 3.582031-8 8v11.054688l-57.886719 28.945312h-62.113281c-22.089844 0-40 17.910156-40 40s17.910156 40 40 40zm40 24c0 4.417969-3.582031 8-8 8s-8-3.582031-8-8v-24h16zm96-136h16v144h-16zm-16 123.054688-48-24v-54.109376l48-24zm-64-27.054688h-48v-48h48zm-64-46.632812v45.265624c-9.597656-3.386718-16.011719-12.457031-16.011719-22.632812s6.414063-19.246094 16.011719-22.632812zm0 0"/></svg>