<svg height="480pt" viewBox="-48 0 479 480" width="480pt" xmlns="http://www.w3.org/2000/svg"><path d="m85.4375 447.382812c.96875.402344 2.007812.613282 3.054688.617188h96c4.417968 0 8-3.582031 8-8v-80c0-4.417969-3.582032-8-8-8h-96c-4.417969 0-8 3.582031-8 8v80c.003906 1.050781.214843 2.085938.617187 3.054688.8125 1.960937 2.367187 3.515624 4.328125 4.328124zm91.054688-79.382812v64h-28.6875l18.34375-18.34375c3.03125-3.140625 2.988281-8.128906-.097657-11.214844-3.085937-3.085937-8.074219-3.128906-11.214843-.097656l-29.65625 29.65625h-17.375l18.34375-18.34375c3.03125-3.140625 2.988281-8.128906-.097657-11.214844-3.085937-3.085937-8.074219-3.128906-11.214843-.097656l-18.34375 18.34375v-52.6875zm0 0"/><path d="m8.492188 336h40v136c0 4.417969 3.582031 8 8 8h272c4.417968 0 8-3.582031 8-8v-136h40c3.335937-.003906 6.320312-2.074219 7.488281-5.199219 1.167969-3.121093.273437-6.640625-2.238281-8.832031l-181.25-157.617188v-20.351562h8c30.871093 0 56-32.304688 56-72s-25.128907-72-56-72h-32c-30.871094 0-56 32.304688-56 72s25.128906 72 56 72h8v20.351562l-181.246094 157.617188c-2.515625 2.191406-3.40625 5.710938-2.238282 8.832031 1.167969 3.125 4.152344 5.195313 7.484376 5.199219zm203.34375-319.808594c20.496093 2.394532 36.65625 26.503906 36.65625 55.808594s-16.160157 53.414062-36.65625 55.808594l.105468-.121094c1.488282-1.597656 2.910156-3.265625 4.273438-5 .34375-.449219.652344-.945312.988281-1.398438.976563-1.335937 1.9375-2.6875 2.832031-4.121093.457032-.71875.867188-1.480469 1.296875-2.222657.722657-1.242187 1.433594-2.488281 2.089844-3.792968.429687-.847656.800781-1.710938 1.222656-2.585938.59375-1.277344 1.160157-2.566406 1.6875-3.894531.367188-.917969.714844-1.855469 1.050781-2.808594.476563-1.34375.925782-2.710937 1.34375-4.101562.285157-.96875.574219-1.9375.796876-2.929688.386718-1.464843.714843-2.953125 1.015624-4.457031.203126-.960938.417969-1.910156.578126-2.878906.289062-1.679688.496093-3.390625.695312-5.105469.097656-.847656.222656-1.671875.296875-2.527344.222656-2.582031.351563-5.207031.351563-7.863281s-.128907-5.28125-.351563-7.863281c-.074219-.855469-.199219-1.679688-.296875-2.527344-.199219-1.714844-.40625-3.425781-.695312-5.105469-.160157-.96875-.375-1.917968-.578126-2.878906-.300781-1.503906-.628906-2.992188-1.015624-4.457031-.253907-.992188-.542969-1.960938-.796876-2.929688-.417968-1.390625-.867187-2.757812-1.34375-4.101562-.335937-.953125-.683593-1.890625-1.050781-2.808594-.527343-1.328125-1.09375-2.617187-1.6875-3.894531-.398437-.875-.800781-1.738282-1.222656-2.585938-.65625-1.304687-1.367187-2.550781-2.089844-3.792968-.429687-.742188-.800781-1.503907-1.296875-2.222657-.894531-1.433593-1.855468-2.785156-2.832031-4.121093-.335937-.453126-.644531-.949219-.988281-1.398438-1.363282-1.761719-2.785156-3.425781-4.273438-5zm-75.34375 55.808594c0-30.878906 17.945312-56 40-56 22.058593 0 40 25.121094 40 56s-17.941407 56-40 56c-22.054688 0-40-25.121094-40-56zm170.839843 248h-229.679687l114.839844-101.335938zm-82.839843 144v-96h64v96zm96 0h-16v-104c0-4.417969-3.582032-8-8-8h-80c-4.417969 0-8 3.582031-8 8v104h-144v-128h256zm-128-285.398438 162.609374 141.398438h-23.585937l-133.734375-118c-3.023438-2.664062-7.554688-2.664062-10.578125 0l-133.734375 118h-23.582031zm0 0"/><path d="m184.492188 112v-8h8c4.417968 0 8-3.582031 8-8v-24c0-4.417969-3.582032-8-8-8h-24v-8h24c4.417968 0 8-3.582031 8-8s-3.582032-8-8-8h-8v-8c0-4.417969-3.582032-8-8-8-4.417969 0-8 3.582031-8 8v8h-8c-4.417969 0-8 3.582031-8 8v24c0 4.417969 3.582031 8 8 8h24v8h-24c-4.417969 0-8 3.582031-8 8s3.582031 8 8 8h8v8c0 4.417969 3.582031 8 8 8 4.417968 0 8-3.582031 8-8zm0 0"/><path d="m240.492188 408h16v16h-16zm0 0"/><path d="m128.492188 304h128c4.417968 0 8-3.582031 8-8s-3.582032-8-8-8h-128c-4.417969 0-8 3.582031-8 8s3.582031 8 8 8zm0 0"/></svg>