<svg height="480pt" viewBox="0 -80 480 480" width="480pt" xmlns="http://www.w3.org/2000/svg"><path d="m384 272c0 8.835938-7.164062 16-16 16s-16-7.164062-16-16 7.164062-16 16-16 16 7.164062 16 16zm0 0"/><path d="m128 272c0 8.835938-7.164062 16-16 16s-16-7.164062-16-16 7.164062-16 16-16 16 7.164062 16 16zm0 0"/><path d="m112 176h32v16h-32zm0 0"/><path d="m88 0h88v16h-88zm0 0"/><path d="m176 288h64v16h-64zm0 0"/><path d="m464 144h-16v-112h-128v32h-64v-16h-80v-16h-88v36.929688l-72 80v59.070312h-16v64h64c0 26.507812 21.492188 48 48 48s48-21.492188 48-48h96v-16h66.800781c-7.113281 19.90625-.371093 42.121094 16.609375 54.710938 16.980469 12.589843 40.199219 12.589843 57.179688 0 16.980468-12.589844 23.722656-34.804688 16.609375-54.710938h66.800781v-48h-16zm-16 32h-16v-16h16zm-272-16h240v16h-240zm256-112v96h-24v-96zm-40 0v96h-16v-96zm-56 0h24v96h-24zm-56 32v32h16v-32h24v64h-64v-64zm-80-16v32h16v-32h24v80h-64v-80zm-72 68.6875-18.34375-18.34375-11.3125 11.3125 18.34375 18.34375h-9.375l-21.65625-21.65625-11.3125 11.3125 10.34375 10.34375h-42.726562l57.597656-64h28.441406zm-80 123.3125h-32v-32h32zm64 48c-17.671875 0-32-14.328125-32-32s14.328125-32 32-32 32 14.328125 32 32-14.328125 32-32 32zm48-48h-2.800781c-6.75-19.175781-24.867188-32.003906-45.199219-32.003906s-38.449219 12.828125-45.199219 32.003906h-2.800781v-48h-32v-48h104c4.417969 0 8-3.582031 8-8v-80c0-4.417969-3.582031-8-8-8h-32v-16h56zm80 0h-64v-32h64zm128 48c-17.671875 0-32-14.328125-32-32s14.328125-32 32-32 32 14.328125 32 32-14.328125 32-32 32zm48-96v32h-12.320312c-9.066407-10.179688-22.046876-16-35.679688-16s-26.613281 5.820312-35.679688 16h-76.320312v-32h-80v-16h272v16zm48 32h-32v-16h32zm0 0"/></svg>