<svg height="480pt" viewBox="-72 0 480 480" width="480pt" xmlns="http://www.w3.org/2000/svg"><path d="m157.652344 330.34375-24-24c-3.121094-3.121094-8.1875-3.121094-11.308594 0l-64 64c-1.5 1.5-2.34375 3.535156-2.34375 5.65625v96c0 4.417969 3.578125 8 8 8h72c4.417969 0 8-3.582031 8-8v-32h88c26.496094-.027344 47.972656-21.5 48-48v-72c0-4.417969-3.582031-8-8-8h-32c-4.421875 0-8 3.582031-8 8v8h-24c-4.421875 0-8 3.582031-8 8v32h-63.355469l21.601563-27c2.546875-3.183594 2.292968-7.773438-.59375-10.65625zm58.347656 13.65625h16v24h-16zm-102.25 27c-1.921875 2.402344-2.296875 5.691406-.964844 8.464844 1.332032 2.773437 4.136719 4.535156 7.214844 4.535156h120c4.417969 0 8-3.582031 8-8v-48h16v64c0 17.671875-14.328125 32-32 32h-96c-4.421875 0-8 3.582031-8 8v32h-56v-84.6875l56-56 13.277344 13.28125zm0 0"/><path d="m8 176h32v104c0 4.417969 3.578125 8 8 8h240c4.417969 0 8-3.582031 8-8v-104h32c3.234375 0 6.148438-1.949219 7.386719-4.9375s.554687-6.429688-1.734375-8.71875l-160-160c-3.121094-3.121094-8.1875-3.121094-11.308594 0l-66.34375 66.34375v-20.6875h8c4.417969 0 8-3.582031 8-8v-32c0-4.417969-3.582031-8-8-8h-80c-4.421875 0-8 3.582031-8 8v32c0 4.417969 3.578125 8 8 8h8v84.6875l-29.65625 29.65625c-2.2890625 2.289062-2.972656 5.730469-1.734375 8.71875s4.152344 4.9375 7.390625 4.9375zm192 96v-40c0-13.253906 10.742188-24 24-24 13.253906 0 24 10.746094 24 24v40zm80 0h-16v-40c0-22.089844-17.910156-40-40-40-22.09375 0-40 17.910156-40 40v40h-128v-96h224zm-248-256h64v16h-64zm16 32h32v36.6875l-32 32zm120-28.6875 140.6875 140.6875h-281.378906zm0 0"/><path d="m144 144h48c4.417969 0 8-3.582031 8-8v-40c0-17.671875-14.328125-32-32-32-17.675781 0-32 14.328125-32 32v40c0 4.417969 3.578125 8 8 8zm8-48c0-8.835938 7.160156-16 16-16 8.835938 0 16 7.164062 16 16v32h-32zm0 0"/><path d="m208 240h16v16h-16zm0 0"/><path d="m80 256h32c4.417969 0 8-3.582031 8-8s-3.582031-8-8-8h-24v-40c0-4.417969-3.582031-8-8-8-4.421875 0-8 3.582031-8 8v48c0 4.417969 3.578125 8 8 8zm0 0"/></svg>