<svg height="480pt" viewBox="0 0 480 480" width="480pt" xmlns="http://www.w3.org/2000/svg"><path d="m472 240h-192c-4.417969 0-8 3.578125-8 8v128c0 4.417969 3.582031 8 8 8h8v80h-32v-192c0-2.125-.84375-4.15625-2.34375-5.65625l-45.65625-45.65625v-73.378906l34.34375 34.34375c1.5 1.503906 3.535156 2.34375 5.65625 2.347656 1.050781 0 2.09375-.203125 3.0625-.609375 2.988281-1.238281 4.9375-4.15625 4.9375-7.390625v-48c0-2.125-.84375-4.15625-2.34375-5.65625l-120-120c-3.125-3.125-8.1875-3.125-11.3125 0l-120 120c-1.5 1.5-2.34375 3.53125-2.34375 5.65625v48c0 3.234375 1.949219 6.148438 4.9375 7.386719s6.429688.554687 8.71875-1.734375l34.34375-34.34375v73.378906l-45.65625 45.65625c-1.5 1.5-2.34375 3.53125-2.34375 5.65625v200c0 4.417969 3.582031 8 8 8h464c4.417969 0 8-3.582031 8-8 0-4.421875-3.582031-8-8-8h-8v-80h8c4.417969 0 8-3.582031 8-8v-128c0-4.421875-3.582031-8-8-8zm-456-108.691406 112-112 112 112v25.378906l-106.34375-106.34375c-3.125-3.125-8.1875-3.125-11.3125 0l-106.34375 106.34375zm48 0 64-64 64 64v73.378906l-58.34375-58.34375c-3.125-3.125-8.1875-3.125-11.3125 0l-58.34375 58.34375zm-48 144 112-112 112 112v33.378906l-106.34375-106.34375c-3.125-3.125-8.1875-3.125-11.3125 0l-106.34375 106.34375zm32 188.691406v-112h64v112zm80 0v-120c0-4.421875-3.582031-8-8-8h-80c-4.417969 0-8 3.578125-8 8v120h-16v-132.691406l112-112 112 112v132.691406zm176 0v-80h16v80zm112-80v80h-80v-80zm32 80h-16v-80h16zm16-96h-176v-112h176zm0 0"/><path d="m328 304h-16v-16h16v-16h-32v48h16v16h-16v16h32zm0 0"/><path d="m352 320h8v32h16v-80h-40v80h16zm8-32v16h-8v-16zm0 0"/><path d="m416 336h-16v-64h-16v80h32zm0 0"/><path d="m456 336h-16v-16h16v-16h-16v-16h16v-16h-32v80h32zm0 0"/><path d="m80 400h16v16h-16zm0 0"/><path d="m216 336h-64c-4.417969 0-8 3.578125-8 8v64c.019531.945312.207031 1.878906.558594 2.757812.070312.210938.152344.417969.25.617188.367187.8125.867187 1.558594 1.480468 2.207031.09375.089844.207032.152344.304688.25.371094.359375.773438.6875 1.207031.972657.222657.136718.472657.195312.710938.3125.238281.125.484375.234374.734375.328124.878906.347657 1.8125.53125 2.753906.554688h64c.941406-.023438 1.875-.207031 2.753906-.554688.25-.09375.496094-.203124.734375-.328124.238281-.117188.488281-.175782.710938-.3125.433593-.285157.839843-.617188 1.207031-.980469.097656-.089844.210938-.144531.304688-.242188.613281-.648437 1.113281-1.394531 1.480468-2.207031.097656-.199219.179688-.40625.25-.617188.351563-.878906.539063-1.8125.558594-2.757812v-64c0-4.421875-3.582031-8-8-8zm-8 16v39.132812c-9.339844-10.992187-14.835938-24.734374-15.664062-39.132812zm-13.425781 48h-21.148438c4.25-5.109375 7.808594-10.757812 10.574219-16.800781 2.765625 6.042969 6.324219 11.691406 10.574219 16.800781zm-34.574219-48h15.664062c-.796874 14.425781-6.296874 28.195312-15.664062 39.199219zm0 0"/><path d="m160 288c0-17.675781-14.328125-32-32-32s-32 14.324219-32 32c0 17.671875 14.328125 32 32 32s32-14.328125 32-32zm-32 16c-8.835938 0-16-7.164062-16-16 0-8.839844 7.164062-16 16-16s16 7.160156 16 16c0 8.835938-7.164062 16-16 16zm0 0"/></svg>