<svg height="480pt" viewBox="0 0 480 480" width="480pt" xmlns="http://www.w3.org/2000/svg"><path d="m245.65625 2.34375c-3.125-3.121094-8.1875-3.121094-11.3125 0l-90.34375 90.34375v-44.6875h8c4.417969 0 8-3.582031 8-8v-32c0-4.417969-3.582031-8-8-8h-112c-4.417969 0-8 3.582031-8 8v32c0 4.417969 3.582031 8 8 8h8v140.6875l-45.65625 45.65625c-1.5 1.5-2.34375 3.535156-2.34375 5.65625v48c0 3.234375 1.949219 6.152344 4.9375 7.390625s6.429688.550781 8.71875-1.734375l34.34375-34.34375v212.6875c0 4.417969 3.582031 8 8 8h368c4.417969 0 8-3.582031 8-8v-212.6875l34.34375 34.34375c2.289062 2.285156 5.730469 2.972656 8.71875 1.734375s4.9375-4.15625 4.9375-7.390625v-48c0-2.121094-.84375-4.15625-2.34375-5.65625zm-197.65625 13.65625h96v16h-96zm16 96h32v-16h-32v-16h32v-16h-32v-16h64v60.6875l-64 64zm352 352h-352v-220.6875l176-176 176 176zm48-195.3125-218.34375-218.34375c-3.125-3.121094-8.1875-3.121094-11.3125 0l-218.34375 218.34375v-25.375l224-224 224 224zm0 0"/><path d="m80 448h320v-192h-320zm16-176h288v160h-288zm0 0"/><path d="m112 320h16v-16h16v-16h-32zm0 0"/><path d="m336 304h16v16h16v-32h-32zm0 0"/><path d="m352 400h-16v16h32v-32h-16zm0 0"/><path d="m128 384h-16v32h32v-16h-16zm0 0"/><path d="m248 296h-16v16h-24v48h48v16h-48v16h24v16h16v-16h24v-48h-48v-16h48v-16h-24zm0 0"/><path d="m192 176c0 26.507812 21.492188 48 48 48s48-21.492188 48-48-21.492188-48-48-48c-26.5.027344-47.972656 21.5-48 48zm80 0c.101562 10.429688-4.933594 20.238281-13.46875 26.234375-8.53125 5.996094-19.464844 7.414063-29.242188 3.789063l16.367188-16.367188-11.3125-11.3125-18.457031 18.457031c-5.054688-5.753906-7.855469-13.140625-7.886719-20.800781 0-17.671875 14.328125-32 32-32s32 14.328125 32 32zm0 0"/></svg>