<svg height="480pt" viewBox="0 0 480.03482 480" width="480pt" xmlns="http://www.w3.org/2000/svg"><path d="m160.035156 366.414062v49.601563h-16v64h80v-64h-16v-49.601563c18.769532-2.441406 37.039063-7.792968 54.160156-15.855468l-19.816406 19.816406c-2.273437 2.289062-2.949218 5.722656-1.714844 8.703125 1.238282 2.984375 4.144532 4.929687 7.371094 4.9375h8v40c0 4.417969 3.582032 8 8 8h64c4.417969 0 8-3.582031 8-8v-40h8c3.238282 0 6.152344-1.949219 7.390625-4.9375s.554688-6.429687-1.734375-8.71875l-46.398437-46.398437c66.070312-56.378907 83.691406-151.296876 42.257812-227.632813-41.433593-76.335937-130.621093-113.277344-213.898437-88.597656-83.273438 24.679687-137.929688 104.253906-131.078125 190.835937 6.851562 86.585938 73.34375 156.574219 159.460937 167.847656zm160 49.601563h-16v-8c0-4.417969-3.582031-8-8-8-4.417968 0-8 3.582031-8 8v8h-16v-32h48zm-52.6875-48 28.6875-28.6875 28.6875 28.6875zm-59.3125 96h-48v-32h48zm-16-48h-16v-48.199219c2.65625.109375 5.320313.199219 8 .199219 2.679688 0 5.34375-.089844 8-.199219zm-8-400c92.785156 0 168 75.214844 168 168s-75.214844 168-168 168c-92.78125 0-168-75.214844-168-168 .105469-92.738281 75.261719-167.894531 168-168zm0 0"/><path d="m184.035156 336.015625c83.949219 0 152-68.050781 152-152 0-83.945313-68.050781-152-152-152-83.945312 0-152 68.054687-152 152 .09375 83.910156 68.09375 151.90625 152 152zm0-288c75.113282 0 136 60.890625 136 136s-60.886718 136-136 136c-75.109375 0-136-60.890625-136-136 .085938-75.074219 60.925782-135.917969 136-136zm0 0"/><path d="m80.035156 184.015625c.066406-57.410156 46.589844-103.933594 104-104v-16c-66.242187.074219-119.921875 53.757813-120 120zm0 0"/><path d="m178.140625 90.609375-88 96c-2.144531 2.335937-2.707031 5.722656-1.429687 8.625 1.277343 2.90625 4.152343 4.78125 7.324218 4.78125h8v72c0 4.417969 3.582032 8 8 8h144c4.417969 0 8-3.582031 8-8v-72h8c3.175782 0 6.046875-1.875 7.324219-4.78125 1.277344-2.902344.71875-6.289063-1.425781-8.625l-88-96c-1.550782-1.589844-3.675782-2.484375-5.898438-2.484375-2.21875 0-4.34375.894531-5.894531 2.484375zm-26.105469 173.40625v-32h16v32zm96 0h-64v-40c0-4.417969-3.582031-8-8-8h-32c-4.417968 0-8 3.582031-8 8v40h-16v-64h128zm5.816406-80h-139.632812l69.816406-76.167969zm0 0"/><path d="m477.691406 210.359375-48-48c-3.121094-3.121094-8.1875-3.121094-11.3125 0l-48 48c-2.285156 2.289063-2.96875 5.730469-1.730468 8.71875 1.238281 2.988281 4.152343 4.9375 7.386718 4.9375h8v40c0 4.417969 3.582032 8 8 8h64c4.417969 0 8-3.582031 8-8v-40h8c3.238282 0 6.152344-1.949219 7.390625-4.9375s.554688-6.429687-1.734375-8.71875zm-53.65625-31.03125 28.6875 28.6875h-57.375zm24 76.6875h-16v-8c0-4.417969-3.582031-8-8-8-4.417968 0-8 3.582031-8 8v8h-16v-32h48zm0 0"/><path d="m477.691406 50.359375-48-48c-3.121094-3.121094-8.1875-3.121094-11.3125 0l-48 48c-2.285156 2.289063-2.96875 5.730469-1.730468 8.71875 1.238281 2.988281 4.152343 4.9375 7.386718 4.9375h8v40c0 4.417969 3.582032 8 8 8h64c4.417969 0 8-3.582031 8-8v-40h8c3.238282 0 6.152344-1.949219 7.390625-4.9375s.554688-6.429687-1.734375-8.71875zm-53.65625-31.03125 28.6875 28.6875h-57.375zm24 76.6875h-16v-8c0-4.417969-3.582031-8-8-8-4.417968 0-8 3.582031-8 8v8h-16v-32h48zm0 0"/><path d="m464.035156 384.015625h8c3.238282 0 6.152344-1.949219 7.390625-4.9375s.554688-6.429687-1.734375-8.71875l-48-48c-3.121094-3.121094-8.1875-3.121094-11.3125 0l-48 48c-2.285156 2.289063-2.96875 5.730469-1.730468 8.71875 1.238281 2.988281 4.152343 4.9375 7.386718 4.9375h8v40c0 4.417969 3.582032 8 8 8h64c4.417969 0 8-3.582031 8-8zm-40-44.6875 28.6875 28.6875h-57.375zm24 76.6875h-16v-8c0-4.417969-3.582031-8-8-8-4.417968 0-8 3.582031-8 8v8h-16v-32h48zm0 0"/><path d="m24.035156 432.015625h64c4.417969 0 8-3.582031 8-8v-40h8c3.238282 0 6.152344-1.949219 7.390625-4.9375s.554688-6.429687-1.734375-8.71875l-48-48c-3.121094-3.121094-8.1875-3.121094-11.3125 0l-48 48c-2.285156 2.289063-2.96875 5.730469-1.730468 8.71875 1.238281 2.988281 4.152343 4.9375 7.386718 4.9375h8v40c0 4.417969 3.582032 8 8 8zm56-16h-16v-8c0-4.417969-3.582031-8-8-8-4.417968 0-8 3.582031-8 8v8h-16v-32h48zm-24-76.6875 28.6875 28.6875h-57.375zm0 0"/></svg>