<svg height="480pt" viewBox="-16 0 480 480" width="480pt" xmlns="http://www.w3.org/2000/svg"><path d="m64 216v48c0 3.234375 1.949219 6.152344 4.9375 7.390625s6.429688.550781 8.71875-1.734375l34.34375-34.34375v172.6875c0 4.417969 3.582031 8 8 8h208c4.417969 0 8-3.582031 8-8v-172.6875l34.34375 34.34375c1.5 1.5 3.535156 2.34375 5.65625 2.34375 1.050781.003906 2.09375-.203125 3.0625-.609375 2.988281-1.238281 4.9375-4.15625 4.9375-7.390625v-48c0-2.121094-.84375-4.15625-2.34375-5.65625l-152-152c-3.125-3.121094-8.1875-3.121094-11.3125 0l-152 152c-1.5 1.5-2.34375 3.535156-2.34375 5.65625zm256 184h-192v-180.6875l96-96 96 96zm-240-180.6875 144-144 144 144v25.375l-138.34375-138.34375c-3.125-3.121094-8.1875-3.121094-11.3125 0l-138.34375 138.34375zm0 0"/><path d="m216 208c0-13.253906-10.746094-24-24-24h-16c-4.417969 0-8 3.582031-8 8v168c0 4.417969 3.582031 8 8 8h88c8.835938 0 16-7.164062 16-16v-112c0-8.835938-7.164062-16-16-16h-48zm-32-8h8c4.417969 0 8 3.582031 8 8v16h-16zm80 56h-48v16h48v16h-48v16h48v16h-48v16h48v16h-80v-112h80zm0 0"/><path d="m216 440v32c0 4.417969 3.582031 8 8 8s8-3.582031 8-8v-32c0-4.417969-3.582031-8-8-8s-8 3.582031-8 8zm0 0"/><path d="m58.34375 394.34375-24 24c-2.078125 2.007812-2.914062 4.984375-2.179688 7.78125.730469 2.796875 2.914063 4.980469 5.710938 5.710938 2.796875.734374 5.773438-.101563 7.78125-2.179688l24-24c3.03125-3.140625 2.988281-8.128906-.097656-11.214844-3.085938-3.085937-8.074219-3.128906-11.214844-.097656zm0 0"/><path d="m378.34375 394.34375c-3.121094 3.125-3.121094 8.1875 0 11.3125l24 24c3.140625 3.03125 8.128906 2.988281 11.214844-.097656 3.085937-3.085938 3.128906-8.074219.097656-11.214844l-24-24c-3.125-3.121094-8.1875-3.121094-11.3125 0zm0 0"/><path d="m232 40v-32c0-4.417969-3.582031-8-8-8s-8 3.582031-8 8v32c0 4.417969 3.582031 8 8 8s8-3.582031 8-8zm0 0"/><path d="m45.65625 50.34375c-3.140625-3.03125-8.128906-2.988281-11.214844.097656-3.085937 3.085938-3.128906 8.074219-.097656 11.214844l24 24c3.140625 3.03125 8.128906 2.988281 11.214844-.097656 3.085937-3.085938 3.128906-8.074219.097656-11.214844zm0 0"/><path d="m402.34375 50.34375-24 24c-2.078125 2.007812-2.914062 4.984375-2.179688 7.78125.730469 2.796875 2.914063 4.980469 5.710938 5.710938 2.796875.734374 5.773438-.101563 7.78125-2.179688l24-24c3.03125-3.140625 2.988281-8.128906-.097656-11.214844-3.085938-3.085937-8.074219-3.128906-11.214844-.097656zm0 0"/><path d="m0 240c0 4.417969 3.582031 8 8 8h32c4.417969 0 8-3.582031 8-8s-3.582031-8-8-8h-32c-4.417969 0-8 3.582031-8 8zm0 0"/><path d="m448 240c0-4.417969-3.582031-8-8-8h-32c-4.417969 0-8 3.582031-8 8s3.582031 8 8 8h32c4.417969 0 8-3.582031 8-8zm0 0"/></svg>