<svg height="480pt" viewBox="0 0 480 480.02051" width="480pt" xmlns="http://www.w3.org/2000/svg"><path d="m192.011719 384.019531h96v16h-96zm0 0"/><path d="m192.011719 352.019531h96v16h-96zm0 0"/><path d="m208.011719 288.019531h64v16h-64zm0 0"/><path d="m208.011719 256.019531h64v16h-64zm0 0"/><path d="m208.011719 224.019531h64v16h-64zm0 0"/><path d="m208.011719 192.019531h64v16h-64zm0 0"/><path d="m224.011719 112.019531h32v16h-32zm0 0"/><path d="m224.011719 80.019531h32v16h-32zm0 0"/><path d="m384.011719 260.179688v75.839843h-48v48h-16v-64h-16v-176h-16v-96h-40v-47.9999998h-16v47.9999998h-40v96h-16v176h-16v7.351563l-32-25.597656-32 25.597656v-71.351563h-96.0000002v224h480.0000002v-256h-50.808594zm-32 91.839843h32v32h-32zm-144-288h64v80h-64zm-16 96h96v160h-96zm-112 304h-64v-192h64zm80 0h-64v-116.160156l32-25.597656 32 25.597656zm48 0v-32h64v32zm96 0h-16v-48h-96v48h-16v-128h128zm80 0h-64v-64h64zm80-224v224h-64v-196.160156l34.804687-27.839844zm0 0"/><path d="m160.011719 56.019531c-.015625-7.878906-3.894531-15.25-10.386719-19.722656-6.488281-4.472656-14.757812-5.472656-22.125-2.675781-3.132812-19.378906-19.859375-33.621094-39.488281-33.621094-19.628907 0-36.359375 14.242188-39.488281 33.621094-7.371094-2.796875-15.640626-1.796875-22.128907 2.675781s-10.371093 11.84375-10.382812 19.722656v40h144zm-16 24h-112v-24c0-4.417969 3.582031-8 8-8s8 3.582031 8 8h16v-16c0-13.253906 10.742187-24 24-24 13.253906 0 24 10.746094 24 24v16h16c0-4.417969 3.582031-8 8-8s8 3.582031 8 8zm0 0"/><path d="m464.011719 96.019531c-.015625-7.878906-3.894531-15.25-10.386719-19.722656-6.488281-4.472656-14.757812-5.472656-22.125-2.675781-3.132812-19.378906-19.859375-33.621094-39.488281-33.621094-19.628907 0-36.359375 14.242188-39.488281 33.621094-7.371094-2.796875-15.640626-1.796875-22.128907 2.675781s-10.371093 11.84375-10.382812 19.722656v40h144zm-16 24h-112v-24c0-4.417969 3.582031-8 8-8s8 3.582031 8 8h16v-16c0-13.253906 10.742187-24 24-24 13.253906 0 24 10.746094 24 24v16h16c0-4.417969 3.582031-8 8-8s8 3.582031 8 8zm0 0"/></svg>