<svg height="480pt" viewBox="0 0 480 480.0397" width="480pt" xmlns="http://www.w3.org/2000/svg"><path d="m.0195312 288.039062c0 35.347657 28.6523438 64 63.9999998 64 35.347657 0 64-28.652343 64-64 0-35.34375-28.652343-64-64-64-35.328125.039063-63.9609372 28.671876-63.9999998 64zm63.9999998-48c26.511719 0 48 21.492188 48 48 0 26.511719-21.488281 48-48 48-26.507812 0-48-21.488281-48-48 .027344-26.5 21.5-47.972656 48-48zm0 0"/><path d="m304.019531 176.039062c.019531-31.21875-22.492187-57.898437-53.269531-63.132812-30.78125-5.234375-60.84375 12.503906-71.144531 41.976562-10.304688 29.472657 2.164062 62.078126 29.503906 77.15625-25.570313 14.105469-38.347656 43.722657-31.066406 72 7.28125 28.277344 32.777343 48.039063 61.976562 48.039063s54.695313-19.761719 61.976563-48.039063c7.285156-28.277343-5.496094-57.894531-31.0625-72 20.398437-11.253906 33.070312-32.703124 33.085937-56zm-16 112c0 26.511719-21.488281 48-48 48-26.507812 0-48-21.488281-48-48 0-26.507812 21.492188-48 48-48 26.5.027344 47.972657 21.5 48 48zm-48-64c-26.507812 0-48-21.488281-48-48 0-26.507812 21.492188-48 48-48 26.511719 0 48 21.492188 48 48-.027343 26.5-21.5 47.972657-48 48zm0 0"/><path d="m480.019531 64.039062c.019531-31.21875-22.492187-57.898437-53.269531-63.132812-30.78125-5.234375-60.84375 12.503906-71.144531 41.976562-10.304688 29.472657 2.164062 62.078126 29.503906 77.15625-20.410156 11.242188-33.085937 32.699219-33.085937 56 0 23.300782 12.675781 44.757813 33.085937 56-25.570313 14.105469-38.347656 43.722657-31.066406 72 7.28125 28.277344 32.777343 48.039063 61.976562 48.039063s54.695313-19.761719 61.976563-48.039063c7.285156-28.277343-5.496094-57.894531-31.0625-72 20.40625-11.242187 33.082031-32.699218 33.082031-56 0-23.300781-12.675781-44.757812-33.082031-56 20.398437-11.253906 33.070312-32.703124 33.085937-56zm-16 224c0 26.511719-21.488281 48-48 48-26.507812 0-48-21.488281-48-48 0-26.507812 21.492188-48 48-48 26.5.027344 47.972657 21.5 48 48zm0-112c0 26.511719-21.488281 48-48 48-26.507812 0-48-21.488281-48-48 0-26.507812 21.492188-48 48-48 26.5.027344 47.972657 21.5 48 48zm-48-64c-26.507812 0-48-21.488281-48-48 0-26.507812 21.492188-48 48-48 26.511719 0 48 21.492188 48 48-.027343 26.5-21.5 47.972657-48 48zm0 0"/><path d="m48.957031 155.792969c1.386719 2.613281 4.105469 4.246093 7.0625 4.246093 1.304688.003907 2.59375-.320312 3.746094-.933593l241.101563-128.082031-4.6875 23.417968c-.882813 4.328125 1.910156 8.554688 6.238281 9.4375.527343.109375 1.0625.164063 1.601562.160156 3.800781-.003906 7.074219-2.675781 7.832031-6.398437l8-40c.023438-.351563.023438-.699219 0-1.050781.058594-.554688.058594-1.113282 0-1.671875-.097656-.546875-.257812-1.082031-.472656-1.597657-.074218-.351562-.175781-.691406-.304687-1.023437-.0625-.121094-.175781-.183594-.246094-.304687-.300781-.460938-.652344-.886719-1.039063-1.273438-.316406-.382812-.667968-.738281-1.050781-1.054688-.375-.242187-.769531-.453124-1.183593-.632812-.503907-.289062-1.042969-.519531-1.597657-.6875-.121093 0-.210937-.113281-.335937-.136719l-40-8c-4.277344-.765625-8.382813 2.019531-9.25 6.273438-.871094 4.257812 1.816406 8.429687 6.046875 9.398437l18.027343 3.609375-236.175781 125.488281c-3.902343 2.070313-5.386719 6.914063-3.3125 10.816407zm0 0"/><path d="m472.019531 464.039062h-8v-40c0-.128906-.0625-.230468-.070312-.359374-.03125-.882813-.207031-1.757813-.519531-2.585938-.023438-.0625-.042969-.128906-.058594-.199219-.304688-.714843-.710938-1.382812-1.207032-1.984375l-40-48c-1.570312-1.734375-3.800781-2.726562-6.144531-2.726562-2.339843 0-4.574219.992187-6.144531 2.726562l-40 48c-.492188.601563-.898438 1.265625-1.207031 1.976563-.015625.074219-.035157.144531-.054688.21875-.316406.820312-.492187 1.691406-.519531 2.574219 0 .128906-.074219.230468-.074219.359374v40h-80v-40c0-.128906-.0625-.230468-.070312-.359374-.03125-.882813-.207031-1.757813-.519531-2.585938-.023438-.0625-.042969-.128906-.058594-.199219-.304688-.714843-.710938-1.382812-1.207032-1.984375l-40-48c-1.570312-1.734375-3.800781-2.726562-6.144531-2.726562-2.339843 0-4.574219.992187-6.144531 2.726562l-40 48c-.492188.601563-.898438 1.265625-1.207031 1.976563-.015625.074219-.035157.144531-.054688.21875-.316406.820312-.492187 1.691406-.519531 2.574219 0 .128906-.074219.230468-.074219.359374v40h-80v-40c0-.128906-.0625-.230468-.070312-.359374-.03125-.882813-.207031-1.757813-.519531-2.585938-.023438-.0625-.042969-.128906-.058594-.199219-.304688-.714843-.710938-1.382812-1.207032-1.984375l-40-48c-1.570312-1.734375-3.800781-2.726562-6.144531-2.726562-2.339843 0-4.574219.992187-6.144531 2.726562l-40 48c-.492188.601563-.898438 1.265625-1.207031 1.976563-.015625.074219-.035157.144531-.054688.21875-.316406.820312-.492187 1.691406-.519531 2.574219 0 .128906-.074219.230468-.074219.359374v40h-8c-4.417969 0-7.9999998 3.582032-7.9999998 8 0 4.417969 3.5820308 8 7.9999998 8h464c4.417969 0 8-3.582031 8-8 0-4.417968-3.582031-8-8-8zm-56-75.503906 22.921875 27.503906h-45.839844zm-176 0 22.921875 27.503906h-45.839844zm-176 0 22.921875 27.503906h-45.839844zm16 75.503906v-8c0-4.417968-3.582031-8-8-8s-8 3.582032-8 8v8h-32v-32h64v32zm176 0v-8c0-4.417968-3.582031-8-8-8s-8 3.582032-8 8v8h-32v-32h64v32zm176 0v-8c0-4.417968-3.582031-8-8-8s-8 3.582032-8 8v8h-32v-32h64v32zm0 0"/><path d="m400.019531 88.039062h32v-16h-16v-16h16v-16h-32zm0 0"/><path d="m432.019531 184.039062h-16v-16h16v-16h-32v48h32zm0 0"/><path d="m432.019531 296.039062h-16v-16h16v-16h-32v48h32zm0 0"/><path d="m224.019531 200.039062h32v-16h-16v-16h16v-16h-32zm0 0"/><path d="m256.019531 296.039062h-16v-16h16v-16h-32v48h32zm0 0"/><path d="m80.019531 296.039062h-16v-16h16v-16h-32v48h32zm0 0"/></svg>