<svg height="480pt" viewBox="0 0 480.00172 480" width="480pt" xmlns="http://www.w3.org/2000/svg"><path d="m472 200h-8v-96h8c3.300781.003906 6.261719-2.023438 7.457031-5.097656 1.195313-3.074219.382813-6.566406-2.046875-8.796875l-96-88c-3.058594-2.804688-7.757812-2.804688-10.816406 0l-96 88c-2.433594 2.230469-3.246094 5.722656-2.050781 8.796875 1.199219 3.074218 4.160156 5.101562 7.457031 5.097656h8v96h-24v-104c0-4.417969-3.582031-8-8-8h-32c-4.417969 0-8 3.582031-8 8v104h-24v-96h8c3.300781.003906 6.261719-2.023438 7.457031-5.097656 1.195313-3.074219.382813-6.566406-2.046875-8.796875l-96-88c-3.058594-2.804688-7.757812-2.804688-10.816406 0l-96 88c-2.433594 2.230469-3.246094 5.722656-2.050781 8.796875 1.199219 3.074218 4.160156 5.101562 7.457031 5.097656h8v96h-8c-4.417969 0-8 3.582031-8 8 0 4.421875 3.582031 8 8 8h464c4.417969 0 8-3.578125 8-8 0-4.417969-3.582031-8-8-8zm-96-181.148438 75.433594 69.148438h-150.863282zm-272 0 75.433594 69.148438h-150.863282zm-40 181.148438v-48h32v48zm48 0v-56c0-4.417969-3.582031-8-8-8h-48c-4.417969 0-8 3.582031-8 8v56h-16v-96h144v96zm120 0v-96h16v96zm104 0v-48h32v48zm48 0v-56c0-4.417969-3.582031-8-8-8h-48c-4.417969 0-8 3.582031-8 8v56h-16v-96h144v96zm0 0"/><path d="m472 464h-8v-96h8c3.234375 0 6.152344-1.949219 7.390625-4.9375s.554687-6.429688-1.734375-8.71875l-96-96c-3.125-3.121094-8.1875-3.121094-11.3125 0l-96 96c-2.285156 2.289062-2.96875 5.730469-1.730469 8.71875 1.234375 2.988281 4.152344 4.9375 7.386719 4.9375h8v96h-24v-104c0-4.417969-3.582031-8-8-8h-32c-4.417969 0-8 3.582031-8 8v104h-24v-96h8c3.234375 0 6.152344-1.949219 7.390625-4.9375s.554687-6.429688-1.734375-8.71875l-96-96c-3.125-3.121094-8.1875-3.121094-11.3125 0l-96 96c-2.2851562 2.289062-2.96875 5.730469-1.730469 8.71875 1.234375 2.988281 4.152344 4.9375 7.386719 4.9375h8v96h-8c-4.417969 0-8 3.582031-8 8 0 4.421875 3.582031 8 8 8h464c4.417969 0 8-3.578125 8-8 0-4.417969-3.582031-8-8-8zm-96-188.6875 76.6875 76.6875h-153.375zm-272 0 76.6875 76.6875h-153.375zm-40 188.6875v-48h32v48zm48 0v-56c0-4.417969-3.582031-8-8-8h-48c-4.417969 0-8 3.582031-8 8v56h-16v-96h144v96zm120 0v-96h16v96zm104 0v-48h32v48zm48 0v-56c0-4.417969-3.582031-8-8-8h-48c-4.417969 0-8 3.582031-8 8v56h-16v-96h144v96zm0 0"/></svg>