<svg height="480pt" viewBox="0 -40 480 480" width="480pt" xmlns="http://www.w3.org/2000/svg"><path d="m0 0v400h480v-400zm392 192h-144v-80h144zm-88 96h-128v-80h128zm-216-176h144v80h-144zm88-96h128v80h-128zm-160 0h144v80h-144zm0 96h56v80h-56zm0 96h144v80h-144zm56 176h-56v-80h56zm160 0h-144v-80h144zm160 0h-144v-80h144zm72 0h-56v-80h56zm0-96h-144v-80h144zm0-96h-56v-80h56zm0-176v80h-144v-80zm0 0"/><path d="m32 32h16v16h-16zm0 0"/><path d="m64 64h16v16h-16zm0 0"/><path d="m280 144h16v16h-16zm0 0"/><path d="m312 160h16v16h-16zm0 0"/><path d="m360 128h16v16h-16zm0 0"/><path d="m272 224h16v16h-16zm0 0"/><path d="m256 240h16v16h-16zm0 0"/><path d="m200 352h16v16h-16zm0 0"/><path d="m48 256h16v16h-16zm0 0"/><path d="m96 240h16v16h-16zm0 0"/><path d="m200 128h16v48h-16zm0 0"/></svg>