<?xml version="1.0" encoding="iso-8859-1"?>
<!-- Generator: Adobe Illustrator 19.0.0, SVG Export Plug-In . SVG Version: 6.00 Build 0)  -->
<svg version="1.1" id="Layer_1" xmlns="http://www.w3.org/2000/svg" xmlns:xlink="http://www.w3.org/1999/xlink" x="0px" y="0px"
	 viewBox="0 0 512 512" style="enable-background:new 0 0 512 512;" xml:space="preserve">
<g>
	<g>
		<path d="M472.376,98.218H39.624C17.775,98.218,0,115.993,0,137.842v236.316c0,21.849,17.775,39.624,39.624,39.624h432.752
			c21.849,0,39.624-17.775,39.624-39.624V137.842C512,115.993,494.225,98.218,472.376,98.218z M491.602,374.158
			c0,10.601-8.624,19.226-19.226,19.226H39.624c-10.601,0-19.226-8.624-19.226-19.226V137.842c0-10.601,8.624-19.225,19.226-19.225
			h432.752c10.601,0,19.226,8.624,19.226,19.225V374.158z"/>
	</g>
</g>
<g>
	<g>
		<path d="M458.964,143.809H53.036c-5.633,0-10.199,4.566-10.199,10.199v95.872c0,5.633,4.566,10.199,10.199,10.199h405.928
			c5.633,0,10.199-4.566,10.199-10.199v-95.872C469.163,148.375,464.597,143.809,458.964,143.809z M448.765,239.681H63.235v-75.474
			h385.53V239.681z"/>
	</g>
</g>
<g>
	<g>
		<path d="M458.964,327.394h-7.139c-5.633,0-10.199,4.566-10.199,10.199c0,5.633,4.566,10.199,10.199,10.199h7.139
			c5.633,0,10.199-4.566,10.199-10.199C469.163,331.961,464.597,327.394,458.964,327.394z"/>
	</g>
</g>
<g>
	<g>
		<path d="M416.128,327.394H204.362c-4.823-15.916-19.625-27.538-37.096-27.538c-17.47,0-32.272,11.622-37.096,27.538H53.036
			c-5.633,0-10.199,4.566-10.199,10.199c0,5.633,4.566,10.199,10.199,10.199h76.582c4.135,16.953,19.442,29.578,37.649,29.578
			c18.208,0,33.515-12.625,37.649-29.578h211.211c5.633,0,10.199-4.566,10.199-10.199
			C426.327,331.961,421.761,327.394,416.128,327.394z M167.267,356.972c-10.123,0-18.359-8.236-18.359-18.359
			c0-10.123,8.236-18.359,18.359-18.359c10.123,0,18.359,8.236,18.359,18.359C185.625,348.736,177.39,356.972,167.267,356.972z"/>
	</g>
</g>
<g>
	<g>
		<path d="M90.773,285.068H63.235c-5.633,0-10.199,4.566-10.199,10.199c0,5.633,4.566,10.199,10.199,10.199h27.538
			c5.633,0,10.199-4.566,10.199-10.199C100.972,289.634,96.406,285.068,90.773,285.068z"/>
	</g>
</g>
<g>
	<g>
		<path d="M449.785,285.068h-3.57v-3.57c0-5.633-4.566-10.199-10.199-10.199c-5.633,0-10.199,4.566-10.199,10.199v3.57h-3.57
			c-5.633,0-10.199,4.566-10.199,10.199c0,5.633,4.566,10.199,10.199,10.199h3.57v3.57c0,5.633,4.566,10.199,10.199,10.199
			c5.633,0,10.199-4.566,10.199-10.199v-3.57h3.57c5.633,0,10.199-4.566,10.199-10.199
			C459.984,289.634,455.418,285.068,449.785,285.068z"/>
	</g>
</g>
<g>
	<g>
		<path d="M384.841,219.46h-19.307v-0.663c0-6.706,22.771-11.938,22.771-27.929c0-9.874-8.622-15.254-17.169-15.254
			c-8.401,0-16.654,5.159-16.654,14.148c0,4.643,2.21,5.969,5.159,5.969c3.758,0,6.042-2.063,6.042-4.2
			c0-4.053,2.579-5.527,5.527-5.527c4.127,0,5.6,2.874,5.6,5.232c0,9.359-23.212,15.99-23.212,27.56v7.148
			c0,2.137,2.949,3.537,5.011,3.537h26.233c1.842,0,3.464-2.431,3.464-5.084S386.683,219.46,384.841,219.46z"/>
	</g>
</g>
<g>
	<g>
		<path d="M419.846,201.038c3.685-1.695,5.674-6.706,5.674-12.085c0-9.948-7.074-13.338-16.433-13.338
			c-12.675,0-16.801,7.442-16.801,13.191c0,3.537,0.663,4.643,5.969,4.643c4.274,0,5.379-1.695,5.379-4.2
			c0-2.874,1.842-3.758,5.454-3.758c3.021,0,5.453,1.031,5.453,5.306c0,5.97-2.948,6.338-5.748,6.338
			c-2.506,0-3.316,2.21-3.316,4.421s0.811,4.421,3.316,4.421c4.053,0,7.074,0.958,7.074,5.895v1.4c0,4.79-1.769,6.632-6.779,6.632
			c-3.316,0-6.558-0.811-6.558-4.273c0-2.801-1.179-3.832-5.895-3.832c-4.053,0-5.452,0.884-5.452,4.201
			c0.001,6.188,4.864,13.926,17.539,13.926c10.316,0,18.643-4.568,18.643-16.654v-1.4
			C427.363,205.902,424.195,202.659,419.846,201.038z"/>
	</g>
</g>
<g>
</g>
<g>
</g>
<g>
</g>
<g>
</g>
<g>
</g>
<g>
</g>
<g>
</g>
<g>
</g>
<g>
</g>
<g>
</g>
<g>
</g>
<g>
</g>
<g>
</g>
<g>
</g>
<g>
</g>
</svg>
