<?xml version="1.0" encoding="iso-8859-1"?>
<!-- Generator: Adobe Illustrator 19.0.0, SVG Export Plug-In . SVG Version: 6.00 Build 0)  -->
<svg version="1.1" id="Layer_1" xmlns="http://www.w3.org/2000/svg" xmlns:xlink="http://www.w3.org/1999/xlink" x="0px" y="0px"
	 viewBox="0 0 511.999 511.999" style="enable-background:new 0 0 511.999 511.999;" xml:space="preserve">
<g>
	<g>
		<path d="M486.461,177.059H332.552V10.993c0-5.633-4.567-10.199-10.199-10.199H115.697c-5.633,0-10.199,4.566-10.199,10.199
			v408.247c0,5.633,4.566,10.199,10.199,10.199h370.764v0c5.632,0,10.199-4.566,10.199-10.199V187.258
			C496.66,181.625,492.093,177.059,486.461,177.059z M261.64,21.192h50.513v28.227H261.64V21.192z M125.896,21.192h115.346v28.226
			H125.896V21.192z M177.422,409.041h-51.526V287.617h51.526V409.041z M312.154,409.041H197.821V287.617h114.333V409.041z
			 M312.154,267.218H125.896v-197.4h186.258V267.218z M476.262,409.04h-143.71V197.458h143.71V409.04z"/>
	</g>
</g>
<g>
	<g>
		<path d="M87.733,383.303c-3.983-3.982-10.441-3.982-14.425,0l-10.08,10.081V34.822l10.08,10.08
			c1.992,1.992,4.602,2.987,7.212,2.987c2.61,0,5.221-0.995,7.212-2.987c3.983-3.983,3.983-10.441,0-14.425L60.241,2.986
			c-3.983-3.982-10.441-3.982-14.425,0L18.326,30.478c-3.983,3.983-3.983,10.441,0,14.425c3.983,3.983,10.441,3.983,14.425,0
			l10.08-10.081v358.563l-10.08-10.081c-3.983-3.982-10.441-3.982-14.425,0c-3.983,3.983-3.983,10.441,0,14.425l27.492,27.492
			c1.992,1.992,4.602,2.987,7.212,2.987s5.221-0.995,7.212-2.987l27.492-27.493C91.716,393.745,91.716,387.287,87.733,383.303z"/>
	</g>
</g>
<g>
	<g>
		<path d="M394.709,466.704H141.333l7.485-7.485c3.983-3.983,3.983-10.441,0-14.425c-3.983-3.983-10.441-3.983-14.425,0
			l-24.896,24.896c-3.983,3.983-3.983,10.441,0,14.425l24.896,24.896c1.992,1.992,4.602,2.987,7.212,2.987s5.221-0.995,7.212-2.987
			c3.983-3.983,3.983-10.441,0-14.425l-7.485-7.485h253.377c5.632,0,10.199-4.566,10.199-10.199S400.341,466.704,394.709,466.704z"
			/>
	</g>
</g>
<g>
	<g>
		<path d="M436.526,466.704h-4.08c-5.632,0-10.199,4.566-10.199,10.199c0,5.633,4.567,10.199,10.199,10.199h4.08
			c5.632,0,10.199-4.566,10.199-10.199C446.725,471.271,442.158,466.704,436.526,466.704z"/>
	</g>
</g>
<g>
	<g>
		<path d="M493.235,469.692l-24.896-24.896c-3.984-3.983-10.44-3.983-14.425,0c-3.983,3.983-3.983,10.441,0,14.424l17.685,17.684
			l-17.685,17.684c-3.983,3.983-3.983,10.441,0,14.424c1.992,1.992,4.602,2.987,7.212,2.987c2.61,0,5.22-0.996,7.212-2.987
			l24.897-24.896c1.912-1.912,2.987-4.507,2.987-7.212S495.148,471.604,493.235,469.692z"/>
	</g>
</g>
<g>
</g>
<g>
</g>
<g>
</g>
<g>
</g>
<g>
</g>
<g>
</g>
<g>
</g>
<g>
</g>
<g>
</g>
<g>
</g>
<g>
</g>
<g>
</g>
<g>
</g>
<g>
</g>
<g>
</g>
</svg>
