<?xml version="1.0" encoding="iso-8859-1"?>
<!-- Generator: Adobe Illustrator 19.0.0, SVG Export Plug-In . SVG Version: 6.00 Build 0)  -->
<svg version="1.1" id="Layer_1" xmlns="http://www.w3.org/2000/svg" xmlns:xlink="http://www.w3.org/1999/xlink" x="0px" y="0px"
	 viewBox="0 0 512 512" style="enable-background:new 0 0 512 512;" xml:space="preserve">
<g>
	<g>
		<path d="M501.801,263.022h-67.037V80.13c0-5.633-4.566-10.199-10.199-10.199H10.199C4.566,69.931,0,74.497,0,80.13v351.74
			c0,5.633,4.566,10.199,10.199,10.199h491.602c5.633,0,10.199-4.566,10.199-10.199V273.221
			C512,267.588,507.434,263.022,501.801,263.022z M402.408,90.329h11.958v172.693h-11.958V90.329z M370.052,90.329h11.958v172.693
			h-11.958V90.329z M103.749,90.329h11.062v12.689c0,3.05-2.481,5.531-5.531,5.531s-5.531-2.482-5.531-5.531V90.329z M20.398,90.329
			h31.789v81.888H20.398V90.329z M20.398,192.616h31.789v24.482H20.398V192.616z M66.8,421.671H20.398V305.34H66.8V421.671z
			 M66.8,284.941H20.398v-47.445H66.8V284.941z M491.602,421.671H87.198V237.497h55.795v65.994c0,5.633,4.566,10.199,10.199,10.199
			c5.633,0,10.199-4.566,10.199-10.199v-38.857h6.501c5.633,0,10.199-4.566,10.199-10.199c0-5.633-4.566-10.199-10.199-10.199
			h-6.501v-93.131c0-5.633-4.566-10.199-10.199-10.199c-5.633,0-10.199,4.566-10.199,10.199v65.994H72.586V90.329h10.765v12.689
			c0,14.297,11.632,25.929,25.929,25.929s25.929-11.632,25.929-25.929V90.329h214.443v172.693h-48.489v-57.644
			c0-5.633-4.566-10.199-10.199-10.199c-5.633,0-10.199,4.566-10.199,10.199v38.857h-6.501c-5.633,0-10.199,4.566-10.199,10.199
			c0,5.633,4.566,10.199,10.199,10.199h6.501v8.588c0,5.633,4.566,10.199,10.199,10.199h200.637V421.671z"/>
	</g>
</g>
<g>
	<g>
		<path d="M347.327,298.509h-54.274c-5.633,0-10.199,4.566-10.199,10.199v89.762c0,5.633,4.566,10.199,10.199,10.199h54.274
			c5.633,0,10.199-4.566,10.199-10.199v-89.762C357.526,303.075,352.96,298.509,347.327,298.509z M337.128,388.271h-33.876v-69.364
			h33.876V388.271z"/>
	</g>
</g>
<g>
	<g>
		<path d="M412.04,305.816c-18.596,0-33.162,20.985-33.162,47.774c0,26.789,14.566,47.774,33.162,47.774
			c18.595,0,33.162-20.985,33.162-47.774C445.201,326.801,430.635,305.816,412.04,305.816z M412.039,380.966
			c-5.081,0-12.763-10.918-12.763-27.376c0-16.457,7.682-27.376,12.763-27.376s12.763,10.918,12.763,27.376
			C424.802,370.047,417.12,380.966,412.039,380.966z"/>
	</g>
</g>
<g>
	<g>
		<path d="M471.533,299.554c-5.633,0-10.199,4.566-10.199,10.199v87.674c0,5.633,4.566,10.199,10.199,10.199
			c5.633,0,10.199-4.566,10.199-10.199v-87.674C481.732,304.12,477.166,299.554,471.533,299.554z"/>
	</g>
</g>
<g>
	<g>
		<path d="M290.965,156.561c-5.633,0-10.199,4.566-10.199,10.199v5.219c0,5.633,4.566,10.199,10.199,10.199
			c5.633,0,10.199-4.566,10.199-10.199v-5.219C301.164,161.127,296.598,156.561,290.965,156.561z"/>
	</g>
</g>
<g>
</g>
<g>
</g>
<g>
</g>
<g>
</g>
<g>
</g>
<g>
</g>
<g>
</g>
<g>
</g>
<g>
</g>
<g>
</g>
<g>
</g>
<g>
</g>
<g>
</g>
<g>
</g>
<g>
</g>
</svg>
