<?xml version="1.0" encoding="iso-8859-1"?>
<!-- Generator: Adobe Illustrator 19.0.0, SVG Export Plug-In . SVG Version: 6.00 Build 0)  -->
<svg version="1.1" id="Layer_1" xmlns="http://www.w3.org/2000/svg" xmlns:xlink="http://www.w3.org/1999/xlink" x="0px" y="0px"
	 viewBox="0 0 512 512" style="enable-background:new 0 0 512 512;" xml:space="preserve">
<g>
	<g>
		<path d="M510.414,117.045c-1.871-2.951-5.121-4.738-8.613-4.738h-152.82c-3.949,0-7.543,2.279-9.226,5.851l-26.144,55.476
			l-18.689-54.439c-1.415-4.12-5.29-6.888-9.646-6.888H10.199c-3.294,0-6.387,1.592-8.301,4.272s-2.415,6.122-1.345,9.238
			l26.297,76.598v187.076c0,5.632,4.566,10.199,10.199,10.199h427.895v0.001c5.633,0,10.199-4.567,10.199-10.199V202.998
			l35.884-76.143C512.516,123.695,512.285,119.994,510.414,117.045z M24.484,132.706h253.509l19.846,57.81H44.33L24.484,132.706z
			 M301.925,379.294H47.248v-168.38h254.677V379.294z M454.745,379.294L454.745,379.294H322.324v-168.38h132.421V379.294z
			 M458.476,190.516h-130.27l27.243-57.81h130.27L458.476,190.516z"/>
	</g>
</g>
<g>
	<g>
		<path d="M283.358,274.118c-5.633,0-10.199,4.567-10.199,10.199v75.511c0,5.632,4.566,10.199,10.199,10.199
			c5.633,0,10.199-4.567,10.199-10.199v-75.511C293.558,278.684,288.991,274.118,283.358,274.118z"/>
	</g>
</g>
<g>
	<g>
		<path d="M283.358,237.693c-5.633,0-10.199,4.567-10.199,10.199v5.393c0,5.632,4.566,10.199,10.199,10.199
			c5.633,0,10.199-4.567,10.199-10.199v-5.393C293.558,242.259,288.991,237.693,283.358,237.693z"/>
	</g>
</g>
<g>
</g>
<g>
</g>
<g>
</g>
<g>
</g>
<g>
</g>
<g>
</g>
<g>
</g>
<g>
</g>
<g>
</g>
<g>
</g>
<g>
</g>
<g>
</g>
<g>
</g>
<g>
</g>
<g>
</g>
</svg>
