<?xml version="1.0" encoding="iso-8859-1"?>
<!-- Generator: Adobe Illustrator 19.0.0, SVG Export Plug-In . SVG Version: 6.00 Build 0)  -->
<svg version="1.1" id="Layer_1" xmlns="http://www.w3.org/2000/svg" xmlns:xlink="http://www.w3.org/1999/xlink" x="0px" y="0px"
	 viewBox="0 0 512 512" style="enable-background:new 0 0 512 512;" xml:space="preserve">
<g>
	<g>
		<path d="M501.801,187.449h-268.65V43.764c0-5.632-4.567-10.199-10.199-10.199H10.199C4.567,33.565,0,38.132,0,43.764v424.473
			c0,5.632,4.567,10.199,10.199,10.199h491.602c5.632,0,10.199-4.567,10.199-10.199V197.648
			C512,192.016,507.433,187.449,501.801,187.449z M212.752,458.037H20.398V53.963h192.354V458.037z M442.111,458.037H282.64v-24.012
			h101.424c5.632,0,10.199-4.567,10.199-10.199s-4.567-10.199-10.199-10.199H282.64v-22.461h159.471V458.037z M442.111,370.767
			H282.64v-22.462h159.471V370.767z M282.64,327.906v-24.011h159.471v24.011H282.64z M491.602,458.037H462.51V293.696
			c0-5.632-4.567-10.199-10.199-10.199h-179.87c-5.632,0-10.199,4.567-10.199,10.199v164.341h-29.091v-250.19h258.451V458.037z"/>
	</g>
</g>
<g>
	<g>
		<path d="M159.952,280.399H73.198c-5.632,0-10.199,4.567-10.199,10.199v114.638c0,5.632,4.567,10.199,10.199,10.199h86.754
			c5.632,0,10.199-4.567,10.199-10.199V290.598C170.151,284.965,165.585,280.399,159.952,280.399z M106.376,395.037H83.398v-94.24
			h22.978V395.037z M149.753,395.037h-22.979v-94.24h22.979V395.037z"/>
	</g>
</g>
<g>
	<g>
		<path d="M159.952,96.565H73.198c-5.632,0-10.199,4.567-10.199,10.199v114.638c0,5.632,4.567,10.199,10.199,10.199h86.754
			c5.632,0,10.199-4.567,10.199-10.199V106.764C170.151,101.131,165.585,96.565,159.952,96.565z M106.376,211.203H83.398v-94.24
			h22.978V211.203z M149.753,211.203h-22.979v-94.24h22.979V211.203z"/>
	</g>
</g>
<g>
	<g>
		<path d="M419.178,413.627h-3.098c-5.632,0-10.199,4.567-10.199,10.199s4.567,10.199,10.199,10.199h3.098
			c5.632,0,10.199-4.567,10.199-10.199S424.811,413.627,419.178,413.627z"/>
	</g>
</g>
<g>
</g>
<g>
</g>
<g>
</g>
<g>
</g>
<g>
</g>
<g>
</g>
<g>
</g>
<g>
</g>
<g>
</g>
<g>
</g>
<g>
</g>
<g>
</g>
<g>
</g>
<g>
</g>
<g>
</g>
</svg>
