<?xml version="1.0" encoding="iso-8859-1"?>
<!-- Generator: Adobe Illustrator 19.0.0, SVG Export Plug-In . SVG Version: 6.00 Build 0)  -->
<svg version="1.1" id="Layer_1" xmlns="http://www.w3.org/2000/svg" xmlns:xlink="http://www.w3.org/1999/xlink" x="0px" y="0px"
	 viewBox="0 0 512 512" style="enable-background:new 0 0 512 512;" xml:space="preserve">
<g>
	<g>
		<path d="M455.649,0H56.351C33.996,0,15.809,18.187,15.809,40.542v430.916c0,22.355,18.187,40.542,40.542,40.542h399.299
			c22.355,0,40.542-18.187,40.542-40.542V40.542C496.191,18.187,478.004,0,455.649,0z M475.793,471.458
			c0,11.108-9.035,20.143-20.143,20.143H56.351c-11.108,0-20.143-9.036-20.143-20.143V40.542c0-11.108,9.036-20.143,20.143-20.143
			h399.299c11.108,0,20.143,9.036,20.143,20.143V471.458z"/>
	</g>
</g>
<g>
	<g>
		<path d="M441.625,43.857H70.375c-5.632,0-10.199,4.567-10.199,10.199v75.474c0,5.632,4.567,10.199,10.199,10.199h371.251
			c5.632,0,10.199-4.567,10.199-10.199V54.056C451.825,48.424,447.258,43.857,441.625,43.857z M431.426,119.331H80.574V64.255
			h350.853V119.331z"/>
	</g>
</g>
<g>
	<g>
		<path d="M136.521,175.431H70.375c-5.632,0-10.199,4.567-10.199,10.199v36.32c0,5.632,4.567,10.199,10.199,10.199h66.147
			c5.633,0,10.199-4.566,10.199-10.199v-36.32C146.721,179.999,142.153,175.431,136.521,175.431z M126.322,211.752H80.574V195.83
			h45.748V211.752z"/>
	</g>
</g>
<g>
	<g>
		<path d="M238.223,175.431h-66.147c-5.632,0-10.199,4.567-10.199,10.199v36.32c0,5.632,4.567,10.199,10.199,10.199h66.147
			c5.633,0,10.199-4.566,10.199-10.199v-36.32C248.422,179.999,243.855,175.431,238.223,175.431z M228.024,211.752h-45.748V195.83
			h45.748V211.752z"/>
	</g>
</g>
<g>
	<g>
		<path d="M339.924,175.431h-66.147c-5.632,0-10.199,4.567-10.199,10.199v36.32c0,5.632,4.567,10.199,10.199,10.199h66.147
			c5.633,0,10.199-4.566,10.199-10.199v-36.32C350.123,179.999,345.556,175.431,339.924,175.431z M329.725,211.752h-45.749V195.83
			h45.749V211.752z"/>
	</g>
</g>
<g>
	<g>
		<path d="M441.625,175.431h-66.147c-5.632,0-10.199,4.567-10.199,10.199v36.32c0,5.632,4.567,10.199,10.199,10.199h66.147
			c5.632,0,10.199-4.566,10.199-10.199v-36.32C451.825,179.999,447.258,175.431,441.625,175.431z M431.426,211.752h-45.749V195.83
			h45.749V211.752z"/>
	</g>
</g>
<g>
	<g>
		<path d="M136.521,250.506H70.375c-5.632,0-10.199,4.567-10.199,10.199v36.32c0,5.632,4.567,10.199,10.199,10.199h66.147
			c5.633,0,10.199-4.567,10.199-10.199v-36.32C146.721,255.073,142.153,250.506,136.521,250.506z M126.322,286.826H80.574v-15.922
			h45.748V286.826z"/>
	</g>
</g>
<g>
	<g>
		<path d="M238.223,250.506h-66.147c-5.632,0-10.199,4.567-10.199,10.199v36.32c0,5.632,4.567,10.199,10.199,10.199h66.147
			c5.633,0,10.199-4.567,10.199-10.199v-36.32C248.422,255.073,243.855,250.506,238.223,250.506z M228.024,286.826h-45.748v-15.922
			h45.748V286.826z"/>
	</g>
</g>
<g>
	<g>
		<path d="M339.924,250.506h-66.147c-5.632,0-10.199,4.567-10.199,10.199v36.32c0,5.632,4.567,10.199,10.199,10.199h66.147
			c5.633,0,10.199-4.567,10.199-10.199v-36.32C350.123,255.073,345.556,250.506,339.924,250.506z M329.725,286.826h-45.749v-15.922
			h45.749V286.826z"/>
	</g>
</g>
<g>
	<g>
		<path d="M441.625,250.506h-66.147c-5.632,0-10.199,4.567-10.199,10.199v36.32c0,5.632,4.567,10.199,10.199,10.199h66.147
			c5.632,0,10.199-4.567,10.199-10.199v-36.32C451.825,255.073,447.258,250.506,441.625,250.506z M431.426,286.826h-45.749v-15.922
			h45.749V286.826z"/>
	</g>
</g>
<g>
	<g>
		<path d="M136.521,326.786H70.375c-5.632,0-10.199,4.567-10.199,10.199v36.32c0,5.632,4.567,10.199,10.199,10.199h66.147
			c5.633,0,10.199-4.567,10.199-10.199v-36.32C146.721,331.353,142.153,326.786,136.521,326.786z M126.322,363.106H80.574v-15.922
			h45.748V363.106z"/>
	</g>
</g>
<g>
	<g>
		<path d="M238.223,326.786h-66.147c-5.632,0-10.199,4.567-10.199,10.199v36.32c0,5.632,4.567,10.199,10.199,10.199h66.147
			c5.633,0,10.199-4.567,10.199-10.199v-36.32C248.422,331.353,243.855,326.786,238.223,326.786z M228.024,363.106h-45.748v-15.922
			h45.748V363.106z"/>
	</g>
</g>
<g>
	<g>
		<path d="M339.924,326.786h-66.147c-5.632,0-10.199,4.567-10.199,10.199v36.32c0,5.632,4.567,10.199,10.199,10.199h66.147
			c5.633,0,10.199-4.567,10.199-10.199v-36.32C350.123,331.353,345.556,326.786,339.924,326.786z M329.725,363.106h-45.749v-15.922
			h45.749V363.106z"/>
	</g>
</g>
<g>
	<g>
		<path d="M136.521,404.276H70.375c-5.632,0-10.199,4.567-10.199,10.199v36.32c0,5.632,4.567,10.199,10.199,10.199h66.147
			c5.633,0,10.199-4.566,10.199-10.199v-36.32C146.721,408.843,142.153,404.276,136.521,404.276z M126.322,440.596H80.574v-15.922
			h45.748V440.596z"/>
	</g>
</g>
<g>
	<g>
		<path d="M238.223,404.276h-66.147c-5.632,0-10.199,4.567-10.199,10.199v36.32c0,5.632,4.567,10.199,10.199,10.199h66.147
			c5.633,0,10.199-4.566,10.199-10.199v-36.32C248.422,408.843,243.855,404.276,238.223,404.276z M228.024,440.596h-45.748v-15.922
			h45.748V440.596z"/>
	</g>
</g>
<g>
	<g>
		<path d="M339.924,404.276h-66.147c-5.632,0-10.199,4.567-10.199,10.199v36.32c0,5.632,4.567,10.199,10.199,10.199h66.147
			c5.633,0,10.199-4.566,10.199-10.199v-36.32C350.123,408.843,345.556,404.276,339.924,404.276z M329.725,440.596h-45.749v-15.922
			h45.749V440.596z"/>
	</g>
</g>
<g>
	<g>
		<path d="M441.625,326.375h-66.147c-5.632,0-10.199,4.567-10.199,10.199v114.222c0,5.632,4.567,10.199,10.199,10.199h66.147
			c5.632,0,10.199-4.566,10.199-10.199V336.574C451.825,330.942,447.258,326.375,441.625,326.375z M431.426,440.596h-45.749v-93.824
			h45.749V440.596z"/>
	</g>
</g>
<g>
	<g>
		<path d="M404.908,81.594H284.558c-5.632,0-10.199,4.567-10.199,10.199c0,5.632,4.567,10.199,10.199,10.199h120.351
			c5.632,0,10.199-4.567,10.199-10.199C415.108,86.161,410.54,81.594,404.908,81.594z"/>
	</g>
</g>
<g>
	<g>
		<path d="M251.92,81.594h-9.179c-5.632,0-10.199,4.567-10.199,10.199c0,5.632,4.567,10.199,10.199,10.199h9.179
			c5.632,0,10.199-4.567,10.199-10.199C262.12,86.161,257.552,81.594,251.92,81.594z"/>
	</g>
</g>
<g>
</g>
<g>
</g>
<g>
</g>
<g>
</g>
<g>
</g>
<g>
</g>
<g>
</g>
<g>
</g>
<g>
</g>
<g>
</g>
<g>
</g>
<g>
</g>
<g>
</g>
<g>
</g>
<g>
</g>
</svg>
