<?xml version="1.0" encoding="iso-8859-1"?>
<!-- Generator: Adobe Illustrator 19.0.0, SVG Export Plug-In . SVG Version: 6.00 Build 0)  -->
<svg version="1.1" id="Layer_1" xmlns="http://www.w3.org/2000/svg" xmlns:xlink="http://www.w3.org/1999/xlink" x="0px" y="0px"
	 viewBox="0 0 512 512" style="enable-background:new 0 0 512 512;" xml:space="preserve">
<g>
	<g>
		<path d="M442.434,59.196H69.567C31.208,59.196,0,90.404,0,128.763v162.498c0,38.359,31.208,69.566,69.567,69.566h233.35v81.778
			c0,4.126,2.486,7.844,6.296,9.423c1.262,0.522,2.588,0.776,3.901,0.776c2.655,0,5.263-1.036,7.214-2.987l88.989-88.99h33.118
			c38.358,0,69.566-31.208,69.566-69.566V128.763C512,90.404,480.792,59.196,442.434,59.196z M491.601,291.261
			c0,27.11-22.057,49.167-49.167,49.167h-37.341c-2.705,0-5.298,1.075-7.212,2.987l-74.565,74.565v-67.354
			c0-5.632-4.567-10.199-10.199-10.199H69.567c-27.112,0-49.168-22.057-49.168-49.167V128.763c0-27.112,22.057-49.168,49.168-49.168
			h372.867c27.111,0,49.167,22.057,49.167,49.168V291.261z"/>
	</g>
</g>
<g>
	<g>
		<path d="M356.291,199.909l-93.612-81.098c-3.833-3.321-9.524-3.32-13.357,0l-93.612,81.098c-3.219,2.789-4.366,7.283-2.878,11.273
			s5.298,6.636,9.557,6.636h17.219v75.58c0,5.632,4.566,10.199,10.199,10.199h132.388c5.633,0,10.199-4.567,10.199-10.199v-75.58
			h17.219c4.258,0,8.069-2.646,9.557-6.636C360.656,207.193,359.509,202.698,356.291,199.909z M322.194,197.42
			c-5.632,0-10.199,4.567-10.199,10.199v75.58H200.005v-75.581c0-5.632-4.566-10.199-10.199-10.199h-0.068L256,140.015
			l66.262,57.405H322.194z"/>
	</g>
</g>
<g>
	<g>
		<path d="M45.896,174.457c-5.633,0-10.199,4.567-10.199,10.199v110.151c0,5.632,4.566,10.199,10.199,10.199
			c5.633,0,10.199-4.567,10.199-10.199V184.657C56.096,179.025,51.529,174.457,45.896,174.457z"/>
	</g>
</g>
<g>
	<g>
		<path d="M45.896,137.596c-5.633,0-10.199,4.567-10.199,10.199v3.346c0,5.632,4.566,10.199,10.199,10.199
			c5.633,0,10.199-4.566,10.199-10.199v-3.346C56.096,142.164,51.529,137.596,45.896,137.596z"/>
	</g>
</g>
<g>
</g>
<g>
</g>
<g>
</g>
<g>
</g>
<g>
</g>
<g>
</g>
<g>
</g>
<g>
</g>
<g>
</g>
<g>
</g>
<g>
</g>
<g>
</g>
<g>
</g>
<g>
</g>
<g>
</g>
</svg>
