<?xml version="1.0" encoding="iso-8859-1"?>
<!-- Generator: Adobe Illustrator 19.0.0, SVG Export Plug-In . SVG Version: 6.00 Build 0)  -->
<svg version="1.1" id="Layer_1" xmlns="http://www.w3.org/2000/svg" xmlns:xlink="http://www.w3.org/1999/xlink" x="0px" y="0px"
	 viewBox="0 0 512.001 512.001" style="enable-background:new 0 0 512.001 512.001;" xml:space="preserve">
<g>
	<g>
		<path d="M414.66,497.944l-1.249-3.06c-2.13-5.214-8.081-7.718-13.298-5.588c-5.215,2.13-7.717,8.083-5.588,13.298l1.249,3.06
			c1.615,3.953,5.425,6.348,9.447,6.348c1.283,0,2.589-0.244,3.85-0.759C414.287,509.112,416.789,503.158,414.66,497.944z"/>
	</g>
</g>
<g>
	<g>
		<path d="M402.172,467.345l-33.919-83.102h18.568c5.632,0,10.199-4.567,10.199-10.199s-4.567-10.199-10.199-10.199h-26.894
			l-66.563-163.078c6.655-8.242,10.651-18.715,10.651-30.109c0-22.975-16.225-42.223-37.815-46.914v-15.452h5.262
			c5.632,0,10.199-4.567,10.199-10.199V10.199C281.66,4.567,277.092,0,271.46,0h-30.922c-5.632,0-10.199,4.567-10.199,10.199v87.895
			c0,5.632,4.567,10.199,10.199,10.199h5.262v15.452c-21.591,4.691-37.815,23.938-37.815,46.914
			c0,11.393,3.996,21.866,10.651,30.109l-66.562,163.076H125.18c-5.632,0-10.199,4.567-10.199,10.199s4.567,10.199,10.199,10.199
			h18.569l-46.408,113.7c-2.129,5.215,0.373,11.169,5.588,13.298c1.262,0.515,2.567,0.759,3.85,0.759
			c4.022,0,7.834-2.395,9.448-6.348l49.556-121.41h66.716v26.594c0,5.632,4.567,10.199,10.199,10.199h26.608
			c5.632,0,10.199-4.567,10.199-10.199v-26.593h66.717l37.066,90.811c1.614,3.953,5.425,6.348,9.448,6.348
			c1.283,0,2.589-0.244,3.85-0.759C401.798,478.514,404.3,472.56,402.172,467.345z M261.261,20.398v67.497h-10.523V20.398H261.261z
			 M256,143.042c15.228,0,27.616,12.388,27.616,27.616S271.228,198.274,256,198.274s-27.616-12.388-27.616-27.616
			S240.772,143.042,256,143.042z M259.104,400.638h-6.209v-55.232h6.209V400.638z M279.502,363.844v-28.638
			c0-5.632-4.567-10.199-10.199-10.199h-26.608c-5.632,0-10.199,4.567-10.199,10.199v28.638h-58.39l61.174-149.877
			c6.276,3.015,13.303,4.706,20.719,4.706s14.442-1.692,20.719-4.706l61.174,149.877H279.502z"/>
	</g>
</g>
<g>
</g>
<g>
</g>
<g>
</g>
<g>
</g>
<g>
</g>
<g>
</g>
<g>
</g>
<g>
</g>
<g>
</g>
<g>
</g>
<g>
</g>
<g>
</g>
<g>
</g>
<g>
</g>
<g>
</g>
</svg>
