<?xml version="1.0" encoding="iso-8859-1"?>
<!-- Generator: Adobe Illustrator 19.0.0, SVG Export Plug-In . SVG Version: 6.00 Build 0)  -->
<svg version="1.1" id="Layer_1" xmlns="http://www.w3.org/2000/svg" xmlns:xlink="http://www.w3.org/1999/xlink" x="0px" y="0px"
	 viewBox="0 0 512 512" style="enable-background:new 0 0 512 512;" xml:space="preserve">
<g>
	<g>
		<path d="M501.801,153.978H490.34v-0.16c0-5.632-4.567-10.199-10.199-10.199c-5.632,0-10.199,4.567-10.199,10.199v69.85h-5.971
			V202.79c0-5.632-4.567-10.199-10.199-10.199h-33.903c-5.632,0-10.199,4.567-10.199,10.199v20.879h-7.854v-40.185
			c0-26.372-6.772-50.214-20.127-70.863c-13.433-20.771-33.265-37.857-58.943-50.787c-1.423-0.716-2.995-1.089-4.587-1.089h-95.119
			c-1.593,0-3.165,0.373-4.587,1.089c-25.679,12.93-45.51,30.016-58.943,50.787c-13.355,20.649-20.126,44.491-20.126,70.863v40.185
			h-7.854v-117.88c0-5.632-4.567-10.199-10.199-10.199H41.748c-2.705,0-5.299,1.075-7.212,2.987L2.987,130.124
			C1.075,132.038,0,134.632,0,137.336v82.876c0,31.848,25.91,57.758,57.758,57.758h19.467v163.085
			c0,5.632,4.567,10.199,10.199,10.199h33.903c5.632,0,10.199-4.567,10.199-10.199V244.067h7.854v40.185
			c0,49.14,36.73,78.477,98.254,78.477h65.924c61.524,0,98.255-29.338,98.255-78.477v-40.185h7.854v196.989
			c0,5.632,4.567,10.199,10.199,10.199h33.903c5.632,0,10.199-4.567,10.199-10.199V244.067h5.971v67.967
			c0,5.632,4.567,10.199,10.199,10.199c5.632,0,10.199-4.567,10.199-10.199V174.377h11.462c5.632,0,10.199-4.567,10.199-10.199
			C512,158.546,507.433,153.978,501.801,153.978z M77.225,257.572H57.758c-20.6,0-37.36-16.759-37.36-37.36v-2.515h18.054
			c5.632,0,10.199-4.567,10.199-10.199s-4.567-10.199-10.199-10.199H20.398v-14.446h18.054c5.632,0,10.199-4.567,10.199-10.199
			c0-5.632-4.567-10.199-10.199-10.199H20.398v-20.892l25.574-25.575h31.252V257.572z M111.128,430.857H97.624v-314.87h13.505
			V430.857z M381.416,284.253c0,50.533-48.78,58.078-77.857,58.078h-65.924c-29.077,0-77.856-7.544-77.856-58.078v-19.466h221.636
			V284.253z M381.416,244.387H159.78v-21.04h221.636V244.387z M381.417,202.95H159.78v-19.467
			c0-44.587,22.713-79.929,65.719-102.341h90.199c43.006,22.413,65.72,57.755,65.72,102.342V202.95z M443.572,430.856h-13.505
			V212.989h13.505V430.856z"/>
	</g>
</g>
<g>
</g>
<g>
</g>
<g>
</g>
<g>
</g>
<g>
</g>
<g>
</g>
<g>
</g>
<g>
</g>
<g>
</g>
<g>
</g>
<g>
</g>
<g>
</g>
<g>
</g>
<g>
</g>
<g>
</g>
</svg>
