<?xml version="1.0" encoding="iso-8859-1"?>
<!-- Generator: Adobe Illustrator 19.0.0, SVG Export Plug-In . SVG Version: 6.00 Build 0)  -->
<svg version="1.1" id="Layer_1" xmlns="http://www.w3.org/2000/svg" xmlns:xlink="http://www.w3.org/1999/xlink" x="0px" y="0px"
	 viewBox="0 0 512 512" style="enable-background:new 0 0 512 512;" xml:space="preserve">
<g>
	<g>
		<path d="M364.646,0H22.924c-5.632,0-10.199,4.566-10.199,10.199v491.602c0,5.633,4.567,10.199,10.199,10.199h341.723
			c5.632,0,10.199-4.566,10.199-10.199V10.199C374.845,4.566,370.279,0,364.646,0z M354.448,491.602h-0.001H33.123V20.398h321.325
			V491.602z"/>
	</g>
</g>
<g>
	<g>
		<path d="M315.155,74.454H72.414c-5.632,0-10.199,4.566-10.199,10.199c0,5.633,4.567,10.199,10.199,10.199h242.741
			c5.632,0,10.199-4.566,10.199-10.199C325.355,79.02,320.787,74.454,315.155,74.454z"/>
	</g>
</g>
<g>
	<g>
		<path d="M315.155,127.49H72.414c-5.632,0-10.199,4.566-10.199,10.199c0,5.633,4.567,10.199,10.199,10.199h242.741
			c5.632,0,10.199-4.566,10.199-10.199C325.355,132.056,320.787,127.49,315.155,127.49z"/>
	</g>
</g>
<g>
	<g>
		<path d="M315.155,180.526H72.414c-5.632,0-10.199,4.566-10.199,10.199s4.567,10.199,10.199,10.199h242.741
			c5.632,0,10.199-4.566,10.199-10.199S320.787,180.526,315.155,180.526z"/>
	</g>
</g>
<g>
	<g>
		<path d="M315.155,355.952H72.414c-5.632,0-10.199,4.566-10.199,10.199c0,5.633,4.567,10.199,10.199,10.199h242.741
			c5.632,0,10.199-4.566,10.199-10.199C325.355,360.518,320.787,355.952,315.155,355.952z"/>
	</g>
</g>
<g>
	<g>
		<path d="M315.155,408.988h-8.645c-5.632,0-10.199,4.566-10.199,10.199c0,5.633,4.567,10.199,10.199,10.199h8.645
			c5.632,0,10.199-4.566,10.199-10.199C325.355,413.554,320.787,408.988,315.155,408.988z"/>
	</g>
</g>
<g>
	<g>
		<path d="M264.694,408.988H72.414c-5.632,0-10.199,4.566-10.199,10.199c0,5.633,4.567,10.199,10.199,10.199h192.279
			c5.632,0,10.199-4.566,10.199-10.199C274.893,413.554,270.326,408.988,264.694,408.988z"/>
	</g>
</g>
<g>
	<g>
		<path d="M498.697,145.521L463.51,45.569c-1.437-4.082-5.292-6.812-9.621-6.812s-8.183,2.73-9.621,6.812l-35.187,99.952
			c-0.384,1.088-0.578,2.234-0.578,3.387v314.135c0,5.633,4.567,10.199,10.199,10.199h70.375c5.632,0,10.199-4.566,10.199-10.199
			V148.908C499.275,147.755,499.081,146.609,498.697,145.521z M453.889,79.671l3.19,9.062h-6.381L453.889,79.671z M478.877,452.845
			h-49.976V160.128h26.518c5.632,0,10.199-4.566,10.199-10.199s-4.567-10.199-10.199-10.199h-22.673l10.771-30.598h20.743
			l14.616,41.52V452.845z"/>
	</g>
</g>
<g>
</g>
<g>
</g>
<g>
</g>
<g>
</g>
<g>
</g>
<g>
</g>
<g>
</g>
<g>
</g>
<g>
</g>
<g>
</g>
<g>
</g>
<g>
</g>
<g>
</g>
<g>
</g>
<g>
</g>
</svg>
