<?xml version="1.0" encoding="iso-8859-1"?>
<!-- Generator: Adobe Illustrator 19.0.0, SVG Export Plug-In . SVG Version: 6.00 Build 0)  -->
<svg version="1.1" id="Layer_1" xmlns="http://www.w3.org/2000/svg" xmlns:xlink="http://www.w3.org/1999/xlink" x="0px" y="0px"
	 viewBox="0 0 512 512" style="enable-background:new 0 0 512 512;" xml:space="preserve">
<g>
	<g>
		<path d="M448.922,0h-257.58c-5.632,0-10.199,4.566-10.199,10.199V42.93h-32.731c-5.632,0-10.199,4.566-10.199,10.199v32.73
			h-32.731c-5.632,0-10.199,4.566-10.199,10.199v32.207H63.076c-5.632,0-10.199,4.566-10.199,10.199v363.335
			c0,5.633,4.567,10.199,10.199,10.199h257.58c5.632,0,10.199-4.566,10.199-10.199v-32.207h32.208
			c5.632,0,10.199-4.566,10.199-10.199v-32.731h32.73c5.632,0,10.199-4.566,10.199-10.199v-32.73h32.731
			c5.632,0,10.199-4.566,10.199-10.199V10.199C459.122,4.566,454.556,0,448.922,0z M310.457,491.602H73.276V148.665h237.181V491.602
			z M352.864,449.195h-22.009v-310.73c0-5.633-4.567-10.199-10.199-10.199H115.682v-22.008h237.182V449.195z M395.794,406.265
			h-0.001h-22.531V96.059c0-5.633-4.567-10.199-10.199-10.199h-204.45V63.329h237.181V406.265z M438.723,363.335h-22.532V53.13
			c0-5.633-4.567-10.199-10.199-10.199h-204.45V20.398h237.181V363.335z"/>
	</g>
</g>
<g>
	<g>
		<path d="M278.25,395.794H105.483c-5.632,0-10.199,4.566-10.199,10.199c0,5.633,4.566,10.199,10.199,10.199H278.25
			c5.632,0,10.199-4.566,10.199-10.199C288.449,400.361,283.882,395.794,278.25,395.794z"/>
	</g>
</g>
<g>
	<g>
		<path d="M278.25,435.583H105.483c-5.632,0-10.199,4.566-10.199,10.199c0,5.633,4.566,10.199,10.199,10.199H278.25
			c5.632,0,10.199-4.566,10.199-10.199C288.449,440.15,283.882,435.583,278.25,435.583z"/>
	</g>
</g>
<g>
	<g>
		<path d="M278.25,184.285H105.483c-5.632,0-10.199,4.566-10.199,10.199c0,5.633,4.566,10.199,10.199,10.199H278.25
			c5.632,0,10.199-4.566,10.199-10.199C288.449,188.852,283.882,184.285,278.25,184.285z"/>
	</g>
</g>
<g>
	<g>
		<path d="M278.25,224.074H105.483c-5.632,0-10.199,4.566-10.199,10.199c0,5.633,4.566,10.199,10.199,10.199H278.25
			c5.632,0,10.199-4.566,10.199-10.199C288.449,228.641,283.882,224.074,278.25,224.074z"/>
	</g>
</g>
<g>
	<g>
		<path d="M278.249,263.863h-5.235c-5.632,0-10.199,4.566-10.199,10.199c0,5.633,4.567,10.199,10.199,10.199h5.235
			c5.632,0,10.199-4.566,10.199-10.199C288.448,268.429,283.882,263.863,278.249,263.863z"/>
	</g>
</g>
<g>
	<g>
		<path d="M236.367,263.863H105.483c-5.632,0-10.199,4.566-10.199,10.199c0,5.633,4.566,10.199,10.199,10.199h130.884
			c5.632,0,10.199-4.566,10.199-10.199C246.566,268.429,241.999,263.863,236.367,263.863z"/>
	</g>
</g>
<g>
</g>
<g>
</g>
<g>
</g>
<g>
</g>
<g>
</g>
<g>
</g>
<g>
</g>
<g>
</g>
<g>
</g>
<g>
</g>
<g>
</g>
<g>
</g>
<g>
</g>
<g>
</g>
<g>
</g>
</svg>
