<?xml version="1.0" encoding="iso-8859-1"?>
<!-- Generator: Adobe Illustrator 19.0.0, SVG Export Plug-In . SVG Version: 6.00 Build 0)  -->
<svg version="1.1" id="Layer_1" xmlns="http://www.w3.org/2000/svg" xmlns:xlink="http://www.w3.org/1999/xlink" x="0px" y="0px"
	 viewBox="0 0 512 512" style="enable-background:new 0 0 512 512;" xml:space="preserve">
<g>
	<g>
		<path d="M468.143,0H43.857c-5.632,0-10.199,4.566-10.199,10.199v491.602c0,5.633,4.567,10.199,10.199,10.199h424.287
			c5.632,0,10.199-4.566,10.199-10.199V10.199C478.343,4.566,473.775,0,468.143,0z M377.115,491.602H265.461V141.769
			c0-5.633-4.567-10.199-10.199-10.199s-10.199,4.566-10.199,10.199v349.833H134.885V83.04h242.229V491.602z M457.944,491.602
			h-60.431V72.841c0-5.633-4.567-10.199-10.199-10.199H124.686c-5.632,0-10.199,4.566-10.199,10.199v418.761H54.056V20.398h403.888
			V491.602z"/>
	</g>
</g>
<g>
	<g>
		<path d="M255.262,95.963c-5.632,0-10.199,4.566-10.199,10.199v3.989c0,5.633,4.567,10.199,10.199,10.199
			s10.199-4.566,10.199-10.199v-3.99C265.461,100.529,260.895,95.963,255.262,95.963z"/>
	</g>
</g>
<g>
	<g>
		<path d="M83.633,213.163c-5.632,0-10.199,4.566-10.199,10.199v13.259c0,5.633,4.567,10.199,10.199,10.199
			c5.632,0,10.199-4.566,10.199-10.199v-13.259C93.833,217.73,89.265,213.163,83.633,213.163z"/>
	</g>
</g>
<g>
	<g>
		<path d="M83.633,268.239c-5.632,0-10.199,4.566-10.199,10.199v13.259c0,5.633,4.567,10.199,10.199,10.199
			c5.632,0,10.199-4.566,10.199-10.199v-13.259C93.833,272.805,89.265,268.239,83.633,268.239z"/>
	</g>
</g>
<g>
	<g>
		<path d="M165.737,31.618h-5.1c-5.632,0-10.199,4.566-10.199,10.199c0,5.633,4.567,10.199,10.199,10.199h5.1
			c5.632,0,10.199-4.566,10.199-10.199C175.936,36.184,171.369,31.618,165.737,31.618z"/>
	</g>
</g>
<g>
	<g>
		<path d="M349.323,31.618h-5.1c-5.632,0-10.199,4.566-10.199,10.199c0,5.633,4.567,10.199,10.199,10.199h5.1
			c5.632,0,10.199-4.566,10.199-10.199C359.522,36.184,354.955,31.618,349.323,31.618z"/>
	</g>
</g>
<g>
	<g>
		<path d="M211.633,31.618h-5.1c-5.632,0-10.199,4.566-10.199,10.199c0,5.633,4.567,10.199,10.199,10.199h5.1
			c5.632,0,10.199-4.566,10.199-10.199C221.833,36.184,217.265,31.618,211.633,31.618z"/>
	</g>
</g>
<g>
	<g>
		<path d="M303.426,31.618h-5.1c-5.632,0-10.199,4.566-10.199,10.199c0,5.633,4.567,10.199,10.199,10.199h5.1
			c5.632,0,10.199-4.566,10.199-10.199C313.625,36.184,309.058,31.618,303.426,31.618z"/>
	</g>
</g>
<g>
	<g>
		<path d="M257.53,31.618h-5.1c-5.632,0-10.199,4.566-10.199,10.199c0,5.633,4.567,10.199,10.199,10.199h5.1
			c5.632,0,10.199-4.566,10.199-10.199C267.729,36.184,263.162,31.618,257.53,31.618z"/>
	</g>
</g>
<g>
</g>
<g>
</g>
<g>
</g>
<g>
</g>
<g>
</g>
<g>
</g>
<g>
</g>
<g>
</g>
<g>
</g>
<g>
</g>
<g>
</g>
<g>
</g>
<g>
</g>
<g>
</g>
<g>
</g>
</svg>
