<?xml version="1.0" encoding="iso-8859-1"?>
<!-- Generator: Adobe Illustrator 19.0.0, SVG Export Plug-In . SVG Version: 6.00 Build 0)  -->
<svg version="1.1" id="Layer_1" xmlns="http://www.w3.org/2000/svg" xmlns:xlink="http://www.w3.org/1999/xlink" x="0px" y="0px"
	 viewBox="0 0 512 512" style="enable-background:new 0 0 512 512;" xml:space="preserve">
<g>
	<g>
		<path d="M408.284,170.681H368.02c-8.861-18.932-22.547-35.12-39.898-47.107c-11.912-8.231-25.074-14.102-38.926-17.481V89.898
			h47.035c5.632,0,10.199-4.566,10.199-10.199V49.037c0-5.633-4.567-10.199-10.199-10.199h-47.035V18.376
			c0-5.633-4.567-10.199-10.199-10.199h-36.794c-5.633,0-10.199,4.566-10.199,10.199v20.463h-47.036
			c-5.633,0-10.199,4.566-10.199,10.199V79.7c0,5.633,4.566,10.199,10.199,10.199h47.036v16.45
			c-13.477,3.416-26.286,9.198-37.905,17.225c-17.35,11.987-31.036,28.175-39.898,47.107h-144C4.566,170.682,0,175.248,0,180.881
			V260.6c0,5.633,4.566,10.199,10.199,10.199h144c8.862,18.932,22.548,35.12,39.898,47.107
			c19.751,13.646,42.922,20.858,67.012,20.858c24.089,0,47.261-7.213,67.011-20.858c17.351-11.987,31.037-28.175,39.898-47.107
			H396.7c8.37,0,15.182,6.811,15.182,15.182v52.294c0,5.633,4.567,10.199,10.199,10.199h79.72c5.632,0,10.199-4.566,10.199-10.199
			v-63.878C512,217.207,465.473,170.681,408.284,170.681z M252.402,28.575h16.395v10.263h-16.395V28.575z M195.167,69.499V59.236
			h130.864v10.263H195.167z M268.797,89.898v13.081c-2.551-0.164-5.112-0.263-7.686-0.263c-2.918,0-5.822,0.111-8.709,0.321v-13.14
			H268.797z M432.281,328.075V285.98c0-19.619-15.961-35.58-35.58-35.58h-35.377c-4.177,0-7.931,2.547-9.476,6.427
			c-14.882,37.383-50.499,61.539-90.738,61.539c-40.24,0-75.857-24.156-90.738-61.539c-1.545-3.881-5.299-6.427-9.476-6.427H20.398
			v-59.321h140.497c4.177,0,7.931-2.547,9.476-6.427c14.882-37.383,50.499-61.539,90.738-61.539
			c40.239,0,75.857,24.156,90.738,61.539c1.545,3.881,5.299,6.427,9.476,6.427h46.959c45.941,0,83.317,37.376,83.317,83.317v53.678
			H432.281z"/>
	</g>
</g>
<g>
	<g>
		<path d="M469.091,376.991c-3.969-3.899-10.331-3.899-14.299,0c-1.71,1.681-41.887,41.584-41.887,77.795
			c0,27.039,21.998,49.037,49.037,49.037s49.037-21.998,49.037-49.037C510.978,418.575,470.8,378.673,469.091,376.991z
			 M461.941,483.425c-15.79,0-28.638-12.847-28.638-28.638c0-18.566,16.91-42.068,28.638-55.56
			c11.73,13.496,28.638,36.996,28.638,55.56C490.58,470.578,477.732,483.425,461.941,483.425z"/>
	</g>
</g>
<g>
	<g>
		<path d="M123.646,202.364h-4.088c-5.633,0-10.199,4.566-10.199,10.199c0,5.633,4.566,10.199,10.199,10.199h4.088
			c5.633,0,10.199-4.566,10.199-10.199C133.845,206.931,129.279,202.364,123.646,202.364z"/>
	</g>
</g>
<g>
	<g>
		<path d="M84.808,202.364H42.904c-5.633,0-10.199,4.566-10.199,10.199c0,5.633,4.566,10.199,10.199,10.199h41.903
			c5.633,0,10.199-4.566,10.199-10.199C95.007,206.931,90.441,202.364,84.808,202.364z"/>
	</g>
</g>
<g>
</g>
<g>
</g>
<g>
</g>
<g>
</g>
<g>
</g>
<g>
</g>
<g>
</g>
<g>
</g>
<g>
</g>
<g>
</g>
<g>
</g>
<g>
</g>
<g>
</g>
<g>
</g>
<g>
</g>
</svg>
