<?xml version="1.0" encoding="iso-8859-1"?>
<!-- Generator: Adobe Illustrator 19.0.0, SVG Export Plug-In . SVG Version: 6.00 Build 0)  -->
<svg version="1.1" id="Layer_1" xmlns="http://www.w3.org/2000/svg" xmlns:xlink="http://www.w3.org/1999/xlink" x="0px" y="0px"
	 viewBox="0 0 512 512" style="enable-background:new 0 0 512 512;" xml:space="preserve">
<g>
	<g>
		<path d="M501.801,60.073H10.199C4.566,60.073,0,64.64,0,70.273v371.455c0,5.632,4.566,10.199,10.199,10.199h491.602
			c5.632,0,10.199-4.567,10.199-10.199V70.273C512,64.64,507.433,60.073,501.801,60.073z M455.089,431.528H56.911v-31.72h325.56
			c5.632,0,10.199-4.567,10.199-10.199c0-5.632-4.567-10.199-10.199-10.199H56.911v-28.558h398.179V431.528z M455.089,330.454
			H56.911v-28.558h398.179V330.454z M455.089,281.498H56.911V252.94h398.179V281.498z M455.089,232.542H56.911v-32.637h398.179
			V232.542z M491.602,431.528h-16.114V189.705c0-5.632-4.567-10.199-10.199-10.199H46.711c-5.633,0-10.199,4.567-10.199,10.199
			v241.823H20.398V80.472h471.203V431.528z"/>
	</g>
</g>
<g>
	<g>
		<path d="M411.233,92.813H276.398c-5.632,0-10.199,4.567-10.199,10.199v54.056c0,5.632,4.567,10.199,10.199,10.199h188.89
			c5.632,0,10.199-4.567,10.199-10.199C475.488,121.638,446.663,92.813,411.233,92.813z M286.598,146.869v-33.657h124.635
			c20.673,0,38.051,14.377,42.659,33.657H286.598z"/>
	</g>
</g>
<g>
	<g>
		<path d="M235.602,92.813H100.767c-35.43,0-64.255,28.825-64.255,64.255c0,5.632,4.566,10.199,10.199,10.199h188.89
			c5.633,0,10.199-4.567,10.199-10.199v-54.056C245.801,97.38,241.235,92.813,235.602,92.813z M225.402,146.869H58.108
			c4.609-19.281,21.986-33.657,42.659-33.657h124.635V146.869z"/>
	</g>
</g>
<g>
	<g>
		<path d="M426.327,379.41h-5.1c-5.632,0-10.199,4.567-10.199,10.199c0,5.632,4.567,10.199,10.199,10.199h5.1
			c5.632,0,10.199-4.567,10.199-10.199C436.526,383.978,431.959,379.41,426.327,379.41z"/>
	</g>
</g>
<g>
</g>
<g>
</g>
<g>
</g>
<g>
</g>
<g>
</g>
<g>
</g>
<g>
</g>
<g>
</g>
<g>
</g>
<g>
</g>
<g>
</g>
<g>
</g>
<g>
</g>
<g>
</g>
<g>
</g>
</svg>
