<?xml version="1.0" encoding="iso-8859-1"?>
<!-- Generator: Adobe Illustrator 19.0.0, SVG Export Plug-In . SVG Version: 6.00 Build 0)  -->
<svg version="1.1" id="Layer_1" xmlns="http://www.w3.org/2000/svg" xmlns:xlink="http://www.w3.org/1999/xlink" x="0px" y="0px"
	 viewBox="0 0 512 512" style="enable-background:new 0 0 512 512;" xml:space="preserve">
<g>
	<g>
		<path d="M101.115,36.93c-3.984-3.982-10.44-3.982-14.425,0l-4.348,4.348c-3.983,3.983-3.983,10.441,0,14.425
			c1.992,1.991,4.602,2.987,7.212,2.987c2.61,0,5.221-0.996,7.213-2.987l4.348-4.348C105.098,47.372,105.098,40.914,101.115,36.93z"
			/>
	</g>
</g>
<g>
	<g>
		<path d="M135.727,46.295c-3.984-3.983-10.44-3.983-14.424,0L90.871,76.728c-3.983,3.983-3.983,10.441,0,14.425
			c1.992,1.991,4.602,2.987,7.212,2.987c2.61,0,5.22-0.996,7.212-2.987l30.432-30.432C139.71,56.737,139.71,50.279,135.727,46.295z"
			/>
	</g>
</g>
<g>
	<g>
		<path d="M234.029,36.93c-3.984-3.982-10.44-3.982-14.425,0l-4.348,4.348c-3.983,3.983-3.983,10.441,0,14.425
			c1.993,1.991,4.602,2.987,7.213,2.987c2.611,0,5.22-0.996,7.212-2.987l4.348-4.348C238.012,47.372,238.012,40.914,234.029,36.93z"
			/>
	</g>
</g>
<g>
	<g>
		<path d="M268.642,46.294c-3.982-3.98-10.438-3.982-14.425,0l-30.433,30.432c-3.982,3.984-3.982,10.442,0.001,14.425
			c1.992,1.991,4.602,2.987,7.212,2.987s5.22-0.996,7.212-2.987l30.433-30.432C272.625,56.736,272.625,50.278,268.642,46.294z"/>
	</g>
</g>
<g>
	<g>
		<path d="M454.884,0H57.116c-5.632,0-10.199,4.567-10.199,10.199v491.602c0,5.632,4.567,10.199,10.199,10.199h397.769
			c5.632,0,10.199-4.567,10.199-10.199V10.199C465.084,4.567,460.516,0,454.884,0z M179.506,491.602H67.315V266.199h112.191V491.602
			z M179.506,245.801H67.315V20.398h112.191V245.801z M312.096,491.602H199.904V266.199h112.191V491.602z M312.096,245.801H199.904
			V20.398h112.191V245.801z M444.685,491.602H332.494V266.199h112.191V491.602z M444.685,245.801H332.494V20.398h112.191V245.801z"
			/>
	</g>
</g>
<g>
	<g>
		<path d="M366.619,36.93c-3.984-3.982-10.44-3.982-14.425,0l-4.348,4.348c-3.983,3.983-3.983,10.441,0,14.425
			c1.993,1.991,4.602,2.987,7.213,2.987c2.611,0,5.22-0.996,7.212-2.987l4.348-4.348C370.601,47.372,370.601,40.914,366.619,36.93z"
			/>
	</g>
</g>
<g>
	<g>
		<path d="M401.232,46.294c-3.983-3.98-10.439-3.982-14.425,0l-30.433,30.432c-3.982,3.984-3.982,10.442,0.001,14.425
			c1.992,1.991,4.602,2.987,7.212,2.987s5.22-0.996,7.212-2.987l30.433-30.432C405.214,56.736,405.214,50.278,401.232,46.294z"/>
	</g>
</g>
<g>
	<g>
		<path d="M101.115,282.731c-3.984-3.982-10.44-3.982-14.425,0l-4.348,4.348c-3.983,3.983-3.983,10.441,0,14.425
			c1.992,1.991,4.602,2.987,7.212,2.987c2.61,0,5.221-0.996,7.213-2.987l4.348-4.348
			C105.098,293.173,105.098,286.715,101.115,282.731z"/>
	</g>
</g>
<g>
	<g>
		<path d="M135.727,292.096c-3.984-3.983-10.44-3.983-14.424,0l-30.432,30.432c-3.983,3.983-3.983,10.441,0,14.425
			c1.992,1.991,4.602,2.987,7.212,2.987c2.61,0,5.22-0.996,7.212-2.987l30.432-30.432C139.71,302.538,139.71,296.08,135.727,292.096
			z"/>
	</g>
</g>
<g>
	<g>
		<path d="M234.029,282.731c-3.984-3.982-10.44-3.982-14.425,0l-4.348,4.348c-3.983,3.983-3.983,10.441,0,14.425
			c1.992,1.991,4.602,2.987,7.212,2.987s5.221-0.996,7.213-2.987l4.348-4.348C238.012,293.173,238.012,286.715,234.029,282.731z"/>
	</g>
</g>
<g>
	<g>
		<path d="M268.642,292.096c-3.982-3.981-10.438-3.983-14.424,0l-30.433,30.432c-3.983,3.983-3.983,10.441,0,14.425
			c1.992,1.991,4.602,2.987,7.212,2.987s5.22-0.996,7.212-2.987l30.433-30.432C272.625,302.538,272.625,296.08,268.642,292.096z"/>
	</g>
</g>
<g>
	<g>
		<path d="M366.619,282.731c-3.984-3.982-10.44-3.982-14.425,0l-4.348,4.348c-3.983,3.983-3.983,10.441,0,14.425
			c1.993,1.991,4.602,2.987,7.213,2.987c2.611,0,5.22-0.996,7.212-2.987l4.348-4.348
			C370.601,293.173,370.601,286.715,366.619,282.731z"/>
	</g>
</g>
<g>
	<g>
		<path d="M401.232,292.095c-3.984-3.982-10.44-3.982-14.425,0l-1.35,1.35c-3.983,3.983-3.983,10.441,0,14.425
			c1.993,1.992,4.602,2.987,7.213,2.987c2.611,0,5.22-0.996,7.212-2.987l1.35-1.35C405.214,302.537,405.214,296.079,401.232,292.095
			z"/>
	</g>
</g>
<g>
	<g>
		<path d="M380.503,312.826c-3.981-3.982-10.44-3.983-14.424-0.001l-9.704,9.703c-3.984,3.983-3.984,10.44-0.001,14.424
			c1.991,1.992,4.602,2.988,7.212,2.988s5.22-0.996,7.211-2.987l9.705-9.703C384.486,323.267,384.486,316.81,380.503,312.826z"/>
	</g>
</g>
<g>
</g>
<g>
</g>
<g>
</g>
<g>
</g>
<g>
</g>
<g>
</g>
<g>
</g>
<g>
</g>
<g>
</g>
<g>
</g>
<g>
</g>
<g>
</g>
<g>
</g>
<g>
</g>
<g>
</g>
</svg>
