<?xml version="1.0" encoding="iso-8859-1"?>
<!-- Generator: Adobe Illustrator 19.0.0, SVG Export Plug-In . SVG Version: 6.00 Build 0)  -->
<svg version="1.1" id="Layer_1" xmlns="http://www.w3.org/2000/svg" xmlns:xlink="http://www.w3.org/1999/xlink" x="0px" y="0px"
	 viewBox="0 0 512 512" style="enable-background:new 0 0 512 512;" xml:space="preserve">
<g>
	<g>
		<path d="M386.299,0H194.273c-9.045,0-17.639,3.913-23.578,10.736L104.89,86.342c-8.145,9.358-10.011,22.184-4.869,33.475
			c5.141,11.289,16.041,18.303,28.447,18.303h88.09v349.401c0,13.497,10.981,24.478,24.478,24.478h48.179
			c13.497,0,24.478-10.981,24.478-24.478v-349.4h72.606c15.741,0,28.548-12.807,28.548-28.548V28.548
			C414.847,12.807,402.04,0,386.299,0z M293.295,487.522L293.295,487.522c-0.001,2.25-1.831,4.08-4.081,4.08h-48.179
			c-2.25,0-4.08-1.83-4.08-4.08v-349.4h56.339V487.522z M394.449,109.574c0,4.494-3.655,8.149-8.149,8.149H128.467
			c-6.483,0-9.203-4.867-9.882-6.358c-0.679-1.492-2.565-6.739,1.692-11.629l65.805-75.607c2.063-2.37,5.05-3.73,8.192-3.73H386.3
			c4.494,0,8.149,3.655,8.149,8.149V109.574z"/>
	</g>
</g>
<g>
	<g>
		<path d="M371.947,31.61h-55.592c-5.632,0-10.199,4.567-10.199,10.199c0,5.632,4.567,10.199,10.199,10.199h55.592
			c5.632,0,10.199-4.567,10.199-10.199C382.146,36.178,377.58,31.61,371.947,31.61z"/>
	</g>
</g>
<g>
	<g>
		<path d="M283.655,31.61h-4.36c-5.632,0-10.199,4.567-10.199,10.199c0,5.632,4.567,10.199,10.199,10.199h4.36
			c5.632,0,10.199-4.567,10.199-10.199C293.855,36.178,289.287,31.61,283.655,31.61z"/>
	</g>
</g>
<g>
</g>
<g>
</g>
<g>
</g>
<g>
</g>
<g>
</g>
<g>
</g>
<g>
</g>
<g>
</g>
<g>
</g>
<g>
</g>
<g>
</g>
<g>
</g>
<g>
</g>
<g>
</g>
<g>
</g>
</svg>
