<?xml version="1.0" encoding="iso-8859-1"?>
<!-- Generator: Adobe Illustrator 19.0.0, SVG Export Plug-In . SVG Version: 6.00 Build 0)  -->
<svg version="1.1" id="Layer_1" xmlns="http://www.w3.org/2000/svg" xmlns:xlink="http://www.w3.org/1999/xlink" x="0px" y="0px"
	 viewBox="0 0 512 512" style="enable-background:new 0 0 512 512;" xml:space="preserve">
<g>
	<g>
		<path d="M437.02,197.882C388.667,149.528,324.38,122.9,256,122.9s-132.667,26.628-181.02,74.982C26.628,246.233,0,310.52,0,378.9
			c0,5.632,4.566,10.199,10.199,10.199h491.602c5.633,0,10.199-4.567,10.199-10.199C512,310.52,485.372,246.233,437.02,197.882z
			 M278.438,368.701h-44.876v-95.363h44.876V368.701z M298.837,368.701V263.139c0-5.632-4.566-10.199-10.199-10.199h-65.275
			c-5.633,0-10.199,4.567-10.199,10.199v105.562H53.412C59.726,261.498,148.548,175.936,256,175.936s196.273,85.562,202.588,192.765
			H298.837z M479.024,368.701c-2.953-55.94-26.079-108.099-65.753-147.809c-42.106-42.144-97.96-65.354-157.271-65.354
			s-115.164,23.21-157.271,65.354c-39.674,39.71-62.801,91.869-65.753,147.809h-12.36C25.975,243.503,129.506,143.299,256,143.299
			s230.025,100.204,235.384,225.402H479.024z"/>
	</g>
</g>
<g>
	<g>
		<path d="M182.056,268.749h-65.275c-5.633,0-10.199,4.567-10.199,10.199v38.757c0,5.632,4.566,10.199,10.199,10.199h65.275
			c5.633,0,10.199-4.567,10.199-10.199v-38.757C192.255,273.316,187.689,268.749,182.056,268.749z M171.857,307.506H126.98v-18.359
			h44.876V307.506z"/>
	</g>
</g>
<g>
	<g>
		<path d="M395.219,268.749h-65.275c-5.633,0-10.199,4.567-10.199,10.199v38.757c0,5.632,4.566,10.199,10.199,10.199h65.275
			c5.633,0,10.199-4.567,10.199-10.199v-38.757C405.418,273.316,400.852,268.749,395.219,268.749z M385.02,307.506h-44.877v-18.359
			h44.877V307.506z"/>
	</g>
</g>
<g>
	<g>
		<path d="M157.068,338.614H78.534c-5.633,0-10.199,4.567-10.199,10.199c0,5.632,4.566,10.199,10.199,10.199h78.534
			c5.633,0,10.199-4.567,10.199-10.199C167.267,343.181,162.701,338.614,157.068,338.614z"/>
	</g>
</g>
<g>
	<g>
		<path d="M191.745,338.614h-4.08c-5.633,0-10.199,4.567-10.199,10.199c0,5.632,4.566,10.199,10.199,10.199h4.08
			c5.633,0,10.199-4.567,10.199-10.199C201.944,343.181,197.378,338.614,191.745,338.614z"/>
	</g>
</g>
<g>
</g>
<g>
</g>
<g>
</g>
<g>
</g>
<g>
</g>
<g>
</g>
<g>
</g>
<g>
</g>
<g>
</g>
<g>
</g>
<g>
</g>
<g>
</g>
<g>
</g>
<g>
</g>
<g>
</g>
</svg>
