<?xml version="1.0" encoding="iso-8859-1"?>
<!-- Generator: Adobe Illustrator 19.0.0, SVG Export Plug-In . SVG Version: 6.00 Build 0)  -->
<svg version="1.1" id="Layer_1" xmlns="http://www.w3.org/2000/svg" xmlns:xlink="http://www.w3.org/1999/xlink" x="0px" y="0px"
	 viewBox="0 0 512 512" style="enable-background:new 0 0 512 512;" xml:space="preserve">
<g>
	<g>
		<path d="M473.107,438.785h-1.904c-5.633,0-10.199,4.566-10.199,10.199c0,5.633,4.566,10.199,10.199,10.199h1.904
			c5.633,0,10.199-4.566,10.199-10.199C483.306,443.351,478.74,438.785,473.107,438.785z"/>
	</g>
</g>
<g>
	<g>
		<path d="M473.107,47.738h-43.232c-3.466-13.15-14.613-23.205-28.332-25.072V10.199C401.542,4.566,396.976,0,391.343,0h-36.565
			c-5.633,0-10.199,4.566-10.199,10.199v12.467c-7.451,1.014-14.141,4.439-19.256,9.469c-5.115-5.03-11.807-8.455-19.256-9.469
			V10.199C306.066,4.566,301.5,0,295.867,0h-36.566c-5.633,0-10.199,4.566-10.199,10.199v12.467
			c-7.45,1.014-14.141,4.439-19.256,9.469c-5.115-5.03-11.807-8.455-19.256-9.469V10.199C210.59,4.566,206.023,0,200.39,0h-36.565
			c-5.633,0-10.199,4.566-10.199,10.199v12.467c-7.451,1.014-14.141,4.439-19.256,9.469c-5.115-5.03-11.807-8.455-19.256-9.469
			V10.199C115.114,4.566,110.548,0,104.915,0H68.348c-5.633,0-10.199,4.566-10.199,10.199v12.467
			c-16.61,2.259-29.455,16.527-29.455,33.747v399.172c0,17.22,12.845,31.488,29.455,33.747v12.467
			c0,5.633,4.566,10.199,10.199,10.199h36.565c5.633,0,10.199-4.566,10.199-10.199v-12.467c7.449-1.014,14.141-4.439,19.256-9.469
			c5.115,5.03,11.807,8.455,19.256,9.469v12.467c0,5.633,4.566,10.199,10.199,10.199h36.565c5.633,0,10.199-4.566,10.199-10.199
			v-12.467c7.451-1.014,14.141-4.439,19.256-9.469c5.115,5.03,11.806,8.455,19.256,9.469v12.467c0,5.633,4.566,10.199,10.199,10.199
			h36.566c5.633,0,10.199-4.566,10.199-10.199v-12.467c7.45-1.014,14.141-4.439,19.256-9.469c5.115,5.03,11.807,8.455,19.256,9.469
			v12.467c0,5.633,4.566,10.199,10.199,10.199h36.565c5.633,0,10.199-4.566,10.199-10.199v-12.467
			c15.438-2.1,27.621-14.573,29.265-30.15h8.779c5.633,0,10.199-4.566,10.199-10.199c0-5.633-4.566-10.199-10.199-10.199h-8.588
			V68.137h42.109c5.633,0,10.199-4.566,10.199-10.199C483.306,52.305,478.74,47.738,473.107,47.738z M58.148,468.438
			c-5.271-1.899-9.057-6.935-9.057-12.852V56.414c0-5.917,3.786-10.953,9.057-12.852V468.438z M94.714,491.602H78.548V20.398h16.167
			V491.602z M124.17,455.586c0,5.917-3.786,10.953-9.057,12.852V43.562c5.271,1.898,9.057,6.934,9.057,12.852V455.586z
			 M153.625,468.437c-5.271-1.898-9.057-6.934-9.057-12.851V56.414c0-5.917,3.786-10.953,9.057-12.852V468.437z M190.19,491.602
			h-16.167V20.398h16.167V491.602z M219.645,455.586c0,5.917-3.786,10.953-9.057,12.852V43.562
			c5.271,1.898,9.057,6.934,9.057,12.852V455.586z M249.101,468.437c-5.271-1.898-9.057-6.934-9.057-12.851V56.414
			c0-5.917,3.786-10.953,9.057-12.852V468.437z M285.667,491.602h-16.168V20.398h16.168V491.602z M315.122,455.586
			c0,5.917-3.786,10.953-9.057,12.852V43.562c5.271,1.898,9.057,6.934,9.057,12.852V455.586z M344.578,468.437
			c-5.271-1.898-9.057-6.934-9.057-12.851V56.414c0-5.917,3.786-10.953,9.057-12.852V468.437z M381.143,491.602h-16.167V20.398
			h16.167V491.602z M410.599,455.586c0,5.917-3.786,10.953-9.057,12.852V43.562c5.271,1.898,9.057,6.934,9.057,12.852V455.586z"/>
	</g>
</g>
<g>
</g>
<g>
</g>
<g>
</g>
<g>
</g>
<g>
</g>
<g>
</g>
<g>
</g>
<g>
</g>
<g>
</g>
<g>
</g>
<g>
</g>
<g>
</g>
<g>
</g>
<g>
</g>
<g>
</g>
</svg>
