<?xml version="1.0" encoding="iso-8859-1"?>
<!-- Generator: Adobe Illustrator 19.0.0, SVG Export Plug-In . SVG Version: 6.00 Build 0)  -->
<svg version="1.1" id="Layer_1" xmlns="http://www.w3.org/2000/svg" xmlns:xlink="http://www.w3.org/1999/xlink" x="0px" y="0px"
	 viewBox="0 0 512 512" style="enable-background:new 0 0 512 512;" xml:space="preserve">
<g>
	<g>
		<path d="M484.004,260.417c-1.936-4.087-6.333-6.412-10.799-5.707l-4.314,0.678c-16.639-31.963-40.397-56.616-72.309-75.051
			l0.787-5.012c0.673-4.288-1.44-8.533-5.269-10.579c-22.071-11.793-47.206-21.009-76.631-28.081v-9.862
			c0-17.699-14.398-32.097-32.097-32.097h-54.745c-17.699,0-32.097,14.398-32.097,32.097v9.862
			c-29.425,7.073-54.56,16.289-76.631,28.081c-3.829,2.046-5.942,6.291-5.269,10.579l0.842,5.366
			c-31.782,18.365-55.444,42.918-72.021,74.751l-4.659-0.732c-4.464-0.705-8.862,1.623-10.799,5.707
			C9.158,300.158,0,348.137,0,407.094c0,5.632,4.567,10.199,10.199,10.199h491.602c5.632,0,10.199-4.567,10.199-10.199
			C512,348.137,502.842,300.158,484.004,260.417z M393.16,202.122c23.08,14.685,41.005,33.363,54.324,56.629l-64.82,10.183
			L393.16,202.122z M118.897,202.48l10.44,66.455l-64.473-10.129C78.119,235.67,95.947,217.091,118.897,202.48z M20.5,396.895
			c0.13-6.469,0.399-12.801,0.78-19.017h396.762c5.632,0,10.199-4.567,10.199-10.199c0-5.632-4.567-10.199-10.199-10.199H23.037
			c3.429-30.745,10.192-57.999,20.268-81.411l96.698,15.191c3.221,0.505,6.49-0.559,8.795-2.864c2.305-2.306,3.37-5.574,2.864-8.795
			l-15.734-100.161c17.759-8.804,37.742-15.972,60.605-21.756v33.72c0,5.632,4.567,10.199,10.199,10.199s10.199-4.567,10.199-10.199
			v-64.599c0-6.45,5.248-11.698,11.698-11.698h54.745c6.45,0,11.698,5.249,11.698,11.698v64.599h-0.001
			c0,5.632,4.567,10.199,10.199,10.199s10.199-4.567,10.199-10.199v-33.72c22.862,5.784,42.846,12.951,60.605,21.756L360.34,279.6
			c-0.506,3.221,0.559,6.489,2.864,8.795c2.306,2.305,5.572,3.37,8.795,2.864l96.698-15.191
			c14.193,32.981,21.85,73.545,22.804,120.827H20.5z"/>
	</g>
</g>
<g>
	<g>
		<path d="M457.458,357.479h-5.474c-5.632,0-10.199,4.567-10.199,10.199s4.567,10.199,10.199,10.199h5.474
			c5.632,0,10.199-4.567,10.199-10.199S463.091,357.479,457.458,357.479z"/>
	</g>
</g>
<g>
</g>
<g>
</g>
<g>
</g>
<g>
</g>
<g>
</g>
<g>
</g>
<g>
</g>
<g>
</g>
<g>
</g>
<g>
</g>
<g>
</g>
<g>
</g>
<g>
</g>
<g>
</g>
<g>
</g>
</svg>
