<?xml version="1.0" encoding="iso-8859-1"?>
<!-- Generator: Adobe Illustrator 19.0.0, SVG Export Plug-In . SVG Version: 6.00 Build 0)  -->
<svg version="1.1" id="Layer_1" xmlns="http://www.w3.org/2000/svg" xmlns:xlink="http://www.w3.org/1999/xlink" x="0px" y="0px"
	 viewBox="0 0 511.999 511.999" style="enable-background:new 0 0 511.999 511.999;" xml:space="preserve">
<g>
	<g>
		<path d="M506.669,414.759L285.363,60.549c-6.368-10.193-17.346-16.278-29.364-16.278c-12.018,0-22.995,6.085-29.364,16.278
			L5.33,414.758c-6.766,10.83-7.11,23.964-0.919,35.133c6.191,11.169,17.512,17.837,30.283,17.837h442.611
			c12.771,0,24.091-6.667,30.282-17.837C513.779,438.723,513.436,425.589,506.669,414.759z M489.749,440.004
			c-2.544,4.59-7.196,7.33-12.444,7.33H34.695c-5.248,0-9.9-2.741-12.445-7.33c-2.544-4.59-2.404-9.987,0.377-14.437l221.304-354.21
			c2.657-4.252,7.055-6.69,12.067-6.69c5.012,0,9.412,2.438,12.067,6.69l221.306,354.21
			C492.151,430.017,492.293,435.413,489.749,440.004z"/>
	</g>
</g>
<g>
	<g>
		<path d="M319.089,273.155c-1.757-3.366-5.241-5.477-9.039-5.477h-33.061l22.52-81.361c0.849-3.071,0.216-6.362-1.712-8.896
			c-1.93-2.535-4.932-4.023-8.117-4.023h-54.706c-4.585,0-8.606,3.059-9.829,7.477l-36.082,130.363
			c-0.849,3.071-0.216,6.362,1.712,8.896c1.928,2.535,4.93,4.023,8.116,4.023h33.061l-22.52,81.362
			c-1.326,4.791,0.994,9.838,5.493,11.951c1.394,0.655,2.871,0.969,4.331,0.969c3.25,0,6.414-1.557,8.374-4.372l90.789-130.363
			C320.589,280.586,320.847,276.522,319.089,273.155z M245.017,353.409l10.166-36.731c0.849-3.071,0.216-6.362-1.712-8.896
			c-1.928-2.535-4.93-4.023-8.116-4.023h-33.061l30.437-109.966h33.544l-22.52,81.361c-0.849,3.071-0.216,6.361,1.712,8.896
			c1.928,2.535,4.931,4.023,8.116,4.023h26.935L245.017,353.409z"/>
	</g>
</g>
<g>
	<g>
		<path d="M457.919,416.108h-74.445c-5.631,0-10.198,4.567-10.198,10.198c0,5.631,4.567,10.198,10.198,10.198h74.445
			c5.632,0,10.198-4.567,10.198-10.198C468.117,420.674,463.55,416.108,457.919,416.108z"/>
	</g>
</g>
<g>
	<g>
		<path d="M353.9,416.108h-8.158c-5.631,0-10.198,4.567-10.198,10.198c0,5.631,4.567,10.198,10.198,10.198h8.158
			c5.632,0,10.198-4.567,10.198-10.198C364.097,420.674,359.531,416.108,353.9,416.108z"/>
	</g>
</g>
<g>
</g>
<g>
</g>
<g>
</g>
<g>
</g>
<g>
</g>
<g>
</g>
<g>
</g>
<g>
</g>
<g>
</g>
<g>
</g>
<g>
</g>
<g>
</g>
<g>
</g>
<g>
</g>
<g>
</g>
</svg>
