<?xml version="1.0" encoding="iso-8859-1"?>
<!-- Generator: Adobe Illustrator 19.0.0, SVG Export Plug-In . SVG Version: 6.00 Build 0)  -->
<svg version="1.1" id="Layer_1" xmlns="http://www.w3.org/2000/svg" xmlns:xlink="http://www.w3.org/1999/xlink" x="0px" y="0px"
	 viewBox="0 0 512.001 512.001" style="enable-background:new 0 0 512.001 512.001;" xml:space="preserve">
<g>
	<g>
		<path d="M508.479,242.145l-245.8-212.942c-3.833-3.321-9.524-3.321-13.357,0L3.522,242.145c-3.219,2.789-4.366,7.283-2.878,11.273
			c1.488,3.99,5.298,6.636,9.557,6.636h61.794v215.035c0,5.632,4.566,10.199,10.199,10.199h347.614
			c5.633,0,10.199-4.566,10.2-10.199V260.054h61.794c4.259,0,8.069-2.646,9.557-6.636
			C512.845,249.428,511.698,244.933,508.479,242.145z M429.807,239.655c-5.633,0-10.199,4.567-10.199,10.199V464.89H92.392V249.854
			c0-5.632-4.566-10.199-10.199-10.199H37.549L256,50.407l218.45,189.248H429.807z"/>
	</g>
</g>
<g>
	<g>
		<path d="M414.607,208.833l-66.701-58.638c-4.231-3.72-10.675-3.304-14.394,0.926s-3.305,10.675,0.926,14.394l66.701,58.638
			c1.938,1.703,4.339,2.539,6.73,2.539c2.831,0,5.648-1.172,7.664-3.465C419.252,218.998,418.838,212.552,414.607,208.833z"/>
	</g>
</g>
<g>
	<g>
		<path d="M324.306,129.449l-3.08-2.708c-4.231-3.722-10.675-3.305-14.394,0.925c-3.72,4.23-3.305,10.674,0.925,14.393l3.08,2.708
			c1.938,1.704,4.339,2.54,6.73,2.54c2.831,0,5.648-1.172,7.664-3.465C328.951,139.612,328.536,133.168,324.306,129.449z"/>
	</g>
</g>
<g>
	<g>
		<path d="M376.424,377.118L270.061,270.756c4.891-21.644-1.52-44.197-17.447-60.124c-12.26-12.26-28.562-19.013-45.9-19.013
			c-17.339,0-33.64,6.753-45.9,19.013c-25.309,25.31-25.309,66.493,0,91.802c15.93,15.929,38.481,22.342,60.124,17.446l7.082,7.082
			c2.025,2.023,4.832,3.101,7.686,2.976l0.756,3.274c0.429,1.862,1.374,3.567,2.725,4.918l9.971,9.971
			c1.912,1.912,4.507,2.987,7.212,2.987h2.963v2.962c0,2.705,1.075,5.299,2.987,7.212l7.777,7.778
			c1.912,1.912,4.507,2.987,7.212,2.987h12.935v12.935c0,2.705,1.075,5.298,2.987,7.212l15.954,15.955
			c1.912,1.912,4.507,2.987,7.212,2.987h5.888v5.887c0,2.705,1.075,5.298,2.987,7.212l14.426,14.426
			c1.912,1.912,4.507,2.987,7.212,2.987s5.299-1.075,7.213-2.987l22.303-22.303c1.912-1.913,2.987-4.507,2.987-7.212V384.33
			C379.411,381.625,378.336,379.031,376.424,377.118z M359.012,404.901l-12.103,12.102l-4.227-4.227h0.001v-11.862
			c0-5.632-4.566-10.199-10.199-10.199h-11.863l-9.979-9.979v-18.909c0-5.632-4.566-10.199-10.199-10.199h-18.908l-1.803-1.803
			v-8.938c0-5.632-4.566-10.199-10.199-10.199h-8.938l-4.915-4.915l-3.531-15.299c-0.834-3.613-3.563-6.488-7.126-7.51
			c-3.461-0.994-7.176-0.088-9.788,2.363l-4.074-4.073c-2.726-2.726-6.755-3.682-10.416-2.47
			c-16.095,5.328-33.532,1.197-45.508-10.777c-17.356-17.357-17.356-45.596,0-62.953c8.407-8.408,19.587-13.039,31.477-13.039
			c11.889,0,23.068,4.63,31.476,13.039c11.975,11.975,16.106,29.413,10.777,45.508c-1.212,3.661-0.256,7.691,2.47,10.417
			l107.575,107.576V404.901z"/>
	</g>
</g>
<g>
	<g>
		<path d="M208.648,243.689l-5.61-5.61c-3.984-3.982-10.442-3.982-14.425,0c-3.983,3.984-3.983,10.442,0,14.425l5.61,5.61
			c1.991,1.991,4.602,2.987,7.212,2.987s5.22-0.996,7.213-2.987C212.63,254.13,212.63,247.672,208.648,243.689z"/>
	</g>
</g>
<g>
</g>
<g>
</g>
<g>
</g>
<g>
</g>
<g>
</g>
<g>
</g>
<g>
</g>
<g>
</g>
<g>
</g>
<g>
</g>
<g>
</g>
<g>
</g>
<g>
</g>
<g>
</g>
<g>
</g>
</svg>
