<?xml version="1.0" encoding="iso-8859-1"?>
<!-- Generator: Adobe Illustrator 19.0.0, SVG Export Plug-In . SVG Version: 6.00 Build 0)  -->
<svg version="1.1" id="Layer_1" xmlns="http://www.w3.org/2000/svg" xmlns:xlink="http://www.w3.org/1999/xlink" x="0px" y="0px"
	 viewBox="0 0 512.001 512.001" style="enable-background:new 0 0 512.001 512.001;" xml:space="preserve">
<g>
	<g>
		<path d="M508.479,242.144l-245.8-212.942c-3.833-3.32-9.524-3.32-13.357,0L3.522,242.144c-3.219,2.788-4.366,7.283-2.878,11.273
			c1.488,3.99,5.297,6.636,9.557,6.636h61.794v215.036c0,5.632,4.566,10.199,10.199,10.199h347.615
			c5.632,0,10.199-4.567,10.199-10.199V260.053h61.794c4.258,0,8.069-2.646,9.557-6.636
			C512.845,249.428,511.698,244.934,508.479,242.144z M256.001,265.885c-5.633,0-10.199,4.567-10.199,10.199v27.15l-4.034-4.034
			c-3.983-3.981-10.441-3.982-14.424,0c-3.983,3.983-3.984,10.441,0,14.425l18.457,18.458v22.006l-14.449-14.449
			c-3.983-3.982-10.441-3.982-14.425,0c-3.983,3.983-3.983,10.441,0,14.425l28.874,28.874v9.511
			c-11.807-2.021-23.123-7.564-32.217-16.659c-21.134-21.133-8.831-60.494,2.259-88.263c8.068-20.201,28.182-68.057,40.157-96.445
			c11.974,28.387,32.09,76.244,40.157,96.445c11.091,27.77,23.392,67.131,2.26,88.263c-9.096,9.096-20.412,14.638-32.218,16.659
			v-9.511h0l28.874-28.874c3.983-3.983,3.983-10.441,0-14.425c-3.984-3.982-10.44-3.982-14.425,0l-14.449,14.449v-22.006
			l18.457-18.458c3.983-3.983,3.983-10.441,0-14.425c-3.984-3.982-10.442-3.982-14.425,0l-4.033,4.033v-27.149
			C266.201,270.452,261.633,265.885,256.001,265.885z M429.809,239.655c-5.632,0-10.199,4.567-10.199,10.199v215.036H266.201
			v-51.832c17.065-2.165,33.565-9.765,46.642-22.842c33.081-33.081,10.689-89.146,2.26-110.253
			c-11.846-29.66-49.332-118.17-49.71-119.06c-1.597-3.771-5.295-6.222-9.391-6.222c-4.096,0-7.794,2.45-9.391,6.222
			c-0.377,0.89-37.863,89.4-49.709,119.06c-8.431,21.105-30.823,77.169,2.259,110.253c13.076,13.076,29.578,20.677,46.642,22.842
			v51.832H92.393V249.854c0-5.632-4.566-10.199-10.199-10.199H37.55L256.001,50.406l218.451,189.249H429.809z"/>
	</g>
</g>
<g>
	<g>
		<path d="M414.609,208.833l-66.701-58.638c-4.23-3.719-10.675-3.303-14.394,0.926c-3.719,4.23-3.306,10.674,0.925,14.394
			l66.701,58.638c1.937,1.703,4.339,2.539,6.73,2.539c2.83,0,5.648-1.172,7.665-3.465
			C419.254,218.997,418.839,212.551,414.609,208.833z"/>
	</g>
</g>
<g>
	<g>
		<path d="M324.309,129.448l-3.081-2.708c-4.23-3.719-10.675-3.304-14.394,0.926c-3.721,4.231-3.306,10.674,0.925,14.394
			l3.081,2.708c1.937,1.703,4.339,2.539,6.73,2.539c2.83,0,5.648-1.172,7.665-3.465
			C328.954,139.611,328.539,133.166,324.309,129.448z"/>
	</g>
</g>
<g>
</g>
<g>
</g>
<g>
</g>
<g>
</g>
<g>
</g>
<g>
</g>
<g>
</g>
<g>
</g>
<g>
</g>
<g>
</g>
<g>
</g>
<g>
</g>
<g>
</g>
<g>
</g>
<g>
</g>
</svg>
