<?xml version="1.0" encoding="iso-8859-1"?>
<!-- Generator: Adobe Illustrator 19.0.0, SVG Export Plug-In . SVG Version: 6.00 Build 0)  -->
<svg version="1.1" id="Layer_1" xmlns="http://www.w3.org/2000/svg" xmlns:xlink="http://www.w3.org/1999/xlink" x="0px" y="0px"
	 viewBox="0 0 512 512" style="enable-background:new 0 0 512 512;" xml:space="preserve">
<g>
	<g>
		<path d="M335.074,1.538c-97.558,0-176.926,79.37-176.926,176.926c0,33.473,9.346,64.805,25.562,91.523L7.112,446.585
			c-9.482,9.483-9.482,24.911,0,34.394l22.372,22.372c4.742,4.741,10.969,7.111,17.197,7.111c6.228,0,12.456-2.37,17.196-7.111
			l175.885-175.886c27.527,17.669,60.244,27.926,95.312,27.926c97.558,0,176.926-79.37,176.926-176.926S432.631,1.538,335.074,1.538
			z M48.938,488.412c-0.772,0.773-1.654,0.936-2.258,0.936s-1.486-0.162-2.258-0.936L22.049,466.04
			c-0.773-0.772-0.936-1.654-0.936-2.258s0.163-1.486,0.935-2.259l173.854-173.854l0.306,0.306
			c7.792,9.858,16.606,18.874,26.286,26.878L48.938,488.412z M335.074,334.265c-85.909,0-155.801-69.892-155.801-155.801
			S249.165,22.663,335.074,22.663s155.801,69.892,155.801,155.801S420.983,334.265,335.074,334.265z"/>
	</g>
</g>
<g>
	<g>
		<path d="M450.258,156.206L346.637,66.438c-3.969-3.439-9.864-3.439-13.833,0l-103.622,89.769
			c-3.334,2.888-4.522,7.543-2.981,11.675s5.486,6.872,9.897,6.872h19.787v84.39c0,5.833,4.729,10.563,10.563,10.563h146.543
			c5.834,0,10.563-4.73,10.563-10.563v-84.39h19.787c4.41,0,8.356-2.74,9.897-6.872S453.592,159.094,450.258,156.206z
			 M412.992,153.628c-5.834,0-10.563,4.73-10.563,10.563v84.39H277.011v-84.39c0-5.833-4.729-10.563-10.563-10.563h-2.025
			l75.297-65.231l75.298,65.231H412.992z"/>
	</g>
</g>
<g>
	<g>
		<path d="M346.164,217.018h-47.532c-5.834,0-10.563,4.73-10.563,10.563s4.729,10.563,10.563,10.563h47.532
			c5.834,0,10.563-4.73,10.563-10.563S351.998,217.018,346.164,217.018z"/>
	</g>
</g>
<g>
	<g>
		<path d="M379.965,217.018h-2.113c-5.834,0-10.563,4.73-10.563,10.563s4.729,10.563,10.563,10.563h2.113
			c5.834,0,10.563-4.73,10.563-10.563S385.799,217.018,379.965,217.018z"/>
	</g>
</g>
<g>
</g>
<g>
</g>
<g>
</g>
<g>
</g>
<g>
</g>
<g>
</g>
<g>
</g>
<g>
</g>
<g>
</g>
<g>
</g>
<g>
</g>
<g>
</g>
<g>
</g>
<g>
</g>
<g>
</g>
</svg>
