<?xml version="1.0" encoding="iso-8859-1"?>
<!-- Generator: Adobe Illustrator 19.0.0, SVG Export Plug-In . SVG Version: 6.00 Build 0)  -->
<svg version="1.1" id="Layer_1" xmlns="http://www.w3.org/2000/svg" xmlns:xlink="http://www.w3.org/1999/xlink" x="0px" y="0px"
	 viewBox="0 0 512 512" style="enable-background:new 0 0 512 512;" xml:space="preserve">
<g>
	<g>
		<path d="M132.457,67.186c-14.337-14.336-37.663-14.335-51.999,0c-14.335,14.336-14.335,37.662,0,51.998
			c7.168,7.167,16.583,10.752,25.999,10.752c9.416,0,18.831-3.584,26-10.752C146.792,104.848,146.792,81.522,132.457,67.186z
			 M118.032,104.76c-6.383,6.383-16.768,6.382-23.15,0c-6.383-6.383-6.383-16.767,0-23.15c6.382-6.383,16.768-6.384,23.15,0
			C124.415,87.993,124.415,98.377,118.032,104.76z"/>
	</g>
</g>
<g>
	<g>
		<path d="M495.741,393.753L263.349,161.36c12.298-44.289,0.06-91.313-32.688-124.062C206.608,13.246,174.63,0,140.615,0
			C106.6,0,74.621,13.246,50.57,37.297C26.518,61.35,13.272,93.329,13.272,127.343s13.246,65.993,37.297,90.046
			c32.751,32.751,79.772,44.992,124.062,32.688l19.828,19.829c3.984,3.983,10.442,3.983,14.424,0l1.933-1.933l4.828,20.925
			c0.43,1.862,1.375,3.568,2.726,4.919l21.349,21.348c1.912,1.912,4.507,2.987,7.212,2.987h17.981v17.981
			c0,2.705,1.075,5.299,2.987,7.212l16.651,16.652c1.912,1.912,4.507,2.987,7.212,2.987h39.331v39.33c0,2.705,1.075,5.3,2.987,7.212
			l34.157,34.158c1.912,1.912,4.507,2.987,7.212,2.987h24.245v24.244c0,2.705,1.075,5.299,2.987,7.212l30.884,30.884
			c1.992,1.992,4.602,2.987,7.212,2.987c2.61,0,5.22-0.995,7.212-2.987l47.75-47.751c1.912-1.912,2.987-4.506,2.987-7.212v-53.087
			C498.729,398.258,497.654,395.665,495.741,393.753z M478.33,430.139l-212.06-212.06c-3.984-3.982-10.44-3.983-14.425,0
			c-3.983,3.983-3.983,10.441,0,14.425l221.903,221.903l-32.97,32.97l-20.685-20.685v-30.218c0-5.633-4.567-10.199-10.199-10.199
			h-30.218l-28.183-28.183v-45.304c0-5.633-4.567-10.199-10.199-10.199h-45.305l-10.678-10.678v-23.956
			c0-5.633-4.567-10.199-10.199-10.199h-23.956l-16.293-16.293l-8.309-36.004c-0.833-3.613-3.562-6.489-7.126-7.511
			c-3.565-1.022-7.402-0.03-10.024,2.592l-7.733,7.732L184.73,231.33c-2.726-2.726-6.755-3.683-10.417-2.47
			c-38.66,12.795-80.549,2.874-109.319-25.896c-20.198-20.2-31.323-47.055-31.323-75.621s11.124-55.422,31.324-75.622
			c20.198-20.198,47.055-31.323,75.621-31.323c28.566,0,55.421,11.124,75.621,31.324c28.77,28.77,38.693,70.659,25.895,109.32
			c-1.212,3.661-0.256,7.691,2.47,10.417L478.33,405.189V430.139z"/>
	</g>
</g>
<g>
	<g>
		<path d="M244.851,196.661l-3.088-3.089c-3.982-3.983-10.441-3.984-14.424-0.001c-3.984,3.983-3.984,10.441-0.001,14.424
			l3.088,3.088c1.992,1.992,4.602,2.988,7.213,2.988c2.61,0,5.22-0.995,7.211-2.986
			C248.834,207.102,248.834,200.644,244.851,196.661z"/>
	</g>
</g>
<g>
</g>
<g>
</g>
<g>
</g>
<g>
</g>
<g>
</g>
<g>
</g>
<g>
</g>
<g>
</g>
<g>
</g>
<g>
</g>
<g>
</g>
<g>
</g>
<g>
</g>
<g>
</g>
<g>
</g>
</svg>
