<?xml version="1.0" encoding="iso-8859-1"?>
<!-- Generator: Adobe Illustrator 19.0.0, SVG Export Plug-In . SVG Version: 6.00 Build 0)  -->
<svg version="1.1" id="Layer_1" xmlns="http://www.w3.org/2000/svg" xmlns:xlink="http://www.w3.org/1999/xlink" x="0px" y="0px"
	 viewBox="0 0 511.999 511.999" style="enable-background:new 0 0 511.999 511.999;" xml:space="preserve">
<g>
	<g>
		<path d="M476.974,497.705l-148.057-337.71h8.54c5.633,0,10.199-4.567,10.199-10.199c0-5.632-4.566-10.199-10.199-10.199h-17.482
			L300.33,94.788l35.289-80.493c1.382-3.155,1.08-6.793-0.804-9.675S329.721,0,326.278,0h-37.973c-4.049,0-7.715,2.396-9.341,6.103
			l-58.525,133.493h-41.443c-5.633,0-10.199,4.567-10.199,10.199c0,5.632,4.566,10.199,10.199,10.199h32.501l-17.439,39.777h-41.58
			c-5.633,0-10.199,4.567-10.199,10.199s4.566,10.199,10.199,10.199h32.636l-17.439,39.777H124.94
			c-5.633,0-10.199,4.567-10.199,10.199s4.566,10.199,10.199,10.199h33.793l-17.439,39.777H98.422
			c-5.633,0-10.199,4.567-10.199,10.199s4.566,10.199,10.199,10.199h33.929l-17.439,39.777H70.884
			c-5.633,0-10.199,4.567-10.199,10.199s4.566,10.199,10.199,10.199h35.085l-17.439,39.777H44.366
			c-5.633,0-10.199,4.567-10.199,10.199c0,5.632,4.566,10.199,10.199,10.199h35.222l-16.148,36.833
			c-1.382,3.155-1.08,6.793,0.804,9.675c1.884,2.882,5.094,4.619,8.538,4.619h37.974c4.049,0,7.715-2.396,9.341-6.103
			l150.112-342.397L420.32,505.896c1.626,3.708,5.291,6.103,9.341,6.103h37.972c3.443,0,6.654-1.737,8.538-4.619
			C478.054,504.497,478.356,500.859,476.974,497.705z M104.089,491.602H88.389L294.97,20.398h15.701L104.089,491.602z
			 M436.324,491.602L281.343,138.096l7.85-17.906l162.831,371.411H436.324z"/>
	</g>
</g>
<g>
	<g>
		<path d="M366.661,139.596h-1.666c-5.633,0-10.199,4.567-10.199,10.199c0,5.632,4.566,10.199,10.199,10.199h1.666
			c5.633,0,10.199-4.567,10.199-10.199C376.86,144.164,372.294,139.596,366.661,139.596z"/>
	</g>
</g>
<g>
</g>
<g>
</g>
<g>
</g>
<g>
</g>
<g>
</g>
<g>
</g>
<g>
</g>
<g>
</g>
<g>
</g>
<g>
</g>
<g>
</g>
<g>
</g>
<g>
</g>
<g>
</g>
<g>
</g>
</svg>
