<?xml version="1.0" encoding="iso-8859-1"?>
<!-- Generator: Adobe Illustrator 19.0.0, SVG Export Plug-In . SVG Version: 6.00 Build 0)  -->
<svg version="1.1" id="Layer_1" xmlns="http://www.w3.org/2000/svg" xmlns:xlink="http://www.w3.org/1999/xlink" x="0px" y="0px"
	 viewBox="0 0 512 512" style="enable-background:new 0 0 512 512;" xml:space="preserve">
<g>
	<g>
		<path d="M501.801,102.502H10.199C4.567,102.502,0,107.069,0,112.701v286.598c0,5.632,4.567,10.199,10.199,10.199h491.602
			c5.632,0,10.199-4.567,10.199-10.199V112.701C512,107.069,507.433,102.502,501.801,102.502z M75.474,389.1H35.907L75.474,351.1
			V389.1z M128.51,389.1H95.872v-57.589l32.637-31.344V389.1z M181.546,389.1h-32.637v-89.912l32.637,31.344V389.1z M234.582,389.1
			h-32.637v-59.547l32.637-31.343V389.1z M287.618,389.1H254.98V278.62l32.637-31.343V389.1z M340.653,223.361V389.1h-32.637
			V227.686l18.869-18.121l13.797,13.25C340.671,222.997,340.653,223.177,340.653,223.361z M491.602,389.1h-77.514V284.561
			c0-5.632-4.567-10.199-10.199-10.199c-5.632,0-10.199,4.567-10.199,10.199V389.1h-32.637V242.379l2.624,2.52
			c3.948,3.791,10.181,3.791,14.13,0l50.561-48.556v13.761c0,5.632,4.567,10.199,10.199,10.199c5.632,0,10.199-4.567,10.199-10.199
			v-38.757c0-5.632-4.567-10.199-10.199-10.199h-38.757c-5.632,0-10.199,4.567-10.199,10.199s4.567,10.199,10.199,10.199h14.517
			l-43.584,41.857l-36.792-35.334c-3.948-3.791-10.181-3.791-14.13,0L191.235,311.556l-44.951-43.17
			c-3.948-3.791-10.181-3.791-14.13,0L20.398,375.711V122.9h471.203V389.1z"/>
	</g>
</g>
<g>
	<g>
		<path d="M403.888,241.721c-5.632,0-10.199,4.567-10.199,10.199v2.041c0,5.632,4.567,10.199,10.199,10.199
			c5.632,0,10.199-4.567,10.199-10.199v-2.041C414.088,246.288,409.52,241.721,403.888,241.721z"/>
	</g>
</g>
<g>
</g>
<g>
</g>
<g>
</g>
<g>
</g>
<g>
</g>
<g>
</g>
<g>
</g>
<g>
</g>
<g>
</g>
<g>
</g>
<g>
</g>
<g>
</g>
<g>
</g>
<g>
</g>
<g>
</g>
</svg>
