<?xml version="1.0" encoding="iso-8859-1"?>
<!-- Generator: Adobe Illustrator 19.0.0, SVG Export Plug-In . SVG Version: 6.00 Build 0)  -->
<svg version="1.1" id="Layer_1" xmlns="http://www.w3.org/2000/svg" xmlns:xlink="http://www.w3.org/1999/xlink" x="0px" y="0px"
	 viewBox="0 0 512 512" style="enable-background:new 0 0 512 512;" xml:space="preserve">
<g>
	<g>
		<path d="M433.459,88.415H326.675v-4.981c0-5.632-4.567-10.199-10.199-10.199h-27.475V61.797h42.345
			c4.346,0,8.213-2.753,9.636-6.859c1.424-4.106,0.089-8.662-3.325-11.352L285.113,2.188c-3.068-2.418-7.25-2.87-10.764-1.166
			c-3.515,1.706-5.747,5.269-5.747,9.176v63.036H78.542c-5.632,0-10.199,4.567-10.199,10.199v129.873
			c0,5.632,4.567,10.199,10.199,10.199h82v278.295c0,5.632,4.567,10.199,10.199,10.199h53.536c5.632,0,10.199-4.567,10.199-10.199
			V223.506h82c5.632,0,10.199-4.567,10.199-10.199v-4.981h106.785c5.632,0,10.199-4.567,10.199-10.199V98.615
			C443.658,92.982,439.091,88.415,433.459,88.415z M289.001,31.22l12.919,10.179h-12.919V31.22z M214.078,491.602h-33.137V223.506
			h33.137V491.602z M306.278,203.107h-0.001H88.741V93.633h179.863v15.706c0,5.632,4.567,10.199,10.199,10.199
			s10.199-4.567,10.199-10.199V93.633h17.275V203.107z M326.675,108.814h74.084l-74.084,42.431V108.814z M326.675,187.927v-13.176
			l9.557-5.473l49.554,18.649H326.675z M423.262,180.235l-64.064-24.11l64.064-36.692V180.235z"/>
	</g>
</g>
<g>
	<g>
		<path d="M212.144,174.274h-3.06c-5.632,0-10.199,4.567-10.199,10.199c0,5.632,4.567,10.199,10.199,10.199h3.06
			c5.632,0,10.199-4.567,10.199-10.199C222.343,178.841,217.776,174.274,212.144,174.274z"/>
	</g>
</g>
<g>
	<g>
		<path d="M177.467,174.274h-69.355c-5.632,0-10.199,4.567-10.199,10.199c0,5.632,4.567,10.199,10.199,10.199h69.355
			c5.632,0,10.199-4.567,10.199-10.199C187.666,178.841,183.099,174.274,177.467,174.274z"/>
	</g>
</g>
<g>
</g>
<g>
</g>
<g>
</g>
<g>
</g>
<g>
</g>
<g>
</g>
<g>
</g>
<g>
</g>
<g>
</g>
<g>
</g>
<g>
</g>
<g>
</g>
<g>
</g>
<g>
</g>
<g>
</g>
</svg>
