<?xml version="1.0" encoding="iso-8859-1"?>
<!-- Generator: Adobe Illustrator 19.0.0, SVG Export Plug-In . SVG Version: 6.00 Build 0)  -->
<svg version="1.1" id="Layer_1" xmlns="http://www.w3.org/2000/svg" xmlns:xlink="http://www.w3.org/1999/xlink" x="0px" y="0px"
	 viewBox="0 0 512 512" style="enable-background:new 0 0 512 512;" xml:space="preserve">
<g>
	<g>
		<path d="M511.542,167.408L471.24,37.396c-1.324-4.269-5.272-7.179-9.742-7.179H50.502c-4.469,0-8.418,2.911-9.742,7.179
			L0.457,167.408c-0.959,3.095-0.391,6.462,1.531,9.071c1.923,2.609,4.97,4.148,8.21,4.148h10.115v290.957
			c0,5.632,4.566,10.199,10.199,10.199h450.975c5.633,0,10.199-4.567,10.199-10.199V180.627h10.115c3.24,0,6.288-1.54,8.21-4.148
			C511.934,173.87,512.502,170.504,511.542,167.408z M24.039,160.228L58.019,50.616H234.87l-64.865,76.658
			c-1.558,1.841-2.413,4.176-2.413,6.588v26.367H24.039z M303.188,461.385h-94.376v-0.001v-75.585h7.576
			c5.633,0,10.199-4.567,10.199-10.199s-4.566-10.199-10.199-10.199h-7.576v-75.077h94.376V461.385z M471.288,461.384H323.587
			V280.123c0-5.632-4.566-10.199-10.199-10.199H198.612c-5.633,0-10.199,4.567-10.199,10.199v181.261h-147.7V180.627h137.077
			c5.633,0,10.199-4.567,10.199-10.199v-32.83L256,57.223l68.01,80.376v32.829c0,5.632,4.566,10.199,10.199,10.199h36.022h101.057
			V461.384z M344.409,160.228v-26.367c0-2.412-0.855-4.747-2.413-6.588l-64.865-76.658h176.851l33.98,109.613H344.409z"/>
	</g>
</g>
<g>
	<g>
		<path d="M254.984,112.489c-21.306,0-38.639,17.334-38.639,38.64c0,21.306,17.333,38.64,38.639,38.64
			c21.305,0,38.64-17.334,38.64-38.64C293.624,129.823,276.29,112.489,254.984,112.489z M254.984,169.37
			c-10.057,0-18.24-8.183-18.24-18.241c0-10.058,8.183-18.241,18.24-18.241c10.058,0,18.241,8.183,18.241,18.241
			C273.226,161.187,265.043,169.37,254.984,169.37z"/>
	</g>
</g>
<g>
	<g>
		<path d="M430.702,282.113h-65.679c-5.633,0-10.199,4.566-10.199,10.199v102.586c0,5.632,4.566,10.199,10.199,10.199h65.679
			c5.633,0,10.199-4.567,10.199-10.199V292.312C440.901,286.68,436.335,282.113,430.702,282.113z M420.503,384.699h-45.28v-82.187
			h45.28V384.699z"/>
	</g>
</g>
<g>
	<g>
		<path d="M146.978,282.113H81.299c-5.633,0-10.199,4.567-10.199,10.199v102.586c0,5.632,4.566,10.199,10.199,10.199h65.679
			c5.633,0,10.199-4.567,10.199-10.199V292.312C157.177,286.679,152.61,282.113,146.978,282.113z M136.779,384.699h-45.28v-82.187
			h45.28V384.699z"/>
	</g>
</g>
<g>
	<g>
		<path d="M169.665,193.746h-5.078c-5.633,0-10.199,4.567-10.199,10.199s4.566,10.199,10.199,10.199h5.078
			c5.633,0,10.199-4.567,10.199-10.199S175.298,193.746,169.665,193.746z"/>
	</g>
</g>
<g>
	<g>
		<path d="M128.022,193.746H65.048c-5.633,0-10.199,4.567-10.199,10.199s4.566,10.199,10.199,10.199h62.974
			c5.633,0,10.199-4.567,10.199-10.199S133.655,193.746,128.022,193.746z"/>
	</g>
</g>
<g>
</g>
<g>
</g>
<g>
</g>
<g>
</g>
<g>
</g>
<g>
</g>
<g>
</g>
<g>
</g>
<g>
</g>
<g>
</g>
<g>
</g>
<g>
</g>
<g>
</g>
<g>
</g>
<g>
</g>
</svg>
