<?xml version="1.0" encoding="iso-8859-1"?>
<!-- Generator: Adobe Illustrator 19.0.0, SVG Export Plug-In . SVG Version: 6.00 Build 0)  -->
<svg version="1.1" id="Layer_1" xmlns="http://www.w3.org/2000/svg" xmlns:xlink="http://www.w3.org/1999/xlink" x="0px" y="0px"
	 viewBox="0 0 512 512" style="enable-background:new 0 0 512 512;" xml:space="preserve">
<g>
	<g>
		<path d="M354.648,72.487h-38.472v-3.754c0-21.37-17.387-38.757-38.757-38.757h-70.635c-5.633,0-10.199,4.567-10.199,10.199v32.312
			h-62.667C60.075,72.487,0,132.563,0,206.404v220.731c0,30.266,24.624,54.889,54.89,54.889h220.73
			c73.842,0,133.918-60.074,133.918-133.917V127.376C409.538,97.111,384.914,72.487,354.648,72.487z M216.983,50.375h60.435
			c10.123,0,18.359,8.236,18.359,18.359v3.754h-78.794V50.375z M389.139,348.107c0,62.594-50.925,113.518-113.519,113.518H54.89
			c-19.018,0-34.492-15.472-34.492-34.491V206.404c0-62.594,50.925-113.518,113.519-113.518c0,0,220.73,0,220.73,0
			c19.018,0,34.492,15.473,34.492,34.491V348.107z"/>
	</g>
</g>
<g>
	<g>
		<path d="M501.801,100.828c-5.632,0-10.199,4.567-10.199,10.199v35.582h-12.691c-5.632,0-10.199,4.567-10.199,10.199
			c0,5.632,4.567,10.199,10.199,10.199h22.89c5.632,0,10.199-4.567,10.199-10.199v-45.781
			C512,105.395,507.433,100.828,501.801,100.828z"/>
	</g>
</g>
<g>
	<g>
		<path d="M442.939,146.609h-5.45c-5.632,0-10.199,4.567-10.199,10.199c0,5.632,4.567,10.199,10.199,10.199h5.45
			c5.632,0,10.199-4.567,10.199-10.199C453.138,151.176,448.572,146.609,442.939,146.609z"/>
	</g>
</g>
<g>
	<g>
		<path d="M205.314,128.078c-81.956,0-148.632,66.676-148.632,148.632s66.676,148.632,148.632,148.632
			s148.632-66.676,148.632-148.632S287.27,128.078,205.314,128.078z M205.314,404.945c-70.709,0-128.234-57.526-128.234-128.234
			s57.526-128.234,128.234-128.234s128.234,57.526,128.234,128.234S276.022,404.945,205.314,404.945z"/>
	</g>
</g>
<g>
	<g>
		<path d="M203.741,260.523h-17.268l2.717-37.64h44.818c4.268,0,6.402-4.462,6.402-9.118c0-4.462-2.134-9.119-6.402-9.119h-57.625
			c-2.911,0-4.268,2.523-4.656,6.791l-4.462,52.774c-0.194,1.359-0.388,3.298-0.388,4.656c0,4.851,1.94,7.955,8.732,7.955h28.133
			c14.357,0,23.089,7.955,23.089,24.446v3.686c0,16.686-8.732,24.448-23.283,24.448c-12.611,0-22.7-6.402-22.7-17.462
			c0-4.656-1.94-8.148-10.477-8.148c-6.208,0-10.089,2.134-10.089,9.507c0,18.043,15.522,34.342,43.655,34.342
			c24.058,0,43.461-11.641,43.461-42.686v-3.686C247.396,271.388,228.382,260.523,203.741,260.523z"/>
	</g>
</g>
<g>
</g>
<g>
</g>
<g>
</g>
<g>
</g>
<g>
</g>
<g>
</g>
<g>
</g>
<g>
</g>
<g>
</g>
<g>
</g>
<g>
</g>
<g>
</g>
<g>
</g>
<g>
</g>
<g>
</g>
</svg>
