<?xml version="1.0" encoding="iso-8859-1"?>
<!-- Generator: Adobe Illustrator 19.0.0, SVG Export Plug-In . SVG Version: 6.00 Build 0)  -->
<svg version="1.1" id="Layer_1" xmlns="http://www.w3.org/2000/svg" xmlns:xlink="http://www.w3.org/1999/xlink" x="0px" y="0px"
	 viewBox="0 0 512.001 512.001" style="enable-background:new 0 0 512.001 512.001;" xml:space="preserve">
<g>
	<g>
		<path d="M310.793,0H201.206c-5.633,0-10.199,4.566-10.199,10.199v19.715c0,16.778,13.65,30.427,30.427,30.427h0.811v375.913
			c0,1.176,0.203,2.343,0.601,3.449l23.556,65.547c1.455,4.049,5.295,6.75,9.598,6.75c4.303,0,8.143-2.701,9.598-6.75l23.556-65.547
			c0.398-1.107,0.601-2.273,0.601-3.449V60.342h0.811c16.778,0,30.427-13.65,30.427-30.427V10.199
			C320.992,4.566,316.426,0,310.793,0z M255.999,471.644l-13.357-37.166V60.342h26.713v374.135h0.001L255.999,471.644z
			 M300.592,29.914c0,5.53-4.499,10.029-10.029,10.029h-69.13c-5.53,0-10.029-4.499-10.029-10.029v-9.516h89.188V29.914z"/>
	</g>
</g>
<g>
</g>
<g>
</g>
<g>
</g>
<g>
</g>
<g>
</g>
<g>
</g>
<g>
</g>
<g>
</g>
<g>
</g>
<g>
</g>
<g>
</g>
<g>
</g>
<g>
</g>
<g>
</g>
<g>
</g>
</svg>
