<?xml version="1.0" encoding="iso-8859-1"?>
<!-- Generator: Adobe Illustrator 19.0.0, SVG Export Plug-In . SVG Version: 6.00 Build 0)  -->
<svg version="1.1" id="Layer_1" xmlns="http://www.w3.org/2000/svg" xmlns:xlink="http://www.w3.org/1999/xlink" x="0px" y="0px"
	 viewBox="0 0 511.999 511.999" style="enable-background:new 0 0 511.999 511.999;" xml:space="preserve">
<g>
	<g>
		<path d="M416.616,217.384h-16.477v-73.245C400.139,64.66,335.479,0,255.999,0S111.86,64.66,111.86,144.139v73.245H95.383
			c-5.632,0-10.199,4.566-10.199,10.199v193.706c0,50.018,40.692,90.71,90.71,90.71h160.211c50.018,0,90.71-40.692,90.71-90.71
			V227.583C426.815,221.95,422.249,217.384,416.616,217.384z M132.259,144.139c0-68.231,55.51-123.741,123.741-123.741
			S379.74,75.909,379.74,144.139v73.245h-13.428v-73.167c0-60.827-49.487-110.314-110.312-110.314
			c-60.826,0-110.313,49.487-110.313,110.314v73.167h-13.428V144.139z M345.914,144.217v73.167H166.085v-73.167
			c0-49.579,40.336-89.915,89.914-89.915S345.914,94.637,345.914,144.217z M406.416,421.289c0,38.77-31.542,70.311-70.311,70.311
			H175.894c-38.77,0-70.311-31.542-70.311-70.311V237.782h300.834V421.289z"/>
	</g>
</g>
<g>
	<g>
		<path d="M255.999,296.157c-21.568,0-39.117,17.548-39.117,39.117c0,11.665,5.303,22.728,14.146,30.098v48.679
			c0,5.633,4.567,10.199,10.199,10.199h29.542c5.632,0,10.199-4.566,10.199-10.199v-48.679c8.844-7.37,14.146-18.433,14.146-30.098
			C295.116,313.705,277.568,296.157,255.999,296.157z M265.552,351.372c-3.088,1.839-4.981,5.168-4.981,8.763v43.716h-9.144v-43.716
			c0-3.594-1.892-6.924-4.981-8.763c-5.739-3.418-9.165-9.435-9.165-16.097c0-10.322,8.397-18.719,18.719-18.719
			c10.322,0,18.719,8.397,18.719,18.719C274.718,341.936,271.291,347.954,265.552,351.372z"/>
	</g>
</g>
<g>
	<g>
		<path d="M233.066,247.296H126.368c-5.632,0-10.199,4.566-10.199,10.199c0,5.633,4.567,10.199,10.199,10.199h106.697
			c5.633,0,10.2-4.566,10.2-10.199C243.265,251.862,238.698,247.296,233.066,247.296z"/>
	</g>
</g>
<g>
	<g>
		<path d="M269.96,247.296h-6.98c-5.632,0-10.199,4.566-10.199,10.199c0,5.633,4.566,10.199,10.199,10.199h6.98
			c5.632,0,10.199-4.566,10.199-10.199C280.159,251.862,275.592,247.296,269.96,247.296z"/>
	</g>
</g>
<g>
</g>
<g>
</g>
<g>
</g>
<g>
</g>
<g>
</g>
<g>
</g>
<g>
</g>
<g>
</g>
<g>
</g>
<g>
</g>
<g>
</g>
<g>
</g>
<g>
</g>
<g>
</g>
<g>
</g>
</svg>
