<?xml version="1.0" encoding="iso-8859-1"?>
<!-- Generator: Adobe Illustrator 19.0.0, SVG Export Plug-In . SVG Version: 6.00 Build 0)  -->
<svg version="1.1" id="Layer_1" xmlns="http://www.w3.org/2000/svg" xmlns:xlink="http://www.w3.org/1999/xlink" x="0px" y="0px"
	 viewBox="0 0 512 512" style="enable-background:new 0 0 512 512;" xml:space="preserve">
<g>
	<g>
		<path d="M256,195.617c-33.487,0-64.571,10.468-90.169,28.292V110.568c0-49.719,40.449-90.169,90.169-90.169
			s90.169,40.45,90.169,90.169v55.305c0,5.632,4.566,10.199,10.199,10.199c5.633,0,10.199-4.567,10.199-10.199v-55.305
			C366.567,49.601,316.967,0,256,0c-60.967,0-110.568,49.601-110.568,110.568v130.225c-29.367,28.736-47.624,68.78-47.624,113.015
			C97.808,441.035,168.773,512,256,512s158.192-70.965,158.192-158.193S343.227,195.617,256,195.617z M256,491.602
			c-75.98,0-137.793-61.813-137.793-137.794c0-75.979,61.813-137.793,137.793-137.793s137.793,61.813,137.793,137.793
			C393.793,429.788,331.98,491.602,256,491.602z"/>
	</g>
</g>
<g>
	<g>
		<path d="M202.515,255.6c-24.646,0-44.697,20.051-44.697,44.697c0,24.646,20.052,44.698,44.697,44.698
			c24.646,0,44.698-20.052,44.698-44.698C247.213,275.651,227.162,255.6,202.515,255.6z M202.515,324.598
			c-9.927,0-18.478-5.987-22.244-14.538h1.734c5.633,0,10.199-4.567,10.199-10.199s-4.566-10.199-10.199-10.199h-1.331
			c3.951-8.082,12.256-13.663,21.842-13.663c13.399,0,24.3,10.901,24.3,24.299C226.814,313.697,215.914,324.598,202.515,324.598z"/>
	</g>
</g>
<g>
	<g>
		<path d="M309.485,255.601c-24.646,0-44.698,20.051-44.698,44.697c0,24.646,20.052,44.698,44.698,44.698
			c24.646,0,44.697-20.052,44.697-44.698C354.182,275.652,334.13,255.601,309.485,255.601z M309.486,324.597
			c-13.399,0-24.3-10.901-24.3-24.3c0-9.956,6.022-18.528,14.612-22.278v4.843c0,5.632,4.566,10.199,10.199,10.199
			c5.633,0,10.199-4.567,10.199-10.199v-4.367c8.041,3.966,13.587,12.247,13.587,21.803
			C333.784,313.697,322.883,324.597,309.486,324.597z"/>
	</g>
</g>
<g>
	<g>
		<path d="M202.515,362.62c-24.646,0-44.697,20.051-44.697,44.697c0,24.646,20.052,44.697,44.697,44.697
			c24.646,0,44.698-20.051,44.698-44.697C247.213,382.671,227.162,362.62,202.515,362.62z M212.202,429.597v-8.742
			c0-5.632-4.566-10.199-10.199-10.199s-10.199,4.567-10.199,10.199v8.266c-8.041-3.966-13.587-12.247-13.587-21.803
			c0-13.399,10.901-24.299,24.299-24.299c13.399,0,24.3,10.901,24.3,24.299C226.814,417.275,220.792,425.846,212.202,429.597z"/>
	</g>
</g>
<g>
	<g>
		<path d="M309.485,362.62c-24.646,0-44.698,20.051-44.698,44.697c0,24.646,20.052,44.697,44.698,44.697
			c24.646,0,44.697-20.051,44.697-44.697C354.182,382.671,334.131,362.62,309.485,362.62z M324.997,418.056h6.279
			c-3.972,8.026-12.245,13.561-21.791,13.561c-13.399,0-24.3-10.901-24.3-24.299c0-13.398,10.901-24.299,24.3-24.299
			c9.967,0,18.546,6.034,22.29,14.638h-6.778c-5.633,0-10.199,4.567-10.199,10.199C314.797,413.489,319.364,418.056,324.997,418.056
			z"/>
	</g>
</g>
<g>
	<g>
		<path d="M356.368,188.45c-5.633,0-10.199,4.567-10.199,10.199v4.095c0,5.632,4.566,10.199,10.199,10.199
			c5.633,0,10.199-4.567,10.199-10.199v-4.095C366.567,193.016,362.001,188.45,356.368,188.45z"/>
	</g>
</g>
<g>
</g>
<g>
</g>
<g>
</g>
<g>
</g>
<g>
</g>
<g>
</g>
<g>
</g>
<g>
</g>
<g>
</g>
<g>
</g>
<g>
</g>
<g>
</g>
<g>
</g>
<g>
</g>
<g>
</g>
</svg>
