<?xml version="1.0" encoding="iso-8859-1"?>
<!-- Generator: Adobe Illustrator 19.0.0, SVG Export Plug-In . SVG Version: 6.00 Build 0)  -->
<svg version="1.1" id="Layer_1" xmlns="http://www.w3.org/2000/svg" xmlns:xlink="http://www.w3.org/1999/xlink" x="0px" y="0px"
	 viewBox="0 0 512.001 512.001" style="enable-background:new 0 0 512.001 512.001;" xml:space="preserve">
<g>
	<g>
		<path d="M470.116,372.22l-33.435-33.435l33.443-33.443c3.983-3.983,3.983-10.441,0-14.425l-34.195-34.195l33.374-33.375
			c3.983-3.983,3.983-10.441,0-14.424L263.368,2.987c-3.983-3.983-10.441-3.983-14.425,0L42.477,209.455
			c-1.912,1.912-2.987,4.507-2.987,7.212c0,2.705,1.075,5.3,2.987,7.212l33.332,33.331l-33.435,33.435
			c-3.983,3.983-3.983,10.441,0,14.425l33.317,33.317L41.876,372.2c-3.983,3.983-3.983,10.441,0,14.425l33.933,33.933
			l-33.435,33.435c-3.983,3.983-3.983,10.441,0,14.425l40.596,40.596c1.992,1.991,4.602,2.987,7.212,2.987
			c2.61,0,5.221-0.996,7.212-2.987l158.79-158.79l157.852,157.852c1.912,1.912,4.507,2.987,7.212,2.987s5.299-1.075,7.212-2.987
			l40.526-40.526c3.983-3.983,3.983-10.441,0-14.424l-32.675-32.675l33.806-33.806C474.099,382.662,474.099,376.203,470.116,372.22z
			 M448.489,298.129l-26.231,26.231L270.412,172.514l26.231-26.231L448.489,298.129z M447.668,216.135l-26.162,26.163L270.538,91.33
			L296.7,65.168L447.668,216.135z M64.114,216.667L256.156,24.623l26.12,26.12L90.234,242.786L64.114,216.667z M64.011,297.857
			l192.104-192.104l26.105,26.105L90.115,323.962L64.011,297.857z M63.513,379.413l192.475-192.475l26.721,26.721L90.234,406.134
			L63.513,379.413z M90.182,487.377l-26.171-26.171l192.104-192.104l26.171,26.171L90.182,487.377z M447.35,460.337l-26.102,26.102
			l-150.639-150.64l26.102-26.102L447.35,460.337z M421.886,406.025L270.538,254.677l26.594-26.594l151.348,151.348L421.886,406.025
			z"/>
	</g>
</g>
<g>
	<g>
		<path d="M429.459,209.011l-48.446-48.446c-3.983-3.983-10.441-3.983-14.425,0c-3.983,3.983-3.983,10.441,0,14.425l48.447,48.446
			c1.992,1.992,4.602,2.987,7.212,2.987s5.221-0.995,7.212-2.987C433.442,219.453,433.442,212.995,429.459,209.011z"/>
	</g>
</g>
<g>
	<g>
		<path d="M359.085,138.637l-4.781-4.781c-3.983-3.983-10.441-3.983-14.425,0c-3.983,3.983-3.983,10.441,0,14.425l4.782,4.781
			c1.992,1.992,4.602,2.987,7.212,2.987c2.61,0,5.221-0.995,7.212-2.987C363.068,149.078,363.068,142.62,359.085,138.637z"/>
	</g>
</g>
<g>
</g>
<g>
</g>
<g>
</g>
<g>
</g>
<g>
</g>
<g>
</g>
<g>
</g>
<g>
</g>
<g>
</g>
<g>
</g>
<g>
</g>
<g>
</g>
<g>
</g>
<g>
</g>
<g>
</g>
</svg>
