<?xml version="1.0" encoding="iso-8859-1"?>
<!-- Generator: Adobe Illustrator 19.0.0, SVG Export Plug-In . SVG Version: 6.00 Build 0)  -->
<svg version="1.1" id="Layer_1" xmlns="http://www.w3.org/2000/svg" xmlns:xlink="http://www.w3.org/1999/xlink" x="0px" y="0px"
	 viewBox="0 0 512 512" style="enable-background:new 0 0 512 512;" xml:space="preserve">
<g>
	<g>
		<path d="M510.433,479.56l-98.537-156.515c-1.867-2.965-5.126-4.765-8.632-4.765h-41.562c0.131-0.266,0.263-0.523,0.394-0.789
			c24.633-50.451,41.184-112.098,41.184-153.403c0-81.21-66.069-147.28-147.281-147.28S108.72,82.877,108.72,164.087
			c0,41.305,16.551,102.952,41.184,153.403c0.131,0.267,0.263,0.524,0.394,0.789h-41.562c-3.505,0-6.764,1.8-8.632,4.765
			L1.568,479.56c-1.978,3.143-2.093,7.113-0.297,10.363c1.795,3.251,5.215,5.27,8.928,5.27h491.602c3.714,0,7.133-2.018,8.928-5.27
			C512.525,486.672,512.41,482.703,510.433,479.56z M129.118,164.087c0-69.964,56.92-126.881,126.882-126.881
			s126.882,56.919,126.882,126.881c0,37.884-16.085,97.285-39.117,144.453c-26.817,54.923-58.807,86.422-87.766,86.422
			c-28.96,0-60.949-31.5-87.766-86.422C145.202,261.372,129.118,201.97,129.118,164.087z M103.69,474.795l36.125-81.247
			c2.288-5.146-0.029-11.174-5.176-13.463c-5.149-2.287-11.174,0.029-13.463,5.176l-39.81,89.534H28.672l85.696-136.117h46.755
			c28.516,49.65,61.726,76.683,94.877,76.683c32.474,0,65.004-25.947,93.124-73.676l59.184,133.11H103.69z M430.632,474.796
			L430.632,474.796l-60.521-136.117h27.522l85.695,136.117H430.632z"/>
	</g>
</g>
<g>
	<g>
		<path d="M256,67.227c-53.408,0-96.86,43.452-96.86,96.86c0,53.409,43.452,96.861,96.86,96.861s96.86-43.452,96.86-96.861
			C352.86,110.679,309.408,67.227,256,67.227z M256,240.549c-42.16,0-76.461-34.301-76.461-76.462
			c0-42.16,34.301-76.461,76.461-76.461s76.461,34.301,76.461,76.461C332.462,206.248,298.161,240.549,256,240.549z"/>
	</g>
</g>
<g>
	<g>
		<path d="M148.959,348.572c-5.148-2.289-11.173,0.029-13.463,5.175l-1.868,4.202c-2.289,5.148,0.028,11.175,5.175,13.464
			c1.346,0.599,2.753,0.882,4.138,0.882c3.907,0,7.635-2.258,9.326-6.058l1.868-4.201
			C156.423,356.889,154.107,350.861,148.959,348.572z"/>
	</g>
</g>
<g>
</g>
<g>
</g>
<g>
</g>
<g>
</g>
<g>
</g>
<g>
</g>
<g>
</g>
<g>
</g>
<g>
</g>
<g>
</g>
<g>
</g>
<g>
</g>
<g>
</g>
<g>
</g>
<g>
</g>
</svg>
