<?xml version="1.0" encoding="iso-8859-1"?>
<!-- Generator: Adobe Illustrator 19.0.0, SVG Export Plug-In . SVG Version: 6.00 Build 0)  -->
<svg version="1.1" id="Layer_1" xmlns="http://www.w3.org/2000/svg" xmlns:xlink="http://www.w3.org/1999/xlink" x="0px" y="0px"
	 viewBox="0 0 512.001 512.001" style="enable-background:new 0 0 512.001 512.001;" xml:space="preserve">
<g>
	<g>
		<path d="M392.916,57.727c-7.361-14.567-18.315-27.123-31.679-36.308c-4.541-3.122-10.742-2.071-14.001,2.373l-31.521,42.979
			c-2.878,3.926-2.582,9.337,0.707,12.925c4.914,5.36,8.169,11.992,9.415,19.184v0.001c1.273,7.346,0.342,14.852-2.691,21.702
			c-0.187,0.421-0.38,0.837-0.577,1.244c-6.477,13.269-22.487,21.086-38.218,18.731c-15.291-4.2-26.741-17.965-27.301-32.918
			c-0.017-0.452-0.025-0.907-0.025-1.363c0-7.494,2.187-14.734,6.322-20.936c0.001-0.001,0.001-0.001,0.002-0.002
			c4.049-6.071,9.711-10.819,16.377-13.733c4.46-1.949,6.921-6.778,5.878-11.533L274.175,8.016
			c-1.182-5.382-6.427-8.861-11.842-7.837c-15.938,2.989-31.036,10.036-43.663,20.378c-22.716,18.606-35.746,46.087-35.746,75.393
			c0,38.701,15.512,70.289,41.85,86.131L111.018,439.081c-3.094,6.992-3.281,14.769-0.525,21.903
			c2.756,7.131,8.124,12.764,15.115,15.859c3.791,1.679,7.745,2.475,11.633,2.475c10.59,0,20.688-5.916,25.656-16.057
			l93.706-191.255l8.262,212.483c0.6,15.427,13.163,27.512,28.601,27.512c15.784,0,28.624-12.841,28.624-28.624V202.928
			c30.338-3.884,57.221-26.151,72.996-61.792C406.948,114.338,406.158,83.935,392.916,57.727z M357.452,44.356
			c4.935,4.441,9.294,9.527,12.947,15.108l-8.895,6.461l-20.21,14.682c-1.301-2.784-2.823-5.464-4.553-8.013L357.452,44.356z
			 M256.51,22.684l7.51,34.204c-2.614,1.632-5.09,3.466-7.409,5.485l-18.057-31.115C244.155,27.634,250.2,24.747,256.51,22.684z
			 M203.321,95.951c0-19.076,6.987-37.177,19.484-51.19l12.086,20.827l8.167,14.073c-4.223,8.196-6.433,17.281-6.433,26.619
			c0,0.713,0.013,1.426,0.04,2.129c0.531,14.216,6.826,27.44,16.852,37.239c-0.234,0.119-0.468,0.23-0.702,0.354
			c-7.81,4.099-14.426,10.206-19.174,17.579C214.528,151.089,203.321,126.417,203.321,95.951z M301.692,483.375
			c0,4.537-3.69,8.227-8.226,8.227c-4.437,0-8.047-3.473-8.219-7.906l-9.733-250.291l11.263-22.988
			c2.688-5.488,8.481-8.597,14.422-7.714c0.165,0.024,0.329,0.041,0.494,0.064V483.375z M376.434,132.88
			c-15.684,35.434-42.703,53.991-72.265,49.643c-14.763-2.174-29.102,5.434-35.71,18.92L144.578,454.286
			c-1.953,3.983-6.657,5.698-10.715,3.902c-4.147-1.836-6.029-6.703-4.192-10.851l118.885-268.592
			c2.78-6.28,7.66-11.495,13.739-14.686c4.863-2.552,9.403-3.791,14-3.791c1.424,0,2.854,0.118,4.301,0.355l0.134,0.019
			c24.887,3.996,49.627-8.265,60.172-29.872c0.308-0.632,0.607-1.274,0.896-1.928c3.779-8.538,5.436-17.74,4.891-26.943
			l14.213-10.325l18.434-13.391C385.093,96.056,384.156,115.436,376.434,132.88z"/>
	</g>
</g>
<g>
	<g>
		<path d="M276.76,170.3c-3.982-3.983-10.44-3.982-14.424-0.002l-4.132,4.131c-3.984,3.983-3.984,10.44-0.002,14.425
			c1.992,1.992,4.603,2.988,7.213,2.988s5.22-0.996,7.211-2.986l4.132-4.131C280.741,180.742,280.742,174.285,276.76,170.3z"/>
	</g>
</g>
<g>
</g>
<g>
</g>
<g>
</g>
<g>
</g>
<g>
</g>
<g>
</g>
<g>
</g>
<g>
</g>
<g>
</g>
<g>
</g>
<g>
</g>
<g>
</g>
<g>
</g>
<g>
</g>
<g>
</g>
</svg>
