<?xml version="1.0" encoding="iso-8859-1"?>
<!-- Generator: Adobe Illustrator 19.0.0, SVG Export Plug-In . SVG Version: 6.00 Build 0)  -->
<svg version="1.1" id="Layer_1" xmlns="http://www.w3.org/2000/svg" xmlns:xlink="http://www.w3.org/1999/xlink" x="0px" y="0px"
	 viewBox="0 0 512 512" style="enable-background:new 0 0 512 512;" xml:space="preserve">
<g>
	<g>
		<path d="M309.578,262.972H298.58v-28.069c0-5.633-4.567-10.199-10.199-10.199H281.9V35.711c0-1.888-0.524-3.738-1.513-5.345
			L264.687,4.854C262.829,1.837,259.542,0,256,0s-6.83,1.838-8.687,4.854l-15.7,25.512c-0.989,1.607-1.513,3.458-1.513,5.345
			v188.992h-6.482c-5.633,0-10.199,4.566-10.199,10.199v28.069h-10.999c-5.633,0-10.199,4.566-10.199,10.199v175.05
			c0,26.143,16.385,50.045,40.773,59.484c0.003,0.001,0.006,0.003,0.009,0.004C240.364,510.556,248.101,512,256,512
			s15.635-1.444,22.995-4.291c24.393-9.435,40.783-33.341,40.783-59.488v-175.05C319.778,267.538,315.211,262.972,309.578,262.972z
			 M250.5,38.599l5.5-8.939l5.501,8.939v186.106H250.5V38.599z M233.818,245.102h44.363v17.87h-44.363V245.102z M265.116,490.636
			c-5.968,1.284-12.266,1.284-18.232,0v-45.074c0-4.399,3.131-8.08,7.281-8.931c0.593-0.121,1.207-0.186,1.835-0.186
			c0.628,0,1.242,0.064,1.835,0.186c4.15,0.852,7.281,4.533,7.281,8.931V490.636z M299.379,448.221
			c0,12.184-5.232,23.652-13.865,31.731V445.56c0-16.275-13.24-29.516-29.514-29.516c-16.275,0-29.514,13.241-29.514,29.516v34.392
			c-8.632-8.079-13.865-19.547-13.865-31.731V283.371h86.758V448.221z"/>
	</g>
</g>
<g>
	<g>
		<path d="M231.469,291.428c-5.633,0-10.199,4.566-10.199,10.199v59.856c0,5.633,4.566,10.199,10.199,10.199
			s10.199-4.566,10.199-10.199v-59.856C241.668,295.994,237.102,291.428,231.469,291.428z"/>
	</g>
</g>
<g>
	<g>
		<path d="M231.469,380.722c-5.633,0-10.199,4.566-10.199,10.199v5.887c0,5.633,4.566,10.199,10.199,10.199
			s10.199-4.566,10.199-10.199v-5.887C241.668,385.288,237.102,380.722,231.469,380.722z"/>
	</g>
</g>
<g>
</g>
<g>
</g>
<g>
</g>
<g>
</g>
<g>
</g>
<g>
</g>
<g>
</g>
<g>
</g>
<g>
</g>
<g>
</g>
<g>
</g>
<g>
</g>
<g>
</g>
<g>
</g>
<g>
</g>
</svg>
