<?xml version="1.0" encoding="iso-8859-1"?>
<!-- Generator: Adobe Illustrator 19.0.0, SVG Export Plug-In . SVG Version: 6.00 Build 0)  -->
<svg version="1.1" id="Layer_1" xmlns="http://www.w3.org/2000/svg" xmlns:xlink="http://www.w3.org/1999/xlink" x="0px" y="0px"
	 viewBox="0 0 511.998 511.998" style="enable-background:new 0 0 511.998 511.998;" xml:space="preserve">
<g>
	<g>
		<path d="M366.678,6.072C365.044,2.38,361.388,0,357.351,0h-85.028c-5.632,0-10.199,4.567-10.199,10.199v16.694h-12.248V10.199
			c0-2.721-1.087-5.33-3.02-7.246C244.944,1.061,242.365,0,239.676,0c-0.031,0-0.062,0-0.093,0
			c-29.133,0.267-76.712,0.533-83.185,0.15c-3.081-0.527-6.36,0.352-8.79,2.666c-4.008,3.822-4.235,10.143-0.51,14.242
			l41.739,45.932c14.482,15.914,22.459,36.526,22.459,58.044v65.983l-9.814-1.509c-5.571-0.853-10.773,2.962-11.631,8.53
			c-0.857,5.568,2.962,10.774,8.53,11.631l12.915,1.987v21.412l-9.814-1.51c-5.571-0.854-10.773,2.962-11.631,8.53
			c-0.857,5.568,2.962,10.774,8.53,11.631l12.915,1.987v20.334l-9.814-1.509c-5.571-0.853-10.773,2.962-11.631,8.53
			c-0.857,5.568,2.962,10.774,8.53,11.631l12.915,1.987v20.334l-9.814-1.509c-5.571-0.851-10.773,2.962-11.631,8.53
			c-0.857,5.568,2.962,10.774,8.53,11.631l12.915,1.987v20.334l-9.814-1.509c-5.571-0.85-10.773,2.963-11.631,8.53
			c-0.857,5.568,2.962,10.774,8.53,11.631l12.915,1.987v20.333l-9.814-1.51c-5.571-0.848-10.773,2.963-11.631,8.53
			c-0.857,5.568,2.962,10.774,8.53,11.631l12.915,1.987v30.51c0,1.844,0.5,3.652,1.446,5.235l34.503,57.696
			c1.841,3.079,5.165,4.964,8.753,4.964s6.912-1.886,8.753-4.964l34.503-57.696c0.946-1.583,1.446-3.391,1.446-5.235v-16.755
			l9.814,1.509c0.526,0.081,1.047,0.119,1.564,0.119c4.948,0,9.291-3.607,10.068-8.649c0.857-5.568-2.962-10.774-8.53-11.631
			l-12.915-1.987v-20.334l9.814,1.509c0.526,0.081,1.047,0.119,1.564,0.119c4.948,0,9.291-3.607,10.068-8.649
			c0.857-5.568-2.962-10.774-8.53-11.631l-12.915-1.987v-20.334l9.814,1.509c0.526,0.081,1.047,0.119,1.564,0.119
			c4.948,0,9.291-3.607,10.068-8.649c0.857-5.568-2.962-10.774-8.53-11.631l-12.915-1.987v-20.334l9.814,1.509
			c0.526,0.081,1.047,0.119,1.564,0.119c4.948,0,9.291-3.607,10.068-8.649c0.857-5.568-2.962-10.774-8.53-11.631l-12.915-1.987
			v-20.334l9.814,1.51c0.526,0.081,1.047,0.119,1.564,0.119c4.948,0,9.291-3.607,10.068-8.649c0.857-5.568-2.962-10.774-8.53-11.631
			l-12.915-1.987v-21.411l9.814,1.51c0.526,0.081,1.047,0.119,1.564,0.119c4.948,0,9.291-3.607,10.068-8.649
			c0.857-5.568-2.962-10.774-8.53-11.631l-12.915-1.987v-79.738c0-21.517,7.976-42.131,22.463-58.049l41.734-45.927
			C367.614,14.071,368.311,9.763,366.678,6.072z M280.303,441.288l-24.304,40.641l-24.304-40.641v-24.555l4.39,0.675
			c0.526,0.081,1.047,0.119,1.564,0.119c4.948,0,9.292-3.607,10.068-8.649c0.857-5.568-2.962-10.774-8.53-11.631l-7.491-1.153
			v-20.333l48.607,7.478V441.288z M280.303,362.601l-48.607-7.478v-20.334l48.607,7.478V362.601z M280.303,321.629l-48.607-7.478
			v-20.334l48.607,7.478V321.629z M280.303,280.657l-48.607-7.478v-20.334l48.607,7.478V280.657z M280.303,239.684l-48.607-7.478
			v-21.412l48.607,7.478V239.684z M308.074,49.262c-17.909,19.677-27.771,45.167-27.771,71.773v76.6l-48.607-7.478v-69.121
			c0-26.606-9.863-52.095-27.766-71.768l-25.924-28.529c5.566-0.002,12.083-0.019,19.49-0.053
			c11.889-0.054,23.837-0.139,31.982-0.202v16.609c0,5.632,4.567,10.199,10.199,10.199h32.647c5.632,0,10.199-4.567,10.199-10.199
			V20.398h51.78L308.074,49.262z"/>
	</g>
</g>
<g>
	<g>
		<path d="M266.731,401.487l-2.041-0.314c-5.571-0.853-10.773,2.963-11.63,8.531c-0.856,5.567,2.963,10.774,8.531,11.63l2.041,0.314
			c0.526,0.081,1.046,0.119,1.563,0.119c4.949,0,9.293-3.608,10.068-8.65C276.117,407.549,272.299,402.342,266.731,401.487z"/>
	</g>
</g>
<g>
</g>
<g>
</g>
<g>
</g>
<g>
</g>
<g>
</g>
<g>
</g>
<g>
</g>
<g>
</g>
<g>
</g>
<g>
</g>
<g>
</g>
<g>
</g>
<g>
</g>
<g>
</g>
<g>
</g>
</svg>
