<?xml version="1.0" encoding="iso-8859-1"?>
<!-- Generator: Adobe Illustrator 19.0.0, SVG Export Plug-In . SVG Version: 6.00 Build 0)  -->
<svg version="1.1" id="Layer_1" xmlns="http://www.w3.org/2000/svg" xmlns:xlink="http://www.w3.org/1999/xlink" x="0px" y="0px"
	 viewBox="0 0 511.997 511.997" style="enable-background:new 0 0 511.997 511.997;" xml:space="preserve">
<g>
	<g>
		<path d="M366.86,75.645C351.024,33.862,315.294,5.614,271.285,0.08c-2.904-0.366-5.825,0.533-8.02,2.471
			c-2.195,1.936-3.452,4.722-3.452,7.648v16.822h-7.628V10.2c0-2.926-1.258-5.713-3.452-7.648c-2.195-1.936-5.115-2.836-8.02-2.471
			c-44.009,5.534-79.739,33.782-95.576,75.565c-1.188,3.133-0.76,6.651,1.144,9.41c1.904,2.758,5.041,4.404,8.393,4.404h56.631
			v97.643l-9.809-1.508c-5.565-0.851-10.774,2.962-11.631,8.53s2.963,10.774,8.53,11.631l12.91,1.986v21.4l-9.809-1.508
			c-5.565-0.854-10.774,2.962-11.631,8.53s2.963,10.774,8.53,11.631l12.91,1.986v20.322l-9.809-1.508
			c-5.565-0.854-10.774,2.962-11.631,8.53s2.963,10.774,8.53,11.631l12.91,1.986v20.323l-9.809-1.508
			c-5.565-0.855-10.774,2.962-11.631,8.53s2.963,10.774,8.53,11.631l12.91,1.986v20.323l-9.809-1.508
			c-5.565-0.856-10.774,2.962-11.631,8.53s2.963,10.774,8.53,11.631l12.91,1.986v20.322l-9.809-1.508
			c-5.565-0.857-10.774,2.962-11.631,8.53s2.963,10.774,8.53,11.631l12.91,1.986v31.049c0,1.858,0.508,3.681,1.468,5.272
			l34.493,57.13c1.847,3.058,5.159,4.927,8.732,4.927c3.573,0,6.884-1.87,8.732-4.927l34.493-57.13
			c0.961-1.591,1.468-3.414,1.468-5.272v-17.298l9.809,1.508c0.525,0.081,1.047,0.119,1.564,0.119c4.949,0,9.292-3.607,10.069-8.649
			c0.857-5.568-2.963-10.774-8.53-11.631l-12.91-1.986V386.41l9.809,1.508c0.525,0.081,1.047,0.119,1.564,0.119
			c4.949,0,9.292-3.607,10.069-8.649c0.857-5.568-2.963-10.774-8.53-11.631l-12.91-1.986V345.45l9.809,1.508
			c0.525,0.081,1.047,0.119,1.563,0.119c4.949,0,9.292-3.607,10.069-8.649c0.857-5.568-2.963-10.774-8.53-11.631l-12.91-1.986
			v-20.323l9.809,1.508c0.525,0.081,1.047,0.119,1.563,0.119c4.949,0,9.292-3.607,10.069-8.649
			c0.857-5.568-2.963-10.774-8.53-11.631l-12.91-1.986v-20.322l9.809,1.508c0.525,0.081,1.047,0.119,1.564,0.119
			c4.949,0,9.292-3.607,10.069-8.649c0.857-5.568-2.963-10.774-8.53-11.631l-12.91-1.986v-21.4l9.809,1.508
			c0.525,0.081,1.047,0.119,1.564,0.119c4.949,0,9.292-3.607,10.069-8.649c0.857-5.568-2.963-10.774-8.53-11.631l-12.91-1.986
			V89.458h56.631c3.352,0,6.489-1.646,8.393-4.404C367.62,82.296,368.048,78.778,366.86,75.645z M280.295,441.831h-0.001
			l-24.294,40.236l-24.293-40.236v-25.073l4.385,0.674c0.525,0.081,1.047,0.119,1.564,0.119c4.949,0,9.292-3.607,10.069-8.649
			c0.857-5.568-2.963-10.774-8.53-11.631l-7.486-1.151v-20.322l48.588,7.475V441.831z M280.294,218.353v21.401l-48.588-7.475
			v-21.401L280.294,218.353z M231.706,190.24V89.458h48.588v108.257L231.706,190.24z M280.294,260.392v20.322l-48.588-7.475v-20.322
			L280.294,260.392z M280.294,301.352v20.323l-48.588-7.475v-20.323L280.294,301.352z M280.294,342.314v20.322l-48.588-7.475
			v-20.322L280.294,342.314z M170.64,69.06v-0.001c13.19-23.581,34.938-40.206,61.147-46.627v14.787
			c0,5.632,4.566,10.199,10.199,10.199h28.026c5.633,0,10.199-4.567,10.199-10.199V22.434c26.208,6.42,47.958,23.046,61.147,46.627
			H170.64z"/>
	</g>
</g>
<g>
	<g>
		<path d="M266.729,401.51l-2.04-0.314c-5.569-0.857-10.774,2.963-11.631,8.531c-0.856,5.567,2.963,10.775,8.531,11.63l2.04,0.314
			c0.525,0.081,1.047,0.119,1.563,0.119c4.949,0,9.292-3.607,10.069-8.65C276.115,407.573,272.297,402.366,266.729,401.51z"/>
	</g>
</g>
<g>
</g>
<g>
</g>
<g>
</g>
<g>
</g>
<g>
</g>
<g>
</g>
<g>
</g>
<g>
</g>
<g>
</g>
<g>
</g>
<g>
</g>
<g>
</g>
<g>
</g>
<g>
</g>
<g>
</g>
</svg>
