<?xml version="1.0" encoding="iso-8859-1"?>
<!-- Generator: Adobe Illustrator 19.0.0, SVG Export Plug-In . SVG Version: 6.00 Build 0)  -->
<svg version="1.1" id="Layer_1" xmlns="http://www.w3.org/2000/svg" xmlns:xlink="http://www.w3.org/1999/xlink" x="0px" y="0px"
	 viewBox="0 0 512 512" style="enable-background:new 0 0 512 512;" xml:space="preserve">
<g>
	<g>
		<path d="M374.746,0H137.254c-15.511,0-28.129,12.618-28.129,28.129v455.74c0,15.511,12.618,28.13,28.129,28.13h237.493
			c15.511,0,28.129-12.619,28.129-28.13V28.129C402.876,12.618,390.257,0,374.746,0z M382.477,483.87
			c0,4.264-3.468,7.732-7.731,7.732H137.254c-4.263,0-7.731-3.468-7.731-7.732V28.129c0-4.263,3.468-7.731,7.731-7.731h237.493
			c4.263,0,7.731,3.468,7.731,7.731V483.87z"/>
	</g>
</g>
<g>
	<g>
		<path d="M359.665,55.36H152.335c-5.632,0-10.199,4.567-10.199,10.199v347.686c0,5.632,4.567,10.199,10.199,10.199h207.329
			c5.632,0,10.199-4.567,10.199-10.199V65.559C369.864,59.927,365.297,55.36,359.665,55.36z M349.466,403.046H162.534V75.759
			h186.931V403.046z"/>
	</g>
</g>
<g>
	<g>
		<path d="M268.363,27.628h-24.727c-5.632,0-10.199,4.567-10.199,10.199c0,5.632,4.567,10.199,10.199,10.199h24.727
			c5.633,0,10.199-4.567,10.199-10.199C278.563,32.195,273.995,27.628,268.363,27.628z"/>
	</g>
</g>
<g>
	<g>
		<path d="M256,431.824c-14.277,0-25.892,11.615-25.892,25.892c0,14.277,11.615,25.892,25.892,25.892s25.892-11.615,25.892-25.892
			C281.892,443.439,270.277,431.824,256,431.824z M256,463.21c-3.029,0-5.493-2.464-5.493-5.493c0-3.029,2.464-5.493,5.493-5.493
			s5.493,2.464,5.493,5.493C261.493,460.746,259.029,463.21,256,463.21z"/>
	</g>
</g>
<g>
	<g>
		<path d="M330.793,197.2l-68.114-59.008c-3.833-3.321-9.524-3.321-13.357,0L181.207,197.2c-3.218,2.789-4.365,7.283-2.878,11.273
			c1.488,3.99,5.299,6.636,9.557,6.636h9.751v52.215c0,5.632,4.567,10.199,10.199,10.199h96.328c5.632,0,10.199-4.567,10.198-10.199
			v-52.215h9.751c4.258,0,8.069-2.646,9.557-6.636C335.158,204.483,334.011,199.988,330.793,197.2z M293.964,204.909v52.215h-75.93
			v-52.216c0-3.596-1.862-6.759-4.674-8.574l42.64-36.94l42.639,36.942C295.827,198.15,293.964,201.313,293.964,204.909z"/>
	</g>
</g>
<g>
	<g>
		<path d="M321.785,299.908h-5.61c-5.632,0-10.199,4.567-10.199,10.199c0,5.632,4.567,10.199,10.199,10.199h5.61
			c5.632,0,10.199-4.567,10.199-10.199C331.984,304.475,327.417,299.908,321.785,299.908z"/>
	</g>
</g>
<g>
	<g>
		<path d="M281.498,299.908h-91.283c-5.632,0-10.199,4.567-10.199,10.199c0,5.632,4.567,10.199,10.199,10.199h91.283
			c5.632,0,10.199-4.567,10.199-10.199C291.697,304.475,287.13,299.908,281.498,299.908z"/>
	</g>
</g>
<g>
</g>
<g>
</g>
<g>
</g>
<g>
</g>
<g>
</g>
<g>
</g>
<g>
</g>
<g>
</g>
<g>
</g>
<g>
</g>
<g>
</g>
<g>
</g>
<g>
</g>
<g>
</g>
<g>
</g>
</svg>
