<?xml version="1.0" encoding="iso-8859-1"?>
<!-- Generator: Adobe Illustrator 19.0.0, SVG Export Plug-In . SVG Version: 6.00 Build 0)  -->
<svg version="1.1" id="Layer_1" xmlns="http://www.w3.org/2000/svg" xmlns:xlink="http://www.w3.org/1999/xlink" x="0px" y="0px"
	 viewBox="0 0 512 512" style="enable-background:new 0 0 512 512;" xml:space="preserve">
<g>
	<g>
		<path d="M485.822,3.86c-1.935-2.439-4.877-3.86-7.99-3.86H34.168c-3.113,0-6.055,1.422-7.99,3.86
			c-1.935,2.439-2.65,5.628-1.942,8.658l51.3,219.597c-11.532,5.076-19.608,16.606-19.608,29.994v28.199
			c0,18.063,14.695,32.758,32.759,32.758h128.148l-17.319,124.011c-2.284,16.349,2.621,32.87,13.458,45.324
			C223.808,504.857,239.491,512,256,512s32.192-7.143,43.027-19.598c10.837-12.455,15.741-28.975,13.458-45.324l-17.32-124.011
			h128.149c18.063,0,32.759-14.695,32.759-32.758v-28.2c0-13.386-8.076-24.918-19.608-29.994l51.3-219.597
			C488.471,9.488,487.756,6.299,485.822,3.86z M435.674,290.309c0,6.815-5.545,12.359-12.36,12.359H283.443
			c-2.952,0-5.757,1.278-7.694,3.505c-1.937,2.227-2.815,5.182-2.406,8.104l18.941,135.621c1.467,10.503-1.684,21.114-8.645,29.115
			c-6.961,8-17.035,12.588-27.639,12.588s-20.678-4.589-27.639-12.589c-6.961-8-10.112-18.612-8.645-29.115l18.941-135.621
			c0.408-2.922-0.469-5.879-2.406-8.104c-1.937-2.227-4.744-3.505-7.694-3.505H88.686c-6.815,0-12.36-5.545-12.36-12.359v-28.199
			c0-6.815,5.545-12.359,12.36-12.359h334.628c6.815,0,12.36,5.545,12.36,12.359V290.309z M416.162,229.352H95.838L54.93,54.237
			h126.813c5.633,0,10.199-4.567,10.199-10.199c0-5.632-4.566-10.199-10.199-10.199H50.165l-3.14-13.441h417.95L416.162,229.352z"/>
	</g>
</g>
<g>
	<g>
		<path d="M233.44,33.839h-17.859c-5.633,0-10.199,4.567-10.199,10.199c0,5.632,4.566,10.199,10.199,10.199h17.859
			c5.633,0,10.199-4.567,10.199-10.199C243.639,38.406,239.073,33.839,233.44,33.839z"/>
	</g>
</g>
<g>
</g>
<g>
</g>
<g>
</g>
<g>
</g>
<g>
</g>
<g>
</g>
<g>
</g>
<g>
</g>
<g>
</g>
<g>
</g>
<g>
</g>
<g>
</g>
<g>
</g>
<g>
</g>
<g>
</g>
</svg>
