<?xml version="1.0" encoding="iso-8859-1"?>
<!-- Generator: Adobe Illustrator 19.0.0, SVG Export Plug-In . SVG Version: 6.00 Build 0)  -->
<svg version="1.1" id="Layer_1" xmlns="http://www.w3.org/2000/svg" xmlns:xlink="http://www.w3.org/1999/xlink" x="0px" y="0px"
	 viewBox="0 0 512 512" style="enable-background:new 0 0 512 512;" xml:space="preserve">
<g>
	<g>
		<path d="M360.603,0H151.399c-18.002,0-32.647,14.645-32.647,32.647v446.707c0,18.001,14.645,32.647,32.647,32.647h209.203
			c18.002,0,32.647-14.645,32.647-32.647V32.647C393.248,14.645,378.603,0,360.603,0z M372.85,479.353
			c0,6.754-5.494,12.248-12.248,12.248H151.399c-6.754,0-12.248-5.494-12.248-12.248V32.647c0-6.754,5.494-12.248,12.248-12.248
			h209.203c6.754,0,12.248,5.494,12.248,12.248V479.353z"/>
	</g>
</g>
<g>
	<g>
		<path d="M356.282,53.689c-1.931-2.076-4.635-3.254-7.469-3.254H163.188c-2.833,0-5.538,1.178-7.468,3.253
			c-1.93,2.075-2.91,4.858-2.704,7.683l15.271,210.753v179.242c0,5.632,4.566,10.199,10.199,10.199h155.028
			c5.633,0,10.199-4.567,10.199-10.199V272.124l15.272-210.752C359.191,58.545,358.211,55.763,356.282,53.689z M323.315,441.167
			h-134.63v-159.21h134.63V441.167z M324.027,261.559H187.974L174.153,70.833h163.695L324.027,261.559z"/>
	</g>
</g>
<g>
	<g>
		<path d="M301.897,336.013c-5.633,0-10.199,4.567-10.199,10.199v70.375c0,5.633,4.566,10.199,10.199,10.199
			s10.199-4.567,10.199-10.199v-70.375C312.096,340.58,307.53,336.013,301.897,336.013z"/>
	</g>
</g>
<g>
	<g>
		<path d="M301.897,299.296c-5.633,0-10.199,4.567-10.199,10.199v5.1c0,5.633,4.566,10.199,10.199,10.199
			s10.199-4.567,10.199-10.199v-5.1C312.096,303.863,307.53,299.296,301.897,299.296z"/>
	</g>
</g>
<g>
</g>
<g>
</g>
<g>
</g>
<g>
</g>
<g>
</g>
<g>
</g>
<g>
</g>
<g>
</g>
<g>
</g>
<g>
</g>
<g>
</g>
<g>
</g>
<g>
</g>
<g>
</g>
<g>
</g>
</svg>
