<?xml version="1.0" encoding="iso-8859-1"?>
<!-- Generator: Adobe Illustrator 19.0.0, SVG Export Plug-In . SVG Version: 6.00 Build 0)  -->
<svg version="1.1" id="Layer_1" xmlns="http://www.w3.org/2000/svg" xmlns:xlink="http://www.w3.org/1999/xlink" x="0px" y="0px"
	 viewBox="0 0 512 512" style="enable-background:new 0 0 512 512;" xml:space="preserve">
<g>
	<g>
		<path d="M323.302,152.211l-62.202-32.094c-2.934-1.514-6.418-1.514-9.353,0l-62.203,32.094c-3.392,1.75-5.523,5.247-5.523,9.064
			s2.132,7.314,5.523,9.064l62.203,32.093c1.468,0.757,3.072,1.135,4.676,1.135c1.604,0,3.21-0.378,4.676-1.135l62.202-32.093
			c3.392-1.75,5.523-5.247,5.523-9.064S326.695,153.961,323.302,152.211z M256.424,181.891l-39.959-20.616l39.959-20.617
			l39.958,20.617L256.424,181.891z"/>
	</g>
</g>
<g>
	<g>
		<path d="M414.89,199.464l-62.203-32.093c-2.934-1.514-6.418-1.514-9.353,0l-62.203,32.093c-3.392,1.75-5.523,5.247-5.523,9.064
			s2.131,7.314,5.523,9.064l62.203,32.093c1.468,0.757,3.072,1.135,4.676,1.135c1.604,0,3.209-0.378,4.676-1.135l62.203-32.093
			c3.392-1.75,5.523-5.247,5.523-9.064S418.283,201.214,414.89,199.464z M348.011,229.144l-39.959-20.616l39.959-20.616
			l39.959,20.616L348.011,229.144z"/>
	</g>
</g>
<g>
	<g>
		<path d="M506.477,246.718l-62.203-32.094c-2.934-1.514-6.418-1.514-9.353,0l-62.202,32.094c-3.392,1.75-5.523,5.247-5.523,9.064
			c0,3.817,2.131,7.314,5.523,9.064l62.202,32.093c1.468,0.757,3.072,1.135,4.676,1.135s3.209-0.378,4.676-1.135l62.203-32.093
			c3.391-1.75,5.523-5.247,5.523-9.064C512,251.965,509.869,248.468,506.477,246.718z M439.598,276.397l-39.958-20.616
			l39.958-20.617l39.959,20.617L439.598,276.397z"/>
	</g>
</g>
<g>
	<g>
		<path d="M231.291,199.683l-62.202-32.094c-2.934-1.514-6.418-1.514-9.353,0l-62.203,32.094c-3.392,1.75-5.523,5.247-5.523,9.064
			s2.131,7.314,5.523,9.064l62.203,32.093c1.468,0.757,3.072,1.135,4.676,1.135c1.604,0,3.21-0.378,4.676-1.135l62.202-32.093
			c3.392-1.75,5.523-5.247,5.523-9.064S234.684,201.433,231.291,199.683z M164.413,229.363l-39.959-20.616l39.959-20.617
			l39.958,20.617L164.413,229.363z"/>
	</g>
</g>
<g>
	<g>
		<path d="M322.879,246.936l-62.203-32.093c-2.934-1.514-6.418-1.514-9.353,0l-62.203,32.093c-3.391,1.75-5.523,5.247-5.523,9.064
			c0,3.817,2.131,7.314,5.523,9.064l62.203,32.094c1.468,0.757,3.072,1.135,4.676,1.135c1.604,0,3.209-0.378,4.676-1.135
			l62.203-32.094c3.392-1.75,5.523-5.247,5.523-9.064C328.402,252.184,326.271,248.686,322.879,246.936z M256,276.617L216.041,256
			L256,235.384L295.959,256L256,276.617z"/>
	</g>
</g>
<g>
	<g>
		<path d="M414.466,294.19l-62.203-32.094c-2.934-1.514-6.418-1.514-9.353,0l-62.202,32.094c-3.392,1.75-5.523,5.247-5.523,9.064
			c0,3.817,2.131,7.314,5.523,9.064l62.202,32.093c1.468,0.757,3.072,1.135,4.676,1.135c1.604,0,3.209-0.378,4.676-1.135
			l62.203-32.093c3.392-1.75,5.523-5.247,5.523-9.064C419.989,299.437,417.858,295.94,414.466,294.19z M347.587,323.87
			l-39.958-20.616l39.958-20.617l39.959,20.617L347.587,323.87z"/>
	</g>
</g>
<g>
	<g>
		<path d="M139.28,247.155l-62.202-32.093c-2.934-1.514-6.418-1.514-9.353,0L5.523,247.155C2.131,248.906,0,252.403,0,256.219
			c0,3.817,2.131,7.314,5.523,9.064l62.203,32.093c1.468,0.757,3.072,1.135,4.676,1.135c1.605,0,3.21-0.378,4.676-1.135
			l62.202-32.093c3.392-1.75,5.523-5.247,5.523-9.064C144.803,252.403,142.673,248.906,139.28,247.155z M72.403,276.835
			l-39.959-20.616l39.959-20.616l39.958,20.616L72.403,276.835z"/>
	</g>
</g>
<g>
	<g>
		<path d="M230.868,294.408l-62.203-32.093c-2.934-1.514-6.418-1.514-9.353,0L97.11,294.408c-3.391,1.75-5.523,5.247-5.523,9.064
			c0,3.817,2.131,7.314,5.523,9.064l62.203,32.094c1.468,0.757,3.072,1.135,4.676,1.135c1.604,0,3.21-0.378,4.676-1.135
			l62.203-32.094c3.392-1.75,5.523-5.247,5.523-9.064C236.391,299.656,234.259,296.158,230.868,294.408z M163.989,324.089
			l-39.959-20.617l39.959-20.616l39.959,20.616L163.989,324.089z"/>
	</g>
</g>
<g>
	<g>
		<path d="M322.455,341.662l-62.203-32.094c-2.934-1.514-6.418-1.514-9.353,0l-62.202,32.094c-3.392,1.75-5.523,5.247-5.523,9.064
			s2.131,7.314,5.523,9.064l62.202,32.093c1.468,0.757,3.072,1.135,4.676,1.135c1.604,0,3.209-0.378,4.676-1.135l62.203-32.093
			c3.391-1.75,5.523-5.247,5.523-9.064S325.847,343.412,322.455,341.662z M255.576,371.342l-39.958-20.616l39.958-20.617
			l39.959,20.617L255.576,371.342z"/>
	</g>
</g>
<g>
</g>
<g>
</g>
<g>
</g>
<g>
</g>
<g>
</g>
<g>
</g>
<g>
</g>
<g>
</g>
<g>
</g>
<g>
</g>
<g>
</g>
<g>
</g>
<g>
</g>
<g>
</g>
<g>
</g>
</svg>
