<?xml version="1.0" encoding="iso-8859-1"?>
<!-- Generator: Adobe Illustrator 19.0.0, SVG Export Plug-In . SVG Version: 6.00 Build 0)  -->
<svg version="1.1" id="Layer_1" xmlns="http://www.w3.org/2000/svg" xmlns:xlink="http://www.w3.org/1999/xlink" x="0px" y="0px"
	 viewBox="0 0 512 512" style="enable-background:new 0 0 512 512;" xml:space="preserve">
<g>
	<g>
		<path d="M511.234,237.405l-44.432-108.049c-1.573-3.825-5.297-6.32-9.433-6.32H341.22v-19.948c0-5.632-4.566-10.199-10.199-10.199
			H10.199C4.566,92.888,0,97.455,0,103.087V372.56c0,5.632,4.566,10.199,10.199,10.199h29.466
			c4.664,20.777,23.248,36.353,45.413,36.353s40.749-15.575,45.413-36.353h232.313c4.664,20.777,23.248,36.353,45.413,36.353
			s40.749-15.575,45.413-36.353h48.17c5.633,0,10.199-4.567,10.199-10.199V241.284C512,239.953,511.74,238.635,511.234,237.405z
			 M20.398,113.287h300.424v176.395H20.398V113.287z M85.079,398.713c-14.422,0-26.154-11.732-26.154-26.154
			s11.732-26.155,26.154-26.155c14.422,0,26.154,11.733,26.154,26.155S99.499,398.713,85.079,398.713z M408.217,398.713
			c-14.422,0-26.154-11.732-26.154-26.154s11.732-26.155,26.154-26.155s26.155,11.733,26.155,26.155
			S422.639,398.713,408.217,398.713z M491.602,277.536h-15.046c-5.633,0-10.199,4.567-10.199,10.199
			c0,5.632,4.566,10.199,10.199,10.199h15.046v11.916h-15.046c-5.633,0-10.199,4.567-10.199,10.199
			c0,5.632,4.566,10.199,10.199,10.199h15.046v32.112h-37.971c-4.664-20.778-23.248-36.354-45.414-36.354
			c-22.165,0-40.749,15.575-45.413,36.354H130.492c-4.664-20.778-23.248-36.354-45.413-36.354S44.33,341.581,39.666,362.36H20.398
			v-52.28h310.623c5.633,0,10.199-4.567,10.199-10.199V143.433h109.315l41.066,99.865V277.536z"/>
	</g>
</g>
<g>
	<g>
		<path d="M475.833,240.298l-32.877-76.746c-1.606-3.751-5.294-6.184-9.375-6.184h-40.84c-5.633,0-10.199,4.567-10.199,10.199
			v76.746c0,5.632,4.566,10.199,10.199,10.199h73.716c3.429,0,6.628-1.722,8.515-4.583
			C476.859,247.067,477.182,243.449,475.833,240.298z M402.941,234.115v-56.348h23.913l24.138,56.348H402.941z"/>
	</g>
</g>
<g>
	<g>
		<path d="M446.477,277.536h-3.124c-5.633,0-10.199,4.567-10.199,10.199c0,5.632,4.566,10.199,10.199,10.199h3.124
			c5.633,0,10.199-4.567,10.199-10.199C456.676,282.103,452.11,277.536,446.477,277.536z"/>
	</g>
</g>
<g>
	<g>
		<path d="M250.54,198.852l-70.542-68.482c-3.957-3.843-10.251-3.843-14.208,0l-70.54,68.482c-2.979,2.893-3.908,7.303-2.348,11.151
			c1.56,3.848,5.298,6.366,9.452,6.366h10.461v47.069c0,5.632,4.566,10.199,10.199,10.199h99.76c5.633,0,10.199-4.567,10.199-10.199
			v-47.069h10.462c4.153,0,7.891-2.518,9.452-6.366C254.449,206.155,253.521,201.744,250.54,198.852z M212.576,206.17v47.069
			h-79.362V206.17c0-4.308-2.67-7.991-6.446-9.486l46.127-44.78l46.127,44.78C215.246,198.179,212.576,201.862,212.576,206.17z"/>
	</g>
</g>
<g>
</g>
<g>
</g>
<g>
</g>
<g>
</g>
<g>
</g>
<g>
</g>
<g>
</g>
<g>
</g>
<g>
</g>
<g>
</g>
<g>
</g>
<g>
</g>
<g>
</g>
<g>
</g>
<g>
</g>
</svg>
