<?xml version="1.0" encoding="iso-8859-1"?>
<!-- Generator: Adobe Illustrator 19.0.0, SVG Export Plug-In . SVG Version: 6.00 Build 0)  -->
<svg version="1.1" id="Layer_1" xmlns="http://www.w3.org/2000/svg" xmlns:xlink="http://www.w3.org/1999/xlink" x="0px" y="0px"
	 viewBox="0 0 512 512" style="enable-background:new 0 0 512 512;" xml:space="preserve">
<g>
	<g>
		<path d="M442.159,0H69.841c-5.633,0-10.199,4.567-10.199,10.199v491.602c0,5.632,4.566,10.199,10.199,10.199h372.318
			c5.633,0,10.199-4.567,10.199-10.199V10.199h0C452.358,4.567,447.792,0,442.159,0z M265.913,20.398H431.96v226.777
			c-4.879-3.294-10.384-5.132-16.248-5.132H265.913V20.398z M431.96,288.291v11.912c-1.639,15.134-9.306,25.85-16.248,25.85
			c-7.823,0-16.573-13.602-16.573-31.805c0-18.203,8.75-31.805,16.573-31.805C422.654,262.442,430.321,273.157,431.96,288.291z
			 M386.204,326.052H235.693c-7.823,0-16.573-13.602-16.573-31.805c0-18.203,8.75-31.805,16.573-31.805h150.511
			c-4.698,8.751-7.464,19.735-7.464,31.805C378.74,306.317,381.506,317.301,386.204,326.052z M431.961,491.602H80.04V20.398h165.475
			v221.645h-9.821c-20.732,0-36.971,22.93-36.971,52.204s16.239,52.204,36.971,52.204h180.018c5.865,0,11.369-1.838,16.248-5.132
			V491.602z"/>
	</g>
</g>
<g>
	<g>
		<path d="M411.886,30.598c-5.633,0-10.199,4.567-10.199,10.199v84.653c0,5.632,4.566,10.199,10.199,10.199
			c5.633,0,10.199-4.567,10.199-10.199V40.797C422.085,35.165,417.519,30.598,411.886,30.598z"/>
	</g>
</g>
<g>
	<g>
		<path d="M411.886,149.928c-5.633,0-10.199,4.567-10.199,10.199v7.139c0,5.632,4.566,10.199,10.199,10.199
			c5.633,0,10.199-4.567,10.199-10.199v-7.139C422.085,154.495,417.519,149.928,411.886,149.928z"/>
	</g>
</g>
<g>
</g>
<g>
</g>
<g>
</g>
<g>
</g>
<g>
</g>
<g>
</g>
<g>
</g>
<g>
</g>
<g>
</g>
<g>
</g>
<g>
</g>
<g>
</g>
<g>
</g>
<g>
</g>
<g>
</g>
</svg>
