<?xml version="1.0" encoding="iso-8859-1"?>
<!-- Generator: Adobe Illustrator 19.0.0, SVG Export Plug-In . SVG Version: 6.00 Build 0)  -->
<svg version="1.1" id="Layer_1" xmlns="http://www.w3.org/2000/svg" xmlns:xlink="http://www.w3.org/1999/xlink" x="0px" y="0px"
	 viewBox="0 0 511.998 511.998" style="enable-background:new 0 0 511.998 511.998;" xml:space="preserve">
<g>
	<g>
		<path d="M494.019,74.632L456.16,36.773c-19.36-19.359-50.858-19.358-70.219,0c-3.983,3.983-3.983,10.442,0,14.426l56.59,56.59
			c2.615,2.614,2.615,6.87-0.021,9.508l-22.185,22.324l-62.997-62.996c-3.984-3.982-10.441-3.982-14.426,0L14.519,405.006
			c-19.359,19.359-19.359,50.859,0,70.219c9.68,9.679,22.395,14.519,35.11,14.519c12.715,0,25.429-4.84,35.109-14.519
			l136.457-136.457l15.516-2.92l-43.653,43.654c-5.653,5.652-8.766,13.166-8.766,21.16s3.113,15.508,8.765,21.161
			c5.835,5.835,13.497,8.751,21.16,8.751c7.664,0,15.327-2.916,21.161-8.751l74.085-74.086l11.119,11.119
			c1.992,1.991,4.602,2.988,7.213,2.988c2.61,0,5.22-0.997,7.213-2.988l35.867-35.867c1.913-1.914,2.988-4.507,2.988-7.213
			c0-2.705-1.075-5.299-2.988-7.213l-4.743-4.743l69.701-69.701c8.372-8.372,13.511-18.765,15.446-29.623l42.738-42.908
			C517.992,137.614,517.992,98.607,494.019,74.632z M220.952,407.397c-3.714,3.715-9.757,3.714-13.47,0
			c-1.8-1.799-2.79-4.191-2.79-6.736c0-2.545,0.99-4.936,2.79-6.735l74.085-74.086l13.47,13.47L220.952,407.397z M327.797,337.218
			l-50.135-50.134l21.442-21.442l50.134,50.134L327.797,337.218z M421.409,219.695l-69.702,69.701l-45.392-45.392
			c-1.914-1.913-4.508-2.988-7.213-2.988c-2.705,0-5.3,1.075-7.213,2.988l-35.866,35.867c-3.983,3.983-3.983,10.442,0,14.426
			l11.118,11.118l-4.86,4.86l-47.957,9.027c-2.019,0.379-3.874,1.36-5.327,2.811L70.312,460.799
			c-11.407,11.407-29.963,11.405-41.368,0c-11.406-11.405-11.406-29.963,0-41.368L350.113,98.263l71.295,71.295
			C435.231,183.381,435.231,205.872,421.409,219.695z M479.579,147.178l-30.125,30.246c-2.627-8.156-7.155-15.827-13.618-22.292
			l-1.087-1.087l22.209-22.347c10.568-10.569,10.568-27.767,0-38.336l-48.081-48.081c10.792-4.926,23.987-2.954,32.858,5.916
			l37.859,37.859C495.614,105.078,495.614,131.143,479.579,147.178z"/>
	</g>
</g>
<g>
	<g>
		<path d="M329.515,152.904c-3.983-3.982-10.44-3.982-14.425,0l-40.291,40.291c-3.983,3.983-3.983,10.442,0,14.426
			c1.992,1.991,4.602,2.988,7.213,2.988c2.61,0,5.22-0.997,7.213-2.988l40.291-40.291
			C333.499,163.347,333.499,156.888,329.515,152.904z"/>
	</g>
</g>
<g>
	<g>
		<path d="M358.076,124.343c-3.983-3.982-10.44-3.982-14.425,0l-3.06,3.06c-3.983,3.983-3.983,10.442,0,14.426
			c1.992,1.991,4.602,2.988,7.213,2.988c2.61,0,5.221-0.997,7.213-2.988l3.06-3.06C362.059,134.786,362.059,128.327,358.076,124.343
			z"/>
	</g>
</g>
<g>
</g>
<g>
</g>
<g>
</g>
<g>
</g>
<g>
</g>
<g>
</g>
<g>
</g>
<g>
</g>
<g>
</g>
<g>
</g>
<g>
</g>
<g>
</g>
<g>
</g>
<g>
</g>
<g>
</g>
</svg>
