<?xml version="1.0" encoding="iso-8859-1"?>
<!-- Generator: Adobe Illustrator 19.0.0, SVG Export Plug-In . SVG Version: 6.00 Build 0)  -->
<svg version="1.1" id="Layer_1" xmlns="http://www.w3.org/2000/svg" xmlns:xlink="http://www.w3.org/1999/xlink" x="0px" y="0px"
	 viewBox="0 0 512 512" style="enable-background:new 0 0 512 512;" xml:space="preserve">
<g transform="translate(1 1)">
	<g>
		<g>
			<path d="M340.333-1H229.4c-5.12,0-8.533,3.413-8.533,8.533V75.8c0,5.12,3.413,8.533,8.533,8.533h110.933
				c9.387,0,17.067,7.68,17.067,17.067v401.067c0,5.12,3.413,8.533,8.533,8.533H434.2c5.12,0,8.533-3.413,8.533-8.533V101.4
				C442.733,45.08,396.653-1,340.333-1z M340.333,67.267h-102.4V50.2h102.4c28.16,0,51.2,23.04,51.2,51.2v392.533h-17.067V101.4
				C374.467,82.627,359.107,67.267,340.333,67.267z M425.667,493.933H408.6V101.4c0-37.547-30.72-68.267-68.267-68.267h-102.4
				V16.067h102.4c46.933,0,85.333,38.4,85.333,85.333V493.933z"/>
			<path d="M246.467,109.933H152.6c-5.12,0-8.533,3.413-8.533,8.533v68.267c0,5.12,3.413,8.533,8.533,8.533h85.333
				c5.12,0,8.533,3.413,8.533,8.533v298.667c0,5.12,3.413,8.533,8.533,8.533h68.267c5.12,0,8.533-3.413,8.533-8.533v-307.2
				C331.8,148.333,293.4,109.933,246.467,109.933z M237.933,178.2h-76.8v-17.067h85.333c18.773,0,34.133,15.36,34.133,34.133
				v298.667h-17.067V203.8C263.533,189.293,252.44,178.2,237.933,178.2z M314.733,493.933h-17.067V195.267
				c0-28.16-23.04-51.2-51.2-51.2h-85.333V127h85.333c37.547,0,68.267,30.72,68.267,68.267V493.933z"/>
			<path d="M144.067,220.867H75.8c-5.12,0-8.533,3.413-8.533,8.533v68.267c0,5.12,3.413,8.533,8.533,8.533h59.733v196.267
				c0,5.12,3.413,8.533,8.533,8.533h68.267c5.12,0,8.533-3.413,8.533-8.533v-204.8C220.867,255,186.733,220.867,144.067,220.867z
				 M135.533,289.133h-51.2v-17.067h59.733c14.507,0,25.6,11.093,25.6,25.6v196.267H152.6V306.2
				C152.6,296.813,144.92,289.133,135.533,289.133z M203.8,493.933h-17.067V297.667c0-23.893-18.773-42.667-42.667-42.667H84.333
				v-17.067h59.733c33.28,0,59.733,26.453,59.733,59.733V493.933z"/>
		</g>
	</g>
</g>
<g>
</g>
<g>
</g>
<g>
</g>
<g>
</g>
<g>
</g>
<g>
</g>
<g>
</g>
<g>
</g>
<g>
</g>
<g>
</g>
<g>
</g>
<g>
</g>
<g>
</g>
<g>
</g>
<g>
</g>
</svg>
