<?xml version="1.0" encoding="iso-8859-1"?>
<!-- Generator: Adobe Illustrator 19.0.0, SVG Export Plug-In . SVG Version: 6.00 Build 0)  -->
<svg version="1.1" id="Layer_1" xmlns="http://www.w3.org/2000/svg" xmlns:xlink="http://www.w3.org/1999/xlink" x="0px" y="0px"
	 viewBox="0 0 512 512" style="enable-background:new 0 0 512 512;" xml:space="preserve">
<g transform="translate(1 1)">
	<g>
		<g>
			<path d="M301.933-1H191c-5.12,0-8.533,3.413-8.533,8.533V75.8c0,5.12,4.267,8.533,8.533,8.533h110.933
				c9.387,0,17.067,7.68,17.067,17.067v401.067c0,5.12,3.413,8.533,8.533,8.533H395.8c5.12,0,8.533-3.413,8.533-8.533V101.4
				C404.333,45.08,358.253-1,301.933-1z M301.933,67.267h-102.4V50.2h102.4c28.16,0,51.2,23.04,51.2,51.2v392.533h-17.067V101.4
				C336.067,82.627,320.707,67.267,301.933,67.267z M387.267,493.933H370.2V101.4c0-37.547-30.72-68.267-68.267-68.267h-102.4
				V16.067h102.4c46.933,0,85.333,38.4,85.333,85.333V493.933z"/>
			<path d="M208.067,109.933H114.2c-5.12,0-8.533,3.413-8.533,8.533v68.267c0,5.12,3.413,8.533,8.533,8.533h85.333
				c5.12,0,8.533,3.413,8.533,8.533v298.667c0,5.12,3.413,8.533,8.533,8.533h68.267c5.12,0,8.533-3.413,8.533-8.533v-307.2
				C293.4,148.333,255,109.933,208.067,109.933z M199.533,178.2h-76.8v-17.067h85.333c18.773,0,34.133,15.36,34.133,34.133v298.667
				h-17.067V203.8C225.133,189.293,214.04,178.2,199.533,178.2z M276.333,493.933h-17.067V195.267c0-28.16-23.04-51.2-51.2-51.2
				h-85.333V127h85.333c37.547,0,68.267,30.72,68.267,68.267V493.933z"/>
		</g>
	</g>
</g>
<g>
</g>
<g>
</g>
<g>
</g>
<g>
</g>
<g>
</g>
<g>
</g>
<g>
</g>
<g>
</g>
<g>
</g>
<g>
</g>
<g>
</g>
<g>
</g>
<g>
</g>
<g>
</g>
<g>
</g>
</svg>
