<?xml version="1.0" encoding="iso-8859-1"?>
<!-- Generator: Adobe Illustrator 19.0.0, SVG Export Plug-In . SVG Version: 6.00 Build 0)  -->
<svg version="1.1" id="Layer_1" xmlns="http://www.w3.org/2000/svg" xmlns:xlink="http://www.w3.org/1999/xlink" x="0px" y="0px"
	 viewBox="0 0 512 512" style="enable-background:new 0 0 512 512;" xml:space="preserve">
<g transform="translate(1 1)">
	<g>
		<path d="M272.067-1h-128c-5.12,0-8.533,3.413-8.533,8.533V75.8c0,5.12,3.413,8.533,8.533,8.533h128
			c9.387,0,17.067,7.68,17.067,17.067v401.067c0,5.12,3.413,8.533,8.533,8.533h68.267c5.12,0,8.533-3.413,8.533-8.533V101.4
			C374.467,45.08,328.387-1,272.067-1z M272.067,67.267H152.6V50.2h119.467c28.16,0,51.2,23.04,51.2,51.2v392.533H306.2V101.4
			C306.2,82.627,290.84,67.267,272.067,67.267z M357.4,493.933h-17.067V101.4c0-37.547-30.72-68.267-68.267-68.267H152.6V16.067
			h119.467c46.933,0,85.333,38.4,85.333,85.333V493.933z"/>
	</g>
</g>
<g>
</g>
<g>
</g>
<g>
</g>
<g>
</g>
<g>
</g>
<g>
</g>
<g>
</g>
<g>
</g>
<g>
</g>
<g>
</g>
<g>
</g>
<g>
</g>
<g>
</g>
<g>
</g>
<g>
</g>
</svg>
