<?xml version="1.0" encoding="iso-8859-1"?>
<!-- Generator: Adobe Illustrator 19.0.0, SVG Export Plug-In . SVG Version: 6.00 Build 0)  -->
<svg version="1.1" id="Layer_1" xmlns="http://www.w3.org/2000/svg" xmlns:xlink="http://www.w3.org/1999/xlink" x="0px" y="0px"
	 viewBox="0 0 513.397 513.397" style="enable-background:new 0 0 513.397 513.397;" xml:space="preserve">
<g transform="translate(1 1)">
	<g>
		<path d="M388.498,23.437L379.112,3.81c-1.707-3.413-5.973-5.973-10.24-4.267l-46.933,15.36c-1.922,0.641-3.362,1.762-4.322,3.364
			C283.459,28.836,248.492,34.53,212.712,34.53h-8.533V8.93c0-5.12-3.413-8.533-8.533-8.533h-68.267
			c-5.12,0-8.533,3.413-8.533,8.533v25.6h-8.533c-5.12,0-8.533,3.413-8.533,8.533v153.6c0,5.12,3.413,8.533,8.533,8.533h11.093
			l1.707,5.12c7.68,41.813,5.973,93.867-6.827,133.973v0.853c-5.67,28.866-6.974,58.977-4.113,88.642
			c-0.1,0.576-0.153,1.18-0.153,1.811c0,1.405,0.265,2.676,0.744,3.789c2.006,17.537,5.463,34.881,10.349,51.678l4.267,15.36
			c1.707,3.413,5.12,5.973,8.533,5.973h68.267c2.56,0,5.12-0.853,5.973-2.56c1.707-2.56,2.56-5.12,1.707-7.68l-4.267-15.36
			c-12.8-45.227-15.36-92.16-7.68-138.24c13.653-43.52,16.213-98.133,6.827-143.36v0h5.973c36.605,0,72.361,5.098,107.267,16.984
			c0.588,0.378,1.235,0.695,1.959,0.936l46.933,15.36c0.853,0.853,1.707,0.853,2.56,0.853c3.413,0,6.827-1.707,7.68-5.12
			l9.387-19.627c14.204-30.56,21.233-63.074,21.108-95.571C409.732,86.514,402.703,53.998,388.498,23.437z M373.138,206.903
			l-5.973,12.8l-30.47-9.949l3.163-7.117c23.893-52.053,23.893-111.787,0-163.84l-3.413-8.533l30.72-10.24l5.973,12.8
			c12.739,27.601,19.134,57.316,19.194,87.04C392.272,149.588,385.877,179.302,373.138,206.903z M135.912,17.463h51.2V34.53h-51.2
			V17.463z M191.378,210.317c7.68,41.813,5.973,93.867-6.827,133.973v0.853c-9.387,47.787-6.827,98.987,7.68,145.92l0.853,4.267
			h-50.347l-3.413-8.533c-0.803-2.838-1.566-5.683-2.288-8.533h15.942c5.12,0,8.533-3.413,8.533-8.533s-3.413-8.533-8.533-8.533
			H133.21c-1.108-5.675-2.054-11.366-2.84-17.067h14.075c5.12,0,8.533-3.413,8.533-8.533s-3.413-8.533-8.533-8.533h-15.941
			c-2.104-26.019-0.826-52.108,3.994-77.653c13.653-43.52,16.213-98.133,6.827-143.36c0-0.853,0-0.853,0-0.853h50.347
			L191.378,210.317z M195.645,188.13h-68.267h-8.533V51.597h8.533h68.267h17.067c36.6,0,73.195-5.441,107.578-17.033l4.209,9.353
			c22.187,47.787,22.187,102.4,0,150.187l-4.603,10.228c-34.958-10.793-70.684-16.202-107.184-16.202H195.645z"/>
	</g>
</g>
<g>
</g>
<g>
</g>
<g>
</g>
<g>
</g>
<g>
</g>
<g>
</g>
<g>
</g>
<g>
</g>
<g>
</g>
<g>
</g>
<g>
</g>
<g>
</g>
<g>
</g>
<g>
</g>
<g>
</g>
</svg>
