<?xml version="1.0" encoding="iso-8859-1"?>
<!-- Generator: Adobe Illustrator 19.0.0, SVG Export Plug-In . SVG Version: 6.00 Build 0)  -->
<svg version="1.1" id="Layer_1" xmlns="http://www.w3.org/2000/svg" xmlns:xlink="http://www.w3.org/1999/xlink" x="0px" y="0px"
	 viewBox="0 0 503.018 503.018" style="enable-background:new 0 0 503.018 503.018;" xml:space="preserve">
<g transform="translate(1 1)">
	<g>
		<g>
			<path d="M475.07,97.807h-26.947V70.86c0-14.372-11.677-26.947-26.947-26.947h-35.93c-14.372,0-26.947,11.677-26.947,26.947
				v26.947h-26.947c-15.27,0-26.947,11.677-26.947,26.947v17.965c0,3.175,0.511,6.191,1.448,8.982H195.166
				c0.937-2.792,1.448-5.808,1.448-8.982v-17.965c0-15.27-11.677-26.947-26.947-26.947h-26.947V70.86
				c0-14.372-11.677-26.947-26.947-26.947h-35.93c-14.372,0-26.947,11.677-26.947,26.947v26.947H25.947
				C10.677,97.807-1,109.484-1,124.754v35.93v215.579v53.895c0,15.27,11.677,26.947,26.947,26.947H475.07
				c15.27,0,26.947-11.677,26.947-26.947v-53.895V160.684v-35.93C502.018,109.484,490.34,97.807,475.07,97.807z M484.053,367.281
				H16.965V169.667h152.702h161.684h152.702V367.281z M377.161,70.86c0-4.491,3.593-8.982,8.982-8.982h35.032
				c4.491,0,8.982,3.593,8.982,8.982v26.947h-52.997V70.86z M322.368,142.719v-17.965c0-5.389,3.593-8.982,8.982-8.982h35.93h71.86
				h35.93c5.389,0,8.982,3.593,8.982,8.982v26.947H331.351C325.961,151.702,322.368,148.109,322.368,142.719z M70.86,70.86
				c0-4.491,4.491-8.982,9.881-8.982h35.032c4.491,0,8.982,3.593,8.982,8.982v26.947H70.86V70.86z M16.965,124.754
				c0-4.491,4.491-8.982,8.982-8.982h35.93h71.86h35.93c5.389,0,8.982,3.593,8.982,8.982v17.965c0,5.389-3.593,8.982-8.982,8.982
				H16.965V124.754z M484.053,430.158c0,5.389-3.593,8.982-8.982,8.982H25.947c-5.389,0-8.982-3.593-8.982-8.982v-44.912h467.088
				V430.158z"/>
			<path d="M313.386,250.509v35.93c0,5.389,3.593,8.982,8.982,8.982h125.754c5.389,0,8.982-3.593,8.982-8.982v-35.93
				c0-5.389-3.593-8.982-8.982-8.982H322.368C316.979,241.526,313.386,245.119,313.386,250.509z M331.351,259.491H439.14v17.965
				H331.351V259.491z"/>
			<path d="M178.649,241.526h-35.93v-35.93c0-5.389-3.593-8.982-8.982-8.982h-35.93c-5.389,0-8.982,3.593-8.982,8.982v35.93h-35.93
				c-5.389,0-8.982,3.593-8.982,8.982v35.93c0,5.389,3.593,8.982,8.982,8.982h35.93v35.93c0,5.389,3.593,8.982,8.982,8.982h35.93
				c5.39,0,8.982-3.593,8.982-8.982v-35.93h35.93c5.389,0,8.982-3.593,8.982-8.982v-35.93
				C187.632,245.119,184.039,241.526,178.649,241.526z M169.667,277.456h-35.93c-5.389,0-8.982,3.593-8.982,8.982v35.93h-17.965
				v-35.93c0-5.389-3.593-8.982-8.982-8.982h-35.93v-17.965h35.93c5.389,0,8.982-3.593,8.982-8.982v-35.93h17.965v35.93
				c0,5.389,3.593,8.982,8.982,8.982h35.93V277.456z"/>
		</g>
	</g>
</g>
<g>
</g>
<g>
</g>
<g>
</g>
<g>
</g>
<g>
</g>
<g>
</g>
<g>
</g>
<g>
</g>
<g>
</g>
<g>
</g>
<g>
</g>
<g>
</g>
<g>
</g>
<g>
</g>
<g>
</g>
</svg>
