<?xml version="1.0" encoding="iso-8859-1"?>
<!-- Generator: Adobe Illustrator 19.0.0, SVG Export Plug-In . SVG Version: 6.00 Build 0)  -->
<svg version="1.1" id="Layer_1" xmlns="http://www.w3.org/2000/svg" xmlns:xlink="http://www.w3.org/1999/xlink" x="0px" y="0px"
	 viewBox="0 0 512 512" style="enable-background:new 0 0 512 512;" xml:space="preserve">
<g transform="translate(1 1)">
	<g>
		<g>
			<path d="M348.867,50.2h-34.133V24.6c0-13.653-11.093-25.6-25.6-25.6h-68.267c-13.653,0-25.6,11.093-25.6,25.6v25.6h-34.133
				c-14.507,0-25.6,11.093-25.6,25.6v409.6c0,14.507,11.093,25.6,25.6,25.6h187.733c14.507,0,25.6-11.093,25.6-25.6V75.8
				C374.467,61.293,363.373,50.2,348.867,50.2z M212.333,24.6c0-4.267,4.267-8.533,8.533-8.533h68.267
				c4.267,0,8.533,3.413,8.533,8.533v25.6h-85.333V24.6z M357.4,485.4c0,5.12-3.413,8.533-8.533,8.533H161.133
				c-5.12,0-8.533-3.413-8.533-8.533V75.8c0-4.267,4.267-8.533,8.533-8.533H203.8h102.4h42.667c5.12,0,8.533,3.413,8.533,8.533
				V485.4z"/>
			<path d="M263.533,152.6v-17.067c0-5.12-3.413-8.533-8.533-8.533c-5.12,0-8.533,3.413-8.533,8.533V152.6H229.4
				c-5.12,0-8.533,3.413-8.533,8.533s3.413,8.533,8.533,8.533h17.067v17.067c0,5.12,3.413,8.533,8.533,8.533
				c5.12,0,8.533-3.413,8.533-8.533v-17.067H280.6c5.12,0,8.533-3.413,8.533-8.533s-3.413-8.533-8.533-8.533H263.533z"/>
			<path d="M255,101.4c-33.28,0-59.733,26.453-59.733,59.733c0,33.28,26.453,59.733,59.733,59.733
				c33.28,0,59.733-26.453,59.733-59.733C314.733,127.853,288.28,101.4,255,101.4z M255,203.8
				c-23.893,0-42.667-18.773-42.667-42.667c0-23.893,18.773-42.667,42.667-42.667s42.667,18.773,42.667,42.667
				C297.667,185.027,278.893,203.8,255,203.8z"/>
			<path d="M229.4,391.533c-5.12,0-8.533,3.413-8.533,8.533c0,5.12,3.413,8.533,8.533,8.533h51.2c5.12,0,8.533-3.413,8.533-8.533
				c0-5.12-3.413-8.533-8.533-8.533H229.4z"/>
			<path d="M255,340.333c-33.28,0-59.733,26.453-59.733,59.733c0,33.28,26.453,59.733,59.733,59.733
				c33.28,0,59.733-26.453,59.733-59.733C314.733,366.787,288.28,340.333,255,340.333z M255,442.733
				c-23.893,0-42.667-18.773-42.667-42.667c0-23.893,18.773-42.667,42.667-42.667s42.667,18.773,42.667,42.667
				C297.667,423.96,278.893,442.733,255,442.733z"/>
		</g>
	</g>
</g>
<g>
</g>
<g>
</g>
<g>
</g>
<g>
</g>
<g>
</g>
<g>
</g>
<g>
</g>
<g>
</g>
<g>
</g>
<g>
</g>
<g>
</g>
<g>
</g>
<g>
</g>
<g>
</g>
<g>
</g>
</svg>
