<?xml version="1.0" encoding="iso-8859-1"?>
<!-- Generator: Adobe Illustrator 19.0.0, SVG Export Plug-In . SVG Version: 6.00 Build 0)  -->
<svg version="1.1" id="Layer_1" xmlns="http://www.w3.org/2000/svg" xmlns:xlink="http://www.w3.org/1999/xlink" x="0px" y="0px"
	 viewBox="0 0 511.949 511.949" style="enable-background:new 0 0 511.949 511.949;" xml:space="preserve">
<g transform="translate(1 1)">
	<g>
		<path d="M357.374,161.082h-8.533v-8.533c0-33.28-26.453-59.733-59.733-59.733h-68.267c-5.12,0-8.533-3.413-8.533-8.533v-8.533
			h25.6c5.12,0,8.533-3.413,8.533-8.533v-8.533c0-23.893-13.653-46.08-34.987-54.613c-13.653-5.973-29.867-6.827-44.373-1.707
			c-23.893,7.68-40.107,30.72-40.107,56.32v8.533c0,5.12,3.413,8.533,8.533,8.533h25.6v8.533c0,33.28,26.453,59.733,59.733,59.733
			h68.267c5.12,0,8.533,3.413,8.533,8.533v8.533h-8.533c-14.507,0-25.6,11.093-25.6,25.6v51.2c0,14.507,11.093,25.6,25.6,25.6h8.533
			v8.533c0,5.12-3.413,8.533-8.533,8.533h-68.267c-33.28,0-59.733,26.453-59.733,59.733h-8.533c-5.12,0-8.533,3.413-8.533,8.533
			v25.6c0,2.56,1.707,5.12,3.413,6.827l13.653,10.24v93.867c0,2.56,0.853,4.267,2.56,5.973l17.067,17.067
			c1.707,1.707,3.413,2.56,5.973,2.56s4.267-0.853,5.973-2.56l17.067-17.067c1.707-1.707,2.56-3.413,2.56-5.973v-93.867
			l13.653-10.24c2.56-1.707,3.413-4.267,3.413-6.827v-25.6c0-5.12-3.413-8.533-8.533-8.533h-8.533c0-5.12,3.413-8.533,8.533-8.533
			h68.267c33.28,0,59.733-26.453,59.733-59.733v-8.533h8.533c14.507,0,25.6-11.093,25.6-25.6v-51.2
			C382.974,172.175,371.881,161.082,357.374,161.082z M172.201,18.575c11.093-3.413,22.187-3.413,32.427,0.853
			c15.36,6.827,24.747,22.187,24.747,39.253h-25.6h-34.133h-25.6C144.041,39.909,155.988,23.695,172.201,18.575z M289.108,126.949
			h-68.267c-23.893,0-42.667-18.773-42.667-42.667v-8.533h17.067v8.533c0,14.507,11.093,25.6,25.6,25.6h68.267
			c23.893,0,42.667,18.773,42.667,42.667v8.533h-17.067v-8.533C314.708,138.042,303.614,126.949,289.108,126.949z M195.241,404.282
			v77.653l-8.533,8.533l-8.533-8.533v-77.653l3.413,2.56c3.413,2.56,6.827,2.56,10.24,0L195.241,404.282z M212.308,370.149
			l-25.597,18.771l-0.003,0.002l-0.003-0.002l-25.597-18.771v-12.8h8.533h34.133h8.533V370.149z M331.774,272.015
			c0,23.893-18.773,42.667-42.667,42.667h-68.267c-14.507,0-25.6,11.093-25.6,25.6h-17.067c0-23.893,19.627-42.667,42.667-42.667
			h68.267c14.507,0,25.6-11.093,25.6-25.6v-8.533h17.067V272.015z M365.908,237.882c0,5.12-3.413,8.533-8.533,8.533h-17.067h-34.133
			h-17.067c-5.12,0-8.533-3.413-8.533-8.533v-51.2c0-5.12,3.413-8.533,8.533-8.533h17.067h34.133h17.067
			c5.12,0,8.533,3.413,8.533,8.533V237.882z"/>
	</g>
</g>
<g>
</g>
<g>
</g>
<g>
</g>
<g>
</g>
<g>
</g>
<g>
</g>
<g>
</g>
<g>
</g>
<g>
</g>
<g>
</g>
<g>
</g>
<g>
</g>
<g>
</g>
<g>
</g>
<g>
</g>
</svg>
