<?xml version="1.0" encoding="iso-8859-1"?>
<!-- Generator: Adobe Illustrator 19.0.0, SVG Export Plug-In . SVG Version: 6.00 Build 0)  -->
<svg version="1.1" id="Layer_1" xmlns="http://www.w3.org/2000/svg" xmlns:xlink="http://www.w3.org/1999/xlink" x="0px" y="0px"
	 viewBox="0 0 512 512" style="enable-background:new 0 0 512 512;" xml:space="preserve">
<g transform="translate(1 1)">
	<g>
		<path d="M497.983,215.949h-27.134c2.111-5.922,1.906-12.737-0.636-19.092L392.98,11.149C390.376,3.339,383.434-1,375.624-1
			c-7.81,0-13.885,4.339-17.356,11.281l-55.389,136.244H255h-52.068V85.78c0-5.207-3.471-8.678-8.678-8.678H72.763H12.017
			c-5.207,0-8.678,3.471-8.678,8.678v69.424v69.424v69.424v69.424v69.424v69.424c0,5.207,3.471,8.678,8.678,8.678h121.492H255
			h121.492h121.492c5.207,0,8.678-3.471,8.678-7.81v-69.424c0-0.148-0.013-0.289-0.018-0.434c0.006-0.145,0.018-0.286,0.018-0.434
			v-69.424v-69.424v-69.424C506.661,219.42,503.19,215.949,497.983,215.949z M380.068,493.411c-1.064-0.413-2.265-0.634-3.576-0.634
			c-11.353,0-20.644-6.685-24.326-16.488h15.648c5.207,0,8.678-3.471,8.678-8.678s-3.471-8.678-8.678-8.678h-17.356v-17.356h17.356
			c5.207,0,8.678-3.471,8.678-8.678s-3.471-8.678-8.678-8.678h-14.469c5.837-17.293,7.484-41.125,4.923-61.614c0,0,0,0,0,0
			c-0.616-6.779-2.114-14.868-4.792-22.408c-0.122-0.353-0.249-0.696-0.375-1.041c-0.044-0.118-0.087-0.237-0.132-0.355
			c-1.011-2.727-2.133-5.232-3.379-7.436l-6.942-17.356c-0.868-2.603-0.868-5.207,0.868-7.81c1.736-1.736,4.339-3.471,6.942-3.471
			h8.678h34.712h8.678c2.603,0,5.207,1.736,6.075,3.471c1.736,2.603,1.736,5.207,0.868,7.81l-6.942,17.356
			c-5.207,8.678-7.81,21.695-8.678,31.241c0,0.489,0.076,0.976,0.181,1.46c-1.856,20.827,0.518,44.687,5.893,61.89
			c0.868,2.603,0.868,5.207,1.736,8.678c0.506,1.518,0.713,3.03,0.801,4.376c0.043,0.884,0.067,1.748,0.067,2.567v26.034
			C402.525,481.145,393.027,491.75,380.068,493.411z M255,424.22h-52.068v-52.068H255h52.068v52.068H255z M133.508,424.22H81.441
			v-52.068h52.068h52.068v52.068H133.508z M20.695,424.22v-52.068h43.39v52.068H20.695z M72.763,163.881h52.068v52.068H72.763
			H20.695v-52.068H72.763z M255,233.305h52.068v52.068H255h-52.068v-52.068H255z M350.458,233.305v52.068h-26.034v-52.068H350.458z
			 M428.559,233.305v52.068h-26.034v-52.068H428.559z M489.305,354.797h-51.2h-0.868h-22.401c1.18-6.299,2.866-11.699,5.045-15.62
			v-0.868l6.942-18.224c1.887-5.661,1.941-11.775,0.18-17.356h10.233h52.068V354.797z M418.146,419.881
			c-4.209-14.032-5.894-31.841-5.197-47.729h15.611v52.068h-8.97C419.181,422.661,418.706,421.188,418.146,419.881z
			 M446.783,372.153h42.522v52.068h-42.522V372.153z M385.169,285.373h-17.356v-52.068h17.356V285.373z M315.746,354.797h-52.068
			v-52.068h52.068h9.546c-0.712,2.135-1.126,4.418-1.194,6.785c-0.002,0.036-0.002,0.072-0.003,0.108
			c-0.006,0.267-0.008,0.536-0.005,0.805c-0.005,3.247,0.677,6.522,2.07,9.658l7.81,19.959c2.603,3.471,4.339,8.678,5.207,14.753
			H315.746z M194.254,354.797h-52.068v-52.068h52.068h52.068v52.068H194.254z M72.763,354.797H20.695v-52.068h52.068h52.068v52.068
			H72.763z M20.695,233.305h43.39v52.068h-43.39V233.305z M185.576,285.373h-52.068H81.441v-52.068h52.068h52.068V285.373z
			 M324.424,372.153h17.356c0.016,0.15,0.026,0.3,0.041,0.45c0.867,16.085-0.589,34.009-4.38,47.279
			c-0.868,1.736-1.736,2.603-1.736,4.339h-11.281V372.153z M489.305,285.373h-43.39v-52.068h43.39V285.373z M373.888,17.224
			c0.868,0,0.868-0.868,1.736-0.868c0.868,0,1.736,0.868,1.736,0.868l75.498,185.708c1.736,2.603,0.868,6.075-0.868,8.678
			s-4.339,4.339-7.81,4.339h-6.942h-43.39h-34.712h-43.39h-4.575c-1.189-0.559-2.568-0.868-4.103-0.868
			c-2.603,0-6.075-1.736-7.81-4.339c-1.007-1.51-1.416-3.026-1.424-4.705c0.044-1.094,0.241-2.157,0.556-3.105L373.888,17.224z
			 M282.791,195.936l-0.022,0.054c-2.717,6.792-2.763,13.583-0.163,19.959h-18.928v-52.068h32.108L282.791,195.936z
			 M246.322,215.949h-52.068h-52.068v-52.068h52.068h52.068V215.949z M185.576,146.525h-52.068H81.441V94.458h104.136V146.525z
			 M20.695,94.458h43.39v52.068h-43.39V94.458z M20.695,441.576h52.068h52.068v52.068H20.695V441.576z M142.186,441.576h52.068
			h52.068v52.068H142.186V441.576z M263.678,441.576h52.068h17.356v26.034c0,0.625,0.017,1.25,0.046,1.875
			c0.371,9.105,3.428,17.41,8.426,24.159h-77.895V441.576z M489.305,493.644h-77.53c5.588-7.21,9.139-16.194,9.841-26.034v-26.034
			h15.62h52.068V493.644z"/>
	</g>
</g>
<g>
</g>
<g>
</g>
<g>
</g>
<g>
</g>
<g>
</g>
<g>
</g>
<g>
</g>
<g>
</g>
<g>
</g>
<g>
</g>
<g>
</g>
<g>
</g>
<g>
</g>
<g>
</g>
<g>
</g>
</svg>
