<?xml version="1.0" encoding="iso-8859-1"?>
<!-- Generator: Adobe Illustrator 19.0.0, SVG Export Plug-In . SVG Version: 6.00 Build 0)  -->
<svg version="1.1" id="Layer_1" xmlns="http://www.w3.org/2000/svg" xmlns:xlink="http://www.w3.org/1999/xlink" x="0px" y="0px"
	 viewBox="0 0 512 512" style="enable-background:new 0 0 512 512;" xml:space="preserve">
<g transform="translate(1 1)">
	<g>
		<path d="M493.933,220.867H434.2h-36.206l16.579-29.013c6.827-11.947,12.8-24.747,17.067-38.4
			c7.68-22.187,11.093-45.227,11.093-68.267V7.533c0-5.12-3.413-8.533-8.533-8.533H263.533C258.413-1,255,2.413,255,7.533v77.653
			c0,22.745,3.335,45.489,10.809,67.413H255h-51.2V92.867c0-5.12-3.413-8.533-8.533-8.533H75.8H16.067
			c-5.12,0-8.533,3.413-8.533,8.533v68.267V229.4v68.267v68.267V434.2v68.267c0,5.12,3.413,8.533,8.533,8.533h119.467H255h85.333
			H357.4h136.533c5.12,0,8.533-3.413,8.533-8.533V434.2v-68.267v-68.267V229.4C502.467,224.28,499.053,220.867,493.933,220.867z
			 M400.067,425.667v-51.2h25.6v51.2H400.067z M434.2,306.2h51.2v51.2h-51.2h-34.133c0-6.827-0.853-12.8-3.413-18.773
			c-3.413-11.093-5.12-22.187-5.12-32.427H434.2z M442.733,374.467H485.4v51.2h-42.667V374.467z M485.4,289.133h-42.667v-51.2H485.4
			V289.133z M425.667,237.933v51.2h-31.573c0.853-4.267,2.56-8.533,5.12-12.8c0.853,0,0.853-0.853,0.853-0.853l6.827-17.92
			c2.56-5.973,2.56-13.653,0-19.627H425.667z M272.067,16.067h153.6v69.12c0,21.333-3.413,41.813-10.24,62.293
			c-4.267,12.8-9.387,24.747-16.213,35.84l-21.333,37.547h-58.027L298.52,183.32c-6.827-11.093-11.947-23.893-16.213-35.84
			c-6.827-19.627-10.24-40.96-10.24-62.293V16.067z M255,425.667h-51.2v-51.2H255h42.667v51.2H255z M135.533,425.667h-51.2v-51.2
			h51.2h51.2v51.2H135.533z M24.6,425.667v-51.2h42.667v51.2H24.6z M75.8,169.667H127v51.2H75.8H24.6v-51.2H75.8z M255,237.933
			h35.538c-2.414,6.015-2.321,13.071,0.302,19.627l6.827,17.067c0,0.853,0.853,1.707,0.853,1.707
			c1.493,2.58,2.746,5.257,3.808,8.023c0.556,1.592,0.994,3.184,1.312,4.777H255h-51.2v-51.2H255z M263.533,169.667h8.533
			c0.437,0.874,0.86,1.719,1.28,2.559c2.964,6.763,6.27,13.426,9.814,19.628l16.579,29.013h-36.206V169.667z M301.08,338.627
			c-2.56,5.973-3.413,12.8-3.413,18.773h-34.133v-51.2H306.2C306.2,315.587,304.493,326.68,301.08,338.627z M195.267,357.4h-51.2
			v-51.2h51.2h51.2v51.2H195.267z M75.8,357.4H24.6v-51.2h51.2H127v51.2H75.8z M24.6,237.933h42.667v51.2H24.6V237.933z
			 M186.733,289.133h-51.2h-51.2v-51.2h51.2h51.2V289.133z M246.467,220.867h-51.2h-51.2v-51.2h51.2h51.2V220.867z M186.733,152.6
			h-51.2h-51.2v-51.2h102.4V152.6z M24.6,101.4h42.667v51.2H24.6V101.4z M24.6,442.733h51.2H127v51.2H24.6V442.733z
			 M144.067,442.733h51.2h51.2v51.2h-102.4V442.733z M263.533,442.733h34.133v25.6c0,0.615,0.016,1.229,0.045,1.843
			c0.365,8.953,3.371,17.12,8.285,23.757h-42.464V442.733z M314.733,468.333v-17.067H331.8c5.12,0,8.533-3.413,8.533-8.533
			s-3.413-8.533-8.533-8.533h-17.067v-17.067H331.8c5.12,0,8.533-3.413,8.533-8.533s-3.413-8.533-8.533-8.533h-17.067v-34.133V357.4
			c0-4.267,0.853-8.533,3.413-12.8v-0.853c5.12-17.92,6.827-33.28,5.12-46.933c-0.2-1.002-0.547-1.953-1.007-2.828
			c-0.171-1.268-0.368-2.521-0.597-3.757c-1.428-8.037-4.325-15.513-7.783-22.429l-6.827-17.067c-1.707-3.413,0-6.826,0.853-8.533
			c0,0,0,0,0,0c2.56-2.56,5.12-4.267,8.533-4.267h65.707c2.56,0,5.973,1.707,7.68,4.267c1.707,3.413,1.707,5.973,0.853,9.387
			l-6.827,17.067c-11.093,18.773-12.8,46.08-3.413,75.947c1.707,4.267,2.56,8.533,2.56,12.8v8.533V434.2v34.133
			c0,13.653-11.093,25.6-25.6,25.6h-17.067C326.68,493.933,314.733,482.84,314.733,468.333z M485.4,493.933h-93.867
			c5.12-6.827,8.533-16.213,8.533-25.6v-25.6H434.2h51.2V493.933z"/>
	</g>
</g>
<g>
</g>
<g>
</g>
<g>
</g>
<g>
</g>
<g>
</g>
<g>
</g>
<g>
</g>
<g>
</g>
<g>
</g>
<g>
</g>
<g>
</g>
<g>
</g>
<g>
</g>
<g>
</g>
<g>
</g>
</svg>
