<?xml version="1.0" encoding="iso-8859-1"?>
<!-- Generator: Adobe Illustrator 19.0.0, SVG Export Plug-In . SVG Version: 6.00 Build 0)  -->
<svg version="1.1" id="Layer_1" xmlns="http://www.w3.org/2000/svg" xmlns:xlink="http://www.w3.org/1999/xlink" x="0px" y="0px"
	 viewBox="0 0 512 512" style="enable-background:new 0 0 512 512;" xml:space="preserve">
<g transform="translate(1 1)">
	<g>
		<path d="M511,101.4c0-5.12-3.413-8.533-8.533-8.533H485.4v-8.533c0-9.387-7.68-17.067-17.067-17.067h-230.4H92.867h-51.2
			c-9.387,0-17.067,7.68-17.067,17.067v8.533H7.533C2.413,92.867-1,96.28-1,101.4c0,42.985,16.058,83.215,42.667,115.323v132.144
			V408.6c0,18.773,15.36,34.133,34.133,34.133h358.4c18.773,0,34.133-15.36,34.133-34.133v-59.733V216.723
			C494.942,184.615,511,144.385,511,101.4z M58.733,234.845c33.958,31.832,79.574,52.327,129.328,54.142
			c3.349,10.182,12.726,17.213,24.272,17.213h85.333c11.546,0,20.923-7.031,24.272-17.213c49.754-1.815,95.37-22.31,129.328-54.142
			v105.489H58.733V234.845z M118.467,169.667c6.576,0,13.149-1.591,18.963-5.521c5.233,13.404,17.894,22.587,32.237,22.587
			c0.175,0,0.348-0.011,0.523-0.013c0.111,0.001,0.22,0.013,0.331,0.013c18.773,0,34.133-15.36,34.133-34.133v-10.773
			c1.571,0.586,3.141,1.057,4.712,1.412c9.627,2.498,21.276-0.413,28.568-7.705h213.333V203.8H58.733v-68.267h25.6
			C84.333,154.307,99.693,169.667,118.467,169.667z M321.841,271.914C318.407,261.893,309.099,255,297.667,255h-85.333
			c-11.433,0-20.741,6.893-24.174,16.914c-45.979-1.818-88.247-21.156-119.419-51.047h372.52
			C410.088,250.757,367.819,270.096,321.841,271.914z M306.2,280.6c0,5.12-3.413,8.533-8.533,8.533h-85.333
			c-5.12,0-8.533-3.413-8.533-8.533c0-5.12,3.413-8.533,8.533-8.533h85.333C302.787,272.067,306.2,275.48,306.2,280.6z
			 M493.933,109.933c-1.625,28.159-10.818,54.766-25.6,77.979v-52.379c9.387,0,17.067-7.68,17.067-17.067v-8.533H493.933z
			 M468.333,118.467H459.8H246.467c0-1.707,0-2.56,0-4.267V84.333h221.867V118.467z M229.4,114.2c0,2.898-1.227,5.175-2.121,6.842
			c-2.1,3.176-5.549,5.463-9.392,5.886c-0.428,0.043-0.857,0.072-1.287,0.072c-0.001,0-0.001,0-0.002,0
			c-0.429,0-0.857-0.029-1.284-0.071c-6.273-0.69-11.514-6.335-11.514-12.728v-12.8c0-5.12-3.413-8.533-8.533-8.533
			s-8.533,3.413-8.533,8.533v12.8v4.267V127v25.6c0,9.387-7.68,17.067-17.067,17.067S152.6,161.987,152.6,152.6v-17.067v-25.6
			c0-5.12-3.413-8.533-8.533-8.533c-5.12,0-8.533,3.413-8.533,8.533v25.6c0,9.387-7.68,17.067-17.067,17.067
			s-17.067-7.68-17.067-17.067V127V84.333h128V114.2z M41.667,84.333h42.667v34.133H50.2h-8.533V84.333z M24.6,109.933v8.533
			c0,9.387,7.68,17.067,17.067,17.067v52.379c-14.782-23.213-23.975-49.82-25.6-77.979H24.6z M434.2,425.667H75.8
			c-9.387,0-17.067-7.68-17.067-17.067v-51.2h392.533v51.2C451.267,417.987,443.587,425.667,434.2,425.667z"/>
	</g>
</g>
<g>
</g>
<g>
</g>
<g>
</g>
<g>
</g>
<g>
</g>
<g>
</g>
<g>
</g>
<g>
</g>
<g>
</g>
<g>
</g>
<g>
</g>
<g>
</g>
<g>
</g>
<g>
</g>
<g>
</g>
</svg>
