<?xml version="1.0" encoding="iso-8859-1"?>
<!-- Generator: Adobe Illustrator 19.0.0, SVG Export Plug-In . SVG Version: 6.00 Build 0)  -->
<svg version="1.1" id="Layer_1" xmlns="http://www.w3.org/2000/svg" xmlns:xlink="http://www.w3.org/1999/xlink" x="0px" y="0px"
	 viewBox="0 0 512 512" style="enable-background:new 0 0 512 512;" xml:space="preserve">
<g transform="translate(1 1)">
	<g>
		<g>
			<path d="M280.6-1h-51.2C132.12-1,50.2,85.187,50.2,186.733c0,5.12,3.413,8.533,8.533,8.533h25.6v8.533
				c0,9.387,7.68,17.067,17.067,17.067h0.455l12.515,211.439c-0.11,0.601-0.17,1.233-0.17,1.894c0,1.096,0.165,2.108,0.461,3.031
				l2.952,49.876C118.467,500.76,129.56,511,143.213,511h223.573c13.653,0,24.747-10.24,25.6-24.747l2.909-49.152
				c0.319-0.888,0.504-1.857,0.504-2.901c0-0.728-0.076-1.417-0.21-2.072l1.813-30.637c0.062-0.46,0.103-0.932,0.103-1.425
				c0-0.063-0.007-0.122-0.008-0.184l10.596-179.016h0.505c9.387,0,17.067-7.68,17.067-17.067v-8.533h25.6
				c5.12,0,8.533-3.413,8.533-8.533C459.8,85.187,377.88-1,280.6-1z M381.107,391.533H331.8c-5.12,0-8.533,3.413-8.533,8.533
				c0,5.12,3.413,8.533,8.533,8.533h48.264l-1.043,17.067h-30.155c-5.12,0-8.533,3.413-8.533,8.533s3.413,8.533,8.533,8.533h29.112
				l-1.043,17.067h-11.003c-5.12,0-8.533,3.413-8.533,8.533s3.413,8.533,8.533,8.533h9.96l-0.573,9.387
				c0,4.267-4.267,7.68-8.533,7.68H143.213c-4.267,0-8.533-3.413-8.533-7.68l-0.543-9.387H178.2c5.12,0,8.533-3.413,8.533-8.533
				s-3.413-8.533-8.533-8.533h-45.051l-0.988-17.067h28.972c5.12,0,8.533-3.413,8.533-8.533s-3.413-8.533-8.533-8.533h-29.96
				l-0.988-17.067h13.881c5.12,0,8.533-3.413,8.533-8.533c0-5.12-3.413-8.533-8.533-8.533h-14.869l-9.878-170.667h272.213
				L381.107,391.533z M408.6,203.8h-8.533H109.933H101.4v-34.133h307.2V203.8z M425.667,178.2v-8.533
				c0-9.387-7.68-17.067-17.067-17.067H101.4c-9.387,0-17.067,7.68-17.067,17.067v8.533H67.267
				c5.12-88.747,76.8-162.133,162.133-162.133h51.2c85.333,0,157.867,73.387,162.133,162.133H425.667z"/>
			<path d="M186.733,323.267h136.533c5.12,0,8.533-3.413,8.533-8.533v-68.267c0-5.12-3.413-8.533-8.533-8.533H186.733
				c-5.12,0-8.533,3.413-8.533,8.533v68.267C178.2,319.853,181.613,323.267,186.733,323.267z M195.267,255h119.467v51.2H195.267V255
				z"/>
			<path d="M289.133,272.067h-68.267c-5.12,0-8.533,3.413-8.533,8.533s3.413,8.533,8.533,8.533h68.267
				c5.12,0,8.533-3.413,8.533-8.533S294.253,272.067,289.133,272.067z"/>
		</g>
	</g>
</g>
<g>
</g>
<g>
</g>
<g>
</g>
<g>
</g>
<g>
</g>
<g>
</g>
<g>
</g>
<g>
</g>
<g>
</g>
<g>
</g>
<g>
</g>
<g>
</g>
<g>
</g>
<g>
</g>
<g>
</g>
</svg>
