<?xml version="1.0" encoding="iso-8859-1"?>
<!-- Generator: Adobe Illustrator 19.0.0, SVG Export Plug-In . SVG Version: 6.00 Build 0)  -->
<svg version="1.1" id="Layer_1" xmlns="http://www.w3.org/2000/svg" xmlns:xlink="http://www.w3.org/1999/xlink" x="0px" y="0px"
	 viewBox="0 0 503.607 503.607" style="enable-background:new 0 0 503.607 503.607;" xml:space="preserve">
<g transform="translate(1 1)">
	<g>
		<path d="M485.82,174.843h-16.787c0-9.233-7.554-16.787-16.787-16.787h-16.787c0-14.269-10.911-25.18-25.18-25.18h-41.967H183.656
			h-41.967c-11.342,0-20.555,6.897-23.861,16.891c-16.247,1.057-29.798,10.997-35.907,25.076H59.433L36.77,153.859
			c-3.357-3.357-8.393-3.357-11.751,0L1.518,177.361C-0.161,179.039-1,180.718-1,183.236c0,2.518,0.839,4.197,2.518,5.875
			l35.252,33.574c1.679,1.679,3.357,2.518,5.875,2.518h33.138l-8.797,114.99c-0.839,7.554,1.679,14.269,6.715,19.305
			c5.036,5.875,11.751,8.393,18.466,8.393c22.662,0,41.967-16.787,44.485-40.289l4.533-60.445c0.168,0.003,0.334,0.012,0.503,0.012
			h9.914l18.624,82.256c1.679,6.715,5.875,12.59,11.751,15.948c4.197,2.518,8.393,3.357,12.59,3.357
			c2.518,0,5.036-0.839,7.554-1.679c21.823-5.875,35.252-27.698,31.056-50.361l-8.37-49.521h185.471
			c14.269,0,25.18-10.911,25.18-25.18h16.787c9.233,0,16.787-7.554,16.787-16.787h16.787c9.233,0,16.787-7.554,16.787-16.787V191.63
			C502.607,182.397,495.052,174.843,485.82,174.843z M359.918,149.662v33.574c0,5.036-3.357,8.393-8.393,8.393H200.443
			c-5.036,0-8.393-3.357-8.393-8.393v-33.574H359.918z M77.059,208.416H46.003l-26.859-25.18l12.59-11.751l19.305,17.626
			c0.839,1.679,3.357,2.518,5.036,2.518h22.277l-1.254,16.396L77.059,208.416z M119.866,325.085v1.679
			c-1.679,13.43-13.43,24.341-27.698,24.341c-2.518,0-4.197-0.839-5.875-2.518c-1.679-2.518-2.518-4.197-2.518-6.715l11.153-145.79
			l0.598-6.971c0-0.839,0.839-1.679,0.839-3.357c0.317-0.952,0.393-2.023,0.276-3.079c2.883-8.768,10.784-14.828,19.868-16.226
			v8.084v67.457c0,7.702,3.183,14.422,8.353,18.979L119.866,325.085z M217.229,317.531v1.679
			c2.518,14.269-5.875,27.698-19.305,31.895c-2.518,0.839-5.036,0-6.715-0.839c-2.518-0.839-3.357-2.518-4.197-5.036l-17.626-78.059
			h38.61L217.229,317.531z M418.672,241.99c0,5.036-3.357,8.393-8.393,8.393h-25.18v-16.787c0-5.036-3.357-8.393-8.393-8.393
			c-5.036,0-8.393,3.357-8.393,8.393v16.787h-50.361v-16.787c0-5.036-3.357-8.393-8.393-8.393s-8.393,3.357-8.393,8.393v16.787
			h-50.361v-16.787c0-5.036-3.357-8.393-8.393-8.393s-8.393,3.357-8.393,8.393v16.787h-19.305h-31.056v-16.787
			c0-5.036-3.357-8.393-8.393-8.393c-5.036,0-8.393,3.357-8.393,8.393v16.787h-8.393h-16.787c-0.779,0-1.512-0.089-2.204-0.244
			c-0.362-0.225-0.742-0.431-1.153-0.596c-3.357-1.679-5.036-4.197-5.036-7.554v-83.934c0-5.036,3.357-8.393,8.393-8.393h33.574
			v33.574c0,14.269,10.911,25.18,25.18,25.18h151.082c14.269,0,25.18-10.911,25.18-25.18v-33.574h33.574
			c5.036,0,8.393,3.357,8.393,8.393v8.393v67.148V241.99z M452.246,225.203h-16.787v-50.361h16.787v8.393v33.574V225.203z
			 M485.82,208.416h-16.787V191.63h16.787V208.416z"/>
	</g>
</g>
<g>
</g>
<g>
</g>
<g>
</g>
<g>
</g>
<g>
</g>
<g>
</g>
<g>
</g>
<g>
</g>
<g>
</g>
<g>
</g>
<g>
</g>
<g>
</g>
<g>
</g>
<g>
</g>
<g>
</g>
</svg>
