<?xml version="1.0" encoding="iso-8859-1"?>
<!-- Generator: Adobe Illustrator 19.0.0, SVG Export Plug-In . SVG Version: 6.00 Build 0)  -->
<svg version="1.1" id="Layer_1" xmlns="http://www.w3.org/2000/svg" xmlns:xlink="http://www.w3.org/1999/xlink" x="0px" y="0px"
	 viewBox="0 0 503.607 503.607" style="enable-background:new 0 0 503.607 503.607;" xml:space="preserve">
<g transform="translate(1 1)">
	<g>
		<g>
			<path d="M158.475,305.361H49.361c-5.036,0-8.393,3.357-8.393,8.393s3.357,8.393,8.393,8.393h109.115
				c5.036,0,8.393-3.357,8.393-8.393S163.511,305.361,158.475,305.361z"/>
			<path d="M489.177,282.698l-90.649-67.987c-0.596-0.398-1.241-0.746-1.909-1.027c-9.202-20.292-29.541-34.226-53.488-34.226
				h-50.361v-25.18c0-18.466-15.108-33.574-33.574-33.574s-33.574,15.108-33.574,33.574v25.18
				c-28.538,0-41.967,45.325-41.967,75.541v8.393H49.361C21.662,263.393-1,286.056-1,313.754s22.662,50.361,50.361,50.361h135.648
				c3.335,9.938,12.525,16.787,23.827,16.787h50.361h83.934h25.18c12.359,0,23.207-6.774,29.035-16.787h80.08
				c14.269,0,25.18-10.911,25.18-25.18v-29.377C502.607,298.646,497.57,288.574,489.177,282.698z M401.885,280.18l44.485,33.574
				h-44.485V280.18z M242.41,154.279c0-9.233,7.554-16.787,16.787-16.787c9.233,0,16.787,7.554,16.787,16.787v25.18H242.41V154.279z
				 M15.787,313.754c0-18.466,15.108-33.574,33.574-33.574h134.295v67.148H49.361C30.895,347.328,15.787,332.22,15.787,313.754z
				 M267.59,364.115V280.18h71.344l12.59,19.305v20.984l-14.269,43.646H267.59z M368.311,364.115h-13.989l13.15-39.449
				c0.839-0.839,0.839-1.679,0.839-2.518v-25.18c0-1.679,0-3.357-1.679-5.036l-16.787-25.18c-1.679-1.679-4.197-3.357-6.715-3.357
				h-33.574V255h8.393c5.036,0,8.393-3.357,8.393-8.393s-3.357-8.393-8.393-8.393h-33.574c-5.036,0-8.393,3.357-8.393,8.393
				s3.357,8.393,8.393,8.393h8.393v8.393h-33.574c-5.036,0-8.393,3.357-8.393,8.393v92.328h-41.967
				c-5.036,0-8.393-3.357-8.393-8.393v-83.934V255c0-26.859,11.751-58.754,25.18-58.754v25.18c0,5.036,3.357,8.393,8.393,8.393
				s8.393-3.357,8.393-8.393v-25.18h100.721c23.502,0,41.967,18.466,41.967,41.967v25.18v58.754v25.18
				C385.098,356.561,377.544,364.115,368.311,364.115z M485.82,338.934c0,4.197-3.357,8.393-8.393,8.393h-75.541v-16.787h58.754
				c5.036,0,8.393-3.357,8.393-8.393v-8.393c0-2.518-0.839-5.036-3.357-6.715l-63.79-47.843v-20.984l77.22,57.915
				c4.197,3.357,6.715,8.393,6.715,13.43V338.934z"/>
			<path d="M317.951,296.967h-25.18c-5.036,0-8.393,3.357-8.393,8.393s3.357,8.393,8.393,8.393h25.18
				c5.036,0,8.393-3.357,8.393-8.393S322.987,296.967,317.951,296.967z"/>
			<path d="M317.951,330.541h-25.18c-5.036,0-8.393,3.357-8.393,8.393s3.357,8.393,8.393,8.393h25.18
				c5.036,0,8.393-3.357,8.393-8.393S322.987,330.541,317.951,330.541z"/>
		</g>
	</g>
</g>
<g>
</g>
<g>
</g>
<g>
</g>
<g>
</g>
<g>
</g>
<g>
</g>
<g>
</g>
<g>
</g>
<g>
</g>
<g>
</g>
<g>
</g>
<g>
</g>
<g>
</g>
<g>
</g>
<g>
</g>
</svg>
