<?xml version="1.0" encoding="iso-8859-1"?>
<!-- Generator: Adobe Illustrator 19.0.0, SVG Export Plug-In . SVG Version: 6.00 Build 0)  -->
<svg version="1.1" id="Layer_1" xmlns="http://www.w3.org/2000/svg" xmlns:xlink="http://www.w3.org/1999/xlink" x="0px" y="0px"
	 viewBox="0 0 512 512" style="enable-background:new 0 0 512 512;" xml:space="preserve">
<g transform="translate(1 1)">
	<g>
		<path d="M310.467,318.147c-5.12-7.68-13.653-11.947-22.187-11.947h-7.68v-31.573l32.427-48.64c0.853-1.707,1.707-3.413,1.707-5.12
			V58.733v-51.2c0-5.12-3.413-8.533-8.533-8.533H203.8c-5.12,0-8.533,3.413-8.533,8.533v51.2v162.133
			c0,1.707,0.853,3.413,1.707,5.12l32.427,48.64V306.2h-6.827c-9.387,0-17.92,4.267-23.04,11.947
			c-5.12,6.827-5.973,16.213-2.56,24.747l6.827,17.067c0,0.853,0.853,1.707,0.853,1.707c9.387,16.213,10.24,35.84,2.56,62.293
			c-2.56,5.12-3.413,11.947-3.413,18.773v19.627c0,26.453,22.187,48.64,48.64,48.64h5.12c26.453,0,48.64-22.187,48.64-48.64v-19.627
			c0-6.827-0.853-12.8-3.413-18.773c-6.827-24.747-6.827-46.933,2.56-62.293c0.853,0,0.853-0.853,0.853-0.853l6.827-17.92
			C316.44,335.213,315.587,325.827,310.467,318.147z M212.333,16.067h85.333V50.2h-85.333V16.067z M212.333,67.267h85.333v151.04
			L267.8,263.533h-24.747l-30.72-45.227V67.267z M246.467,280.6h17.067v25.6h-17.067V280.6z M296.813,336.92l-6.827,17.067
			c-11.093,18.773-12.8,46.08-3.413,75.947c1.707,4.267,2.56,8.533,2.56,12.8v19.627c0,17.067-13.653,31.573-31.573,31.573h-5.12
			c-11.882,0-22.517-7.035-27.885-17.067h13.379c5.12,0,8.533-3.413,8.533-8.533s-3.413-8.533-8.533-8.533h-17.067v-17.067h17.067
			c5.12,0,8.533-3.413,8.533-8.533s-3.413-8.533-8.533-8.533h-13.616c7.563-29.89,6.386-52.768-4.304-71.68l-6.827-17.067
			c-0.853-3.413-0.853-6.827,0.853-9.387c2.56-2.56,5.12-4.267,8.533-4.267h15.36h34.133h16.213c2.56,0,5.973,1.707,7.68,4.267
			C297.667,330.947,297.667,333.507,296.813,336.92z"/>
	</g>
</g>
<g>
</g>
<g>
</g>
<g>
</g>
<g>
</g>
<g>
</g>
<g>
</g>
<g>
</g>
<g>
</g>
<g>
</g>
<g>
</g>
<g>
</g>
<g>
</g>
<g>
</g>
<g>
</g>
<g>
</g>
</svg>
