<?xml version="1.0" encoding="iso-8859-1"?>
<!-- Generator: Adobe Illustrator 19.0.0, SVG Export Plug-In . SVG Version: 6.00 Build 0)  -->
<svg version="1.1" id="Layer_1" xmlns="http://www.w3.org/2000/svg" xmlns:xlink="http://www.w3.org/1999/xlink" x="0px" y="0px"
	 viewBox="0 0 512 512" style="enable-background:new 0 0 512 512;" xml:space="preserve">
<g transform="translate(1 1)">
	<g>
		<path d="M400.067,442.733h-1.582l-19.486-84.107c0.134-0.945,0.066-1.938-0.266-2.933l-19.627-85.333
			c-0.239-1.196-0.686-2.253-1.29-3.162l-18.203-78.57c0.285-1.137,0.278-2.368-0.133-3.601l-19.627-85.333
			c-0.292-1.459-0.889-2.713-1.711-3.738l-17.916-77.328C297.667,7.533,287.427-1,275.48-1h-40.96
			c-11.947,0-22.187,8.533-24.747,19.627l-98.258,424.107h-1.582c-18.773,0-34.133,15.36-34.133,34.133
			C75.8,495.64,91.16,511,109.933,511h290.133c18.773,0,34.133-15.36,34.133-34.133C434.2,458.093,418.84,442.733,400.067,442.733z
			 M359.107,348.867H151.119l6.618-28.815l9.37-39.452h176.619l0.72,3.108L359.107,348.867z M206.36,109.933h97.821l10.785,46.548
			l4.887,21.719H190.317l4.988-21.718L206.36,109.933z M186.397,195.267h137.557l15.818,68.267H170.718L186.397,195.267z
			 M225.987,22.893c0.853-4.267,4.267-6.827,8.533-6.827h40.96c4.267,0,7.68,2.56,8.533,6.827l16.213,69.973h-90.311L225.987,22.893
			z M147.199,365.933h216.299l17.795,76.8H129.56L147.199,365.933z M400.067,493.933H109.933c-9.387,0-17.067-7.68-17.067-17.067
			s7.68-17.067,17.067-17.067h8.533h273.067h8.533c9.387,0,17.067,7.68,17.067,17.067S409.453,493.933,400.067,493.933z"/>
	</g>
</g>
<g>
</g>
<g>
</g>
<g>
</g>
<g>
</g>
<g>
</g>
<g>
</g>
<g>
</g>
<g>
</g>
<g>
</g>
<g>
</g>
<g>
</g>
<g>
</g>
<g>
</g>
<g>
</g>
<g>
</g>
</svg>
