<?xml version="1.0" encoding="iso-8859-1"?>
<!-- Generator: Adobe Illustrator 19.0.0, SVG Export Plug-In . SVG Version: 6.00 Build 0)  -->
<svg version="1.1" id="Layer_1" xmlns="http://www.w3.org/2000/svg" xmlns:xlink="http://www.w3.org/1999/xlink" x="0px" y="0px"
	 viewBox="0 0 512.226 512.226" style="enable-background:new 0 0 512.226 512.226;" xml:space="preserve">
<g transform="translate(1 1)">
	<g>
		<path d="M488.55,423.578c-8.678-8.678-18.224-15.62-27.769-21.695c-26.034-16.488-57.275-48.597-63.349-68.556v-0.868
			l-7.81-17.356c-3.471-8.678-11.281-14.753-19.959-16.488c-8.678-1.736-18.224,1.736-24.298,7.81l-4.773,4.773l-91.986-91.986
			l36.881-36.881c1.736-1.736,2.603-3.471,2.603-5.207l13.885-116.285c0-1.736,0-3.471-1.736-5.207l-7.81-13.017
			c-0.868-2.603-3.471-4.339-6.075-4.339s-5.207,0.868-6.942,2.603L174.842,145.449L162.693,133.3L267.262,28.731
			c3.471-2.603,3.471-7.81,0.868-11.281L256.848,2.697c-2.603-2.603-5.207-4.339-8.678-3.471L130.15,20.053
			c-1.736,0.868-3.471,1.736-4.339,2.603L9.526,138.941c-1.736,1.736-2.603,3.471-2.603,6.075s0.868,4.339,2.603,6.075
			l61.614,61.614c1.736,1.736,3.471,2.603,6.075,2.603c1.736,0,4.339-0.868,6.075-2.603l42.956-42.956l12.149,12.149l-42.956,42.956
			c-3.471,3.471-3.471,8.678,0,12.149l61.614,61.614c1.736,1.736,3.471,2.603,6.075,2.603c2.603,0,4.339-0.868,6.075-2.603
			l42.956-42.956l91.986,91.986l-5.641,5.641c-6.942,6.075-9.546,15.62-7.81,24.298s7.81,16.488,16.488,19.959l18.224,7.81h0.868
			c19.959,6.075,52.068,37.315,68.556,63.349c7.81,11.281,13.885,19.959,21.695,27.769c1.026,1.026,2.088,1.991,3.171,2.916
			c0.332,0.498,0.72,0.976,1.168,1.423c1.17,1.17,2.346,1.936,3.782,2.317c7.938,5.276,17.028,8.097,26.591,8.097
			c13.017,0,26.034-5.207,33.844-14.753l3.471-3.471c9.546-8.678,14.753-21.695,14.753-34.712S498.096,433.124,488.55,423.578z
			 M77.215,194.48L27.75,145.016L136.225,36.541l110.21-19.091l3.471,4.339L146.805,124.889c-0.992,0.433-1.932,1.064-2.77,1.902
			l-24.298,24.298c-0.918,0.918-1.586,1.84-2.018,2.886L77.215,194.48z M138.828,157.165l12.149-12.149l12.149,12.149
			l-12.149,12.149L138.828,157.165z M163.126,280.392l-49.464-49.464L283.75,60.839l0.868,0.868l-13.017,110.21L163.126,280.392z
			 M231.22,236.597l5.67-5.67l91.986,91.986l-12.149,12.149l-91.986-91.986L231.22,236.597z M477.269,480.853l-3.471,3.471
			c-8.507,8.507-20.84,11.048-31.941,7.643l9.378-9.378c3.471-3.471,3.471-8.678,0-12.149s-8.678-3.471-12.149,0l-12.128,12.128
			c-3.849-4.022-7.419-8.397-10.711-13.587l10.69-10.69c3.471-3.471,3.471-8.678,0-12.149c-3.471-3.471-8.678-3.471-12.149,0
			l-7.467,7.467c-16.778-24.246-48.876-58.285-74.106-65.61l-17.356-7.81c-3.471-0.868-5.207-3.471-6.075-6.942
			c-0.868-2.603,0-6.075,2.603-8.678l21.628-21.628l13.084-13.084c0,0,0,0,0,0l12.149-12.149c1.736-2.603,5.207-3.471,8.678-2.603
			c2.603,0.868,5.207,2.603,6.942,6.075l6.942,17.356c7.81,27.77,45.993,62.481,70.292,78.102
			c8.678,5.207,17.356,11.281,25.166,19.091c6.075,6.075,9.546,13.885,9.546,22.563
			C486.815,466.968,483.343,474.778,477.269,480.853z"/>
	</g>
</g>
<g>
</g>
<g>
</g>
<g>
</g>
<g>
</g>
<g>
</g>
<g>
</g>
<g>
</g>
<g>
</g>
<g>
</g>
<g>
</g>
<g>
</g>
<g>
</g>
<g>
</g>
<g>
</g>
<g>
</g>
</svg>
