<?xml version="1.0" encoding="iso-8859-1"?>
<!-- Generator: Adobe Illustrator 19.0.0, SVG Export Plug-In . SVG Version: 6.00 Build 0)  -->
<svg version="1.1" id="Layer_1" xmlns="http://www.w3.org/2000/svg" xmlns:xlink="http://www.w3.org/1999/xlink" x="0px" y="0px"
	 viewBox="0 0 512 512" style="enable-background:new 0 0 512 512;" xml:space="preserve">
<g transform="translate(1 1)">
	<g>
		<g>
			<path d="M125.72,425.667c-0.564,0-1.103,0.048-1.622,0.129c-0.873-0.081-1.754-0.129-2.644-0.129
				c-16.213,0-29.867,13.653-29.867,29.867c0,16.213,13.653,29.867,29.867,29.867c0.89,0,1.771-0.048,2.644-0.129
				c0.52,0.08,1.059,0.129,1.622,0.129h238.933c0.52,0,1.018-0.055,1.501-0.138c0.912,0.088,1.834,0.138,2.766,0.138
				c16.213,0,29.867-13.653,29.867-29.867c0-16.213-13.653-29.867-29.867-29.867c-0.89,0-1.771,0.048-2.644,0.129
				c-0.52-0.08-1.059-0.129-1.622-0.129H125.72z M108.653,455.533c0-6.827,5.973-12.8,12.8-12.8c6.375,0,12.002,5.21,12.72,11.459
				c0.004,0.033,0.01,0.065,0.013,0.098c0.044,0.411,0.067,0.825,0.067,1.243s-0.024,0.833-0.067,1.243
				c-0.003,0.033-0.01,0.065-0.013,0.098c-0.717,6.249-6.344,11.459-12.72,11.459C114.627,468.333,108.653,462.36,108.653,455.533z
				 M151.32,455.533c0-4.267-0.853-8.533-2.56-12.8h193.275c-1.905,3.902-2.981,8.25-2.981,12.8c0,4.55,1.076,8.898,2.981,12.8
				H148.76C150.467,464.067,151.32,459.8,151.32,455.533z M381.72,455.533c0,6.827-5.973,12.8-12.8,12.8
				c-6.375,0-12.002-5.21-12.72-11.459c-0.004-0.033-0.01-0.065-0.013-0.098c-0.044-0.411-0.067-0.825-0.067-1.243
				c0-0.425,0.023-0.847,0.068-1.265c0-0.005,0.001-0.009,0.002-0.014c0.686-6.277,6.333-11.522,12.73-11.522
				C375.747,442.733,381.72,448.707,381.72,455.533z"/>
			<path d="M424.387,247.32v-9.387h8.533c5.12,0,8.533-3.413,8.533-8.533s-3.413-8.533-8.533-8.533h-8.533V66.729
				c15.95-2.847,28.16-16.86,28.16-33.596C452.547,14.36,437.187-1,418.413-1c-16.911,0-31.046,12.465-33.685,28.659
				L204.961,220.867h-2.441c-14.507,0-25.6,11.093-25.6,25.6V306.2h-42.667H92.44c-19.627,0-34.987,16.213-34.987,34.987v7.68V383
				c0,5.12,3.413,8.533,8.533,8.533h128v8.533H112.92c-30.72,0-55.467,24.747-55.467,55.467C57.453,486.253,82.2,511,112.92,511
				h264.533c30.72,0,55.467-24.747,55.467-55.467c0-30.72-24.747-55.467-55.467-55.467h-81.067v-8.533h25.6
				c5.12,0,8.533-3.413,8.533-8.533v-30.839c0.513-1.052,0.853-2.171,0.853-3.295v-66.56c0-20.48-10.24-39.253-27.307-51.2
				c-1.484-0.99-3.009-1.899-4.565-2.745l27.266-36.414c1.457-1.059,2.487-2.513,3.095-4.133l55.588-74.24
				c1.636-1.121,2.764-2.725,3.382-4.516l18.489-24.692v136.5h-8.533c-5.12,0-8.533,3.413-8.533,8.533s3.413,8.533,8.533,8.533
				h8.533V255c0,2.56,0.853,4.267,2.56,5.973c1.707,1.707,3.413,2.56,5.973,2.56c9.387,0,17.067,7.68,17.067,17.067
				c0,9.387-7.68,17.067-17.067,17.067s-17.067-7.68-17.067-17.067c0-5.12-3.413-8.533-8.533-8.533s-8.533,3.413-8.533,8.533
				c0,18.773,15.36,34.133,34.133,34.133c18.773,0,34.133-15.36,34.133-34.133C449.987,264.387,438.893,250.733,424.387,247.32z
				 M371.48,98.84l-32.106,3.952l30.056-32.145L371.48,98.84z M312.6,177.347l-48.846,6.321l45.915-49.107L312.6,177.347z
				 M326.253,121.88l35.1-4.32l-32.429,43.315L326.253,121.88z M385.393,53.573l3.154-3.373c1.084,1.626,2.267,3.156,3.55,4.609
				c2.776,3.361,6.18,6.185,10.028,8.291L387.616,82.48L385.393,53.573z M418.413,16.067c9.387,0,17.067,7.68,17.067,17.067
				c0,9.387-7.68,17.067-17.067,17.067c-2.93,0-5.693-0.749-8.109-2.063c-0.018-0.01-0.036-0.021-0.054-0.031
				c-0.363-0.199-0.711-0.42-1.058-0.644c-4.255-2.844-7.244-7.544-7.764-12.716c-0.05-0.531-0.082-1.067-0.082-1.611
				C401.347,23.747,409.027,16.067,418.413,16.067z M313.415,280.298c0.023,0.66,0.038,1.328,0.038,2.009v53.76l-59.733-21.333
				c-10.24-4.267-17.067-13.653-17.067-24.747v-52.053h32.427c17.92,0,34.133,11.093,40.96,28.16
				c2.226,4.452,3.16,8.905,3.366,13.918C313.409,280.107,313.413,280.202,313.415,280.298z M125.72,323.267
				c0,9.387-7.68,17.067-17.067,17.067H74.56c0.006-0.148,0.011-0.297,0.021-0.444c1.053-9.182,8.622-16.623,17.859-16.623H125.72z
				 M415.853,455.533c0,21.333-17.067,38.4-38.4,38.4H112.92c-21.333,0-38.4-17.067-38.4-38.4c0-21.333,17.067-38.4,38.4-38.4h89.6
				h85.333h89.6C398.787,417.133,415.853,434.2,415.853,455.533z M279.32,400.067h-68.267v-8.533h68.267V400.067z M287.853,374.467
				H202.52h-128V357.4h34.133c18.773,0,34.133-15.36,34.133-34.133h42.667c5.12,0,8.533-3.413,8.533-8.533v-68.267
				c0-4.267,3.413-8.533,8.533-8.533h17.92v52.053c0,18.773,11.093,34.987,28.16,40.96l64.853,23.441v20.079H287.853z
				 M277.039,221.379c-2.609-0.332-5.264-0.512-7.959-0.512h-0.853h-39.253l16.27-17.401l57.269-7.311l-19.588,26.164
				C281.005,221.921,279.04,221.613,277.039,221.379z"/>
		</g>
	</g>
</g>
<g>
</g>
<g>
</g>
<g>
</g>
<g>
</g>
<g>
</g>
<g>
</g>
<g>
</g>
<g>
</g>
<g>
</g>
<g>
</g>
<g>
</g>
<g>
</g>
<g>
</g>
<g>
</g>
<g>
</g>
</svg>
