<?xml version="1.0" encoding="iso-8859-1"?>
<!-- Generator: Adobe Illustrator 19.0.0, SVG Export Plug-In . SVG Version: 6.00 Build 0)  -->
<svg version="1.1" id="Layer_1" xmlns="http://www.w3.org/2000/svg" xmlns:xlink="http://www.w3.org/1999/xlink" x="0px" y="0px"
	 viewBox="0 0 512 512" style="enable-background:new 0 0 512 512;" xml:space="preserve">
<g transform="translate(1 1)">
	<g>
		<g>
			<path d="M485.4,493.933h-51.2V7.533c0-5.12-3.413-8.533-8.533-8.533H84.333C79.213-1,75.8,2.413,75.8,7.533v486.4H24.6
				c-5.12,0-8.533,3.413-8.533,8.533S19.48,511,24.6,511h59.733h34.133h273.067h34.133H485.4c5.12,0,8.533-3.413,8.533-8.533
				S490.52,493.933,485.4,493.933z M127,493.933V50.2h256v443.733H127z M400.067,493.933V41.667c0-5.12-3.413-8.533-8.533-8.533
				H118.467c-5.12,0-8.533,3.413-8.533,8.533v452.267H92.867V16.067h324.267v477.867H400.067z"/>
			<path d="M357.4,246.467h-34.133c-5.12,0-8.533,3.413-8.533,8.533v8.533h-17.067c-5.12,0-8.533,3.413-8.533,8.533
				c0,5.12,3.413,8.533,8.533,8.533h17.067v8.533c0,5.12,3.413,8.533,8.533,8.533H357.4c5.12,0,8.533-3.413,8.533-8.533V255
				C365.933,249.88,362.52,246.467,357.4,246.467z M348.867,280.6H331.8v-17.067h17.067V280.6z"/>
			<path d="M357.4,75.8H152.6c-5.12,0-8.533,3.413-8.533,8.533V152.6c0,5.12,3.413,8.533,8.533,8.533h204.8
				c5.12,0,8.533-3.413,8.533-8.533V84.333C365.933,79.213,362.52,75.8,357.4,75.8z M348.867,144.067H161.133v-51.2h187.733V144.067
				z"/>
			<path d="M357.4,178.2H152.6c-5.12,0-8.533,3.413-8.533,8.533V255c0,5.12,3.413,8.533,8.533,8.533h119.467
				c5.12,0,8.533-3.413,8.533-8.533v-25.6h76.8c5.12,0,8.533-3.413,8.533-8.533v-34.133C365.933,181.613,362.52,178.2,357.4,178.2z
				 M348.867,212.333h-76.8c-5.12,0-8.533,3.413-8.533,8.533v25.6h-102.4v-51.2h187.733V212.333z"/>
			<path d="M357.4,314.733h-76.8v-25.6c0-5.12-3.413-8.533-8.533-8.533H152.6c-5.12,0-8.533,3.413-8.533,8.533V357.4
				c0,5.12,3.413,8.533,8.533,8.533h204.8c5.12,0,8.533-3.413,8.533-8.533v-34.133C365.933,318.147,362.52,314.733,357.4,314.733z
				 M348.867,348.867H161.133v-51.2h102.4v25.6c0,5.12,3.413,8.533,8.533,8.533h76.8V348.867z"/>
			<path d="M357.4,383H152.6c-5.12,0-8.533,3.413-8.533,8.533V459.8c0,5.12,3.413,8.533,8.533,8.533h204.8
				c5.12,0,8.533-3.413,8.533-8.533v-68.267C365.933,386.413,362.52,383,357.4,383z M348.867,451.267H161.133v-51.2h187.733V451.267
				z"/>
		</g>
	</g>
</g>
<g>
</g>
<g>
</g>
<g>
</g>
<g>
</g>
<g>
</g>
<g>
</g>
<g>
</g>
<g>
</g>
<g>
</g>
<g>
</g>
<g>
</g>
<g>
</g>
<g>
</g>
<g>
</g>
<g>
</g>
</svg>
