<?xml version="1.0" encoding="iso-8859-1"?>
<!-- Generator: Adobe Illustrator 19.0.0, SVG Export Plug-In . SVG Version: 6.00 Build 0)  -->
<svg version="1.1" id="Layer_1" xmlns="http://www.w3.org/2000/svg" xmlns:xlink="http://www.w3.org/1999/xlink" x="0px" y="0px"
	 viewBox="0 0 503.322 503.322" style="enable-background:new 0 0 503.322 503.322;" xml:space="preserve">
<g transform="translate(1 1)">
	<g>
		<g>
			<path d="M493.644,7.678H7.678C2.471,7.678-1,11.149-1,16.356v468.61c0,5.207,3.471,8.678,8.678,8.678H42.39h208.271h208.271
				h34.712c5.207,0,8.678-3.471,8.678-8.678V16.356C502.322,11.149,498.851,7.678,493.644,7.678z M250.661,302.729
				c-9.546,0-17.356-7.81-17.356-17.356s7.81-17.356,17.356-17.356s17.356,7.81,17.356,17.356
				C268.017,294.919,260.207,302.729,250.661,302.729z M241.983,251.529c-4.3,1.265-8.302,3.272-11.819,5.882
				c-0.173,0.128-0.344,0.257-0.515,0.388c-0.183,0.141-0.364,0.284-0.545,0.429c-0.251,0.2-0.5,0.4-0.745,0.607
				c-0.069,0.059-0.137,0.119-0.206,0.178c-0.87,0.745-1.703,1.531-2.496,2.357c-0.171,0.177-0.343,0.354-0.51,0.535
				c-0.135,0.146-0.266,0.295-0.399,0.444c-0.252,0.282-0.5,0.567-0.743,0.857c-0.063,0.076-0.127,0.152-0.19,0.229
				c-4.171,5.06-6.946,11.296-7.671,18.275c-0.008,0.071-0.016,0.141-0.023,0.212c-0.046,0.47-0.082,0.943-0.109,1.419
				c-0.007,0.112-0.016,0.223-0.022,0.335c-0.027,0.562-0.043,1.128-0.043,1.698c0,0,0,0,0,0l0,0v0c0,0.572,0.017,1.139,0.044,1.704
				c0.005,0.102,0.014,0.203,0.019,0.304c0.028,0.499,0.066,0.995,0.114,1.488c0.003,0.032,0.007,0.063,0.01,0.095
				c1.499,14.881,12.18,27.036,25.847,30.252v157.071H51.068V59.746h190.915V251.529z M259.339,476.288V319.217
				c4.301-1.265,8.303-3.272,11.82-5.883c0.172-0.127,0.342-0.256,0.512-0.385c0.184-0.142,0.366-0.286,0.548-0.431
				c0.25-0.199,0.498-0.399,0.743-0.605c0.071-0.06,0.141-0.123,0.212-0.184c0.867-0.743,1.697-1.527,2.488-2.35
				c0.172-0.179,0.345-0.357,0.514-0.539c0.134-0.146,0.265-0.294,0.397-0.442c0.252-0.282,0.5-0.568,0.744-0.858
				c0.064-0.076,0.128-0.153,0.191-0.23c4.171-5.06,6.945-11.296,7.67-18.275c0.007-0.07,0.016-0.141,0.023-0.211
				c0.046-0.47,0.082-0.943,0.109-1.419c0.007-0.112,0.016-0.222,0.022-0.334c0.027-0.562,0.043-1.128,0.043-1.699
				c0-0.572-0.017-1.139-0.044-1.704c-0.005-0.102-0.014-0.203-0.02-0.305c-0.028-0.499-0.066-0.995-0.114-1.488
				c-0.003-0.032-0.007-0.064-0.01-0.095c-1.499-14.881-12.18-27.036-25.847-30.252V59.746h190.915v416.542H259.339z
				 M484.966,476.288H467.61V51.068c0-5.207-3.471-8.678-8.678-8.678H250.661H42.39c-5.207,0-8.678,3.471-8.678,8.678v425.22H16.356
				V25.034h468.61V476.288z"/>
			<path d="M94.458,268.017h104.136c5.207,0,8.678-3.471,8.678-8.678V85.78c0-5.207-3.471-8.678-8.678-8.678H94.458
				c-5.207,0-8.678,3.471-8.678,8.678v173.559C85.78,264.546,89.251,268.017,94.458,268.017z M103.136,94.458h86.78v156.203h-86.78
				V94.458z"/>
			<path d="M94.458,458.932h104.136c5.207,0,8.678-3.471,8.678-8.678V311.407c0-5.207-3.471-8.678-8.678-8.678H94.458
				c-5.207,0-8.678,3.471-8.678,8.678v138.847C85.78,455.461,89.251,458.932,94.458,458.932z M103.136,320.085h86.78v121.492h-86.78
				V320.085z"/>
			<path d="M406.864,77.102H302.729c-5.207,0-8.678,3.471-8.678,8.678v173.559c0,5.207,3.471,8.678,8.678,8.678h104.136
				c5.207,0,8.678-3.471,8.678-8.678V85.78C415.542,80.573,412.071,77.102,406.864,77.102z M398.186,250.661h-86.78V94.458h86.78
				V250.661z"/>
			<path d="M406.864,302.729H302.729c-5.207,0-8.678,3.471-8.678,8.678v138.847c0,5.207,3.471,8.678,8.678,8.678h104.136
				c5.207,0,8.678-3.471,8.678-8.678V311.407C415.542,306.2,412.071,302.729,406.864,302.729z M398.186,441.576h-86.78V320.085
				h86.78V441.576z"/>
			<path d="M157.807,114.417l-34.712,34.712c-3.471,3.471-3.471,8.678,0,12.149c1.736,1.736,3.471,2.603,6.075,2.603
				s4.339-0.868,6.075-2.603l34.712-34.712c3.471-3.471,3.471-8.678,0-12.149C166.485,110.946,161.278,110.946,157.807,114.417z"/>
			<path d="M157.807,183.841l-34.712,34.712c-3.471,3.471-3.471,8.678,0,12.149c1.736,1.736,3.471,2.603,6.075,2.603
				s4.339-0.868,6.075-2.603l34.712-34.712c3.471-3.471,3.471-8.678,0-12.149S161.278,180.37,157.807,183.841z"/>
			<path d="M337.441,163.881c2.603,0,4.339-0.868,6.075-2.603l34.712-34.712c3.471-3.471,3.471-8.678,0-12.149
				c-3.471-3.471-8.678-3.471-12.149,0l-34.712,34.712c-3.471,3.471-3.471,8.678,0,12.149
				C333.102,163.014,334.837,163.881,337.441,163.881z"/>
			<path d="M337.441,233.305c2.603,0,4.339-0.868,6.075-2.603l34.712-34.712c3.471-3.471,3.471-8.678,0-12.149
				s-8.678-3.471-12.149,0l-34.712,34.712c-3.471,3.471-3.471,8.678,0,12.149C333.102,232.437,334.837,233.305,337.441,233.305z"/>
			<path d="M157.807,331.366l-34.712,34.712c-3.471,3.471-3.471,8.678,0,12.149c1.736,1.736,3.471,2.603,6.075,2.603
				s4.339-0.868,6.075-2.603l34.712-34.712c3.471-3.471,3.471-8.678,0-12.149S161.278,327.895,157.807,331.366z"/>
			<path d="M157.807,383.434l-34.712,34.712c-3.471,3.471-3.471,8.678,0,12.149c1.736,1.736,3.471,2.603,6.075,2.603
				s4.339-0.868,6.075-2.603l34.712-34.712c3.471-3.471,3.471-8.678,0-12.149S161.278,379.963,157.807,383.434z"/>
			<path d="M337.441,380.831c2.603,0,4.339-0.868,6.075-2.603l34.712-34.712c3.471-3.471,3.471-8.678,0-12.149
				s-8.678-3.471-12.149,0l-34.712,34.712c-3.471,3.471-3.471,8.678,0,12.149C333.102,379.963,334.837,380.831,337.441,380.831z"/>
			<path d="M337.441,432.898c2.603,0,4.339-0.868,6.075-2.603l34.712-34.712c3.471-3.471,3.471-8.678,0-12.149
				s-8.678-3.471-12.149,0l-34.712,34.712c-3.471,3.471-3.471,8.678,0,12.149C333.102,432.031,334.837,432.898,337.441,432.898z"/>
		</g>
	</g>
</g>
<g>
</g>
<g>
</g>
<g>
</g>
<g>
</g>
<g>
</g>
<g>
</g>
<g>
</g>
<g>
</g>
<g>
</g>
<g>
</g>
<g>
</g>
<g>
</g>
<g>
</g>
<g>
</g>
<g>
</g>
</svg>
