<?xml version="1.0" encoding="iso-8859-1"?>
<!-- Generator: Adobe Illustrator 19.0.0, SVG Export Plug-In . SVG Version: 6.00 Build 0)  -->
<svg version="1.1" id="Layer_1" xmlns="http://www.w3.org/2000/svg" xmlns:xlink="http://www.w3.org/1999/xlink" x="0px" y="0px"
	 viewBox="0 0 512 512" style="enable-background:new 0 0 512 512;" xml:space="preserve">
<g>
	<g>
		<path d="M349.866,178.944c-4.266,0-8.533,4.267-8.533,8.533c0,5.12,3.413,8.533,8.533,8.533s8.533-3.413,8.533-8.533
			S354.986,178.944,349.866,178.944z"/>
	</g>
</g>
<g>
	<g>
		<path d="M298.666,178.944c-4.266,0-8.533,4.267-8.533,8.533c0,5.12,3.413,8.533,8.533,8.533s8.533-3.413,8.533-8.533
			S303.786,178.944,298.666,178.944z"/>
	</g>
</g>
<g>
	<g>
		<path d="M349.866,127.744c-4.266,0-8.533,4.267-8.533,8.533c0,5.12,3.413,8.533,8.533,8.533s8.533-3.413,8.533-8.533
			S354.986,127.744,349.866,127.744z"/>
	</g>
</g>
<g>
	<g>
		<path d="M298.666,127.744c-4.266,0-8.533,4.267-8.533,8.533c0,5.12,3.413,8.533,8.533,8.533s8.533-3.413,8.533-8.533
			S303.786,127.744,298.666,127.744z"/>
	</g>
</g>
<g>
	<g>
		<path d="M324.266,153.344c-4.266,0-8.533,4.267-8.533,8.533c0,5.12,3.413,8.533,8.533,8.533s8.533-3.413,8.533-8.533
			S329.386,153.344,324.266,153.344z"/>
	</g>
</g>
<g>
	<g>
		<path d="M273.066,153.344c-4.266,0-8.533,4.267-8.533,8.533c0,5.12,3.413,8.533,8.533,8.533s8.533-3.413,8.533-8.533
			S278.186,153.344,273.066,153.344z"/>
	</g>
</g>
<g>
	<g>
		<path d="M324.266,102.144c-4.266,0-8.533,4.267-8.533,8.533c0,5.12,3.413,8.533,8.533,8.533s8.533-3.413,8.533-8.533
			S329.386,102.144,324.266,102.144z"/>
	</g>
</g>
<g>
	<g>
		<path d="M273.066,102.144c-4.266,0-8.533,4.267-8.533,8.533c0,5.12,3.413,8.533,8.533,8.533s8.533-3.413,8.533-8.533
			S278.186,102.144,273.066,102.144z"/>
	</g>
</g>
<g>
	<g>
		<path d="M247.466,178.944c-4.266,0-8.533,4.267-8.533,8.533c0,5.12,3.413,8.533,8.533,8.533s8.533-3.413,8.533-8.533
			S252.586,178.944,247.466,178.944z"/>
	</g>
</g>
<g>
	<g>
		<path d="M196.266,178.944c-4.266,0-8.533,4.267-8.533,8.533c0,5.12,3.413,8.533,8.533,8.533c5.12,0,8.533-3.413,8.533-8.533
			S201.386,178.944,196.266,178.944z"/>
	</g>
</g>
<g>
	<g>
		<path d="M247.466,127.744c-4.266,0-8.533,4.267-8.533,8.533c0,5.12,3.413,8.533,8.533,8.533s8.533-3.413,8.533-8.533
			S252.586,127.744,247.466,127.744z"/>
	</g>
</g>
<g>
	<g>
		<path d="M196.266,127.744c-4.266,0-8.533,4.267-8.533,8.533c0,5.12,3.413,8.533,8.533,8.533c5.12,0,8.533-3.413,8.533-8.533
			S201.386,127.744,196.266,127.744z"/>
	</g>
</g>
<g>
	<g>
		<path d="M221.866,153.344c-4.266,0-8.533,4.267-8.533,8.533c0,5.12,3.413,8.533,8.533,8.533c5.12,0,8.533-3.413,8.533-8.533
			S226.986,153.344,221.866,153.344z"/>
	</g>
</g>
<g>
	<g>
		<path d="M170.666,153.344c-4.266,0-8.533,4.267-8.533,8.533c0,5.12,3.413,8.533,8.533,8.533s8.533-3.413,8.533-8.533
			S175.786,153.344,170.666,153.344z"/>
	</g>
</g>
<g>
	<g>
		<path d="M221.866,102.144c-4.266,0-8.533,4.267-8.533,8.533c0,5.12,3.413,8.533,8.533,8.533c5.12,0,8.533-3.413,8.533-8.533
			S226.986,102.144,221.866,102.144z"/>
	</g>
</g>
<g>
	<g>
		<path d="M170.666,102.144c-4.266,0-8.533,4.267-8.533,8.533c0,5.12,3.413,8.533,8.533,8.533s8.533-3.413,8.533-8.533
			S175.786,102.144,170.666,102.144z"/>
	</g>
</g>
<g>
	<g>
		<path d="M349.866,76.544c-4.266,0-8.533,4.267-8.533,8.533c0,5.12,3.413,8.533,8.533,8.533s8.533-3.413,8.533-8.533
			C358.399,79.957,354.986,76.544,349.866,76.544z"/>
	</g>
</g>
<g>
	<g>
		<path d="M298.666,76.544c-4.266,0-8.533,4.267-8.533,8.533c0,5.12,3.413,8.533,8.533,8.533s8.533-3.413,8.533-8.533
			C307.199,79.957,303.786,76.544,298.666,76.544z"/>
	</g>
</g>
<g>
	<g>
		<path d="M247.466,76.544c-4.266,0-8.533,4.267-8.533,8.533c0,5.12,3.413,8.533,8.533,8.533s8.533-3.413,8.533-8.533
			C255.999,79.957,252.586,76.544,247.466,76.544z"/>
	</g>
</g>
<g>
	<g>
		<path d="M196.266,76.544c-4.266,0-8.533,4.267-8.533,8.533c0,5.12,3.413,8.533,8.533,8.533c5.12,0,8.533-3.413,8.533-8.533
			C204.799,79.957,201.386,76.544,196.266,76.544z"/>
	</g>
</g>
<g transform="translate(1 1)">
	<g>
		<g>
			<path d="M485.4,493.934h-51.201V7.533c0-5.12-3.413-8.533-8.533-8.533H84.333C79.213-1,75.8,2.413,75.8,7.533v486.401H24.6
				c-5.12,0-8.533,3.413-8.533,8.533S19.48,511,24.6,511h59.733h34.134h273.066h34.134H485.4c5.12,0,8.533-3.413,8.533-8.533
				C493.933,497.347,490.52,493.934,485.4,493.934z M383,493.933H127V50.2h256V493.933z M92.867,16.067h324.267v477.866h-17.067
				V41.667c0-5.12-3.413-8.533-8.533-8.533H118.467c-5.12,0-8.533,3.413-8.533,8.533v452.266H92.867V16.067z"/>
			<path d="M357.4,246.467h-34.133c-5.12,0-8.533,3.413-8.533,8.533v8.534h-17.067c-5.12,0-8.533,3.413-8.533,8.533
				s3.413,8.533,8.533,8.533h17.067v8.534c0,5.12,3.413,8.533,8.533,8.533H357.4c5.12,0,8.533-3.414,8.533-8.534V255
				C365.933,249.88,362.52,246.467,357.4,246.467z M348.867,280.6H331.8v-17.067h17.067V280.6z"/>
			<path d="M152.6,203.8h204.8c5.12,0,8.533-3.413,8.533-8.533V75.8c0-5.12-3.413-8.533-8.533-8.533H152.6
				c-5.12,0-8.533,3.413-8.533,8.533v119.467C144.067,200.387,147.48,203.8,152.6,203.8z M161.133,84.333h187.733v102.4H161.133
				V84.333z"/>
		</g>
	</g>
</g>
<g>
</g>
<g>
</g>
<g>
</g>
<g>
</g>
<g>
</g>
<g>
</g>
<g>
</g>
<g>
</g>
<g>
</g>
<g>
</g>
<g>
</g>
<g>
</g>
<g>
</g>
<g>
</g>
<g>
</g>
</svg>
