<?xml version="1.0" encoding="iso-8859-1"?>
<!-- Generator: Adobe Illustrator 19.0.0, SVG Export Plug-In . SVG Version: 6.00 Build 0)  -->
<svg version="1.1" id="Layer_1" xmlns="http://www.w3.org/2000/svg" xmlns:xlink="http://www.w3.org/1999/xlink" x="0px" y="0px"
	 viewBox="0 0 512 512" style="enable-background:new 0 0 512 512;" xml:space="preserve">
<g transform="translate(1 1)">
	<g>
		<g>
			<path d="M229.4,415.113V127V75.8V45.08c0-20.48-17.067-37.547-37.547-37.547h-61.44c-20.48,0-37.547,17.067-37.547,37.547V75.8
				V127v290.133c0,2.716,0.968,4.944,2.634,6.445l58.806,84.009c1.707,1.707,4.267,3.413,6.827,3.413s5.12-1.707,6.827-4.267
				l57.581-82.259c2.412-1.418,3.859-4.016,3.859-7.341v-0.001C229.497,416.453,229.5,415.773,229.4,415.113z M109.933,408.6
				V135.533H152.6V408.6H109.933z M212.333,118.467h-51.2h-51.2V84.333h102.4V118.467z M169.667,135.533h42.667V408.6h-42.667
				V135.533z M109.933,45.08c0-11.093,9.387-20.48,20.48-20.48h61.44c11.093,0,20.48,9.387,20.48,20.48v22.187h-102.4V45.08z
				 M161.133,487.96l-43.52-62.293h43.52h43.52L161.133,487.96z"/>
			<path d="M391.533-1H306.2c-14.507,0-25.6,11.093-25.6,25.6v465.92c0,11.093,9.387,20.48,20.48,20.48h96.427
				c11.093,0,19.627-9.387,19.627-20.48V24.6C417.133,10.093,406.04-1,391.533-1z M400.92,490.52c0,1.707-1.707,3.413-3.413,3.413
				H301.08c-1.707,0-3.413-1.707-3.413-3.413V383h25.6c5.12,0,8.533-3.413,8.533-8.533s-3.413-8.533-8.533-8.533h-25.6v-17.067
				h42.667c5.12,0,8.533-3.413,8.533-8.533c0-5.12-3.413-8.533-8.533-8.533h-42.667v-17.067h25.6c5.12,0,8.533-3.413,8.533-8.533
				s-3.413-8.533-8.533-8.533h-25.6V280.6h42.667c5.12,0,8.533-3.413,8.533-8.533c0-5.12-3.413-8.533-8.533-8.533h-42.667v-17.067
				h25.6c5.12,0,8.533-3.413,8.533-8.533s-3.413-8.533-8.533-8.533h-25.6v-17.067h42.667c5.12,0,8.533-3.413,8.533-8.533
				c0-5.12-3.413-8.533-8.533-8.533h-42.667V178.2h25.6c5.12,0,8.533-3.413,8.533-8.533s-3.413-8.533-8.533-8.533h-25.6v-17.067
				h42.667c5.12,0,8.533-3.413,8.533-8.533S345.453,127,340.333,127h-42.667v-17.067h25.6c5.12,0,8.533-3.413,8.533-8.533
				s-3.413-8.533-8.533-8.533h-25.6V75.8h42.667c5.12,0,8.533-3.413,8.533-8.533s-3.413-8.533-8.533-8.533h-42.667V24.6
				c0-5.12,3.413-8.533,8.533-8.533h86.187c5.12,0,8.533,3.413,8.533,8.533V490.52z"/>
			<path d="M348.867,408.6c-18.773,0-34.133,15.36-34.133,34.133c0,18.773,15.36,34.133,34.133,34.133
				c18.773,0,34.133-15.36,34.133-34.133C383,423.96,367.64,408.6,348.867,408.6z M348.867,459.8
				c-9.387,0-17.067-7.68-17.067-17.067s7.68-17.067,17.067-17.067c9.387,0,17.067,7.68,17.067,17.067S358.253,459.8,348.867,459.8z
				"/>
		</g>
	</g>
</g>
<g>
</g>
<g>
</g>
<g>
</g>
<g>
</g>
<g>
</g>
<g>
</g>
<g>
</g>
<g>
</g>
<g>
</g>
<g>
</g>
<g>
</g>
<g>
</g>
<g>
</g>
<g>
</g>
<g>
</g>
</svg>
