<?xml version="1.0" encoding="iso-8859-1"?>
<!-- Generator: Adobe Illustrator 19.0.0, SVG Export Plug-In . SVG Version: 6.00 Build 0)  -->
<svg version="1.1" id="Layer_1" xmlns="http://www.w3.org/2000/svg" xmlns:xlink="http://www.w3.org/1999/xlink" x="0px" y="0px"
	 viewBox="0 0 503.607 503.607" style="enable-background:new 0 0 503.607 503.607;" xml:space="preserve">
<g transform="translate(1 1)">
	<g>
		<g>
			<path d="M460.639,78.738h-83.934c-5.036,0-8.393,3.357-8.393,8.393s3.357,8.393,8.393,8.393h83.934
				c5.036,0,8.393-3.357,8.393-8.393S465.675,78.738,460.639,78.738z"/>
			<path d="M460.639,112.311h-67.148c-5.036,0-8.393,3.357-8.393,8.393s3.357,8.393,8.393,8.393h67.148
				c5.036,0,8.393-3.357,8.393-8.393S465.675,112.311,460.639,112.311z"/>
			<path d="M460.639,145.885h-50.361c-5.036,0-8.393,3.357-8.393,8.393s3.357,8.393,8.393,8.393h50.361
				c5.036,0,8.393-3.357,8.393-8.393S465.675,145.885,460.639,145.885z"/>
			<path d="M477.426,45.164H217.229c-14.269,0-25.18,10.911-25.18,25.18h-25.18c-14.269,0-25.18,10.911-25.18,25.18v8.393h-16.787
				c-18.466,0-33.574,15.108-33.574,33.574H7.393c-5.036,0-8.393,3.357-8.393,8.393s3.357,8.393,8.393,8.393h83.934
				c0,18.466,15.108,33.574,33.574,33.574h16.787v8.393c0,14.269,10.911,25.18,25.18,25.18h25.18c0,14.269,10.911,25.18,25.18,25.18
				h67.148v151.082c0,32.734,26.02,58.754,58.754,58.754h75.541c18.466,0,33.574-15.108,33.574-33.574V246.607h25.18
				c14.269,0,25.18-10.911,25.18-25.18V70.344C502.607,56.075,491.695,45.164,477.426,45.164z M124.902,171.066
				c-9.233,0-16.787-7.554-16.787-16.787v-16.787c0-9.233,7.554-16.787,16.787-16.787h16.787v50.361H124.902z M166.869,204.639
				c-5.036,0-8.393-3.357-8.393-8.393v-16.787v-67.148V95.525c0-5.036,3.357-8.393,8.393-8.393h25.18v16.787h-8.393
				c-5.036,0-8.393,3.357-8.393,8.393c0,5.036,3.357,8.393,8.393,8.393h8.393v16.787h-8.393c-5.036,0-8.393,3.357-8.393,8.393
				s3.357,8.393,8.393,8.393h8.393v16.787h-8.393c-5.036,0-8.393,3.357-8.393,8.393s3.357,8.393,8.393,8.393h8.393v16.787H166.869z
				 M485.82,221.426c0,5.036-3.357,8.393-8.393,8.393h-33.574c-5.036,0-8.393,3.357-8.393,8.393v184.656
				c0,9.233-7.554,16.787-16.787,16.787h-75.541c-23.502,0-41.967-18.466-41.967-41.967V238.213c0-5.036-3.357-8.393-8.393-8.393
				h-75.541c-5.036,0-8.393-3.357-8.393-8.393v-8.393V78.738v-8.393c0-5.036,3.357-8.393,8.393-8.393h260.197
				c5.036,0,8.393,3.357,8.393,8.393V221.426z"/>
			<path d="M385.098,271.787h-33.574h-16.787c-9.233,0-16.787,7.554-16.787,16.787v100.721c0,18.466,15.108,33.574,33.574,33.574
				h33.574c9.233,0,16.787-7.554,16.787-16.787v-67.148v-50.361C401.885,279.341,394.331,271.787,385.098,271.787z M385.098,288.574
				v41.967h-10.072l-12.59-41.967H385.098z M351.525,406.082c-9.233,0-16.787-7.554-16.787-16.787V288.574h10.072l15.108,52.879
				c1.679,3.357,5.036,5.875,8.393,5.875h16.787v58.754H351.525z"/>
		</g>
	</g>
</g>
<g>
</g>
<g>
</g>
<g>
</g>
<g>
</g>
<g>
</g>
<g>
</g>
<g>
</g>
<g>
</g>
<g>
</g>
<g>
</g>
<g>
</g>
<g>
</g>
<g>
</g>
<g>
</g>
<g>
</g>
</svg>
