<?xml version="1.0" encoding="iso-8859-1"?>
<!-- Generator: Adobe Illustrator 19.0.0, SVG Export Plug-In . SVG Version: 6.00 Build 0)  -->
<svg version="1.1" id="Layer_1" xmlns="http://www.w3.org/2000/svg" xmlns:xlink="http://www.w3.org/1999/xlink" x="0px" y="0px"
	 viewBox="0 0 504.446 504.446" style="enable-background:new 0 0 504.446 504.446;" xml:space="preserve">
<g transform="translate(1 1)">
	<g>
		<g>
			<path d="M435.459,108.534h-50.361c-5.036,0-8.393,3.357-8.393,8.393c0,5.036,3.357,8.393,8.393,8.393h50.361
				c5.036,0,8.393-3.357,8.393-8.393C443.852,111.892,440.495,108.534,435.459,108.534z"/>
			<path d="M435.459,142.108h-50.361c-5.036,0-8.393,3.357-8.393,8.393s3.357,8.393,8.393,8.393h50.361
				c5.036,0,8.393-3.357,8.393-8.393S440.495,142.108,435.459,142.108z"/>
			<path d="M495.052,174.843l-8.393-74.702c-0.839-14.269-11.751-25.18-26.02-25.18H208.836c0-5.036-3.357-8.393-8.393-8.393
				h-33.574c-5.036,0-8.393,3.357-8.393,8.393v25.18h-33.574c-18.466,0-33.574,15.108-33.574,33.574v8.393H7.393
				c-5.036,0-8.393,3.357-8.393,8.393s3.357,8.393,8.393,8.393h83.934v8.393c0,18.466,15.108,33.574,33.574,33.574h33.574v49.521
				h-16.787c-3.357,0-5.875,1.679-7.554,4.197c-0.839,2.518-1.679,5.875,0,8.393l15.948,31.895V408.18l-7.554,15.108
				c-1.679,2.518-1.679,5.875,0,8.393c1.679,2.518,5.036,4.197,7.554,4.197h67.148c3.357,0,6.715-1.679,7.554-4.197
				c0.839-2.518,1.679-5.875,0-8.393l-7.554-15.108V294.869l15.948-31.895c1.679-2.518,1.679-5.875,0-8.393
				c-1.679-2.518-5.036-4.197-7.554-4.197h-16.787v-34.167c9.099,9.97,21.229,17.327,35.253,20.738
				c41.589,9.786,84.763,10.062,126.443,0.832l14.567,49.528c1.679,3.357,5.036,5.875,8.393,5.875h16.787v57.915
				c0,9.233-3.357,17.626-10.072,24.341l-3.357,3.357c-7.554,7.554-11.751,17.626-11.751,28.538v5.036
				c0,12.59,10.911,23.502,23.502,23.502h68.826c14.269,0,25.18-10.911,25.18-25.18l0.839-109.954L495.052,174.843z
				 M124.902,184.075c-9.233,0-16.787-7.554-16.787-16.787v-33.574c0-9.233,7.554-16.787,16.787-16.787h33.574v67.148H124.902z
				 M201.282,414.056l2.518,5.036h-40.289l2.518-5.036c0.839-0.839,0.839-1.679,0.839-3.357V293.19c0-1.679,0-2.518-0.839-3.357
				l-10.911-21.823h11.751h33.574h11.751l-10.911,21.823c-0.839,0.839-0.839,1.679-0.839,3.357v117.508
				C200.443,412.377,201.282,413.216,201.282,414.056z M192.049,250.384h-16.787v-57.915v-83.934v-25.18h15.948v87.292
				c0,3.621,0.295,7.173,0.839,10.643V250.384z M400.207,276.403l-12.526-42.587l22.598-5.255v47.843H400.207z M477.426,419.092
				H408.6c-3.357,0-6.715-3.357-6.715-6.715v-5.036c0-6.715,2.518-12.59,6.715-16.787l3.357-3.357
				c9.233-9.233,15.108-22.662,15.108-36.092V217.649c0-2.518-1.679-5.036-3.357-6.715c-0.692-0.346-1.385-0.689-2.077-0.976
				c-1.564-0.984-3.518-1.356-5.477-0.703l-41.967,10.072c-0.049,0.025-0.105,0.057-0.156,0.083l-3.202,0.757
				c-40.289,9.233-82.256,9.233-122.544,0c-23.502-5.036-39.449-26.02-39.449-49.521V91.748h251.803
				c4.197,0,8.393,4.197,8.393,9.233v0.839l8.393,74.702l8.393,125.062v33.574h-25.18c-5.036,0-8.393,3.357-8.393,8.393
				c0,5.036,3.357,8.393,8.393,8.393h25.18v16.787h-25.18c-5.036,0-8.393,3.357-8.393,8.393c0,5.036,3.357,8.393,8.393,8.393h25.18
				v25.18C485.82,415.734,482.462,419.092,477.426,419.092z"/>
			<path d="M242.41,108.534c-5.036,0-8.393,3.357-8.393,8.393v67.148c0,5.036,3.357,8.393,8.393,8.393h67.148
				c5.036,0,8.393-3.357,8.393-8.393C317.951,146.305,280.18,108.534,242.41,108.534z M250.803,175.682v-49.521
				c22.662,4.197,45.325,26.859,49.521,49.521H250.803z"/>
		</g>
	</g>
</g>
<g>
</g>
<g>
</g>
<g>
</g>
<g>
</g>
<g>
</g>
<g>
</g>
<g>
</g>
<g>
</g>
<g>
</g>
<g>
</g>
<g>
</g>
<g>
</g>
<g>
</g>
<g>
</g>
<g>
</g>
</svg>
