<?xml version="1.0" encoding="iso-8859-1"?>
<!-- Generator: Adobe Illustrator 19.0.0, SVG Export Plug-In . SVG Version: 6.00 Build 0)  -->
<svg version="1.1" id="Layer_1" xmlns="http://www.w3.org/2000/svg" xmlns:xlink="http://www.w3.org/1999/xlink" x="0px" y="0px"
	 viewBox="0 0 512.466 512.466" style="enable-background:new 0 0 512.466 512.466;" xml:space="preserve">
<g transform="translate(1 1)">
	<g>
		<path d="M467.045,267.413l-59.733-85.333c-0.855-0.855-1.923-1.709-3.099-2.349c-0.106-0.07-0.204-0.144-0.314-0.211
			c-2.616-1.57-5.55-1.85-8.021-0.853h-59.87l-7.509-34.133h46.387c3.413,0,5.12-2.56,6.827-5.12s1.707-5.973,0-8.533l-34.133-51.2
			c-1.707-1.707-4.267-3.413-6.827-3.413h-27.273L298.085,6.293c-0.625-3.126-2.628-5.33-5.33-6.288
			c-2.108-1.071-4.449-1.327-6.547-0.538h-64.924c-4.267,0-7.68,2.56-8.533,6.827l-15.394,69.973h-27.273
			c-2.56,0-5.12,1.707-7.68,4.267l-34.133,51.2c-1.707,2.56-1.707,5.973,0,8.533s4.267,4.267,7.68,4.267h46.387l-7.509,34.133
			h-64.478c-0.215,0-0.429,0.029-0.644,0.053c-1.225,0.066-2.456,0.334-3.623,0.801c-1.433,1.075-2.559,2.604-3.201,4.329
			l-59.092,84.418c-1.707,2.56-2.56,5.973-0.853,8.533c1.707,2.56,4.267,4.267,7.68,4.267h101.683l-31.915,145.067H84.751
			c-5.12,0-8.533,3.413-8.533,8.533v68.267c0,5.12,3.413,8.533,8.533,8.533h341.333c5.12,0,8.533-3.413,8.533-8.533v-68.267
			c0-5.12-3.413-8.533-8.533-8.533h-35.635l-13.029-59.221c0.013-0.171,0.024-0.342,0.024-0.513c0-2.14-0.43-3.85-1.289-5.239
			l-17.621-80.094h101.683c3.413,0,5.973-1.707,7.68-5.12C468.751,273.386,468.751,269.973,467.045,267.413z M383.608,195.733
			l-32.24,52.756l-11.606-52.756H383.608z M226.456,24.1l15.814,14.25l-23.572,21.215L226.456,24.1z M292.485,60.731l-24.553-22.098
			l16.345-15.073L292.485,60.731z M268.529,126.583l32.542-26.97l6.151,27.853H269.6L268.529,126.583z M283.304,93.333
			l-27.766,22.535l-27.321-22.535H283.304z M227.124,76.266l28.28-26.081l28.943,26.081H227.124z M254.944,26.944l-11.567-10.411
			h23.135L254.944,26.944z M241.98,126.871l-0.733,0.595h-37.402l5.922-27.071L241.98,126.871z M263.468,144.533l41.529,34.133
			h-48.549c-0.939-0.146-1.901-0.15-2.852,0h-47.91l41.186-34.133H263.468z M177.449,248.131l11.462-52.398h44.923L177.449,248.131z
			 M255.452,198.735L325.937,264H184.967L255.452,198.735z M307.626,281.066l-51.782,23.635l-51.782-23.635H307.626z
			 M277.067,195.733h45.231l11.679,52.886L277.067,195.733z M159.104,250.143l-33.251-54.41h45.221L159.104,250.143z
			 M169.636,283.851l65.781,30.175l-80.41,36.701L169.636,283.851z M255.845,323.396l90.027,41.297l-90.027,31.014l-90.027-31.014
			L255.845,323.396z M276.273,314.025l65.511-30.051l14.724,66.673L276.273,314.025z M315.602,165.409l-25.31-20.876h20.7
			L315.602,165.409z M359.525,127.466h-34.782l-7.509-34.133h19.251L359.525,127.466z M152.165,127.466l23.04-34.133h18.398
			l-7.509,34.133H152.165z M220.218,144.533l-24.447,19.841l4.34-19.841H220.218z M110.138,202.133L148.495,264H66.831
			L110.138,202.133z M149.219,377.183l80.159,27.641l-61.854,21.308h-29.013L149.219,377.183z M255.845,413.951l35.328,12.182
			h-70.656L255.845,413.951z M417.551,460.266h-34.133c-5.12,0-8.533,3.413-8.533,8.533s3.413,8.533,8.533,8.533h34.133V494.4
			H93.285v-17.067h34.133c5.12,0,8.533-3.413,8.533-8.533s-3.413-8.533-8.533-8.533H93.285V443.2h34.133h256h34.133V460.266z
			 M344.165,426.133l-61.854-21.308l80.064-27.608l10.802,48.917H344.165z M361.487,264l38.758-62.513L444.005,264H361.487z"/>
	</g>
</g>
<g>
</g>
<g>
</g>
<g>
</g>
<g>
</g>
<g>
</g>
<g>
</g>
<g>
</g>
<g>
</g>
<g>
</g>
<g>
</g>
<g>
</g>
<g>
</g>
<g>
</g>
<g>
</g>
<g>
</g>
</svg>
