<?xml version="1.0" encoding="iso-8859-1"?>
<!-- Generator: Adobe Illustrator 19.0.0, SVG Export Plug-In . SVG Version: 6.00 Build 0)  -->
<svg version="1.1" id="Layer_1" xmlns="http://www.w3.org/2000/svg" xmlns:xlink="http://www.w3.org/1999/xlink" x="0px" y="0px"
	 viewBox="0 0 512 512" style="enable-background:new 0 0 512 512;" xml:space="preserve">
<g transform="translate(1 1)">
	<g>
		<path d="M425.667,135.533H289.133V92.867H331.8v8.533c0,5.12,3.413,8.533,8.533,8.533s8.533-3.413,8.533-8.533v-8.533h25.6
			c5.12,0,8.533-3.413,8.533-8.533V50.2c0-5.12-3.413-8.533-8.533-8.533h-85.333V28.013C289.133,11.8,276.333-1,260.12-1h-10.24
			c-16.213,0-29.013,12.8-29.013,29.013v13.653h-85.333c-5.12,0-8.533,3.413-8.533,8.533v34.133c0,5.12,3.413,8.533,8.533,8.533
			h25.6v8.533c0,5.12,3.413,8.533,8.533,8.533c5.12,0,8.533-3.413,8.533-8.533v-8.533h42.667v42.667H84.333
			c-5.12,0-8.533,3.413-8.533,8.533V178.2c0,5.12,3.413,8.533,8.533,8.533H101.4v8.533c0,5.12,3.413,8.533,8.533,8.533
			c5.12,0,8.533-3.413,8.533-8.533v-8.533h42.667v8.533c0,5.12,3.413,8.533,8.533,8.533c5.12,0,8.533-3.413,8.533-8.533v-8.533
			h42.667v307.2H203.8c-5.12,0-8.533,3.413-8.533,8.533S198.68,511,203.8,511h25.6h51.2h25.6c5.12,0,8.533-3.413,8.533-8.533
			s-3.413-8.533-8.533-8.533h-17.067v-307.2H331.8v8.533c0,5.12,3.413,8.533,8.533,8.533s8.533-3.413,8.533-8.533v-8.533h42.667
			v8.533c0,5.12,3.413,8.533,8.533,8.533s8.533-3.413,8.533-8.533v-8.533h17.067c5.12,0,8.533-3.413,8.533-8.533v-34.133
			C434.2,138.947,430.787,135.533,425.667,135.533z M237.933,28.013c0-6.827,5.12-11.947,11.947-11.947h10.24
			c6.827,0,11.947,5.12,11.947,11.947v13.653h-34.133V28.013z M144.067,58.733H229.4h51.2h85.333V75.8H280.6h-51.2h-85.333V58.733z
			 M237.933,92.867h34.133v42.667h-34.133V92.867z M272.067,493.933h-34.133v-17.067h8.533c5.12,0,8.533-3.413,8.533-8.533
			s-3.413-8.533-8.533-8.533h-8.533v-8.533h8.533c5.12,0,8.533-3.413,8.533-8.533s-3.413-8.533-8.533-8.533h-8.533V186.733h34.133
			V493.933z M417.133,169.667H280.6h-51.2H92.867V152.6H229.4h51.2h136.533V169.667z"/>
	</g>
</g>
<g>
</g>
<g>
</g>
<g>
</g>
<g>
</g>
<g>
</g>
<g>
</g>
<g>
</g>
<g>
</g>
<g>
</g>
<g>
</g>
<g>
</g>
<g>
</g>
<g>
</g>
<g>
</g>
<g>
</g>
</svg>
