<?xml version="1.0" encoding="iso-8859-1"?>
<!-- Generator: Adobe Illustrator 19.0.0, SVG Export Plug-In . SVG Version: 6.00 Build 0)  -->
<svg version="1.1" id="Layer_1" xmlns="http://www.w3.org/2000/svg" xmlns:xlink="http://www.w3.org/1999/xlink" x="0px" y="0px"
	 viewBox="0 0 511.787 511.787" style="enable-background:new 0 0 511.787 511.787;" xml:space="preserve">
<g transform="translate(1 1)">
	<g>
		<path d="M326.196,143.853L421.77,38.04c4.267-4.267,4.267-11.947-0.853-17.067L402.143,2.2c-4.267-4.267-11.947-4.267-17.067,0
			L280.97,96.92c-6.781,6.781-11.032,14.406-11.088,23.708c-4.856-1.539-10.017-2.374-15.365-2.374
			c-5.052,0-9.934,0.753-14.553,2.132c-0.918-9.217-4.324-17.584-11.047-23.466L123.956,2.2c-4.267-4.267-11.947-4.267-17.067,0.853
			L88.116,21.827c-4.267,4.267-4.267,11.947,0,17.067L182.836,143c6.403,6.403,13.557,10.554,22.869,11.044
			c-1.548,4.869-2.389,10.045-2.389,15.409c0,5.86,1.011,11.493,2.845,16.748c-7.799,1.375-14.795,4.712-19.911,10.558
			l-93.013,102.4c-5.12,5.973-5.12,16.213,0.853,22.187L107.743,335c2.56,3.413,6.827,5.12,11.093,5.12s7.68-0.853,11.093-4.267
			l92.837-84.327L204.068,442.52h-34.885c-5.12,0-8.533,3.413-8.533,8.533v51.2c0,5.12,3.413,8.533,8.533,8.533H339.85
			c5.12,0,8.533-3.413,8.533-8.533v-51.2c0-5.12-3.413-8.533-8.533-8.533h-34.885l-18.782-191.845l93.774,85.178
			c3.413,2.56,6.827,4.267,11.093,4.267c3.413,0,7.68-0.853,11.093-5.12l13.653-13.653c5.973-5.973,6.827-16.213,0.853-22.187
			l-93.013-102.4c-6.022-6.022-12.709-10.047-20.644-10.913c1.756-5.154,2.724-10.665,2.724-16.393
			c0-5.085-0.761-9.998-2.158-14.643C312.448,153.774,320.491,150.374,326.196,143.853z M288.65,169.453
			c0,7.967-2.774,15.314-7.394,21.138c-1.891,1.266-3.702,2.757-5.406,4.462c-0.875,0.875-1.688,1.811-2.451,2.791
			c-0.518,0.346-1.047,0.675-1.583,0.993c-0.646,0.107-1.293,0.267-1.939,0.482c-10.24,5.12-20.48,5.12-30.72,0
			c-0.755-0.503-1.509-0.839-2.264-1.046c-0.875-1.107-1.821-2.186-2.856-3.221c-1.981-1.981-4.249-3.673-6.731-5.06
			c-4.339-5.725-6.923-12.845-6.923-20.54c0-18.773,15.36-34.133,34.133-34.133S288.65,150.68,288.65,169.453z M195.636,131.907
			L103.476,30.36l12.8-12.8l101.547,92.16c3.413,2.56,5.12,6.827,5.12,11.093c0.853,5.12-0.853,8.533-4.267,11.947
			c-3.413,2.56-7.68,4.267-11.947,4.267S198.196,135.32,195.636,131.907z M220.383,230.893l-101.547,92.16l-12.8-12.8l92.16-101.547
			c2.56-3.413,6.827-5.12,11.093-5.12c3.053-0.611,6.104,0.095,8.844,1.793c1.217,1.232,2.491,2.407,3.826,3.512
			c2.149,3.221,3.544,7.062,3.544,10.909C225.503,224.067,223.796,228.333,220.383,230.893z M331.316,493.72h-153.6v-34.133h34.133
			h85.333h34.133V493.72z M221.236,442.52l21.617-217.829c0.338-1.698,0.529-3.453,0.557-5.274c3.58,0.8,7.294,1.236,11.107,1.236
			c4.121,0,8.127-0.506,11.972-1.437l21.308,223.304H221.236z M403.85,310.253l-12.8,12.8l-101.547-92.16
			c-3.413-2.56-5.12-6.827-5.12-11.093c-0.853-5.12,0.853-8.533,4.267-11.947c2.56-2.56,6.827-4.267,11.093-4.267
			s8.533,1.707,11.947,5.12L403.85,310.253z M303.156,137.027c-5.12,0.853-8.533-0.853-11.947-4.267s-5.12-6.827-5.12-11.947
			c0-4.267,1.707-8.533,5.12-11.093l101.547-92.16l12.8,12.8L314.25,131.907C311.69,135.32,307.423,137.027,303.156,137.027z"/>
	</g>
</g>
<g>
</g>
<g>
</g>
<g>
</g>
<g>
</g>
<g>
</g>
<g>
</g>
<g>
</g>
<g>
</g>
<g>
</g>
<g>
</g>
<g>
</g>
<g>
</g>
<g>
</g>
<g>
</g>
<g>
</g>
</svg>
