<?xml version="1.0" encoding="iso-8859-1"?>
<!-- Generator: Adobe Illustrator 19.0.0, SVG Export Plug-In . SVG Version: 6.00 Build 0)  -->
<svg version="1.1" id="Layer_1" xmlns="http://www.w3.org/2000/svg" xmlns:xlink="http://www.w3.org/1999/xlink" x="0px" y="0px"
	 viewBox="0 0 512 512" style="enable-background:new 0 0 512 512;" xml:space="preserve">
<g transform="translate(1 1)">
	<g>
		<g>
			<path d="M340.333-1H169.667c-14.507,0-25.6,11.093-25.6,25.6v85.333c0,54.757,4.847,75.639,34.133,105.773V485.4
				c0,14.507,11.093,25.6,25.6,25.6h102.4c14.507,0,25.6-11.093,25.6-25.6V215.707c30.085-30.911,34.133-50.977,34.133-105.774V24.6
				C365.933,10.093,354.84-1,340.333-1z M169.667,16.067h170.667c5.12,0,8.533,3.413,8.533,8.533v17.067h-25.6
				c-5.12,0-8.533,3.413-8.533,8.533s3.413,8.533,8.533,8.533h25.6V101.4H161.133V58.733h25.6c5.12,0,8.533-3.413,8.533-8.533
				s-3.413-8.533-8.533-8.533h-25.6V24.6C161.133,20.333,165.4,16.067,169.667,16.067z M314.733,485.4
				c0,5.12-3.413,8.533-8.533,8.533H203.8c-5.12,0-8.533-3.413-8.533-8.533V220.867h119.467V485.4z M319.853,203.8H190.147
				c-23.04-23.893-28.16-38.4-29.013-85.333h187.733C348.867,165.4,343.747,179.907,319.853,203.8z"/>
			<path d="M255,391.533c23.893,0,42.667-18.773,42.667-42.667V280.6c0-23.893-18.773-42.667-42.667-42.667
				c-23.893,0-42.667,18.773-42.667,42.667v68.267C212.333,372.76,231.107,391.533,255,391.533z M255,374.467
				c-14.507,0-25.6-11.093-25.6-25.6v-33.93c6.64,4.918,14.814,7.924,23.773,8.286c0.605,0.029,1.214,0.045,1.827,0.045
				c0.615,0,1.229-0.016,1.843-0.045c8.953-0.365,17.12-3.371,23.757-8.285v33.93C280.6,363.373,269.507,374.467,255,374.467z
				 M255,255c14.507,0,25.6,11.093,25.6,25.6c0,14.507-11.093,25.6-25.6,25.6s-25.6-11.093-25.6-25.6
				C229.4,266.093,240.493,255,255,255z"/>
			<path d="M220.867,58.733h68.267c5.12,0,8.533-3.413,8.533-8.533s-3.413-8.533-8.533-8.533h-68.267
				c-5.12,0-8.533,3.413-8.533,8.533S216.6,58.733,220.867,58.733z"/>
		</g>
	</g>
</g>
<g>
</g>
<g>
</g>
<g>
</g>
<g>
</g>
<g>
</g>
<g>
</g>
<g>
</g>
<g>
</g>
<g>
</g>
<g>
</g>
<g>
</g>
<g>
</g>
<g>
</g>
<g>
</g>
<g>
</g>
</svg>
