<?xml version="1.0" encoding="iso-8859-1"?>
<!-- Generator: Adobe Illustrator 19.0.0, SVG Export Plug-In . SVG Version: 6.00 Build 0)  -->
<svg version="1.1" id="Layer_1" xmlns="http://www.w3.org/2000/svg" xmlns:xlink="http://www.w3.org/1999/xlink" x="0px" y="0px"
	 viewBox="0 0 503.607 503.607" style="enable-background:new 0 0 503.607 503.607;" xml:space="preserve">
<g transform="translate(1 1)">
	<g>
		<g>
			<path d="M494.213,40.967H7.393C2.357,40.967-1,44.325-1,49.361v402.885c0,5.036,3.357,8.393,8.393,8.393h33.574h419.672h33.574
				c5.036,0,8.393-3.357,8.393-8.393V49.361C502.607,44.325,499.249,40.967,494.213,40.967z M49.361,309.557h402.885v33.574H49.361
				V309.557z M452.246,292.771H49.361v-33.574h402.885V292.771z M49.361,359.918h402.885v33.574H49.361V359.918z M452.246,242.41
				H49.361v-33.574h402.885V242.41z M49.361,443.852v-33.574h402.885v33.574H49.361z M485.82,443.852h-16.787v-41.967v-50.361
				v-50.361v-50.361v-50.361c0-5.036-3.357-8.393-8.393-8.393H40.967c-5.036,0-8.393,3.357-8.393,8.393v50.361v50.361v50.361v50.361
				v41.967H15.787V57.754H485.82V443.852z"/>
			<path d="M275.984,175.262h184.656c5.036,0,8.393-3.357,8.393-8.393v-37.77c0-2.518-1.679-5.875-4.197-7.554
				c-59.593-31.056-122.544-47.003-188.852-47.003c-5.036,0-8.393,3.357-8.393,8.393v83.934
				C267.59,171.905,270.948,175.262,275.984,175.262z M284.377,91.328c58.754,0.839,114.99,15.108,167.869,42.807v24.341H284.377
				V91.328z"/>
			<path d="M40.967,175.262h184.656c5.036,0,8.393-3.357,8.393-8.393V82.934c0-5.036-3.357-8.393-8.393-8.393
				c-66.308,0-129.259,15.948-188.852,47.003c-2.518,1.679-4.197,4.197-4.197,7.554v37.77
				C32.574,171.905,35.931,175.262,40.967,175.262z M49.361,134.134c52.879-26.859,109.115-41.967,167.869-42.807v67.148H49.361
				V134.134z"/>
		</g>
	</g>
</g>
<g>
</g>
<g>
</g>
<g>
</g>
<g>
</g>
<g>
</g>
<g>
</g>
<g>
</g>
<g>
</g>
<g>
</g>
<g>
</g>
<g>
</g>
<g>
</g>
<g>
</g>
<g>
</g>
<g>
</g>
</svg>
