<?xml version="1.0" encoding="iso-8859-1"?>
<!-- Generator: Adobe Illustrator 19.0.0, SVG Export Plug-In . SVG Version: 6.00 Build 0)  -->
<svg version="1.1" id="Layer_1" xmlns="http://www.w3.org/2000/svg" xmlns:xlink="http://www.w3.org/1999/xlink" x="0px" y="0px"
	 viewBox="0 0 512 512" style="enable-background:new 0 0 512 512;" xml:space="preserve">
<g transform="translate(1 1)">
	<g>
		<g>
			<path d="M83.907,109.933h68.267c5.12,0,8.533-3.413,8.533-8.533V41.667c0-5.12-3.413-8.533-8.533-8.533H83.907
				c-5.12,0-8.533,3.413-8.533,8.533V101.4C75.373,106.52,78.787,109.933,83.907,109.933z M92.44,50.2h51.2v42.667h-51.2V50.2z"/>
			<path d="M186.307-1c-5.12,0-8.533,3.413-8.533,8.533v153.6h-8.533c0.748-4.487-0.471-8.974-2.506-12.886
				c-0.13-0.255-0.268-0.507-0.409-0.758c-0.162-0.291-0.328-0.579-0.498-0.863c-4.267-6.827-11.947-11.093-19.627-11.093H89.88
				c-7.68,0-15.36,4.267-19.627,11.093c-2.311,4.621-3.442,9.633-2.877,14.507h-9.07V7.533c0-5.12-3.413-8.533-8.533-8.533
				c-5.12,0-8.533,3.413-8.533,8.533v162.133v170.667v162.133c0,5.12,3.413,8.533,8.533,8.533c5.12,0,8.533-3.413,8.533-8.533
				v-153.6h8.533c-0.853,5.12,0.853,10.24,3.413,15.36C74.52,371.053,82.2,375.32,89.88,375.32h55.467
				c6.068,0,11.266-2.166,15.301-5.867c2.011-1.501,3.781-3.269,5.179-5.227c2.928-4.684,3.845-10.172,3.031-15.36h8.916v153.6
				c0,5.12,3.413,8.533,8.533,8.533s8.533-3.413,8.533-8.533V340.333V169.667V7.533C194.84,2.413,191.427-1,186.307-1z
				 M89.117,357.353c-1.93-0.213-3.515-1.173-4.411-1.845c-0.172-0.623-0.665-2.776,0.054-4.935c0.853-2.56,1.707-4.267,2.56-5.973
				c0.142-0.568,0.25-1.104,0.341-1.629c7.428-16.701,12.388-34.216,13.287-52.547l13.68,7.242c2.56,0.853,5.12,0.853,7.68,0
				l12.8-6.827c1.53,18.362,5.815,36.037,13.449,53.027c0.063,0.248,0.126,0.498,0.205,0.733c0.853,1.707,1.707,3.413,2.56,5.12
				c1.707,2.56,0.853,4.267,0,5.12s-2.56,2.56-5.12,2.56H89.88C89.609,357.4,89.367,357.373,89.117,357.353z M96.707,241.347
				l21.333-11.093l22.187,11.093c0.465,0.465,0.935,0.672,1.537,0.769l1.876,0.938v23.893l-1.534,0.767
				c-0.962,0.099-1.893,0.38-2.732,0.94l-21.333,11.093l-25.6-12.8v-23.893l1.534-0.767
				C94.936,242.187,95.868,241.906,96.707,241.347z M177.773,178.2v153.6h-15.558c-5.997-15.146-9.449-30.783-9.969-46.915
				c-0.004-0.143-0.011-0.285-0.015-0.429c-0.029-1.001-0.039-2.005-0.045-3.009l3.401-1.7c3.413-1.707,5.12-4.267,5.12-7.68
				v-34.133c0-3.413-2.56-5.973-5.12-7.68l-3.401-1.7c0.006-0.911,0.016-1.821,0.041-2.729c0.015-0.531,0.038-1.063,0.059-1.595
				c0.024-0.617,0.051-1.234,0.083-1.85c0.038-0.707,0.082-1.415,0.131-2.124c0.026-0.384,0.056-0.767,0.086-1.15
				c0.067-0.855,0.137-1.71,0.221-2.566c0.008-0.085,0.018-0.17,0.027-0.255c0.302-3.024,0.711-6.054,1.221-9.077
				c0.035-0.207,0.067-0.415,0.103-0.621c0.123-0.712,0.259-1.422,0.394-2.133c0.111-0.579,0.222-1.157,0.34-1.734
				c0.096-0.47,0.195-0.939,0.296-1.408c0.214-0.986,0.433-1.97,0.669-2.95c0.024-0.101,0.048-0.203,0.072-0.305
				c1.485-6.116,3.403-12.113,5.72-17.971c0.209-0.521,0.416-1.043,0.632-1.56c0.044-0.108,0.09-0.215,0.135-0.323H177.773z
				 M146.2,152.6c3.413,0,5.12,2.56,5.12,2.56s0.853,2.56,0,5.12c-3.563,7.126-6.508,14.499-8.889,22.024
				c-4.104,12.162-6.735,24.732-7.325,37.709l-13.653-6.827c-0.853-0.853-1.707-0.853-3.413-0.853s-2.56,0-4.267,0.853
				l-12.838,6.419c-0.983-11.488-3.044-22.708-6.332-33.658c-1.972-6.686-4.384-13.251-7.283-19.694
				c-0.202-0.404-0.418-0.78-0.644-1.136c-0.108-0.231-0.214-0.463-0.323-0.694c-0.254-1.123-0.921-1.943-1.594-3.29
				c-0.853-2.56-0.853-5.12,0-5.973c0.853-0.853,2.56-2.56,5.12-2.56H146.2z M58.307,331.8V178.2h15.36
				c1.742,4.136,3.258,8.329,4.555,12.577c3.309,11.165,5.226,22.59,5.609,34.273c0.005,0.172,0.014,0.342,0.019,0.514
				c0.025,0.854,0.03,1.71,0.038,2.566l-4.248,2.124c-2.56,1.707-4.267,4.267-4.267,7.68v34.133c0,3.413,1.707,5.973,5.12,7.68
				l3.401,1.7c-0.006,0.998-0.016,1.996-0.045,2.99c-0.005,0.171-0.013,0.342-0.018,0.513c-0.511,15.632-3.772,30.769-9.44,45.07
				c-0.191,0.473-0.38,0.947-0.577,1.419c-0.049,0.121-0.101,0.241-0.151,0.362H58.307z"/>
			<path d="M356.973,109.933h68.267c5.12,0,8.533-3.413,8.533-8.533V41.667c0-5.12-3.413-8.533-8.533-8.533h-68.267
				c-5.12,0-8.533,3.413-8.533,8.533V101.4C348.44,106.52,351.853,109.933,356.973,109.933z M365.507,50.2h51.2v42.667h-51.2V50.2z"
				/>
			<path d="M468.76,7.533c0-5.12-3.413-8.533-8.533-8.533s-8.533,3.413-8.533,8.533v153.6h-8.533
				c0.853-5.12-0.853-10.24-3.413-14.507c-1.076-1.721-2.369-3.278-3.824-4.647c-4.395-4.573-10.522-7.3-16.656-7.3h-56.32
				c-8.533,0-15.36,4.267-19.627,11.093c-2.928,4.684-3.845,10.172-3.031,15.36h-8.915V7.533c0-5.12-3.413-8.533-8.533-8.533
				s-8.533,3.413-8.533,8.533v162.133v166.944c-0.563,1.069-0.853,2.253-0.853,3.722v162.133c0,5.12,3.413,8.533,8.533,8.533
				s8.533-3.413,8.533-8.533v-153.6h8.533c-0.853,5.12,0.853,11.093,3.413,15.36c4.267,6.827,11.947,11.093,19.627,11.093h56.32
				c5.638,0,10.524-1.871,14.426-5.104c2.584-1.648,4.937-3.69,6.908-5.99c2.928-4.684,3.845-10.172,3.031-15.36h8.062v153.6
				c0,5.12,3.413,8.533,8.533,8.533s8.533-3.413,8.533-8.533V340.333V172.105c0.394-0.793,0.689-1.615,0.853-2.439V7.533z
				 M424.387,155.16c0,0,0.853,2.56,0,5.12c-3.563,7.126-6.508,14.498-8.888,22.023c-4.104,12.163-6.735,24.732-7.325,37.711
				l-13.653-6.827c-0.853-0.853-1.707-0.853-3.413-0.853s-2.56,0-4.267,0l-12.8,6.827c-1.53-18.362-5.815-36.037-13.449-53.027
				c-0.063-0.248-0.126-0.498-0.205-0.733l-0.234-0.234c-0.243-0.532-0.482-1.065-0.732-1.596c-0.254-1.123-0.921-1.943-1.594-3.29
				c-1.707-2.56-0.853-4.267,0-5.12c0.853-0.853,2.56-2.56,5.12-2.56h56.32C422.68,152.6,424.387,155.16,424.387,155.16z
				 M413.293,241.347c0.465,0.465,0.935,0.672,1.537,0.769l1.876,0.938v23.893l-2.241,1.121c-0.405,0.148-0.798,0.337-1.172,0.586
				l-21.761,10.88l-21.76-10.88c-0.995-0.663-2.118-1.061-3.271-1.209l-0.996-0.498v-23.893l1.534-0.767
				c0.962-0.099,1.893-0.38,2.732-0.94l21.333-11.093L413.293,241.347z M423.533,354.84c-0.853,0.853-2.56,2.56-5.12,2.56h-56.32
				c-3.413,0-5.12-2.56-5.12-2.56s-0.306-0.926-0.367-2.218c0.03-0.648,0.133-1.348,0.367-2.049
				c0.721-1.442,1.442-2.889,2.163-4.846c0.455-0.584,0.877-1.234,1.251-1.981c7.616-16.926,12.709-34.691,13.626-53.296
				l12.828,7.216c2.56,0.853,5.12,0.853,7.68,0l12.8-6.827c1.53,18.362,5.815,36.036,13.449,53.027
				c0.063,0.248,0.126,0.498,0.205,0.733c0.853,2.56,1.707,4.267,2.56,5.973c0.597,0.895,0.876,1.683,0.956,2.37
				C424.378,353.785,423.956,354.417,423.533,354.84z M331.373,331.8V178.2h15.36c1.742,4.138,3.26,8.333,4.557,12.583
				c3.308,11.163,5.225,22.585,5.607,34.266c0.005,0.172,0.014,0.342,0.019,0.514c0.025,0.854,0.03,1.71,0.038,2.566l-4.248,2.124
				c-2.56,1.707-4.267,4.267-4.267,7.68v34.133c0,3.413,1.707,5.973,5.12,7.68l3.388,1.694
				c-0.219,17.287-3.784,34.524-10.244,50.359H331.373z M436.135,331.8c-6.475-16.351-9.98-33.276-10.035-50.776l2.554-1.277
				c3.413-1.707,5.12-4.267,5.12-7.68v-34.133c0-3.413-2.56-5.973-5.12-7.68l-3.401-1.7c0.006-0.911,0.016-1.821,0.041-2.729
				c0.015-0.532,0.038-1.066,0.06-1.599c0.024-0.615,0.05-1.229,0.083-1.843c0.039-0.714,0.082-1.428,0.132-2.144
				c0.026-0.37,0.054-0.739,0.083-1.108c0.069-0.878,0.141-1.756,0.227-2.635c0.002-0.023,0.005-0.045,0.007-0.068
				c1.283-12.983,4.481-26.084,9.594-38.228h15.36v153.6H436.135z"/>
		</g>
	</g>
</g>
<g>
</g>
<g>
</g>
<g>
</g>
<g>
</g>
<g>
</g>
<g>
</g>
<g>
</g>
<g>
</g>
<g>
</g>
<g>
</g>
<g>
</g>
<g>
</g>
<g>
</g>
<g>
</g>
<g>
</g>
</svg>
