<?xml version="1.0" encoding="iso-8859-1"?>
<!-- Generator: Adobe Illustrator 19.0.0, SVG Export Plug-In . SVG Version: 6.00 Build 0)  -->
<svg version="1.1" id="Layer_1" xmlns="http://www.w3.org/2000/svg" xmlns:xlink="http://www.w3.org/1999/xlink" x="0px" y="0px"
	 viewBox="0 0 512 512" style="enable-background:new 0 0 512 512;" xml:space="preserve">
<g transform="translate(1 1)">
	<g>
		<g>
			<path d="M502.467,357.4h-102.4v-51.2h102.4c5.12,0,8.533-3.413,8.533-8.533s-3.413-8.533-8.533-8.533h-102.4v-25.6
				c0-5.12-3.413-8.533-8.533-8.533H313.88v-42.24C354.486,196.308,383,156.565,383,109.933C383,48.493,333.507-1,272.067-1
				S161.133,48.493,161.133,109.933c0,46.305,28.115,85.819,68.267,102.479V255h-76.8c-5.12,0-8.533,3.413-8.533,8.533v25.84
				C63.516,293.786-1,360.234-1,441.027v61.44c0,5.12,3.413,8.533,8.533,8.533s8.533-3.413,8.533-8.533v-61.44
				c0-71.68,57.173-130.56,128-134.827v49.493c-42.667,5.12-76.8,40.96-76.8,85.333v61.44c0,5.12,3.413,8.533,8.533,8.533
				s8.533-3.413,8.533-8.533v-61.44c0-34.656,26.178-63.475,59.733-67.71v26.75c0,5.12,3.413,8.533,8.533,8.533h238.933
				c5.12,0,8.533-3.413,8.533-8.533v-25.6h102.4c5.12,0,8.533-3.413,8.533-8.533S507.587,357.4,502.467,357.4z M296.678,200.488
				c-0.495,0.131-0.988,0.276-1.484,0.399c-0.097,0.025-0.196,0.047-0.293,0.072c-7.641,1.879-15.368,2.825-23.097,2.838
				c-0.292-0.001-0.583-0.008-0.874-0.011c-0.599-0.004-1.199-0.021-1.798-0.037c-15.515-0.486-30.173-4.805-43.009-12.063
				c11.096-14.395,28.095-22.019,45.943-22.019c17.849,0,34.847,7.624,45.943,22.019
				C311.346,195.454,304.19,198.429,296.678,200.488z M178.2,109.933c0-52.053,42.667-93.867,93.867-93.867
				c52.053,0,93.867,41.813,93.867,93.867c0,28.87-13.129,54.585-33.555,71.769C317.7,163.289,296.221,152.6,272.067,152.6
				c-23.26,0-45.197,10.559-60.017,29.35C191.455,164.767,178.2,138.943,178.2,109.933z M246.467,217.92
				c0.568,0.134,1.141,0.254,1.712,0.379c0.632,0.138,1.264,0.274,1.899,0.401c0.624,0.125,1.249,0.244,1.876,0.358
				c0.568,0.103,1.139,0.198,1.71,0.293c0.928,0.154,1.86,0.296,2.795,0.427c0.656,0.092,1.312,0.181,1.971,0.261
				c0.557,0.068,1.116,0.131,1.675,0.19c0.886,0.094,1.776,0.177,2.669,0.251c0.439,0.036,0.879,0.071,1.319,0.102
				c1.032,0.073,2.068,0.13,3.108,0.174c0.367,0.016,0.734,0.03,1.101,0.042c1.25,0.041,2.503,0.07,3.763,0.07
				c1.264,0,2.521-0.029,3.774-0.07c0.356-0.012,0.712-0.025,1.067-0.04c1.121-0.048,2.238-0.108,3.35-0.189
				c0.248-0.018,0.496-0.037,0.744-0.056c1.1-0.087,2.194-0.193,3.284-0.312c0.356-0.039,0.711-0.079,1.066-0.121
				c4.182-0.495,8.292-1.219,12.316-2.163V255h-51.2V217.92z M383,391.533H161.133v-27.307v-66.56v-25.6h76.8H306.2H383v25.6v68.267
				V391.533z"/>
			<path d="M340.333,297.667H203.8c-5.12,0-8.533,3.413-8.533,8.533v51.2c0,5.12,3.413,8.533,8.533,8.533h136.533
				c5.12,0,8.533-3.413,8.533-8.533v-51.2C348.867,301.08,345.453,297.667,340.333,297.667z M331.8,348.867H212.333v-34.133H331.8
				V348.867z"/>
			<path d="M212.333,109.933c0-4.267-3.413-8.533-8.533-8.533c-5.12,0-8.533,3.413-8.533,8.533s3.413,8.533,8.533,8.533
				C208.92,118.467,212.333,115.053,212.333,109.933z"/>
			<path d="M340.333,118.467c5.12,0,8.533-3.413,8.533-8.533c0-4.267-3.413-8.533-8.533-8.533c-5.12,0-8.533,3.413-8.533,8.533
				S335.213,118.467,340.333,118.467z"/>
			<path d="M220.867,75.8c5.12,0,8.533-3.413,8.533-8.533c0-4.267-3.413-8.533-8.533-8.533s-8.533,3.413-8.533,8.533
				S215.747,75.8,220.867,75.8z"/>
			<path d="M272.067,50.2c5.12,0,8.533-3.413,8.533-8.533c0-4.267-3.413-8.533-8.533-8.533c-5.12,0-8.533,3.413-8.533,8.533
				S266.947,50.2,272.067,50.2z"/>
			<path d="M323.267,75.8c5.12,0,8.533-3.413,8.533-8.533c0-4.267-3.413-8.533-8.533-8.533s-8.533,3.413-8.533,8.533
				S318.147,75.8,323.267,75.8z"/>
			<path d="M265.24,132.12c1.707,2.56,7.68,2.56,11.093,0.853c3.413-2.56,4.267-8.533,0.853-11.947l-28.16-34.133
				c-2.56-3.413-8.533-4.267-11.947-0.853c-3.413,2.56-4.267,8.533-0.853,11.947L265.24,132.12z"/>
		</g>
	</g>
</g>
<g>
</g>
<g>
</g>
<g>
</g>
<g>
</g>
<g>
</g>
<g>
</g>
<g>
</g>
<g>
</g>
<g>
</g>
<g>
</g>
<g>
</g>
<g>
</g>
<g>
</g>
<g>
</g>
<g>
</g>
</svg>
