<?xml version="1.0" encoding="iso-8859-1"?>
<!-- Generator: Adobe Illustrator 19.0.0, SVG Export Plug-In . SVG Version: 6.00 Build 0)  -->
<svg version="1.1" id="Layer_1" xmlns="http://www.w3.org/2000/svg" xmlns:xlink="http://www.w3.org/1999/xlink" x="0px" y="0px"
	 viewBox="0 0 512 512" style="enable-background:new 0 0 512 512;" xml:space="preserve">
<g transform="translate(1 1)">
	<g>
		<g>
			<path d="M502.467,357.4h-102.4v-51.2h102.4c5.12,0,8.533-3.413,8.533-8.533s-3.413-8.533-8.533-8.533h-102.4v-25.6
				c0-5.12-3.413-8.533-8.533-8.533H313.88v-42.24C354.486,196.308,383,156.565,383,109.933C383,48.493,333.507-1,272.067-1
				S161.133,48.493,161.133,109.933c0,46.305,28.115,85.819,68.267,102.479V255h-76.8c-5.12,0-8.533,3.413-8.533,8.533v25.84
				C63.516,293.786-1,360.234-1,441.027v61.44c0,5.12,3.413,8.533,8.533,8.533s8.533-3.413,8.533-8.533v-61.44
				c0-71.68,57.173-130.56,128-134.827v49.493c-42.667,5.12-76.8,40.96-76.8,85.333v61.44c0,5.12,3.413,8.533,8.533,8.533
				s8.533-3.413,8.533-8.533v-61.44c0-34.656,26.178-63.475,59.733-67.71v26.75c0,5.12,3.413,8.533,8.533,8.533h238.933
				c5.12,0,8.533-3.413,8.533-8.533v-25.6h102.4c5.12,0,8.533-3.413,8.533-8.533S507.587,357.4,502.467,357.4z M178.593,118.467
				h8.14c5.12,0,8.533-3.413,8.533-8.533s-3.413-8.533-8.533-8.533h-8.14c4.1-45.161,40.392-80.854,84.94-84.937V24.6
				c0,5.12,3.413,8.533,8.533,8.533c5.12,0,8.533-3.413,8.533-8.533v-8.148c45.204,4.027,80.921,39.744,84.948,84.948H357.4
				c-5.12,0-8.533,3.413-8.533,8.533s3.413,8.533,8.533,8.533h8.14c-3.594,39.585-31.92,71.895-68.863,82.021
				c-0.495,0.131-0.988,0.276-1.484,0.399c-0.097,0.025-0.196,0.047-0.293,0.072c-4.74,1.166-9.514,1.959-14.301,2.407v-8.098
				c0-5.12-3.413-8.533-8.533-8.533c-5.12,0-8.533,3.413-8.533,8.533v8.137C218.985,199.321,182.693,163.628,178.593,118.467z
				 M246.467,217.915c8.214,1.928,16.783,2.952,25.6,2.952s17.386-1.024,25.6-2.952V255h-51.2V217.915z M383,391.533H161.133
				v-27.307v-66.56v-25.6h76.8H306.2H383v25.6v68.267V391.533z"/>
			<path d="M340.333,297.667H203.8c-5.12,0-8.533,3.413-8.533,8.533v51.2c0,5.12,3.413,8.533,8.533,8.533h136.533
				c5.12,0,8.533-3.413,8.533-8.533v-51.2C348.867,301.08,345.453,297.667,340.333,297.667z M331.8,348.867H212.333v-34.133H331.8
				V348.867z"/>
			<path d="M292.547,134.68c2.56-0.853,4.267-2.56,5.12-5.12l17.067-51.2c0.853-2.56,0-5.973-2.56-8.533
				c-1.707-1.707-5.12-2.56-8.533-1.707l-51.2,17.067c-2.56,0.853-4.267,2.56-5.12,5.12l-17.067,51.2
				c-1.707,2.56-0.853,5.973,1.707,8.533c1.707,1.707,3.413,2.56,5.973,2.56c0.853,0,1.707,0,3.413-0.853L292.547,134.68z
				 M261.827,99.693l30.72-10.24l-10.24,30.72l-30.72,10.24L261.827,99.693z"/>
		</g>
	</g>
</g>
<g>
</g>
<g>
</g>
<g>
</g>
<g>
</g>
<g>
</g>
<g>
</g>
<g>
</g>
<g>
</g>
<g>
</g>
<g>
</g>
<g>
</g>
<g>
</g>
<g>
</g>
<g>
</g>
<g>
</g>
</svg>
