<?xml version="1.0" encoding="iso-8859-1"?>
<!-- Generator: Adobe Illustrator 19.0.0, SVG Export Plug-In . SVG Version: 6.00 Build 0)  -->
<svg version="1.1" id="Layer_1" xmlns="http://www.w3.org/2000/svg" xmlns:xlink="http://www.w3.org/1999/xlink" x="0px" y="0px"
	 viewBox="0 0 503.607 503.607" style="enable-background:new 0 0 503.607 503.607;" xml:space="preserve">
<g transform="translate(1 1)">
	<g>
		<g>
			<path d="M227.071,230.557c0.032,0.01,0.065,0.018,0.098,0.028c1.165,0.344,2.337,0.669,3.522,0.963
				c0.364,0.091,0.733,0.169,1.099,0.255c0.892,0.209,1.785,0.416,2.687,0.596c0.612,0.123,1.231,0.223,1.847,0.332
				c0.695,0.122,1.387,0.253,2.087,0.357c0.79,0.119,1.588,0.209,2.384,0.305c0.557,0.067,1.109,0.147,1.669,0.203
				c0.941,0.094,1.89,0.156,2.839,0.218c0.435,0.029,0.867,0.073,1.304,0.095c1.392,0.069,2.79,0.107,4.197,0.107
				s2.805-0.038,4.197-0.107c0.437-0.022,0.868-0.066,1.304-0.095c0.949-0.062,1.898-0.124,2.839-0.218
				c0.56-0.056,1.112-0.136,1.669-0.203c0.796-0.096,1.594-0.187,2.384-0.305c0.7-0.105,1.392-0.235,2.087-0.357
				c0.616-0.109,1.235-0.209,1.847-0.332c0.903-0.18,1.795-0.387,2.687-0.596c0.366-0.086,0.734-0.164,1.099-0.255
				c1.185-0.294,2.357-0.619,3.522-0.963c0.032-0.01,0.065-0.018,0.098-0.028c34.699-10.305,60.202-42.547,60.202-80.475
				c0-46.164-37.771-83.934-83.934-83.934s-83.934,37.77-83.934,83.934C166.869,188.01,192.372,220.252,227.071,230.557z
				 M251.156,217.22c-14.087-0.095-27.346-4.284-38.962-12.581c10.911-8.393,25.18-12.59,39.449-12.59
				c14.004,0,27.196,4.053,38.79,12.138C279.393,212.307,265.813,217.144,251.156,217.22z M242.41,83.482v7.846
				c0,5.036,3.357,8.393,8.393,8.393s8.393-4.197,8.393-8.393v-7.846c30.252,3.818,54.388,27.955,58.207,58.207h-7.846
				c-5.036,0-8.393,3.357-8.393,8.393s3.357,8.393,8.393,8.393h7.846c-1.652,13.086-7.095,25.029-15.204,34.68
				c-14.769-11.557-32.448-17.893-51.396-17.893s-36.627,6.336-51.396,17.893c-8.109-9.651-13.552-21.594-15.204-34.68h7.846
				c5.036,0,8.393-3.357,8.393-8.393s-3.357-8.393-8.393-8.393h-7.846C188.021,111.436,212.158,87.3,242.41,83.482z"/>
			<path d="M477.426,317.951H333.384c-3.335-9.938-12.525-16.787-23.827-16.787h-24.341v-38.751
				c47.976-14.802,83.095-59.663,83.095-112.331c0-64.63-52.879-117.508-117.508-117.508S133.295,85.452,133.295,150.082
				c0,52.975,35.53,98.046,83.934,112.582v38.5h-25.18c-11.302,0-20.492,6.849-23.827,16.787H24.18
				C9.911,317.951-1,328.862-1,343.131v83.934c0,14.269,10.911,25.18,25.18,25.18h144.042c3.335,9.938,12.525,16.787,23.827,16.787
				h117.508c11.302,0,20.492-6.849,23.827-16.787h144.042c14.269,0,25.18-10.911,25.18-25.18v-83.934
				C502.607,328.862,491.695,317.951,477.426,317.951z M150.082,150.082c0-55.397,45.325-100.721,100.721-100.721
				s100.721,45.325,100.721,100.721c0,46.203-31.531,85.392-74.136,97.13c-1.028-0.16-2.056-0.109-3.084,0.234
				c-15.108,3.357-30.216,3.357-46.164,0c-1.139-0.38-2.447-0.401-3.696-0.172C181.725,235.613,150.082,196.367,150.082,150.082z
				 M234.016,266.377c5.486,0.794,11.09,1.213,16.787,1.213c5.697,0,11.3-0.419,16.787-1.213v34.787h-33.574V266.377z
				 M15.787,427.066v-58.754h25.18c5.036,0,8.393-3.357,8.393-8.393s-3.357-8.393-8.393-8.393h-25.18v-8.393
				c0-5.036,3.357-8.393,8.393-8.393h142.688v16.787h-58.754c-5.036,0-8.393,3.357-8.393,8.393s3.357,8.393,8.393,8.393h58.754
				v67.148H24.18C19.144,435.459,15.787,432.102,15.787,427.066z M309.557,452.246H192.049c-5.036,0-8.393-3.357-8.393-8.393
				V326.344c0-5.036,3.357-8.393,8.393-8.393h33.574h50.361h33.574c5.036,0,8.393,3.357,8.393,8.393v117.508
				C317.951,448.888,314.593,452.246,309.557,452.246z M477.426,435.459H334.738v-67.148h75.541c5.036,0,8.393-3.357,8.393-8.393
				s-3.357-8.393-8.393-8.393h-75.541v-16.787h142.688c5.036,0,8.393,3.357,8.393,8.393v8.393h-8.393
				c-5.036,0-8.393,3.357-8.393,8.393s3.357,8.393,8.393,8.393h8.393v58.754C485.82,432.102,482.462,435.459,477.426,435.459z"/>
			<path d="M250.803,158.475c2.518,0,4.197-0.839,5.875-2.518l25.18-25.18c3.357-3.357,3.357-8.393,0-11.751
				c-3.357-3.357-8.393-3.357-11.751,0l-25.18,25.18c-3.357,3.357-3.357,8.393,0,11.751
				C246.607,157.636,248.285,158.475,250.803,158.475z"/>
			<path d="M74.541,351.525c-5.036,0-8.393,3.357-8.393,8.393s3.357,8.393,8.393,8.393s8.393-3.357,8.393-8.393
				S79.577,351.525,74.541,351.525z"/>
			<path d="M443.852,351.525c-5.036,0-8.393,3.357-8.393,8.393s3.357,8.393,8.393,8.393c5.036,0,8.393-3.357,8.393-8.393
				S448.888,351.525,443.852,351.525z"/>
		</g>
	</g>
</g>
<g>
</g>
<g>
</g>
<g>
</g>
<g>
</g>
<g>
</g>
<g>
</g>
<g>
</g>
<g>
</g>
<g>
</g>
<g>
</g>
<g>
</g>
<g>
</g>
<g>
</g>
<g>
</g>
<g>
</g>
</svg>
