<?xml version="1.0" encoding="iso-8859-1"?>
<!-- Generator: Adobe Illustrator 19.0.0, SVG Export Plug-In . SVG Version: 6.00 Build 0)  -->
<svg version="1.1" id="Layer_1" xmlns="http://www.w3.org/2000/svg" xmlns:xlink="http://www.w3.org/1999/xlink" x="0px" y="0px"
	 viewBox="0 0 512 512" style="enable-background:new 0 0 512 512;" xml:space="preserve">
<g transform="translate(1 1)">
	<g>
		<g>
			<path d="M105.24,109.933h68.267c5.12,0,8.533-3.413,8.533-8.533V41.667c0-5.12-3.413-8.533-8.533-8.533H105.24
				c-5.12,0-8.533,3.413-8.533,8.533V101.4C96.707,106.52,100.12,109.933,105.24,109.933z M113.773,50.2h51.2v42.667h-51.2V50.2z"/>
			<path d="M378.307,109.933h68.267c5.12,0,8.533-3.413,8.533-8.533V41.667c0-5.12-3.413-8.533-8.533-8.533h-68.267
				c-5.12,0-8.533,3.413-8.533,8.533V101.4C369.773,106.52,373.187,109.933,378.307,109.933z M386.84,50.2h51.2v42.667h-51.2V50.2z"
				/>
			<path d="M248.6,206.36c-6.827-4.267-15.36-4.267-22.187-0.853c-3.387,1.62-6.802,3.104-10.24,4.465v-48.838V7.533
				c0-5.12-3.413-8.533-8.533-8.533s-8.533,3.413-8.533,8.533V152.6H79.64V7.533C79.64,2.413,76.227-1,71.107-1
				s-8.533,3.413-8.533,8.533v153.6v49.465c-3.185-1.301-6.323-2.707-9.387-4.239c-6.827-3.413-15.36-3.413-22.187,0.853
				S19.907,219.16,19.907,226.84v56.32c0,7.68,4.267,14.507,11.093,18.773c3.413,2.56,7.68,3.413,11.947,3.413
				c3.413,0,6.827-0.853,9.387-1.707c3.336-1.668,6.756-3.195,10.24-4.588V331.8v170.667c0,5.12,3.413,8.533,8.533,8.533
				s8.533-3.413,8.533-8.533V340.333h119.467v162.133c0,5.12,3.413,8.533,8.533,8.533s8.533-3.413,8.533-8.533V331.8v-32.748
				c3.484,1.394,6.904,2.92,10.24,4.588c3.413,1.707,6.827,2.56,10.24,2.56s7.68-1.707,11.947-4.267
				c6.827-4.267,11.093-11.947,11.093-19.627v-56.32C259.693,217.453,255.427,210.627,248.6,206.36z M126.66,279.066
				c-0.099-0.962-0.38-1.893-0.94-2.732L114.627,255l12.8-25.6h23.893l12.8,25.6l-12.8,25.6h-23.893L126.66,279.066z
				 M199.107,169.667v45.907c-3.007,0.785-6.033,1.468-9.077,2.048c-6.646,1.211-13.374,2.04-20.365,2.299
				c-0.106,0.004-0.211,0.011-0.317,0.014c-1.307,0.045-2.626,0.065-3.952,0.07l-1.276-2.553c-1.707-3.413-4.267-5.12-7.68-5.12
				h-34.133c-3.413,0-5.973,2.56-7.68,5.12l-1.276,2.552c-10.975-0.042-22.757-1.731-33.711-4.259v-46.08H199.107z M44.653,288.28
				c-2.56,1.707-4.267,0.853-5.12,0c-0.853-0.853-2.56-2.56-2.56-5.12v-56.32c0-3.413,1.707-5.12,2.56-5.12s1.707-0.853,3.413-0.853
				c0.853,0,1.707,0,0.853,0.853c18.773,9.387,39.253,15.36,59.733,16.213l-6.827,13.653c-0.853,2.56-0.853,5.12,0,7.68
				l6.431,12.058c-11.53,0.937-23.06,3.421-34.591,6.716c-0.735,0.367-1.427,0.818-2.066,1.327
				C59.082,281.751,51.805,284.704,44.653,288.28z M199.107,323.267H79.64v-29.781c1.461-0.375,2.928-0.724,4.402-1.052
				c8.198-1.712,16.458-2.897,25.121-3.214c0.072-0.003,0.143-0.007,0.215-0.01c1.034-0.036,2.08-0.044,3.126-0.055l2.122,4.244
				c1.707,2.56,4.267,4.267,7.68,4.267h34.133c3.413,0,5.973-2.56,7.68-4.267l2.122-4.243c9.558,0.109,19.682,1.437,29.325,3.468
				c1.185,0.271,2.364,0.559,3.541,0.86V323.267z M241.773,283.16c0,3.413-1.707,4.267-2.56,5.12c0,0-2.56,0.853-5.12,0
				c-8.262-4.131-16.854-7.434-25.632-9.985c-11.23-3.781-22.46-5.377-33.691-6.198l3.429-6.858l3.84-6.827
				c0.853-2.56,0.853-5.12,0-7.68l-6.827-12.8c20.48-1.707,40.107-6.827,58.88-16.213c2.56-1.707,4.267-0.853,5.12,0
				s2.56,2.56,2.56,5.12V283.16z"/>
			<path d="M490.093,7.533c0-5.12-3.413-8.533-8.533-8.533c-5.12,0-8.533,3.413-8.533,8.533v153.6h-8.533
				c0.853-5.12-0.853-10.24-3.413-14.507c-1.076-1.721-2.369-3.278-3.824-4.647c-4.395-4.573-10.523-7.3-16.656-7.3h-56.32
				c-8.533,0-15.36,4.267-19.627,11.093c-2.928,4.684-3.845,10.172-3.031,15.36h-8.915V7.533c0-5.12-3.413-8.533-8.533-8.533
				s-8.533,3.413-8.533,8.533v162.133v166.944c-0.563,1.069-0.853,2.253-0.853,3.722v162.133c0,5.12,3.413,8.533,8.533,8.533
				c5.12,0,8.533-3.413,8.533-8.533v-153.6h8.533c-0.853,5.12,0.853,11.093,3.413,15.36c4.267,6.827,11.947,11.093,19.627,11.093
				h56.32c5.638,0,10.524-1.871,14.426-5.104c2.584-1.648,4.937-3.69,6.908-5.99c2.928-4.684,3.845-10.172,3.031-15.36h8.062v153.6
				c0,5.12,3.413,8.533,8.533,8.533c5.12,0,8.533-3.413,8.533-8.533V340.333V172.105c0.394-0.793,0.689-1.615,0.853-2.439V7.533z
				 M434.627,241.347c0.465,0.465,0.935,0.672,1.537,0.769l1.876,0.938v23.893l-2.241,1.121c-0.405,0.148-0.798,0.337-1.172,0.586
				l-21.761,10.88l-21.76-10.88c-0.995-0.663-2.119-1.061-3.271-1.209l-0.996-0.498v-23.893l1.534-0.767
				c0.962-0.099,1.893-0.38,2.732-0.94l21.333-11.093L434.627,241.347z M444.867,354.84c-0.853,0.853-2.56,2.56-5.12,2.56h-56.32
				c-3.413,0-5.12-2.56-5.12-2.56s-0.306-0.926-0.367-2.218c0.03-0.648,0.133-1.348,0.367-2.049
				c0.721-1.442,1.442-2.889,2.163-4.846c0.455-0.584,0.877-1.234,1.251-1.981c7.616-16.926,12.709-34.691,13.626-53.296
				l12.828,7.216c2.56,0.853,5.12,0.853,7.68,0l12.8-6.827c1.53,18.362,5.815,36.036,13.449,53.027
				c0.063,0.248,0.126,0.498,0.205,0.733c0.853,2.56,1.707,4.267,2.56,5.973c0.597,0.895,0.876,1.683,0.956,2.37
				C445.711,353.785,445.289,354.417,444.867,354.84z M415.853,213.187c-0.853-0.853-1.707-0.853-3.413-0.853
				c-1.707,0-2.56,0-4.267,0l-12.8,6.827c-1.53-18.362-5.815-36.037-13.449-53.027c-0.063-0.248-0.126-0.498-0.205-0.733
				l-0.234-0.234c-0.243-0.532-0.482-1.065-0.732-1.596c-0.254-1.123-0.921-1.943-1.594-3.29c-1.707-2.56-0.853-4.267,0-5.12
				c0.853-0.853,2.56-2.56,5.12-2.56h56.32c3.413,0,5.12,2.56,5.12,2.56s0.853,2.56,0,5.12c-3.563,7.126-6.508,14.499-8.889,22.024
				c-4.104,12.162-6.735,24.732-7.325,37.709L415.853,213.187z M352.707,331.8V178.2h15.36c1.742,4.136,3.258,8.329,4.555,12.577
				c3.309,11.165,5.226,22.59,5.609,34.273c0.005,0.172,0.014,0.342,0.019,0.514c0.025,0.854,0.03,1.71,0.038,2.566l-4.248,2.124
				c-2.56,1.707-4.267,4.267-4.267,7.68v34.133c0,3.413,1.707,5.973,5.12,7.68l3.388,1.694
				c-0.219,17.287-3.784,34.524-10.244,50.359H352.707z M457.468,331.8c-6.475-16.351-9.98-33.276-10.035-50.776l2.554-1.277
				c3.413-1.707,5.12-4.267,5.12-7.68v-34.133c0-3.413-2.56-5.973-5.12-7.68l-3.401-1.7c0.006-0.911,0.016-1.821,0.041-2.729
				c0.015-0.532,0.038-1.066,0.06-1.599c0.024-0.615,0.05-1.229,0.083-1.843c0.039-0.714,0.082-1.428,0.132-2.144
				c0.026-0.37,0.054-0.739,0.083-1.108c0.069-0.878,0.141-1.756,0.227-2.635c0.002-0.023,0.005-0.045,0.007-0.068
				c1.283-12.983,4.481-26.084,9.594-38.228h15.36v153.6H457.468z"/>
		</g>
	</g>
</g>
<g>
</g>
<g>
</g>
<g>
</g>
<g>
</g>
<g>
</g>
<g>
</g>
<g>
</g>
<g>
</g>
<g>
</g>
<g>
</g>
<g>
</g>
<g>
</g>
<g>
</g>
<g>
</g>
<g>
</g>
</svg>
