<?xml version="1.0" encoding="iso-8859-1"?>
<!-- Generator: Adobe Illustrator 19.0.0, SVG Export Plug-In . SVG Version: 6.00 Build 0)  -->
<svg version="1.1" id="Layer_1" xmlns="http://www.w3.org/2000/svg" xmlns:xlink="http://www.w3.org/1999/xlink" x="0px" y="0px"
	 viewBox="0 0 512 512" style="enable-background:new 0 0 512 512;" xml:space="preserve">
<g transform="translate(1 1)">
	<g>
		<g>
			<path d="M335.64,109.933h68.267c5.12,0,8.533-3.413,8.533-8.533V41.667c0-5.12-3.413-8.533-8.533-8.533H335.64
				c-5.12,0-8.533,3.413-8.533,8.533V101.4C327.107,106.52,330.52,109.933,335.64,109.933z M344.173,50.2h51.2v42.667h-51.2V50.2z"
				/>
			<path d="M62.573,109.933h68.267c5.12,0,8.533-3.413,8.533-8.533V41.667c0-5.12-3.413-8.533-8.533-8.533H62.573
				c-5.12,0-8.533,3.413-8.533,8.533V101.4C54.04,106.52,57.453,109.933,62.573,109.933z M71.107,50.2h51.2v42.667h-51.2V50.2z"/>
			<path d="M479,206.36c-6.827-4.267-15.36-4.267-22.187-0.853c-3.387,1.62-6.802,3.104-10.24,4.465v-48.838V7.533
				c0-5.12-3.413-8.533-8.533-8.533s-8.533,3.413-8.533,8.533V152.6H310.04V7.533c0-5.12-3.413-8.533-8.533-8.533
				s-8.533,3.413-8.533,8.533v153.6v49.464c-3.188-1.3-6.324-2.706-9.387-4.237c-6.827-3.413-15.36-3.413-22.187,0.853
				s-11.093,11.947-11.093,19.627v56.32c0,8.533,4.267,15.36,11.093,19.627c3.413,2.56,7.68,3.413,11.947,3.413
				c3.413,0,6.827-0.853,9.387-2.56c3.336-1.668,6.757-3.195,10.24-4.588V331.8v170.667c0,5.12,3.413,8.533,8.533,8.533
				s8.533-3.413,8.533-8.533V340.333h119.467v162.133c0,5.12,3.413,8.533,8.533,8.533s8.533-3.413,8.533-8.533V331.8v-33.53
				c3.484,1.349,6.904,2.848,10.24,4.516c3.413,1.707,6.827,2.56,10.24,2.56c3.413,0,7.68-0.853,11.947-3.413
				c6.827-4.267,11.093-11.947,11.093-19.627v-56.32C490.093,217.453,485.827,210.627,479,206.36z M310.04,169.667h119.467v45.907
				c-3.007,0.785-6.033,1.468-9.077,2.048c-6.646,1.211-13.374,2.04-20.365,2.299c-0.106,0.004-0.211,0.011-0.317,0.014
				c-1.167,0.04-2.347,0.054-3.529,0.062l-1.699-3.398c-1.707-3.413-4.267-5.12-7.68-5.12h-34.133c-3.413,0-5.973,2.56-7.68,5.12
				l-2.117,4.235c-3.243-0.051-6.485-0.208-9.716-0.492c-0.082-0.007-0.164-0.014-0.246-0.021c-1.284-0.115-2.567-0.248-3.847-0.399
				c-0.019-0.002-0.038-0.004-0.057-0.007c-6.418-0.761-12.775-1.979-19.004-3.618V169.667z M356.706,278.359
				c-0.148-0.405-0.337-0.799-0.586-1.173L345.027,255l11.947-21.333c0.853-1.28,1.28-2.773,1.28-4.267h23.467l1.12,2.241
				c0.148,0.405,0.337,0.799,0.586,1.173L394.52,255l-11.093,21.333c-0.663,0.995-1.061,2.119-1.209,3.271l-0.498,0.996h-23.893
				L356.706,278.359z M275.053,288.28c-2.56,1.707-4.267,0.853-5.12,0c-0.853-0.853-2.56-2.56-2.56-5.12v-56.32
				c0-3.413,1.707-4.267,2.56-5.12c0.853,0,1.707-0.853,3.413-0.853c0.853,0,1.707,0,2.56,0.853
				c7.466,3.911,15.379,7.07,23.548,9.562c11.64,4.087,23.28,5.77,34.921,6.621l-6.416,12.831c-0.213,0.64-0.373,1.28-0.48,1.92
				c-0.053,0.32-0.093,0.64-0.12,0.96c-0.133,1.6,0.067,3.2,0.6,4.8l6.827,13.653c-2.066,0.148-4.132,0.363-6.199,0.609
				C309.632,274.824,291.993,279.81,275.053,288.28z M310.04,323.267v-29.781c1.461-0.374,2.928-0.724,4.402-1.052
				c8.198-1.712,16.458-2.897,25.122-3.214c0.072-0.003,0.143-0.007,0.215-0.01c1.173-0.041,2.36-0.055,3.549-0.063l1.699,3.398
				c1.707,3.413,4.267,5.12,7.68,5.12h34.133c3.413,0,5.973-1.707,7.68-5.12l1.699-3.398c10.855,0.083,22.474,1.755,33.288,4.251
				v29.867H310.04z M471.32,283.16c0,3.413-2.56,5.12-2.56,5.12s-2.56,0.853-5.12,0c-7.465-3.91-15.379-7.07-23.548-9.561
				c-11.778-4.135-23.555-5.811-35.332-6.652l0.001-0.001l6.826-12.799c0.474-1.422,0.675-2.844,0.622-4.266
				c0.053-1.422-0.148-2.845-0.622-4.267l-6.418-12.836c7.226-0.54,14.452-1.697,21.678-3.29c2.734-0.588,5.443-1.242,8.129-1.969
				c1.875-0.49,3.75-0.996,5.625-1.532c0.167-0.083,0.33-0.174,0.492-0.266c7.681-2.421,15.181-5.438,22.548-9.121
				c2.56-1.707,4.267-0.853,5.12,0s2.56,2.56,2.56,5.12V283.16z"/>
			<path d="M164.973-1c-5.12,0-8.533,3.413-8.533,8.533v153.6h-8.533c0.748-4.487-0.471-8.974-2.506-12.886
				c-0.13-0.255-0.268-0.507-0.409-0.758c-0.162-0.291-0.328-0.579-0.498-0.863c-4.267-6.827-11.947-11.093-19.627-11.093h-56.32
				c-7.68,0-15.36,4.267-19.627,11.093c-2.56,4.267-4.267,9.387-3.413,14.507h-8.533V7.533C36.973,2.413,33.56-1,28.44-1
				s-8.533,3.413-8.533,8.533v162.133v170.667v162.133c0,5.12,3.413,8.533,8.533,8.533s8.533-3.413,8.533-8.533v-153.6h9.387
				c-0.434,2.605-0.204,5.21,0.35,7.814c0.24,1.388,0.602,2.755,1.09,4.095c0.354,1.15,0.736,2.3,1.12,3.451
				c4.267,6.827,11.947,11.093,19.627,11.093h56.32c6.902,0,12.687-2.793,16.904-7.473c1.265-1.111,2.463-2.322,3.576-3.62
				c2.928-4.684,3.845-10.172,3.031-15.36h8.062v153.6c0,5.12,3.413,8.533,8.533,8.533c5.12,0,8.533-3.413,8.533-8.533V340.333
				V169.667V7.533C173.507,2.413,170.093-1,164.973-1z M68.547,357.4c-2.56,0-5.12-3.413-5.12-3.413s-0.238-0.723-0.337-1.781
				c0.051-0.527,0.152-1.079,0.337-1.632c0.853-2.56,1.707-4.267,2.56-5.973c0.142-0.568,0.25-1.105,0.341-1.629
				c0.095-0.213,0.187-0.426,0.281-0.639c0.248-0.548,0.485-1.102,0.727-1.654c0.028-0.066,0.057-0.131,0.085-0.197
				c0.904-2.079,1.76-4.183,2.562-6.313c5.436-14.161,8.963-28.888,9.658-44.181l12.8,6.827c0.425,0.142,0.85,0.251,1.275,0.346
				c0.733,0.501,1.563,0.508,2.991,0.508c1.707,0,2.56,0,3.413-0.853l13.653-6.827c1.53,19.127,5.815,36.879,13.448,53.877
				c0.064,0.25,0.127,0.5,0.206,0.736c0.853,1.707,1.707,3.413,2.56,5.12c1.707,2.56,0.853,4.267,0,5.12s-2.56,2.56-5.12,2.56
				H68.547z M118.893,268.653l-22.187,11.093L76.227,267.8c-1.525-1.016-3.351-1.413-5.12-1.219v-23.528l1.876-0.938
				c0.603-0.096,1.073-0.304,1.537-0.769l22.187-11.093l21.333,11.093c0.995,0.663,2.119,1.061,3.271,1.209l0.996,0.498v23.893
				l-2.241,1.12C119.661,268.215,119.267,268.404,118.893,268.653z M156.44,178.2v153.6h-14.705
				c-5.997-15.146-9.449-30.783-9.969-46.915c-0.004-0.143-0.011-0.285-0.015-0.429c-0.033-1.141-0.048-2.286-0.051-3.432
				l2.554-1.277c3.413-1.707,5.12-4.267,5.12-7.68v-34.133c0-3.413-1.707-5.973-4.267-7.68l-4.248-2.124
				c0.007-0.769,0.014-1.538,0.035-2.305c0.015-0.531,0.038-1.063,0.059-1.595c0.024-0.617,0.051-1.234,0.083-1.85
				c0.038-0.707,0.082-1.415,0.131-2.124c0.026-0.384,0.056-0.767,0.086-1.15c0.067-0.855,0.137-1.71,0.221-2.566
				c0.008-0.085,0.018-0.17,0.027-0.255c0.302-3.024,0.711-6.054,1.221-9.077c0.035-0.207,0.067-0.415,0.103-0.621
				c0.123-0.712,0.259-1.422,0.394-2.133c0.111-0.579,0.222-1.157,0.34-1.734c0.096-0.47,0.195-0.939,0.296-1.408
				c0.214-0.986,0.433-1.97,0.669-2.95c0.024-0.101,0.048-0.203,0.072-0.305c1.485-6.116,3.403-12.113,5.72-17.971
				c0.209-0.521,0.416-1.043,0.632-1.56c0.044-0.108,0.09-0.215,0.135-0.323H156.44z M63.427,155.16
				c0.853-0.853,2.56-2.56,5.12-2.56h56.32c3.413,0,5.12,4.267,5.12,4.267s0.238,0.723,0.337,1.781
				c-0.051,0.527-0.152,1.079-0.337,1.632c-0.576,1.153-0.767,1.92-1.091,2.82c-0.897,0.805-1.673,1.854-2.323,3.153
				c-7.567,16.815-12.639,34.46-13.604,52.931l-11.996-5.998c-1.422-0.474-2.844-0.675-4.267-0.622
				c-1.422-0.053-2.844,0.148-4.267,0.622l-12.911,6.455c-1.613-18.659-5.868-36.019-13.337-52.653
				c-0.064-0.25-0.127-0.5-0.206-0.736l-0.235-0.235c-0.243-0.532-0.481-1.065-0.731-1.595c-0.254-1.123-0.921-1.943-1.594-3.29
				C62.573,158.573,62.573,156.013,63.427,155.16z M36.973,331.8V178.2h15.36c1.742,4.136,3.258,8.329,4.555,12.577
				c3.309,11.165,5.226,22.59,5.609,34.273c0.005,0.172,0.014,0.342,0.019,0.514c0.029,0.994,0.038,1.992,0.045,2.99l-3.401,1.7
				c-3.413,1.707-5.12,4.267-5.12,7.68v34.133c0,3.413,1.707,5.973,5.12,7.68l3.403,1.702c-0.106,17.61-3.511,34.395-10.23,50.352
				H36.973z"/>
		</g>
	</g>
</g>
<g>
</g>
<g>
</g>
<g>
</g>
<g>
</g>
<g>
</g>
<g>
</g>
<g>
</g>
<g>
</g>
<g>
</g>
<g>
</g>
<g>
</g>
<g>
</g>
<g>
</g>
<g>
</g>
<g>
</g>
</svg>
