<?xml version="1.0" encoding="iso-8859-1"?>
<!-- Generator: Adobe Illustrator 19.0.0, SVG Export Plug-In . SVG Version: 6.00 Build 0)  -->
<svg version="1.1" id="Layer_1" xmlns="http://www.w3.org/2000/svg" xmlns:xlink="http://www.w3.org/1999/xlink" x="0px" y="0px"
	 viewBox="0 0 504.446 504.446" style="enable-background:new 0 0 504.446 504.446;" xml:space="preserve">
<g transform="translate(1 1)">
	<g>
		<g>
			<path d="M82.934,108.534h67.148c5.036,0,8.393-3.357,8.393-8.393V41.387c0-5.036-3.357-8.393-8.393-8.393H82.934
				c-5.036,0-8.393,3.357-8.393,8.393v58.754C74.541,105.177,77.898,108.534,82.934,108.534z M91.328,49.78h50.361v41.967H91.328
				V49.78z"/>
			<path d="M223.944,203.38c-6.715-4.197-15.108-4.197-21.823-0.839c-3.332,1.593-6.69,3.053-10.072,4.392v-48.038V7.813
				c0-5.036-3.357-8.393-8.393-8.393s-8.393,3.357-8.393,8.393v142.689H57.754V7.813c0-5.036-3.357-8.393-8.393-8.393
				s-8.393,3.357-8.393,8.393v151.082v48.655c-3.133-1.28-6.219-2.663-9.233-4.169c-6.715-3.357-15.108-3.357-21.823,0.839
				C3.197,208.416-1,215.97-1,223.525v55.397c0,7.554,4.197,14.269,10.911,18.466c3.357,2.518,7.554,3.357,11.751,3.357
				c3.357,0,6.715-0.839,9.233-1.679c3.281-1.641,6.646-3.142,10.072-4.513v32.212v167.869c0,5.036,3.357,8.393,8.393,8.393
				s8.393-3.357,8.393-8.393V335.157h117.508v159.475c0,5.036,3.357,8.393,8.393,8.393s8.393-3.357,8.393-8.393V326.764v-32.211
				c3.426,1.371,6.791,2.872,10.072,4.513c3.357,1.679,6.715,2.518,10.072,2.518c3.357,0,7.554-1.679,11.751-4.197
				c6.715-4.197,10.911-11.751,10.911-19.305v-55.397C234.856,214.292,230.659,207.577,223.944,203.38z M104.003,274.894
				c-0.098-0.946-0.374-1.862-0.924-2.688l-10.911-20.984l12.59-25.18h23.502l12.59,25.18l-12.59,25.18h-23.502L104.003,274.894z
				 M175.262,167.288v45.155c-2.958,0.773-5.934,1.444-8.928,2.015c-6.537,1.191-13.154,2.006-20.03,2.262
				c-0.104,0.004-0.208,0.011-0.312,0.014c-1.285,0.045-2.583,0.064-3.887,0.069l-1.255-2.511c-1.679-3.357-4.197-5.036-7.554-5.036
				H99.721c-3.357,0-5.875,2.518-7.554,5.036l-1.255,2.51c-10.795-0.042-22.384-1.703-33.158-4.189v-45.325H175.262z
				 M23.341,283.957c-2.518,1.679-4.197,0.839-5.036,0c-0.839-0.839-2.518-2.518-2.518-5.036v-55.397
				c0-3.357,1.679-5.036,2.518-5.036s1.679-0.839,3.357-0.839c0.839,0,1.679,0,0.839,0.839c18.466,9.233,38.61,15.108,58.754,15.948
				l-6.715,13.43c-0.839,2.518-0.839,5.036,0,7.554l6.325,11.86c-11.341,0.922-22.682,3.365-34.024,6.605
				c-0.723,0.361-1.404,0.805-2.032,1.305C37.533,277.536,30.375,280.44,23.341,283.957z M175.262,318.37H57.754v-29.293
				c1.436-0.368,2.879-0.712,4.328-1.034c8.064-1.684,16.189-2.85,24.712-3.161c0.07-0.002,0.141-0.007,0.211-0.009
				c1.017-0.035,2.046-0.044,3.075-0.054l2.087,4.175c1.679,2.518,4.197,4.197,7.554,4.197h33.574c3.357,0,5.875-2.518,7.554-4.197
				l2.087-4.173c9.404,0.108,19.366,1.415,28.853,3.413c1.162,0.266,2.319,0.548,3.473,0.844V318.37z M217.229,278.921
				c0,3.357-2.518,5.036-2.518,5.036s-2.518,0.839-5.036,0c-8.126-4.063-16.578-7.312-25.211-9.821
				c-11.046-3.719-22.092-5.289-33.138-6.096l3.373-6.745l3.777-6.715c0.839-2.518,0.839-5.036,0-7.554l-6.715-12.59
				c20.144-1.679,39.449-6.715,57.915-15.948c2.518-1.679,4.197-0.839,5.036,0c0.839,0.839,2.518,2.518,2.518,5.036V278.921z"/>
			<path d="M351.525,108.534h67.148c5.036,0,8.393-3.357,8.393-8.393V41.387c0-5.036-3.357-8.393-8.393-8.393h-67.148
				c-5.036,0-8.393,3.357-8.393,8.393v58.754C343.131,105.177,346.489,108.534,351.525,108.534z M359.918,49.78h50.361v41.967
				h-50.361V49.78z"/>
			<path d="M492.534,203.38c-6.715-4.197-15.108-4.197-21.823-0.839c-3.332,1.593-6.69,3.053-10.072,4.392v-48.038V7.813
				c0-5.036-3.357-8.393-8.393-8.393c-5.036,0-8.393,3.357-8.393,8.393v142.689H326.344V7.813c0-5.036-3.357-8.393-8.393-8.393
				c-5.036,0-8.393,3.357-8.393,8.393v151.082v48.653c-3.135-1.279-6.221-2.662-9.233-4.168c-6.715-3.357-15.108-3.357-21.823,0.839
				c-6.715,4.197-10.911,11.751-10.911,19.305v55.397c0,7.554,4.197,14.269,10.911,18.466c3.357,2.518,7.554,3.357,11.751,3.357
				c3.357,0,6.715-0.839,9.233-1.679c3.281-1.641,6.646-3.142,10.072-4.513v32.212v167.869c0,5.036,3.357,8.393,8.393,8.393
				c5.036,0,8.393-3.357,8.393-8.393V335.157h117.508v159.475c0,5.036,3.357,8.393,8.393,8.393c5.036,0,8.393-3.357,8.393-8.393
				V326.764v-32.212c3.426,1.371,6.791,2.872,10.072,4.513c3.357,1.679,6.715,2.518,10.072,2.518c3.357,0,7.554-1.679,11.751-4.197
				c6.715-4.197,10.911-11.751,10.911-19.305v-55.397C503.446,214.292,499.249,207.577,492.534,203.38z M372.593,274.894
				c-0.098-0.946-0.374-1.862-0.924-2.688l-10.911-20.984l10.911-20.984c0.652-0.978,1.043-2.084,1.189-3.217l0.49-0.98h23.502
				l12.59,25.18l-12.59,25.18h-23.502L372.593,274.894z M443.852,167.288v45.155c-2.958,0.773-5.934,1.444-8.928,2.015
				c-6.537,1.191-13.154,2.006-20.03,2.262c-0.104,0.004-0.208,0.011-0.312,0.014c-1.285,0.045-2.583,0.064-3.887,0.069
				l-1.255-2.511c-1.679-3.357-4.197-5.036-7.554-5.036h-33.574c-3.357,0-5.875,2.518-7.554,5.036l-1.255,2.51
				c-10.795-0.042-22.384-1.703-33.158-4.189v-45.325H443.852z M291.931,283.957c-2.518,1.679-4.197,0.839-5.036,0
				c-0.839-0.839-2.518-2.518-2.518-5.036v-55.397c0-3.357,1.679-4.197,2.518-5.036c0.839,0,1.679-0.839,3.357-0.839
				c0.839,0,1.679,0,0.839,0.839c18.466,9.233,38.61,14.269,58.754,15.948l-6.715,13.43c-0.839,2.518-0.839,5.036,0,7.554
				l6.325,11.86c-11.341,0.922-22.682,3.365-34.024,6.605c-0.723,0.362-1.404,0.805-2.032,1.305
				C306.123,277.536,298.966,280.44,291.931,283.957z M443.852,318.37H326.344v-29.293c1.436-0.368,2.879-0.712,4.328-1.034
				c8.064-1.684,16.189-2.85,24.712-3.161c0.07-0.002,0.141-0.007,0.211-0.009c1.017-0.035,2.046-0.044,3.075-0.054l2.087,4.175
				c1.679,2.518,4.197,4.197,7.554,4.197h33.574c3.357,0,5.875-2.518,7.554-4.197l2.087-4.173
				c9.404,0.108,19.366,1.415,28.853,3.413c1.162,0.266,2.319,0.548,3.473,0.844V318.37z M485.82,278.921
				c0,3.357-1.679,4.197-2.518,5.036c0,0-2.518,0.839-5.036,0c-8.126-4.063-16.578-7.312-25.212-9.821
				c-11.046-3.719-22.092-5.289-33.138-6.096l3.373-6.746l3.777-6.714c0.839-2.518,0.839-5.036,0-7.554l-6.715-12.59
				c20.144-1.679,39.449-6.715,57.915-15.948c2.518-1.679,4.197-0.839,5.036,0c0.839,0.839,2.518,2.518,2.518,5.036V278.921z"/>
		</g>
	</g>
</g>
<g>
</g>
<g>
</g>
<g>
</g>
<g>
</g>
<g>
</g>
<g>
</g>
<g>
</g>
<g>
</g>
<g>
</g>
<g>
</g>
<g>
</g>
<g>
</g>
<g>
</g>
<g>
</g>
<g>
</g>
</svg>
