<?xml version="1.0" encoding="iso-8859-1"?>
<!-- Generator: Adobe Illustrator 19.0.0, SVG Export Plug-In . SVG Version: 6.00 Build 0)  -->
<svg version="1.1" id="Layer_1" xmlns="http://www.w3.org/2000/svg" xmlns:xlink="http://www.w3.org/1999/xlink" x="0px" y="0px"
	 viewBox="0 0 503.322 503.322" style="enable-background:new 0 0 503.322 503.322;" xml:space="preserve">
<g transform="translate(1 1)">
	<g>
		<path d="M424.22,116.153h-78.958c-4.86-10.516-11.421-20.101-19.331-28.39c-0.396-0.702-0.895-1.37-1.507-1.983
			c-0.612-0.612-1.281-1.111-1.982-1.507c-18.716-17.861-44.025-28.866-71.78-28.866c-41.812,0-78.069,24.977-94.601,60.746H77.102
			C33.712,116.153-1,150.864-1,194.254v242.983c0,5.207,3.471,8.678,8.678,8.678h69.424c5.207,0,8.678-3.471,8.678-8.678V218.553
			c0-8.678,7.81-16.488,17.356-16.488h52.524c4.897,10.857,11.603,20.741,19.731,29.258c0.396,0.702,0.895,1.37,1.507,1.983
			c0.697,0.697,1.397,1.247,2.15,1.664c18.7,17.768,43.94,28.709,71.613,28.709s52.913-10.941,71.613-28.709
			c0.753-0.417,1.453-0.967,2.15-1.664c0.612-0.612,1.111-1.281,1.507-1.982c7.911-8.289,14.471-17.875,19.331-28.39h52.924
			c8.678,0,17.356,8.678,17.356,17.356v216.949c0,5.207,3.471,8.678,8.678,8.678h69.424c5.207,0,8.678-3.471,8.678-8.678V194.254
			C502.322,150.864,467.61,116.153,424.22,116.153z M317.724,214.457l-37.232-37.232c3.094-5.187,4.881-11.235,4.881-17.682
			c0-6.044-1.569-11.737-4.314-16.7l36.771-38.084c5.329,6.515,9.732,13.811,13.008,21.684c0.069,0.941,0.246,1.88,0.529,2.727
			c4.273,9.4,6.017,20.481,6.07,30.761C337.344,180.568,329.954,199.564,317.724,214.457z M262.81,171.692
			c-0.305,0.305-0.574,0.628-0.826,0.958c-3.046,2.638-7.002,4.249-11.323,4.249c-4.321,0-8.277-1.611-11.324-4.249
			c-0.252-0.33-0.52-0.652-0.825-0.958c-0.305-0.305-0.628-0.574-0.958-0.826c-2.638-3.046-4.249-7.002-4.249-11.324
			c0-4.091,1.442-7.858,3.833-10.833c0.173-0.145,0.346-0.289,0.506-0.448c0.381-0.381,0.713-0.786,1.01-1.204
			c3.124-3.006,7.355-4.87,12.007-4.87s8.882,1.864,12.007,4.87c0.297,0.418,0.629,0.823,1.01,1.204
			c0.159,0.159,0.333,0.304,0.506,0.448c2.391,2.975,3.833,6.742,3.833,10.833c0,4.321-1.611,8.277-4.249,11.324
			C263.438,171.118,263.115,171.386,262.81,171.692z M183.598,214.457c-5.468-6.659-9.965-14.139-13.279-22.218
			c-0.094-0.501-0.209-0.995-0.363-1.456c-0.777-1.709-1.467-3.476-2.082-5.281c-2.37-7.503-3.743-15.437-3.961-23.647
			c-0.001-0.037-0.003-0.075-0.004-0.112c-0.018-0.732-0.028-1.465-0.028-2.201c0-0.736,0.01-1.47,0.028-2.202
			c0.001-0.036,0.003-0.073,0.003-0.109c0.531-20.029,7.935-38.424,19.926-52.898l36.46,38.448
			c-2.767,4.977-4.35,10.692-4.35,16.761c0,6.447,1.786,12.494,4.881,17.682L183.598,214.457z M305.705,92.584l-36.416,37.717
			c-5.392-3.455-11.784-5.47-18.628-5.47c-6.817,0-13.187,2-18.565,5.43l-36.053-38.02c14.942-12.162,33.966-19.478,54.619-19.478
			C271.509,72.763,290.7,80.214,305.705,92.584z M103.136,185.576c-19.092,0-34.712,15.62-34.712,33.844v209.139H16.356V194.254
			c0-33.844,26.902-60.746,60.746-60.746h72.741c-0.495,1.905-0.932,3.832-1.319,5.776c-1.265,5.851-1.835,11.703-1.963,17.554
			c-0.023,0.898-0.035,1.8-0.035,2.703s0.012,1.805,0.035,2.703c0.128,5.851,0.698,11.703,1.963,17.554
			c0.387,1.944,0.824,3.872,1.319,5.776H103.136z M195.747,226.606l37.232-37.232c5.187,3.094,11.235,4.881,17.682,4.881
			s12.494-1.786,17.682-4.881l37.232,37.232c-14.986,12.306-34.126,19.716-54.914,19.716S210.733,238.912,195.747,226.606z
			 M484.966,428.559h-52.068V220.288c0-18.224-16.488-34.712-34.712-34.712h-46.707c0.495-1.905,0.932-3.832,1.319-5.777
			c1.265-5.851,1.835-11.703,1.963-17.554c0.023-0.898,0.035-1.8,0.035-2.703s-0.012-1.805-0.035-2.703
			c-0.128-5.851-0.698-11.702-1.962-17.553c-0.387-1.945-0.825-3.873-1.32-5.778h72.741c33.844,0,60.746,26.902,60.746,60.746
			V428.559z"/>
	</g>
</g>
<g>
</g>
<g>
</g>
<g>
</g>
<g>
</g>
<g>
</g>
<g>
</g>
<g>
</g>
<g>
</g>
<g>
</g>
<g>
</g>
<g>
</g>
<g>
</g>
<g>
</g>
<g>
</g>
<g>
</g>
</svg>
