<?xml version="1.0" encoding="iso-8859-1"?>
<!-- Generator: Adobe Illustrator 19.0.0, SVG Export Plug-In . SVG Version: 6.00 Build 0)  -->
<svg version="1.1" id="Layer_1" xmlns="http://www.w3.org/2000/svg" xmlns:xlink="http://www.w3.org/1999/xlink" x="0px" y="0px"
	 viewBox="0 0 503.018 503.018" style="enable-background:new 0 0 503.018 503.018;" xml:space="preserve">
<g transform="translate(1 1)">
	<g>
		<g>
			<path d="M493.035-1H331.351H169.667H7.982C2.593-1-1,2.593-1,7.982v161.684v161.684v161.684c0,5.389,3.593,8.982,8.982,8.982
				h161.684h161.684h161.684c5.389,0,8.982-3.593,8.982-8.982V331.351V169.667V7.982C502.018,2.593,498.425-1,493.035-1z
				 M16.965,178.649h143.719v143.719H16.965V178.649z M178.649,178.649h143.719v143.719H178.649V178.649z M340.333,178.649h143.719
				v143.719H340.333V178.649z M484.053,160.684H340.333V16.965h143.719V160.684z M322.368,160.684H178.649V16.965h143.719V160.684z
				 M16.965,16.965h143.719v143.719H16.965V16.965z M16.965,340.333h143.719v143.719H16.965V340.333z M178.649,340.333h143.719
				v143.719H178.649V340.333z M484.053,484.053H340.333V340.333h143.719V484.053z"/>
			<path d="M46.607,28.642L28.642,46.607c-3.593,3.593-3.593,8.982,0,12.575c1.797,1.796,4.491,2.695,6.288,2.695
				c2.695,0,4.491-0.898,6.288-2.695l17.965-17.965c3.593-3.593,3.593-8.982,0-12.575C55.589,25.049,50.2,25.049,46.607,28.642z"/>
			<path d="M46.607,73.554L28.642,91.519c-3.593,3.593-3.593,8.982,0,12.575c1.797,1.797,3.593,2.695,6.288,2.695
				c2.695,0,4.491-0.898,6.288-2.695L59.182,86.13c3.593-3.593,3.593-8.982,0-12.575C55.589,69.961,50.2,69.961,46.607,73.554z"/>
			<path d="M91.519,28.642L73.554,46.607c-3.593,3.593-3.593,8.982,0,12.575c1.797,1.796,4.491,2.695,6.288,2.695
				c2.695,0,4.491-0.898,6.288-2.695l17.965-17.965c3.593-3.593,3.593-8.982,0-12.575C100.502,25.049,95.112,25.049,91.519,28.642z"
				/>
			<path d="M196.614,61.877c2.695,0,4.491-0.898,6.288-2.695l17.965-17.965c3.593-3.593,3.593-8.982,0-12.575
				c-3.593-3.593-8.982-3.593-12.575,0l-17.965,17.965c-3.593,3.593-3.593,8.982,0,12.575
				C192.123,60.979,193.919,61.877,196.614,61.877z"/>
			<path d="M196.614,106.789c2.695,0,4.491-0.898,6.288-2.695l17.965-17.965c3.593-3.593,3.593-8.982,0-12.575
				c-3.593-3.593-8.982-3.593-12.575,0l-17.965,17.965c-3.593,3.593-3.593,8.982,0,12.575
				C192.123,105.891,193.919,106.789,196.614,106.789z"/>
			<path d="M241.526,61.877c2.695,0,4.491-0.898,6.288-2.695l17.965-17.965c3.593-3.593,3.593-8.982,0-12.575
				c-3.593-3.593-8.982-3.593-12.575,0l-17.965,17.965c-3.593,3.593-3.593,8.982,0,12.575
				C237.035,60.979,238.832,61.877,241.526,61.877z"/>
			<path d="M358.298,61.877c2.695,0,4.491-0.898,6.288-2.695l17.965-17.965c3.593-3.593,3.593-8.982,0-12.575
				c-3.593-3.593-8.982-3.593-12.575,0L352.01,46.607c-3.593,3.593-3.593,8.982,0,12.575
				C353.807,60.979,355.604,61.877,358.298,61.877z"/>
			<path d="M358.298,106.789c2.695,0,4.491-0.898,6.288-2.695l17.965-17.965c3.593-3.593,3.593-8.982,0-12.575
				c-3.593-3.593-8.982-3.593-12.575,0L352.01,91.519c-3.593,3.593-3.593,8.982,0,12.575
				C353.807,105.891,355.604,106.789,358.298,106.789z"/>
			<path d="M403.211,61.877c2.695,0,4.491-0.898,6.288-2.695l17.965-17.965c3.593-3.593,3.593-8.982,0-12.575
				c-3.593-3.593-8.982-3.593-12.576,0l-17.965,17.965c-3.593,3.593-3.593,8.982,0,12.575
				C398.719,60.979,400.516,61.877,403.211,61.877z"/>
			<path d="M46.607,190.326l-17.965,17.965c-3.593,3.593-3.593,8.982,0,12.575c1.797,1.796,3.593,2.695,6.288,2.695
				c2.695,0,4.491-0.898,6.288-2.695l17.965-17.965c3.593-3.593,3.593-8.982,0-12.575C55.589,186.733,50.2,186.733,46.607,190.326z"
				/>
			<path d="M46.607,235.239l-17.965,17.965c-3.593,3.593-3.593,8.982,0,12.575c1.797,1.796,3.593,2.695,6.288,2.695
				c2.695,0,4.491-0.898,6.288-2.695l17.965-17.965c3.593-3.593,3.593-8.982,0-12.575C55.589,231.646,50.2,231.646,46.607,235.239z"
				/>
			<path d="M91.519,190.326l-17.965,17.965c-3.593,3.593-3.593,8.982,0,12.575c1.797,1.796,3.593,2.695,6.288,2.695
				s4.491-0.898,6.288-2.695l17.965-17.965c3.593-3.593,3.593-8.982,0-12.575C100.502,186.733,95.112,186.733,91.519,190.326z"/>
			<path d="M208.291,190.326l-17.965,17.965c-3.593,3.593-3.593,8.982,0,12.575c1.797,1.796,3.593,2.695,6.288,2.695
				c2.695,0,4.491-0.898,6.288-2.695l17.965-17.965c3.593-3.593,3.593-8.982,0-12.575
				C217.274,186.733,211.884,186.733,208.291,190.326z"/>
			<path d="M208.291,235.239l-17.965,17.965c-3.593,3.593-3.593,8.982,0,12.575c1.797,1.796,3.593,2.695,6.288,2.695
				c2.695,0,4.491-0.898,6.288-2.695l17.965-17.965c3.593-3.593,3.593-8.982,0-12.575
				C217.274,231.646,211.884,231.646,208.291,235.239z"/>
			<path d="M253.203,190.326l-17.965,17.965c-3.593,3.593-3.593,8.982,0,12.575c1.797,1.796,3.593,2.695,6.288,2.695
				c2.695,0,4.491-0.898,6.288-2.695l17.965-17.965c3.593-3.593,3.593-8.982,0-12.575
				C262.186,186.733,256.797,186.733,253.203,190.326z"/>
			<path d="M369.975,190.326l-17.965,17.965c-3.593,3.593-3.593,8.982,0,12.575c1.797,1.796,3.593,2.695,6.288,2.695
				c2.695,0,4.491-0.898,6.288-2.695l17.965-17.965c3.593-3.593,3.593-8.982,0-12.575
				C378.958,186.733,373.568,186.733,369.975,190.326z"/>
			<path d="M369.975,235.239l-17.965,17.965c-3.593,3.593-3.593,8.982,0,12.575c1.797,1.796,3.593,2.695,6.288,2.695
				c2.695,0,4.491-0.898,6.288-2.695l17.965-17.965c3.593-3.593,3.593-8.982,0-12.575
				C378.958,231.646,373.568,231.646,369.975,235.239z"/>
			<path d="M414.888,190.326l-17.965,17.965c-3.593,3.593-3.593,8.982,0,12.575c1.797,1.796,3.593,2.695,6.288,2.695
				c2.695,0,4.491-0.898,6.288-2.695l17.965-17.965c3.593-3.593,3.593-8.982,0-12.575
				C423.87,186.733,418.481,186.733,414.888,190.326z"/>
			<path d="M46.607,352.011l-17.965,17.965c-3.593,3.593-3.593,8.982,0,12.575c1.797,1.797,3.593,2.695,6.288,2.695
				c2.695,0,4.491-0.898,6.288-2.695l17.965-17.965c3.593-3.593,3.593-8.982,0-12.575C55.589,348.418,50.2,348.418,46.607,352.011z"
				/>
			<path d="M46.607,396.923l-17.965,17.965c-3.593,3.593-3.593,8.982,0,12.575c1.797,1.797,3.593,2.695,6.288,2.695
				c2.695,0,4.491-0.898,6.288-2.695l17.965-17.965c3.593-3.593,3.593-8.982,0-12.576C55.589,393.33,50.2,393.33,46.607,396.923z"/>
			<path d="M91.519,352.011l-17.965,17.965c-3.593,3.593-3.593,8.982,0,12.575c1.797,1.797,3.593,2.695,6.288,2.695
				s4.491-0.898,6.288-2.695l17.965-17.965c3.593-3.593,3.593-8.982,0-12.575C100.502,348.418,95.112,348.418,91.519,352.011z"/>
			<path d="M208.291,352.011l-17.965,17.965c-3.593,3.593-3.593,8.982,0,12.575c1.797,1.797,3.593,2.695,6.288,2.695
				c2.695,0,4.491-0.898,6.288-2.695l17.965-17.965c3.593-3.593,3.593-8.982,0-12.575
				C217.274,348.418,211.884,348.418,208.291,352.011z"/>
			<path d="M208.291,396.923l-17.965,17.965c-3.593,3.593-3.593,8.982,0,12.575c1.797,1.797,3.593,2.695,6.288,2.695
				c2.695,0,4.491-0.898,6.288-2.695l17.965-17.965c3.593-3.593,3.593-8.982,0-12.576
				C217.274,393.33,211.884,393.33,208.291,396.923z"/>
			<path d="M253.203,352.011l-17.965,17.965c-3.593,3.593-3.593,8.982,0,12.575c1.797,1.797,3.593,2.695,6.288,2.695
				c2.695,0,4.491-0.898,6.288-2.695l17.965-17.965c3.593-3.593,3.593-8.982,0-12.575
				C262.186,348.418,256.797,348.418,253.203,352.011z"/>
			<path d="M358.298,385.246c2.695,0,4.491-0.898,6.288-2.695l17.965-17.965c3.593-3.593,3.593-8.982,0-12.575
				c-3.593-3.593-8.982-3.593-12.575,0l-17.965,17.965c-3.593,3.593-3.593,8.982,0,12.575
				C353.807,384.347,355.604,385.246,358.298,385.246z"/>
			<path d="M358.298,430.158c2.695,0,4.491-0.898,6.288-2.695l17.965-17.965c3.593-3.593,3.593-8.982,0-12.576
				c-3.593-3.593-8.982-3.593-12.575,0l-17.965,17.965c-3.593,3.593-3.593,8.982,0,12.575
				C353.807,429.26,355.604,430.158,358.298,430.158z"/>
			<path d="M403.211,385.246c2.695,0,4.491-0.898,6.288-2.695l17.965-17.965c3.593-3.593,3.593-8.982,0-12.575
				c-3.593-3.593-8.982-3.593-12.576,0l-17.965,17.965c-3.593,3.593-3.593,8.982,0,12.575
				C398.719,384.347,400.516,385.246,403.211,385.246z"/>
		</g>
	</g>
</g>
<g>
</g>
<g>
</g>
<g>
</g>
<g>
</g>
<g>
</g>
<g>
</g>
<g>
</g>
<g>
</g>
<g>
</g>
<g>
</g>
<g>
</g>
<g>
</g>
<g>
</g>
<g>
</g>
<g>
</g>
</svg>
