<?xml version="1.0" encoding="iso-8859-1"?>
<!-- Generator: Adobe Illustrator 19.0.0, SVG Export Plug-In . SVG Version: 6.00 Build 0)  -->
<svg version="1.1" id="Layer_1" xmlns="http://www.w3.org/2000/svg" xmlns:xlink="http://www.w3.org/1999/xlink" x="0px" y="0px"
	 viewBox="0 0 512 512" style="enable-background:new 0 0 512 512;" xml:space="preserve">
<g transform="translate(1 1)">
	<g>
		<path d="M388.456,20.823c-0.839-2.518-4.197-5.036-7.554-5.036h-25.18V7.393c0-5.036-3.357-8.393-8.393-8.393H162.672
			c-5.036,0-8.393,3.357-8.393,8.393v8.393h-25.18c-3.357,0-6.715,2.518-7.554,5.875c-11.751,29.377-11.751,62.112,0,91.489
			c0.839,2.518,4.197,5.036,7.554,5.036h25.18v8.393c0,5.036,3.357,8.393,8.393,8.393h58.754v110.793v0.839v26.859
			c0,8.393-2.518,16.787-6.715,23.502c-6.715,10.072-10.072,20.984-10.072,32.734v146.885c0,19.305,15.108,34.413,33.574,34.413
			h33.574c18.466,0,33.574-15.108,33.574-34.413V329.702c0-11.751-3.357-22.662-10.072-32.734
			c-4.197-6.715-6.715-15.108-6.715-23.502v-27.698V134.974h58.754c5.036,0,8.393-3.357,8.393-8.393v-8.393h25.18
			c3.357,0,6.715-1.679,7.554-5.875C400.207,82.934,400.207,50.2,388.456,20.823z M134.974,101.4
			c-7.554-22.662-7.554-46.164,0-68.826h19.305V101.4H134.974z M288.574,477.426c0,10.072-7.554,17.626-16.787,17.626h-33.574
			c-9.233,0-16.787-8.393-16.787-17.626v-9.233h16.787c4.197,0,8.393-3.357,8.393-8.393c0-5.036-3.357-8.393-8.393-8.393h-16.787
			V433.78h16.787c4.197,0,8.393-3.357,8.393-8.393c0-5.036-3.357-8.393-8.393-8.393h-16.787v-86.452
			c0-8.393,2.518-16.787,6.715-23.502c6.715-10.072,10.072-20.984,10.072-32.734V255h33.574v18.466
			c0,11.751,3.357,22.662,10.072,32.734c4.197,6.715,6.715,15.108,6.715,23.502V477.426z M271.787,237.374h-33.574v-102.4h33.574
			V237.374z M338.934,118.187H280.18H229.82h-58.754v-8.393V24.18v-8.393h167.869v8.393v85.613V118.187z M375.026,101.4h-19.305
			V32.574h19.305C382.58,55.236,382.58,78.738,375.026,101.4z"/>
	</g>
</g>
<g>
</g>
<g>
</g>
<g>
</g>
<g>
</g>
<g>
</g>
<g>
</g>
<g>
</g>
<g>
</g>
<g>
</g>
<g>
</g>
<g>
</g>
<g>
</g>
<g>
</g>
<g>
</g>
<g>
</g>
</svg>
