<?xml version="1.0" encoding="iso-8859-1"?>
<!-- Generator: Adobe Illustrator 19.0.0, SVG Export Plug-In . SVG Version: 6.00 Build 0)  -->
<svg version="1.1" id="Layer_1" xmlns="http://www.w3.org/2000/svg" xmlns:xlink="http://www.w3.org/1999/xlink" x="0px" y="0px"
	 viewBox="0 0 511.147 511.147" style="enable-background:new 0 0 511.147 511.147;" xml:space="preserve">
<g transform="translate(1 1)">
	<g>
		<g>
			<path d="M501.613,165.135l-21.333-21.333c-5.973-6.827-17.067-6.827-23.893,0l-23.893-23.893c3.413-3.413,5.12-7.68,5.12-11.947
				s-1.707-8.533-5.12-11.947l-40.107-40.107C344.6,7.268,261.827,3.001,212.333,45.668c-5.12,4.267-9.387,8.533-13.653,13.653
				s-5.12,12.8-1.707,19.627c4.267,6.827,11.093,10.24,18.773,8.533l2.56-0.853c21.333-4.267,43.52-0.853,63.147,8.533
				c5.257,3.154,17.315,13.11,27.795,22.285L6.68,413.455C1.56,417.721-1,424.548-1,431.375v3.413
				c0,31.573,25.6,58.027,58.027,58.027h11.947c6.827,0,13.653-2.56,17.92-7.68l301.466-313.787l20.241,20.241
				c-6.827,6.827-6.827,17.067,0,23.893l21.333,21.333c5.973,5.973,13.653,8.533,21.333,8.533c7.68,0,15.36-2.56,20.48-7.68
				l29.867-29.867c5.12-5.973,8.533-12.8,8.533-21.333S507.587,171.108,501.613,165.135z M74.093,474.041
				c-1.707,1.707-3.413,2.56-5.973,2.56H57.027c-22.187,0-40.96-17.92-40.96-40.96v-3.413c0-2.56,0.853-5.12,2.56-5.973
				l303.748-296.922c0.302,0.287,0.598,0.569,0.878,0.839c0.495,0.561,0.867,1.122,0.867,1.684l35.84,35.84
				c0.896,0.896,2.026,1.554,3.146,2.103c0.818,0.608,1.693,1.118,2.605,1.541L74.093,474.041z M489.667,195.001L459.8,224.868
				c-5.12,5.12-12.8,5.12-17.92,0l-21.333-21.333c3.413-3.413,5.12-7.68,5.12-11.947s-1.707-8.533-5.12-11.947l-20.48-20.48l0,0
				l-0.683-0.683l-2.731-2.731c0,0,0,0,0,0l-2.56-2.56c-5.973-5.12-16.213-4.267-22.187,1.707l-35.84-35.84
				c-1.707-2.56-5.12-5.12-8.533-8.533l-5.973-5.12l-0.599,0.586c-11.182-9.893-25.326-21.655-32.681-25.332
				c-23.04-11.947-49.493-15.36-74.24-10.24h-2.56c3.413-4.267,7.68-8.533,11.947-11.947c43.52-37.547,115.2-33.28,157.013,8.533
				l40.107,40.107c-6.827,6.827-6.827,17.067,0,23.893l23.893,23.893c5.973,6.827,17.067,6.827,23.893,0l21.333,21.333
				c1.707,2.56,3.413,5.973,3.413,9.387S492.227,192.441,489.667,195.001z"/>
			<path d="M163.693,341.775L52.76,452.708c-3.413,3.413-3.413,8.533,0,11.947c1.707,1.707,3.413,2.56,5.973,2.56
				s4.267-0.853,5.973-2.56L175.64,353.721c3.413-3.413,3.413-8.533,0-11.947C172.227,338.361,167.107,338.361,163.693,341.775z"/>
			<path d="M249.027,256.441l-59.733,59.733c-3.413,3.413-3.413,8.533,0,11.947c1.707,1.707,3.413,2.56,5.973,2.56
				s4.267-0.853,5.973-2.56l59.733-59.733c3.413-3.413,3.413-8.533,0-11.947S252.44,253.028,249.027,256.441z"/>
			<path d="M300.227,205.241l-25.6,25.6c-3.413,3.413-3.413,8.533,0,11.947c1.707,1.707,3.413,2.56,5.973,2.56
				s4.267-0.853,5.973-2.56l25.6-25.6c3.413-3.413,3.413-8.533,0-11.947C308.76,201.828,303.64,201.828,300.227,205.241z"/>
			<path d="M56.173,430.521l59.733-59.733c3.413-3.413,3.413-8.533,0-11.947c-3.413-3.413-8.533-3.413-11.947,0l-59.733,59.733
				c-3.413,3.413-3.413,8.533,0,11.947c1.707,1.707,3.413,2.56,5.973,2.56S54.467,432.228,56.173,430.521z"/>
			<path d="M135.533,347.748c2.56,0,4.267-0.853,5.973-2.56l59.733-59.733c3.413-3.413,3.413-8.533,0-11.947s-8.533-3.413-11.947,0
				l-59.733,59.733c-3.413,3.413-3.413,8.533,0,11.947C131.267,346.895,132.973,347.748,135.533,347.748z"/>
			<path d="M220.867,262.415c2.56,0,4.267-0.853,5.973-2.56l76.8-76.8c3.413-3.413,3.413-8.533,0-11.947s-8.533-3.413-11.947,0
				l-76.8,76.8c-3.413,3.413-3.413,8.533,0,11.947C216.6,261.561,218.307,262.415,220.867,262.415z"/>
		</g>
	</g>
</g>
<g>
</g>
<g>
</g>
<g>
</g>
<g>
</g>
<g>
</g>
<g>
</g>
<g>
</g>
<g>
</g>
<g>
</g>
<g>
</g>
<g>
</g>
<g>
</g>
<g>
</g>
<g>
</g>
<g>
</g>
</svg>
