<?xml version="1.0" encoding="iso-8859-1"?>
<!-- Generator: Adobe Illustrator 19.0.0, SVG Export Plug-In . SVG Version: 6.00 Build 0)  -->
<svg version="1.1" id="Layer_1" xmlns="http://www.w3.org/2000/svg" xmlns:xlink="http://www.w3.org/1999/xlink" x="0px" y="0px"
	 viewBox="0 0 512 512" style="enable-background:new 0 0 512 512;" xml:space="preserve">
<g transform="translate(1 1)">
	<g>
		<path d="M383,23.747c-1.013-0.11-2.025-0.203-3.038-0.31c-11.328-1.6-23.546-3.155-38.775-3.956c-0.838,0-1.674,0.101-2.482,0.284
			c-25.151-1.806-50.214-2.8-75.172-2.995V7.533C263.533,2.413,260.12-1,255-1c-5.12,0-8.533,3.413-8.533,8.533v9.229
			c-24.988,0.173-49.863,1.147-74.603,2.941c-0.719-0.143-1.457-0.222-2.197-0.222c-16.213,1.707-29.013,2.56-41.813,4.267
			c-10.24,0.853-17.92,9.387-17.92,19.627v30.72c0,10.24,7.68,18.773,17.92,20.48c39.026,3.982,78.795,6.476,118.613,6.791v136.569
			h-8.533c-5.12,0-8.533,3.413-8.533,8.533v23.04c0,11.093-2.56,22.187-7.68,32.427c-5.973,12.8-9.387,26.453-9.387,40.107v126.293
			C212.333,492.227,231.107,511,255,511c23.893,0,42.667-18.773,42.667-42.667v-125.44c0-13.653-3.413-28.16-9.387-40.107
			c-5.12-10.24-7.68-21.333-7.68-32.427v-23.893c0-5.12-3.413-8.533-8.533-8.533h-8.533V101.364
			c25.582-0.205,51.164-1.334,76.745-3.38c0.019,0,0.036,0.002,0.055,0.002c0.114-0.011,0.224-0.022,0.338-0.033
			c9.25-0.743,18.5-1.604,27.75-2.588c5.008-0.489,9.794-1.007,14.579-1.645c9.387-0.853,17.067-9.387,17.067-19.627v-30.72
			C400.067,33.133,392.387,24.6,383,23.747z M272.92,309.613c5.12,10.24,7.68,21.333,7.68,32.427v126.293
			c0,14.507-11.093,25.6-25.6,25.6c-14.507,0-25.6-11.093-25.6-25.6h17.067c5.12,0,8.533-3.413,8.533-8.533
			c0-5.12-3.413-8.533-8.533-8.533H229.4V434.2h17.067c5.12,0,8.533-3.413,8.533-8.533s-3.413-8.533-8.533-8.533H229.4v-74.24
			c0-11.093,2.56-22.187,7.68-32.427c5.973-12.8,9.387-26.453,9.387-40.107V255h17.067v15.36
			C263.533,284.013,266.947,297.667,272.92,309.613z M257.015,84.53c-0.638-0.126-1.308-0.197-2.015-0.197
			c-0.714,0-1.391,0.073-2.035,0.201c-24.984-0.038-49.928-0.911-74.765-2.617V35.777c25.189-1.695,50.567-2.644,75.947-2.644
			c25.694,0,51.711,0.97,77.653,2.705v46.054C306.881,83.602,281.931,84.479,257.015,84.53z M127,43.373
			c0-1.707,1.707-2.56,2.56-3.413c10.24-0.853,20.48-1.707,31.573-2.56v42.667c-11.947-0.853-21.333-1.707-31.573-2.56
			c-0.853-0.853-2.56-1.707-2.56-3.413V43.373z M383,74.093c0,1.707-0.853,2.56-2.56,2.56c-9.387,1.707-19.627,2.56-31.573,3.413
			V37.4c11.947,0.853,22.187,1.707,31.573,2.56c1.707,0.853,2.56,1.707,2.56,3.413V74.093z"/>
	</g>
</g>
<g>
</g>
<g>
</g>
<g>
</g>
<g>
</g>
<g>
</g>
<g>
</g>
<g>
</g>
<g>
</g>
<g>
</g>
<g>
</g>
<g>
</g>
<g>
</g>
<g>
</g>
<g>
</g>
<g>
</g>
</svg>
