<?xml version="1.0" encoding="iso-8859-1"?>
<!-- Generator: Adobe Illustrator 19.0.0, SVG Export Plug-In . SVG Version: 6.00 Build 0)  -->
<svg version="1.1" id="Layer_1" xmlns="http://www.w3.org/2000/svg" xmlns:xlink="http://www.w3.org/1999/xlink" x="0px" y="0px"
	 viewBox="0 0 503.607 503.607" style="enable-background:new 0 0 503.607 503.607;" xml:space="preserve">
<g transform="translate(1 1)">
	<g>
		<g>
			<path d="M175.262-1H7.393C2.357-1-1,2.357-1,7.393v486.82c0,5.036,3.357,8.393,8.393,8.393h167.869
				c5.036,0,8.393-3.357,8.393-8.393V7.393C183.656,2.357,180.298-1,175.262-1z M166.869,485.82h-25.18v-92.328
				c0-5.036-3.357-8.393-8.393-8.393s-8.393,3.357-8.393,8.393v92.328h-25.18v-41.967c0-5.036-3.357-8.393-8.393-8.393
				s-8.393,3.357-8.393,8.393v41.967h-25.18v-58.754c0-5.036-3.357-8.393-8.393-8.393s-8.393,3.357-8.393,8.393v58.754h-25.18
				V15.787h25.18v92.328c0,5.036,3.357,8.393,8.393,8.393s8.393-3.357,8.393-8.393V15.787h25.18v33.574
				c0,5.036,4.197,8.393,8.393,8.393c5.036,0,8.393-3.357,8.393-8.393V15.787h25.18v92.328c0,5.036,3.357,8.393,8.393,8.393
				s8.393-3.357,8.393-8.393V15.787h25.18V485.82z"/>
			<path d="M133.295,284.377c-5.036,0-8.393,3.357-8.393,8.393v67.148c0,5.036,3.357,8.393,8.393,8.393s8.393-3.357,8.393-8.393
				v-67.148C141.689,287.734,138.331,284.377,133.295,284.377z"/>
			<path d="M91.328,334.738c-5.036,0-8.393,3.357-8.393,8.393v58.754c0,5.036,3.357,8.393,8.393,8.393s8.393-3.357,8.393-8.393
				v-58.754C99.721,338.095,96.364,334.738,91.328,334.738z"/>
			<path d="M91.328,158.475c-9.233,0-16.787,7.554-16.787,16.787s7.554,16.787,16.787,16.787s16.787-7.554,16.787-16.787
				S100.561,158.475,91.328,158.475z"/>
			<path d="M99.721,125.741v-26.02c0-5.036-3.357-8.393-8.393-8.393s-8.393,3.357-8.393,8.393v33.574
				c0,5.036,3.357,8.393,8.393,8.393c18.466,0,33.574,15.108,33.574,33.574v75.541c0,5.036,3.357,8.393,8.393,8.393
				s8.393-3.357,8.393-8.393v-75.541C141.689,150.082,123.223,129.938,99.721,125.741z"/>
			<path d="M91.328,208.836c-18.466,0-33.574-15.108-33.574-33.574v-25.18c0-5.036-3.357-8.393-8.393-8.393
				s-8.393,3.357-8.393,8.393v25.18c0,25.18,18.466,45.325,41.967,49.521v76.38c0,5.036,3.357,8.393,8.393,8.393
				s8.393-3.357,8.393-8.393v-83.934C99.721,212.193,96.364,208.836,91.328,208.836z"/>
			<path d="M49.361,234.016c-5.036,0-8.393,3.357-8.393,8.393v83.934c0,5.036,3.357,8.393,8.393,8.393s8.393-3.357,8.393-8.393
				V242.41C57.754,237.374,54.397,234.016,49.361,234.016z"/>
			<path d="M49.361,359.918c-5.036,0-8.393,3.357-8.393,8.393v16.787c0,5.036,3.357,8.393,8.393,8.393s8.393-3.357,8.393-8.393
				v-16.787C57.754,363.275,54.397,359.918,49.361,359.918z"/>
			<path d="M477.426,32.574h-41.967c-4.197,0-9.233,1.679-12.59,5.036c-2.518,3.357-4.197,7.554-4.197,11.751
				c-8.393,0-10.072-0.839-15.108-5.875c-2.518-2.518-5.036-5.036-8.393-7.554c-10.072-7.554-22.662-11.751-35.252-11.751h-50.361
				c-40.289,0-83.934,25.18-109.954,62.951l-5.036,7.554c-2.518,3.357-2.518,7.554,0,10.072c1.679,2.518,5.875,3.357,9.233,2.518
				c0,0,49.521-17.626,74.702,0c9.233,6.715,14.269,17.626,14.269,34.413V242.41v226.623c0,18.466,15.108,33.574,33.574,33.574
				h16.787c18.466,0,33.574-15.108,33.574-33.574V242.41v-94.815c6.636-1.984,12.932-5.114,18.466-9.264
				c3.357-3.357,5.875-5.875,8.393-7.554c5.036-5.036,5.875-5.875,14.269-5.875c0.839,0,0.839,0,0.839,0
				c0,4.197,1.679,8.393,4.197,11.751c3.357,3.357,7.554,5.036,12.59,5.036h41.967c14.269,0,25.18-10.911,25.18-25.18V57.754
				C502.607,43.485,491.695,32.574,477.426,32.574z M359.918,469.033c0,9.233-7.554,16.787-16.787,16.787h-16.787
				c-9.233,0-16.787-7.554-16.787-16.787v-8.393h16.787c4.197,0,8.393-3.357,8.393-8.393c0-5.036-3.357-8.393-8.393-8.393h-16.787
				v-16.787h16.787c4.197,0,8.393-3.357,8.393-8.393s-3.357-8.393-8.393-8.393h-16.787V250.803h50.361V469.033z M359.918,234.016
				h-50.361v-83.934h50.361V234.016z M485.82,116.508c0,5.036-3.357,8.393-8.393,8.393h-41.967c0-4.197-1.679-8.393-4.197-10.072
				c-3.357-4.197-8.393-5.875-13.43-5.875c-14.269,0-19.305,3.357-26.02,10.072c-2.518,1.679-4.197,3.357-7.554,5.875
				c-6.715,5.036-15.948,8.393-25.18,8.393h-50.361c-1.679-17.626-8.393-31.056-20.984-40.289
				c-19.305-12.59-47.003-10.911-66.308-7.554c23.502-27.698,57.075-44.485,88.131-44.485h50.361c9.233,0,18.466,2.518,25.18,8.393
				c3.357,2.518,5.036,4.197,7.554,6.715c6.715,5.875,11.751,10.072,26.02,10.072c4.197,0,9.233-1.679,12.59-5.875
				c2.518-2.518,4.197-6.715,4.197-10.911h41.967c5.036,0,8.393,3.357,8.393,8.393V116.508z"/>
		</g>
	</g>
</g>
<g>
</g>
<g>
</g>
<g>
</g>
<g>
</g>
<g>
</g>
<g>
</g>
<g>
</g>
<g>
</g>
<g>
</g>
<g>
</g>
<g>
</g>
<g>
</g>
<g>
</g>
<g>
</g>
<g>
</g>
</svg>
