<?xml version="1.0" encoding="iso-8859-1"?>
<!-- Generator: Adobe Illustrator 19.0.0, SVG Export Plug-In . SVG Version: 6.00 Build 0)  -->
<svg version="1.1" id="Layer_1" xmlns="http://www.w3.org/2000/svg" xmlns:xlink="http://www.w3.org/1999/xlink" x="0px" y="0px"
	 viewBox="0 0 512 512" style="enable-background:new 0 0 512 512;" xml:space="preserve">
<g transform="translate(1 1)">
	<g>
		<g>
			<path d="M246.087,297.667c23.893,0,42.667-18.773,42.667-42.667c0-23.893-18.773-42.667-42.667-42.667
				c-23.893,0-42.667,18.773-42.667,42.667C203.42,278.893,222.193,297.667,246.087,297.667z M246.087,229.4
				c14.507,0,25.6,11.093,25.6,25.6c0,14.507-11.093,25.6-25.6,25.6s-25.6-11.093-25.6-25.6
				C220.487,240.493,231.58,229.4,246.087,229.4z"/>
			<path d="M327.153,390.68c-11.947-17.067-29.867-29.013-50.347-32.427c-1.707-0.853-4.267-3.413-4.267-5.973v-25.094
				c29.488-10.695,50.347-38.833,50.347-72.186c0-26.831-13.504-50.279-34.133-63.995V7.533c0-5.12-3.413-8.533-8.533-8.533h-68.267
				c-5.12,0-8.533,3.413-8.533,8.533v183.472c-20.63,13.716-34.133,37.164-34.133,63.995c0,33.672,21.266,62.012,51.2,72.473v46.141
				c0,19.627,15.36,34.987,34.987,34.987h7.68c7.68,0,15.36,3.413,20.48,9.387s6.827,14.507,5.12,22.187
				c-2.56,9.387-10.24,17.92-18.773,19.627c-10.24,2.56-18.773-2.56-29.867-16.213c-9.387-11.093-29.013-40.107-29.013-40.107
				c-2.56-2.56-5.12-4.267-8.533-3.413s-5.973,2.56-6.827,5.973l-1.707,4.267c-8.533,25.6-3.413,52.907,13.653,73.387
				C221.34,500.76,241.82,511,264.007,511c2.56,0,5.12,0,8.533,0c4.267-0.853,7.68-1.707,11.947-2.56
				c27.307-7.68,49.493-30.72,54.613-58.88C343.367,428.227,339.1,407.747,327.153,390.68z M220.487,182.467V75.8h17.067
				c5.12,0,8.533-3.413,8.533-8.533s-3.413-8.533-8.533-8.533h-17.067V50.2h17.067c5.12,0,8.533-3.413,8.533-8.533
				s-3.413-8.533-8.533-8.533h-17.067V16.067h51.2v166.4c-0.415-0.125-0.83-0.237-1.245-0.357
				c-6.672-2.203-13.753-3.529-21.121-3.829c-1.078-0.053-2.156-0.081-3.235-0.081s-2.156,0.028-3.235,0.081
				c-7.367,0.3-14.449,1.625-21.12,3.829C221.317,182.23,220.902,182.342,220.487,182.467z M186.353,255
				c0-21.087,10.629-39.423,26.878-50.035c1.053-0.175,2.076-0.556,2.989-1.165c17.92-10.24,41.813-10.24,59.733,0
				c0.964,0.482,1.657,0.687,2.383,0.779c16.589,10.55,27.483,29.074,27.483,50.421c0,26.858-17.234,49.261-41.377,56.91
				c-0.999-0.136-1.998-0.07-2.997,0.263c-10.24,2.56-19.627,2.56-29.867,0c-1.123-0.374-2.408-0.405-3.643-0.194
				C203.685,304.393,186.353,281.936,186.353,255z M322.887,445.293c-4.267,22.187-21.333,40.107-42.667,46.08
				c-3.413,0.853-5.973,1.707-9.387,1.707c-18.773,2.56-36.693-5.12-49.493-20.48c-10.24-11.947-15.36-28.16-13.653-43.52
				c5.973,9.387,13.653,19.627,18.773,25.6c10.24,12.8,24.747,27.307,46.933,22.187c15.36-3.413,28.16-17.067,31.573-32.427
				c2.56-12.8,0-26.453-8.533-36.693c-7.68-10.24-20.48-16.213-33.28-16.213h-7.68c-10.24,0-17.92-7.68-17.92-17.92v-42.287
				c2.801,0.305,5.646,0.474,8.533,0.474s5.732-0.169,8.533-0.474v20.954c0,11.093,8.533,21.333,19.627,22.187
				c16.213,2.56,29.867,11.947,39.253,24.747C322.887,412.867,326.3,429.08,322.887,445.293z"/>
		</g>
	</g>
</g>
<g>
</g>
<g>
</g>
<g>
</g>
<g>
</g>
<g>
</g>
<g>
</g>
<g>
</g>
<g>
</g>
<g>
</g>
<g>
</g>
<g>
</g>
<g>
</g>
<g>
</g>
<g>
</g>
<g>
</g>
</svg>
