<?xml version="1.0" encoding="iso-8859-1"?>
<!-- Generator: Adobe Illustrator 19.0.0, SVG Export Plug-In . SVG Version: 6.00 Build 0)  -->
<svg version="1.1" id="Layer_1" xmlns="http://www.w3.org/2000/svg" xmlns:xlink="http://www.w3.org/1999/xlink" x="0px" y="0px"
	 viewBox="0 0 512 512" style="enable-background:new 0 0 512 512;" xml:space="preserve">
<g transform="translate(1 1)">
	<g>
		<g>
			<path d="M272.067,246.467H229.4c-5.12,0-8.533,3.413-8.533,8.533v51.2H152.6V255c0-5.12-3.413-8.533-8.533-8.533H101.4
				c-5.12,0-8.533,3.413-8.533,8.533v170.667c0,5.12,3.413,8.533,8.533,8.533h42.667c5.12,0,8.533-3.413,8.533-8.533v-59.733h68.267
				v59.733c0,5.12,3.413,8.533,8.533,8.533h42.667c5.12,0,8.533-3.413,8.533-8.533V255
				C280.6,249.88,277.187,246.467,272.067,246.467z M263.533,417.133h-25.6V357.4c0-5.12-3.413-8.533-8.533-8.533h-85.333
				c-5.12,0-8.533,3.413-8.533,8.533v59.733h-25.6v-153.6h25.6v51.2c0,5.12,3.413,8.533,8.533,8.533H229.4
				c5.12,0,8.533-3.413,8.533-8.533v-51.2h25.6V417.133z"/>
			<path d="M502.467,442.733c-54.613,0-102.4-43.52-102.4-93.867c0-20.48-14.507-37.547-34.133-41.813V255
				c47.787,5.12,85.333,45.227,85.333,93.867c0,23.893,27.307,42.667,51.2,42.667c5.12,0,8.533-3.413,8.533-8.533
				s-3.413-8.533-8.533-8.533c-14.507,0-34.133-12.8-34.133-25.6c0-61.44-49.493-110.933-110.933-110.933h-25.6v-17.067h21.333
				c11.947,0,21.333-9.387,20.48-21.333v-7.68c0-11.947-9.387-21.333-21.333-21.333h-20.682
				c-3.535-68.008-53.744-123.51-119.265-135.141V24.6c0-14.507-11.093-25.6-25.6-25.6s-25.6,11.093-25.6,25.6v10.779
				C95.612,47.01,45.403,102.512,41.868,170.52H20.333C8.387,170.52-1,179.907-1,191.853v7.68c0,11.947,10.24,21.333,22.187,21.333
				h20.48v17.067h-25.6c-5.12,0-8.533,3.413-8.533,8.533v68.267c0,5.12,3.413,8.533,8.533,8.533h25.6V459.8
				C17.773,459.8-1,478.573-1,502.467c0,5.12,3.413,8.533,8.533,8.533h358.4c5.12,0,8.533-3.413,8.533-8.533
				c0-23.893-18.773-42.667-42.667-42.667V323.267h25.6c14.507,0,25.6,11.093,25.6,25.6c0,58.88,55.467,110.933,119.467,110.933
				c5.12,0,8.533-3.413,8.533-8.533C511,446.147,507.587,442.733,502.467,442.733z M178.2,33.133V24.6
				c0-5.12,3.413-8.533,8.533-8.533s8.533,3.413,8.533,8.533v8.533c-2.56,0-5.973,0-8.533,0S181.613,33.133,178.2,33.133z
				 M186.733,50.2c68.267,0,123.733,52.907,128,119.467h-256C63.853,103.107,118.467,50.2,186.733,50.2z M16.067,198.68V191
				c0-2.56,2.56-4.267,5.12-4.267v0.853h331.947c2.56,0,4.267,1.707,4.267,4.267v7.68c0,2.56-1.707,4.267-4.267,4.267h-29.867H50.2
				H21.187C18.627,203.8,16.067,202.093,16.067,198.68z M24.6,306.2V255h17.067v51.2H24.6z M332.653,476.867
				c11.093,0,20.48,6.827,23.893,17.067H17.773c3.413-10.24,12.8-17.067,23.893-17.067H50.2h273.067H332.653z M58.733,459.8V314.733
				v-68.267v-25.6h256v25.6v68.267V459.8H58.733z M331.8,255h17.067v51.2H331.8V255z"/>
		</g>
	</g>
</g>
<g>
</g>
<g>
</g>
<g>
</g>
<g>
</g>
<g>
</g>
<g>
</g>
<g>
</g>
<g>
</g>
<g>
</g>
<g>
</g>
<g>
</g>
<g>
</g>
<g>
</g>
<g>
</g>
<g>
</g>
</svg>
