<?xml version="1.0" encoding="iso-8859-1"?>
<!-- Generator: Adobe Illustrator 19.0.0, SVG Export Plug-In . SVG Version: 6.00 Build 0)  -->
<svg version="1.1" id="Layer_1" xmlns="http://www.w3.org/2000/svg" xmlns:xlink="http://www.w3.org/1999/xlink" x="0px" y="0px"
	 viewBox="0 0 512 512" style="enable-background:new 0 0 512 512;" xml:space="preserve">
<g transform="translate(1 1)">
	<g>
		<g>
			<path d="M468.333,24.6h-42.667c-5.12,0-8.533,3.413-8.533,8.533h-51.984l0.784-8.533c0-14.507-11.093-25.6-25.6-25.6H169.667
				c-13.653,0-25.6,11.093-25.6,26.453l0.71,7.68h-51.91c0-5.12-3.413-8.533-8.533-8.533H41.667
				c-18.773,0-34.133,15.36-34.133,34.133s15.36,34.133,34.133,34.133h42.667c5.12,0,8.533-3.413,8.533-8.533h56.64l9.067,98.133
				c2.051,17.095,13.97,31.441,30.04,36.47l11.773,65.93c2.208,11.038,10.133,18.889,20.48,20.845V357.4
				c0,8.603,3.232,16.483,8.533,22.503v96.964c0,1.707,0.853,3.413,1.707,5.12l17.067,25.6C249.88,509.293,252.44,511,255,511
				c3.413,0,5.973-1.707,6.827-3.413l17.067-25.6c0.853-1.707,1.707-3.413,1.707-5.12v-96.964c5.301-6.02,8.533-13.9,8.533-22.503
				v-51.873c9.926-2.219,17.48-9.929,19.627-20.661l11.681-65.413c16.952-4.492,29.568-19.261,30.986-36.987l9.018-98.133h56.689
				c0,5.12,3.413,8.533,8.533,8.533h42.667c18.773,0,34.133-15.36,34.133-34.133S487.107,24.6,468.333,24.6z M41.667,75.8
				C32.28,75.8,24.6,68.12,24.6,58.733s7.68-17.067,17.067-17.067H75.8V75.8H41.667z M92.867,67.267V50.2h53.486l1.577,17.067
				H92.867z M272.067,357.4c0,4.61-1.859,8.801-4.856,11.88c-0.387,0.262-0.761,0.564-1.118,0.92
				c-1.384,1.384-4.453,3.33-8.296,4.015c-0.071,0.012-0.142,0.022-0.213,0.033c-0.377,0.062-0.763,0.11-1.154,0.146
				c-0.473,0.04-0.948,0.073-1.431,0.073c-0.466,0-0.924-0.033-1.381-0.07c-4.362-0.405-7.39-2.648-9.712-4.196
				c-0.391-0.391-0.804-0.737-1.231-1.045c-2.928-3.068-4.742-7.206-4.742-11.755v-51.2h34.133V357.4z M263.533,474.307l-8.533,12.8
				l-8.533-12.8V390.68c5.12,1.707,11.947,1.707,17.067,0V474.307z M292.547,282.307c-0.853,4.267-4.267,6.827-8.533,6.827H280.6
				h-51.2h-2.56c-4.267,0-7.68-2.56-8.533-6.827l-11.093-61.44h96.427L292.547,282.307z M335.213,180.76
				c-1.48,11.103-9.383,20.274-20.363,22.513c-0.868-0.214-1.772-0.326-2.677-0.326h-0.853c-0.853,0-1.707,0-2.56,0H200.387
				c-0.853,0-1.707,0-2.56,0h-0.853c-0.661,0-1.321,0.059-1.967,0.173c-10.661-2.385-18.648-10.858-19.366-22.36l-9.621-103.563
				c0.15-0.736,0.234-1.492,0.234-2.25l-3.413-34.133c-0.079-0.394-0.187-0.778-0.308-1.156L161.133,24.6
				c0-5.12,3.413-8.533,8.533-8.533h170.667c5.12,0,8.533,4.267,8.533,7.68L335.213,180.76z M362.52,67.267l0.606-12.112
				l0.455-4.955h53.552v17.067H362.52z M468.333,75.8H434.2V41.667h34.133c9.387,0,17.067,7.68,17.067,17.067
				S477.72,75.8,468.333,75.8z"/>
			<path d="M263.533,169.667h-17.067c-5.12,0-8.533,3.413-8.533,8.533s3.413,8.533,8.533,8.533h17.067
				c5.12,0,8.533-3.413,8.533-8.533S268.653,169.667,263.533,169.667z"/>
			<path d="M280.6,135.533h-51.2c-5.12,0-8.533,3.413-8.533,8.533c0,5.12,3.413,8.533,8.533,8.533h51.2
				c5.12,0,8.533-3.413,8.533-8.533C289.133,138.947,285.72,135.533,280.6,135.533z"/>
			<path d="M297.667,101.4h-85.333c-5.12,0-8.533,3.413-8.533,8.533s3.413,8.533,8.533,8.533h85.333c5.12,0,8.533-3.413,8.533-8.533
				S302.787,101.4,297.667,101.4z"/>
		</g>
	</g>
</g>
<g>
</g>
<g>
</g>
<g>
</g>
<g>
</g>
<g>
</g>
<g>
</g>
<g>
</g>
<g>
</g>
<g>
</g>
<g>
</g>
<g>
</g>
<g>
</g>
<g>
</g>
<g>
</g>
<g>
</g>
</svg>
