<?xml version="1.0" encoding="iso-8859-1"?>
<!-- Generator: Adobe Illustrator 19.0.0, SVG Export Plug-In . SVG Version: 6.00 Build 0)  -->
<svg version="1.1" id="Layer_1" xmlns="http://www.w3.org/2000/svg" xmlns:xlink="http://www.w3.org/1999/xlink" x="0px" y="0px"
	 viewBox="0 0 512.427 512.427" style="enable-background:new 0 0 512.427 512.427;" xml:space="preserve">
<g transform="translate(1 1)">
	<g>
		<g>
			<path d="M242.413,85.613c-3.413,2.56-5.12,7.68-3.413,11.947c10.24,18.773,16.213,41.813,16.213,64v85.333
				c0,5.12,3.413,8.533,8.533,8.533s8.533-3.413,8.533-8.533V161.56c0-24.747-5.973-50.347-17.92-72.533
				C251.8,84.76,246.68,83.907,242.413,85.613z"/>
			<path d="M331.16,276.76c-1.707-2.56-4.267-4.267-7.68-4.267h-17.067V159c0-64.853-34.133-125.44-89.6-158.72
				c-2.56-1.707-5.973-1.707-8.533,0s-4.267,4.267-4.267,7.68v264.533h-17.067c-2.56,0-5.973,1.707-7.68,4.267s-1.707,5.973,0,8.533
				c16.213,26.453,24.747,57.173,24.747,87.893v87.04c0,28.16,23.04,51.2,51.2,51.2c28.16,0,51.2-23.04,51.2-51.2v-87.04
				c0-30.72,8.533-61.44,24.747-87.893C332.867,282.733,332.867,279.32,331.16,276.76z M221.08,24.173
				c42.667,31.573,68.267,81.92,68.267,134.827v113.493H221.08V24.173z M289.347,373.187v87.04c0,18.773-15.36,34.133-34.133,34.133
				S221.08,479,221.08,460.227h17.067c5.12,0,8.533-3.413,8.533-8.533c0-5.12-3.413-8.533-8.533-8.533H221.08v-17.067h17.067
				c5.12,0,8.533-3.413,8.533-8.533s-3.413-8.533-8.533-8.533H221.08v-35.84c0-29.013-6.827-58.027-19.627-83.627h11.093h85.333
				h11.093C296.173,315.16,289.347,344.173,289.347,373.187z"/>
		</g>
	</g>
</g>
<g>
</g>
<g>
</g>
<g>
</g>
<g>
</g>
<g>
</g>
<g>
</g>
<g>
</g>
<g>
</g>
<g>
</g>
<g>
</g>
<g>
</g>
<g>
</g>
<g>
</g>
<g>
</g>
<g>
</g>
</svg>
