<?xml version="1.0" encoding="iso-8859-1"?>
<!-- Generator: Adobe Illustrator 19.0.0, SVG Export Plug-In . SVG Version: 6.00 Build 0)  -->
<svg version="1.1" id="Layer_1" xmlns="http://www.w3.org/2000/svg" xmlns:xlink="http://www.w3.org/1999/xlink" x="0px" y="0px"
	 viewBox="0 0 512 512" style="enable-background:new 0 0 512 512;" xml:space="preserve">
<g transform="translate(1 1)">
	<g>
		<g>
			<path d="M425.667,144.067c5.12,0,8.533-3.413,8.533-8.533V67.267c0-5.12-3.413-8.533-8.533-8.533h-25.6v-51.2
				c0-5.12-3.413-8.533-8.533-8.533h-68.267c-5.12,0-8.533,3.413-8.533,8.533v51.2H195.267v-51.2c0-5.12-3.413-8.533-8.533-8.533
				h-68.267c-5.12,0-8.533,3.413-8.533,8.533v51.2h-25.6c-5.12,0-8.533,3.413-8.533,8.533v68.267c0,5.12,3.413,8.533,8.533,8.533
				h25.6V203.8h-25.6c-5.12,0-8.533,3.413-8.533,8.533V280.6c0,5.12,3.413,8.533,8.533,8.533h25.6v59.733h-25.6
				c-5.12,0-8.533,3.413-8.533,8.533v68.267c0,5.12,3.413,8.533,8.533,8.533h25.6v68.267c0,5.12,3.413,8.533,8.533,8.533h68.267
				c5.12,0,8.533-3.413,8.533-8.533V434.2h119.467v68.267c0,5.12,3.413,8.533,8.533,8.533h68.267c5.12,0,8.533-3.413,8.533-8.533
				V434.2h25.6c5.12,0,8.533-3.413,8.533-8.533V357.4c0-5.12-3.413-8.533-8.533-8.533h-25.6v-59.733h25.6
				c5.12,0,8.533-3.413,8.533-8.533v-68.267c0-5.12-3.413-8.533-8.533-8.533h-25.6v-59.733H425.667z M331.8,16.067H383v42.667h-51.2
				V16.067z M127,16.067h51.2v42.667H127V16.067z M92.867,75.8h25.6h68.267h136.533h68.267h25.6V127h-25.6h-68.267H186.733h-68.267
				h-25.6V75.8z M195.267,203.8v-59.733h119.467V203.8H195.267z M127,144.067h51.2V203.8H127V144.067z M127,289.133h51.2v59.733H127
				V289.133z M314.733,289.133v59.733H195.267v-59.733H314.733z M178.2,493.933H127V434.2h51.2V493.933z M383,493.933h-51.2V434.2
				H383V493.933z M417.133,417.133h-25.6h-68.267H186.733h-68.267h-25.6v-51.2h25.6h68.267h136.533h68.267h25.6V417.133z
				 M383,348.867h-51.2v-59.733H383V348.867z M417.133,272.067h-25.6h-68.267H186.733h-68.267h-25.6v-51.2h25.6h68.267h136.533
				h68.267h25.6V272.067z M383,203.8h-51.2v-59.733H383V203.8z"/>
			<path d="M152.6,237.933c-5.12,0-8.533,3.413-8.533,8.533S147.48,255,152.6,255s8.533-3.413,8.533-8.533
				C161.133,242.2,157.72,237.933,152.6,237.933z"/>
			<path d="M152.6,109.933c5.12,0,8.533-3.413,8.533-8.533c0-4.267-3.413-8.533-8.533-8.533s-8.533,3.413-8.533,8.533
				S147.48,109.933,152.6,109.933z"/>
			<path d="M357.4,109.933c5.12,0,8.533-3.413,8.533-8.533c0-4.267-3.413-8.533-8.533-8.533s-8.533,3.413-8.533,8.533
				S352.28,109.933,357.4,109.933z"/>
			<path d="M357.4,237.933c-5.12,0-8.533,3.413-8.533,8.533S352.28,255,357.4,255s8.533-3.413,8.533-8.533
				C365.933,242.2,362.52,237.933,357.4,237.933z"/>
			<path d="M152.6,383c-5.12,0-8.533,3.413-8.533,8.533c0,5.12,3.413,8.533,8.533,8.533s8.533-3.413,8.533-8.533
				C161.133,387.267,157.72,383,152.6,383z"/>
			<path d="M357.4,383c-5.12,0-8.533,3.413-8.533,8.533c0,5.12,3.413,8.533,8.533,8.533s8.533-3.413,8.533-8.533
				C365.933,387.267,362.52,383,357.4,383z"/>
		</g>
	</g>
</g>
<g>
</g>
<g>
</g>
<g>
</g>
<g>
</g>
<g>
</g>
<g>
</g>
<g>
</g>
<g>
</g>
<g>
</g>
<g>
</g>
<g>
</g>
<g>
</g>
<g>
</g>
<g>
</g>
<g>
</g>
</svg>
