<?xml version="1.0" encoding="iso-8859-1"?>
<!-- Generator: Adobe Illustrator 19.0.0, SVG Export Plug-In . SVG Version: 6.00 Build 0)  -->
<svg version="1.1" id="Layer_1" xmlns="http://www.w3.org/2000/svg" xmlns:xlink="http://www.w3.org/1999/xlink" x="0px" y="0px"
	 viewBox="0 0 512 512" style="enable-background:new 0 0 512 512;" xml:space="preserve">
<g transform="translate(1 1)">
	<g>
		<g>
			<path d="M397.999,397.507l-235.52-39.949v-68.424h119.467v34.133c0,3.413,1.707,5.973,4.267,7.68l17.067,8.533
				c3.413,1.707,7.68,0.853,10.24-1.707l11.093-11.093l11.093,11.093c1.707,1.707,3.413,2.56,5.973,2.56c1.707,0,2.56,0,3.413-0.853
				l17.067-8.533c3.413-1.707,5.12-4.267,5.12-7.68v-34.133h25.6c5.12,0,8.533-3.413,8.533-8.533v-68.267
				c0-5.12-3.413-8.533-8.533-8.533h-25.6v-59.733h25.6c5.12,0,8.533-3.413,8.533-8.533V67.267c0-5.12-3.413-8.533-8.533-8.533
				h-25.6v-51.2c0-5.12-3.413-8.533-8.533-8.533h-68.267c-5.12,0-8.533,3.413-8.533,8.533v51.2H162.479v-51.2
				c0-5.12-3.413-8.533-8.533-8.533H85.679c-5.12,0-8.533,3.413-8.533,8.533v51.2h-25.6c-5.12,0-8.533,3.413-8.533,8.533v68.267
				c0,5.12,3.413,8.533,8.533,8.533h25.6V203.8h-25.6c-5.12,0-8.533,3.413-8.533,8.533V280.6c0,5.12,3.413,8.533,8.533,8.533h25.6
				v53.95l-16.213-2.75c-2.56,0-4.267,0-5.973,0.853c-1.707,1.707-3.413,3.413-3.413,5.973l-11.093,67.413
				c-0.853,5.12,2.56,9.387,6.827,10.24l29.867,5.003v72.65c0,5.12,3.413,8.533,8.533,8.533h68.267c5.12,0,8.533-3.413,8.533-9.387
				v-57.503l119.467,20.012v38.344c0,5.12,3.413,8.533,8.533,8.533h68.267c5.12,0,8.533-3.413,8.533-8.533v-24.049l16.213,2.716
				c0.853,0,0.853,0,1.707,0c4.267,0,7.68-3.413,8.533-7.68l11.093-66.56c0-1.707,0-4.267-1.707-5.973
				C402.266,399.213,400.559,397.507,397.999,397.507z M350.213,318.147l-6.827,3.413l-12.8-12.8
				c-1.707-1.707-3.413-2.56-5.973-2.56c-1.707,0-4.267,0.853-5.973,2.56l-12.8,12.8l-6.827-3.413v-29.013h51.2V318.147z
				 M350.213,203.8h-51.2v-59.733h51.2V203.8z M162.479,203.8v-59.733h119.467V203.8H162.479z M299.013,16.067h51.2v42.667h-51.2
				V16.067z M94.212,16.067h51.2v42.667h-51.2V16.067z M60.079,75.8h25.6h68.267h136.533h68.267h25.6V127h-25.6h-68.267H153.946
				H85.679h-25.6V75.8z M94.212,144.067h51.2V203.8h-51.2V144.067z M60.079,220.867h25.6h68.267h136.533h68.267h25.6v51.2h-25.6
				h-68.267H153.946H85.679h-25.6V220.867z M94.212,289.133h51.2v65.53l-51.2-8.685V289.133z M145.412,493.933h-51.2v-61.258
				l51.2,8.577V493.933z M350.213,493.933h-51.2v-26.951l51.2,8.577V493.933z M378.372,462.36l-15.5-2.563
				c-0.73-0.382-1.536-0.674-2.421-0.851l-68.267-11.093c-1.032-0.344-2.061-0.4-3.037-0.245l-130.422-21.563
				c-0.89-0.575-1.917-1-3.075-1.232L87.386,413.72c-1.294-0.431-2.588-0.424-3.772-0.093l-25.242-4.173l8.533-50.347l15.71,2.639
				c0.447,0.286,0.902,0.546,1.357,0.774l68.267,11.093c0.533,0,0.733,0,1.016,0l233.651,39.253L378.372,462.36z"/>
			<path d="M119.813,255c5.12,0,8.533-3.413,8.533-8.533c0-4.267-3.413-8.533-8.533-8.533s-8.533,3.413-8.533,8.533
				S114.693,255,119.813,255z"/>
			<path d="M119.813,109.933c5.12,0,8.533-3.413,8.533-8.533c0-4.267-3.413-8.533-8.533-8.533s-8.533,3.413-8.533,8.533
				S114.693,109.933,119.813,109.933z"/>
			<path d="M324.612,109.933c5.12,0,8.533-3.413,8.533-8.533c0-4.267-3.413-8.533-8.533-8.533s-8.533,3.413-8.533,8.533
				S319.492,109.933,324.612,109.933z"/>
			<path d="M324.612,255c5.12,0,8.533-3.413,8.533-8.533c0-4.267-3.413-8.533-8.533-8.533s-8.533,3.413-8.533,8.533
				S319.492,255,324.612,255z"/>
			<path d="M119.813,383c-5.12,0-8.533,3.413-8.533,8.533c0,5.12,3.413,8.533,8.533,8.533s8.533-3.413,8.533-8.533
				C128.346,387.267,124.932,383,119.813,383z"/>
			<path d="M324.612,436.76c5.12,0,8.533-3.413,8.533-8.533s-3.413-8.533-8.533-8.533s-8.533,3.413-8.533,8.533
				S319.492,436.76,324.612,436.76z"/>
			<path d="M418.479,323.267c2.56,0,4.267-0.853,5.973-2.56l17.067-17.067c3.413-3.413,3.413-8.533,0-11.947
				c-3.413-3.413-8.533-3.413-11.947,0l-17.067,17.067c-3.413,3.413-3.413,8.533,0,11.947
				C414.213,322.413,415.919,323.267,418.479,323.267z"/>
			<path d="M461.146,340.333h-25.6c-5.12,0-8.533,3.413-8.533,8.533s3.413,8.533,8.533,8.533h25.6c5.12,0,8.533-3.413,8.533-8.533
				S466.266,340.333,461.146,340.333z"/>
			<path d="M424.453,377.027c-3.413-3.413-8.533-3.413-11.947,0c-3.413,3.413-3.413,8.533,0,11.947l17.067,17.067
				c1.707,1.707,3.413,2.56,5.973,2.56s4.267-0.853,5.973-2.56c3.413-3.413,3.413-8.533,0-11.947L424.453,377.027z"/>
		</g>
	</g>
</g>
<g>
</g>
<g>
</g>
<g>
</g>
<g>
</g>
<g>
</g>
<g>
</g>
<g>
</g>
<g>
</g>
<g>
</g>
<g>
</g>
<g>
</g>
<g>
</g>
<g>
</g>
<g>
</g>
<g>
</g>
</svg>
