<?xml version="1.0" encoding="iso-8859-1"?>
<!-- Generator: Adobe Illustrator 19.0.0, SVG Export Plug-In . SVG Version: 6.00 Build 0)  -->
<svg version="1.1" id="Layer_1" xmlns="http://www.w3.org/2000/svg" xmlns:xlink="http://www.w3.org/1999/xlink" x="0px" y="0px"
	 viewBox="0 0 512 512" style="enable-background:new 0 0 512 512;" xml:space="preserve">
<g transform="translate(1 1)">
	<g>
		<g>
			<path d="M425.667,255c0-23.893-18.773-42.667-42.667-42.667v-68.267c23.893,0,42.667-18.773,42.667-42.667
				c0-23.893-18.773-42.667-42.667-42.667V41.667C383,17.773,364.227-1,340.333-1c-23.893,0-42.667,18.773-42.667,42.667v17.067
				h-85.333V41.667C212.333,17.773,193.56-1,169.667-1C145.773-1,127,17.773,127,41.667v17.067
				c-23.893,0-42.667,18.773-42.667,42.667c0,23.893,18.773,42.667,42.667,42.667v68.267c-23.893,0-42.667,18.773-42.667,42.667
				c0,23.893,18.773,42.667,42.667,42.667v68.267c-23.893,0-42.667,18.773-42.667,42.667c0,23.893,18.773,42.667,42.667,42.667
				v17.067C127,492.227,145.773,511,169.667,511c23.893,0,42.667-18.773,42.667-42.667v-17.067h85.333v17.067
				c0,23.893,18.773,42.667,42.667,42.667C364.227,511,383,492.227,383,468.333v-17.067c23.893,0,42.667-18.773,42.667-42.667
				c0-23.893-18.773-42.667-42.667-42.667v-68.267C406.893,297.667,425.667,278.893,425.667,255z M365.933,212.333h-51.2v-68.267
				h51.2V212.333z M212.333,212.333v-68.267h85.333v68.267H212.333z M314.733,41.667c0-14.507,11.093-25.6,25.6-25.6
				c14.507,0,25.6,11.093,25.6,25.6v17.067h-51.2V41.667z M144.067,41.667c0-14.507,11.093-25.6,25.6-25.6
				c14.507,0,25.6,11.093,25.6,25.6v17.067h-51.2V41.667z M101.4,101.4c0-14.507,11.093-25.6,25.6-25.6h8.533H203.8h102.4h68.267
				H383c14.507,0,25.6,11.093,25.6,25.6c0,14.507-11.093,25.6-25.6,25.6h-8.533H306.2H203.8h-68.267H127
				C112.493,127,101.4,115.907,101.4,101.4z M144.067,144.067h51.2v68.267h-51.2V144.067z M101.4,255
				c0-14.507,11.093-25.6,25.6-25.6h8.533H203.8h102.4h68.267H383c14.507,0,25.6,11.093,25.6,25.6c0,14.507-11.093,25.6-25.6,25.6
				h-8.533H306.2H203.8h-68.267H127C112.493,280.6,101.4,269.507,101.4,255z M212.333,365.933v-68.267h85.333v68.267H212.333z
				 M144.067,297.667h51.2v68.267h-51.2V297.667z M195.267,468.333c0,14.507-11.093,25.6-25.6,25.6c-14.507,0-25.6-11.093-25.6-25.6
				v-17.067h51.2V468.333z M365.933,468.333c0,14.507-11.093,25.6-25.6,25.6c-14.507,0-25.6-11.093-25.6-25.6v-17.067h51.2V468.333z
				 M408.6,408.6c0,14.507-11.093,25.6-25.6,25.6h-8.533H306.2H203.8h-68.267H127c-14.507,0-25.6-11.093-25.6-25.6
				c0-14.507,11.093-25.6,25.6-25.6h8.533H203.8h102.4h68.267H383C397.507,383,408.6,394.093,408.6,408.6z M365.933,365.933h-51.2
				v-68.267h51.2V365.933z"/>
			<path d="M169.667,109.933c5.12,0,8.533-3.413,8.533-8.533c0-4.267-3.413-8.533-8.533-8.533s-8.533,3.413-8.533,8.533
				S164.547,109.933,169.667,109.933z"/>
			<path d="M169.667,263.533c5.12,0,8.533-3.413,8.533-8.533c0-4.267-3.413-8.533-8.533-8.533s-8.533,3.413-8.533,8.533
				S164.547,263.533,169.667,263.533z"/>
			<path d="M169.667,400.067c-5.12,0-8.533,3.413-8.533,8.533s3.413,8.533,8.533,8.533s8.533-3.413,8.533-8.533
				C178.2,404.333,174.787,400.067,169.667,400.067z"/>
			<path d="M340.333,400.067c-5.12,0-8.533,3.413-8.533,8.533s3.413,8.533,8.533,8.533c5.12,0,8.533-3.413,8.533-8.533
				C348.867,404.333,345.453,400.067,340.333,400.067z"/>
			<path d="M340.333,263.533c5.12,0,8.533-3.413,8.533-8.533c0-4.267-3.413-8.533-8.533-8.533c-5.12,0-8.533,3.413-8.533,8.533
				S335.213,263.533,340.333,263.533z"/>
			<path d="M340.333,109.933c5.12,0,8.533-3.413,8.533-8.533c0-4.267-3.413-8.533-8.533-8.533c-5.12,0-8.533,3.413-8.533,8.533
				S335.213,109.933,340.333,109.933z"/>
		</g>
	</g>
</g>
<g>
</g>
<g>
</g>
<g>
</g>
<g>
</g>
<g>
</g>
<g>
</g>
<g>
</g>
<g>
</g>
<g>
</g>
<g>
</g>
<g>
</g>
<g>
</g>
<g>
</g>
<g>
</g>
<g>
</g>
</svg>
