<?xml version="1.0" encoding="iso-8859-1"?>
<!-- Generator: Adobe Illustrator 19.0.0, SVG Export Plug-In . SVG Version: 6.00 Build 0)  -->
<svg version="1.1" id="Layer_1" xmlns="http://www.w3.org/2000/svg" xmlns:xlink="http://www.w3.org/1999/xlink" x="0px" y="0px"
	 viewBox="0 0 512 512" style="enable-background:new 0 0 512 512;" xml:space="preserve">
<g transform="translate(1 1)">
	<g>
		<g>
			<path d="M358.253,388.12l-175.787-30.986v-59.467H267.8V331.8c0,3.413,1.707,5.973,4.267,7.68l17.067,8.533
				c3.413,1.707,7.68,0.853,10.24-1.707l11.093-11.093l11.093,11.093c1.707,1.707,3.413,2.56,5.973,2.56c1.707,0,2.56,0,3.413-0.853
				l17.067-8.533c3.413-1.707,5.12-4.267,5.12-7.68v-34.133c23.893,0,42.667-18.773,42.667-42.667
				c0-23.893-18.773-42.667-42.667-42.667v-68.267c23.893,0,42.667-18.773,42.667-42.667c0-23.893-18.773-42.667-42.667-42.667
				V41.667C353.133,17.773,334.36-1,310.467-1S267.8,17.773,267.8,41.667v17.067h-85.333V41.667C182.467,17.773,163.693-1,139.8-1
				c-23.893,0-42.667,18.773-42.667,42.667v17.067c-23.893,0-42.667,18.773-42.667,42.667c0,23.893,18.773,42.667,42.667,42.667
				v68.267c-23.893,0-42.667,18.773-42.667,42.667c0,23.893,18.773,42.667,42.667,42.667v45.718
				c-19.401,1.319-36.425,15.469-40.107,35.348c-3.413,23.04,11.947,45.227,34.987,49.493l5.12,0.903v39.204
				c0,23.893,18.773,42.667,42.667,42.667c23.893,0,42.667-18.773,42.667-42.667v-24.162l85.333,15.042v9.121
				c0,23.893,18.773,42.667,42.667,42.667c22.166,0,39.914-16.161,42.366-37.573c8.06-0.268,16.036-2.862,22.487-8.507
				c9.387-5.973,16.213-16.213,17.92-27.307C396.653,414.573,381.293,392.387,358.253,388.12z M336.067,326.68l-6.827,3.413
				l-12.8-12.8c-1.707-1.707-3.413-2.56-5.973-2.56c-1.707,0-4.267,0.853-5.973,2.56l-12.8,12.8l-6.827-3.413v-29.013h51.2V326.68z
				 M336.067,212.333h-51.2v-68.267h51.2V212.333z M182.467,212.333v-68.267H267.8v68.267H182.467z M284.867,41.667
				c0-14.507,11.093-25.6,25.6-25.6s25.6,11.093,25.6,25.6v17.067h-51.2V41.667z M114.2,41.667c0-14.507,11.093-25.6,25.6-25.6
				s25.6,11.093,25.6,25.6v17.067h-51.2V41.667z M71.533,101.4c0-14.507,11.093-25.6,25.6-25.6h8.533h68.267h102.4H344.6h8.533
				c14.507,0,25.6,11.093,25.6,25.6c0,14.507-11.093,25.6-25.6,25.6H344.6h-68.267h-102.4h-68.267h-8.533
				C82.627,127,71.533,115.907,71.533,101.4z M114.2,144.067h51.2v68.267h-51.2V144.067z M71.533,255
				c0-14.507,11.093-25.6,25.6-25.6h8.533h68.267h102.4H344.6h8.533c14.507,0,25.6,11.093,25.6,25.6c0,14.507-11.093,25.6-25.6,25.6
				H344.6h-68.267h-102.4h-68.267h-8.533C82.627,280.6,71.533,269.507,71.533,255z M165.4,297.667v56.459l-51.2-9.025v-47.434H165.4
				z M165.4,468.333c0,14.507-11.093,25.6-25.6,25.6s-25.6-11.093-25.6-25.6v-35.84l37.042,6.174l14.158,2.496V468.333z
				 M310.467,493.933c-14.507,0-25.6-11.093-25.6-25.6v-5.973l51.2,9.387C334.36,483.693,323.267,493.933,310.467,493.933z
				 M374.467,435.907c-0.853,6.827-4.267,11.947-10.24,16.213c-4.17,3.475-9.471,4.685-14.983,4.554
				c-0.857-0.529-1.84-0.921-2.938-1.141l-68.267-11.947c-1.54-0.513-3.077-0.4-4.431,0.136l-94.696-16.692
				c-0.933-0.642-2.028-1.115-3.272-1.364l-68.267-11.947c-1.386-0.462-2.767-0.411-4.017-0.008l-9.636-1.699
				c-13.653-2.56-23.04-16.213-20.48-29.867c2.56-12.8,13.653-21.333,25.6-21.333c1.009,0,2.017,0,3.026,0
				c0.678,0.383,1.385,0.676,2.094,0.853l68.267,11.947c0.631,0,0.797,0,1.185,0l180.575,33.28
				c6.827,0.853,11.947,4.267,16.213,10.24C374.467,422.253,375.32,429.08,374.467,435.907z"/>
			<path d="M139.8,109.933c5.12,0,8.533-3.413,8.533-8.533c0-4.267-3.413-8.533-8.533-8.533s-8.533,3.413-8.533,8.533
				S134.68,109.933,139.8,109.933z"/>
			<path d="M139.8,263.533c5.12,0,8.533-3.413,8.533-8.533c0-4.267-3.413-8.533-8.533-8.533s-8.533,3.413-8.533,8.533
				S134.68,263.533,139.8,263.533z"/>
			<path d="M143.213,385.56c-5.12-0.853-9.387,2.56-10.24,6.827c-0.853,5.12,2.56,9.387,6.827,10.24c4.267,0,9.387-2.56,10.24-7.68
				C150.04,390.68,147.48,386.413,143.213,385.56z"/>
			<path d="M310.467,414.573c-5.12-0.853-9.387,2.56-10.24,6.827c-0.853,5.12,2.56,9.387,6.827,10.24
				c5.12,0.853,9.387-2.56,10.24-6.827S315.587,416.28,310.467,414.573z"/>
			<path d="M310.467,263.533c5.12,0,8.533-3.413,8.533-8.533c0-4.267-3.413-8.533-8.533-8.533s-8.533,3.413-8.533,8.533
				S305.347,263.533,310.467,263.533z"/>
			<path d="M310.467,109.933c5.12,0,8.533-3.413,8.533-8.533c0-4.267-3.413-8.533-8.533-8.533s-8.533,3.413-8.533,8.533
				S305.347,109.933,310.467,109.933z"/>
			<path d="M398.36,329.24c1.707,1.707,3.413,2.56,5.973,2.56c2.56,0,4.267-0.853,5.973-2.56l17.067-17.067
				c3.413-3.413,3.413-8.533,0-11.947s-8.533-3.413-11.947,0l-17.067,17.067C394.947,320.707,394.947,325.827,398.36,329.24z"/>
			<path d="M447,348.867h-25.6c-5.12,0-8.533,3.413-8.533,8.533s3.413,8.533,8.533,8.533H447c5.12,0,8.533-3.413,8.533-8.533
				S452.12,348.867,447,348.867z"/>
			<path d="M410.307,385.56c-3.413-3.413-8.533-3.413-11.947,0c-3.413,3.413-3.413,8.533,0,11.947l17.067,17.067
				c1.707,1.707,3.413,2.56,5.973,2.56s4.267-0.853,5.973-2.56c3.413-3.413,3.413-8.533,0-11.947L410.307,385.56z"/>
		</g>
	</g>
</g>
<g>
</g>
<g>
</g>
<g>
</g>
<g>
</g>
<g>
</g>
<g>
</g>
<g>
</g>
<g>
</g>
<g>
</g>
<g>
</g>
<g>
</g>
<g>
</g>
<g>
</g>
<g>
</g>
<g>
</g>
</svg>
