<?xml version="1.0" encoding="iso-8859-1"?>
<!-- Generator: Adobe Illustrator 19.0.0, SVG Export Plug-In . SVG Version: 6.00 Build 0)  -->
<svg version="1.1" id="Layer_1" xmlns="http://www.w3.org/2000/svg" xmlns:xlink="http://www.w3.org/1999/xlink" x="0px" y="0px"
	 viewBox="0 0 503.607 503.607" style="enable-background:new 0 0 503.607 503.607;" xml:space="preserve">
<g transform="translate(1 1)">
	<g>
		<g>
			<path d="M124.902,200.443c-27.698,0-50.361,22.662-50.361,50.361s22.662,50.361,50.361,50.361
				c27.698,0,50.361-22.662,50.361-50.361S152.6,200.443,124.902,200.443z M124.902,217.229c15.57,0,28.752,10.742,32.504,25.18
				H92.398C96.149,227.971,109.332,217.229,124.902,217.229z M124.902,284.377c-15.57,0-28.752-10.742-32.504-25.18h65.008
				C153.654,273.635,140.472,284.377,124.902,284.377z"/>
			<path d="M376.705,301.164c27.698,0,50.361-22.662,50.361-50.361s-22.662-50.361-50.361-50.361s-50.361,22.662-50.361,50.361
				S349.007,301.164,376.705,301.164z M376.705,284.377c-15.57,0-28.752-10.742-32.504-25.18h65.008
				C405.457,273.635,392.275,284.377,376.705,284.377z M376.705,217.229c15.57,0,28.752,10.742,32.504,25.18h-65.008
				C347.953,227.971,361.135,217.229,376.705,217.229z"/>
			<path d="M477.426,166.869h-25.18H301.164H200.443H49.361H24.18C9.911,166.869-1,177.78-1,192.049v117.508
				c0,14.269,10.911,25.18,25.18,25.18h25.18h402.885h25.18c14.269,0,25.18-10.911,25.18-25.18V192.049
				C502.607,177.78,491.695,166.869,477.426,166.869z M217.229,225.623h67.148c14.269,0,25.18-10.911,25.18-25.18v-16.787h134.295
				v134.295H57.754V183.656h134.295v16.787C192.049,214.711,202.961,225.623,217.229,225.623z M292.771,183.656v16.787
				c0,5.036-3.357,8.393-8.393,8.393h-67.148c-5.036,0-8.393-3.357-8.393-8.393v-16.787H292.771z M24.18,317.951
				c-5.036,0-8.393-3.357-8.393-8.393V192.049c0-4.197,4.197-8.393,8.393-8.393h16.787v134.295H24.18z M485.82,309.557
				c0,5.036-3.357,8.393-8.393,8.393h-16.787V183.656h16.787c5.036,0,8.393,3.357,8.393,8.393V309.557z"/>
		</g>
	</g>
</g>
<g>
</g>
<g>
</g>
<g>
</g>
<g>
</g>
<g>
</g>
<g>
</g>
<g>
</g>
<g>
</g>
<g>
</g>
<g>
</g>
<g>
</g>
<g>
</g>
<g>
</g>
<g>
</g>
<g>
</g>
</svg>
