<?xml version="1.0" encoding="iso-8859-1"?>
<!-- Generator: Adobe Illustrator 19.0.0, SVG Export Plug-In . SVG Version: 6.00 Build 0)  -->
<svg version="1.1" id="Layer_1" xmlns="http://www.w3.org/2000/svg" xmlns:xlink="http://www.w3.org/1999/xlink" x="0px" y="0px"
	 viewBox="0 0 512 512" style="enable-background:new 0 0 512 512;" xml:space="preserve">
<g transform="translate(1 1)">
	<g>
		<path d="M331.8,75.8C331.8,33.133,297.667-1,255-1c-42.667,0-76.8,34.133-76.8,76.8v148.48c0,16.146,3.716,38.123,11.56,56.32
			h-3.026c-5.12,0-8.533,3.413-8.533,8.533v79.36c0,34.133,12.8,64.853,36.693,88.747c1.707,1.707,3.413,2.56,5.973,2.56v17.067
			C220.867,495.64,236.227,511,255,511c18.773,0,34.133-15.36,34.133-34.133V459.8c2.56,0,4.267-0.853,5.973-2.56
			C319,433.347,331.8,401.773,331.8,368.493v-79.36c0-5.12-3.413-8.533-8.533-8.533h-3.026c7.843-18.197,11.56-40.174,11.56-56.32
			V75.8z M272.067,476.867c0,9.387-7.68,17.067-17.067,17.067s-17.067-7.68-17.067-17.067V459.8h34.133V476.867z M314.733,368.493
			c0,28.16-10.24,53.76-29.013,74.24h-5.12h-51.2h-5.12c-18.773-20.48-29.013-46.08-29.013-74.24v-70.827h8.533h102.4h8.533V368.493
			z M263.533,280.6v-17.067h25.6c5.12,0,8.533-3.413,8.533-8.533s-3.413-8.533-8.533-8.533h-25.6V229.4H280.6
			c14.507,0,25.6-11.093,25.6-25.6c0-14.507-11.093-25.6-25.6-25.6h-17.067v-17.067H280.6c14.507,0,25.6-11.093,25.6-25.6
			c0-14.507-11.093-25.6-25.6-25.6h-17.067V92.867H280.6c14.507,0,25.6-11.093,25.6-25.6s-11.093-25.6-25.6-25.6h-59.733
			c-5.12,0-8.533,3.413-8.533,8.533s4.267,8.533,8.533,8.533h25.6V75.8H229.4c-14.507,0-25.6,11.093-25.6,25.6
			c0,14.507,11.093,25.6,25.6,25.6h17.067v17.067H229.4c-14.507,0-25.6,11.093-25.6,25.6c0,14.507,11.093,25.6,25.6,25.6h17.067
			v17.067H229.4c-14.507,0-25.6,11.093-25.6,25.6s11.093,25.6,25.6,25.6h17.067V280.6H208.92
			c-8.533-15.36-13.653-39.253-13.653-56.32V75.8c0-33.28,27.307-59.733,60.587-59.733c33.28,0,59.733,26.453,59.733,59.733v148.48
			c0,17.067-5.12,40.96-13.653,56.32H263.533z M246.467,246.467H229.4c-5.12,0-8.533-3.413-8.533-8.533s3.413-8.533,8.533-8.533
			h17.067V246.467z M263.533,212.333v-17.067H280.6c5.12,0,8.533,3.413,8.533,8.533c0,5.12-3.413,8.533-8.533,8.533H263.533z
			 M246.467,178.2H229.4c-5.12,0-8.533-3.413-8.533-8.533s3.413-8.533,8.533-8.533h17.067V178.2z M263.533,144.067V127H280.6
			c5.12,0,8.533,3.413,8.533,8.533s-3.413,8.533-8.533,8.533H263.533z M246.467,109.933H229.4c-5.12,0-8.533-3.413-8.533-8.533
			s3.413-8.533,8.533-8.533h17.067V109.933z M280.6,58.733c5.12,0,8.533,3.413,8.533,8.533S285.72,75.8,280.6,75.8h-17.067V58.733
			H280.6z"/>
	</g>
</g>
<g>
</g>
<g>
</g>
<g>
</g>
<g>
</g>
<g>
</g>
<g>
</g>
<g>
</g>
<g>
</g>
<g>
</g>
<g>
</g>
<g>
</g>
<g>
</g>
<g>
</g>
<g>
</g>
<g>
</g>
</svg>
