<?xml version="1.0" encoding="iso-8859-1"?>
<!-- Generator: Adobe Illustrator 19.0.0, SVG Export Plug-In . SVG Version: 6.00 Build 0)  -->
<svg version="1.1" id="Layer_1" xmlns="http://www.w3.org/2000/svg" xmlns:xlink="http://www.w3.org/1999/xlink" x="0px" y="0px"
	 viewBox="0 0 512 512" style="enable-background:new 0 0 512 512;" xml:space="preserve">
<g transform="translate(1 1)">
	<g>
		<path d="M331.8,306.2V75.8C331.8,33.133,297.667-1,255-1s-76.8,34.133-76.8,76.8v230.4c-5.12,0-8.533,3.413-8.533,8.533v50.347
			c0,20.673,14.697,38.141,34.133,42.477v47.123c0,11.093,2.56,21.333,8.533,30.72l1.707,2.56c5.973,9.387,15.36,17.067,25.6,20.48
			c5.12,1.707,10.24,2.56,15.36,2.56c16.213,0,31.573-7.68,40.107-22.187l2.56-4.267c1.909-3.5,3.58-7.119,4.926-10.856
			c1.161-1.414,1.901-3.236,1.901-5.357c0-0.26-0.015-0.512-0.032-0.763c1.112-4.426,1.739-9.006,1.739-13.743V407.69
			c19.151-4.117,34.133-21.734,34.133-42.61v-50.347C340.333,309.613,336.92,306.2,331.8,306.2z M195.267,75.8
			c0-33.28,27.307-59.733,59.733-59.733c33.28,0,59.733,26.453,59.733,59.733v230.4h-17.067V75.8
			c0-23.893-18.773-42.667-42.667-42.667c-23.893,0-42.667,18.773-42.667,42.667v230.4h-17.067V75.8z M255,84.333
			c-5.12,0-8.533,3.413-8.533,8.533V306.2H229.4V75.8c0-14.507,11.093-25.6,25.6-25.6c14.507,0,25.6,11.093,25.6,25.6v230.4h-17.067
			V92.867C263.533,87.747,260.12,84.333,255,84.333z M245.613,492.227c-5.973-2.56-11.947-6.827-16.213-13.653l-1.28-1.707h18.347
			c5.12,0,8.533-3.413,8.533-8.533s-3.413-8.533-8.533-8.533h-25.105c-0.318-1.971-0.495-3.972-0.495-5.973v-11.093h8.533
			c5.12,0,8.533-3.413,8.533-8.533s-3.413-8.533-8.533-8.533h-8.533V408.6h68.267v17.067h-25.6c-5.12,0-8.533,3.413-8.533,8.533
			s3.413,8.533,8.533,8.533h25.6v11.093c0,2.047-0.126,4.032-0.384,5.973H280.6c-5.12,0-8.533,3.413-8.533,8.533
			s3.413,8.533,8.533,8.533h1.536l-1.536,2.56C273.773,491.373,259.267,496.493,245.613,492.227z M324.12,365.08
			c0,14.507-11.947,26.453-26.453,26.453h-84.48c-14.507,0-26.453-11.947-26.453-26.453v-41.813h34.133h68.267h34.133h0.853V365.08z
			"/>
	</g>
</g>
<g>
</g>
<g>
</g>
<g>
</g>
<g>
</g>
<g>
</g>
<g>
</g>
<g>
</g>
<g>
</g>
<g>
</g>
<g>
</g>
<g>
</g>
<g>
</g>
<g>
</g>
<g>
</g>
<g>
</g>
</svg>
