<?xml version="1.0" encoding="iso-8859-1"?>
<!-- Generator: Adobe Illustrator 19.0.0, SVG Export Plug-In . SVG Version: 6.00 Build 0)  -->
<svg version="1.1" id="Layer_1" xmlns="http://www.w3.org/2000/svg" xmlns:xlink="http://www.w3.org/1999/xlink" x="0px" y="0px"
	 viewBox="0 0 503.607 503.607" style="enable-background:new 0 0 503.607 503.607;" xml:space="preserve">
<g transform="translate(1 1)">
	<g>
		<path d="M460.639,401.885h-25.18v-28.538c0-11.751-10.072-21.823-21.823-21.823h-6.715c-11.751,0-21.823,10.072-21.823,21.823
			v28.538h-67.148V344.81c5.036-26.02,22.662-48.682,36.931-62.951c34.413-36.092,51.2-85.613,46.164-136.813
			C393.492,69.505,336.416,8.233,265.072-0.161c-4.197,0-8.393-0.839-14.269-0.839c-5.036,0-9.233,0.839-14.269,0.839
			c-71.344,8.393-128.42,69.666-135.974,145.207c-5.875,51.2,11.751,101.561,46.164,136.813
			c14.269,14.269,31.895,36.092,36.931,62.951v57.075h-67.148v-28.538c0-11.751-10.072-21.823-21.823-21.823h-6.715
			c-11.751,0-21.823,10.072-21.823,21.823v28.538h-25.18C17.466,401.885-1,420.351-1,443.852v50.361
			c0,5.036,3.357,8.393,8.393,8.393h486.82c5.036,0,8.393-3.357,8.393-8.393v-50.361
			C502.607,420.351,484.141,401.885,460.639,401.885z M401.885,373.348c0-2.518,2.518-5.036,5.036-5.036h6.715
			c2.518,0,5.036,2.518,5.036,5.036v28.538h-16.787V373.348z M159.315,270.108c-31.895-31.895-47.003-77.22-41.967-123.384
			c6.715-67.987,57.915-122.544,121.705-130.098c3.357-0.839,7.554-0.839,11.751-0.839s8.393,0,11.751,0.839
			c63.79,7.554,114.99,62.112,121.705,129.259c4.197,46.164-10.911,91.489-41.967,123.384
			c-14.269,15.108-31.895,37.771-39.449,65.469h-18.466V217.229h16.787c18.466,0,33.574-15.108,33.574-33.574
			s-15.108-33.574-33.574-33.574s-33.574,15.108-33.574,33.574v16.787h-33.574v-16.787c0-18.466-15.108-33.574-33.574-33.574
			s-33.574,15.108-33.574,33.574s15.108,33.574,33.574,33.574h16.787v117.508h-18.466
			C192.049,307.039,173.584,284.377,159.315,270.108z M217.229,200.443h-16.787c-9.233,0-16.787-7.554-16.787-16.787
			s7.554-16.787,16.787-16.787s16.787,7.554,16.787,16.787V200.443z M267.59,334.738h-33.574V217.229h33.574V334.738z
			 M284.377,200.443v-16.787c0-9.233,7.554-16.787,16.787-16.787s16.787,7.554,16.787,16.787s-7.554,16.787-16.787,16.787H284.377z
			 M200.443,385.098h41.967c5.036,0,8.393-3.357,8.393-8.393c0-5.036-3.357-8.393-8.393-8.393h-41.967v-16.787h25.18h50.361h25.18
			v16.787h-16.787c-5.036,0-8.393,3.357-8.393,8.393c0,5.036,3.357,8.393,8.393,8.393h16.787v16.787H200.443V385.098z
			 M82.934,373.348c0-2.518,2.518-5.036,5.036-5.036h6.715c2.518,0,5.036,2.518,5.036,5.036v28.538H82.934V373.348z M15.787,485.82
			v-16.787h75.541c5.036,0,8.393-3.357,8.393-8.393s-3.357-8.393-8.393-8.393H15.787v-8.393c0-14.269,10.911-25.18,25.18-25.18
			h33.574h33.574h83.934h117.508h83.934h33.574h33.574c14.269,0,25.18,10.911,25.18,25.18v8.393h-75.541
			c-5.036,0-8.393,3.357-8.393,8.393s3.357,8.393,8.393,8.393h75.541v16.787H15.787z"/>
	</g>
</g>
<g>
</g>
<g>
</g>
<g>
</g>
<g>
</g>
<g>
</g>
<g>
</g>
<g>
</g>
<g>
</g>
<g>
</g>
<g>
</g>
<g>
</g>
<g>
</g>
<g>
</g>
<g>
</g>
<g>
</g>
</svg>
