<?xml version="1.0" encoding="iso-8859-1"?>
<!-- Generator: Adobe Illustrator 19.0.0, SVG Export Plug-In . SVG Version: 6.00 Build 0)  -->
<svg version="1.1" id="Layer_1" xmlns="http://www.w3.org/2000/svg" xmlns:xlink="http://www.w3.org/1999/xlink" x="0px" y="0px"
	 viewBox="0 0 512 512" style="enable-background:new 0 0 512 512;" xml:space="preserve">
<g transform="translate(1 1)">
	<g>
		<path d="M350.573,70.68C337.773,28.867,299.373-1,255-1c-43.52,0-82.773,29.867-95.573,71.68
			c-21.333,77.653-21.333,157.867,0,232.107l18.773,65.707v99.84c0,5.12,3.413,8.533,8.533,8.533h12.8l15.36,20.48
			C221.72,505.88,231.107,511,242.2,511h25.6c11.093,0,21.333-5.12,27.307-13.653l15.36-20.48h12.8c5.12,0,8.533-3.413,8.533-8.533
			v-99.84l18.773-65.707C371.907,225.133,371.907,144.92,350.573,70.68z M314.733,374.467v17.067h-25.6
			c-5.12,0-8.533,3.413-8.533,8.533c0,5.12,3.413,8.533,8.533,8.533h25.6v17.067h-51.2c-5.12,0-8.533,3.413-8.533,8.533
			s3.413,8.533,8.533,8.533h51.2V459.8H306.2H203.8h-8.533v-17.067h25.6c5.12,0,8.533-3.413,8.533-8.533s-3.413-8.533-8.533-8.533
			h-25.6V408.6h51.2c5.12,0,8.533-3.413,8.533-8.533c0-5.12-3.413-8.533-8.533-8.533h-51.2v-17.067H314.733z M281.453,487.107
			c-3.413,4.267-8.533,6.827-13.653,6.827h-25.6c-5.12,0-10.24-2.56-13.653-6.827l-7.68-10.24h68.267L281.453,487.107z
			 M334.36,297.667L317.293,357.4h-19.627V186.733c0-5.12-3.413-8.533-8.533-8.533c-5.12,0-8.533,3.413-8.533,8.533V357.4h-51.2
			V186.733c0-5.12-3.413-8.533-8.533-8.533s-8.533,3.413-8.533,8.533V357.4H193.56l-17.067-58.88
			c-20.48-71.68-20.48-148.48,0-222.72c10.24-34.987,42.667-59.733,79.36-60.587c35.84,0,68.267,24.747,78.507,59.733
			C354.84,146.627,354.84,223.427,334.36,297.667z"/>
	</g>
</g>
<g>
</g>
<g>
</g>
<g>
</g>
<g>
</g>
<g>
</g>
<g>
</g>
<g>
</g>
<g>
</g>
<g>
</g>
<g>
</g>
<g>
</g>
<g>
</g>
<g>
</g>
<g>
</g>
<g>
</g>
</svg>
