<?xml version="1.0" encoding="iso-8859-1"?>
<!-- Generator: Adobe Illustrator 19.0.0, SVG Export Plug-In . SVG Version: 6.00 Build 0)  -->
<svg version="1.1" id="Layer_1" xmlns="http://www.w3.org/2000/svg" xmlns:xlink="http://www.w3.org/1999/xlink" x="0px" y="0px"
	 viewBox="0 0 512 512" style="enable-background:new 0 0 512 512;" xml:space="preserve">
<g transform="translate(1 1)">
	<g>
		<path d="M348.867,323.267h-8.533v-256c0-18.773-15.36-34.133-34.133-34.133c-6.208,0-12.037,1.688-17.067,4.615v-4.615
			C289.133,14.36,273.773-1,255-1s-34.133,15.36-34.133,34.133v4.615c-5.029-2.927-10.859-4.615-17.067-4.615
			c-18.773,0-34.133,15.36-34.133,34.133v256h-8.533c-5.12,0-8.533,3.413-8.533,8.533v107.52c0,10.24,4.267,19.627,11.093,26.453
			c6.827,6.827,16.213,11.093,26.453,11.093h9.387l15.36,20.48C221.72,505.88,231.107,511,242.2,511h25.6
			c11.093,0,21.333-5.12,27.307-13.653l15.36-20.48h9.387c10.24,0,19.627-4.267,26.453-11.093
			c6.827-6.827,11.093-16.213,11.093-26.453V331.8C357.4,326.68,353.987,323.267,348.867,323.267z M306.2,50.2
			c9.387,0,17.067,7.68,17.067,17.067v256h-34.133v-256C289.133,57.88,296.813,50.2,306.2,50.2z M237.933,33.133
			c0-9.387,7.68-17.067,17.067-17.067c9.387,0,17.067,7.68,17.067,17.067v34.133v256h-34.133v-256V33.133z M186.733,67.267
			c0-9.387,7.68-17.067,17.067-17.067s17.067,7.68,17.067,17.067v256h-34.133V67.267z M281.453,487.107
			c-3.413,4.267-8.533,6.827-13.653,6.827h-25.6c-5.12,0-10.24-2.56-13.653-6.827l-7.68-10.24h68.267L281.453,487.107z
			 M319.853,459.8H306.2H203.8h-13.653c-5.12,0-10.24-1.707-14.507-5.973c-2.653-3.316-4.784-7.147-5.604-11.093h67.898
			c5.12,0,8.533-3.413,8.533-8.533s-3.413-8.533-8.533-8.533h-68.267V408.6H203.8c5.12,0,8.533-3.413,8.533-8.533
			c0-5.12-3.413-8.533-8.533-8.533h-34.133v-17.067h51.2c5.12,0,8.533-3.413,8.533-8.533s-3.413-8.533-8.533-8.533h-51.2v-17.067
			h8.533h51.2h51.2h51.2h8.533V357.4H306.2c-5.12,0-8.533,3.413-8.533,8.533s3.413,8.533,8.533,8.533h34.133v17.067H280.6
			c-5.12,0-8.533,3.413-8.533,8.533c0,5.12,3.413,8.533,8.533,8.533h59.733v17.067h-25.6c-5.12,0-8.533,3.413-8.533,8.533
			s3.413,8.533,8.533,8.533h25.331c-0.624,3.946-2.388,7.778-5.704,11.093C330.947,457.24,324.973,459.8,319.853,459.8z"/>
	</g>
</g>
<g>
</g>
<g>
</g>
<g>
</g>
<g>
</g>
<g>
</g>
<g>
</g>
<g>
</g>
<g>
</g>
<g>
</g>
<g>
</g>
<g>
</g>
<g>
</g>
<g>
</g>
<g>
</g>
<g>
</g>
</svg>
