<?xml version="1.0" encoding="iso-8859-1"?>
<!-- Generator: Adobe Illustrator 19.0.0, SVG Export Plug-In . SVG Version: 6.00 Build 0)  -->
<svg version="1.1" id="Layer_1" xmlns="http://www.w3.org/2000/svg" xmlns:xlink="http://www.w3.org/1999/xlink" x="0px" y="0px"
	 viewBox="0 0 512 512" style="enable-background:new 0 0 512 512;" xml:space="preserve">
<g transform="translate(1 1)">
	<g>
		<g>
			<path d="M229.4,340.333v-204.8c0-42.667-34.133-76.8-76.8-76.8s-76.8,34.133-76.8,76.8v204.8c-2.56,0-4.267,0.853-5.973,2.56
				c-1.707,1.707-2.56,3.413-2.56,5.973v33.28c0,20.915,15.038,38.56,34.813,42.634l-0.568,24.996
				c-0.068,0.48-0.111,0.974-0.111,1.49c0,0.359,0.021,0.707,0.054,1.048l-0.054,2.365c0,11.093,2.56,21.333,8.533,30.72l1.707,2.56
				c5.973,9.387,15.36,17.067,25.6,20.48c5.12,1.707,10.24,2.56,15.36,2.56c16.213,0,31.573-7.68,40.107-21.333l2.56-4.267
				c5.12-9.387,8.533-19.627,8.533-30.72l0.682-30.016c19.522-4.271,34.305-21.783,34.305-42.517l-0.853-33.28
				C237.933,343.747,233.667,340.333,229.4,340.333z M92.867,135.533c0-33.28,26.453-59.733,59.733-59.733
				c33.28,0,59.733,26.453,59.733,59.733v204.8h-17.067v-204.8c0-23.893-18.773-42.667-42.667-42.667
				c-23.893,0-42.667,18.773-42.667,42.667v204.8H92.867V135.533z M152.6,144.067c-5.12,0-8.533,3.413-8.533,8.533v187.733H127
				v-204.8c0-14.507,11.093-25.6,25.6-25.6s25.6,11.093,25.6,25.6v204.8h-17.067V152.6C161.133,147.48,157.72,144.067,152.6,144.067
				z M178.2,479.427c-6.827,11.947-21.333,17.067-34.987,12.8c-5.973-2.56-11.947-6.827-16.213-13.653l-1.707-2.56
				c-2.652-4.641-4.782-10.313-5.604-16.213H127c5.12,0,8.533-3.413,8.533-8.533c0-5.12-3.413-8.533-8.533-8.533h-7.68v-17.067
				h67.413v17.067h-25.6c-5.12,0-8.533,3.413-8.533,8.533c0,5.12,3.413,8.533,8.533,8.533h25.216
				c-0.712,5.344-2.46,10.353-5.589,15.36L178.2,479.427z M221.72,382.147c0,14.507-11.947,26.453-26.453,26.453h-84.48
				c-14.507,0-26.453-11.947-26.453-26.453V357.4h34.133h68.267h34.133h0.853V382.147z"/>
			<path d="M434.2,306.2V75.8c0-42.667-34.133-76.8-76.8-76.8c-42.667,0-76.8,34.133-76.8,76.8v230.4
				c-5.12,0-8.533,3.413-8.533,8.533v50.347c0,20.673,14.697,38.141,34.133,42.477v46.27c0,5.105,0.55,10.028,1.718,14.772
				c0.044,1.855,0.539,3.478,1.409,4.782c1.334,3.847,3.118,7.57,5.407,11.166l1.707,3.413c5.973,9.387,15.36,17.067,25.6,20.48
				c5.12,1.707,10.24,2.56,15.36,2.56c16.213,0,31.573-7.68,40.107-22.187l2.56-4.267c1.909-3.5,3.58-7.119,4.926-10.856
				c1.161-1.414,1.901-3.236,1.901-5.357c0-0.26-0.015-0.512-0.032-0.763c1.112-4.426,1.739-9.006,1.739-13.743V407.69
				c19.151-4.117,34.133-21.734,34.133-42.61v-50.347C442.733,309.613,439.32,306.2,434.2,306.2z M297.667,75.8
				c0-33.28,26.453-59.733,59.733-59.733c33.28,0,59.733,26.453,59.733,59.733v230.4h-17.067V75.8
				c0-23.893-18.773-42.667-42.667-42.667c-23.893,0-42.667,18.773-42.667,42.667v230.4h-17.067V75.8z M357.4,84.333
				c-5.12,0-8.533,3.413-8.533,8.533V306.2H331.8V75.8c0-14.507,11.093-25.6,25.6-25.6c14.507,0,25.6,11.093,25.6,25.6v230.4
				h-17.067V92.867C365.933,87.747,362.52,84.333,357.4,84.333z M347.16,491.373c-5.973-2.56-11.947-6.827-16.213-13.653
				l-0.569-0.853h18.489c5.12,0,8.533-3.413,8.533-8.533s-3.413-8.533-8.533-8.533h-25.105c-0.318-1.971-0.495-3.972-0.495-5.973
				v-11.093h8.533c5.12,0,8.533-3.413,8.533-8.533s-3.413-8.533-8.533-8.533h-8.533V408.6h67.413v17.067h-24.747
				c-5.12,0-8.533,3.413-8.533,8.533s3.413,8.533,8.533,8.533h24.747v10.24c0,2.347-0.162,4.614-0.505,6.827H383
				c-5.12,0-8.533,3.413-8.533,8.533s3.413,8.533,8.533,8.533h0.171l-1.024,1.707C375.32,490.52,360.813,495.64,347.16,491.373z
				 M426.52,365.08c0,14.507-11.947,26.453-26.453,26.453h-84.48c-14.507,0-26.453-11.947-26.453-26.453v-41.813h34.133h68.267
				h34.133h0.853V365.08z"/>
		</g>
	</g>
</g>
<g>
</g>
<g>
</g>
<g>
</g>
<g>
</g>
<g>
</g>
<g>
</g>
<g>
</g>
<g>
</g>
<g>
</g>
<g>
</g>
<g>
</g>
<g>
</g>
<g>
</g>
<g>
</g>
<g>
</g>
</svg>
