<?xml version="1.0" encoding="iso-8859-1"?>
<!-- Generator: Adobe Illustrator 19.0.0, SVG Export Plug-In . SVG Version: 6.00 Build 0)  -->
<svg version="1.1" id="Layer_1" xmlns="http://www.w3.org/2000/svg" xmlns:xlink="http://www.w3.org/1999/xlink" x="0px" y="0px"
	 viewBox="0 0 512 512" style="enable-background:new 0 0 512 512;" xml:space="preserve">
<g transform="translate(1 1)">
	<g>
		<g>
			<path d="M255,58.733c-61.44,0-110.933,49.493-110.933,110.933S193.56,280.6,255,280.6s110.933-49.493,110.933-110.933
				S316.44,58.733,255,58.733z M255,263.533c-52.053,0-93.867-41.813-93.867-93.867S203.8,75.8,255,75.8
				c52.053,0,93.867,41.813,93.867,93.867S307.053,263.533,255,263.533z"/>
			<path d="M424.813,154.307C416.28,73.24,351.427,8.387,271.213-0.147C266.093-0.147,260.973-1,255-1
				c-5.973,0-11.093,0.853-16.213,0.853C158.573,9.24,93.72,74.093,85.187,154.307c-5.973,54.613,13.653,108.373,52.907,145.92
				c21.333,20.48,34.987,44.373,40.107,67.413v100.693c0,5.12,3.413,8.533,8.533,8.533h12.8l15.36,20.48
				C221.72,505.88,231.107,511,242.2,511h25.6c11.093,0,21.333-5.12,27.307-13.653l15.36-20.48h12.8c5.12,0,8.533-3.413,8.533-8.533
				V367.64c4.267-23.04,18.773-46.933,40.107-67.413C411.16,261.827,430.787,208.92,424.813,154.307z M314.733,391.533h-25.6
				c-5.12,0-8.533,3.413-8.533,8.533c0,5.12,3.413,8.533,8.533,8.533h25.6v17.067h-51.2c-5.12,0-8.533,3.413-8.533,8.533
				s3.413,8.533,8.533,8.533h51.2V459.8H306.2H203.8h-8.533v-17.067h25.6c5.12,0,8.533-3.413,8.533-8.533s-3.413-8.533-8.533-8.533
				h-25.6V408.6h51.2c5.12,0,8.533-3.413,8.533-8.533c0-5.12-3.413-8.533-8.533-8.533h-51.2v-17.067h119.467V391.533z
				 M281.453,487.107c-3.413,4.267-8.533,6.827-13.653,6.827h-25.6c-5.12,0-10.24-2.56-13.653-6.827l-7.68-10.24h68.267
				L281.453,487.107z M359.96,287.427c-21.333,21.333-36.693,45.227-43.52,69.973H193.56c-6.827-24.747-22.187-48.64-43.52-69.973
				c-35.84-34.133-52.907-81.92-47.787-131.413c8.533-72.533,66.56-130.56,139.093-139.093c4.267,0,8.533-0.853,13.653-0.853
				c5.12,0,9.387,0.853,13.653,0.853c72.533,8.533,131.413,66.56,139.093,139.093C412.867,205.507,395.8,253.293,359.96,287.427z"/>
			<path d="M263.533,99.665v-6.799c0-5.12-3.413-8.533-8.533-8.533c-5.12,0-8.533,3.413-8.533,8.533v6.901
				c-9.222,2.01-17.32,7.201-23.893,14.432c-5.12,5.973-7.68,13.653-6.827,22.187s5.12,16.213,11.947,21.333l44.373,34.987
				c2.56,2.56,5.12,5.973,5.12,9.387c0.853,3.413,0,6.827-2.56,9.387c-5.12,5.973-11.947,9.387-19.627,9.387
				c-14.507,0-25.6-11.093-25.6-25.6c0-5.12-3.413-8.533-8.533-8.533s-8.533,3.413-8.533,8.533
				c0,20.963,14.452,37.981,34.133,41.841v7.652c0,5.12,3.413,8.533,8.533,8.533c5.12,0,8.533-4.267,8.533-8.533v-7.631
				c9.462-1.796,17.955-6.638,23.893-14.556c5.12-5.973,7.68-13.653,6.827-22.187c-0.853-8.533-5.12-16.213-11.947-21.333
				l-44.373-34.987c-2.56-2.56-5.12-5.973-5.12-9.387c-0.853-3.413,0-6.827,2.56-9.387c4.334-5.057,9.894-8.269,16.157-9.139
				c1.034,0.394,2.199,0.606,3.47,0.606c1.196,0,2.295-0.24,3.283-0.652c12.863,1.535,22.317,12.009,22.317,25.399
				c0,5.12,3.413,8.533,8.533,8.533s8.533-3.413,8.533-8.533C297.667,120.544,283.214,103.525,263.533,99.665z"/>
		</g>
	</g>
</g>
<g>
</g>
<g>
</g>
<g>
</g>
<g>
</g>
<g>
</g>
<g>
</g>
<g>
</g>
<g>
</g>
<g>
</g>
<g>
</g>
<g>
</g>
<g>
</g>
<g>
</g>
<g>
</g>
<g>
</g>
</svg>
