<?xml version="1.0" encoding="iso-8859-1"?>
<!-- Generator: Adobe Illustrator 19.0.0, SVG Export Plug-In . SVG Version: 6.00 Build 0)  -->
<svg version="1.1" id="Layer_1" xmlns="http://www.w3.org/2000/svg" xmlns:xlink="http://www.w3.org/1999/xlink" x="0px" y="0px"
	 viewBox="0 0 512 512" style="enable-background:new 0 0 512 512;" xml:space="preserve">
<g transform="translate(1 1)">
	<g>
		<g>
			<path d="M391.533,144.067h25.6c5.12,0,8.533-3.413,8.533-8.533S422.253,127,417.133,127h-25.6c-5.12,0-8.533,3.413-8.533,8.533
				S386.413,144.067,391.533,144.067z"/>
			<path d="M280.6,144.067h59.733c5.12,0,8.533-3.413,8.533-8.533S345.453,127,340.333,127H280.6c-5.12,0-8.533,3.413-8.533,8.533
				S275.48,144.067,280.6,144.067z"/>
			<path d="M54.467,377.88c4.267-2.56,5.973-7.68,3.413-11.947s-7.68-15.36-7.68-34.133c0-18.773,5.12-29.867,7.68-34.133
				s0.853-9.387-3.413-11.947c-4.267-1.707-9.387-0.853-11.947,3.413c-2.56,5.12-9.387,19.627-9.387,42.667
				c0,23.04,6.827,37.547,9.387,42.667c1.707,2.56,5.12,4.267,7.68,4.267C51.907,378.733,53.613,378.733,54.467,377.88z"/>
			<path d="M195.267,297.667H331.8c5.12,0,8.533-3.413,8.533-8.533c0-5.12-3.413-8.533-8.533-8.533H195.267
				c-5.12,0-8.533,3.413-8.533,8.533C186.733,294.253,190.147,297.667,195.267,297.667z"/>
			<path d="M263.533,323.267c-5.12,0-8.533,3.413-8.533,8.533s3.413,8.533,8.533,8.533h25.6c5.12,0,8.533-3.413,8.533-8.533
				s-3.413-8.533-8.533-8.533H263.533z"/>
			<path d="M220.867,331.8c0-5.12-3.413-8.533-8.533-8.533H127c-5.12,0-8.533,3.413-8.533,8.533s3.413,8.533,8.533,8.533h85.333
				C217.453,340.333,220.867,336.92,220.867,331.8z"/>
			<path d="M314.733,331.8c0,5.12,3.413,8.533,8.533,8.533h51.2c5.12,0,8.533-3.413,8.533-8.533s-3.413-8.533-8.533-8.533h-51.2
				C318.147,323.267,314.733,326.68,314.733,331.8z"/>
			<path d="M289.133,203.8h-25.6c-5.12,0-8.533,3.413-8.533,8.533s3.413,8.533,8.533,8.533h25.6c5.12,0,8.533-3.413,8.533-8.533
				S294.253,203.8,289.133,203.8z"/>
			<path d="M374.467,203.8h-51.2c-5.12,0-8.533,3.413-8.533,8.533s3.413,8.533,8.533,8.533h51.2c5.12,0,8.533-3.413,8.533-8.533
				S379.587,203.8,374.467,203.8z"/>
			<path d="M451.267,365.933H383c-5.12,0-8.533,3.413-8.533,8.533S377.88,383,383,383h68.267c5.12,0,8.533-3.413,8.533-8.533
				S456.387,365.933,451.267,365.933z"/>
			<path d="M323.267,365.933h-102.4c-5.12,0-8.533,3.413-8.533,8.533s3.413,8.533,8.533,8.533h102.4c5.12,0,8.533-3.413,8.533-8.533
				S328.387,365.933,323.267,365.933z"/>
			<path d="M505.791,216.768C509.498,204.663,511,191.807,511,178.2c0-47.787-22.187-85.333-51.2-85.333H135.533
				c-27.484,0-48.829,33.701-51.004,77.874c-23.368,6.041-40.717,37.208-42.667,76.8C17.044,253.957-1,288.709-1,331.8
				c0,47.787,22.187,85.333,51.2,85.333h409.6c29.013,0,51.2-37.547,51.2-85.333c0-13.825-1.867-26.783-5.209-38.232
				C509.498,281.463,511,268.607,511,255C511,241.175,509.133,228.217,505.791,216.768z M464.04,246.764
				c-0.581-0.075-1.162-0.152-1.75-0.196c-0.826-0.065-1.657-0.101-2.491-0.101H144.067c-0.625-9.063-1.944-17.662-3.9-25.6h72.167
				c5.12,0,8.533-3.413,8.533-8.533s-3.413-8.533-8.533-8.533h-77.831c-2.807-6.508-6.165-12.27-10.063-17.067h53.76h281.6
				c0.462,0,0.926,0.029,1.39,0.075c0.09,0.009,0.181,0.019,0.271,0.029c2.933,0.341,5.899,1.579,8.785,3.613
				c0.22,0.157,0.44,0.318,0.659,0.485c0.086,0.065,0.172,0.134,0.259,0.2c3.755,2.935,7.28,7.25,10.341,12.666h-64.371
				c-5.12,0-8.533,3.413-8.533,8.533s3.413,8.533,8.533,8.533h71.876c0.06,0.081,0.12,0.161,0.182,0.24
				c2.954,9.769,4.742,21.234,4.742,33.893c0,4.062-0.765,7.359-0.839,11.347c-7.729-10.868-17.514-17.902-28.462-19.511
				C464.435,246.806,464.237,246.79,464.04,246.764z M459.8,109.933c7.64,0,15.657,6.257,22.002,17.067h-30.535
				c-5.12,0-8.533,3.413-8.533,8.533s3.413,8.533,8.533,8.533h37.849c2.998,9.822,4.818,21.369,4.818,34.133
				c0,4.099-0.008,7.418-0.765,11.455c-7.741-10.929-17.553-18.005-28.537-19.619c-0.196-0.03-0.394-0.046-0.591-0.072
				c-0.581-0.075-1.162-0.152-1.75-0.196c-0.826-0.065-1.657-0.101-2.491-0.101H186.733c-0.625-9.063-1.944-17.662-3.9-25.6H229.4
				c5.12,0,8.533-3.413,8.533-8.533S234.52,127,229.4,127h-52.231c-2.807-6.508-6.165-12.27-10.063-17.067H459.8z M135.533,109.933
				c15.036,0,31.529,24.227,33.847,59.733h-33.463c1.224-13.647,5.152-22.027,7.296-25.6c2.56-4.267,0.853-9.387-3.413-11.947
				c-4.267-1.707-9.387-0.853-11.947,3.413c-2.228,4.455-7.682,16.025-9.061,34.133H101.4
				C103.96,133.827,120.173,109.933,135.533,109.933z M92.867,186.733c15.036,0,31.529,24.227,33.847,59.733H93.251
				c1.224-13.647,5.152-22.027,7.296-25.6c1.707-4.267,0.853-9.387-3.413-11.947c-4.267-1.707-9.387-0.853-11.947,3.413
				c-2.228,4.455-7.682,16.025-9.061,34.133H58.733C61.293,210.627,77.507,186.733,92.867,186.733z M16.067,331.8
				c0-40.107,17.92-68.267,34.133-68.267s34.133,28.16,34.133,68.267s-17.92,68.267-34.133,68.267S16.067,371.907,16.067,331.8z
				 M459.8,400.067H81.773c3.752-4.824,7.166-10.576,10.086-17.067h77.807c5.12,0,8.533-3.413,8.533-8.533s-3.413-8.533-8.533-8.533
				H97.874c2.778-10.419,4.38-21.954,4.38-34.133s-1.602-23.714-4.38-34.133h63.26c5.12,0,8.533-3.413,8.533-8.533
				c0-5.12-3.413-8.533-8.533-8.533H91.859c-2.92-6.491-6.334-12.243-10.086-17.067h53.76H459.8c0.462,0,0.926,0.029,1.39,0.075
				c0.09,0.009,0.181,0.019,0.271,0.029c2.933,0.341,5.899,1.579,8.785,3.613c0.22,0.157,0.44,0.318,0.659,0.485
				c0.086,0.065,0.172,0.134,0.259,0.2c3.755,2.935,7.28,7.25,10.341,12.666H365.933c-5.12,0-8.533,3.413-8.533,8.533
				c0,5.12,3.413,8.533,8.533,8.533h123.076c0.06,0.081,0.12,0.161,0.182,0.24c2.274,7.522,3.848,16.055,4.456,25.36h-76.513
				c-5.12,0-8.533,3.413-8.533,8.533s3.413,8.533,8.533,8.533h76.513C491.329,375.839,474.836,400.067,459.8,400.067z"/>
		</g>
	</g>
</g>
<g>
</g>
<g>
</g>
<g>
</g>
<g>
</g>
<g>
</g>
<g>
</g>
<g>
</g>
<g>
</g>
<g>
</g>
<g>
</g>
<g>
</g>
<g>
</g>
<g>
</g>
<g>
</g>
<g>
</g>
</svg>
