<?xml version="1.0" encoding="iso-8859-1"?>
<!-- Generator: Adobe Illustrator 19.0.0, SVG Export Plug-In . SVG Version: 6.00 Build 0)  -->
<svg version="1.1" id="Layer_1" xmlns="http://www.w3.org/2000/svg" xmlns:xlink="http://www.w3.org/1999/xlink" x="0px" y="0px"
	 viewBox="0 0 512 512" style="enable-background:new 0 0 512 512;" xml:space="preserve">
<g transform="translate(1 1)">
	<g>
		<g>
			<path d="M458.947,4.12C458.093,0.707,454.68-1,451.267-1h-102.4c-3.413,0-6.827,1.707-7.68,5.12
				c-1.707,3.413-0.853,6.827,1.707,9.387c20.48,20.48,31.573,47.787,31.573,76.8v307.2c0,36.693,5.973,72.533,17.92,107.52
				c0.853,3.413,4.267,5.973,7.68,5.973c3.413,0,6.827-2.56,7.68-5.973c11.947-34.133,17.92-70.827,17.92-107.52v-307.2
				c0-29.013,11.093-56.32,31.573-76.8C459.8,10.947,460.653,7.533,458.947,4.12z M408.6,90.307v307.2
				c0,25.6-2.56,50.347-8.533,74.24c-5.973-24.747-8.533-49.493-8.533-74.24v-307.2C391.533,63,383,37.4,367.64,16.067h64.853
				C417.133,37.4,408.6,63,408.6,90.307z"/>
			<path d="M306.2-1H203.8c-3.413,0-6.827,1.707-7.68,5.12c-1.707,3.413-0.853,6.827,1.707,9.387
				c20.48,20.48,31.573,47.787,31.573,76.8v204.8c0,36.693,5.973,72.533,17.92,107.52c0.853,3.413,4.267,5.973,7.68,5.973
				c3.413,0,6.827-2.56,7.68-5.973c11.947-34.133,17.92-70.827,17.92-107.52v-204.8c0-29.013,11.093-56.32,31.573-76.8
				c2.56-2.56,3.413-5.973,1.707-9.387C313.027,0.707,309.613-1,306.2-1z M263.533,90.307v204.8c0,25.6-2.56,50.347-8.533,74.24
				c-5.973-24.747-8.533-49.493-8.533-74.24v-204.8c0-27.307-8.533-52.907-23.893-74.24h64.853
				C272.067,37.4,263.533,63,263.533,90.307z"/>
			<path d="M161.133-1h-102.4c-3.413,0-6.827,1.707-7.68,5.12c-1.707,3.413-0.853,6.827,1.707,9.387
				c20.48,20.48,31.573,47.787,31.573,76.8v128c0,36.693,5.973,72.533,17.92,107.52c0.853,3.413,4.267,5.973,7.68,5.973
				c3.413,0,6.827-2.56,8.533-5.973c11.093-34.987,17.067-70.827,17.067-107.52v-128c0-29.013,11.093-56.32,31.573-76.8
				c2.56-2.56,3.413-5.973,1.707-9.387C167.96,0.707,164.547-1,161.133-1z M118.467,90.307v128c0,25.6-2.56,50.347-8.533,74.24
				c-5.973-24.747-8.533-49.493-8.533-74.24v-128c0-27.307-8.533-52.907-23.893-74.24h64.853C127,37.4,118.467,63,118.467,90.307z"
				/>
		</g>
	</g>
</g>
<g>
</g>
<g>
</g>
<g>
</g>
<g>
</g>
<g>
</g>
<g>
</g>
<g>
</g>
<g>
</g>
<g>
</g>
<g>
</g>
<g>
</g>
<g>
</g>
<g>
</g>
<g>
</g>
<g>
</g>
</svg>
