<?xml version="1.0" encoding="iso-8859-1"?>
<!-- Generator: Adobe Illustrator 19.0.0, SVG Export Plug-In . SVG Version: 6.00 Build 0)  -->
<svg version="1.1" id="Layer_1" xmlns="http://www.w3.org/2000/svg" xmlns:xlink="http://www.w3.org/1999/xlink" x="0px" y="0px"
	 viewBox="0 0 503.921 503.921" style="enable-background:new 0 0 503.921 503.921;" xml:space="preserve">
<g transform="translate(1 1)">
	<g>
		<g>
			<path d="M469.033,91.485c0-5.036-3.357-8.393-8.393-8.393h-83.934c-5.036,0-8.393,3.357-8.393,8.393s3.357,8.393,8.393,8.393
				h83.934C465.675,99.879,469.033,96.521,469.033,91.485z"/>
			<path d="M469.033,125.059c0-5.036-3.357-8.393-8.393-8.393h-67.148c-5.036,0-8.393,3.357-8.393,8.393
				c0,5.036,3.357,8.393,8.393,8.393h67.148C465.675,133.452,469.033,130.095,469.033,125.059z"/>
			<path d="M460.639,150.239h-50.361c-5.036,0-8.393,3.357-8.393,8.393s3.357,8.393,8.393,8.393h50.361
				c5.036,0,8.393-3.357,8.393-8.393S465.675,150.239,460.639,150.239z"/>
			<path d="M500.089,421.348c-38.657-34.545-37.012-132.76-15.606-213.3c10.656-2.934,18.124-12.432,18.124-24.234V66.305
				c0-14.269-10.911-25.18-25.18-25.18H82.934c-14.269,0-25.18,10.911-25.18,25.18v16.787H24.18C9.911,83.092-1,94.003-1,108.272
				v33.574c0,14.269,10.911,25.18,25.18,25.18h33.574v16.787c0,11.751,0.839,23.502,2.518,34.413L87.971,431.42
				c2.518,16.787,16.787,29.377,33.574,29.377h221.587c18.466,0,33.574-15.108,33.574-33.574v-218.23h16.784
				c0.25,33.509,4.214,156.339,52.042,205.639c13.43,13.43,30.216,20.984,48.682,20.984c3.357,0,6.715-2.518,8.393-5.036
				C503.446,427.223,502.607,423.866,500.089,421.348z M24.18,150.239c-5.036,0-8.393-3.357-8.393-8.393v-33.574
				c0-4.197,4.197-8.393,8.393-8.393h33.574v50.361H24.18z M368.311,192.207c-5.036,0-8.393,3.357-8.393,8.393v226.623
				c0,9.233-7.554,16.787-16.787,16.787H122.384c-8.393,0-15.948-5.875-16.787-14.269L77.059,216.548
				c-1.679-10.911-2.518-21.823-2.518-32.734v-25.18V91.485v-25.18c0-4.197,4.197-8.393,8.393-8.393h394.492
				c5.036,0,8.393,3.357,8.393,8.393v117.508c0,5.036-3.357,8.393-8.393,8.393h-75.541H368.311z M457.282,402.882
				c-42.807-44.485-47.003-161.993-47.003-193.889h56.236c-19.305,73.023-22.662,156.957,5.875,204.8
				C467.354,411.275,462.318,407.918,457.282,402.882z"/>
			<path d="M309.557,250.961h-8.393h-41.967H141.689c-9.233,0-16.787,7.554-16.787,16.787v0.839l13.43,106.597
				c3.357,15.108,16.787,26.859,32.734,26.859h113.312c18.466,0,33.574-15.108,33.574-33.574v-41.967v-58.754v-8.393
				C317.951,254.318,314.593,250.961,309.557,250.961z M301.164,267.748v50.361h-10.911l-19.305-50.361H301.164z M284.377,385.256
				H170.226c-7.554,0-14.269-5.036-15.948-12.59l-12.59-104.918h111.843l23.292,62.112c0.839,2.518,4.197,5.036,7.554,5.036h16.787
				v33.574C301.164,377.702,293.61,385.256,284.377,385.256z"/>
			<path d="M158.475,158.633h117.508c18.466,0,33.574-15.108,33.574-33.574c0-18.466-15.108-33.574-33.574-33.574H158.475
				c-18.466,0-33.574,15.108-33.574,33.574C124.902,143.525,140.01,158.633,158.475,158.633z M158.475,108.272h117.508
				c9.233,0,16.787,7.554,16.787,16.787s-7.554,16.787-16.787,16.787H158.475c-9.233,0-16.787-7.554-16.787-16.787
				S149.243,108.272,158.475,108.272z"/>
		</g>
	</g>
</g>
<g>
</g>
<g>
</g>
<g>
</g>
<g>
</g>
<g>
</g>
<g>
</g>
<g>
</g>
<g>
</g>
<g>
</g>
<g>
</g>
<g>
</g>
<g>
</g>
<g>
</g>
<g>
</g>
<g>
</g>
</svg>
