<?xml version="1.0" encoding="iso-8859-1"?>
<!-- Generator: Adobe Illustrator 19.0.0, SVG Export Plug-In . SVG Version: 6.00 Build 0)  -->
<svg version="1.1" id="Layer_1" xmlns="http://www.w3.org/2000/svg" xmlns:xlink="http://www.w3.org/1999/xlink" x="0px" y="0px"
	 viewBox="0 0 512 512" style="enable-background:new 0 0 512 512;" xml:space="preserve">
<g>
	<g>
		<path d="M314.88,5.12C314.027,1.707,310.613,0,307.2,0H204.8c-3.413,0-6.827,1.707-7.68,5.12
			c-1.707,3.413-0.853,6.827,1.707,9.387c20.48,20.48,31.573,47.787,31.573,76.8v307.2c0,36.693,5.973,72.533,17.92,107.52
			c0.853,3.413,4.267,5.973,7.68,5.973s6.827-2.56,8.533-5.973C275.627,471.04,281.6,435.2,281.6,398.507v-307.2
			c0-29.013,11.093-56.32,31.573-76.8C315.733,11.947,316.587,8.533,314.88,5.12z M264.533,91.307v307.2
			c0,25.6-2.56,50.347-8.533,74.24c-5.973-24.747-8.533-49.493-8.533-74.24v-307.2c0-27.307-8.533-52.907-23.893-74.24h64.853
			C273.067,38.4,264.533,64,264.533,91.307z"/>
	</g>
</g>
<g>
</g>
<g>
</g>
<g>
</g>
<g>
</g>
<g>
</g>
<g>
</g>
<g>
</g>
<g>
</g>
<g>
</g>
<g>
</g>
<g>
</g>
<g>
</g>
<g>
</g>
<g>
</g>
<g>
</g>
</svg>
