<?xml version="1.0" encoding="iso-8859-1"?>
<!-- Generator: Adobe Illustrator 19.0.0, SVG Export Plug-In . SVG Version: 6.00 Build 0)  -->
<svg version="1.1" id="Layer_1" xmlns="http://www.w3.org/2000/svg" xmlns:xlink="http://www.w3.org/1999/xlink" x="0px" y="0px"
	 viewBox="0 0 512.434 512.434" style="enable-background:new 0 0 512.434 512.434;" xml:space="preserve">
<g transform="translate(1 1)">
	<g>
		<path d="M424.437,53.237l-86.78-52.068c-2.603-2.603-6.942-1.736-9.546,0s-4.339,5.207-3.471,8.678
			c6.075,27.769,0,59.01-17.356,89.383l-53.419,92.244l-54.188-93.112c-15.62-27.77-20.827-59.878-13.885-89.383
			c0.868-3.471-0.868-6.942-3.471-8.678s-6.942-1.736-9.546,0L85.997,52.37c-3.471,1.736-4.339,5.207-4.339,8.678
			c0.868,3.471,2.603,6.942,6.075,7.81c27.769,7.81,50.332,26.902,66.82,56.407l68.73,119.021l-84.351,145.657
			c-19.959,34.712-34.712,72.027-43.39,111.078c-0.868,3.471,0.868,7.81,4.339,9.546c1.736,0.868,2.603,0.868,4.339,0.868
			c2.603,0,4.339-0.868,6.942-2.603c28.637-26.902,53.803-58.142,73.763-92.854l69.047-119.849l68.932,119.849
			c19.959,34.712,45.125,65.953,73.763,92.854c1.736,1.736,4.339,2.603,6.075,2.603c1.736,0,3.471,0,4.339-0.868
			c3.471-1.736,5.207-6.075,4.339-9.546c-8.678-39.051-23.43-76.366-43.39-111.078l-84.193-145.653l68.572-119.025
			c15.62-26.902,41.654-47.729,70.292-56.407c3.471-0.868,6.075-3.471,6.075-6.942C428.776,58.444,427.041,54.973,424.437,53.237z
			 M170.173,116.586c-15.62-26.902-35.58-45.993-59.878-58.142l55.539-32.976c-2.603,27.77,4.339,56.407,19.959,82.441
			l58.338,100.376l-10.233,17.67L170.173,116.586z M352.41,398.62c13.885,24.298,24.298,48.597,32.976,74.63
			c-18.224-19.959-33.844-42.522-47.729-65.953l-73.751-128.414l9.772-16.962L352.41,398.62z M337.658,116.586L169.305,407.298
			c-13.017,24.298-29.505,45.993-47.729,65.953c8.678-26.034,19.092-51.2,32.976-74.63l168.353-290.712
			c15.62-27.769,23.431-56.407,21.695-83.308l55.539,33.844C374.105,70.593,352.41,90.553,337.658,116.586z"/>
	</g>
</g>
<g>
</g>
<g>
</g>
<g>
</g>
<g>
</g>
<g>
</g>
<g>
</g>
<g>
</g>
<g>
</g>
<g>
</g>
<g>
</g>
<g>
</g>
<g>
</g>
<g>
</g>
<g>
</g>
<g>
</g>
</svg>
