<?xml version="1.0" encoding="iso-8859-1"?>
<!-- Generator: Adobe Illustrator 19.0.0, SVG Export Plug-In . SVG Version: 6.00 Build 0)  -->
<svg version="1.1" id="Layer_1" xmlns="http://www.w3.org/2000/svg" xmlns:xlink="http://www.w3.org/1999/xlink" x="0px" y="0px"
	 viewBox="0 0 512 512" style="enable-background:new 0 0 512 512;" xml:space="preserve">
<g transform="translate(1 1)">
	<g>
		<g>
			<path d="M216.318,434.2c0,18.773,15.36,34.133,34.133,34.133s34.133-15.36,34.133-34.133c0-18.773-15.36-34.133-34.133-34.133
				S216.318,415.427,216.318,434.2z M250.451,417.133c9.387,0,17.067,7.68,17.067,17.067s-7.68,17.067-17.067,17.067
				c-9.387,0-17.067-7.68-17.067-17.067S241.065,417.133,250.451,417.133z"/>
			<path d="M359.678,7.533c-3.413-5.12-9.387-8.533-15.36-7.68C317.011,4.12,297.385,16.92,286.291,37.4
				c-4.267-10.24-11.093-20.48-18.773-28.16C261.545,3.267,250.451-1,241.918-1h-71.68c-7.68,0-15.36,4.267-18.773,10.24
				c-4.267,6.827-4.267,15.36-0.853,22.187c9.512,16.647,13.868,42.137,14.439,78.51c-5.082,0.031-8.466,3.434-8.466,8.53v76.8
				c0,5.12,3.413,8.533,8.533,8.533v76.8c0,11.947,5.973,23.04,15.36,29.867c5.973,3.413,9.387,10.24,8.533,17.067l-14.507,157.013
				c-0.853,6.827,1.707,13.653,6.827,18.773c5.12,5.12,11.947,7.68,18.773,7.68h100.693c7.68,0,13.653-2.56,17.92-7.68
				c4.267-5.12,6.827-11.947,6.827-19.627l-14.507-156.16c0-6.827,2.56-13.653,8.533-17.067c10.24-6.827,16.213-17.92,16.213-29.867
				v-76.8c5.12,0,8.533-4.267,8.533-8.533v-76.8c0-5.12-3.413-8.533-8.533-8.533h-0.136c0.151-17.272,2.827-57.107,23.176-85.333
				C362.238,19.48,363.091,12.653,359.678,7.533z M261.545,127h65.707v59.733h-153.6V127H261.545z M318.718,280.6
				c0,5.973-3.413,11.947-8.533,15.36c-11.093,7.68-17.067,20.48-15.36,33.28l14.507,156.16c0,1.707-0.853,4.267-2.56,5.973
				s-3.413,2.56-5.973,2.56H200.105c-2.56,0-4.267-0.853-5.973-2.56s-2.56-4.267-2.56-5.973l14.507-156.16
				c1.707-13.653-4.267-25.6-15.36-33.28c-5.12-3.413-8.533-9.387-8.533-15.36v-8.533h25.6c5.12,0,8.533-4.267,8.533-8.533
				c0-5.12-3.413-8.533-8.533-8.533h-25.6v-17.067h42.667c5.12,0,8.533-3.413,8.533-8.533s-3.413-8.533-8.533-8.533h-42.667V203.8
				h136.533V280.6z M318.718,109.933h-57.173h-79.36c-0.853-39.253-5.973-67.413-16.213-86.187c-0.853-2.56,0-4.267,0-5.12
				c0.853-0.853,1.707-2.56,4.267-2.56h71.68c4.267,0,11.093,2.56,13.653,5.12c9.387,10.24,20.48,29.867,20.48,54.613
				c0,4.267,4.267,8.533,8.533,8.533c4.267,0.853,8.533-3.413,8.533-7.68c1.707-33.28,18.773-52.907,49.493-58.88
				C321.278,50.2,318.718,92.013,318.718,109.933z"/>
		</g>
	</g>
</g>
<g>
</g>
<g>
</g>
<g>
</g>
<g>
</g>
<g>
</g>
<g>
</g>
<g>
</g>
<g>
</g>
<g>
</g>
<g>
</g>
<g>
</g>
<g>
</g>
<g>
</g>
<g>
</g>
<g>
</g>
</svg>
