<?xml version="1.0" encoding="iso-8859-1"?>
<!-- Generator: Adobe Illustrator 19.0.0, SVG Export Plug-In . SVG Version: 6.00 Build 0)  -->
<svg version="1.1" id="Layer_1" xmlns="http://www.w3.org/2000/svg" xmlns:xlink="http://www.w3.org/1999/xlink" x="0px" y="0px"
	 viewBox="0 0 512 512" style="enable-background:new 0 0 512 512;" xml:space="preserve">
<g transform="translate(1 1)">
	<g>
		<g>
			<path d="M220.867,434.2c0,18.773,15.36,34.133,34.133,34.133s34.133-15.36,34.133-34.133c0-18.773-15.36-34.133-34.133-34.133
				S220.867,415.427,220.867,434.2z M255,417.133c9.387,0,17.067,7.68,17.067,17.067s-7.68,17.067-17.067,17.067
				c-9.387,0-17.067-7.68-17.067-17.067S245.613,417.133,255,417.133z"/>
			<path d="M340.333,109.933V24.6c0-14.507-11.093-25.6-25.6-25.6h-17.067h-85.333h-17.067c-14.507,0-25.6,11.093-25.6,25.6v85.333
				c-5.12,0-8.533,3.413-8.533,8.533v76.8c0,5.12,3.413,8.533,8.533,8.533v59.733c0,11.093,2.56,22.187,5.973,31.573
				c8.533,18.773,23.04,49.493,19.627,69.973c-5.12,33.28-7.68,68.267-7.68,69.12c0,45.227,27.307,76.8,67.413,76.8
				s67.413-31.573,66.56-76.8c0-0.853,0-0.853,0-0.853s-2.56-34.987-7.68-68.267c-2.56-20.48,11.093-51.2,19.627-69.973
				c4.267-9.387,6.827-20.48,6.827-31.573V203.8c5.12,0,8.533-3.413,8.533-8.533v-76.8
				C348.867,113.347,345.453,109.933,340.333,109.933z M178.2,127h25.6v8.533c0,18.773,15.36,34.133,34.133,34.133
				c18.773,0,34.133-15.36,34.133-34.133V127H331.8v59.733H178.2V127z M306.2,67.267v-51.2h8.533c5.12,0,8.533,3.413,8.533,8.533
				v85.333h-51.2V91.16c2.56,0.853,5.12,1.707,8.533,1.707C295.107,92.867,306.2,81.773,306.2,67.267z M289.133,67.267
				c0,5.12-3.413,8.533-8.533,8.533c-5.12,0-8.533-3.413-8.533-8.533V45.933c0-5.12-3.413-8.533-8.533-8.533S255,40.813,255,45.933
				v21.333v51.2v17.067c0,9.387-7.68,17.067-17.067,17.067s-17.067-7.68-17.067-17.067v-17.067v-102.4h68.267V67.267z M186.733,24.6
				c0-4.267,4.267-8.533,8.533-8.533h8.533v93.867h-17.067V24.6z M323.267,263.533c0,8.533-1.707,17.067-5.12,24.747
				c-9.387,19.627-24.747,53.76-20.48,79.36c5.12,30.72,7.68,63.147,7.68,66.56c0,28.16-13.653,59.733-50.347,59.733
				c-37.547,0-50.347-31.573-50.347-58.88c0-0.853,2.56-34.987,7.68-67.413c4.267-25.6-11.093-58.88-20.48-79.36
				c-2.271-5.11-3.769-10.6-4.529-16.213h25.009c5.12,0,8.533-3.413,8.533-8.533S217.453,255,212.333,255h-25.6v-17.067H229.4
				c5.12,0,8.533-3.413,8.533-8.533s-3.413-8.533-8.533-8.533h-42.667V203.8h136.533V263.533z"/>
		</g>
	</g>
</g>
<g>
</g>
<g>
</g>
<g>
</g>
<g>
</g>
<g>
</g>
<g>
</g>
<g>
</g>
<g>
</g>
<g>
</g>
<g>
</g>
<g>
</g>
<g>
</g>
<g>
</g>
<g>
</g>
<g>
</g>
</svg>
