<?xml version="1.0" encoding="iso-8859-1"?>
<!-- Generator: Adobe Illustrator 19.0.0, SVG Export Plug-In . SVG Version: 6.00 Build 0)  -->
<svg version="1.1" id="Layer_1" xmlns="http://www.w3.org/2000/svg" xmlns:xlink="http://www.w3.org/1999/xlink" x="0px" y="0px"
	 viewBox="0 0 512 512" style="enable-background:new 0 0 512 512;" xml:space="preserve">
<g transform="translate(1 1)">
	<g>
		<g>
			<path d="M254.934,459.8c18.773,0,34.133-15.36,34.133-34.133s-15.36-34.133-34.133-34.133s-34.133,15.36-34.133,34.133
				S236.161,459.8,254.934,459.8z M254.934,408.6c9.387,0,17.067,7.68,17.067,17.067s-7.68,17.067-17.067,17.067
				s-17.067-7.68-17.067-17.067S245.547,408.6,254.934,408.6z"/>
			<path d="M388.907,13.507c2.56-2.56,3.413-5.973,1.707-9.387C389.76,0.707,386.347-1,382.934-1h-6.827
				c-34.133,0-67.413,18.773-82.773,46.08c-0.853,1.707-1.707,2.56-2.56,4.267c-5.973-18.773-14.507-31.573-24.747-40.96
				C258.347,2.413,249.814-1,240.427-1H139.734c-7.68,0-14.507,4.267-17.92,10.24c-4.267,6.827-4.267,15.36-0.853,22.187
				c9.512,16.647,13.868,42.137,14.439,78.51c-5.082,0.031-8.466,3.434-8.466,8.53v76.8c0,5.12,3.413,8.533,8.533,8.533v68.267
				c0,23.893,18.773,42.667,42.667,42.667c2.56,0,4.267,0.853,5.12,2.56c1.707,1.707,2.56,3.413,2.56,5.973l-6.827,161.28
				c-0.853,6.827,1.707,13.653,6.827,18.773c5.12,5.12,11.947,7.68,18.773,7.68h100.693c7.68,0,13.653-2.56,17.92-7.68
				c4.267-5.12,6.827-11.947,6.827-18.773l-6.827-161.28c0-2.56,0.853-4.267,2.56-5.973s3.413-2.56,5.973-2.56
				c23.893,0,42.667-18.773,42.667-42.667V203.8c5.12,0,8.533-4.267,8.533-8.533v-76.8c0-5.12-3.413-8.533-8.533-8.533h-3.907
				C359.192,84.488,367.957,36.069,388.907,13.507z M365.867,186.733H144V127h221.867V186.733z M357.334,272.067
				c0,14.507-11.093,25.6-25.6,25.6c-6.827,0-12.8,2.56-17.92,7.68c-4.267,4.267-6.827,11.093-6.827,17.92l6.827,162.133
				c0,1.707-0.853,4.267-2.56,5.973s-3.413,2.56-5.973,2.56H204.587c-2.56,0-4.267-0.853-5.973-2.56s-2.56-3.413-2.56-5.973
				l6.827-162.133c0.853-6.827-1.707-12.8-6.827-17.92s-11.093-7.68-17.92-7.68c-14.507,0-25.6-11.093-25.6-25.6h25.6
				c5.12,0,8.533-4.267,8.533-8.533c0-5.12-3.413-8.533-8.533-8.533h-25.6v-17.067h42.667c5.12,0,8.533-3.413,8.533-8.533
				s-3.413-8.533-8.533-8.533h-42.667V203.8h204.8V272.067z M291.627,109.933H152.534C151.68,70.68,146.56,42.52,136.32,23.747
				c-0.853-2.56,0-4.267,0-5.12s1.707-2.56,3.413-2.56h100.693c5.12,0,10.24,1.707,15.36,5.12c11.947,10.24,20.48,29.013,25.6,56.32
				c0.853,3.413,3.413,6.827,7.68,6.827c4.267,0,7.68-2.56,7.68-5.973c1.707-7.68,5.12-16.213,10.24-24.747
				c11.093-19.627,33.28-33.28,58.027-36.693c-15.36,26.453-21.333,66.56-12.8,93.013H291.627z"/>
		</g>
	</g>
</g>
<g>
</g>
<g>
</g>
<g>
</g>
<g>
</g>
<g>
</g>
<g>
</g>
<g>
</g>
<g>
</g>
<g>
</g>
<g>
</g>
<g>
</g>
<g>
</g>
<g>
</g>
<g>
</g>
<g>
</g>
</svg>
