<?xml version="1.0" encoding="iso-8859-1"?>
<!-- Generator: Adobe Illustrator 19.0.0, SVG Export Plug-In . SVG Version: 6.00 Build 0)  -->
<svg version="1.1" id="Layer_1" xmlns="http://www.w3.org/2000/svg" xmlns:xlink="http://www.w3.org/1999/xlink" x="0px" y="0px"
	 viewBox="0 0 512 512" style="enable-background:new 0 0 512 512;" xml:space="preserve">
<g transform="translate(1 1)">
	<g>
		<g>
			<path d="M255,459.8c18.773,0,34.133-15.36,34.133-34.133s-15.36-34.133-34.133-34.133s-34.133,15.36-34.133,34.133
				S236.227,459.8,255,459.8z M255,408.6c9.387,0,17.067,7.68,17.067,17.067s-7.68,17.067-17.067,17.067
				c-9.387,0-17.067-7.68-17.067-17.067S245.613,408.6,255,408.6z"/>
			<path d="M374.467,109.933V24.6c0-14.507-11.093-25.6-25.6-25.6H280.6H178.2h-17.067c-14.507,0-25.6,11.093-25.6,25.6v85.333
				c-5.12,0-8.533,3.413-8.533,8.533v76.8c0,5.12,3.413,8.533,8.533,8.533v59.733c0,22.187,9.387,28.16,26.453,39.253l2.56,1.707
				c14.507,10.24,17.067,19.627,13.653,42.667l-8.533,57.173c-5.12,35.84,10.24,71.68,39.253,92.16
				C222.573,505.88,237.933,511,255,511s32.427-5.12,45.227-15.36c29.013-20.48,45.227-56.32,39.253-92.16l-8.533-57.173
				c-3.413-24.747-3.413-29.867,13.653-41.813l3.413-1.707c17.067-11.093,26.453-17.067,26.453-39.253V203.8
				c5.12,0,8.533-3.413,8.533-8.533v-76.8C383,113.347,379.587,109.933,374.467,109.933z M144.067,186.733V127h76.8v8.533
				c0,18.773,15.36,34.133,34.133,34.133s34.133-15.36,34.133-34.133V127h76.8v59.733H144.067z M357.4,24.6v85.333h-68.267V16.067
				h59.733C353.987,16.067,357.4,19.48,357.4,24.6z M272.067,118.467v17.067c0,9.387-7.68,17.067-17.067,17.067
				c-9.387,0-17.067-7.68-17.067-17.067v-17.067v-51.2v-25.6c0-5.12-3.413-8.533-8.533-8.533c-5.12,0-8.533,3.413-8.533,8.533v25.6
				c0,9.387-7.68,17.067-17.067,17.067s-17.067-7.68-17.067-17.067v-51.2h85.333V118.467z M152.6,24.6
				c0-4.267,4.267-8.533,8.533-8.533h8.533v51.2c0,18.773,15.36,34.133,34.133,34.133c5.973,0,11.947-1.707,17.067-4.267v12.8H152.6
				V24.6z M358.253,262.68c0,12.8-2.56,14.507-18.773,24.747l-3.413,2.56c-25.6,17.92-24.747,30.72-20.48,58.88l8.533,57.173
				c4.267,29.013-8.533,58.88-32.427,75.947c-21.333,14.507-51.2,14.507-72.533,0c-24.747-17.067-36.693-46.933-32.427-75.947
				l8.533-57.173c4.267-24.747,2.56-42.667-20.48-58.88l-3.413-1.707c-11.7-7.389-16.288-10.336-17.937-16.213H178.2
				c5.12,0,8.533-3.413,8.533-8.533S183.32,255,178.2,255h-25.6v-17.067h42.667c5.12,0,8.533-3.413,8.533-8.533
				s-3.413-8.533-8.533-8.533H152.6V203.8h205.653V262.68z"/>
		</g>
	</g>
</g>
<g>
</g>
<g>
</g>
<g>
</g>
<g>
</g>
<g>
</g>
<g>
</g>
<g>
</g>
<g>
</g>
<g>
</g>
<g>
</g>
<g>
</g>
<g>
</g>
<g>
</g>
<g>
</g>
<g>
</g>
</svg>
