<?xml version="1.0" encoding="iso-8859-1"?>
<!-- Generator: Adobe Illustrator 19.0.0, SVG Export Plug-In . SVG Version: 6.00 Build 0)  -->
<svg version="1.1" id="Layer_1" xmlns="http://www.w3.org/2000/svg" xmlns:xlink="http://www.w3.org/1999/xlink" x="0px" y="0px"
	 viewBox="0 0 512 512" style="enable-background:new 0 0 512 512;" xml:space="preserve">
<g transform="translate(1 1)">
	<g>
		<g>
			<path d="M451.267,59.463V24.6c0-14.507-11.093-25.6-25.6-25.6H58.733c-14.507,0-25.6,11.093-25.6,25.6v34.133H24.6
				c-5.12,0-8.533,3.413-8.533,8.533S19.48,75.8,24.6,75.8h8.533v34.133c0,11.491,6.963,20.833,17.067,24.224v52.576
				c0,18.773,15.36,34.133,34.133,34.133c5.973,0,11.947-1.707,17.067-4.267V255c0,18.773,15.36,34.133,34.133,34.133
				s34.133-15.36,34.133-34.133v-62.293c4.267,1.707,8.533,2.56,12.8,2.56c16.213,0,29.867-13.653,29.867-29.867v-29.867h213.333
				c14.507,0,25.6-11.093,25.6-25.6V76.888c14.679,3.814,25.6,17.216,25.6,33.046v34.133c0,16.213-11.947,30.72-27.307,34.133
				c-6.827,1.707-115.2,11.093-186.027,17.067c-18.773,0-34.133,15.36-34.133,34.133v51.2h-51.2c-2.56,0-5.12,1.707-6.827,3.413
				s-2.56,4.267-1.707,6.827l8.533,42.667c0.853,4.267,4.267,6.827,8.533,6.827h8.533v128c0,23.893,18.773,42.667,42.667,42.667
				c23.893,0,42.667-18.773,42.667-42.667v-128h8.533c4.267,0,7.68-2.56,8.533-6.827l8.533-42.667c0.853-2.56,0-5.12-1.707-6.827
				c-1.707-2.56-4.267-3.413-6.827-3.413h-51.2v-51.2c0-9.387,7.68-17.067,17.92-17.067c29.867-2.56,180.907-15.36,188.587-17.067
				c23.893-5.12,40.96-26.453,40.96-51.2v-34.133C493.933,84.68,475.4,63.558,451.267,59.463z M195.267,165.4
				c0,6.827-5.973,12.8-12.8,12.8s-12.8-5.973-12.8-12.8v-12.8c0-5.12-3.413-8.533-8.533-8.533c-5.12,0-8.533,3.413-8.533,8.533
				v12.8v4.267V255c0,9.387-7.68,17.067-17.067,17.067s-17.067-7.68-17.067-17.067v-68.267v-25.6c0-5.12-3.413-8.533-8.533-8.533
				c-5.12,0-8.533,3.413-8.533,8.533v25.6c0,9.387-7.68,17.067-17.067,17.067s-17.067-7.68-17.067-17.067v-51.2h128V165.4z
				 M434.2,109.933c0,5.12-3.413,8.533-8.533,8.533H203.8H58.733c-5.12,0-8.533-3.413-8.533-8.533V24.6
				c0-4.267,4.267-8.533,8.533-8.533h366.933c5.12,0,8.533,3.413,8.533,8.533V109.933z M282.307,323.267h-10.24
				c-5.12,0-8.533,3.413-8.533,8.533v136.533c0,14.507-11.093,25.6-25.6,25.6c-14.507,0-25.6-11.093-25.6-25.6H229.4
				c5.12,0,8.533-3.413,8.533-8.533c0-5.12-3.413-8.533-8.533-8.533h-17.067V434.2H229.4c5.12,0,8.533-3.413,8.533-8.533
				s-3.413-8.533-8.533-8.533h-17.067V331.8c0-5.12-3.413-8.533-8.533-8.533h-10.24l-5.12-25.6h98.987L282.307,323.267z"/>
			<path d="M124.44,35.693c-3.413-3.413-8.533-2.56-11.947,0.853l-42.667,51.2c-3.413,3.413-2.56,8.533,0.853,11.947
				c0.853,0.853,3.413,1.707,5.12,1.707c2.56,0,5.12-0.853,6.827-2.56l42.667-51.2C128.707,44.227,127.853,39.107,124.44,35.693z"/>
			<path d="M184.173,35.693c-3.413-3.413-8.533-2.56-11.947,0.853l-42.667,51.2c-3.413,3.413-2.56,8.533,0.853,11.947
				c0.853,0.853,3.413,1.707,5.12,1.707c2.56,0,5.12-0.853,6.827-2.56l42.667-51.2C188.44,44.227,187.587,39.107,184.173,35.693z"/>
			<path d="M243.907,35.693c-3.413-3.413-8.533-2.56-11.947,0.853l-42.667,51.2c-3.413,3.413-2.56,8.533,0.853,11.947
				c0.853,0.853,3.413,1.707,5.12,1.707c2.56,0,5.12-0.853,6.827-2.56l42.667-51.2C248.173,44.227,247.32,39.107,243.907,35.693z"/>
			<path d="M303.64,35.693c-3.413-3.413-8.533-2.56-11.947,0.853l-42.667,51.2c-3.413,3.413-2.56,8.533,0.853,11.947
				c0.853,0.853,3.413,1.707,5.12,1.707c2.56,0,5.12-0.853,6.827-2.56l42.667-51.2C307.907,44.227,307.053,39.107,303.64,35.693z"/>
			<path d="M363.373,35.693c-3.413-3.413-8.533-2.56-11.947,0.853l-42.667,51.2c-3.413,3.413-2.56,8.533,0.853,11.947
				c0.853,0.853,3.413,1.707,5.12,1.707c2.56,0,5.12-0.853,6.827-2.56l42.667-51.2C367.64,44.227,366.787,39.107,363.373,35.693z"/>
			<path d="M402.627,36.547l-42.667,51.2c-3.413,3.413-2.56,8.533,0.853,11.947c0.853,0.853,3.413,1.707,5.12,1.707
				c2.56,0,5.12-0.853,6.827-2.56l42.667-51.2c3.413-3.413,2.56-8.533-0.853-11.947S406.04,33.133,402.627,36.547z"/>
		</g>
	</g>
</g>
<g>
</g>
<g>
</g>
<g>
</g>
<g>
</g>
<g>
</g>
<g>
</g>
<g>
</g>
<g>
</g>
<g>
</g>
<g>
</g>
<g>
</g>
<g>
</g>
<g>
</g>
<g>
</g>
<g>
</g>
</svg>
