<?xml version="1.0" encoding="iso-8859-1"?>
<!-- Generator: Adobe Illustrator 19.0.0, SVG Export Plug-In . SVG Version: 6.00 Build 0)  -->
<svg version="1.1" id="Layer_1" xmlns="http://www.w3.org/2000/svg" xmlns:xlink="http://www.w3.org/1999/xlink" x="0px" y="0px"
	 viewBox="0 0 512 512" style="enable-background:new 0 0 512 512;" xml:space="preserve">
<g transform="translate(1 1)">
	<g>
		<g>
			<path d="M374.467,144.067V24.6c0-14.507-11.093-25.6-25.6-25.6H161.133c-14.507,0-25.6,11.093-25.6,25.6v119.467
				c-5.12,0-8.533,3.413-8.533,8.533v76.8c0,5.12,3.413,8.533,8.533,8.533V255c0,6.572,0.958,12.92,2.722,18.927
				c0.132,0.736,0.352,1.418,0.637,2.051c7.951,24.177,29.2,42.414,54.668,46.435c-4.267,28.16-6.827,68.267-6.827,119.467
				c0,37.547,29.867,68.267,66.56,69.12c0,0,0.853,0,1.707,0s1.707,0,1.707,0c36.693,0,66.56-31.573,66.56-69.12
				c0-51.2-2.56-91.307-6.827-119.467c32.427-5.12,58.027-33.28,58.027-67.413v-17.067c5.12,0,8.533-3.413,8.533-8.533v-76.8
				C383,147.48,379.587,144.067,374.467,144.067z M144.067,161.133h221.867v59.733H144.067V161.133z M152.6,24.6
				c0-4.267,4.267-8.533,8.533-8.533H178.2v76.8c0,5.12,3.413,8.533,8.533,8.533s8.533-3.413,8.533-8.533v-76.8h17.067v102.4
				c0,5.12,3.413,8.533,8.533,8.533s8.533-3.413,8.533-8.533v-102.4h17.067v76.8c0,5.12,3.413,8.533,8.533,8.533
				c5.12,0,8.533-3.413,8.533-8.533v-76.8H280.6v102.4c0,5.12,3.413,8.533,8.533,8.533c5.12,0,8.533-3.413,8.533-8.533v-102.4
				h17.067v76.8c0,5.12,3.413,8.533,8.533,8.533s8.533-3.413,8.533-8.533v-76.8h17.067c5.12,0,8.533,3.413,8.533,8.533v119.467
				H152.6V24.6z M356.547,255c0,28.16-23.04,51.2-51.2,51.2c-2.56,0-5.12,1.707-6.827,3.413s-2.56,4.267-1.707,6.827
				c5.12,27.307,8.533,69.12,8.533,125.44c0.853,28.16-22.187,51.2-49.493,52.053c0,0-1.707,0-2.56,0
				c-27.307,0-49.493-23.893-49.493-52.053c0.853-55.467,3.413-97.28,8.533-124.587c0-0.853,0-1.707,0-2.56
				c0-5.12-3.413-8.533-8.533-8.533c-18.848,0-35.39-10.33-44.278-25.6H203.8c5.12,0,8.533-3.413,8.533-8.533
				c0-5.12-3.413-8.533-8.533-8.533h-50.47c-0.471-2.778-0.73-5.626-0.73-8.533v-17.067h203.947V255z"/>
			<path d="M255,459.8c18.773,0,34.133-15.36,34.133-34.133s-15.36-34.133-34.133-34.133s-34.133,15.36-34.133,34.133
				S236.227,459.8,255,459.8z M255,408.6c9.387,0,17.067,7.68,17.067,17.067s-7.68,17.067-17.067,17.067
				c-9.387,0-17.067-7.68-17.067-17.067S245.613,408.6,255,408.6z"/>
		</g>
	</g>
</g>
<g>
</g>
<g>
</g>
<g>
</g>
<g>
</g>
<g>
</g>
<g>
</g>
<g>
</g>
<g>
</g>
<g>
</g>
<g>
</g>
<g>
</g>
<g>
</g>
<g>
</g>
<g>
</g>
<g>
</g>
</svg>
