<?xml version="1.0" encoding="iso-8859-1"?>
<!-- Generator: Adobe Illustrator 19.0.0, SVG Export Plug-In . SVG Version: 6.00 Build 0)  -->
<svg version="1.1" id="Layer_1" xmlns="http://www.w3.org/2000/svg" xmlns:xlink="http://www.w3.org/1999/xlink" x="0px" y="0px"
	 viewBox="0 0 512 512" style="enable-background:new 0 0 512 512;" xml:space="preserve">
<g transform="translate(1 1)">
	<g>
		<g>
			<path d="M255,459.8c18.773,0,34.133-15.36,34.133-34.133s-15.36-34.133-34.133-34.133c-18.773,0-34.133,15.36-34.133,34.133
				S236.227,459.8,255,459.8z M255,408.6c9.387,0,17.067,7.68,17.067,17.067s-7.68,17.067-17.067,17.067s-17.067-7.68-17.067-17.067
				S245.613,408.6,255,408.6z"/>
			<path d="M493.933,109.933V24.6c0-14.507-11.093-25.6-25.6-25.6H203.8H58.733H41.667c-14.507,0-25.6,11.093-25.6,25.6v85.333
				c-5.12,0-8.533,3.413-8.533,8.533v76.8c0,5.12,3.413,8.533,8.533,8.533v59.733c0,23.893,18.773,42.667,42.667,42.667h85.333
				c10.24,0,20.48,4.267,27.307,12.8c5.973,7.68,9.387,17.92,7.68,28.16l-9.387,57.173c-5.973,34.987,9.387,71.68,39.253,92.16
				C222.573,505.88,238.787,511,255,511s32.427-4.267,46.933-14.507c29.013-21.333,45.227-57.173,39.253-93.013l-9.387-57.173
				c-1.707-10.24,0.853-20.48,7.68-28.16c5.973-7.68,16.213-11.947,26.453-11.947h85.333c23.893,0,42.667-18.773,42.667-42.667
				V203.8c5.12,0,8.533-3.413,8.533-8.533v-76.8C502.467,113.347,499.053,109.933,493.933,109.933z M24.6,127h76.8v8.533
				c0,5.867,1.5,11.4,4.135,16.235c0.791,1.451,1.683,2.839,2.669,4.154c1.314,1.754,2.791,3.378,4.41,4.85
				c2.023,1.84,4.266,3.441,6.684,4.759c1.451,0.791,2.964,1.479,4.53,2.055c1.566,0.576,3.186,1.041,4.848,1.383
				c0.554,0.114,1.113,0.215,1.677,0.302c1.127,0.173,2.271,0.291,3.431,0.351c0.58,0.03,1.163,0.045,1.75,0.045
				c18.773,0,34.133-15.36,34.133-34.133V127H485.4v59.733H24.6V127z M476.867,24.6v85.333h-307.2V73.24
				c5.12,2.56,11.093,3.413,16.213,2.56c8.166-0.961,15.521-5.437,20.391-12.059c3.79-5.008,6.063-11.195,6.063-17.808V45.08V16.067
				h256C473.453,16.067,476.867,19.48,476.867,24.6z M195.267,45.08c0,4.684-2.411,8.965-5.853,11.468
				c-1.876,1.266-4.072,2.043-6.383,2.155c-2.069-0.082-3.923-0.404-5.559-1.067c-1.386-0.625-2.654-1.496-3.751-2.548
				c-2.437-2.533-4.053-5.84-4.053-9.155v-12.8c0-5.12-3.413-8.533-8.533-8.533s-8.533,3.413-8.533,8.533v12.8V50.2v68.267v17.067
				c0,9.387-7.68,17.067-17.067,17.067s-17.067-7.68-17.067-17.067v-17.067v-51.2v-25.6c0-5.12-3.413-8.533-8.533-8.533
				c-5.12,0-8.533,3.413-8.533,8.533v25.6c0,7.035-4.314,13.111-10.428,15.714c-0.017,0.006-0.033,0.013-0.05,0.02
				c-0.19,0.08-0.389,0.141-0.582,0.214c-1.952,0.664-4.085,1.051-6.391,1.099c-0.304-0.007-0.606-0.023-0.906-0.046
				c-8.356-1.068-15.776-8.644-15.776-18.708V16.067h128V45.08z M33.133,24.6c0-4.267,4.267-8.533,8.533-8.533H50.2V65.56v1.707
				c0,14.212,8.806,26.462,21.229,31.578c0.3,0.127,0.606,0.242,0.911,0.361c0.102,0.039,0.201,0.082,0.303,0.119
				c3.145,1.188,6.498,1.909,9.983,2.075c0.43,0,0.859-0.003,1.288-0.011c0.14,0.002,0.278,0.011,0.418,0.011
				c1.042,0,2.082-0.069,3.12-0.169c5.137-0.382,10.039-1.493,13.947-4.098v12.8H33.133V24.6z M477.72,263.533
				c0,14.507-11.093,25.6-25.6,25.6h-85.333c-15.36,0-29.867,6.827-40.107,18.773C316.44,319,312.173,334.36,314.733,349.72
				l9.387,57.173c4.267,29.013-8.533,58.88-32.427,75.947c-21.333,15.36-51.2,15.36-72.533,0
				c-24.747-17.067-36.693-46.933-32.427-75.947l9.387-57.173c2.56-14.507-1.707-29.867-11.947-41.813
				c-10.24-11.947-24.747-18.773-40.107-18.773H58.733c-11.491,0-20.833-6.963-24.224-17.067h24.224c5.12,0,8.533-3.413,8.533-8.533
				S63.853,255,58.733,255h-25.6v-17.067H75.8c5.12,0,8.533-3.413,8.533-8.533s-3.413-8.533-8.533-8.533H33.133V203.8H477.72
				V263.533z"/>
		</g>
	</g>
</g>
<g>
</g>
<g>
</g>
<g>
</g>
<g>
</g>
<g>
</g>
<g>
</g>
<g>
</g>
<g>
</g>
<g>
</g>
<g>
</g>
<g>
</g>
<g>
</g>
<g>
</g>
<g>
</g>
<g>
</g>
</svg>
