<?xml version="1.0" encoding="iso-8859-1"?>
<!-- Generator: Adobe Illustrator 19.0.0, SVG Export Plug-In . SVG Version: 6.00 Build 0)  -->
<svg version="1.1" id="Layer_1" xmlns="http://www.w3.org/2000/svg" xmlns:xlink="http://www.w3.org/1999/xlink" x="0px" y="0px"
	 viewBox="0 0 512 512" style="enable-background:new 0 0 512 512;" xml:space="preserve">
<g transform="translate(1 1)">
	<g>
		<g>
			<path d="M340.333,144.067V24.6c0-14.507-11.093-25.6-25.6-25.6H195.267c-14.507,0-25.6,11.093-25.6,25.6v119.467
				c-5.12,0-8.533,3.413-8.533,8.533v76.8c0,5.12,3.413,8.533,8.533,8.533v34.133c0,15.36,10.24,28.16,23.893,33.28
				c-5.12,37.547-6.827,100.693-6.827,136.533c0,37.547,29.867,68.267,66.56,69.12c0,0,0.853,0,1.707,0s1.707,0,0.853-0.853
				c36.693,0,66.56-31.573,66.56-69.12c0-35.84-0.853-98.987-6.827-136.533c14.507-4.267,24.747-17.067,24.747-32.427v-34.133
				c5.12,0,8.533-3.413,8.533-8.533v-76.8C348.867,147.48,345.453,144.067,340.333,144.067z M178.2,161.133h153.6v59.733H178.2
				V161.133z M186.733,24.6c0-4.267,4.267-8.533,8.533-8.533h17.067v76.8c0,5.12,3.413,8.533,8.533,8.533
				c5.12,0,8.533-3.413,8.533-8.533v-76.8h17.067v102.4c0,5.12,3.413,8.533,8.533,8.533c5.12,0,8.533-3.413,8.533-8.533v-102.4
				H280.6v76.8c0,5.12,3.413,8.533,8.533,8.533c5.12,0,8.533-3.413,8.533-8.533v-76.8h17.067c5.12,0,8.533,3.413,8.533,8.533
				v119.467H186.733V24.6z M322.413,272.067c0,9.387-7.68,17.067-17.067,17.067c-2.56,0-5.12,1.707-6.827,3.413
				s-2.56,4.267-1.707,6.827c6.827,34.987,8.533,104.107,8.533,142.507c0.853,28.16-22.187,51.2-49.493,52.053c0,0-1.707,0-2.56,0
				c-27.307,0-49.493-23.893-49.493-52.053c0-38.4,1.707-106.667,8.533-141.653c0-0.853,0-1.707,0-2.56
				c0-5.12-3.413-8.533-8.533-8.533c-9.387,0-17.067-7.68-17.067-17.067H229.4c5.12,0,8.533-3.413,8.533-8.533S234.52,255,229.4,255
				h-42.667v-17.067h135.68V272.067z"/>
			<path d="M220.867,425.667c0,18.773,15.36,34.133,34.133,34.133s34.133-15.36,34.133-34.133s-15.36-34.133-34.133-34.133
				S220.867,406.893,220.867,425.667z M255,408.6c9.387,0,17.067,7.68,17.067,17.067s-7.68,17.067-17.067,17.067
				c-9.387,0-17.067-7.68-17.067-17.067S245.613,408.6,255,408.6z"/>
		</g>
	</g>
</g>
<g>
</g>
<g>
</g>
<g>
</g>
<g>
</g>
<g>
</g>
<g>
</g>
<g>
</g>
<g>
</g>
<g>
</g>
<g>
</g>
<g>
</g>
<g>
</g>
<g>
</g>
<g>
</g>
<g>
</g>
</svg>
