<?xml version="1.0" encoding="iso-8859-1"?>
<!-- Generator: Adobe Illustrator 19.0.0, SVG Export Plug-In . SVG Version: 6.00 Build 0)  -->
<svg version="1.1" id="Layer_1" xmlns="http://www.w3.org/2000/svg" xmlns:xlink="http://www.w3.org/1999/xlink" x="0px" y="0px"
	 viewBox="0 0 512 512" style="enable-background:new 0 0 512 512;" xml:space="preserve">
<g transform="translate(1 1)">
	<g>
		<g>
			<path d="M185.453,27.16l-17.067,17.067c-3.413,3.413-3.413,8.533,0,11.947c1.707,1.707,4.267,2.56,5.973,2.56
				c2.56,0,4.267-0.853,5.973-2.56L197.4,39.107c3.413-3.413,3.413-8.533,0-11.947S188.867,23.747,185.453,27.16z"/>
			<path d="M245.187,27.16L228.12,44.227c-3.413,3.413-3.413,8.533,0,11.947c1.707,1.707,3.413,2.56,5.973,2.56
				s4.267-0.853,5.973-2.56l17.067-17.067c3.413-3.413,3.413-8.533,0-11.947C253.72,23.747,248.6,23.747,245.187,27.16z"/>
			<path d="M304.92,27.16l-17.067,17.067c-3.413,3.413-3.413,8.533,0,11.947c1.707,1.707,3.413,2.56,5.973,2.56
				c2.56,0,4.267-0.853,5.973-2.56l17.067-17.067c3.413-3.413,3.413-8.533,0-11.947S308.333,23.747,304.92,27.16z"/>
			<path d="M362.093,34.465V24.6c0-14.507-11.093-25.6-25.6-25.6H148.76c-14.507,0-25.6,11.093-25.6,25.6v34.133
				c0,14.507,11.947,25.6,25.6,25.6v51.2c0,18.773,15.36,34.133,34.133,34.133c18.773,0,34.133-15.36,34.133-34.133v-4.267
				c5.12,2.56,11.093,4.267,17.067,4.267c18.773,0,34.133-15.36,34.133-34.133V84.333h68.267c14.507,0,25.6-11.093,25.6-25.6v-5.693
				c4.617,3.063,7.68,8.302,7.68,14.226v24.747c0,6.827-3.413,11.947-19.627,17.92c0,0.853-0.853,0.853-0.853,0.853l-93.867,51.2
				c-12.8,7.68-21.333,20.48-21.333,33.28v128h-42.667c-2.56,0-5.12,1.707-6.827,3.413c-1.707,1.707-2.56,4.267-1.707,6.827
				l8.533,42.667c0.853,4.267,4.267,6.827,8.533,6.827h8.533v93.867c0,18.773,15.36,34.133,34.133,34.133
				c18.773,0,34.133-15.36,34.133-34.133V383h8.533c4.267,0,7.68-2.56,8.533-6.827l8.533-42.667c0.853-2.56,0-5.12-1.707-6.827
				c-1.707-2.56-4.267-3.413-6.827-3.413H251.16v-128c0-5.973,5.973-13.653,11.947-17.92l93.013-51.2
				c9.387-3.413,30.72-11.093,30.72-33.28v-25.6C386.84,51.747,376.339,38.569,362.093,34.465z M251.16,101.4
				c0,9.387-7.68,17.067-17.067,17.067c-9.387,0-17.067-7.68-17.067-17.067c0-5.12-3.413-8.533-8.533-8.533
				s-8.533,3.413-8.533,8.533v34.133c0,9.387-7.68,17.067-17.067,17.067s-17.067-7.68-17.067-17.067v-51.2h85.333V101.4z
				 M336.493,67.267h-76.8h-102.4h-8.533c-5.12,0-8.533-3.413-8.533-8.533V24.6c0-4.267,4.267-8.533,8.533-8.533h187.733
				c5.12,0,8.533,3.413,8.533,8.533v13.032c-0.55,1.169-0.853,2.525-0.853,4.035s0.304,2.865,0.853,4.035v13.032
				C345.027,63.853,341.613,67.267,336.493,67.267z M278.467,365.933h-10.24c-5.12,0-8.533,3.413-8.533,8.533v102.4
				c0,9.387-7.68,17.067-17.067,17.067s-17.067-7.68-17.067-17.067v-8.533h8.533c5.12,0,8.533-3.413,8.533-8.533
				c0-5.12-3.413-8.533-8.533-8.533h-8.533V434.2h8.533c5.12,0,8.533-3.413,8.533-8.533s-3.413-8.533-8.533-8.533h-8.533v-42.667
				c0-5.12-3.413-8.533-8.533-8.533h-10.24l-5.12-25.6h81.92L278.467,365.933z"/>
		</g>
	</g>
</g>
<g>
</g>
<g>
</g>
<g>
</g>
<g>
</g>
<g>
</g>
<g>
</g>
<g>
</g>
<g>
</g>
<g>
</g>
<g>
</g>
<g>
</g>
<g>
</g>
<g>
</g>
<g>
</g>
<g>
</g>
</svg>
