<?xml version="1.0" encoding="iso-8859-1"?>
<!-- Generator: Adobe Illustrator 19.0.0, SVG Export Plug-In . SVG Version: 6.00 Build 0)  -->
<svg version="1.1" id="Layer_1" xmlns="http://www.w3.org/2000/svg" xmlns:xlink="http://www.w3.org/1999/xlink" x="0px" y="0px"
	 viewBox="0 0 512 512" style="enable-background:new 0 0 512 512;" xml:space="preserve">
<g transform="translate(1 1)">
	<g>
		<g>
			<path d="M255,459.8c18.773,0,34.133-15.36,34.133-34.133s-15.36-34.133-34.133-34.133c-18.773,0-34.133,15.36-34.133,34.133
				S236.227,459.8,255,459.8z M255,408.6c9.387,0,17.067,7.68,17.067,17.067s-7.68,17.067-17.067,17.067s-17.067-7.68-17.067-17.067
				S245.613,408.6,255,408.6z"/>
			<path d="M493.933,144.067V24.6c0-14.507-11.093-25.6-25.6-25.6H41.667c-14.507,0-25.6,11.093-25.6,25.6v119.467
				c-5.12,0-8.533,3.413-8.533,8.533v76.8c0,5.12,3.413,8.533,8.533,8.533v34.133c0,37.547,30.72,68.267,68.267,68.267H193.56
				c-5.973,34.987-6.827,70.827-6.827,101.547c0,37.547,29.867,68.267,66.56,69.12c0,0,0.853,0,1.707,0s1.707,0,1.707,0
				c36.693,0,66.56-31.573,66.56-69.12c0-31.573-0.853-66.56-6.827-101.547h109.227c37.547,0,68.267-30.72,68.267-68.267v-34.133
				c5.12,0,8.533-3.413,8.533-8.533v-76.8C502.467,147.48,499.053,144.067,493.933,144.067z M24.6,161.133h460.8v59.733H24.6
				V161.133z M33.133,24.6c0-4.267,4.267-8.533,8.533-8.533h17.067v76.8c0,5.12,3.413,8.533,8.533,8.533s8.533-3.413,8.533-8.533
				v-76.8h17.067v102.4c0,5.12,3.413,8.533,8.533,8.533s8.533-3.413,8.533-8.533v-102.4H127v76.8c0,5.12,3.413,8.533,8.533,8.533
				s8.533-3.413,8.533-8.533v-76.8h17.067v102.4c0,5.12,3.413,8.533,8.533,8.533c5.12,0,8.533-3.413,8.533-8.533v-102.4h17.067v76.8
				c0,5.12,3.413,8.533,8.533,8.533s8.533-3.413,8.533-8.533v-76.8H229.4v102.4c0,5.12,3.413,8.533,8.533,8.533
				c5.12,0,8.533-3.413,8.533-8.533v-102.4h17.067v76.8c0,5.12,3.413,8.533,8.533,8.533s8.533-3.413,8.533-8.533v-76.8h17.067v102.4
				c0,5.12,3.413,8.533,8.533,8.533s8.533-3.413,8.533-8.533v-102.4H331.8v76.8c0,5.12,3.413,8.533,8.533,8.533
				s8.533-3.413,8.533-8.533v-76.8h17.067v102.4c0,5.12,3.413,8.533,8.533,8.533s8.533-3.413,8.533-8.533v-102.4h17.067v76.8
				c0,5.12,3.413,8.533,8.533,8.533s8.533-3.413,8.533-8.533v-76.8H434.2v102.4c0,5.12,3.413,8.533,8.533,8.533
				s8.533-3.413,8.533-8.533v-102.4h17.067c5.12,0,8.533,3.413,8.533,8.533v119.467H33.133V24.6z M476.013,272.067
				c0,28.16-23.04,51.2-51.2,51.2H305.347c-2.56,0-5.12,1.707-6.827,3.413c-1.707,1.707-2.56,4.267-1.707,6.827
				c6.827,36.693,8.533,75.093,8.533,108.373c0.853,28.16-22.187,51.2-49.493,52.053c0,0-1.707,0-2.56,0
				c-27.307,0-49.493-23.893-49.493-52.053c0-33.28,1.707-71.68,8.533-108.373c0.853-2.56,0-5.12-1.707-6.827
				c-1.707-2.56-4.267-3.413-6.827-3.413H84.333c-15.076,0-28.68-6.609-38.071-17.067h12.471c5.12,0,8.533-3.413,8.533-8.533
				s-3.413-8.533-8.533-8.533H36.086c-1.905-5.345-2.953-11.089-2.953-17.067H75.8c5.12,0,8.533-3.413,8.533-8.533
				S80.92,255,75.8,255H33.133v-17.067h442.88V272.067z"/>
		</g>
	</g>
</g>
<g>
</g>
<g>
</g>
<g>
</g>
<g>
</g>
<g>
</g>
<g>
</g>
<g>
</g>
<g>
</g>
<g>
</g>
<g>
</g>
<g>
</g>
<g>
</g>
<g>
</g>
<g>
</g>
<g>
</g>
</svg>
