<?xml version="1.0" encoding="iso-8859-1"?>
<!-- Generator: Adobe Illustrator 19.0.0, SVG Export Plug-In . SVG Version: 6.00 Build 0)  -->
<svg version="1.1" id="Layer_1" xmlns="http://www.w3.org/2000/svg" xmlns:xlink="http://www.w3.org/1999/xlink" x="0px" y="0px"
	 viewBox="0 0 512 512" style="enable-background:new 0 0 512 512;" xml:space="preserve">
<g transform="translate(1 1)">
	<g>
		<g>
			<path d="M255,459.8c18.773,0,34.133-15.36,34.133-34.133s-15.36-34.133-34.133-34.133s-34.133,15.36-34.133,34.133
				S236.227,459.8,255,459.8z M255,408.6c9.387,0,17.067,7.68,17.067,17.067s-7.68,17.067-17.067,17.067
				c-9.387,0-17.067-7.68-17.067-17.067S245.613,408.6,255,408.6z"/>
			<path d="M425.667,109.933V24.6c0-14.507-11.093-25.6-25.6-25.6h-128H127h-17.067c-14.507,0-25.6,11.093-25.6,25.6v85.333
				c-5.12,0-8.533,3.413-8.533,8.533v76.8c0,5.12,3.413,8.533,8.533,8.533v59.733c0,23.893,18.773,42.667,42.667,42.667h17.067
				c10.24,0,19.627,4.267,26.453,11.947c6.827,8.533,9.387,18.773,7.68,29.013l-8.533,57.173
				c-5.973,34.987,9.387,71.68,39.253,92.16C222.573,505.88,238.787,511,255,511s32.427-4.267,46.08-14.507
				c29.013-20.48,45.227-56.32,39.253-92.16L331.8,347.16c-1.707-11.093,0.853-21.333,7.68-29.013
				c6.827-7.68,16.213-11.947,26.453-11.947H383c23.893,0,42.667-18.773,42.667-42.667V203.8c5.12,0,8.533-3.413,8.533-8.533v-76.8
				C434.2,113.347,430.787,109.933,425.667,109.933z M92.867,127h76.8v8.533c0,18.773,15.36,34.133,34.133,34.133
				c18.773,0,34.133-15.36,34.133-34.133V127h179.2v59.733H92.867V127z M280.6,45.933V16.067h119.467
				c5.12,0,8.533,3.413,8.533,8.533v85.333H237.933V73.24c4.267,1.707,8.533,2.56,12.8,2.56C266.947,75.8,280.6,62.147,280.6,45.933
				z M263.533,45.933c0,6.827-5.973,12.8-12.8,12.8c-6.827,0-12.8-5.973-12.8-12.8v-12.8c0-5.12-3.413-8.533-8.533-8.533
				c-5.12,0-8.533,3.413-8.533,8.533v12.8V50.2v68.267v17.067c0,9.387-7.68,17.067-17.067,17.067s-17.067-7.68-17.067-17.067
				v-17.067v-51.2v-25.6c0-5.12-3.413-8.533-8.533-8.533s-8.533,3.413-8.533,8.533v25.6c0,9.387-7.68,17.067-17.067,17.067
				s-17.067-7.68-17.067-17.067v-51.2h128V45.933z M101.4,24.6c0-4.267,4.267-8.533,8.533-8.533h8.533v51.2
				c0,18.773,15.36,34.133,34.133,34.133c5.973,0,11.947-1.707,17.067-4.267v12.8H101.4V24.6z M409.453,263.533
				c0,14.507-11.093,25.6-25.6,25.6h-17.067c-15.36,0-29.013,6.827-39.253,17.92c-10.24,11.947-14.507,27.307-11.947,42.667
				l8.533,57.173c4.267,29.013-8.533,58.88-32.427,75.947c-21.333,15.36-51.2,15.36-72.533,0
				c-24.747-17.067-36.693-46.933-32.427-75.947l8.533-57.173c2.56-15.36-1.707-30.72-11.947-42.667
				c-9.387-11.093-23.893-17.92-39.253-17.92H127c-11.491,0-20.833-6.963-24.224-17.067H127c5.12,0,8.533-3.413,8.533-8.533
				S132.12,255,127,255h-25.6v-17.067h42.667c5.12,0,8.533-3.413,8.533-8.533s-3.413-8.533-8.533-8.533H101.4V203.8h308.053V263.533
				z"/>
		</g>
	</g>
</g>
<g>
</g>
<g>
</g>
<g>
</g>
<g>
</g>
<g>
</g>
<g>
</g>
<g>
</g>
<g>
</g>
<g>
</g>
<g>
</g>
<g>
</g>
<g>
</g>
<g>
</g>
<g>
</g>
<g>
</g>
</svg>
