<?xml version="1.0" encoding="iso-8859-1"?>
<!-- Generator: Adobe Illustrator 19.0.0, SVG Export Plug-In . SVG Version: 6.00 Build 0)  -->
<svg version="1.1" id="Layer_1" xmlns="http://www.w3.org/2000/svg" xmlns:xlink="http://www.w3.org/1999/xlink" x="0px" y="0px"
	 viewBox="0 0 512.308 512.308" style="enable-background:new 0 0 512.308 512.308;" xml:space="preserve">
<g transform="translate(1 1)">
	<g>
		<path d="M495.948,40.861l-2.56-2.56c-18.773-17.92-47.787-17.92-67.413,0l-41.101,38.613c-0.244,0.199-0.483,0.41-0.713,0.64
			c-0.066,0.066-0.122,0.137-0.185,0.204L131.899,314.579c-1.795,0.019-3.609,0.083-5.445,0.202
			c-16.213,0.853-31.573,8.533-40.96,20.48c-7.68,9.387-11.093,20.48-9.387,31.573s-1.707,21.333-9.387,29.013
			c-25.6,24.747-46.08,29.867-58.88,29.867c-4.267,0-7.68,2.56-8.533,5.973s0,6.827,3.413,9.387s62.293,44.373,119.467,44.373
			c23.04,0,46.08-6.827,64.853-26.453c9.54-9.54,16.474-20.786,20.778-32.746l288.128-308.587
			C516.428,95.474,516.428,61.341,495.948,40.861z M175.948,447.901c-41.813,41.813-110.933,10.24-144.213-8.533
			c13.653-5.12,29.867-13.653,46.933-29.867c11.093-11.947,17.067-27.307,14.507-43.52c-0.853-8.533,2.56-14.507,5.973-18.773
			c5.973-8.533,17.92-13.653,29.013-14.507c7.788-0.599,14.733-0.247,21.097,1.157c6.864,1.692,13.041,4.402,18.574,8.154
			c0.288,0.2,0.574,0.406,0.86,0.612c0.165,0.116,0.327,0.236,0.491,0.354c2.823,2.085,5.567,4.495,8.268,7.25
			c0.647,0.683,1.286,1.379,1.911,2.1c15.36,17.067,20.48,42.667,13.653,65.707c-0.15,0.748-0.216,1.496-0.213,2.23
			C189.479,430.45,183.857,439.991,175.948,447.901z M483.148,105.714l-268.8,289.28c-0.853-19.627-8.533-39.253-21.333-53.76
			c-7.775-9.07-17.029-15.676-27.755-20.201c-3.419-1.509-6.955-2.751-10.607-3.729L390.044,95.384l15.45,15.45
			c1.707,1.707,3.413,2.56,5.973,2.56c1.707,0,4.267-0.853,5.973-2.56c3.413-3.413,3.413-8.533,0-11.947l-15.098-15.098
			l12.299-11.595l14.746,14.746c1.707,1.707,3.413,2.56,5.973,2.56s4.267-0.853,5.973-2.56c3.413-3.413,3.413-8.533,0-11.947
			L426.94,60.6l10.981-10.352c12.8-11.093,31.573-11.947,43.52,0l1.707,2.56C497.654,67.314,497.654,90.354,483.148,105.714z"/>
	</g>
</g>
<g>
</g>
<g>
</g>
<g>
</g>
<g>
</g>
<g>
</g>
<g>
</g>
<g>
</g>
<g>
</g>
<g>
</g>
<g>
</g>
<g>
</g>
<g>
</g>
<g>
</g>
<g>
</g>
<g>
</g>
</svg>
