<?xml version="1.0" encoding="iso-8859-1"?>
<!-- Generator: Adobe Illustrator 19.0.0, SVG Export Plug-In . SVG Version: 6.00 Build 0)  -->
<svg version="1.1" id="Layer_1" xmlns="http://www.w3.org/2000/svg" xmlns:xlink="http://www.w3.org/1999/xlink" x="0px" y="0px"
	 viewBox="0 0 503.607 503.607" style="enable-background:new 0 0 503.607 503.607;" xml:space="preserve">
<g transform="translate(1 1)">
	<g>
		<g>
			<path d="M477.426,351.525H361.944l98.695-55.397c7.554-4.197,12.59-10.911,15.108-19.305c2.518-8.393,1.679-16.787-2.518-24.341
				l-43.646-77.22c-4.197-6.715-10.911-11.751-18.466-14.269c-7.554-2.518-15.948-1.679-22.662,2.518l-87.798,49.237l54.224-84.489
				c9.233-15.108,5.036-35.252-10.072-44.485l-70.505-45.325c-15.948-10.072-36.931-5.875-47.003,10.072l-60.433,93.722V24.18
				c0-15.108-10.072-25.18-25.18-25.18H40.967c-15.108,0-25.18,10.072-25.18,25.18v328.698C5.849,356.213-1,365.403-1,376.705
				v100.721c0,14.269,10.911,25.18,25.18,25.18h453.246c14.269,0,25.18-10.911,25.18-25.18V376.705
				C502.607,362.436,491.695,351.525,477.426,351.525z M396.01,176.941c3.357-1.679,6.715-1.679,10.072-0.839
				c4.197,0.839,6.715,2.518,8.393,5.875l43.646,77.22c2.518,3.357,2.518,6.715,1.679,10.911c-0.839,4.197-3.357,7.554-6.715,9.233
				l-128.42,72.184H87.131l45.044-25.46l147.165-82.816c1.385,0,2.197-1.139,2.911-2.01L396.01,176.941z M241.57,57.754
				c5.036-7.554,15.948-10.072,24.341-5.036l70.505,45.325c7.554,4.197,9.233,14.269,5.036,20.984L270.108,229.82L52.718,351.525
				L241.57,57.754z M40.967,15.787h100.721c5.875,0,8.393,2.518,8.393,8.393v144.097L32.574,350.515V24.18
				C32.574,18.305,35.092,15.787,40.967,15.787z M485.82,477.426c0,5.036-3.357,8.393-8.393,8.393H24.18
				c-5.036,0-8.393-3.357-8.393-8.393V376.705c0-5.036,3.357-8.393,8.393-8.393h12.59h0.839h16.787h272.787
				c0.839,0,2.518,0,3.357,0.839l1.495-0.839h145.39c5.036,0,8.393,4.197,8.393,8.393V477.426z"/>
			<path d="M217.229,385.098h-67.148c-5.036,0-8.393,3.357-8.393,8.393v67.148c0,5.036,3.357,8.393,8.393,8.393h67.148
				c5.036,0,8.393-3.357,8.393-8.393v-67.148C225.623,388.456,222.266,385.098,217.229,385.098z M208.836,452.246h-50.361v-50.361
				h50.361V452.246z"/>
			<path d="M326.344,385.098h-67.148c-5.036,0-8.393,3.357-8.393,8.393v67.148c0,5.036,3.357,8.393,8.393,8.393h67.148
				c5.036,0,8.393-3.357,8.393-8.393v-67.148C334.738,388.456,331.38,385.098,326.344,385.098z M317.951,452.246H267.59v-50.361
				h50.361V452.246z"/>
			<path d="M435.459,385.098h-67.148c-5.036,0-8.393,3.357-8.393,8.393v67.148c0,5.036,3.357,8.393,8.393,8.393h67.148
				c5.036,0,8.393-3.357,8.393-8.393v-67.148C443.852,388.456,440.495,385.098,435.459,385.098z M427.066,452.246h-50.361v-50.361
				h50.361V452.246z"/>
			<path d="M74.541,385.098c-23.502,0-41.967,18.466-41.967,41.967s18.466,41.967,41.967,41.967s41.967-18.466,41.967-41.967
				S98.043,385.098,74.541,385.098z M74.541,452.246c-14.269,0-25.18-10.911-25.18-25.18s10.911-25.18,25.18-25.18
				c14.269,0,25.18,10.911,25.18,25.18S88.81,452.246,74.541,452.246z"/>
		</g>
	</g>
</g>
<g>
</g>
<g>
</g>
<g>
</g>
<g>
</g>
<g>
</g>
<g>
</g>
<g>
</g>
<g>
</g>
<g>
</g>
<g>
</g>
<g>
</g>
<g>
</g>
<g>
</g>
<g>
</g>
<g>
</g>
</svg>
