<?xml version="1.0" encoding="iso-8859-1"?>
<!-- Generator: Adobe Illustrator 19.0.0, SVG Export Plug-In . SVG Version: 6.00 Build 0)  -->
<svg version="1.1" id="Layer_1" xmlns="http://www.w3.org/2000/svg" xmlns:xlink="http://www.w3.org/1999/xlink" x="0px" y="0px"
	 viewBox="0 0 503.607 503.607" style="enable-background:new 0 0 503.607 503.607;" xml:space="preserve">
<g transform="translate(1 1)">
	<g>
		<g>
			<path d="M485.82,158.475h-33.574c-9.233,0-16.787,7.554-16.787,16.787v8.393h-74.702c-24.341,0-47.843-5.036-67.987-15.108
				c-26.02-12.59-57.075-12.59-83.095,0c-20.144,10.072-43.646,15.108-67.987,15.108H66.148v-8.393
				c0-9.233-7.554-16.787-16.787-16.787H15.787C6.554,158.475-1,166.03-1,175.262v151.082c0,9.233,7.554,16.787,16.787,16.787
				h33.574c9.233,0,16.787-7.554,16.787-16.787v-8.393h75.541c24.341,0,47.843,5.036,67.987,15.108
				c12.59,6.715,26.859,10.072,41.128,10.072c15.108,0,28.538-3.357,41.128-10.072c20.144-10.072,43.646-15.108,67.987-15.108
				h75.541v8.393c0,9.233,7.554,16.787,16.787,16.787h33.574c9.233,0,16.787-7.554,16.787-16.787V175.262
				C502.607,166.03,495.052,158.475,485.82,158.475z M49.361,326.344H15.787V175.262h33.574v16.787v117.508V326.344z
				 M360.757,301.164c-26.859,0-52.879,5.875-75.541,16.787c-21.823,10.911-47.003,10.911-67.987,0
				c-22.662-10.911-48.682-16.787-75.541-16.787H66.148V200.443h75.541c26.859,0,52.879-5.875,75.541-16.787
				c20.984-10.911,47.003-10.911,67.987,0c22.662,10.911,48.682,16.787,75.541,16.787h74.702v16.787h-33.574
				c-5.036,0-8.393,3.357-8.393,8.393s3.357,8.393,8.393,8.393h33.574v67.148H360.757z M485.82,326.344h-33.574v-12.819
				c0.541-1.15,0.839-2.484,0.839-3.968V192.049c0-1.485-0.299-2.818-0.839-3.968v-12.818h33.574V326.344z"/>
			<path d="M311.236,210.515c-11.751-2.518-23.502-7.554-34.413-12.59c-16.787-8.393-36.931-8.393-52.879,0
				c-10.911,5.036-22.662,9.233-34.413,12.59c-4.197,0.839-6.715,5.875-5.875,10.072s5.036,6.715,8.393,6.715
				c0.839,0,1.679,0,1.679-0.839c13.43-3.357,26.02-8.393,37.77-14.269c11.751-5.875,26.02-5.875,37.771,0
				c11.751,5.875,24.341,10.911,37.771,14.269c4.197,1.679,9.233-1.679,10.072-5.875C318.79,216.39,315.433,211.354,311.236,210.515
				z"/>
			<path d="M250.803,133.295c5.036,0,8.393-3.357,8.393-8.393V91.328c0-5.036-3.357-8.393-8.393-8.393s-8.393,3.357-8.393,8.393
				v33.574C242.41,129.938,245.767,133.295,250.803,133.295z"/>
			<path d="M250.803,368.311c-5.036,0-8.393,3.357-8.393,8.393v33.574c0,5.036,3.357,8.393,8.393,8.393s8.393-3.357,8.393-8.393
				v-33.574C259.197,371.669,255.839,368.311,250.803,368.311z"/>
			<path d="M343.131,166.869c2.518,0,4.197-0.839,5.875-2.518l24.341-24.341c3.357-3.357,3.357-8.393,0-11.751
				c-3.357-3.357-8.393-3.357-11.751,0L337.256,152.6c-3.357,3.357-3.357,8.393,0,11.751
				C338.934,166.03,340.613,166.869,343.131,166.869z"/>
			<path d="M152.6,337.256l-23.502,23.502c-3.357,3.357-3.357,8.393,0,11.751c1.679,1.679,3.357,2.518,5.875,2.518
				c1.679,0,4.197-0.839,5.875-2.518l23.502-23.502c3.357-3.357,3.357-8.393,0-11.751S155.957,333.898,152.6,337.256z"/>
			<path d="M153.439,164.351c1.679,1.679,3.357,2.518,5.875,2.518s4.197-0.839,5.875-2.518c3.357-3.357,3.357-8.393,0-11.751
				l-24.341-24.341c-3.357-3.357-8.393-3.357-11.751,0c-3.357,3.357-3.357,8.393,0,11.751L153.439,164.351z"/>
			<path d="M350.685,337.256c-3.357-3.357-8.393-3.357-11.751,0c-3.357,3.357-3.357,8.393,0,11.751l23.502,23.502
				c1.679,1.679,3.357,2.518,5.875,2.518c1.679,0,4.197-0.839,5.875-2.518c3.357-3.357,3.357-8.393,0-11.751L350.685,337.256z"/>
		</g>
	</g>
</g>
<g>
</g>
<g>
</g>
<g>
</g>
<g>
</g>
<g>
</g>
<g>
</g>
<g>
</g>
<g>
</g>
<g>
</g>
<g>
</g>
<g>
</g>
<g>
</g>
<g>
</g>
<g>
</g>
<g>
</g>
</svg>
