<?xml version="1.0" encoding="iso-8859-1"?>
<!-- Generator: Adobe Illustrator 19.0.0, SVG Export Plug-In . SVG Version: 6.00 Build 0)  -->
<svg version="1.1" id="Layer_1" xmlns="http://www.w3.org/2000/svg" xmlns:xlink="http://www.w3.org/1999/xlink" x="0px" y="0px"
	 viewBox="0 0 503.607 503.607" style="enable-background:new 0 0 503.607 503.607;" xml:space="preserve">
<g transform="translate(1 1)">
	<g>
		<g>
			<path d="M485.82,104.757h-33.574c-9.233,0-16.787,7.554-16.787,16.787v8.393H66.148v-8.393c0-9.233-7.554-16.787-16.787-16.787
				H15.787C6.554,104.757-1,112.312-1,121.544v151.082c0,9.233,7.554,16.787,16.787,16.787h33.574
				c9.233,0,16.787-7.554,16.787-16.787v-8.393h369.311v8.393c0,9.233,7.554,16.787,16.787,16.787h33.574
				c9.233,0,16.787-7.554,16.787-16.787V121.544C502.607,112.312,495.052,104.757,485.82,104.757z M49.361,272.626H15.787V121.544
				h33.574v16.787v117.508V272.626z M183.656,247.446v-16.787h25.18c5.036,0,8.393-3.357,8.393-8.393v-25.18h25.18
				c5.036,0,8.393-3.357,8.393-8.393s-3.357-8.393-8.393-8.393h-33.574c-5.036,0-8.393,3.357-8.393,8.393v25.18h-25.18
				c-5.036,0-8.393,3.357-8.393,8.393v25.18H66.148v-67.148h25.18c5.036,0,8.393-3.357,8.393-8.393c0-5.036-3.357-8.393-8.393-8.393
				h-25.18v-16.787h369.311v16.787h-33.574c-5.036,0-8.393,3.357-8.393,8.393c0,5.036,3.357,8.393,8.393,8.393h33.574v67.148
				H183.656z M485.82,272.626h-33.574v-16.787V138.331v-16.787h33.574V272.626z"/>
			<path d="M181.977,285.216c-2.518-4.197-10.072-4.197-13.43,0l-24.341,34.413c-15.948,21.823-15.948,47.843,0.839,64.63
				c7.554,8.393,18.466,12.59,30.216,12.59c11.751,0,22.662-5.036,30.216-11.751c11.751-11.751,20.984-31.895,0.839-64.63
				L181.977,285.216z M194.567,371.669c-10.072,10.072-27.698,10.072-37.771,0c-10.911-10.911-10.072-27.698,0.839-42.807
				l17.626-25.18l18.466,24.341C210.515,355.721,198.764,367.472,194.567,371.669z"/>
			<path d="M124.902,163.511c-5.036,0-8.393,3.357-8.393,8.393c0,5.036,3.357,8.393,8.393,8.393s8.393-3.357,8.393-8.393
				C133.295,166.869,129.938,163.511,124.902,163.511z"/>
			<path d="M351.525,163.511h-50.361c-5.036,0-8.393,3.357-8.393,8.393c0,5.036,3.357,8.393,8.393,8.393h50.361
				c5.036,0,8.393-3.357,8.393-8.393C359.918,166.869,356.561,163.511,351.525,163.511z"/>
		</g>
	</g>
</g>
<g>
</g>
<g>
</g>
<g>
</g>
<g>
</g>
<g>
</g>
<g>
</g>
<g>
</g>
<g>
</g>
<g>
</g>
<g>
</g>
<g>
</g>
<g>
</g>
<g>
</g>
<g>
</g>
<g>
</g>
</svg>
