<?xml version="1.0" encoding="iso-8859-1"?>
<!-- Generator: Adobe Illustrator 19.0.0, SVG Export Plug-In . SVG Version: 6.00 Build 0)  -->
<svg version="1.1" id="Layer_1" xmlns="http://www.w3.org/2000/svg" xmlns:xlink="http://www.w3.org/1999/xlink" x="0px" y="0px"
	 viewBox="0 0 503.607 503.607" style="enable-background:new 0 0 503.607 503.607;" xml:space="preserve">
<g transform="translate(1 1)">
	<g>
		<g>
			<path d="M477.426,255H333.384c-3.335-9.938-12.525-16.787-23.827-16.787h-33.574v-48.776c3.573-2.08,6.87-4.583,9.821-7.445
				l42.218,7.539c2.518,0.839,4.197,0.839,6.715,0.839c5.875,0,10.911-1.679,15.108-5.036c6.715-5.036,10.072-11.751,10.072-20.144
				v-38.61c0-8.393-3.357-15.108-10.072-20.144c-6.715-5.036-14.269-6.715-21.823-4.197l-42.218,7.539
				c-9.08-8.806-21.432-14.254-35.001-14.254c-13.57,0-25.922,5.448-35.001,14.254l-42.218-7.539
				c-7.554-1.679-15.108-0.839-21.823,4.197c-6.715,5.036-10.072,11.751-10.072,20.144v38.61c0,8.393,4.197,15.948,10.072,20.144
				c4.197,3.357,10.072,5.036,15.108,5.036c2.518,0,4.197,0,6.715-0.839l42.218-7.539c2.951,2.862,6.248,5.366,9.821,7.445v48.776
				h-33.574c-11.302,0-20.492,6.849-23.827,16.787H24.18C9.911,255-1,265.911-1,280.18v83.934c0,14.269,10.911,25.18,25.18,25.18
				h144.042c3.335,9.938,12.525,16.787,23.827,16.787h117.508c11.302,0,20.492-6.849,23.827-16.787h144.042
				c14.269,0,25.18-10.911,25.18-25.18V280.18C502.607,265.911,491.695,255,477.426,255z M331.38,118.187h0.839
				c2.518,0,5.036,0,7.554,1.679c2.518,1.679,3.357,4.197,3.357,6.715v38.61c0,2.518-0.839,5.036-3.357,5.875
				c-2.518,1.679-5.036,2.518-7.554,1.679h-0.839l-34.868-5.811c2.556-5.508,4.144-11.544,4.542-17.893
				c0.009-0.145,0.025-0.288,0.033-0.433c0.049-0.902,0.077-1.808,0.077-2.722c0-0.913-0.028-1.819-0.077-2.721
				c-0.009-0.155-0.025-0.308-0.035-0.462c-0.419-6.637-2.129-12.938-4.896-18.645L331.38,118.187z M275.419,123.122
				c0.176,0.323,0.363,0.638,0.564,0.94c4.354,4.976,6.86,10.413,7.868,15.97c0.02,0.111,0.041,0.221,0.06,0.332
				c0.052,0.307,0.097,0.614,0.14,0.922c0.035,0.254,0.068,0.509,0.098,0.765c0.027,0.232,0.053,0.465,0.075,0.698
				c0.032,0.338,0.057,0.677,0.078,1.018c0.011,0.178,0.026,0.357,0.034,0.535c0.025,0.525,0.04,1.053,0.04,1.584
				c0,0.531-0.016,1.058-0.04,1.583c-0.392,7.76-3.636,14.737-8.353,20.24c-0.597,0.597-1.097,1.243-1.494,1.913
				c-6.078,6.066-14.453,9.832-23.664,9.838c-0.015,0-0.029,0-0.044,0c-9.693-0.006-18.455-4.179-24.594-10.81
				c-0.176-0.323-0.363-0.638-0.565-0.94c-1.025-1.025-2.05-2.254-3.014-3.668c-3.1-4.787-5.024-10.398-5.334-16.42
				c-0.028-0.57-0.045-1.147-0.045-1.735c0-10.072,5.036-17.626,8.393-21.823c0.522-0.522,0.93-1.081,1.25-1.659
				c6.102-6.217,14.584-10.092,23.93-10.092C260.505,112.311,269.275,116.486,275.419,123.122z M170.226,173.584h-0.839
				c-2.518,0-5.036,0-7.554-1.679c-2.518-1.679-3.357-4.197-3.357-6.715v-38.61c0-2.518,1.679-5.036,3.357-6.715
				c1.679-0.839,3.357-1.679,5.036-1.679c0.839,0,1.679,0,2.518,0.839h0.839l34.868,5.811c-2.556,5.508-4.144,11.544-4.542,17.893
				c-0.009,0.145-0.025,0.288-0.033,0.433c-0.049,0.902-0.077,1.808-0.077,2.722c0,0.913,0.028,1.819,0.077,2.721
				c0.009,0.155,0.025,0.308,0.035,0.462c0.419,6.637,2.129,12.938,4.896,18.645L170.226,173.584z M242.41,195.528
				c2.733,0.464,5.534,0.718,8.393,0.718s5.661-0.254,8.393-0.718v42.685H242.41V195.528z M15.787,364.115v-58.754h25.18
				c5.036,0,8.393-3.357,8.393-8.393s-3.357-8.393-8.393-8.393h-25.18v-8.393c0-5.036,3.357-8.393,8.393-8.393h142.688v16.787
				h-58.754c-5.036,0-8.393,3.357-8.393,8.393s3.357,8.393,8.393,8.393h58.754v67.148H24.18
				C19.144,372.508,15.787,369.151,15.787,364.115z M309.557,389.295H192.049c-5.036,0-8.393-3.357-8.393-8.393V263.393
				c0-5.036,3.357-8.393,8.393-8.393h41.967h33.574h41.967c5.036,0,8.393,3.357,8.393,8.393v117.508
				C317.951,385.938,314.593,389.295,309.557,389.295z M477.426,372.508H334.738v-67.148h75.541c5.036,0,8.393-3.357,8.393-8.393
				s-3.357-8.393-8.393-8.393h-75.541v-16.787h142.688c5.036,0,8.393,3.357,8.393,8.393v8.393h-8.393
				c-5.036,0-8.393,3.357-8.393,8.393s3.357,8.393,8.393,8.393h8.393v58.754C485.82,369.151,482.462,372.508,477.426,372.508z"/>
			<path d="M74.541,288.574c-5.036,0-8.393,3.357-8.393,8.393s3.357,8.393,8.393,8.393s8.393-3.357,8.393-8.393
				S79.577,288.574,74.541,288.574z"/>
			<path d="M443.852,288.574c-5.036,0-8.393,3.357-8.393,8.393s3.357,8.393,8.393,8.393c5.036,0,8.393-3.357,8.393-8.393
				S448.888,288.574,443.852,288.574z"/>
		</g>
	</g>
</g>
<g>
</g>
<g>
</g>
<g>
</g>
<g>
</g>
<g>
</g>
<g>
</g>
<g>
</g>
<g>
</g>
<g>
</g>
<g>
</g>
<g>
</g>
<g>
</g>
<g>
</g>
<g>
</g>
<g>
</g>
</svg>
