<?xml version="1.0" encoding="iso-8859-1"?>
<!-- Generator: Adobe Illustrator 19.0.0, SVG Export Plug-In . SVG Version: 6.00 Build 0)  -->
<svg version="1.1" id="Layer_1" xmlns="http://www.w3.org/2000/svg" xmlns:xlink="http://www.w3.org/1999/xlink" x="0px" y="0px"
	 viewBox="0 0 512 512" style="enable-background:new 0 0 512 512;" xml:space="preserve">
<g transform="translate(1 1)">
	<g>
		<g>
			<path d="M476.867,442.733h-8.533V280.6c0-140.8-115.2-256-256-256h-128v-8.533C84.333,6.68,76.653-1,67.267-1H33.133
				c-9.387,0-17.067,7.68-17.067,17.067v153.6c0,9.387,7.68,17.067,17.067,17.067h34.133c9.387,0,17.067-7.68,17.067-17.067v-8.533
				H101.4v281.6h-8.533c-9.387,0-17.067,7.68-17.067,17.067v34.133C75.8,503.32,83.48,511,92.867,511h153.6
				c9.387,0,17.067-7.68,17.067-17.067V459.8c0-9.387-7.68-17.067-17.067-17.067h-8.533V162.84
				c53.76,11.947,93.867,60.587,93.867,117.76v162.133h-8.533c-9.387,0-17.067,7.68-17.067,17.067v34.133
				c0,9.387,7.68,17.067,17.067,17.067h153.6c9.387,0,17.067-7.68,17.067-17.067V459.8
				C493.933,450.413,486.253,442.733,476.867,442.733z M67.267,169.667H33.133v-153.6h34.133v17.067V152.6V169.667z
				 M246.467,493.933h-153.6V459.8h17.067H229.4h17.067V493.933z M230.253,144.067c-2.56-0.853-5.12,0-6.827,1.707
				c-1.707,1.707-2.56,4.267-2.56,6.827v290.133h-102.4V152.6c0-5.12-3.413-8.533-8.533-8.533h-25.6v-102.4h128
				c132.267,0,238.933,107.52,238.933,238.933v162.133H434.2v-93.867c0-5.12-3.413-8.533-8.533-8.533s-8.533,3.413-8.533,8.533
				v93.867h-68.267V280.6C348.867,211.48,298.52,153.453,230.253,144.067z M476.867,493.933h-153.6V459.8h17.067H459.8h17.067
				V493.933z"/>
			<path d="M396.653,190.147c1.707,3.413,4.267,5.12,7.68,5.12c0.853,0,2.56,0,3.413-1.707c4.267-1.707,5.973-6.827,4.267-11.093
				c-9.387-18.773-22.187-36.693-36.693-52.907c-3.413-4.267-8.533-4.267-11.947-0.853c-4.267,3.413-4.267,8.533-0.853,11.947
				C376.173,156.013,388.12,172.227,396.653,190.147z"/>
			<path d="M355.693,121.88c3.413-3.413,2.56-8.533-0.853-11.947c-18.773-15.36-40.107-28.16-62.293-36.693
				c-4.267-1.707-9.387,0.853-11.093,5.12c-1.707,4.267,0.853,9.387,5.12,11.093c20.48,8.533,40.107,19.627,57.173,34.133
				c0.853,0.853,3.413,1.707,5.12,1.707C351.427,125.293,353.987,124.44,355.693,121.88z"/>
			<path d="M127,58.733h-25.6c-5.12,0-8.533,3.413-8.533,8.533S97.133,75.8,101.4,75.8H127c5.12,0,8.533-3.413,8.533-8.533
				S132.12,58.733,127,58.733z"/>
			<path d="M161.133,58.733c-5.12,0-8.533,3.413-8.533,8.533s3.413,8.533,8.533,8.533c5.12,0,8.533-3.413,8.533-8.533
				S166.253,58.733,161.133,58.733z"/>
		</g>
	</g>
</g>
<g>
</g>
<g>
</g>
<g>
</g>
<g>
</g>
<g>
</g>
<g>
</g>
<g>
</g>
<g>
</g>
<g>
</g>
<g>
</g>
<g>
</g>
<g>
</g>
<g>
</g>
<g>
</g>
<g>
</g>
</svg>
