<?xml version="1.0" encoding="iso-8859-1"?>
<!-- Generator: Adobe Illustrator 19.0.0, SVG Export Plug-In . SVG Version: 6.00 Build 0)  -->
<svg version="1.1" id="Layer_1" xmlns="http://www.w3.org/2000/svg" xmlns:xlink="http://www.w3.org/1999/xlink" x="0px" y="0px"
	 viewBox="0 0 503.607 503.607" style="enable-background:new 0 0 503.607 503.607;" xml:space="preserve">
<g transform="translate(1 1)">
	<g>
		<g>
			<path d="M74.541,267.59c-5.036,0-8.393,3.357-8.393,8.393c0,5.036,3.357,8.393,8.393,8.393s8.393-3.357,8.393-8.393
				C82.934,270.948,79.577,267.59,74.541,267.59z"/>
			<path d="M443.852,284.377c5.036,0,8.393-3.357,8.393-8.393c0-5.036-3.357-8.393-8.393-8.393c-5.036,0-8.393,3.357-8.393,8.393
				C435.459,281.02,438.816,284.377,443.852,284.377z"/>
			<path d="M301.164,200.443c1.679,0,4.197-0.839,5.875-1.679l39.449-31.895h147.725c5.036,0,8.393-3.357,8.393-8.393v-33.574
				c0-5.036-3.357-8.393-8.393-8.393H326.344c-1.679,0-3.357,0.839-5.875,1.679l-39.449,31.895h-5.036v-8.393
				c0-14.269-10.911-25.18-25.18-25.18c-14.269,0-25.18,10.911-25.18,25.18v8.393h-8.393c-5.036,0-8.393,3.357-8.393,8.393v33.574
				v25.18h-16.787c-11.302,0-20.492,6.849-23.827,16.787H24.18C9.911,234.016-1,244.928-1,259.197v83.934
				c0,14.269,10.911,25.18,25.18,25.18h144.042c3.335,9.938,12.525,16.787,23.827,16.787h117.508
				c11.302,0,20.492-6.849,23.827-16.787h144.042c14.269,0,25.18-10.911,25.18-25.18v-83.934c0-14.269-10.911-25.18-25.18-25.18
				H333.384c-3.335-9.938-12.525-16.787-23.827-16.787h-16.787v-16.787H301.164z M242.41,141.689c0-5.036,3.357-8.393,8.393-8.393
				s8.393,3.357,8.393,8.393v8.393H242.41V141.689z M225.623,166.869h8.393h33.574h16.787c1.679,0,4.197-0.839,5.875-1.679
				l39.449-31.895H485.82v16.787H343.131c-1.679,0-3.357,0.839-5.875,1.679l-39.449,31.895h-13.429h-58.754V166.869z
				 M15.787,343.131v-58.754h25.18c5.036,0,8.393-3.357,8.393-8.393c0-5.036-3.357-8.393-8.393-8.393h-25.18v-8.393
				c0-5.036,3.357-8.393,8.393-8.393h142.688v16.787h-58.754c-5.036,0-8.393,3.357-8.393,8.393c0,5.036,3.357,8.393,8.393,8.393
				h58.754v67.148H24.18C19.144,351.525,15.787,348.167,15.787,343.131z M485.82,259.197v8.393h-8.393
				c-5.036,0-8.393,3.357-8.393,8.393c0,5.036,3.357,8.393,8.393,8.393h8.393v58.754c0,5.036-3.357,8.393-8.393,8.393H334.738
				v-67.148h75.541c5.036,0,8.393-3.357,8.393-8.393c0-5.036-3.357-8.393-8.393-8.393h-75.541v-16.787h142.688
				C482.462,250.803,485.82,254.161,485.82,259.197z M317.951,242.41v117.508c0,5.036-3.357,8.393-8.393,8.393H192.049
				c-5.036,0-8.393-3.357-8.393-8.393V242.41c0-5.036,3.357-8.393,8.393-8.393h25.18h67.148h25.18
				C314.593,234.016,317.951,237.374,317.951,242.41z M275.984,217.229h-50.361v-16.787h50.361V217.229z"/>
		</g>
	</g>
</g>
<g>
</g>
<g>
</g>
<g>
</g>
<g>
</g>
<g>
</g>
<g>
</g>
<g>
</g>
<g>
</g>
<g>
</g>
<g>
</g>
<g>
</g>
<g>
</g>
<g>
</g>
<g>
</g>
<g>
</g>
</svg>
