<?xml version="1.0" encoding="iso-8859-1"?>
<!-- Generator: Adobe Illustrator 19.0.0, SVG Export Plug-In . SVG Version: 6.00 Build 0)  -->
<svg version="1.1" id="Layer_1" xmlns="http://www.w3.org/2000/svg" xmlns:xlink="http://www.w3.org/1999/xlink" x="0px" y="0px"
	 viewBox="0 0 503.607 503.607" style="enable-background:new 0 0 503.607 503.607;" xml:space="preserve">
<g transform="translate(1 1)">
	<g>
		<g>
			<path d="M203.8,356.561c-15.108,13.43-31.056,25.18-48.682,33.574c-4.197,1.679-5.875,6.715-4.197,10.911
				c1.679,3.357,4.197,5.036,7.554,5.036c1.679,0,2.518-0.839,4.197-0.839c18.466-9.233,36.092-21.823,52.039-36.092
				c4.197-3.357,4.197-8.393,0.839-11.751C212.193,353.203,207.157,353.203,203.8,356.561z"/>
			<path d="M265.911,276.823c-4.197-1.679-9.233,0.839-10.912,5.036c-8.393,20.144-19.305,39.449-33.574,56.236
				c-3.357,3.357-2.518,8.393,0.839,11.751c0.839,0.839,3.357,1.679,5.036,1.679c2.518,0,5.036-0.839,7.554-2.518
				c15.108-18.466,27.698-39.449,36.092-61.272C272.626,283.538,270.108,278.502,265.911,276.823z"/>
			<path d="M359.918,183.656h-83.934c-5.036,0-8.393,3.357-8.393,8.393s3.357,8.393,8.393,8.393h83.934
				c5.036,0,8.393-3.357,8.393-8.393S364.954,183.656,359.918,183.656z"/>
			<path d="M485.82,74.541h-33.574c-9.233,0-16.787,7.554-16.787,16.787v8.393H317.951V82.934h8.393
				c9.233,0,16.787-7.554,16.787-16.787V32.574c0-9.233-7.554-16.787-16.787-16.787H175.262c-9.233,0-16.787,7.554-16.787,16.787
				v33.574c0,9.233,7.554,16.787,16.787,16.787h8.393v16.787H66.148v-8.393c0-9.233-7.554-16.787-16.787-16.787H15.787
				C6.554,74.541-1,82.095-1,91.328V242.41c0,9.233,7.554,16.787,16.787,16.787h33.574c9.233,0,16.787-7.554,16.787-16.787v-8.393
				h115.829c-11.751,52.879-59.593,92.328-115.829,92.328v-8.393c0-9.233-7.554-16.787-16.787-16.787H15.787
				C6.554,301.164-1,308.718-1,317.951v151.082c0,9.233,7.554,16.787,16.787,16.787h33.574c9.233,0,16.787-7.554,16.787-16.787
				v-8.393c130.098,0,238.374-99.043,250.964-226.623h118.347v8.393c0,9.233,7.554,16.787,16.787,16.787h33.574
				c9.233,0,16.787-7.554,16.787-16.787V91.328C502.607,82.095,495.052,74.541,485.82,74.541z M175.262,32.574h151.082v33.574
				h-16.787H192.049h-16.787V32.574z M49.361,242.41H15.787V91.328h33.574v16.787v117.508V242.41z M49.361,469.033H15.787V317.951
				h33.574v16.787v117.508V469.033z M309.557,217.229c-4.197,0-8.393,3.357-8.393,7.554
				c-8.393,122.544-111.633,219.069-235.016,219.069V343.131c67.987,0,125.062-50.361,134.295-116.669
				c0.839-2.518,0-5.036-1.679-6.715c-1.679-1.679-4.197-2.518-6.715-2.518H66.148V116.508h125.902c5.036,0,8.393-3.357,8.393-8.393
				v-25.18h100.721v25.18c0,5.036,3.357,8.393,8.393,8.393h125.902v67.148h-8.393c-5.036,0-8.393,3.357-8.393,8.393
				s3.357,8.393,8.393,8.393h8.393v16.787H309.557z M485.82,242.41h-33.574v-16.787V108.115V91.328h33.574V242.41z"/>
			<path d="M393.492,183.656c-5.036,0-8.393,3.357-8.393,8.393s3.357,8.393,8.393,8.393c5.036,0,8.393-3.357,8.393-8.393
				S398.528,183.656,393.492,183.656z"/>
		</g>
	</g>
</g>
<g>
</g>
<g>
</g>
<g>
</g>
<g>
</g>
<g>
</g>
<g>
</g>
<g>
</g>
<g>
</g>
<g>
</g>
<g>
</g>
<g>
</g>
<g>
</g>
<g>
</g>
<g>
</g>
<g>
</g>
</svg>
