<?xml version="1.0" encoding="iso-8859-1"?>
<!-- Generator: Adobe Illustrator 19.0.0, SVG Export Plug-In . SVG Version: 6.00 Build 0)  -->
<svg version="1.1" id="Layer_1" xmlns="http://www.w3.org/2000/svg" xmlns:xlink="http://www.w3.org/1999/xlink" x="0px" y="0px"
	 viewBox="0 0 503.607 503.607" style="enable-background:new 0 0 503.607 503.607;" xml:space="preserve">
<g transform="translate(1 1)">
	<g>
		<g>
			<path d="M485.82,11.59H334.738c-9.233,0-16.787,7.554-16.787,16.787v33.574c0,9.233,7.554,16.787,16.787,16.787h8.393v134.295
				c0,64.63-52.879,117.508-117.508,117.508H66.148v-8.393c0-9.233-7.554-16.787-16.787-16.787H15.787
				C6.554,305.361-1,312.915-1,322.147v151.082c0,9.233,7.554,16.787,16.787,16.787h33.574c9.233,0,16.787-7.554,16.787-16.787
				v-8.393h159.475c139.331,0,251.803-113.311,251.803-251.803V78.738h8.393c9.233,0,16.787-7.554,16.787-16.787V28.377
				C502.607,19.144,495.052,11.59,485.82,11.59z M49.361,473.229H15.787V322.147h33.574v16.787v117.508V473.229z M460.639,213.033
				c0,129.259-105.757,235.016-235.016,235.016H66.148v-16.787h92.328c5.036,0,8.393-3.357,8.393-8.393s-3.357-8.393-8.393-8.393
				H66.148v-67.148h159.475c73.862,0,134.295-60.433,134.295-134.295V78.738h100.721V213.033z M485.82,61.951h-16.787H351.525
				h-16.787V28.377H485.82V61.951z"/>
			<path d="M310.397,405.243c1.679,3.357,4.197,5.036,7.554,5.036c1.679,0,2.518-0.839,4.197-0.839
				c18.466-9.233,36.092-21.823,52.039-36.092c4.197-3.357,4.197-8.393,0.839-11.751c-3.357-4.197-8.393-4.197-11.751-0.839
				c-15.108,13.43-31.056,25.18-48.682,33.574C310.397,396.01,308.718,401.046,310.397,405.243z"/>
			<path d="M386.777,355.721c2.518,0,5.036-0.839,7.554-2.518c15.108-18.466,27.698-39.449,36.092-61.272
				c1.679-4.197-0.839-9.233-5.036-10.911s-9.233,0.839-10.911,5.036c-8.393,20.144-19.305,39.449-33.574,56.236
				c-3.357,3.357-2.518,8.393,0.839,11.751C382.58,354.882,385.098,355.721,386.777,355.721z"/>
			<path d="M435.459,137.492c5.036,0,8.393-3.357,8.393-8.393v-25.18c0-5.036-3.357-8.393-8.393-8.393
				c-5.036,0-8.393,3.357-8.393,8.393v25.18C427.066,134.134,430.423,137.492,435.459,137.492z"/>
			<path d="M435.459,171.066c5.036,0,8.393-3.357,8.393-8.393s-3.357-8.393-8.393-8.393c-5.036,0-8.393,3.357-8.393,8.393
				S430.423,171.066,435.459,171.066z"/>
		</g>
	</g>
</g>
<g>
</g>
<g>
</g>
<g>
</g>
<g>
</g>
<g>
</g>
<g>
</g>
<g>
</g>
<g>
</g>
<g>
</g>
<g>
</g>
<g>
</g>
<g>
</g>
<g>
</g>
<g>
</g>
<g>
</g>
</svg>
