<?xml version="1.0" encoding="iso-8859-1"?>
<!-- Generator: Adobe Illustrator 19.0.0, SVG Export Plug-In . SVG Version: 6.00 Build 0)  -->
<svg version="1.1" id="Layer_1" xmlns="http://www.w3.org/2000/svg" xmlns:xlink="http://www.w3.org/1999/xlink" x="0px" y="0px"
	 viewBox="0 0 503.607 503.607" style="enable-background:new 0 0 503.607 503.607;" xml:space="preserve">
<g transform="translate(1 1)">
	<g>
		<g>
			<path d="M485.82,238.213h-33.574c-9.233,0-16.787,7.554-16.787,16.787v8.393H317.951V145.885h8.393
				c9.233,0,16.787-7.554,16.787-16.787V95.525c0-9.233-7.554-16.787-16.787-16.787H175.262c-9.233,0-16.787,7.554-16.787,16.787
				v33.574c0,9.233,7.554,16.787,16.787,16.787h8.393v117.508H66.148V255c0-9.233-7.554-16.787-16.787-16.787H15.787
				C6.554,238.213-1,245.767-1,255v151.082c0,9.233,7.554,16.787,16.787,16.787h33.574c9.233,0,16.787-7.554,16.787-16.787v-8.393
				h369.311v8.393c0,9.233,7.554,16.787,16.787,16.787h33.574c9.233,0,16.787-7.554,16.787-16.787V255
				C502.607,245.767,495.052,238.213,485.82,238.213z M175.262,95.525h151.082v33.574h-16.787H192.049h-16.787V95.525z
				 M49.361,406.082H15.787V255h33.574v16.787v117.508V406.082z M66.148,380.902V280.18h125.902c5.036,0,8.393-3.357,8.393-8.393
				V145.885h58.754v25.18c0,5.036,3.357,8.393,8.393,8.393s8.393-3.357,8.393-8.393v-25.18h25.18v125.902
				c0,5.036,3.357,8.393,8.393,8.393h125.902v16.787h-33.574c-5.036,0-8.393,3.357-8.393,8.393s3.357,8.393,8.393,8.393h33.574
				v67.148H66.148z M485.82,406.082h-33.574v-16.787V271.787V255h33.574V406.082z"/>
			<path d="M267.59,213.033c5.036,0,8.393-3.357,8.393-8.393s-3.357-8.393-8.393-8.393s-8.393,3.357-8.393,8.393
				S263.393,213.033,267.59,213.033z"/>
			<path d="M351.525,296.967h-75.541v-58.754c0-5.036-3.357-8.393-8.393-8.393s-8.393,3.357-8.393,8.393v67.148
				c0,5.036,3.357,8.393,8.393,8.393h83.934c5.036,0,8.393-3.357,8.393-8.393S356.561,296.967,351.525,296.967z"/>
		</g>
	</g>
</g>
<g>
</g>
<g>
</g>
<g>
</g>
<g>
</g>
<g>
</g>
<g>
</g>
<g>
</g>
<g>
</g>
<g>
</g>
<g>
</g>
<g>
</g>
<g>
</g>
<g>
</g>
<g>
</g>
<g>
</g>
</svg>
