<?xml version="1.0" encoding="iso-8859-1"?>
<!-- Generator: Adobe Illustrator 19.0.0, SVG Export Plug-In . SVG Version: 6.00 Build 0)  -->
<svg version="1.1" id="Layer_1" xmlns="http://www.w3.org/2000/svg" xmlns:xlink="http://www.w3.org/1999/xlink" x="0px" y="0px"
	 viewBox="0 0 503.607 503.607" style="enable-background:new 0 0 503.607 503.607;" xml:space="preserve">
<g transform="translate(1 1)">
	<g>
		<g>
			<path d="M477.426,239.211H333.384c-3.335-9.938-12.525-16.787-23.827-16.787h-33.574v-33.574h109.115
				c5.036,0,8.393-3.357,8.393-8.393v-42.807c0-8.393-3.357-16.787-10.072-20.984c-6.715-5.036-15.108-6.715-23.502-4.197
				l-86.452,26.02h-45.325l-85.613-26.02c-8.393-2.518-16.787-0.839-23.502,4.197c-6.715,5.036-10.911,12.59-10.911,20.984v42.807
				c0,5.036,3.357,8.393,8.393,8.393h109.115v33.574h-33.574c-11.302,0-20.492,6.849-23.827,16.787H24.18
				C9.911,239.211-1,250.123-1,264.392v83.934c0,14.269,10.911,25.18,25.18,25.18h144.042c3.335,9.938,12.525,16.787,23.827,16.787
				h117.508c11.302,0,20.492-6.849,23.827-16.787h144.042c14.269,0,25.18-10.911,25.18-25.18v-83.934
				C502.607,250.123,491.695,239.211,477.426,239.211z M364.115,128.418c3.357-0.839,5.875,0,8.393,1.679
				c2.518,1.679,4.197,4.197,4.197,7.554v34.413h-92.328v-19.305L364.115,128.418z M267.59,172.064h-33.574v-16.787h33.574V172.064z
				 M124.902,137.651c0-3.357,0.839-5.875,3.357-7.554c2.518-1.679,5.875-2.518,8.393-1.679l80.577,24.341v19.305h-92.328V137.651z
				 M242.41,188.851h16.787v33.574H242.41V188.851z M15.787,348.326v-58.754h25.18c5.036,0,8.393-3.357,8.393-8.393
				c0-5.036-3.357-8.393-8.393-8.393h-25.18v-8.393c0-5.036,3.357-8.393,8.393-8.393h142.688v16.787h-58.754
				c-5.036,0-8.393,3.357-8.393,8.393c0,5.036,3.357,8.393,8.393,8.393h58.754v67.148H24.18
				C19.144,356.719,15.787,353.362,15.787,348.326z M309.557,373.506H192.049c-5.036,0-8.393-3.357-8.393-8.393V247.605
				c0-5.036,3.357-8.393,8.393-8.393h41.967h33.574h41.967c5.036,0,8.393,3.357,8.393,8.393v117.508
				C317.951,370.149,314.593,373.506,309.557,373.506z M477.426,356.719H334.738v-67.148h75.541c5.036,0,8.393-3.357,8.393-8.393
				c0-5.036-3.357-8.393-8.393-8.393h-75.541v-16.787h142.688c5.036,0,8.393,3.357,8.393,8.393v8.393h-8.393
				c-5.036,0-8.393,3.357-8.393,8.393c0,5.036,3.357,8.393,8.393,8.393h8.393v58.754
				C485.82,353.362,482.462,356.719,477.426,356.719z"/>
			<path d="M74.541,272.785c-5.036,0-8.393,3.357-8.393,8.393c0,5.036,3.357,8.393,8.393,8.393s8.393-3.357,8.393-8.393
				C82.934,276.142,79.577,272.785,74.541,272.785z"/>
			<path d="M443.852,272.785c-5.036,0-8.393,3.357-8.393,8.393c0,5.036,3.357,8.393,8.393,8.393c5.036,0,8.393-3.357,8.393-8.393
				C452.246,276.142,448.888,272.785,443.852,272.785z"/>
		</g>
	</g>
</g>
<g>
</g>
<g>
</g>
<g>
</g>
<g>
</g>
<g>
</g>
<g>
</g>
<g>
</g>
<g>
</g>
<g>
</g>
<g>
</g>
<g>
</g>
<g>
</g>
<g>
</g>
<g>
</g>
<g>
</g>
</svg>
