<?xml version="1.0" encoding="iso-8859-1"?>
<!-- Generator: Adobe Illustrator 19.0.0, SVG Export Plug-In . SVG Version: 6.00 Build 0)  -->
<svg version="1.1" id="Layer_1" xmlns="http://www.w3.org/2000/svg" xmlns:xlink="http://www.w3.org/1999/xlink" x="0px" y="0px"
	 viewBox="0 0 503.607 503.607" style="enable-background:new 0 0 503.607 503.607;" xml:space="preserve">
<g transform="translate(1 1)">
	<g>
		<g>
			<path d="M443.852,226.462c5.036,0,8.393-3.357,8.393-8.393c0-5.036-3.357-8.393-8.393-8.393c-5.036,0-8.393,3.357-8.393,8.393
				C435.459,223.105,438.816,226.462,443.852,226.462z"/>
			<path d="M301.164,142.528c1.679,0,4.197-0.839,5.875-1.679l39.449-31.895h147.725c5.036,0,8.393-3.357,8.393-8.393V66.987
				c0-5.036-3.357-8.393-8.393-8.393H326.344c-1.679,0-3.357,0.839-5.875,1.679L281.02,92.167h-5.036v-8.393
				c0-14.269-10.911-25.18-25.18-25.18c-14.269,0-25.18,10.912-25.18,25.18v8.393h-8.393c-5.036,0-8.393,3.357-8.393,8.393v33.574
				v25.18h-16.787c-11.302,0-20.492,6.849-23.827,16.787H24.18C9.911,176.102-1,187.013-1,201.282v83.934
				c0,14.269,10.911,25.18,25.18,25.18h144.042c3.335,9.938,12.525,16.787,23.827,16.787h117.508
				c11.302,0,20.492-6.849,23.827-16.787h144.042c14.269,0,25.18-10.911,25.18-25.18v-83.934c0-14.269-10.911-25.18-25.18-25.18
				H333.384c-3.335-9.938-12.525-16.787-23.827-16.787h-16.787v-16.787H301.164z M242.41,83.774c0-5.036,3.357-8.393,8.393-8.393
				s8.393,3.357,8.393,8.393v8.393H242.41V83.774z M225.623,108.954h8.393h33.574h16.787c1.679,0,4.197-0.839,5.875-1.679
				l39.449-31.895H485.82v16.787H343.131c-1.679,0-3.357,0.839-5.875,1.679l-39.449,31.895h-13.429h-58.754V108.954z
				 M15.787,285.216v-83.934c0-5.036,3.357-8.393,8.393-8.393h142.688V293.61H57.754v-16.787h25.18c5.036,0,8.393-3.357,8.393-8.393
				v-25.18h25.18c5.036,0,8.393-3.357,8.393-8.393s-3.357-8.393-8.393-8.393H82.934c-5.036,0-8.393,3.357-8.393,8.393v25.18h-25.18
				c-5.036,0-8.393,3.357-8.393,8.393v25.18H24.18C19.144,293.61,15.787,290.252,15.787,285.216z M485.82,201.282v8.393h-8.393
				c-5.036,0-8.393,3.357-8.393,8.393c0,5.036,3.357,8.393,8.393,8.393h8.393v58.754c0,5.036-3.357,8.393-8.393,8.393H334.738
				v-67.148h75.541c5.036,0,8.393-3.357,8.393-8.393c0-5.036-3.357-8.393-8.393-8.393h-75.541v-16.787h142.688
				C482.462,192.889,485.82,196.246,485.82,201.282z M317.951,184.495v117.508c0,5.036-3.357,8.393-8.393,8.393H192.049
				c-5.036,0-8.393-3.357-8.393-8.393V184.495c0-5.036,3.357-8.393,8.393-8.393h25.18h67.148h25.18
				C314.593,176.102,317.951,179.459,317.951,184.495z M275.984,159.315h-50.361v-16.787h50.361V159.315z"/>
			<path d="M56.075,331.38c-2.518-4.197-10.072-4.197-13.43,0l-24.341,34.413c-15.948,21.823-15.948,47.843,0.839,64.63
				c7.554,8.393,18.466,12.59,30.216,12.59c11.751,0,22.662-5.036,30.216-11.751c11.751-11.751,20.984-31.895,0.839-64.63
				L56.075,331.38z M67.826,417.833c-9.233,10.072-26.859,10.072-36.931,0c-10.911-10.911-10.072-27.698,0.839-42.807l17.626-25.18
				l17.626,24.341C83.774,401.885,72.023,413.636,67.826,417.833z"/>
		</g>
	</g>
</g>
<g>
</g>
<g>
</g>
<g>
</g>
<g>
</g>
<g>
</g>
<g>
</g>
<g>
</g>
<g>
</g>
<g>
</g>
<g>
</g>
<g>
</g>
<g>
</g>
<g>
</g>
<g>
</g>
<g>
</g>
</svg>
