<?xml version="1.0" encoding="iso-8859-1"?>
<!-- Generator: Adobe Illustrator 19.0.0, SVG Export Plug-In . SVG Version: 6.00 Build 0)  -->
<svg version="1.1" id="Layer_1" xmlns="http://www.w3.org/2000/svg" xmlns:xlink="http://www.w3.org/1999/xlink" x="0px" y="0px"
	 viewBox="0 0 512 512" style="enable-background:new 0 0 512 512;" xml:space="preserve">
<g transform="translate(1 1)">
	<g>
		<g>
			<path d="M351.033,125.293l1.707-3.413c5.973-13.653,12.8-29.013,12.8-49.493c0-38.4-36.693-73.387-76.8-73.387h-34.133h-33.28
				c-40.107,0-76.8,34.987-76.8,73.387c-0.853,20.48,6.827,35.84,12.8,49.493l28.791,57.581l-33.911,322.152
				c0,2.56,1.707,5.12,2.56,6.827c0.853,1.707,3.413,2.56,5.973,2.56h25.6c4.267,0,7.68-3.413,8.533-6.827l50.347-317.44h18.998
				l50.122,317.44c0.853,3.413,4.267,6.827,8.533,6.827h25.6c2.56,0,4.267-0.853,5.973-2.56c1.707-1.707,2.56-4.267,2.56-6.827
				l-33.762-320.742L351.033,125.293z M237.539,101.4h-16.213c-11.947,0-25.6-11.093-25.6-25.6s14.507-25.6,34.133-25.6
				c2.56,0,5.12-0.853,5.973-3.413l19.011-24.714l18.536,24.714c1.707,2.56,4.267,3.413,6.827,3.413
				c19.627,0,34.133,11.093,34.133,25.6s-13.653,25.6-25.6,25.6H237.539z M173.539,115.053c-5.973-12.8-11.947-26.453-11.947-42.667
				c0-29.013,29.013-56.32,59.733-56.32h17.067l-12.8,17.067C198.286,34.84,178.659,52.76,178.659,75.8
				c0,23.04,19.627,42.667,42.667,42.667h0.533l-26.365,42.184l-20.248-42.184L173.539,115.053z M237.539,169.667
				c-4.267,0-7.68,2.56-8.533,6.827l-50.347,317.44h-8.533l33.236-312.762l26.213-41.94l13.085-20.765h46.08
				c23.04,0,42.667-19.627,42.667-42.667c0-23.04-19.627-40.96-46.933-42.667l-12.8-17.067h17.067
				c30.72,0,59.733,27.307,60.587,56.32c0,17.067-5.973,29.867-11.947,42.667l-27.307,54.613h-38.4H237.539z M330.553,493.933
				l-48.64-307.2h24.747l32.427,307.2H330.553z"/>
			<path d="M254.606,135.533c-5.12,0-8.533,3.413-8.533,8.533c0,5.12,3.413,8.533,8.533,8.533c5.12,0,8.533-3.413,8.533-8.533
				C263.139,138.947,259.726,135.533,254.606,135.533z"/>
		</g>
	</g>
</g>
<g>
</g>
<g>
</g>
<g>
</g>
<g>
</g>
<g>
</g>
<g>
</g>
<g>
</g>
<g>
</g>
<g>
</g>
<g>
</g>
<g>
</g>
<g>
</g>
<g>
</g>
<g>
</g>
<g>
</g>
</svg>
