<?xml version="1.0" encoding="iso-8859-1"?>
<!-- Generator: Adobe Illustrator 19.0.0, SVG Export Plug-In . SVG Version: 6.00 Build 0)  -->
<svg version="1.1" id="Layer_1" xmlns="http://www.w3.org/2000/svg" xmlns:xlink="http://www.w3.org/1999/xlink" x="0px" y="0px"
	 viewBox="0 0 512 512" style="enable-background:new 0 0 512 512;" xml:space="preserve">
<g transform="translate(1 1)">
	<g>
		<g>
			<path d="M237.661,101.4c0-9.387-7.68-17.067-17.067-17.067c-9.387,0-17.067,7.68-17.067,17.067
				c0,9.387,7.68,17.067,17.067,17.067C229.981,118.467,237.661,110.787,237.661,101.4z"/>
			<path d="M288.861,118.467c9.387,0,17.067-7.68,17.067-17.067c0-9.387-7.68-17.067-17.067-17.067
				c-9.387,0-17.067,7.68-17.067,17.067C271.794,110.787,279.474,118.467,288.861,118.467z"/>
			<path d="M380.167,440.173l-31.573-119.467c-0.059-0.149-0.129-0.29-0.195-0.434l-8.247-90.723
				c5.318-7.115,8.442-16.006,8.442-25.75c0-14.218-6.649-26.621-17.067-34.336v-32.737c7.718-20.184,8.533-35.106,8.533-52.394
				c0-5.973-0.853-12.8-2.56-18.773C328.967,26.307,294.834-1,254.727-1s-74.24,27.307-82.773,66.56
				c-1.707,5.973-2.56,12.8-2.56,18.773c0,17.288,0.816,32.209,8.533,52.394v32.737c-10.418,7.715-17.067,20.118-17.067,34.336
				c0,9.744,3.124,18.635,8.442,25.75l-8.442,92.864c0,0.6,0.056,1.199,0.155,1.789l-30.875,116.824
				c-3.413,10.24-4.267,19.627-3.413,28.16c1.707,23.04,13.653,38.4,32.427,41.813c0.853,0,0.853,0,1.707,0h17.92
				c13.653,0,24.747-10.24,26.453-23.893l16.213-153.6c0.217-1.084,0.156-2.168-0.123-3.197l6.096-26.67l27.733-13.867
				l26.027,13.013l7.68,30.72c0.04,0.202,0.092,0.396,0.144,0.591l15.216,153.009c1.707,13.653,12.8,23.893,26.453,23.893h17.92
				c0.853,0,0.853,0,2.56-0.853c18.773-3.413,30.72-17.92,32.427-41.813C383.581,459.8,382.727,450.413,380.167,440.173z
				 M254.727,271.213l-25.6-12.8v-20.277c3.328-2.465,6.271-5.408,8.736-8.736h33.728c2.465,3.328,5.408,6.271,8.736,8.736v20.277
				L254.727,271.213z M186.461,84.333c0-2.56,0-5.973,0.853-8.533h134.827c0.853,2.56,0.853,5.973,0.853,8.533
				c0,14.507,0,26.453-5.973,42.667h-36.693h-51.2h-36.693C187.314,110.787,186.461,98.84,186.461,84.333z M331.527,203.8
				c0,6.893-2.508,13.012-6.694,17.54c-0.637,0.252-1.239,0.633-1.84,1.233c-3.413,3.413-9.387,6.827-17.067,6.827
				c-0.471,0-0.942-0.015-1.412-0.037c-0.349-0.018-0.696-0.045-1.041-0.075c-0.095-0.008-0.189-0.014-0.284-0.023
				c-0.41-0.041-0.817-0.089-1.22-0.148c-0.017-0.002-0.034-0.005-0.05-0.007c-0.895-0.131-1.771-0.308-2.629-0.525
				c-2.055-0.537-4.109-1.366-6.164-2.599c-0.472-0.314-0.978-0.551-1.497-0.75c-2.851-1.865-5.275-4.289-7.14-7.14
				c-0.199-0.519-0.435-1.026-0.75-1.497c-1.232-2.054-2.062-4.108-2.598-6.163c-0.217-0.858-0.393-1.734-0.525-2.629
				c-0.003-0.017-0.005-0.034-0.007-0.051c-0.058-0.403-0.107-0.81-0.148-1.22c-0.009-0.095-0.016-0.19-0.023-0.285
				c-0.03-0.345-0.057-0.691-0.075-1.04c-0.022-0.471-0.037-0.942-0.037-1.412c0-4.267,1.707-8.533,4.267-12.8
				c0.672-1.008,1.069-2.15,1.212-3.318c1.172-1.478,2.507-2.815,3.984-3.988c0.666-0.194,1.24-0.373,1.631-0.373
				c8.533-5.12,18.773-5.973,27.307-0.853c1.008,0.672,2.15,1.069,3.318,1.212C327.883,188.305,331.527,195.49,331.527,203.8z
				 M293.971,162.786l-3.403-18.719h24.747v17.92c-4.391-0.976-8.503-1.112-12.497-0.733
				C299.76,161.465,296.802,161.985,293.971,162.786z M272.981,144.067l4.778,27.473c-2.287,1.991-4.36,4.218-6.168,6.66h-33.728
				c-1.779-2.403-3.814-4.598-6.057-6.564l4.693-27.569H272.981z M264.041,195.524c-0.773,2.529-0.781,5.798-0.781,8.276
				s0.007,5.747,0.781,8.276c0.016,0.085,0.028,0.172,0.045,0.258h-18.718c0.017-0.085,0.029-0.172,0.045-0.258
				c0.773-2.529,0.781-5.798,0.781-8.276s-0.007-5.747-0.781-8.276c-0.016-0.085-0.028-0.172-0.045-0.258h18.718
				C264.069,195.352,264.057,195.439,264.041,195.524z M317.874,58.733h-54.613V16.604
				C287.803,19.663,308.683,35.756,317.874,58.733z M246.194,16.604v42.129h-54.613C200.771,35.756,221.651,19.663,246.194,16.604z
				 M194.994,144.067h23.893l-2.56,18.773c-0.846-0.169-1.692-0.336-2.537-0.499c-2.777-0.664-5.666-1.061-8.641-1.168
				c-0.54-0.026-1.081-0.04-1.621-0.04c-2.477,0-5.747,0.007-8.276,0.781c-0.085,0.016-0.172,0.028-0.258,0.045V144.067z
				 M203.527,178.2c0.307,0,0.61,0.012,0.914,0.022c4.593,0.258,8.975,1.735,12.739,4.245c0.753,0.377,1.506,0.749,2.26,1.052
				c2.157,1.673,4.023,3.689,5.524,5.984c0.199,0.519,0.435,1.026,0.75,1.497c1.233,2.054,2.062,4.108,2.598,6.163
				c0.217,0.858,0.393,1.735,0.525,2.63c0.002,0.017,0.005,0.034,0.007,0.05c0.058,0.403,0.107,0.81,0.148,1.22
				c0.009,0.095,0.015,0.189,0.023,0.284c0.03,0.345,0.057,0.691,0.075,1.041c0.022,0.471,0.037,0.942,0.037,1.412
				s-0.015,0.942-0.037,1.412c-0.018,0.349-0.045,0.695-0.075,1.04c-0.008,0.095-0.014,0.19-0.023,0.285
				c-0.04,0.41-0.089,0.817-0.148,1.22c-0.002,0.017-0.005,0.034-0.007,0.051c-0.131,0.895-0.308,1.771-0.525,2.629
				c-0.537,2.054-1.366,4.108-2.598,6.163c-0.314,0.472-0.551,0.978-0.75,1.497c-1.865,2.851-4.289,5.275-7.14,7.14
				c-0.519,0.199-1.026,0.435-1.497,0.749c-2.054,1.233-4.108,2.062-6.163,2.598c-0.858,0.217-1.735,0.393-2.63,0.525
				c-0.017,0.002-0.034,0.005-0.05,0.007c-0.403,0.058-0.81,0.107-1.22,0.148c-0.095,0.009-0.189,0.015-0.284,0.023
				c-0.345,0.03-0.691,0.057-1.041,0.075c-0.471,0.022-0.942,0.037-1.412,0.037c-7.68,0-13.653-3.413-16.213-6.827
				c-0.717-0.359-1.587-0.713-2.479-1.009c-4.313-4.549-6.908-10.756-6.908-17.765C177.927,189.293,189.021,178.2,203.527,178.2z
				 M188.167,485.4c-0.853,5.12-4.267,8.533-9.387,8.533h-17.067c-11.093-1.707-17.067-11.093-17.92-25.6
				c0-7.68,0.853-14.507,2.56-23.04l29.013-111.787l13.653,2.56l13.637,2.727L188.167,485.4z M216.327,289.987
				c-1.707,1.707-3.413,3.413-4.267,5.973l-5.973,25.6l-27.307-5.12l6.788-73.82c5.436,2.468,11.508,3.847,17.959,3.847
				c2.93,0,5.782-0.286,8.533-0.825v17.892c0,3.413,1.707,5.973,4.267,7.68l18.773,9.387L216.327,289.987z M274.354,280.6
				l18.773-9.387c3.413-1.707,5.12-4.267,5.12-7.68v-17.067c8.533,1.707,17.92,0.853,26.453-3.413l6.719,73.067l-27.408,5.482
				l-6.617-25.642c0-2.56-1.707-5.12-4.267-5.973L274.354,280.6z M365.661,467.48c-0.853,15.36-6.827,24.747-17.92,26.453h-17.067
				c-5.12,0-8.533-3.413-9.387-8.533l-14.49-146.606l27.459-5.492l28.845,111.138C365.661,452.973,366.514,460.653,365.661,467.48z"
				/>
		</g>
	</g>
</g>
<g>
</g>
<g>
</g>
<g>
</g>
<g>
</g>
<g>
</g>
<g>
</g>
<g>
</g>
<g>
</g>
<g>
</g>
<g>
</g>
<g>
</g>
<g>
</g>
<g>
</g>
<g>
</g>
<g>
</g>
</svg>
