<?xml version="1.0" encoding="iso-8859-1"?>
<!-- Generator: Adobe Illustrator 19.0.0, SVG Export Plug-In . SVG Version: 6.00 Build 0)  -->
<svg version="1.1" id="Layer_1" xmlns="http://www.w3.org/2000/svg" xmlns:xlink="http://www.w3.org/1999/xlink" x="0px" y="0px"
	 viewBox="0 0 511.783 511.783" style="enable-background:new 0 0 511.783 511.783;" xml:space="preserve">
<g transform="translate(1 1)">
	<g>
		<g>
			<path d="M367.271,242.634c-14.443-27.281-33.327-49.35-47.755-63.501c2.816-7.53,4.365-15.665,4.365-24.146
				c0-10.965-2.587-21.352-7.165-30.597c6.02-8.893,10.148-17.785,12.372-26.678c11.281-45.993-1.736-81.573-35.58-98.061
				c-2.603-0.868-5.207-0.868-7.81,0c-2.603,1.736-4.339,3.471-5.207,6.075l-19.834,80.131c-2.045-0.183-4.109-0.293-6.2-0.293
				c-1.537,0-3.058,0.069-4.571,0.168L229.292,5.725c-0.868-2.603-2.603-5.207-5.207-6.075s-5.207-0.868-7.81,0
				c-33.844,16.488-46.861,52.068-36.447,98.061c2.223,8.893,6.352,17.785,12.372,26.678c-4.578,9.245-7.165,19.631-7.165,30.597
				c0,8.949,1.735,17.507,4.854,25.381c-14.265,14.185-32.564,35.762-47.376,62.267c-39.919,75.498-35.58,168.353,11.281,236.908
				c5.207,8.678,11.281,14.753,15.62,20.827c5.207,6.075,13.017,10.414,20.827,10.414c0.868,0,0.868,0,1.736,0
				c6.942,0,14.753-2.603,19.959-8.678c9.546-9.546,10.414-24.298,3.471-35.58c-31.241-47.729-39.051-72.895-39.051-121.492
				c0-42.243,35.136-96.927,55.658-124.39c7.05,2.428,14.596,3.767,22.443,3.767c8.155,0,15.989-1.436,23.274-4.049
				c19.708,26.427,55.696,81.92,55.696,124.673c0,49.464-7.81,74.63-39.051,121.492c-7.81,11.281-6.075,26.034,3.471,35.58
				c5.207,6.075,12.149,8.678,19.959,8.678c0,0,0.868,0,1.736,0c8.678,0,15.62-4.339,20.827-10.414
				c4.339-6.075,10.414-13.017,15.62-20.827C402.851,410.986,407.19,318.132,367.271,242.634z M294.376,20.478
				c19.092,14.753,25.166,39.919,17.356,72.895c-0.868,5.207-3.471,9.546-6.075,14.753c-7.81-8.678-17.356-15.62-28.637-19.091
				L294.376,20.478z M197.183,94.241c-7.81-32.976-1.736-58.142,17.356-72.895l17.232,68.066
				c-11.142,3.884-21.018,10.526-28.784,19.117C200.476,104.284,198.021,99.266,197.183,94.241z M159,345.902
				c0,52.936,8.678,80.705,41.654,130.169c2.603,4.339,1.736,10.414-1.736,13.885c-1.736,2.603-4.339,3.471-7.81,3.471
				c-3.471,0-6.075-1.736-7.81-4.339c-4.339-5.207-9.546-11.281-14.753-19.092c-43.39-63.349-47.729-150.129-10.414-219.553
				c12.909-23.235,28.373-42.195,40.478-54.357c1.505,2.036,3.117,3.987,4.829,5.846c3.68,4.365,8.042,8.201,12.835,11.196
				C192.844,246.105,159,300.776,159,345.902z M202.39,154.986c0-28.637,23.431-52.068,52.068-52.068
				c5.126,0,10.081,0.763,14.769,2.16c12.055,4.073,22.508,12.147,29.489,23.007c0.305,0.458,0.648,0.878,1.007,1.278
				c4.319,7.578,6.803,16.323,6.803,25.624c0,16.659-7.938,31.545-20.208,41.093c-2.948,2.219-6.081,4.16-9.297,5.768
				c-0.048,0.032-0.09,0.064-0.137,0.096c-6.801,3.273-14.409,5.111-22.425,5.111C225.82,207.054,202.39,183.624,202.39,154.986z
				 M340.37,470.864c-5.207,6.942-10.414,13.017-14.753,19.091c-1.736,2.603-4.339,4.339-7.81,4.339
				c-2.603,0-5.207-0.868-7.81-3.471c-4.339-3.471-4.339-9.546-1.736-13.885c32.976-50.332,41.654-78.102,41.654-131.037
				c0-45.125-32.976-99.797-57.275-132.773c6.942-4.339,13.017-10.414,17.356-16.488c12.149,12.149,28.637,31.241,40.786,54.671
				C388.098,321.603,383.759,407.515,340.37,470.864z"/>
			<path d="M289.169,154.986c0-19.091-15.62-34.712-34.712-34.712s-34.712,15.62-34.712,34.712c0,19.092,15.62,34.712,34.712,34.712
				S289.169,174.078,289.169,154.986z M237.102,154.986c0-9.546,7.81-17.356,17.356-17.356c9.546,0,17.356,7.81,17.356,17.356
				c0,9.546-7.81,17.356-17.356,17.356C244.912,172.342,237.102,164.532,237.102,154.986z"/>
		</g>
	</g>
</g>
<g>
</g>
<g>
</g>
<g>
</g>
<g>
</g>
<g>
</g>
<g>
</g>
<g>
</g>
<g>
</g>
<g>
</g>
<g>
</g>
<g>
</g>
<g>
</g>
<g>
</g>
<g>
</g>
<g>
</g>
</svg>
