<?xml version="1.0" encoding="iso-8859-1"?>
<!-- Generator: Adobe Illustrator 19.0.0, SVG Export Plug-In . SVG Version: 6.00 Build 0)  -->
<svg version="1.1" id="Layer_1" xmlns="http://www.w3.org/2000/svg" xmlns:xlink="http://www.w3.org/1999/xlink" x="0px" y="0px"
	 viewBox="0 0 511.056 511.056" style="enable-background:new 0 0 511.056 511.056;" xml:space="preserve">
<g transform="translate(1 1)">
	<g>
		<path d="M348.041,481.896l-17.067-211.627c0-4.267-4.267-7.68-8.533-7.68v-63.147c0-14.954-5.819-29.9-16.095-41.507
			l21.215-86.493c1.707-5.12,0-11.093-3.413-15.36c-6.827-8.533-21.333-9.387-28.16-0.853l-42.708,49.452l-26.412-26.412
			c-1.707-3.413-6.827-17.067,7.68-31.573l15.36-15.36c4.267-4.267,5.973-10.24,5.12-16.213s-4.267-11.093-10.24-14.507
			c-4.267-1.707-10.24-2.56-15.36,0c-14.507,5.973-61.44,29.867-68.267,86.187c-0.853,9.387,0,18.773,3.413,28.16
			c4.87,15.422,16.696,42.421,38.4,65.582v82.044c-4.267,0-8.533,3.413-8.533,7.68l-17.067,211.627c0,7.68,2.56,14.507,7.68,19.627
			l0.853,1.707c4.267,4.267,10.24,6.827,16.213,6.827c6.827,0,11.947-2.56,17.067-6.827l11.093-11.093
			c3.413-4.267,5.973-9.387,6.827-15.36l16.898-202.781c0.056-0.104,0.115-0.206,0.168-0.312l8.96-26.88l8.96,26.88
			c0.055,0.219,0.121,0.434,0.196,0.646l16.871,202.447c0,5.973,2.56,11.093,6.827,15.36l11.093,11.093
			c4.267,4.267,10.24,6.827,16.213,6.827s11.947-2.56,16.213-6.827l1.707-1.707C346.334,496.402,348.894,489.576,348.041,481.896z
			 M309.641,67.176c0-0.853,0.853-0.853,1.707,0v0.853l-18.773,75.947l-16.834-16.834l-9.619-9.619L309.641,67.176z
			 M220.041,195.382l33.163,27.445l-13.536,39.762h-19.627V195.382z M220.041,475.069c0,1.707-0.853,3.413-2.56,5.12l-11.093,11.093
			c-1.707,1.707-5.12,2.56-7.68,0l-1.707-1.707c-1.707-1.707-2.56-3.413-2.56-5.973l16.213-203.947h0.853h24.747L220.041,475.069z
			 M271.556,220.014c0.02-2.548-0.935-4.979-2.875-6.918l-0.433-0.361c-0.14-0.182-0.28-0.352-0.42-0.492l-50.347-41.813
			c-20.48-20.48-31.573-46.933-36.693-61.44c-2.56-6.827-3.413-13.653-2.56-20.48c5.973-46.933,46.08-67.413,58.027-72.533
			c0.853,0,1.707,0,1.707,0c0.853,0.853,0.853,0.853,0.853,1.707s0,0.853-0.853,1.707l-15.36,15.36
			c-20.48,20.48-15.36,43.52-9.387,52.907c0,0.853,0.853,1.707,0.853,1.707l77.653,78.507c8.533,8.533,13.653,20.48,13.653,32.427
			v62.293h-19.627L271.556,220.014z M329.268,489.576l-1.707,1.707c-2.56,2.56-5.973,2.56-8.533,0l-11.093-11.093
			c-1.707-1.707-2.56-3.413-2.56-5.12l-16.213-195.413h24.747h0.853l17.067,203.947
			C331.828,485.309,330.974,487.869,329.268,489.576z"/>
	</g>
</g>
<g>
</g>
<g>
</g>
<g>
</g>
<g>
</g>
<g>
</g>
<g>
</g>
<g>
</g>
<g>
</g>
<g>
</g>
<g>
</g>
<g>
</g>
<g>
</g>
<g>
</g>
<g>
</g>
<g>
</g>
</svg>
