<?xml version="1.0" encoding="iso-8859-1"?>
<!-- Generator: Adobe Illustrator 19.0.0, SVG Export Plug-In . SVG Version: 6.00 Build 0)  -->
<svg version="1.1" id="Layer_1" xmlns="http://www.w3.org/2000/svg" xmlns:xlink="http://www.w3.org/1999/xlink" x="0px" y="0px"
	 viewBox="0 0 512 512" style="enable-background:new 0 0 512 512;" xml:space="preserve">
<g transform="translate(1 1)">
	<g>
		<g>
			<path d="M417.133,135.533c0-14.507-11.093-25.6-25.6-25.6h-25.6V24.6c0-14.507-11.093-25.6-25.6-25.6
				c-14.507,0-25.6,11.093-25.6,25.6v85.333H195.267V24.6c0-14.507-11.093-25.6-25.6-25.6c-14.507,0-25.6,11.093-25.6,25.6v85.333
				h-25.6c-14.507,0-25.6,11.093-25.6,25.6c0,11.491,6.963,20.833,17.067,24.224v163.509c0,48.64,37.547,89.6,86.187,93.867v24.747
				c0,14.507,11.947,26.453,26.453,26.453h23.893v34.133c0,5.12,3.413,8.533,8.533,8.533c5.12,0,8.533-3.413,8.533-8.533v-34.133
				h24.747c14.507,0,26.453-11.947,26.453-26.453v-24.747c47.787-5.12,85.333-45.227,85.333-93.867V159.758
				C410.17,156.367,417.133,147.024,417.133,135.533z M331.8,24.6c0-5.12,3.413-8.533,8.533-8.533s8.533,3.413,8.533,8.533v85.333
				H331.8V24.6z M161.133,24.6c0-4.267,3.413-8.533,8.533-8.533c5.12,0,8.533,3.413,8.533,8.533v85.333h-17.067V24.6z
				 M382.147,323.267c0,42.667-34.133,76.8-76.8,76.8c-5.12,0-8.533,3.413-8.533,8.533v33.28c0,5.12-4.267,9.387-9.387,9.387H221.72
				c-5.12,0-9.387-4.267-9.387-9.387V408.6c0-5.12-3.413-8.533-8.533-8.533c-42.667,0-76.8-34.133-76.8-76.8V161.133h255.147
				V323.267z M391.533,144.067H118.467c-5.12,0-8.533-3.413-8.533-8.533s3.413-8.533,8.533-8.533H152.6h34.133h136.533H357.4h34.133
				c5.12,0,8.533,3.413,8.533,8.533S396.653,144.067,391.533,144.067z"/>
			<path d="M220.867,280.6h47.787l-45.227,45.227c-3.413,3.413-3.413,8.533,0,11.947c1.707,1.707,3.413,2.56,5.973,2.56
				c2.56,0,4.267-0.853,5.973-2.56l59.733-59.733c2.56-2.56,3.413-5.973,1.707-9.387c-0.853-3.413-4.267-5.12-7.68-5.12h-47.787
				l45.227-45.227c3.413-3.413,3.413-8.533,0-11.947s-8.533-3.413-11.947,0l-59.733,59.733c-2.56,2.56-2.56,5.973-1.707,9.387
				C214.04,278.893,217.453,280.6,220.867,280.6z"/>
		</g>
	</g>
</g>
<g>
</g>
<g>
</g>
<g>
</g>
<g>
</g>
<g>
</g>
<g>
</g>
<g>
</g>
<g>
</g>
<g>
</g>
<g>
</g>
<g>
</g>
<g>
</g>
<g>
</g>
<g>
</g>
<g>
</g>
</svg>
