<?xml version="1.0" encoding="iso-8859-1"?>
<!-- Generator: Adobe Illustrator 19.0.0, SVG Export Plug-In . SVG Version: 6.00 Build 0)  -->
<svg version="1.1" id="Layer_1" xmlns="http://www.w3.org/2000/svg" xmlns:xlink="http://www.w3.org/1999/xlink" x="0px" y="0px"
	 viewBox="0 0 503.607 503.607" style="enable-background:new 0 0 503.607 503.607;" xml:space="preserve">
<g transform="translate(1 1)">
	<g>
		<g>
			<path d="M376.705,183.656c-4.197,0-8.393,4.197-8.393,8.393c0,5.036,3.357,8.393,8.393,8.393c5.036,0,8.393-3.357,8.393-8.393
				S381.741,183.656,376.705,183.656z"/>
			<path d="M275.984,259.197c-5.036,0-8.393,3.357-8.393,8.393v83.934c0,5.036,3.357,8.393,8.393,8.393s8.393-3.357,8.393-8.393
				V267.59C284.377,262.554,281.02,259.197,275.984,259.197z"/>
			<path d="M485.82,74.541h-33.574c-9.233,0-16.787,7.554-16.787,16.787v8.393H317.951V66.148h8.393
				c9.233,0,16.787-7.554,16.787-16.787V15.787C343.131,6.554,335.577-1,326.344-1H175.262c-9.233,0-16.787,7.554-16.787,16.787
				v33.574c0,9.233,7.554,16.787,16.787,16.787h8.393V267.59H66.148v-8.393c0-9.233-7.554-16.787-16.787-16.787H15.787
				C6.554,242.41-1,249.964-1,259.197v151.082c0,9.233,7.554,16.787,16.787,16.787h33.574c9.233,0,16.787-7.554,16.787-16.787
				v-8.393h117.508v33.574h-8.393c-9.233,0-16.787,7.554-16.787,16.787v33.574c0,9.233,7.554,16.787,16.787,16.787h151.082
				c9.233,0,16.787-7.554,16.787-16.787v-33.574c0-9.233-7.554-16.787-16.787-16.787h-8.393V234.016h117.508v8.393
				c0,9.233,7.554,16.787,16.787,16.787h33.574c9.233,0,16.787-7.554,16.787-16.787V91.328
				C502.607,82.095,495.052,74.541,485.82,74.541z M175.262,15.787h151.082v33.574h-16.787H192.049h-16.787V15.787z M49.361,410.279
				H15.787V259.197h33.574v16.787v117.508V410.279z M326.344,485.82H175.262v-33.574h16.787h117.508h16.787V485.82z
				 M309.557,217.229c-5.036,0-8.393,3.357-8.393,8.393v209.836h-16.787v-33.574c0-5.036-3.357-8.393-8.393-8.393
				s-8.393,3.357-8.393,8.393v33.574h-67.148v-41.967c0-5.036-3.357-8.393-8.393-8.393H66.148V284.377h125.902
				c5.036,0,8.393-3.357,8.393-8.393V66.148h100.721v41.967c0,5.036,3.357,8.393,8.393,8.393h125.902v67.148h-25.18
				c-5.036,0-8.393,3.357-8.393,8.393s3.357,8.393,8.393,8.393h25.18v16.787H309.557z M485.82,242.41h-33.574v-16.787V108.115
				V91.328h33.574V242.41z"/>
			<path d="M343.131,183.656h-67.148c-5.036,0-8.393,3.357-8.393,8.393v33.574c0,5.036,3.357,8.393,8.393,8.393
				s8.393-3.357,8.393-8.393v-25.18h58.754c5.036,0,8.393-3.357,8.393-8.393S348.167,183.656,343.131,183.656z"/>
		</g>
	</g>
</g>
<g>
</g>
<g>
</g>
<g>
</g>
<g>
</g>
<g>
</g>
<g>
</g>
<g>
</g>
<g>
</g>
<g>
</g>
<g>
</g>
<g>
</g>
<g>
</g>
<g>
</g>
<g>
</g>
<g>
</g>
</svg>
