<?xml version="1.0" encoding="iso-8859-1"?>
<!-- Generator: Adobe Illustrator 19.0.0, SVG Export Plug-In . SVG Version: 6.00 Build 0)  -->
<svg version="1.1" id="Layer_1" xmlns="http://www.w3.org/2000/svg" xmlns:xlink="http://www.w3.org/1999/xlink" x="0px" y="0px"
	 viewBox="0 0 503.607 503.607" style="enable-background:new 0 0 503.607 503.607;" xml:space="preserve">
<g transform="translate(1 1)">
	<g>
		<g>
			<path d="M485.82,435.459h-8.393v-41.967c0-135.974-108.275-247.607-243.41-251.803V66.148h8.393
				c9.233,0,16.787-7.554,16.787-16.787V15.787C259.197,6.554,251.643-1,242.41-1H91.328c-9.233,0-16.787,7.554-16.787,16.787
				v33.574c0,9.233,7.554,16.787,16.787,16.787h8.393v75.541H66.148v-8.393c0-9.233-7.554-16.787-16.787-16.787H15.787
				C6.554,116.508-1,124.062-1,133.295v151.082c0,9.233,7.554,16.787,16.787,16.787h33.574c9.233,0,16.787-7.554,16.787-16.787
				v-8.393h159.475c64.63,0,117.508,52.879,117.508,117.508v41.967h-8.393c-9.233,0-16.787,7.554-16.787,16.787v33.574
				c0,9.233,7.554,16.787,16.787,16.787H485.82c9.233,0,16.787-7.554,16.787-16.787v-33.574
				C502.607,443.013,495.052,435.459,485.82,435.459z M91.328,15.787H242.41v33.574h-16.787H108.115H91.328V15.787z M49.361,284.377
				H15.787V133.295h33.574v16.787V267.59V284.377z M225.623,259.197H66.148V158.475h41.967c5.036,0,8.393-3.357,8.393-8.393V66.148
				h100.721v83.934c0,5.036,3.357,8.393,8.393,8.393c129.259,0,235.016,105.757,235.016,235.016v41.967h-16.787v-25.18
				c0-5.036-3.357-8.393-8.393-8.393c-5.036,0-8.393,3.357-8.393,8.393v25.18h-67.148v-41.967
				C359.918,319.63,299.485,259.197,225.623,259.197z M485.82,485.82H334.738v-33.574h16.787h117.508h16.787V485.82z"/>
			<path d="M406.921,304.521c1.679,3.357,4.197,5.036,7.554,5.036c0.839,0,2.518,0,3.357-1.679
				c4.197-1.679,5.875-6.715,4.197-10.911c-9.233-18.466-21.823-36.092-36.092-52.039c-3.357-4.197-8.393-4.197-11.751-0.839
				c-4.197,3.357-4.197,8.393-0.839,11.751C386.777,270.948,398.528,286.895,406.921,304.521z"/>
			<path d="M366.633,237.374c3.357-3.357,2.518-8.393-0.839-11.751c-18.466-15.108-39.449-27.698-61.272-36.092
				c-4.197-1.679-9.233,0.839-10.911,5.036s0.839,9.233,5.036,10.911c20.144,8.393,39.449,19.305,56.236,33.574
				c0.839,0.839,3.357,1.679,5.036,1.679C362.436,240.731,364.954,239.892,366.633,237.374z"/>
			<path d="M192.049,175.262c-5.036,0-8.393,3.357-8.393,8.393s3.357,8.393,8.393,8.393s8.393-3.357,8.393-8.393
				S197.085,175.262,192.049,175.262z"/>
			<path d="M192.049,82.934c-5.036,0-8.393,3.357-8.393,8.393v50.361c0,5.036,3.357,8.393,8.393,8.393s8.393-3.357,8.393-8.393
				V91.328C200.443,86.292,197.085,82.934,192.049,82.934z"/>
		</g>
	</g>
</g>
<g>
</g>
<g>
</g>
<g>
</g>
<g>
</g>
<g>
</g>
<g>
</g>
<g>
</g>
<g>
</g>
<g>
</g>
<g>
</g>
<g>
</g>
<g>
</g>
<g>
</g>
<g>
</g>
<g>
</g>
</svg>
