<?xml version="1.0" encoding="iso-8859-1"?>
<!-- Generator: Adobe Illustrator 19.0.0, SVG Export Plug-In . SVG Version: 6.00 Build 0)  -->
<svg version="1.1" id="Layer_1" xmlns="http://www.w3.org/2000/svg" xmlns:xlink="http://www.w3.org/1999/xlink" x="0px" y="0px"
	 viewBox="0 0 512 512" style="enable-background:new 0 0 512 512;" xml:space="preserve">
<g transform="translate(1 1)">
	<g>
		<path d="M297.667,425.667v-34.133H280.6V144.067V33.133V-1h-51.2v34.133v110.933v247.467h-17.067v34.133h-93.867v42.667v8.533
			v25.6c0,5.12,3.413,8.533,8.533,8.533s8.533-3.413,8.533-8.533v-25.6h8.533v25.6c0,5.12,3.413,8.533,8.533,8.533
			s8.533-3.413,8.533-8.533v-25.6h8.533v25.6c0,5.12,3.413,8.533,8.533,8.533s8.533-3.413,8.533-8.533v-25.6h8.533v25.6
			c0,5.12,3.413,8.533,8.533,8.533s8.533-3.413,8.533-8.533v-25.6h8.533v25.6c0,5.12,3.413,8.533,8.533,8.533
			c5.12,0,8.533-3.413,8.533-8.533v-25.6h8.533v25.6c0,5.12,3.413,8.533,8.533,8.533c5.12,0,8.533-3.413,8.533-8.533v-25.6h8.533
			v25.6c0,5.12,3.413,8.533,8.533,8.533c5.12,0,8.533-3.413,8.533-8.533v-25.6h8.533v25.6c0,5.12,3.413,8.533,8.533,8.533
			s8.533-3.413,8.533-8.533v-25.6h8.533v25.6c0,5.12,3.413,8.533,8.533,8.533s8.533-3.413,8.533-8.533v-25.6h8.533v25.6
			c0,5.12,3.413,8.533,8.533,8.533s8.533-3.413,8.533-8.533v-25.6h8.533v25.6c0,5.12,3.413,8.533,8.533,8.533
			s8.533-3.413,8.533-8.533v-25.6v-8.533v-42.667H297.667z M263.533,127h-17.067V50.2h17.067V127z M246.467,16.067h17.067v17.067
			h-17.067V16.067z M246.467,144.067h17.067v247.467h-17.067V144.067z M229.4,408.6h51.2v17.067h-51.2V408.6z M135.533,442.733h76.8
			h85.333h76.8V459.8H135.533V442.733z"/>
	</g>
</g>
<g>
</g>
<g>
</g>
<g>
</g>
<g>
</g>
<g>
</g>
<g>
</g>
<g>
</g>
<g>
</g>
<g>
</g>
<g>
</g>
<g>
</g>
<g>
</g>
<g>
</g>
<g>
</g>
<g>
</g>
</svg>
