<?xml version="1.0" encoding="iso-8859-1"?>
<!-- Generator: Adobe Illustrator 19.0.0, SVG Export Plug-In . SVG Version: 6.00 Build 0)  -->
<svg version="1.1" id="Layer_1" xmlns="http://www.w3.org/2000/svg" xmlns:xlink="http://www.w3.org/1999/xlink" x="0px" y="0px"
	 viewBox="0 0 512 512" style="enable-background:new 0 0 512 512;" xml:space="preserve">
<g transform="translate(1 1)">
	<g>
		<path d="M422.558,470.026c-0.356-0.3-0.735-0.586-1.158-0.839L280.6,372.85V331.8v-17.067V116.031
			c24.816-7.249,42.667-29.964,42.667-57.298V16.067h-25.6V-1h-85.333v17.067h-25.6v42.667c0,27.334,17.851,50.049,42.667,57.298
			v198.702V331.8v41.903L90.784,468.545c-3.939,0.807-6.451,3.934-6.451,8.321v25.6c0,5.12,3.413,8.533,8.533,8.533
			s8.533-3.413,8.533-8.533v-20.255l80.356-54.98l-42.202,42.202c-2.509,1.395-4.02,4.034-4.02,7.434v25.6
			c0,5.12,3.413,8.533,8.533,8.533s8.533-3.413,8.533-8.533V480.28l66.844-66.844L187.587,472.6c-1.28,2.133-1.493,4.48-0.853,6.613
			v23.253c0,5.12,3.413,8.533,8.533,8.533s8.533-3.413,8.533-8.533v-22.918l42.667-79.238v76.556v25.6
			c0,5.12,3.413,8.533,8.533,8.533s8.533-3.413,8.533-8.533v-25.6V400.31l42.667,79.238v22.918c0,5.12,3.413,8.533,8.533,8.533
			s8.533-3.413,8.533-8.533v-23.253c0.64-2.133,0.427-4.48-0.853-6.613l-31.858-59.164L357.4,480.28v22.187
			c0,5.12,3.413,8.533,8.533,8.533s8.533-3.413,8.533-8.533v-25.6c0-3.399-1.511-6.038-4.02-7.434l-44.904-44.904l83.058,56.829
			v21.109c0,5.12,3.413,8.533,8.533,8.533c5.12,0,8.533-3.413,8.533-8.533v-25.6C425.667,473.901,424.516,471.515,422.558,470.026z
			 M229.4,16.067h51.2v17.067h-51.2V16.067z M203.8,58.733v-25.6h8.533V50.2h85.333V33.133h8.533v25.6
			c0,19.543-12.562,35.654-30.21,40.875l-5.63,0.938c-1.009,0.336-1.884,0.537-2.732,0.661c-1.347,0.123-2.711,0.193-4.094,0.193
			h-17.067c-1.148,0-2.28-0.057-3.403-0.142c-1.088-0.115-2.254-0.322-3.424-0.712l-5.63-0.938
			C216.362,94.387,203.8,78.276,203.8,58.733z M246.467,118.467h17.067v196.267h-17.067V118.467z M246.467,331.8h17.067v29.373
			l-3.148-2.154c-0.536-0.432-1.111-0.793-1.712-1.088c-4.139-2.145-8.911-1.189-11.354,2.882c-0.193,0.322-0.361,0.651-0.515,0.981
			l-0.338,0.231V331.8z"/>
	</g>
</g>
<g>
</g>
<g>
</g>
<g>
</g>
<g>
</g>
<g>
</g>
<g>
</g>
<g>
</g>
<g>
</g>
<g>
</g>
<g>
</g>
<g>
</g>
<g>
</g>
<g>
</g>
<g>
</g>
<g>
</g>
</svg>
