<?xml version="1.0" encoding="iso-8859-1"?>
<!-- Generator: Adobe Illustrator 19.0.0, SVG Export Plug-In . SVG Version: 6.00 Build 0)  -->
<svg version="1.1" id="Layer_1" xmlns="http://www.w3.org/2000/svg" xmlns:xlink="http://www.w3.org/1999/xlink" x="0px" y="0px"
	 viewBox="0 0 512 512" style="enable-background:new 0 0 512 512;" xml:space="preserve">
<g transform="translate(1 1)">
	<g>
		<path d="M331.8,365.933h-42.667v-42.667H280.6V116.031c24.816-7.249,42.667-29.964,42.667-57.298V16.067h-25.6V-1h-85.333v17.067
			h-25.6v42.667c0,27.334,17.851,50.049,42.667,57.298v207.235h-8.533v42.667H178.2c-18.773,0-34.133,15.36-34.133,34.133v102.4
			c0,5.12,3.413,8.533,8.533,8.533s8.533-3.413,8.533-8.533v-102.4c0-9.387,7.68-17.067,17.067-17.067v119.467
			c0,5.12,3.413,8.533,8.533,8.533s8.533-3.413,8.533-8.533V383h17.067v119.467c0,5.12,3.413,8.533,8.533,8.533
			s8.533-3.413,8.533-8.533V383h17.067v119.467c0,5.12,3.413,8.533,8.533,8.533s8.533-3.413,8.533-8.533V383H280.6v119.467
			c0,5.12,3.413,8.533,8.533,8.533c5.12,0,8.533-3.413,8.533-8.533V383h17.067v119.467c0,5.12,3.413,8.533,8.533,8.533
			s8.533-3.413,8.533-8.533V383c9.387,0,17.067,7.68,17.067,17.067v102.4c0,5.12,3.413,8.533,8.533,8.533
			c5.12,0,8.533-3.413,8.533-8.533v-102.4C365.933,381.293,350.573,365.933,331.8,365.933z M229.4,16.067h51.2v17.067h-51.2V16.067z
			 M203.8,58.733v-25.6h8.533V50.2h85.333V33.133h8.533v25.6c0,19.543-12.562,35.654-30.21,40.875l-5.63,0.938
			c-1.009,0.336-1.884,0.537-2.732,0.661c-1.347,0.123-2.711,0.193-4.094,0.193h-17.067c-1.148,0-2.28-0.057-3.403-0.142
			c-1.088-0.115-2.254-0.322-3.424-0.712l-5.63-0.938C216.362,94.387,203.8,78.276,203.8,58.733z M246.467,118.467h17.067v204.8
			h-17.067V118.467z M237.933,365.933v-25.6h34.133v25.6H237.933z"/>
	</g>
</g>
<g>
</g>
<g>
</g>
<g>
</g>
<g>
</g>
<g>
</g>
<g>
</g>
<g>
</g>
<g>
</g>
<g>
</g>
<g>
</g>
<g>
</g>
<g>
</g>
<g>
</g>
<g>
</g>
<g>
</g>
</svg>
