<?xml version="1.0" encoding="iso-8859-1"?>
<!-- Generator: Adobe Illustrator 19.0.0, SVG Export Plug-In . SVG Version: 6.00 Build 0)  -->
<svg version="1.1" id="Layer_1" xmlns="http://www.w3.org/2000/svg" xmlns:xlink="http://www.w3.org/1999/xlink" x="0px" y="0px"
	 viewBox="0 0 512 512" style="enable-background:new 0 0 512 512;" xml:space="preserve">
<g transform="translate(1 1)">
	<g>
		<g>
			<path d="M335.213,340.333h-125.44c-17.067,0-30.72,14.507-30.72,31.573v23.04c0,17.067,13.653,30.72,30.72,30.72h125.44
				c17.067,0,30.72-13.653,31.573-30.72v-23.04C366.787,353.987,352.28,340.333,335.213,340.333z M335.213,408.6h-125.44
				c-7.68,0-13.653-5.973-13.653-13.653v-3.413h25.6c4.267,0,7.68-3.413,7.68-8.533s-2.56-8.533-7.68-8.533h-25.6v-2.56
				c0-8.533,5.973-14.507,13.653-14.507h125.44c8.533,0,14.507,6.827,14.507,14.507v2.56h-26.453c-5.12,0-8.533,3.413-8.533,8.533
				s3.413,8.533,8.533,8.533h26.453v3.413C349.72,402.627,342.893,408.6,335.213,408.6z"/>
			<path d="M502.467,408.6h-102.4v-51.2h102.4c5.12,0,8.533-3.413,8.533-8.533c0-5.12-3.413-8.533-8.533-8.533h-102.4v-2.56
				c0-17.067-13.653-30.72-30.72-30.72H313.88V263.96C354.486,247.508,383,207.765,383,161.133
				C383,99.693,333.507,50.2,272.067,50.2S161.133,99.693,161.133,161.133c0,46.305,28.115,85.819,68.267,102.479v43.441h-53.76
				c-17.92,0-31.573,13.653-31.573,30.72v3.71c-33.555-4.235-59.733-33.054-59.733-67.71V58.733c0-5.12-3.413-8.533-8.533-8.533
				s-8.533,3.413-8.533,8.533v215.04c0,44.373,34.133,81.067,76.8,85.333V408.6c-70.827-4.267-128-63.147-128-134.827V58.733
				c0-5.12-3.413-8.533-8.533-8.533S-1,53.613-1,58.733v215.04c0,80.792,64.516,147.241,145.067,151.653v2.8
				c0,17.92,14.507,31.573,31.573,31.573h193.707c17.067,0,30.72-13.653,30.72-30.72v-3.413h102.4c5.12,0,8.533-3.413,8.533-8.533
				C511,412.013,507.587,408.6,502.467,408.6z M297.667,306.2h-51.2v-37.08c0.568,0.134,1.141,0.254,1.712,0.379
				c0.632,0.138,1.264,0.274,1.899,0.401c0.624,0.125,1.249,0.244,1.876,0.358c0.568,0.103,1.139,0.198,1.71,0.293
				c0.928,0.154,1.86,0.296,2.795,0.427c0.656,0.092,1.312,0.181,1.971,0.261c0.557,0.068,1.116,0.131,1.675,0.19
				c0.886,0.094,1.776,0.177,2.669,0.251c0.439,0.036,0.879,0.071,1.319,0.102c1.032,0.073,2.068,0.13,3.108,0.174
				c0.367,0.016,0.734,0.03,1.101,0.042c1.25,0.041,2.503,0.07,3.763,0.07c1.264,0,2.521-0.029,3.774-0.07
				c0.356-0.012,0.712-0.025,1.067-0.04c1.121-0.048,2.238-0.108,3.35-0.189c0.248-0.018,0.496-0.037,0.744-0.056
				c1.1-0.087,2.194-0.193,3.284-0.312c0.356-0.039,0.711-0.079,1.066-0.121c4.182-0.495,8.292-1.219,12.316-2.163V306.2z
				 M303.159,249.772c-0.124,0.037-0.248,0.067-0.372,0.108c-10.187,3.396-20.585,5.099-30.984,5.117
				c-0.282-0.001-0.562-0.007-0.843-0.011c-0.643-0.005-1.287-0.022-1.93-0.039c-15.628-0.491-30.26-4.754-43.024-11.916
				c11.094-14.492,28.151-22.164,46.062-22.164c17.91,0,34.968,7.673,46.062,22.164
				C313.382,245.694,308.377,247.955,303.159,249.772z M178.2,161.133c0-52.053,42.667-93.867,93.867-93.867
				c52.053,0,93.867,41.813,93.867,93.867c0,28.978-12.963,54.778-33.433,71.962c-14.824-18.531-36.953-29.295-60.434-29.295
				c-23.333,0-45.334,10.628-60.155,29.53C191.28,216.147,178.2,190.243,178.2,161.133z M383,428.227
				c0,8.533-5.973,14.507-13.653,14.507H175.64c-8.533,0-14.507-6.827-14.507-14.507v-11.093v-66.56V336.92
				c0-13.653,14.507-12.8,14.507-12.8h193.707c7.68,0,13.653,5.973,13.653,13.653v11.093v68.267V428.227z"/>
			<path d="M212.333,161.133c0-4.267-3.413-8.533-8.533-8.533c-5.12,0-8.533,3.413-8.533,8.533s3.413,8.533,8.533,8.533
				C208.92,169.667,212.333,166.253,212.333,161.133z"/>
			<path d="M340.333,169.667c5.12,0,8.533-3.413,8.533-8.533c0-4.267-3.413-8.533-8.533-8.533c-5.12,0-8.533,3.413-8.533,8.533
				S335.213,169.667,340.333,169.667z"/>
			<path d="M220.867,127c5.12,0,8.533-3.413,8.533-8.533c0-4.267-3.413-8.533-8.533-8.533s-8.533,3.413-8.533,8.533
				S215.747,127,220.867,127z"/>
			<path d="M272.067,101.4c5.12,0,8.533-3.413,8.533-8.533c0-4.267-3.413-8.533-8.533-8.533c-5.12,0-8.533,3.413-8.533,8.533
				S266.947,101.4,272.067,101.4z"/>
			<path d="M323.267,127c5.12,0,8.533-3.413,8.533-8.533c0-4.267-3.413-8.533-8.533-8.533s-8.533,3.413-8.533,8.533
				S318.147,127,323.267,127z"/>
			<path d="M265.24,183.32c1.707,2.56,7.68,3.413,11.093,0.853s4.267-8.533,0.853-11.947l-28.16-34.133
				c-2.56-3.413-8.533-4.267-11.947-0.853c-3.413,2.56-4.267,8.533-0.853,11.947L265.24,183.32z"/>
		</g>
	</g>
</g>
<g>
</g>
<g>
</g>
<g>
</g>
<g>
</g>
<g>
</g>
<g>
</g>
<g>
</g>
<g>
</g>
<g>
</g>
<g>
</g>
<g>
</g>
<g>
</g>
<g>
</g>
<g>
</g>
<g>
</g>
</svg>
