<?xml version="1.0" encoding="iso-8859-1"?>
<!-- Generator: Adobe Illustrator 19.0.0, SVG Export Plug-In . SVG Version: 6.00 Build 0)  -->
<svg version="1.1" id="Layer_1" xmlns="http://www.w3.org/2000/svg" xmlns:xlink="http://www.w3.org/1999/xlink" x="0px" y="0px"
	 viewBox="0 0 511.896 511.896" style="enable-background:new 0 0 511.896 511.896;" xml:space="preserve">
<g transform="translate(1 1)">
	<g>
		<g>
			<path d="M369.242,340.281h-125.44c-17.067,0-30.72,14.507-30.72,31.573v23.04c0,17.067,13.653,30.72,30.72,30.72h125.44
				c17.067,0,30.72-13.653,31.573-30.72v-23.04C400.816,353.935,386.309,340.281,369.242,340.281z M369.242,408.548h-125.44
				c-7.68,0-13.653-5.973-13.653-13.653v-3.413h24.747c5.12,0,8.533-3.413,8.533-8.533s-3.413-8.533-8.533-8.533h-24.747v-2.56
				c0-8.533,5.973-14.507,13.653-14.507h125.44c8.533,0,14.507,6.827,14.507,14.507v2.56h-26.453c-5.12,0-8.533,3.413-8.533,8.533
				s3.413,8.533,8.533,8.533h26.453v3.413C383.749,402.575,376.922,408.548,369.242,408.548z"/>
			<path d="M502.362,408.548h-68.267v-51.2h68.267c5.12,0,8.533-3.413,8.533-8.533c0-5.12-3.413-8.533-8.533-8.533h-68.267v-2.56
				c0-17.067-13.653-30.72-30.72-30.72h-55.467v-43.094c40.606-16.452,69.12-56.195,69.12-102.827
				c0-61.44-49.493-110.933-110.933-110.933S195.162,99.641,195.162,161.081c0,46.305,28.115,85.819,68.267,102.479v43.441h-53.76
				c-17.92,0-31.573,13.653-31.573,30.72v3.71c-33.555-4.235-59.733-33.054-59.733-67.71V58.681c0-5.12-3.413-8.533-8.533-8.533
				s-8.533,3.413-8.533,8.533v215.04c0,44.373,34.133,81.067,76.8,85.333v49.493c-71.68-4.267-128-62.293-128-133.973v-30.72
				c8.533-1.707,16.213-5.973,23.04-11.947c9.387-9.387,20.48-34.133,0.853-65.707l-22.3-31.061l-1.593-2.307v-22.952h17.067
				c5.12,0,8.533-3.413,8.533-8.533V84.281h8.533c5.12,0,8.533-3.413,8.533-8.533s-3.413-8.533-8.533-8.533H67.162
				c-5.12,0-8.533,3.413-8.533,8.533v17.067h-8.533V58.681c0-5.12-3.413-8.533-8.533-8.533s-8.533,3.413-8.533,8.533v74.069
				L9.136,166.201c-13.653,23.04-13.653,46.933,0.853,64.853c0.853,0.853,0.853,0.853,0.853,0.853
				c5.811,6.456,13.577,10.466,22.187,12.037v29.776c0,80.792,64.516,147.241,145.067,151.653v2.8
				c0,17.92,14.507,31.573,31.573,31.573h193.707c17.067,0,30.72-13.653,30.72-30.72v-3.413h68.267c5.12,0,8.533-3.413,8.533-8.533
				C510.896,411.961,507.482,408.548,502.362,408.548z M331.696,306.148h-51.2v-37.08c0.568,0.134,1.141,0.254,1.712,0.379
				c0.632,0.138,1.264,0.274,1.9,0.401c0.624,0.125,1.249,0.244,1.876,0.358c0.568,0.103,1.139,0.198,1.71,0.293
				c0.928,0.154,1.86,0.296,2.795,0.427c0.656,0.092,1.312,0.181,1.972,0.261c0.557,0.067,1.115,0.131,1.675,0.19
				c0.887,0.094,1.776,0.177,2.669,0.251c0.439,0.036,0.879,0.071,1.319,0.102c1.032,0.073,2.068,0.13,3.108,0.174
				c0.367,0.016,0.734,0.03,1.101,0.042c1.25,0.041,2.503,0.07,3.763,0.07c1.264,0,2.521-0.029,3.774-0.07
				c0.356-0.012,0.712-0.025,1.067-0.04c1.121-0.048,2.238-0.108,3.35-0.189c0.248-0.018,0.496-0.037,0.744-0.056
				c1.099-0.087,2.193-0.193,3.283-0.311c0.356-0.039,0.711-0.079,1.067-0.121c4.182-0.495,8.292-1.219,12.315-2.163V306.148z
				 M337.188,249.72c-0.124,0.037-0.248,0.067-0.372,0.108c-10.187,3.396-20.585,5.099-30.984,5.117
				c-0.282-0.001-0.562-0.007-0.843-0.011c-0.643-0.005-1.287-0.022-1.93-0.039c-15.628-0.491-30.26-4.754-43.024-11.916
				c11.094-14.492,28.151-22.164,46.062-22.164s34.968,7.672,46.062,22.164C347.411,245.642,342.406,247.903,337.188,249.72z
				 M212.229,161.081c0-52.053,42.667-93.867,93.867-93.867c52.053,0,93.867,41.813,93.867,93.867
				c0,28.978-12.963,54.778-33.433,71.962c-14.824-18.531-36.953-29.295-60.434-29.295c-23.333,0-45.334,10.628-60.155,29.53
				C225.309,216.095,212.229,190.191,212.229,161.081z M23.642,174.735l17.606-25.151l18.234,25.151
				c4.693,7.627,6.967,14.547,7.687,20.589c0.262,2.197,0.318,4.278,0.211,6.234c-0.054,0.978-0.148,1.925-0.279,2.84
				c-0.978,6.861-3.965,11.911-6.765,14.711c-5.12,5.12-11.947,7.68-18.773,7.68c-0.439,0-0.86,0.034-1.273,0.083
				c-6.407-0.248-12.773-2.576-17.501-6.91C13.402,208.015,14.256,191.801,23.642,174.735z M417.029,428.175
				c0,8.533-5.973,14.507-13.653,14.507H209.669c-8.533,0-14.507-6.827-14.507-14.507v-11.093v-66.56v-13.653
				c0-13.653,14.507-12.8,14.507-12.8h193.707c7.68,0,13.653,5.973,13.653,13.653v11.093v68.267V428.175z"/>
			<path d="M246.362,161.081c0-4.267-3.413-8.533-8.533-8.533s-8.533,3.413-8.533,8.533s3.413,8.533,8.533,8.533
				S246.362,166.201,246.362,161.081z"/>
			<path d="M374.362,169.615c5.12,0,8.533-3.413,8.533-8.533c0-4.267-3.413-8.533-8.533-8.533s-8.533,3.413-8.533,8.533
				S369.242,169.615,374.362,169.615z"/>
			<path d="M254.896,126.948c5.12,0,8.533-3.413,8.533-8.533c0-4.267-3.413-8.533-8.533-8.533s-8.533,3.413-8.533,8.533
				S249.776,126.948,254.896,126.948z"/>
			<path d="M306.096,101.348c5.12,0,8.533-3.413,8.533-8.533c0-4.267-3.413-8.533-8.533-8.533s-8.533,3.413-8.533,8.533
				S300.976,101.348,306.096,101.348z"/>
			<path d="M357.296,126.948c5.12,0,8.533-3.413,8.533-8.533c0-4.267-3.413-8.533-8.533-8.533s-8.533,3.413-8.533,8.533
				S352.176,126.948,357.296,126.948z"/>
			<path d="M299.269,183.268c1.707,2.56,8.533,4.267,11.947,0.853c3.413-2.56,4.267-8.533,0.853-11.947l-29.013-34.133
				c-2.56-3.413-8.533-4.267-11.947-0.853c-3.413,2.56-4.267,8.533-0.853,11.947L299.269,183.268z"/>
		</g>
	</g>
</g>
<g>
</g>
<g>
</g>
<g>
</g>
<g>
</g>
<g>
</g>
<g>
</g>
<g>
</g>
<g>
</g>
<g>
</g>
<g>
</g>
<g>
</g>
<g>
</g>
<g>
</g>
<g>
</g>
<g>
</g>
</svg>
