<?xml version="1.0" encoding="iso-8859-1"?>
<!-- Generator: Adobe Illustrator 19.0.0, SVG Export Plug-In . SVG Version: 6.00 Build 0)  -->
<svg version="1.1" id="Layer_1" xmlns="http://www.w3.org/2000/svg" xmlns:xlink="http://www.w3.org/1999/xlink" x="0px" y="0px"
	 viewBox="0 0 503.607 503.607" style="enable-background:new 0 0 503.607 503.607;" xml:space="preserve">
<g transform="translate(1 1)">
	<g>
		<g>
			<path d="M270.108,219.748l-50.361,50.361c-3.357,3.357-3.357,8.393,0,11.751c1.679,1.679,3.357,2.518,5.875,2.518
				c2.518,0,4.197-0.839,5.875-2.518l50.361-50.361c3.357-3.357,3.357-8.393,0-11.751
				C278.502,216.39,273.466,216.39,270.108,219.748z"/>
			<path d="M485.82,158.475h-33.574c-9.233,0-16.787,7.554-16.787,16.787v8.393h-88.374c-3.632-5.183-7.671-10.062-12.07-14.592
				c-0.318-0.474-0.69-0.929-1.117-1.356c-0.427-0.427-0.881-0.798-1.356-1.117c-21.191-20.578-50.05-33.297-81.739-33.297
				c-39.714,0-74.984,19.971-96.281,50.361H66.148v-8.393c0-9.233-7.554-16.787-16.787-16.787H15.787
				C6.554,158.475-1,166.03-1,175.262v151.082c0,9.233,7.554,16.787,16.787,16.787h33.574c9.233,0,16.787-7.554,16.787-16.787
				v-8.393h88.374c3.632,5.183,7.671,10.062,12.07,14.592c0.318,0.474,0.69,0.929,1.117,1.356c0.486,0.486,0.974,0.892,1.48,1.237
				c21.179,20.507,49.988,33.176,81.616,33.176s60.436-12.669,81.616-33.176c0.506-0.345,0.994-0.752,1.48-1.237
				c0.427-0.427,0.798-0.881,1.117-1.356c4.398-4.529,8.437-9.408,12.07-14.592h88.374v8.393c0,9.233,7.554,16.787,16.787,16.787
				h33.574c9.233,0,16.787-7.554,16.787-16.787V175.262C502.607,166.03,495.052,158.475,485.82,158.475z M343.641,289.756
				c-0.078,0.189-0.163,0.374-0.243,0.563c-3.998,9.296-9.361,17.88-15.83,25.499l-17.172-17.172c-3.357-3.357-8.393-3.357-11.751,0
				c-3.357,3.357-3.357,8.393,0,11.751l17.172,17.172c-15.568,13.217-35.166,21.809-56.621,23.601v-24.825
				c0-5.036-3.357-8.393-8.393-8.393s-8.393,3.357-8.393,8.393v24.825c-21.455-1.792-41.053-10.384-56.621-23.601l17.172-17.172
				c3.357-3.357,3.357-8.393,0-11.751s-8.393-3.357-11.751,0l-17.172,17.172c-4.245-5-8.013-10.416-11.232-16.176
				c-6.757-12.724-11.094-26.319-12.34-40.445h24.795c5.036,0,8.393-3.357,8.393-8.393s-3.357-8.393-8.393-8.393H150.47
				c1.449-16.263,7.08-31.827,16.399-46.164c0.508-0.762,0.843-1.605,1.044-2.474c2.024-2.927,4.196-5.744,6.51-8.438l17.626,17.626
				c1.679,1.679,3.357,2.518,5.875,2.518c1.679,0,4.197-0.839,5.875-2.518c3.357-3.357,3.357-8.393,0-11.751l-17.557-17.557
				c15.494-12.999,34.92-21.442,56.166-23.216v24.825c0,5.036,3.357,8.393,8.393,8.393s8.393-3.357,8.393-8.393v-24.825
				c21.455,1.792,41.053,10.384,56.621,23.601l-17.172,17.172c-3.357,3.357-3.357,8.393,0,11.751
				c1.679,1.679,3.357,2.518,5.875,2.518c1.679,0,4.197-0.839,5.875-2.518l17.172-17.172c4.245,5,8.012,10.416,11.231,16.176
				c6.757,12.724,11.094,26.319,12.34,40.445h-24.795c-5.036,0-8.393,3.357-8.393,8.393s3.357,8.393,8.393,8.393h24.8
				c-0.898,10.343-3.414,20.544-7.308,30.084C343.77,289.438,343.708,289.598,343.641,289.756z M49.361,326.344H15.787V175.262
				h33.574v16.787v117.508V326.344z M66.148,301.164v-67.148h25.18c5.036,0,8.393-3.357,8.393-8.393
				c0-5.036-3.357-8.393-8.393-8.393h-25.18v-16.787h78.562c-6.86,14.342-10.893,30.267-11.364,47.043
				c0,0.01-0.001,0.019-0.001,0.029c-0.03,1.093-0.049,2.189-0.049,3.289s0.018,2.196,0.049,3.289c0,0.01,0.001,0.019,0.001,0.029
				c0.471,16.776,4.505,32.701,11.364,47.043H66.148z M357.4,301.164c7.554-15.948,10.911-32.734,10.911-50.361
				c0-1.1-0.018-2.196-0.049-3.289c0-0.01-0.001-0.019-0.001-0.029c-0.128-4.558-0.524-9.051-1.163-13.469h18
				c5.036,0,8.393-3.357,8.393-8.393c0-5.036-3.357-8.393-8.393-8.393h-21.713c-1.74-5.793-3.913-11.402-6.488-16.787h78.562v16.787
				h-16.787c-5.036,0-8.393,3.357-8.393,8.393c0,5.036,3.357,8.393,8.393,8.393h16.787v67.148H357.4z M485.82,326.344h-33.574
				v-16.787V192.049v-16.787h33.574V326.344z"/>
		</g>
	</g>
</g>
<g>
</g>
<g>
</g>
<g>
</g>
<g>
</g>
<g>
</g>
<g>
</g>
<g>
</g>
<g>
</g>
<g>
</g>
<g>
</g>
<g>
</g>
<g>
</g>
<g>
</g>
<g>
</g>
<g>
</g>
</svg>
