<?xml version="1.0" encoding="iso-8859-1"?>
<!-- Generator: Adobe Illustrator 19.0.0, SVG Export Plug-In . SVG Version: 6.00 Build 0)  -->
<svg version="1.1" id="Layer_1" xmlns="http://www.w3.org/2000/svg" xmlns:xlink="http://www.w3.org/1999/xlink" x="0px" y="0px"
	 viewBox="0 0 507.733 507.733" style="enable-background:new 0 0 507.733 507.733;" xml:space="preserve">
<g transform="translate(1 1)">
	<g>
		<g>
			<path d="M504.173,419.693L321.158,236.678l5.522-5.571c0.853-0.853,1.707-2.56,1.707-3.413l48.64-145.067
				c1.707-2.56,0.853-5.973-1.707-8.533l-11.947-11.947c-3.413-3.413-8.533-3.413-11.947,0L122.733,291.693
				c-3.413,3.413-3.413,8.533,0,11.947l11.947,11.947c1.707,1.707,3.413,2.56,5.12,2.56l84.48,11.947h0.853
				c1.707,0,4.267-0.853,5.973-2.56l5.947-6l17.946,17.946c0,0,0,0,0.001,0.001c0,0,0.001,0.001,0.001,0.001l48.639,48.639
				c0,0,0,0,0,0c0,0,0,0,0.001,0.001l23.892,23.892c0,0,0,0,0,0c0,0,0,0,0,0l92.16,92.16c1.707,1.707,3.413,2.56,5.973,2.56
				s4.267-0.853,5.973-2.56l72.533-72.533c1.707-1.707,2.56-3.413,2.56-5.973S505.88,421.4,504.173,419.693z M221.72,312.173
				l-77.653-11.093l-3.413-3.413L357.4,80.067l2.56,1.707l-46.08,138.24L221.72,312.173z M425.667,486.253l-32-32l24.32-24.32
				c3.413-3.413,3.413-8.533,0-11.947c-3.413-3.413-8.533-3.413-11.947,0l-24.32,24.32l-12.373-12.373l11.947-11.947
				c3.413-3.413,3.413-8.533,0-11.947s-8.533-3.413-11.947,0L357.4,417.987l-11.947-11.947l23.893-23.893
				c3.413-3.413,3.413-8.533,0-11.947c-3.413-3.413-8.533-3.413-11.947,0l-23.893,23.893l-11.947-11.947l11.947-11.947
				c3.413-3.413,3.413-8.533,0-11.947c-3.413-3.413-8.533-3.413-11.947,0L309.613,370.2l-12.8-12.8l23.893-23.893
				c3.413-3.413,3.413-8.533,0-11.947c-3.413-3.413-8.533-3.413-11.947,0l-23.893,23.893l-11.947-11.947l11.947-11.947
				c3.413-3.413,3.413-8.533,0-11.947c-3.413-3.413-8.533-3.413-11.947,0l-11.947,11.947l-11.947-11.947l60.587-60.587
				l176.64,176.64L425.667,486.253z"/>
			<path d="M342.04,43.373c0-2.56-0.853-4.267-2.56-5.973l-11.947-11.947c-1.707-1.707-5.12-2.56-8.533-1.707l-145.067,48.64
				c-1.707,0-2.56,0.853-3.413,1.707l-5.973,5.973L86.04,1.56C84.333-0.147,82.627-1,80.067-1S75.8-0.147,74.093,1.56L1.56,74.093
				C-0.147,75.8-1,77.507-1,80.067s0.853,4.267,2.56,5.973l78.507,78.507l-5.973,5.973c-1.707,1.707-2.56,4.267-2.56,6.827
				l11.947,84.48c0,1.707,0.853,3.413,2.56,5.12l11.947,11.947c1.707,1.707,3.413,2.56,5.973,2.56s4.267-0.853,5.973-2.56
				L339.48,49.347C341.187,47.64,342.04,45.933,342.04,43.373z M68.12,128.707l11.947-11.947c3.413-3.413,3.413-8.533,0-11.947
				s-8.533-3.413-11.947,0L56.173,116.76l-12.8-12.8l23.893-23.893c3.413-3.413,3.413-8.533,0-11.947s-8.533-3.413-11.947,0
				L31.427,92.013L19.48,80.067L80.067,19.48L152.6,92.013L92.013,152.6L68.12,128.707z M104.813,260.973l-4.267-4.267l-11.093-76.8
				l92.16-92.16L319,41.667l2.56,2.56L104.813,260.973z"/>
		</g>
	</g>
</g>
<g>
</g>
<g>
</g>
<g>
</g>
<g>
</g>
<g>
</g>
<g>
</g>
<g>
</g>
<g>
</g>
<g>
</g>
<g>
</g>
<g>
</g>
<g>
</g>
<g>
</g>
<g>
</g>
<g>
</g>
</svg>
