<?xml version="1.0" encoding="iso-8859-1"?>
<!-- Generator: Adobe Illustrator 19.0.0, SVG Export Plug-In . SVG Version: 6.00 Build 0)  -->
<svg version="1.1" id="Layer_1" xmlns="http://www.w3.org/2000/svg" xmlns:xlink="http://www.w3.org/1999/xlink" x="0px" y="0px"
	 viewBox="0 0 511.839 511.839" style="enable-background:new 0 0 511.839 511.839;" xml:space="preserve">
<g transform="translate(1 1)">
	<g>
		<path d="M508.279,410.821L290.824,193.968L417.826,67.781c3.413-3.413,3.413-8.533,0-11.947L363.212,1.221
			c-2.56-2.56-6.827-2.56-10.24-0.853L192.303,101.312c-1.451,0.363-2.841,1.126-4.024,2.309l-0.447,0.447
			c-0.161,0.148-0.318,0.299-0.463,0.463l-83.57,83.57c-1.183,1.183-1.946,2.573-2.309,4.024L0.546,352.794
			c-2.56,3.413-1.707,7.68,0.853,10.24l54.613,54.613c1.707,1.707,3.413,2.56,5.973,2.56c1.707,0,4.267-0.853,5.973-2.56
			l126.187-127.002l216.853,217.455c1.707,1.707,3.413,2.56,5.973,2.56s4.267-0.853,5.973-2.56l85.333-85.333
			c1.707-1.707,2.56-3.413,2.56-5.973S509.986,412.528,508.279,410.821z M356.386,18.288l43.52,43.52L278.842,182.019
			l-70.923-70.726L356.386,18.288z M61.986,399.728l-43.52-43.52l93.013-147.627l70.827,70.827L61.986,399.728z M416.972,490.181
			l-30.25-30.337l12.33-12.33c3.413-3.413,3.413-8.533,0-11.947c-3.413-3.413-8.533-3.413-11.947,0l-12.312,12.312l-11.929-11.964
			l24.242-24.242c3.413-3.413,3.413-8.533,0-11.947c-3.413-3.413-8.533-3.413-11.947,0l-24.225,24.225l-11.929-11.964l12.261-12.261
			c3.413-3.413,3.413-8.533,0-11.947c-3.413-3.413-8.533-3.413-11.947,0l-12.243,12.243l-12.355-12.391l24.599-24.599
			c3.413-3.413,3.413-8.533,0-11.947c-3.413-3.413-8.533-3.413-11.947,0l-24.582,24.582l-12.355-12.391l12.19-12.19
			c3.413-3.413,3.413-8.533,0-11.947s-8.533-3.413-11.947,0l-12.173,12.173l-11.929-11.964l24.103-24.103
			c3.413-3.413,3.413-8.533,0-11.947s-8.533-3.413-11.947,0l-24.085,24.085l-11.929-11.964l12.122-12.122
			c3.413-3.413,3.413-8.533,0-11.947c-3.413-3.413-8.533-3.413-11.947,0l-12.104,12.104l-12.782-12.818l24.032-24.033
			c3.413-3.413,3.413-8.533,0-11.947s-8.533-3.413-11.947,0l-24.015,24.015l-4.741-4.755c-0.318-0.469-0.688-0.918-1.11-1.34
			l-5.973-5.973l11.947-11.947c3.413-3.413,3.413-8.533,0-11.947s-8.533-3.413-11.947,0l-11.947,11.947l-11.947-11.947
			l23.893-23.893c3.413-3.413,3.413-8.533,0-11.947s-8.533-3.413-11.947,0l-23.893,23.893l-11.947-11.947l11.947-11.947
			c3.413-3.413,3.413-8.533,0-11.947s-8.533-3.413-11.947,0l-11.947,11.947l-12.8-12.8l72.533-72.533l78.507,78.507
			c0.479,0.479,0.961,0.884,1.459,1.228l216.141,215.518L416.972,490.181z"/>
	</g>
</g>
<g>
</g>
<g>
</g>
<g>
</g>
<g>
</g>
<g>
</g>
<g>
</g>
<g>
</g>
<g>
</g>
<g>
</g>
<g>
</g>
<g>
</g>
<g>
</g>
<g>
</g>
<g>
</g>
<g>
</g>
</svg>
