<?xml version="1.0" encoding="iso-8859-1"?>
<!-- Generator: Adobe Illustrator 19.0.0, SVG Export Plug-In . SVG Version: 6.00 Build 0)  -->
<svg version="1.1" id="Layer_1" xmlns="http://www.w3.org/2000/svg" xmlns:xlink="http://www.w3.org/1999/xlink" x="0px" y="0px"
	 viewBox="0 0 503.607 503.607" style="enable-background:new 0 0 503.607 503.607;" xml:space="preserve">
<g transform="translate(1 1)">
	<g>
		<g>
			<path d="M66.148,112.311c18.466,0,33.574-15.108,33.574-33.574S84.613,45.164,66.148,45.164
				c-18.466,0-33.574,15.108-33.574,33.574S47.682,112.311,66.148,112.311z M66.148,61.951c9.233,0,16.787,7.554,16.787,16.787
				S75.38,95.525,66.148,95.525s-16.787-7.554-16.787-16.787S56.915,61.951,66.148,61.951z"/>
			<path d="M66.148,372.508c-18.466,0-33.574,15.108-33.574,33.574s15.108,33.574,33.574,33.574
				c18.466,0,33.574-15.108,33.574-33.574S84.613,372.508,66.148,372.508z M66.148,422.869c-9.233,0-16.787-7.554-16.787-16.787
				s7.554-16.787,16.787-16.787s16.787,7.554,16.787,16.787S75.38,422.869,66.148,422.869z"/>
			<path d="M394.331,432.102c6.715,5.036,14.269,7.554,21.823,7.554c0.839,0,1.679,0,2.518,0
				c9.233-0.839,16.787-5.036,22.662-11.751c11.751-14.269,10.072-35.252-4.197-47.003c-14.269-11.751-35.252-10.072-47.003,4.197
				C378.384,399.367,380.062,420.351,394.331,432.102z M403.564,396.01c3.357-4.197,7.554-5.875,12.59-5.875
				c4.197,0,7.554,0.839,10.911,4.197c6.715,5.875,7.554,16.787,1.679,23.502c-2.518,3.357-6.715,5.875-10.911,5.875
				c-5.036,0-9.233-1.679-12.59-4.197C398.528,413.636,397.689,402.725,403.564,396.01z"/>
			<path d="M477.426,145.885c14.269,0,25.18-10.911,25.18-25.18V36.77c0-14.269-10.911-25.18-25.18-25.18H19.144
				C8.233,11.59-1,20.823-1,31.734v94.007c0,7.659,4.556,14.475,11.041,17.868c0.224,0.207,0.457,0.408,0.71,0.598l197.242,170.269
				c0.262,0.33,0.538,0.653,0.843,0.958c0.237,0.237,0.617,0.472,1.066,0.691l23.059,19.906c0.318,0.427,0.668,0.839,1.055,1.227
				c0.274,0.274,0.736,0.545,1.28,0.79l1.03,0.889H19.144C8.233,338.934-1,348.167-1,359.079v94.007
				c0,10.911,9.233,20.144,20.144,20.144h372.752l11.668,10.072c5.036,4.197,10.911,6.715,17.626,6.715c0.839,0,1.679,0,1.679-0.839
				c7.554,0,13.43-3.357,18.466-9.233l5.624-6.715h30.468c14.269,0,25.18-10.911,25.18-25.18v-47.843v-36.931
				c0-14.269-10.911-25.18-25.18-25.18h-38.374l-229.003-192.21H477.426z M15.787,31.734c0-1.679,1.679-3.357,3.357-3.357h105.757
				v25.18c0,5.036,3.357,8.393,8.393,8.393s8.393-3.357,8.393-8.393v-25.18h16.787v41.967c0,5.036,3.357,8.393,8.393,8.393
				s8.393-3.357,8.393-8.393V28.377h16.787v25.18c0,5.036,3.357,8.393,8.393,8.393s8.393-3.357,8.393-8.393v-25.18h16.787v41.967
				c0,5.036,3.357,8.393,8.393,8.393s8.393-3.357,8.393-8.393V28.377h16.787v25.18c0,5.036,3.357,8.393,8.393,8.393
				s8.393-3.357,8.393-8.393v-25.18h16.787v41.967c0,5.036,3.357,8.393,8.393,8.393s8.393-3.357,8.393-8.393V28.377h16.787v25.18
				c0,5.036,3.357,8.393,8.393,8.393c5.036,0,8.393-3.357,8.393-8.393v-25.18h16.787v41.967c0,5.036,3.357,8.393,8.393,8.393
				s8.393-3.357,8.393-8.393V28.377h16.787v25.18c0,5.036,3.357,8.393,8.393,8.393c5.036,0,8.393-3.357,8.393-8.393v-25.18h16.787
				v41.967c0,5.036,3.357,8.393,8.393,8.393c5.036,0,8.393-3.357,8.393-8.393V28.377h33.574c5.036,0,8.393,3.357,8.393,8.393v83.934
				c0,5.036-3.357,8.393-8.393,8.393H187.013H19.144c-1.679,0-3.357-1.679-3.357-3.357V31.734z M19.144,456.443
				c-1.679,0-3.357-1.679-3.357-2.518v-94.846c0-1.679,1.679-3.357,3.357-3.357h105.757v25.18c0,5.036,3.357,8.393,8.393,8.393
				s8.393-3.357,8.393-8.393v-25.18h16.787v41.967c0,5.036,3.357,8.393,8.393,8.393s8.393-3.357,8.393-8.393v-41.967h16.787v25.18
				c0,5.036,3.357,8.393,8.393,8.393s8.393-3.357,8.393-8.393v-25.18h16.787v41.967c0,5.036,3.357,8.393,8.393,8.393
				s8.393-3.357,8.393-8.393v-41.967h13.363l2.204,1.902c0.359,0.51,0.764,0.999,1.22,1.455c0.31,0.31,0.852,0.62,1.495,0.888
				l111.759,96.476H19.144z M485.82,448.049c0,5.036-3.357,8.393-8.393,8.393h-15.108l23.502-28.538V448.049z M477.426,355.721
				c5.036,0,8.393,3.357,8.393,8.393v13.234l-25.768-21.628H477.426z M484.98,398.528c0.247,0,0.415,0.079,0.538,0.203
				c0.206,0.878,0.033,2.013-0.538,3.155l-47.843,57.075c-0.468,0.701-0.866,1.47-1.167,2.283l-7.226,8.628
				c-1.679,1.679-4.197,3.357-6.715,3.357c-2.518,0-5.875-0.839-7.554-2.518l-11.581-10.004c-0.459-0.924-1.062-1.799-1.848-2.586
				l-73.08-63.155l25.237-30.012c3.357-3.357,2.518-8.393-0.839-11.751c-3.357-3.357-8.393-2.518-11.751,0.839l-25.252,30.03
				l-12.659-10.94l14.409-17.411c3.357-3.357,2.518-8.393-0.839-11.751c-3.357-3.357-8.393-2.518-11.751,0.839l-14.424,17.43
				l-13.054-11.281l24.121-28.811c3.357-3.357,2.518-8.393-0.839-11.751c-3.357-3.357-8.393-2.518-11.751,0.839l-24.29,29.013
				c-0.475-0.207-0.985-0.404-1.509-0.582l-11.51-9.943l13.807-16.809c3.357-3.357,2.518-8.393-0.839-11.751
				c-3.357-3.357-8.393-2.518-11.751,0.839l-13.824,16.83l-13.279-11.471l25.425-28.861c3.357-3.357,2.518-8.393-0.839-11.751
				c-3.357-3.357-8.393-2.518-11.751,0.839l-24.709,29.514l-13.095-11.312l13.463-16.523c3.357-3.357,2.518-8.393-0.839-11.751
				c-3.357-3.357-8.393-2.518-11.751,0.839l-13.481,16.544l-13.03-11.255l23.992-28.79c3.357-3.357,2.518-8.393-0.839-11.751
				c-3.357-3.357-8.393-2.518-11.751,0.839l-24.009,28.811l-12.56-10.85l13.068-15.443c3.357-3.357,2.518-8.393-0.839-11.751
				c-3.357-3.357-8.393-2.518-11.751,0.839l-13.085,15.464l-12.67-10.945l23.237-28.021c3.357-3.357,2.518-8.393-0.839-11.751
				c-3.357-3.357-8.393-2.518-11.751,0.839l-23.254,28.042l-12.688-10.96l12.44-15.402c2.518-3.357,1.679-9.233-1.679-11.751
				c-3.357-2.518-9.233-1.679-11.751,1.679l-11.985,14.267l-47.609-41.126h145.207L484.98,398.528z"/>
		</g>
	</g>
</g>
<g>
</g>
<g>
</g>
<g>
</g>
<g>
</g>
<g>
</g>
<g>
</g>
<g>
</g>
<g>
</g>
<g>
</g>
<g>
</g>
<g>
</g>
<g>
</g>
<g>
</g>
<g>
</g>
<g>
</g>
</svg>
