<?xml version="1.0" encoding="iso-8859-1"?>
<!-- Generator: Adobe Illustrator 19.0.0, SVG Export Plug-In . SVG Version: 6.00 Build 0)  -->
<svg version="1.1" id="Layer_1" xmlns="http://www.w3.org/2000/svg" xmlns:xlink="http://www.w3.org/1999/xlink" x="0px" y="0px"
	 viewBox="0 0 511.787 511.787" style="enable-background:new 0 0 511.787 511.787;" xml:space="preserve">
<g transform="translate(1 1)">
	<g>
		<g>
			<path d="M505.027,408.173L103.107,6.253c-9.387-9.387-26.453-9.387-35.84,0L6.68,66.84c-10.24,9.387-10.24,25.6,0,35.84
				L24.6,120.6l0,0l0,0l48.64,48.64c0,0,0,0,0,0s0,0,0,0l47.786,47.786c0,0,0,0,0,0s0,0,0,0l24.746,24.746c0,0,0,0,0,0c0,0,0,0,0,0
				l23.893,23.893c0,0,0,0,0,0c0,0,0,0,0,0l23.893,23.893c0,0,0,0,0,0s0,0,0,0l72.532,72.532c0,0,0,0,0,0c0,0,0,0,0.001,0.001
				l23.892,23.892c0,0,0,0,0,0c0,0,0,0,0.001,0.001L408.6,504.6c4.267,4.267,9.387,5.973,14.507,5.973s10.24-1.707,13.653-5.973
				l68.267-68.267C512.707,428.653,512.707,415.853,505.027,408.173z M493.08,424.387l-68.267,68.267
				c-1.707,1.707-2.56,1.707-4.267,0l-88.32-88.32l30.293-30.293c3.413-3.413,3.413-8.533,0-11.947
				c-3.413-3.413-8.533-3.413-11.947,0l-30.293,30.293l-12.373-12.373l17.92-17.92c3.413-3.413,3.413-8.533,0-11.947
				c-3.413-3.413-8.533-3.413-11.947,0l-17.92,17.92l-11.947-11.947l29.867-29.867c3.413-3.413,3.413-8.533,0-11.947
				c-3.413-3.413-8.533-3.413-11.947,0l-29.867,29.867l-11.947-11.947l17.92-17.92c3.413-3.413,3.413-8.533,0-11.947
				s-8.533-3.413-11.947,0l-17.92,17.92L235.8,307.907l30.293-30.293c3.413-3.413,3.413-8.533,0-11.947s-8.533-3.413-11.947,0
				l-30.293,30.293l-12.373-12.373l17.92-17.92c3.413-3.413,3.413-8.533,0-11.947s-8.533-3.413-11.947,0l-17.92,17.92
				l-11.947-11.947l29.867-29.867c3.413-3.413,3.413-8.533,0-11.947s-8.533-3.413-11.947,0l-29.867,29.867L163.693,235.8
				l17.92-17.92c3.413-3.413,3.413-8.533,0-11.947s-8.533-3.413-11.947,0l-17.92,17.92l-12.8-12.8l29.867-29.867
				c3.413-3.413,3.413-8.533,0-11.947s-8.533-3.413-11.947,0L127,199.107l-11.947-11.947l17.92-17.92
				c3.413-3.413,3.413-8.533,0-11.947s-8.533-3.413-11.947,0l-17.92,17.92L91.16,163.267l29.867-29.867
				c3.413-3.413,3.413-8.533,0-11.947s-8.533-3.413-11.947,0L79.213,151.32L66.84,138.947L85.187,120.6
				c3.413-3.413,3.413-8.533,0-11.947s-8.533-3.413-11.947,0L54.893,127L42.52,114.627L72.387,84.76
				c3.413-3.413,3.413-8.533,0-11.947s-8.533-3.413-11.947,0L30.573,102.68L18.627,90.733c-1.707-1.707-2.56-3.413-2.56-5.973
				c0-2.56,0.853-4.267,2.56-5.973L79.213,18.2c1.707-1.707,3.413-2.56,5.973-2.56s4.267,0.853,5.973,2.56l401.92,401.92
				C493.933,420.973,493.933,423.533,493.08,424.387z"/>
			<path d="M399.213,397.933c-13.653,12.8-13.653,34.133,0,47.787c6.827,6.827,15.36,10.24,23.893,10.24s17.067-2.56,23.893-10.24
				c13.653-12.8,12.8-34.133,0-47.787C434.2,384.28,412.867,385.133,399.213,397.933z M435.053,434.627
				c-6.827,6.827-17.067,6.827-23.893,0s-6.827-17.067,0-23.893c3.413-3.413,7.68-5.12,11.947-5.12s8.533,1.707,11.947,5.12
				C441.88,417.56,441.88,427.8,435.053,434.627z"/>
		</g>
	</g>
</g>
<g>
</g>
<g>
</g>
<g>
</g>
<g>
</g>
<g>
</g>
<g>
</g>
<g>
</g>
<g>
</g>
<g>
</g>
<g>
</g>
<g>
</g>
<g>
</g>
<g>
</g>
<g>
</g>
<g>
</g>
</svg>
