<?xml version="1.0" encoding="iso-8859-1"?>
<!-- Generator: Adobe Illustrator 19.0.0, SVG Export Plug-In . SVG Version: 6.00 Build 0)  -->
<svg version="1.1" id="Layer_1" xmlns="http://www.w3.org/2000/svg" xmlns:xlink="http://www.w3.org/1999/xlink" x="0px" y="0px"
	 viewBox="0 0 500.053 500.053" style="enable-background:new 0 0 500.053 500.053;" xml:space="preserve">
<g transform="translate(1 1)">
	<g>
		<g>
			<path d="M496.493,92.013l-51.889-51.889c-0.426-0.975-1.047-1.9-1.871-2.724s-1.749-1.445-2.724-1.871L406.04,1.56
				c-3.413-3.413-8.533-3.413-11.947,0L1.56,394.093c-3.413,3.413-3.413,8.533,0,11.947l90.453,90.453
				c1.707,1.707,3.413,2.56,5.973,2.56s5.12-0.853,5.973-2.56L496.493,103.96C499.907,100.547,499.907,95.427,496.493,92.013z
				 M460.227,116.333l-11.52-11.52c-3.413-3.413-8.533-3.413-11.947,0s-3.413,8.533,0,11.947l11.52,11.52l-24.32,24.32v0
				l-23.893-23.893c-3.413-3.413-8.533-3.413-11.947,0c-3.413,3.413-3.413,8.533,0,11.947l23.893,23.893L388.12,188.44v0
				l-11.947-11.947c-3.413-3.413-8.533-3.413-11.947,0c-3.413,3.413-3.413,8.533,0,11.947l11.947,11.947h0l-24.747,24.747
				l-23.893-23.893c-3.413-3.413-8.533-3.413-11.947,0s-3.413,8.533,0,11.947l23.893,23.893h0l-23.893,23.893l-11.947-11.947
				c-3.413-3.413-8.533-3.413-11.947,0s-3.413,8.533,0,11.947l11.947,11.947h0l-24.747,24.747L255,273.773
				c-3.413-3.413-8.533-3.413-11.947,0s-3.413,8.533,0,11.947l23.893,23.893h0l-23.893,23.893v0l-11.947-11.947
				c-3.413-3.413-8.533-3.413-11.947,0c-3.413,3.413-3.413,8.533,0,11.947l11.947,11.947h0l-24.32,24.32l-23.467-23.467
				c-3.413-3.413-8.533-3.413-11.947,0c-3.413,3.413-3.413,8.533,0,11.947l23.467,23.467l-24.32,24.32l-11.947-11.947
				c-3.413-3.413-8.533-3.413-11.947,0c-3.413,3.413-3.413,8.533,0,11.947l11.947,11.947L134.68,441.88v0l-23.893-23.893
				c-3.413-3.413-8.533-3.413-11.947,0c-3.413,3.413-3.413,8.533,0,11.947l23.893,23.893h0l-24.747,24.747l-42.24-42.24
				l36.267-36.267c3.413-3.413,3.413-8.533,0-11.947s-8.533-3.413-11.947,0L43.8,424.387l-5.973-5.973l84.907-84.907
				c3.413-3.413,3.413-8.533,0-11.947s-8.533-3.413-11.947,0L25.88,406.467l-6.4-6.4L399.213,20.333l6.4,6.4L388.12,44.227
				c-3.413,3.413-3.413,8.533,0,11.947c1.707,1.707,3.413,2.56,5.973,2.56c1.707,0,4.267-0.853,5.973-2.56L417.56,38.68l5.973,5.973
				l-59.307,59.307c-3.413,3.413-3.413,8.533,0,11.947c1.707,1.707,3.413,2.56,5.973,2.56c1.707,0,4.267-0.853,5.973-2.56
				L435.48,56.6l42.24,42.24L460.227,116.333z"/>
			<path d="M164.547,279.747c-3.413-3.413-8.533-3.413-11.947,0l-17.92,17.92c-3.413,3.413-3.413,8.533,0,11.947
				c1.707,1.707,3.413,2.56,5.973,2.56c1.707,0,4.267-0.853,5.973-2.56l17.92-17.92C167.96,288.28,167.96,283.16,164.547,279.747z"
				/>
			<path d="M212.333,219.16L176.493,255c-3.413,3.413-3.413,8.533,0,11.947c1.707,1.707,3.413,2.56,5.973,2.56
				s5.12-0.853,5.973-2.56l35.84-35.84c3.413-3.413,3.413-8.533,0-11.947S215.747,215.747,212.333,219.16z"/>
			<path d="M207.213,260.973L152.6,315.587c-3.413,3.413-3.413,8.533,0,11.947c1.707,1.707,3.413,2.56,5.973,2.56
				s4.267-0.853,5.973-2.56l54.613-54.613c3.413-3.413,3.413-8.533,0-11.947S210.627,257.56,207.213,260.973z"/>
			<path d="M128.707,339.48l-23.893,23.893c-3.413,3.413-3.413,8.533,0,11.947c1.707,1.707,3.413,2.56,5.973,2.56
				c1.707,0,4.267-0.853,5.973-2.56l23.893-23.893c3.413-3.413,3.413-8.533,0-11.947C137.24,336.067,132.12,336.067,128.707,339.48z
				"/>
			<path d="M333.507,109.933c-3.413-3.413-8.533-3.413-11.947,0l-84.48,84.48c-3.413,3.413-3.413,8.533,0,11.947
				c1.707,1.707,3.413,2.56,5.973,2.56s4.267-0.853,5.973-1.707l84.48-85.333C336.92,118.467,336.92,113.347,333.507,109.933z"/>
			<path d="M375.32,68.12c-3.413-3.413-8.533-3.413-11.947,0l-17.92,17.92c-3.413,3.413-3.413,8.533,0,11.947
				c1.707,1.707,3.413,2.56,5.973,2.56s4.267-0.853,5.973-2.56l17.92-17.92C378.733,76.653,378.733,71.533,375.32,68.12z"/>
			<path d="M339.48,128.707L315.587,152.6c-3.413,3.413-3.413,8.533,0,11.947c1.707,1.707,3.413,2.56,5.973,2.56
				s4.267-0.853,5.973-2.56l23.893-23.893c3.413-3.413,3.413-8.533,0-11.947C348.013,125.293,342.893,125.293,339.48,128.707z"/>
			<path d="M291.693,176.493l-60.587,60.587c-3.413,3.413-3.413,8.533,0,11.947c1.707,1.707,3.413,2.56,5.973,2.56
				s4.267-0.853,5.973-2.56l60.587-60.587c3.413-3.413,3.413-8.533,0-11.947C300.227,173.08,295.107,173.08,291.693,176.493z"/>
		</g>
	</g>
</g>
<g>
</g>
<g>
</g>
<g>
</g>
<g>
</g>
<g>
</g>
<g>
</g>
<g>
</g>
<g>
</g>
<g>
</g>
<g>
</g>
<g>
</g>
<g>
</g>
<g>
</g>
<g>
</g>
<g>
</g>
</svg>
