<?xml version="1.0" encoding="iso-8859-1"?>
<!-- Generator: Adobe Illustrator 19.0.0, SVG Export Plug-In . SVG Version: 6.00 Build 0)  -->
<svg version="1.1" id="Layer_1" xmlns="http://www.w3.org/2000/svg" xmlns:xlink="http://www.w3.org/1999/xlink" x="0px" y="0px"
	 viewBox="0 0 504.446 504.446" style="enable-background:new 0 0 504.446 504.446;" xml:space="preserve">
<g transform="translate(1 1)">
	<g>
		<g>
			<path d="M166.869,268.01c-23.502,0-41.967,18.466-41.967,41.967s18.466,41.967,41.967,41.967
				c23.502,0,41.967-18.466,41.967-41.967S190.37,268.01,166.869,268.01z M166.869,335.157c-14.269,0-25.18-10.911-25.18-25.18
				s10.911-25.18,25.18-25.18s25.18,10.911,25.18,25.18S181.138,335.157,166.869,335.157z"/>
			<path d="M477.583,186.81c5.024-10.38,1.341-22.746-8.55-29.593L309.557,51.459c-1.679-1.679-4.197-1.679-5.875-1.679
				l-16.787,3.357c-1.371,0-3.287,1.123-4.406,2.447c-8.927-3.674-19.401-4.26-33.365-0.769
				c-35.252,8.393-66.308,32.734-84.774,66.308l-11.509,21.579C67.013,149.892-1,222.372-1,309.977c0,5.036,3.357,8.393,8.393,8.393
				h17.038c4.335,74.979,66.357,134.295,142.437,134.295c51.139,0,95.923-26.805,121.111-67.148h98.797
				c63.79,0,115.83-52.039,116.669-116.669v-24.341C503.446,222.434,493.781,201.741,477.583,186.81z M302.843,67.407
				l158.636,104.079c2.356,2.356,3.976,6.181,2.112,9.414c-1.157,0.507-2.175,1.301-2.951,2.337
				c-7.554,9.233-20.984,11.751-31.056,5.036l-130.098-83.934c-7.211-4.636-11.255-12.117-11.562-19.726
				c0.02-4.793,1.566-9.345,4.008-13.008l1.679-2.518L302.843,67.407z M309.557,318.37h16.787c5.036,0,8.393-3.357,8.393-8.393
				c0-1.311-0.018-2.619-0.049-3.923c-0.003-0.124-0.003-0.248-0.006-0.372c-0.004-0.171-0.014-0.34-0.019-0.51
				c-0.008-0.273-0.021-0.544-0.03-0.816c-0.024-0.703-0.046-1.405-0.079-2.106c-0.013-0.291-0.022-0.583-0.036-0.873
				c-0.001-0.017-0.002-0.034-0.003-0.052c-0.024-0.471-0.06-0.938-0.088-1.408c-0.026-0.432-0.051-0.865-0.081-1.296
				c-0.066-0.984-0.142-1.965-0.225-2.944c-0.011-0.13-0.023-0.26-0.034-0.391c-6.323-72.589-59.029-131.956-128.193-148.616
				l11.335-12.954c6.715-9.233,15.948-16.787,24.341-21.823c5.036,14.269,15.108,26.859,28.538,35.252l130.098,83.934
				c15.108,9.233,33.574,13.43,51.2,10.911c0,1.679,0,2.518,0,3.357v24.341c0,36.092-29.377,65.469-65.469,65.469h-78.245
				C308.662,329.649,309.287,324.054,309.557,318.37z M166.869,158.895c80.293,0,146.41,62.511,151.027,141.849h-16.732
				c-1.485,0-2.819,0.299-3.969,0.839h-12.818c-4.197-61.272-55.397-109.115-117.508-109.115S53.557,240.312,49.361,301.584H32.574
				H15.787C20.823,221.846,86.292,158.895,166.869,158.895z M166.869,435.879c-67.148,0-121.705-52.039-125.902-117.508h16.787
				c5.036,0,8.393-3.357,8.393-8.393c0-55.397,45.325-100.721,100.721-100.721S267.59,254.58,267.59,309.977
				c0,5.036,3.357,8.393,8.393,8.393h16.377c-0.638,7.532-1.992,14.885-3.787,22.662c-0.222,0.666-0.32,1.391-0.322,2.128
				c-2.829,10.326-6.944,20.347-12.268,29.767c-0.421,0.631-0.736,1.316-0.946,2.026
				C253.007,411.424,212.898,435.879,166.869,435.879z M485.82,269.689c0,54.557-44.485,99.043-99.043,99.043h-89.806
				c0.023-0.052,0.045-0.104,0.068-0.156c2.571-5.445,4.743-10.99,6.532-16.631h83.207c45.325,0,82.256-36.931,82.256-83.095
				v-24.341c0-5.875-1.679-10.911-3.357-15.948c-1.679-4.197-5.875-5.875-10.072-5.036c-15.948,4.197-32.734,0.839-46.164-7.554
				L280.18,132.036c-11.751-8.393-20.984-20.984-24.341-35.252c-0.839-2.518-1.679-5.036-4.197-5.875
				c-1.679-0.839-4.197-0.839-6.715,0c-15.108,6.715-29.377,17.626-40.289,31.056l-18.287,21.213
				c-4.486-0.532-9.023-0.897-13.608-1.068l6.715-12.59c16.787-29.377,43.646-50.361,73.862-57.915
				c8.393-1.679,15.108-2.518,20.144-0.839c-5.875,17.626,0,37.77,16.786,47.842c0,0,0.001,0,0.001,0.001l0.009,0.006l129.25,83.928
				c7.188,5.074,15.653,7.162,24.002,6.702c0.855-0.018,1.711-0.072,2.566-0.224c7.334-0.865,14.466-3.679,20.436-8.156
				c12.59,11.751,19.305,27.698,19.305,44.485V269.689z"/>
		</g>
	</g>
</g>
<g>
</g>
<g>
</g>
<g>
</g>
<g>
</g>
<g>
</g>
<g>
</g>
<g>
</g>
<g>
</g>
<g>
</g>
<g>
</g>
<g>
</g>
<g>
</g>
<g>
</g>
<g>
</g>
<g>
</g>
</svg>
