<?xml version="1.0" encoding="iso-8859-1"?>
<!-- Generator: Adobe Illustrator 19.0.0, SVG Export Plug-In . SVG Version: 6.00 Build 0)  -->
<svg version="1.1" id="Layer_1" xmlns="http://www.w3.org/2000/svg" xmlns:xlink="http://www.w3.org/1999/xlink" x="0px" y="0px"
	 viewBox="0 0 512 512" style="enable-background:new 0 0 512 512;" xml:space="preserve">
<g transform="translate(1 1)">
	<g>
		<g>
			<path d="M135.533,310.467c-23.893,0-42.667,18.773-42.667,42.667c0,23.893,18.773,42.667,42.667,42.667
				c23.893,0,42.667-18.773,42.667-42.667C178.2,329.24,159.427,310.467,135.533,310.467z M135.533,378.733
				c-14.507,0-25.6-11.093-25.6-25.6c0-14.507,11.093-25.6,25.6-25.6c14.507,0,25.6,11.093,25.6,25.6
				C161.133,367.64,150.04,378.733,135.533,378.733z"/>
			<path d="M510.954,354.122c0.029-0.322,0.046-0.651,0.046-0.988c0-0.108-0.01-0.211-0.013-0.317
				c0.001-0.179,0.013-0.356,0.013-0.536c0-42.667-34.133-76.8-76.8-76.8H247.657c-13.3-19.11-31.343-34.7-52.391-45.026v-30.921
				h8.533c3.413,0,5.973-1.707,7.68-4.267c0.853-2.56,1.707-5.973,0-8.533l-16.213-32.427v-89.6l7.68-14.507
				c1.707-2.56,1.707-5.973,0-8.533s-5.12-4.267-7.68-4.267h-51.2c-2.56,0-5.973,1.707-7.68,3.413c-0.853,2.56-1.707,5.973,0,8.533
				l7.68,15.36v89.6l-16.213,32.427c-1.707,2.56-1.707,5.973,0,8.533s5.12,4.267,7.68,4.267h8.533v17.343
				c-2.824-0.176-5.667-0.277-8.533-0.277C60.44,216.6-1,278.04-1,353.133c0,5.12,3.413,8.533,8.533,8.533h8.844
				C20.79,423.43,72.696,472.6,135.533,472.6c36.529,0,69.359-16.621,91.318-42.667H434.2c27.636,0,51.678-14.689,65.197-36.625
				c0.781-0.823,1.372-1.83,1.747-2.986C507.134,379.56,510.651,367.228,510.954,354.122z M306.2,293.4h102.4v17.067H306.2V293.4z
				 M160.28,59.587l-2.56-5.12h23.893l-2.56,5.12C178.2,60.44,178.2,61.293,178.2,63v93.867c0,1.707,0.853,2.56,0.853,3.413
				l11.093,22.187h-3.413H152.6h-3.413l11.093-22.187c0.853-0.853,0.853-1.707,0.853-3.413V63
				C161.133,61.293,161.133,60.44,160.28,59.587z M161.133,199.533H178.2v23.893c-4.038-1.346-8.607-2.685-13.288-3.612
				c-1.253-0.278-2.513-0.538-3.779-0.78V199.533z M135.533,233.667c4.563,0,9.066,0.262,13.499,0.757
				c0.844,0.431,1.755,0.758,2.714,0.95c11.093,0.853,21.333,4.267,31.573,8.533c0.661,0.661,1.83,0.809,2.722,0.842
				c32.272,14.941,56.786,43.775,65.641,78.966c0.135,0.547,0.275,1.093,0.402,1.643c0.043,0.18,0.083,0.361,0.124,0.541
				c0.772,3.391,1.409,6.818,1.911,10.276c0.35,2.499,0.618,5.024,0.811,7.572h-8.464c-1.51,0-2.865,0.304-4.035,0.853h-4.499
				c-2.01-24.525-12.926-46.775-29.53-63.452c-18.564-18.82-44.267-30.415-72.87-30.415c-53.76,0-98.133,40.96-102.4,93.867H24.6
				h-8.533C21.187,282.307,72.387,233.667,135.533,233.667z M136.387,455.533c-53.76,0-98.133-40.96-102.4-93.867h7.68
				c5.12,0,8.533-3.413,8.533-8.533c0-1.407,0.039-2.805,0.107-4.195c0.007-0.131,0.014-0.262,0.021-0.394
				c0.062-1.159,0.156-2.309,0.265-3.455c0.051-0.525,0.107-1.048,0.168-1.57c0.076-0.673,0.165-1.343,0.258-2.012
				c5.714-40.621,40.868-72.356,82.69-73.661c0.324-0.007,0.645-0.022,0.97-0.025c0.379-0.008,0.759-0.012,1.14-0.015
				c46.803,0.156,85.049,38.488,85.049,85.326c0,5.12,3.413,8.533,8.533,8.533h0.853h7.238c-1.798,19.635-9.221,38.289-21.745,53.76
				c-0.813,1.22-1.428,2.828-1.669,4.454C195.281,441.763,167.556,455.533,136.387,455.533z M238.882,412.867
				c0.956-1.643,1.873-3.311,2.752-5.002c7.582-14.184,11.841-30.188,13.366-46.198h8.533c5.12,0,8.533-3.413,8.533-8.533
				c0-1.188-0.016-2.373-0.047-3.554c-0.468-19.29-4.763-38.492-13.607-56.179h30.72V319c0,5.12,3.413,8.533,8.533,8.533h119.467
				c5.12,0,8.533-3.413,8.533-8.533v-25.6h8.533c30.378,0,55.056,22.045,59.131,51.2h-24.997c-5.12,0-8.533,3.413-8.533,8.533
				s3.413,8.533,8.533,8.533h24.997c-0.844,6.038-2.569,11.771-5.049,17.067h-37.016c-5.12,0-8.533,3.413-8.533,8.533
				s3.413,8.533,8.533,8.533h24.944c-10.747,10.58-25.54,17.067-42.011,17.067H238.882z"/>
		</g>
	</g>
</g>
<g>
</g>
<g>
</g>
<g>
</g>
<g>
</g>
<g>
</g>
<g>
</g>
<g>
</g>
<g>
</g>
<g>
</g>
<g>
</g>
<g>
</g>
<g>
</g>
<g>
</g>
<g>
</g>
<g>
</g>
</svg>
