<?xml version="1.0" encoding="iso-8859-1"?>
<!-- Generator: Adobe Illustrator 19.0.0, SVG Export Plug-In . SVG Version: 6.00 Build 0)  -->
<svg version="1.1" id="Layer_1" xmlns="http://www.w3.org/2000/svg" xmlns:xlink="http://www.w3.org/1999/xlink" x="0px" y="0px"
	 viewBox="0 0 511.349 511.349" style="enable-background:new 0 0 511.349 511.349;" xml:space="preserve">
<g transform="translate(1 1)">
	<g>
		<path d="M497.224,105.088L398.295,6.159c-9.546-9.546-25.166-9.546-34.712,0l-0.868,0.868c-5.207,4.339-7.81,11.281-7.81,18.224
			c0,6.942,2.603,13.017,7.81,18.224l30.381,30.381L74.165,393.623l-30.799-30.799c-9.546-9.546-26.902-9.546-36.447,0
			c-5.207,4.339-7.81,11.281-7.81,18.224c0,6.942,2.603,13.017,7.81,18.224l98.061,98.061c8.678,8.678,19.091,13.017,30.373,13.017
			c10.335,0,20.661-3.653,28.327-10.936c0.691-0.184,1.178-0.346,1.178-0.346l18.224-18.224c2.603-1.736,3.471-5.207,2.603-7.81
			l-3.471-18.224l18.224,3.471c2.603,0,6.075-0.868,7.81-2.603c2.603-1.736,3.471-5.207,2.603-7.81l-3.471-18.224l18.224,3.471
			c2.603,0,6.075-0.868,7.81-2.603c2.603-1.736,3.471-5.207,2.603-7.81l-3.471-18.224l17.356,4.339c2.603,0,6.075-0.868,7.81-2.603
			c2.603-1.736,3.471-5.207,2.603-7.81l-3.471-18.224l15.62,6.075c2.603,0,5.207-0.868,7.81-2.603
			c2.603-1.736,3.471-5.207,2.603-7.81l-3.471-18.224l18.224,3.471c2.603,0,5.207-0.868,7.81-2.603s3.471-5.207,2.603-7.81
			l-3.471-18.224l18.224,3.471c2.603,0,6.075-0.868,7.81-2.603c2.603-1.736,3.471-5.207,2.603-7.81l-3.471-18.224l18.224,3.471
			c2.603,0,5.207-0.868,7.81-2.603s3.471-5.207,2.603-7.81l-3.471-18.224l18.224,3.471c2.603,0,5.207-0.868,7.81-2.603
			c2.603-1.736,3.471-5.207,2.603-7.81l-3.471-18.224l17.356,4.339c2.603,0,6.075-0.868,7.81-2.603
			c2.603-1.736,3.471-5.207,2.603-7.81l-3.471-18.224l16.488,4.339c2.603,0,6.075-0.868,7.81-2.603
			c2.603-1.736,3.471-5.207,2.603-7.81l-3.471-18.224l18.224,3.471c2.603,0,6.075-0.868,7.81-2.603
			c2.603-1.736,3.471-5.207,2.603-7.81l-3.471-18.224l18.224,3.471c2.603,0,6.075-0.868,7.81-2.603l16.699-16.699
			c0.675-0.399,1.214-0.904,1.524-1.524c8.678-7.81,13.017-19.092,13.017-30.373C510.241,124.18,505.034,112.898,497.224,105.088z
			 M372.261,24.383c0-2.603,0.868-4.339,2.603-6.075l0.868-0.868c1.736-0.868,3.471-1.736,5.207-1.736s3.471,0.868,5.207,2.603
			l98.929,98.061c5.207,4.339,7.81,11.281,7.81,18.224c0,4.339-0.868,7.81-2.603,11.281L374.864,30.458
			C373.129,28.722,372.261,26.986,372.261,24.383z M117.129,485.183l-98.061-98.061c-1.736-1.736-2.603-3.471-2.603-6.075
			s0.868-4.339,2.603-6.075c1.736-1.736,3.471-2.603,6.075-2.603s4.339,0.868,6.075,2.603L146.634,490.39
			C137.088,494.729,124.939,492.993,117.129,485.183z M472.058,167.569l-26.034-5.207c-2.603,0-6.075,0.868-7.81,2.603
			c-2.603,1.736-3.471,5.207-2.603,7.81L439.081,191l-18.224-3.471c-2.603,0-5.207,0.868-7.81,2.603
			c-2.603,1.736-3.471,5.207-2.603,7.81l3.471,18.224l-18.224-3.471c-2.603,0-6.075,0.868-7.81,2.603
			c-2.603,1.736-3.471,5.207-2.603,7.81l3.471,18.224l-14.753-6.942c-2.603,0-6.075,0.868-7.81,2.603
			c-2.603,1.736-3.471,5.207-2.603,7.81l3.471,18.224l-18.224-3.471c-2.603,0-5.207,0.868-7.81,2.603s-3.471,5.207-2.603,7.81
			l3.471,18.224l-18.224-3.471c-2.603,0-5.207,0.868-7.81,2.603s-3.471,5.207-2.603,7.81l3.471,18.224l-18.224-3.471
			c-2.603,0-5.207,0.868-7.81,2.603s-3.471,5.207-2.603,7.81l3.471,18.224l-18.224-3.471c-2.603,0-6.075,0.868-7.81,2.603
			c-2.603,1.736-3.471,5.207-2.603,7.81l3.471,18.224l-18.224-3.471c-2.603,0-6.075,0.868-7.81,2.603
			c-2.603,1.736-3.471,5.207-2.603,7.81l3.471,18.224l-16.488-5.207c-2.603,0-5.207,0.868-7.81,2.603s-3.471,5.207-2.603,7.81
			l3.471,18.224l-18.224-3.471c-2.603,0-6.075,0.868-7.81,2.603c-2.603,1.736-3.471,5.207-2.603,7.81l3.471,18.224l-18.224-3.471
			c-2.603,0-6.075,0.868-7.81,2.603c-2.603,1.736-3.471,5.207-2.603,7.81l5.207,26.034l-8.678,8.678l-73.763-73.763L405.671,86.431
			l73.763,73.763L472.058,167.569z"/>
	</g>
</g>
<g>
</g>
<g>
</g>
<g>
</g>
<g>
</g>
<g>
</g>
<g>
</g>
<g>
</g>
<g>
</g>
<g>
</g>
<g>
</g>
<g>
</g>
<g>
</g>
<g>
</g>
<g>
</g>
<g>
</g>
</svg>
