<?xml version="1.0" encoding="iso-8859-1"?>
<!-- Generator: Adobe Illustrator 19.0.0, SVG Export Plug-In . SVG Version: 6.00 Build 0)  -->
<svg version="1.1" id="Layer_1" xmlns="http://www.w3.org/2000/svg" xmlns:xlink="http://www.w3.org/1999/xlink" x="0px" y="0px"
	 viewBox="0 0 503.168 503.168" style="enable-background:new 0 0 503.168 503.168;" xml:space="preserve">
<g transform="translate(1 1)">
	<g>
		<g>
			<path d="M246.168,275.358c-4.955,0-8.258,3.303-8.258,8.258c0,4.955,3.303,8.258,8.258,8.258s8.258-3.303,8.258-8.258
				C254.426,279.487,251.123,275.358,246.168,275.358z"/>
			<path d="M299.02,297.655c-3.303-3.303-8.258-3.303-11.561,0c-3.303,3.303-3.303,8.258,0,11.561c3.303,3.303,8.258,3.303,11.561,0
				C302.323,305.913,302.323,300.132,299.02,297.655z"/>
			<path d="M194.142,297.655c-3.303,3.303-3.303,8.258,0,11.561c2.477,2.477,8.258,2.477,11.561,0c3.303-3.303,3.303-8.258,0-11.561
				S197.446,294.352,194.142,297.655z"/>
			<path d="M493.91,341.423h-4.892c3.999-4.186,6.215-10.045,5.718-16.516c-1.652-10.735-9.91-18.168-20.645-18.168
				c-3.303,0-4.129-2.477-4.129-3.303c-0.826-0.826-0.826-3.303,1.652-4.129c9.91-4.129,14.865-14.865,11.561-24.774
				c-3.303-10.736-13.213-16.516-23.948-14.039c-2.477,0-3.303-1.652-4.129-2.477c0-1.652-0.826-3.303,1.652-4.955
				c8.258-5.781,10.735-17.342,5.781-26.426c-4.955-9.084-16.516-12.387-26.426-8.258c-2.477,0.826-4.129-0.826-4.955-1.652
				c0-0.826-0.826-2.477,0.826-4.955c7.432-8.258,7.432-18.994,0-27.252c-7.432-8.258-18.994-9.084-27.252-3.303
				c-2.477,1.652-4.129,0.826-4.955,0c-0.826-0.826-2.477-2.477-0.826-4.955c4.955-9.084,2.477-19.819-5.781-26.426
				c-9.084-6.606-19.819-5.781-27.252,2.477l-0.826,0.826c-1.652,2.477-4.129,0.826-4.955,0.826c-0.826,0-2.477-1.652-1.652-4.955
				c3.303-9.91-0.826-20.645-10.735-24.774c-9.084-4.129-20.645-0.826-25.6,8.258l-0.826,0.826
				c-1.652,2.477-4.129,1.652-4.955,1.652c-0.826,0-2.477-1.652-2.477-4.129v-0.826c1.652-10.735-4.955-19.819-15.69-22.297
				c-10.736-2.477-20.645,3.303-23.948,13.213v0.826c-0.826,2.477-3.303,2.477-4.129,2.477s-3.303-0.826-3.303-3.303v-0.826
				c-1.652-10.735-9.91-18.168-20.645-18.168c-10.735,0-18.994,7.432-20.645,17.342v0.826c0,2.477-2.477,3.303-3.303,3.303
				s-3.303,0-4.129-2.477v-0.826c-3.303-9.91-13.213-15.69-23.948-13.213c-9.91,2.477-16.516,11.561-15.69,22.297v0.826
				c0.826,2.477-1.652,4.129-2.477,4.129c-1.652,0.826-3.303,0.826-2.477-2.477l-0.826-0.826
				c-5.781-9.084-16.516-12.387-26.426-8.258s-14.039,14.865-10.735,25.6c0.826,2.477-0.826,3.303-1.652,4.129
				c-1.652,0-3.303,0.826-5.781-1.652c-7.432-7.432-18.994-9.084-27.252-2.477s-10.736,17.342-4.955,27.252
				c1.652,2.477,0,4.129-0.826,4.955c-1.652,0.826-3.303,1.652-5.781,0c-9.084-5.781-19.819-4.955-27.252,3.303
				c-7.432,7.432-7.432,18.994,0,27.252c1.652,2.477,0.826,4.129,0,4.955s-2.477,2.477-4.955,0.826
				c-9.084-4.955-20.645-0.826-25.6,8.258c-5.781,9.084-3.303,19.819,5.781,26.426c2.477,1.652,2.477,4.129,1.652,4.955
				c-0.826,1.652-1.652,3.303-4.955,2.477c-10.736-1.652-20.645,4.129-23.948,14.039s1.652,20.645,11.561,24.774
				c2.477,0.826,2.477,3.303,2.477,4.129c-0.826,1.652-1.652,3.303-4.129,3.303c-10.735,0-19.819,7.432-20.645,18.168
				c-1.335,8.676,2.728,16.269,10,20.172c-1.624,1.452-2.568,3.615-2.568,6.254v41.29c0,4.955,3.303,8.258,8.258,8.258H493.91
				c4.955,0,8.258-3.303,8.258-8.258v-41.29C502.168,344.726,498.865,341.423,493.91,341.423z M19.071,322.429
				c9.91,0,18.168-6.606,19.819-16.516c2.477-9.91-2.477-18.994-11.561-23.123c-3.303-1.652-3.303-3.303-2.477-4.955
				c0.826-0.826,1.652-3.303,4.955-2.477c9.91,2.477,18.994-2.477,23.123-11.561s1.652-18.994-6.606-24.774
				c-1.652-1.652-1.652-3.303-0.826-4.955c0-1.652,1.652-3.303,4.955-1.652c9.084,4.129,18.994,1.652,24.774-6.606
				c5.781-7.432,4.955-18.168-1.652-25.6c-1.652-1.652-0.826-4.129,0-4.955s2.477-2.477,5.781,0
				c7.432,5.781,18.168,4.955,24.774-1.652c6.606-6.606,8.258-16.516,3.303-25.6c-1.652-2.477-0.826-4.129,0.826-4.955
				c0.826-0.826,3.303-1.652,5.781,0.826c6.607,7.432,17.342,9.084,25.6,4.129c9.084-4.955,12.387-14.865,9.084-24.774
				c-0.826-3.303,0.826-4.129,2.477-4.955c0.826-0.826,3.303-0.826,4.955,1.652l0.826,0.826c4.955,8.258,14.865,12.387,23.948,9.084
				c9.91-3.303,14.865-11.561,14.039-21.471v-0.826c0-2.477,1.652-4.129,3.303-4.129c0.826,0,3.303,0,4.129,2.477v0.826
				c3.303,9.084,11.561,14.865,21.471,14.039c9.91-0.826,17.342-8.258,18.168-18.168v-0.826c0.826-2.477,2.477-3.303,4.129-3.303
				s3.303,0.826,4.129,4.129v0.826c0.826,9.91,8.258,17.342,18.168,18.168s18.168-4.955,21.471-14.039v-0.826
				c0.826-2.477,2.477-2.477,4.129-2.477s3.303,1.652,3.303,4.129v0.826c-0.826,9.91,4.955,18.168,14.039,21.471
				c9.084,3.303,18.994-0.826,23.948-9.084l0.826-0.826c1.652-2.477,4.129-2.477,4.955-1.652c0.826,0,2.477,1.652,1.652,4.955
				c-3.303,9.084,0.826,18.994,9.084,23.948c9.084,4.955,18.994,3.303,25.6-4.129l0.826-0.826c1.652-2.477,4.129-1.652,4.955-0.826
				c1.652,1.652,2.477,2.477,0.826,5.781c-4.955,9.084-3.303,18.994,4.129,25.6c7.432,6.606,18.168,6.606,26.426,0.826
				c2.477-1.652,4.129,0,4.955,0.826c1.652,0.826,2.477,2.477,0,4.955c-6.606,7.432-7.432,17.342-1.652,25.6
				s15.69,10.735,24.774,6.606c2.477-0.826,4.129,0.826,4.955,1.652s1.652,3.303-0.826,4.955
				c-8.258,5.781-10.735,15.69-6.606,24.774c4.129,9.084,13.213,14.039,23.123,11.561c2.477-0.826,4.129,0.826,4.129,2.477
				c0.826,1.652,0.826,4.129-1.652,4.955c-9.084,4.129-13.213,13.213-11.561,23.123s9.91,16.516,19.819,16.516
				c3.303,0,4.129,1.652,4.129,3.303s-0.826,3.303-3.303,4.129c-7.432,1.652-12.387,5.781-14.865,11.561h-98.571
				c-4.271-59.771-54.502-107.355-115.313-107.355s-111.042,47.583-115.313,107.355H33.11c-3.303-5.781-8.258-9.91-14.865-11.561
				c-3.303-0.826-3.303-2.477-3.303-4.129S15.768,322.429,19.071,322.429z M278.148,341.423
				c-3.691-14.206-16.661-24.774-31.98-24.774c-15.319,0-28.289,10.569-31.98,24.774h-66.291
				c4.129-50.374,46.245-90.839,98.271-90.839s94.968,39.639,99.097,90.839H278.148z M261.033,341.423h-28.903
				c2.477-4.955,9.084-8.258,14.865-8.258C252.775,333.165,258.555,336.468,261.033,341.423z M485.652,382.713H23.2v-24.774h107.355
				h82.581H279.2h82.581h113.135h0.826h9.91V382.713z"/>
		</g>
	</g>
</g>
<g>
</g>
<g>
</g>
<g>
</g>
<g>
</g>
<g>
</g>
<g>
</g>
<g>
</g>
<g>
</g>
<g>
</g>
<g>
</g>
<g>
</g>
<g>
</g>
<g>
</g>
<g>
</g>
<g>
</g>
</svg>
