<?xml version="1.0" encoding="iso-8859-1"?>
<!-- Generator: Adobe Illustrator 19.0.0, SVG Export Plug-In . SVG Version: 6.00 Build 0)  -->
<svg version="1.1" id="Layer_1" xmlns="http://www.w3.org/2000/svg" xmlns:xlink="http://www.w3.org/1999/xlink" x="0px" y="0px"
	 viewBox="0 0 503.607 503.607" style="enable-background:new 0 0 503.607 503.607;" xml:space="preserve">
<g transform="translate(1 1)">
	<g>
		<path d="M477.426,124.902h-16.787c-14.269,0-25.18,10.911-25.18,25.18v49.521c0,7.554,1.679,15.108,5.036,20.984
			c2.518,4.197,3.357,9.233,3.357,14.269v7.554c0,1.641,0.249,3.224,0.693,4.726c-127.236,26.683-260.243,26.684-387.48,0.001
			c0.44-1.502,0.688-3.086,0.688-4.727v-7.554c0-5.036,1.679-9.233,3.357-13.43c3.357-6.715,5.036-14.269,5.036-21.823v-49.521
			c0-14.269-10.911-25.18-25.18-25.18H24.18C9.911,124.902-1,135.813-1,150.082v49.521c0,7.554,1.679,15.108,5.036,20.984
			c2.518,4.197,3.357,9.233,3.357,14.269v7.554c0,9.233,7.554,16.787,16.787,16.787v75.541c0,4.197,2.518,7.554,6.715,8.393
			l5.036,0.839c1.676,0.379,3.358,0.733,5.036,1.104v0.575c0,5.036,3.357,8.393,8.393,8.393c3.864,0,6.733-2.473,7.862-5.519
			c5.764,1.174,11.535,2.311,17.318,3.383v2.136c0,5.036,3.357,8.393,8.393,8.393c4.709,0,7.949-3.67,8.35-7.578
			c5.602,0.94,11.213,1.822,16.83,2.666v1.555c0,5.036,3.357,8.393,8.393,8.393c4.758,0,8.013-2.999,8.359-7.576
			c5.602,0.743,11.208,1.452,16.821,2.098v2.12c0,5.036,3.357,8.393,8.393,8.393s8.393-4.197,8.393-8.393v-0.342
			c5.591,0.546,11.188,1.033,16.787,1.481v1.379c0,5.036,3.357,8.393,8.393,8.393s8.393-4.197,8.393-8.393v-0.182
			c5.593,0.349,11.189,0.661,16.787,0.912v0.949c0,5.036,3.357,8.393,8.393,8.393s8.393-3.357,8.393-8.393v-0.351
			c5.595,0.15,11.191,0.24,16.787,0.29v0.061c0,5.036,3.357,8.393,8.393,8.393s8.393-3.357,8.393-8.393v-0.061
			c5.593-0.05,11.188-0.139,16.787-0.289v0.35c0,5.036,3.357,8.393,8.393,8.393c5.036,0,8.393-3.357,8.393-8.393v-0.945
			c5.596-0.249,11.192-0.56,16.787-0.907v0.173c0,5.036,3.357,8.393,8.393,8.393c5.036,0,8.393-4.197,8.393-8.393v-1.363
			c5.6-0.445,11.196-0.93,16.787-1.472v0.317c0,5.036,3.357,8.393,8.393,8.393c5.036,0,8.393-4.197,8.393-8.393v-2.082
			c5.617-0.643,11.224-1.349,16.823-2.089c0.364,4.551,3.616,7.529,8.357,7.529c5.036,0,8.393-3.357,8.393-8.393v-1.499
			c5.62-0.842,11.23-1.723,16.824-2.662c0.368,4.546,3.618,7.518,8.357,7.518c5.036,0,8.393-4.197,8.393-8.393v-2.077
			c5.762-1.071,11.5-2.208,17.225-3.381c1.057,3.36,3.979,5.458,7.955,5.458c5.036,0,8.393-4.197,8.393-8.393v-0.563
			c1.678-0.374,3.362-0.732,5.036-1.115l5.036-0.839c4.197-0.839,6.715-4.197,6.715-8.393v-75.541h0.839
			c8.393,0,15.948-7.554,15.948-16.787v-7.554c0-5.036,1.679-9.233,3.357-13.43c3.357-6.715,5.036-14.269,5.036-21.823v-49.521
			C502.607,135.813,491.695,124.902,477.426,124.902z M19.144,213.872c-1.679-5.036-3.357-9.233-3.357-14.269v-49.521
			c0-4.197,4.197-8.393,8.393-8.393h16.787c5.036,0,8.393,3.357,8.393,8.393v49.521c0,5.036-0.839,9.233-3.357,13.43
			c-3.357,6.715-5.036,14.269-5.036,21.823v7.554H24.18v-7.554C24.18,227.302,22.502,219.748,19.144,213.872z M460.639,328.023
			c-57.815,13.044-116.815,20.586-176.004,22.673c-0.087-0.002-0.171-0.011-0.259-0.011c-0.362,0-0.712,0.022-1.056,0.056
			c-21.671,0.734-43.364,0.734-65.035,0c-0.344-0.034-0.694-0.056-1.056-0.056c-0.088,0-0.172,0.009-0.259,0.011
			c-59.189-2.087-118.189-9.63-176.004-22.673v-66.308c137.652,31.056,282.02,31.056,419.672,0V328.023z M485.82,199.603
			c0,5.036-0.839,9.233-3.357,14.269c-3.357,6.715-5.036,14.269-5.036,21.823v7.554h-4.394c-1.596-1.084-3.633-1.521-5.678-0.839
			l-5.036,0.839h-1.679v-7.554c0-7.554-1.679-15.108-5.036-21.823c-2.518-4.197-3.357-9.233-3.357-14.269v-49.521
			c0-5.036,3.357-8.393,8.393-8.393h16.787c5.036,0,8.393,3.357,8.393,8.393V199.603z"/>
	</g>
</g>
<g>
</g>
<g>
</g>
<g>
</g>
<g>
</g>
<g>
</g>
<g>
</g>
<g>
</g>
<g>
</g>
<g>
</g>
<g>
</g>
<g>
</g>
<g>
</g>
<g>
</g>
<g>
</g>
<g>
</g>
</svg>
