<?xml version="1.0" encoding="iso-8859-1"?>
<!-- Generator: Adobe Illustrator 19.0.0, SVG Export Plug-In . SVG Version: 6.00 Build 0)  -->
<svg version="1.1" id="Layer_1" xmlns="http://www.w3.org/2000/svg" xmlns:xlink="http://www.w3.org/1999/xlink" x="0px" y="0px"
	 viewBox="0 0 512 512" style="enable-background:new 0 0 512 512;" xml:space="preserve">
<g transform="translate(1 1)">
	<g>
		<path d="M288.948,50.2c2.56,0,5.12-0.853,6.827-3.413l25.6-34.133c1.707-2.56,2.56-5.973,0.853-8.533
			c-1.707-3.413-4.267-5.12-7.68-5.12H195.082c-3.413,0-6.827,2.56-7.68,5.12s-0.853,5.973,0.853,8.533l25.6,34.133
			c1.707,2.56,4.267,3.413,6.827,3.413h8.533v18.56l-5.973-1.493c-5.12-0.853-9.387,1.707-11.093,6.827
			c-0.853,4.267,1.707,8.533,6.827,10.24l10.24,2.56v16.853l-5.973-1.493c-4.267-1.707-9.387,1.707-10.24,5.973
			c-1.707,4.267,1.707,9.387,5.973,10.24l10.24,2.56v16.853l-5.973-1.493c-4.267-1.707-9.387,1.707-10.24,5.973
			c-1.707,4.267,1.707,9.387,5.973,10.24l10.24,2.56v16.853l-5.973-1.493c-4.267-1.707-9.387,1.707-10.24,5.973
			c-1.707,4.267,1.707,9.387,5.973,10.24l10.24,2.56v16.853l-5.973-1.493c-4.267-1.707-9.387,1.707-10.24,5.973
			c-1.707,4.267,1.707,9.387,5.973,10.24l10.24,2.56v16.853l-5.973-1.493c-4.267-1.707-9.387,1.707-10.24,5.973
			c-1.707,4.267,1.707,9.387,5.973,10.24l10.24,2.56v16.853l-5.973-1.493c-4.267-1.707-9.387,1.707-10.24,5.973
			c-1.707,4.267,1.707,9.387,5.973,10.24l10.24,2.56v16.853l-5.973-1.493c-4.267-1.707-9.387,1.707-10.24,5.973
			c-1.707,4.267,1.707,9.387,5.973,10.24l10.24,2.56v16.853l-5.973-1.493c-4.267-1.707-9.387,1.707-10.24,5.973
			c-1.707,4.267,1.707,9.387,5.973,10.24l10.24,2.56v16.853l-5.973-1.493c-4.267-1.707-9.387,1.707-10.24,5.973
			c-1.707,4.267,1.707,9.387,5.973,10.24l10.24,2.56v3.413c0,4.516,0.093,9.018,0.274,13.508l-6.247-1.562
			c-4.267-1.707-9.387,1.707-10.24,5.973c-1.707,4.267,1.707,9.387,5.973,10.24l11.706,2.926
			c2.431,25.914,7.904,51.394,16.454,76.434c0.853,3.413,4.267,5.973,7.68,5.973s6.827-2.56,8.533-5.973
			c6.736-21.245,11.571-42.807,14.341-64.682l9.553,2.388c0,0,0.853,0,1.707,0c4.267,0,7.68-2.56,8.533-5.973
			c1.707-4.267-1.707-9.387-5.973-10.24l-12.103-3.026c0.425-5.526,0.71-11.072,0.864-16.637l6.972,1.743c0,0,0.853,0,1.707,0
			c4.267,0,7.68-2.56,8.533-5.973c1.707-4.267-1.707-9.387-5.973-10.24l-11.093-2.773V372.76l6.827,1.707c0,0,0.853,0,1.707,0
			c4.267,0,7.68-2.56,8.533-5.973c1.707-4.267-1.707-9.387-5.973-10.24l-11.093-2.773v-16.853l6.827,1.707c0,0,0.853,0,1.707,0
			c4.267,0,7.68-2.56,8.533-5.973c1.707-4.267-1.707-9.387-5.973-10.24l-11.093-2.773v-16.853l6.827,1.707c0,0,0.853,0,1.707,0
			c4.267,0,7.68-2.56,8.533-5.973c1.707-4.267-1.707-9.387-5.973-10.24l-11.093-2.773V270.36l6.827,1.707c0,0,0.853,0,1.707,0
			c4.267,0,7.68-2.56,8.533-5.973c1.707-4.267-1.707-9.387-5.973-10.24l-11.093-2.773v-16.853l6.827,1.707c0,0,0.853,0,1.707,0
			c4.267,0,7.68-2.56,8.533-5.973c1.707-4.267-1.707-9.387-5.973-10.24l-11.093-2.773v-16.853l6.827,1.707c0,0,0.853,0,1.707,0
			c4.267,0,7.68-2.56,8.533-5.973c1.707-4.267-1.707-9.387-5.973-10.24l-11.093-2.773V167.96l6.827,1.707c0,0,0.853,0,1.707,0
			c4.267,0,7.68-2.56,8.533-5.973c1.707-4.267-1.707-9.387-5.973-10.24l-11.093-2.773v-16.853l6.827,1.707c0,0,0.853,0,1.707,0
			c4.267,0,7.68-2.56,8.533-5.973c1.707-4.267-1.707-9.387-5.973-10.24l-11.093-2.773V99.693l6.827,1.707c0,0,0.853,0,1.707,0
			c4.267,0,7.68-2.56,8.533-6.827c1.707-4.267-1.707-9.387-5.973-10.24l-11.093-2.773V50.2H288.948z M212.148,16.067h85.333
			l-12.8,17.067h-12.8h-34.133h-12.8L212.148,16.067z M254.815,471.747c-3.121-12.93-5.302-25.86-6.681-38.79l13.073,3.268
			C259.818,448.267,257.725,460.109,254.815,471.747z M262.689,419.315l-15.948-3.987c-0.292-5.656-0.44-11.311-0.453-16.967
			l17.025,4.256C263.236,408.225,263.027,413.79,262.689,419.315z M263.348,385.347l-17.067-4.267v-16.853l17.067,4.267V385.347z
			 M263.348,351.213l-17.067-4.267v-16.853l17.067,4.267V351.213z M263.348,317.08l-17.067-4.267V295.96l17.067,4.267V317.08z
			 M263.348,282.947l-17.067-4.267v-16.853l17.067,4.267V282.947z M263.348,248.813l-17.067-4.267v-16.853l17.067,4.267V248.813z
			 M263.348,214.68l-17.067-4.267V193.56l17.067,4.267V214.68z M263.348,180.547l-17.067-4.267v-16.853l17.067,4.267V180.547z
			 M263.348,146.413l-17.067-4.267v-16.853l17.067,4.267V146.413z M263.348,112.28l-17.067-4.267V91.16l17.067,4.267V112.28z
			 M263.348,77.293l-17.067-4.267V50.2h17.067V77.293z"/>
	</g>
</g>
<g>
</g>
<g>
</g>
<g>
</g>
<g>
</g>
<g>
</g>
<g>
</g>
<g>
</g>
<g>
</g>
<g>
</g>
<g>
</g>
<g>
</g>
<g>
</g>
<g>
</g>
<g>
</g>
<g>
</g>
</svg>
