<?xml version="1.0" encoding="iso-8859-1"?>
<!-- Generator: Adobe Illustrator 19.0.0, SVG Export Plug-In . SVG Version: 6.00 Build 0)  -->
<svg version="1.1" id="Layer_1" xmlns="http://www.w3.org/2000/svg" xmlns:xlink="http://www.w3.org/1999/xlink" x="0px" y="0px"
	 viewBox="0 0 504.07 504.07" style="enable-background:new 0 0 504.07 504.07;" xml:space="preserve">
<g transform="translate(1 1)">
	<g>
		<g>
			<path d="M492.159,29.448l-19.305-19.305c-6.715-6.715-15.948-10.911-26.02-10.911s-19.305,4.197-26.859,10.911L273.929,156.189
				c-1.679,1.679-2.518,3.357-2.518,5.875c0,1.792,0.434,3.157,1.284,4.401c0.498,6.629,0.255,15.043-3.802,19.1
				c-5.036,4.197-17.626,3.357-23.502,3.357c-0.272,0-0.543,0.029-0.815,0.051c-2.378-0.262-4.83,0.558-6.739,2.467l-23.502,23.502
				c-3.357,3.357-3.357,8.393,0,11.751l12.59,12.59L34.717,431.494c0,0,0,0-0.001,0.001L17.09,449.12
				c-0.839,0.839-1.679,0.839-1.679,1.679l-13.43,22.662c-5.036,7.554-3.357,17.626,2.518,23.502
				c3.357,4.197,8.393,5.875,13.43,5.875c3.357,0,6.715-0.839,9.233-2.518l22.662-13.43c0.839-0.839,1.679-0.839,2.518-2.518
				l15.071-15.071c0.918-0.413,1.818-0.979,2.555-1.716l192.222-193.037l11.738,11.738c1.679,1.679,3.357,2.518,5.875,2.518
				c2.518,0,5.036-0.839,5.875-2.518l21.823-21.823c3.357-1.679,5.036-5.036,5.036-8.393c-0.839-6.715-1.679-18.466,3.357-23.502
				c4.128-3.44,13.327-3.496,19.748-3.405c1.075,0.586,2.266,0.887,3.754,0.887c2.518,0,4.197-0.839,5.875-2.518L492.159,79.809
				c7.554-6.715,10.911-15.948,10.911-25.18S498.874,36.163,492.159,29.448z M40.592,472.622l-21.823,13.43
				c-0.839,0-1.679,0-2.518-0.839c0,0-0.839-1.679,0-2.518l12.59-21.823l10.911-10.911l11.751,11.751L40.592,472.622z
				 M64.093,449.12L52.343,437.37l186.334-186.334l11.751,11.751L64.093,449.12z M279.805,268.661l-11.75-11.75c0,0,0,0,0,0
				l-23.502-23.502c0,0-0.001-0.001-0.001-0.001l-11.75-11.75l11.751-11.751l47.003,47.003L279.805,268.661z M304.146,221.658
				c-4.197,4.197-6.715,10.072-7.554,15.948l-31.895-31.895c5.036-1.679,10.911-3.357,15.948-7.554
				c4.197-4.197,6.715-10.072,7.554-15.948l31.895,31.895C314.218,214.943,308.343,217.461,304.146,221.658z M480.408,68.898
				L339.819,208.65l-47.005-47.005L432.566,21.894c7.554-7.554,20.984-7.554,28.538,0l19.305,19.305
				c3.357,4.197,5.875,9.233,5.875,14.269S483.766,65.54,480.408,68.898z"/>
			<path d="M445.995,43.717L328.487,161.225c-3.357,3.357-3.357,8.393,0,11.751c1.679,1.679,3.357,2.518,5.875,2.518
				c2.518,0,4.197-0.839,5.875-2.518L457.746,55.468c3.357-3.357,3.357-8.393,0-11.751C454.388,40.36,449.352,40.36,445.995,43.717z
				"/>
		</g>
	</g>
</g>
<g>
</g>
<g>
</g>
<g>
</g>
<g>
</g>
<g>
</g>
<g>
</g>
<g>
</g>
<g>
</g>
<g>
</g>
<g>
</g>
<g>
</g>
<g>
</g>
<g>
</g>
<g>
</g>
<g>
</g>
</svg>
