<?xml version="1.0" encoding="iso-8859-1"?>
<!-- Generator: Adobe Illustrator 19.0.0, SVG Export Plug-In . SVG Version: 6.00 Build 0)  -->
<svg version="1.1" id="Layer_1" xmlns="http://www.w3.org/2000/svg" xmlns:xlink="http://www.w3.org/1999/xlink" x="0px" y="0px"
	 viewBox="0 0 512.248 512.248" style="enable-background:new 0 0 512.248 512.248;" xml:space="preserve">
<g transform="translate(1 1)">
	<g>
		<g>
			<path d="M481.168,29.524c-40.107-40.107-104.96-40.107-145.067,0L173.115,192.511c-1.707,1.707-2.56,3.413-2.56,5.973
				c0,1.822,0.441,3.209,1.305,4.475c0.506,6.74,0.26,15.294-3.865,19.419c-5.12,4.267-17.92,3.413-23.893,3.413
				c-2.259,0-4.508,0.765-6.272,2.26c-0.493,0.328-0.965,0.71-1.408,1.153l-23.893,23.893c-1.707,1.707-2.56,3.413-2.56,5.973
				s0.853,4.267,2.56,5.973l48.368,48.058L57.061,416.937l-35.84,23.893c-1.707,0.853-2.56,1.707-3.413,3.413l-17.92,42.667
				c-1.707,3.413-0.853,6.827,1.707,9.387l11.947,11.947c1.707,1.707,3.413,2.56,5.973,2.56c1.707,0,2.56,0,4.267-0.853
				l41.813-17.92c0.853-0.853,2.56-1.707,3.413-3.413l23.893-35.84c0,0,0,0,0,0l103.95-103.95l48.796,48.484
				c1.707,1.707,3.413,2.56,5.973,2.56s4.267-0.853,5.12-2.56l23.893-23.893c0.443-0.443,0.825-0.915,1.153-1.408
				c1.496-1.764,2.26-4.013,2.26-6.272c-0.853-6.827-1.707-18.773,3.413-23.893c4.391-3.659,14.419-3.552,20.957-3.448
				c1.086,0.586,2.289,0.888,3.79,0.888c1.707,0,4.267-0.853,5.973-2.56l162.987-162.133
				C521.275,134.484,521.275,69.631,481.168,29.524z M56.208,478.377l-34.133,14.507l-4.267-4.267l14.507-34.133l28.16-18.773
				l14.507,14.507L56.208,478.377z M86.075,435.711l-11.947-11.947l98.753-98.753l11.985,11.908L86.075,435.711z M251.621,378.537
				l-120.32-120.32l11.927-11.927l119.933,120.707L251.621,378.537z M275.515,330.751c-4.267,4.267-6.827,10.24-7.68,16.213
				l-104.96-104.96c5.973-0.853,11.947-3.413,16.213-7.68s6.827-10.24,7.68-16.213l104.96,104.96
				C285.755,323.924,279.781,326.484,275.515,330.751z M468.368,161.791l-156.16,156.16L191.89,197.633L348.901,41.471
				c33.28-33.28,87.04-33.28,120.32,0C502.501,74.751,502.501,128.511,468.368,161.791z"/>
			<path d="M457.275,52.564c-3.413-3.413-8.533-3.413-11.947,0l-179.2,179.2c-3.413,3.413-3.413,8.533,0,11.947
				c1.707,1.707,3.413,2.56,5.973,2.56c2.56,0,4.267-0.853,5.973-2.56l179.2-179.2C460.688,61.097,460.688,55.977,457.275,52.564z"
				/>
			<path d="M406.075,44.031c-3.413-3.413-8.533-3.413-11.947,0L231.995,206.164c-3.413,3.413-3.413,8.533,0,11.947
				c1.707,1.707,3.413,2.56,5.973,2.56s4.267-0.853,5.973-2.56L406.075,55.977C409.488,52.564,409.488,47.444,406.075,44.031z"/>
			<path d="M453.861,103.764L291.728,265.897c-3.413,3.413-3.413,8.533,0,11.947c1.707,1.707,3.413,2.56,5.973,2.56
				s4.267-0.853,5.973-2.56l162.133-162.133c3.413-3.413,3.413-8.533,0-11.947S457.275,100.351,453.861,103.764z"/>
		</g>
	</g>
</g>
<g>
</g>
<g>
</g>
<g>
</g>
<g>
</g>
<g>
</g>
<g>
</g>
<g>
</g>
<g>
</g>
<g>
</g>
<g>
</g>
<g>
</g>
<g>
</g>
<g>
</g>
<g>
</g>
<g>
</g>
</svg>
