<?xml version="1.0" encoding="iso-8859-1"?>
<!-- Generator: Adobe Illustrator 19.0.0, SVG Export Plug-In . SVG Version: 6.00 Build 0)  -->
<svg version="1.1" id="Layer_1" xmlns="http://www.w3.org/2000/svg" xmlns:xlink="http://www.w3.org/1999/xlink" x="0px" y="0px"
	 viewBox="0 0 512 512" style="enable-background:new 0 0 512 512;" xml:space="preserve">
<g transform="translate(1 1)">
	<g>
		<path d="M336.067-1c-10.662,0-20.947,2.226-30.142,6.168C305.028,1.392,301.948-1,297.667-1h-85.333
			c-4.282,0-7.361,2.392-8.258,6.168C194.88,1.226,184.595-1,173.933-1c-34.987,0-64,23.04-64,51.2c0,28.16,29.013,51.2,64,51.2
			c10.662,0,20.947-2.226,30.142-6.168c0.897,3.776,3.976,6.168,8.258,6.168h8.533v51.968l-7.68-0.768
			c-5.12,0-8.533,3.413-9.387,7.68c-0.853,5.12,3.413,8.533,7.68,9.387l9.387,0.939v16.896l-7.68-0.768
			c-5.12,0-8.533,3.413-9.387,7.68c-0.853,5.12,3.413,8.533,7.68,9.387l9.387,0.939v16.896l-7.68-0.768
			c-5.12-0.853-8.533,3.413-9.387,7.68c-0.853,5.12,3.413,8.533,7.68,9.387l9.387,0.939v16.896l-7.68-0.768
			c-5.12-0.853-8.533,3.413-9.387,7.68c-0.853,5.12,3.413,8.533,7.68,9.387l9.387,0.939v16.896l-7.68-0.768
			c-5.12,0-8.533,3.413-9.387,7.68c-0.853,5.12,3.413,8.533,7.68,9.387l9.387,0.939v16.896l-7.68-0.768
			c-5.12,0-8.533,3.413-9.387,7.68c-0.853,5.12,3.413,8.533,7.68,9.387l9.387,0.939v16.896l-7.68-0.768
			c-5.12,0-8.533,3.413-9.387,7.68c-0.853,5.12,3.413,8.533,7.68,9.387l9.387,0.939v16.896l-7.68-0.768
			c-5.12,0-8.533,3.413-9.387,7.68c-0.853,5.12,3.413,8.533,7.68,9.387l9.387,0.939v16.896l-7.68-0.768
			c-5.12,0-8.533,3.413-9.387,7.68c-0.853,5.12,3.413,8.533,7.68,9.387l9.387,0.939v16.896l-7.68-0.768
			c-5.12,0-8.533,3.413-9.387,7.68c-0.853,5.12,3.413,8.533,7.68,9.387l9.387,0.939v24.661c0,5.12,3.413,8.533,8.533,8.533h51.2
			c5.12,0,8.533-3.413,8.533-8.533v-17.835l7.68,0.768h0.853c4.267,0,8.533-3.413,8.533-7.68c0.853-5.12-3.413-8.533-7.68-9.387
			l-9.387-0.939v-16.896l7.68,0.768h0.853c4.267,0,8.533-3.413,8.533-7.68c0.853-5.12-3.413-8.533-7.68-9.387l-9.387-0.939v-16.896
			l7.68,0.768h0.853c4.267,0,8.533-3.413,8.533-7.68c0.853-5.12-3.413-8.533-7.68-9.387l-9.387-0.939v-16.896l7.68,0.768h0.853
			c4.267,0,8.533-3.413,8.533-7.68c0.853-5.12-3.413-8.533-7.68-9.387l-9.387-0.939v-16.896l7.68,0.768h0.853
			c4.267,0,8.533-3.413,8.533-7.68c0.853-5.12-3.413-8.533-7.68-9.387l-9.387-0.939v-16.896l7.68,0.768h0.853
			c4.267,0,8.533-3.413,8.533-7.68c0.853-5.12-3.413-8.533-7.68-9.387l-9.387-0.939v-16.896l7.68,0.768h0.853
			c4.267,0,8.533-3.413,8.533-7.68c0.853-5.12-3.413-8.533-7.68-9.387l-9.387-0.939v-16.896l7.68,0.768h0.853
			c4.267,0,8.533-3.413,8.533-7.68c0.853-5.12-3.413-8.533-7.68-9.387l-9.387-0.939v-16.896l7.68,0.768h0.853
			c4.267,0,8.533-3.413,8.533-7.68c0.853-5.12-3.413-8.533-7.68-9.387l-9.387-0.939v-16.896l7.68,0.768h0.853
			c4.267,0,8.533-3.413,8.533-7.68c0.853-5.12-3.413-8.533-7.68-9.387l-9.387-0.939V101.4h8.533c4.282,0,7.361-2.392,8.258-6.168
			c9.196,3.943,19.481,6.168,30.142,6.168c35.84,0,64-23.04,64-51.2C400.067,22.04,371.907-1,336.067-1z M127,50.2
			c0-18.773,21.333-34.133,46.933-34.133c11.093,0,21.333,2.56,29.867,7.68v52.907c-8.533,5.12-18.773,7.68-29.867,7.68
			C148.333,84.333,127,68.973,127,50.2z M272.067,493.933h-34.133v-14.421l34.133,3.413V493.933z M272.067,465.688l-34.133-3.413
			v-16.896l34.133,3.413V465.688z M272.067,431.555l-34.133-3.413v-16.896l34.133,3.413V431.555z M272.067,397.421l-34.133-3.413
			v-16.896l34.133,3.413V397.421z M272.067,363.288l-34.133-3.413v-16.896l34.133,3.413V363.288z M272.067,329.155l-34.133-3.413
			v-16.896l34.133,3.413V329.155z M272.067,295.021l-34.133-3.413v-16.896l34.133,3.413V295.021z M272.067,260.888l-34.133-3.413
			v-16.896l34.133,3.413V260.888z M272.067,226.755l-34.133-3.413v-16.896l34.133,3.413V226.755z M272.067,192.621l-34.133-3.413
			v-16.896l34.133,3.413V192.621z M272.067,158.488l-34.133-3.413V101.4h34.133V158.488z M289.133,84.333H280.6h-51.2h-8.533V80.92
			V19.48v-3.413h68.267v3.413v61.44V84.333z M336.067,84.333c-11.093,0-21.333-2.56-29.867-7.68V23.747
			c8.533-5.12,18.773-7.68,29.867-7.68c25.6,0,46.933,15.36,46.933,34.133S361.667,84.333,336.067,84.333z"/>
	</g>
</g>
<g>
</g>
<g>
</g>
<g>
</g>
<g>
</g>
<g>
</g>
<g>
</g>
<g>
</g>
<g>
</g>
<g>
</g>
<g>
</g>
<g>
</g>
<g>
</g>
<g>
</g>
<g>
</g>
<g>
</g>
</svg>
