<?xml version="1.0" encoding="iso-8859-1"?>
<!-- Generator: Adobe Illustrator 19.0.0, SVG Export Plug-In . SVG Version: 6.00 Build 0)  -->
<svg version="1.1" id="Layer_1" xmlns="http://www.w3.org/2000/svg" xmlns:xlink="http://www.w3.org/1999/xlink" x="0px" y="0px"
	 viewBox="0 0 512 512" style="enable-background:new 0 0 512 512;" xml:space="preserve">
<g transform="translate(1 1)">
	<g>
		<path d="M378.213,10.093C375.653,3.267,369.68-1,362-1h-83.627c-3.413,0-5.973,1.707-7.68,4.267l-7.68,12.8H239.12l-5.973-12.8
			C231.44,0.707,228.88-1,225.466-1h-76.8c-6.827,0-13.653,3.413-16.213,10.24c-3.413,5.973-2.56,12.8,1.707,18.773
			c10.24,14.507,24.747,26.453,38.4,38.4c17.92,13.653,28.16,35.84,28.16,60.587v43.215l-7.68-0.549
			c-5.12-0.853-9.387,2.56-9.387,7.68c-0.853,5.12,2.56,9.387,7.68,9.387l9.387,0.666v16.95l-7.68-0.549
			c-5.12-0.853-9.387,2.56-9.387,7.68c-0.853,5.12,2.56,9.387,7.68,9.387l9.387,0.666v16.95l-7.68-0.549
			c-5.12-0.853-9.387,2.56-9.387,7.68c-0.853,5.12,2.56,9.387,7.68,9.387l9.387,0.666v16.95l-7.68-0.549
			c-5.12-0.853-9.387,2.56-9.387,7.68c-0.853,5.12,2.56,9.387,7.68,9.387l9.387,0.666v16.95l-7.68-0.549
			c-5.12-0.853-9.387,2.56-9.387,7.68c-0.853,5.12,2.56,9.387,7.68,9.387l9.387,0.666v16.95l-7.68-0.549
			c-5.12-0.853-9.387,3.413-9.387,7.68c-0.853,5.12,2.56,9.387,7.68,9.387l9.387,0.666v16.95l-7.68-0.549
			c-5.12-0.853-9.387,2.56-9.387,7.68c-0.853,5.12,2.56,9.387,7.68,9.387l9.387,0.666v16.95l-7.68-0.549
			c-5.12-0.853-9.387,2.56-9.387,7.68c-0.853,5.12,2.56,9.387,7.68,9.387l9.387,0.666v24.934c0,1.707,0.853,4.267,1.707,5.12
			l42.667,51.2c1.707,2.56,4.267,3.413,6.827,3.413s5.12-0.853,6.827-3.413l42.667-51.2c0.853-0.853,1.707-3.413,1.707-5.12v-17.672
			l8.533,0.605c4.267,0,8.533-3.413,8.533-7.68c0.853-5.12-2.56-9.387-7.68-9.387l-9.387-0.67v-17.001l8.533,0.605
			c4.267,0,8.533-3.413,8.533-7.68c0.853-5.12-2.56-9.387-7.68-9.387l-9.387-0.67v-17.001l8.533,0.605
			c4.267,0,8.533-3.413,8.533-7.68c0.853-5.12-2.56-9.387-7.68-9.387l-9.387-0.67v-17.001l8.533,0.605
			c4.267,0,8.533-3.413,8.533-7.68c0.853-5.12-2.56-9.387-7.68-9.387l-9.387-0.67v-17.001l8.533,0.605
			c4.267,0,8.533-3.413,8.533-7.68c0.853-5.12-2.56-9.387-7.68-9.387l-9.387-0.67v-17.001l8.533,0.605
			c4.267,0,8.533-3.413,8.533-7.68c0.853-5.12-2.56-9.387-7.68-9.387l-9.387-0.67v-17.001l8.533,0.605
			c4.267,0,8.533-3.413,8.533-7.68c0.853-5.12-2.56-9.387-7.68-9.387l-9.387-0.67v-17.001l8.533,0.605
			c4.267,0,8.533-3.413,8.533-7.68c0.853-5.12-2.56-9.387-7.68-9.387l-9.387-0.67V127c0-24.747,10.24-46.933,28.16-60.587
			c3.413-2.56,6.827-5.12,11.093-8.533c11.093-8.533,23.893-17.92,33.28-28.16C379.92,23.747,380.773,16.92,378.213,10.093z
			 M286.053,447.853l-34.133,40.96l-34.133-40.96v-20.311l68.267,4.842V447.853z M286.053,415.244l-68.267-4.876v-16.958
			l68.267,4.842V415.244z M286.053,381.11l-68.267-4.876v-16.958l68.267,4.842V381.11z M286.053,346.977l-68.267-4.876v-16.958
			l68.267,4.842V346.977z M286.053,312.844l-68.267-4.876v-16.958l68.267,4.842V312.844z M286.053,278.711l-68.267-4.876v-16.958
			l68.267,4.842V278.711z M286.053,244.577l-68.267-4.876v-16.958l68.267,4.842V244.577z M286.053,210.444l-68.267-4.876v-16.958
			l68.267,4.842V210.444z M362.853,17.773c-8.533,9.387-20.48,17.92-30.72,25.6c-4.267,3.413-8.533,6.827-11.947,9.387
			c-21.333,17.92-34.133,44.373-34.133,74.24v49.31l-68.267-4.876V127c0-29.867-11.947-56.32-34.133-74.24
			c-12.8-11.093-27.307-22.187-35.84-34.133c0-0.853,0-0.853,0-1.707s0.853-0.853,0.853-0.853h70.827l7.68,12.8
			c1.707,2.56,4.267,4.267,7.68,4.267h34.133c2.56,0,5.12-1.707,6.827-4.267l7.68-12.8H362c0,0,0.853,0,0.853,0.853
			S362.853,17.773,362.853,17.773z"/>
	</g>
</g>
<g>
</g>
<g>
</g>
<g>
</g>
<g>
</g>
<g>
</g>
<g>
</g>
<g>
</g>
<g>
</g>
<g>
</g>
<g>
</g>
<g>
</g>
<g>
</g>
<g>
</g>
<g>
</g>
<g>
</g>
</svg>
