<?xml version="1.0" encoding="iso-8859-1"?>
<!-- Generator: Adobe Illustrator 19.0.0, SVG Export Plug-In . SVG Version: 6.00 Build 0)  -->
<svg version="1.1" id="Layer_1" xmlns="http://www.w3.org/2000/svg" xmlns:xlink="http://www.w3.org/1999/xlink" x="0px" y="0px"
	 viewBox="0 0 501.122 501.122" style="enable-background:new 0 0 501.122 501.122;" xml:space="preserve">
<g transform="translate(1 1)">
	<g>
		<g>
			<path d="M491.729,109.706l-102.4-102.4c-10.911-10.911-29.377-10.911-40.289,0L161.867,195.319
				c-1.679,1.679-2.518,3.357-2.518,5.875c0,1.792,0.434,3.157,1.284,4.401c0.498,6.629,0.255,15.043-3.802,19.1
				c-5.036,4.197-17.626,3.357-23.502,3.357c-0.272,0-0.543,0.029-0.815,0.051c-2.378-0.262-4.83,0.558-6.739,2.467l-23.502,23.502
				c-1.679,1.679-2.518,3.357-2.518,5.875c0,2.518,0.839,4.197,2.518,5.875l47.843,47.843L55.27,408.512
				c-0.202,0.202-0.39,0.41-0.567,0.623l-33.846,22.039c-1.679,0.839-2.518,1.679-3.357,3.357l-17.626,41.967
				c-1.679,3.357-0.839,6.715,1.679,9.233l11.751,11.751c1.679,1.679,3.357,2.518,5.875,2.518c1.679,0,2.518,0,5.036-0.839
				l41.128-17.626c0.839-0.839,2.518-1.679,3.357-3.357l23.502-35.253c0.426-0.568,0.748-1.186,0.99-1.829l92.177-92.177
				l47.843,47.843c1.679,1.679,3.357,2.518,5.875,2.518c1.679,0,4.197-0.839,5.036-3.357l21.823-21.823
				c3.357-1.679,5.036-5.036,5.036-8.393c-0.839-6.715-1.679-18.466,3.357-23.502c4.319-3.599,14.183-3.494,20.613-3.391
				c1.068,0.577,2.252,0.873,3.728,0.873c1.679,0,4.197-0.839,5.875-2.518l187.174-187.174c5.875-5.875,8.393-12.59,8.393-20.144
				C500.123,122.296,496.765,114.742,491.729,109.706z M55.27,467.266l-33.574,14.269l-4.197-4.197l14.269-33.574l27.698-18.466
				l14.269,14.269L55.27,467.266z M85.067,425.719l-11.751-11.751l88.551-88.551l11.751,11.751L85.067,425.719z M239.086,378.296
				L120.739,259.948l11.751-11.751l59.174,59.174l59.174,59.174L239.086,378.296z M262.588,331.292
				c-4.197,4.197-6.715,10.072-7.554,15.948L151.795,244.001c5.875-0.839,11.751-3.357,15.948-7.554s6.715-10.072,7.554-15.948
				l103.239,103.239C272.66,324.578,266.785,327.096,262.588,331.292z M480.818,137.404L299.1,319.122L180.332,200.355
				L361.631,19.056c4.197-4.197,12.59-4.197,16.787,0l102.4,103.239c2.518,1.679,3.357,4.197,3.357,7.554
				C484.175,132.368,483.336,134.886,480.818,137.404z"/>
			<path d="M417.027,82.007c-3.357-3.357-8.393-3.357-11.751,0L250.837,236.446c-3.357,3.357-3.357,8.393,0,11.751
				c1.679,1.679,3.357,2.518,5.875,2.518s4.197-0.839,5.875-2.518L417.027,93.758C420.385,90.401,420.385,85.365,417.027,82.007z"/>
			<path d="M387.65,52.63c-3.357-3.357-8.393-3.357-11.751,0L221.46,207.069c-3.357,3.357-3.357,8.393,0,11.751
				c1.679,1.679,3.357,2.518,5.875,2.518c1.679,0,4.197-0.839,5.875-2.518L387.65,64.381
				C391.008,61.024,391.008,55.988,387.65,52.63z"/>
			<path d="M435.493,111.384L281.054,265.824c-3.357,3.357-3.357,8.393,0,11.751c1.679,1.679,3.357,2.518,5.875,2.518
				c1.679,0,4.197-0.839,5.875-1.679l154.439-155.279c3.357-3.357,3.357-8.393,0-11.751
				C443.886,108.027,438.85,108.027,435.493,111.384z"/>
		</g>
	</g>
</g>
<g>
</g>
<g>
</g>
<g>
</g>
<g>
</g>
<g>
</g>
<g>
</g>
<g>
</g>
<g>
</g>
<g>
</g>
<g>
</g>
<g>
</g>
<g>
</g>
<g>
</g>
<g>
</g>
<g>
</g>
</svg>
