<?xml version="1.0" encoding="iso-8859-1"?>
<!-- Generator: Adobe Illustrator 19.0.0, SVG Export Plug-In . SVG Version: 6.00 Build 0)  -->
<svg version="1.1" id="Layer_1" xmlns="http://www.w3.org/2000/svg" xmlns:xlink="http://www.w3.org/1999/xlink" x="0px" y="0px"
	 viewBox="0 0 512 512" style="enable-background:new 0 0 512 512;" xml:space="preserve">
<g transform="translate(1 1)">
	<g>
		<path d="M323.267-1H186.733c-5.12,0-8.533,3.413-8.533,8.533v34.133c0,1.707,0.853,3.413,1.707,5.12l25.6,34.133
			c1.707,2.56,4.267,3.413,6.827,3.413v315.733v51.2c0,1.707,0.853,3.413,1.707,5.12l34.133,51.2
			c0.215,0.215,0.444,0.43,0.684,0.642c0.985,1.124,2.213,2.087,3.582,2.772c0.853,0,1.707,0,2.56,0s1.707,0,2.56,0
			c0.834-0.417,1.616-0.937,2.323-1.533c0.898-0.561,1.613-1.22,1.943-1.88l34.133-51.2c0.853-1.707,1.707-3.413,1.707-5.12v-51.2
			c0,0,0-0.001,0-0.001V84.333c2.56,0,5.12-0.853,6.827-3.413l25.6-34.133c0.853-1.707,1.707-3.413,1.707-5.12V7.533
			C331.8,2.413,328.387-1,323.267-1z M229.4,420.547l17.067,17.067v36.693l-17.067-25.6V420.547z M280.6,420.547v28.16l-17.067,25.6
			v-36.693L280.6,420.547z M280.6,396.653l-25.6,25.6l-25.6-25.6V84.333h51.2V396.653z M314.733,39.107L293.4,67.267h-4.267h-68.267
			H216.6l-21.333-28.16v-23.04h119.467V39.107z"/>
	</g>
</g>
<g>
</g>
<g>
</g>
<g>
</g>
<g>
</g>
<g>
</g>
<g>
</g>
<g>
</g>
<g>
</g>
<g>
</g>
<g>
</g>
<g>
</g>
<g>
</g>
<g>
</g>
<g>
</g>
<g>
</g>
</svg>
