<?xml version="1.0" encoding="iso-8859-1"?>
<!-- Generator: Adobe Illustrator 19.0.0, SVG Export Plug-In . SVG Version: 6.00 Build 0)  -->
<svg version="1.1" id="Layer_1" xmlns="http://www.w3.org/2000/svg" xmlns:xlink="http://www.w3.org/1999/xlink" x="0px" y="0px"
	 viewBox="0 0 512 512" style="enable-background:new 0 0 512 512;" xml:space="preserve">
<g transform="translate(1 1)">
	<g>
		<g>
			<path d="M152.415-1H32.948c-3.413,0-6.827,2.56-7.68,5.12s-0.853,5.973,0.853,8.533l25.6,34.133
				c1.707,2.56,4.267,3.413,6.827,3.413h8.533v18.56l-5.973-1.493c-5.12-0.853-9.387,1.707-11.093,6.827
				c-0.853,4.267,1.707,8.533,6.827,10.24l10.24,2.56v16.853l-5.973-1.493c-4.267-1.707-9.387,1.707-10.24,5.973
				c-1.707,4.267,1.707,9.387,5.973,10.24l10.24,2.56v16.853l-5.973-1.493c-4.267-1.707-9.387,1.707-10.24,5.973
				c-1.707,4.267,1.707,9.387,5.973,10.24l10.24,2.56v16.853l-5.973-1.493c-4.267-1.707-9.387,1.707-10.24,5.973
				c-1.707,4.267,1.707,9.387,5.973,10.24l10.24,2.56v16.853l-5.973-1.493c-4.267-1.707-9.387,1.707-10.24,5.973
				c-1.707,4.267,1.707,9.387,5.973,10.24l10.292,2.573c0.532,34.904,6.479,69.034,17.868,102.387
				c0.853,3.413,4.267,5.973,7.68,5.973s6.827-2.56,8.533-5.973c9.293-29.307,14.976-59.216,16.582-89.721l7.312,1.828
				c0,0,0.853,0,1.707,0c4.267,0,7.68-2.56,8.533-5.973c1.707-4.267-1.707-9.387-5.973-10.24l-11.1-2.775
				c0-0.213,0.006-0.425,0.006-0.638v-16.213l6.827,1.707c0,0,0.853,0,1.707,0c4.267,0,7.68-2.56,8.533-5.973
				c1.707-4.267-1.707-9.387-5.973-10.24l-11.093-2.773V167.96l6.827,1.707c0,0,0.853,0,1.707,0c4.267,0,7.68-2.56,8.533-5.973
				c1.707-4.267-1.707-9.387-5.973-10.24l-11.093-2.773v-16.853l6.827,1.707c0,0,0.853,0,1.707,0c4.267,0,7.68-2.56,8.533-5.973
				c1.707-4.267-1.707-9.387-5.973-10.24l-11.093-2.773V99.693l6.827,1.707c0,0,0.853,0,1.707,0c4.267,0,7.68-2.56,8.533-6.827
				c1.707-4.267-1.707-9.387-5.973-10.24l-11.093-2.773V50.2h8.533c2.56,0,5.12-0.853,6.827-3.413l25.6-34.133
				c1.707-2.56,2.56-5.12,0.853-8.533S155.828-1,152.415-1z M92.682,292.547c-5.216-21.607-7.828-43.215-8.407-64.822l16.688,4.172
				C100.191,252.69,97.592,272.907,92.682,292.547z M101.215,214.68l-17.067-4.267V193.56l17.067,4.267V214.68z M101.215,180.547
				l-17.067-4.267v-16.853l17.067,4.267V180.547z M101.215,146.413l-17.067-4.267v-16.853l17.067,4.267V146.413z M101.215,112.28
				l-17.067-4.267V91.16l17.067,4.267V112.28z M101.215,77.293l-17.067-4.267V50.2h17.067V77.293z M122.548,33.133h-12.8H75.615
				h-12.8l-12.8-17.067h85.333L122.548,33.133z"/>
			<path d="M314.548-1H195.082c-3.413,0-5.973,2.56-7.68,5.12s-0.853,5.973,0.853,8.533l25.6,34.133
				c1.707,2.56,4.267,3.413,6.827,3.413h8.533v19.413l-5.973-1.493c-4.267-1.707-9.387,1.707-10.24,5.973
				c-1.707,4.267,1.707,9.387,5.973,10.24l10.24,2.56v16.853l-5.973-1.493c-4.267-1.707-9.387,1.707-10.24,5.973
				c-1.707,4.267,1.707,9.387,5.973,10.24l10.24,2.56v16.853l-5.973-1.493c-4.267-1.707-9.387,1.707-10.24,5.973
				c-1.707,4.267,1.707,9.387,5.973,10.24l10.24,2.56v16.853l-5.973-1.493c-4.267-1.707-9.387,1.707-10.24,5.973
				c-1.707,4.267,1.707,9.387,5.973,10.24l10.24,2.56v16.853l-5.973-1.493c-4.267-1.707-9.387,1.707-10.24,5.973
				c-1.707,4.267,1.707,9.387,5.973,10.24l10.24,2.56v16.853l-5.973-1.493c-4.267-1.707-9.387,1.707-10.24,5.973
				c-1.707,4.267,1.707,9.387,5.973,10.24l10.24,2.56v16.853l-5.973-1.493c-4.267-1.707-9.387,1.707-10.24,5.973
				c-1.707,4.267,1.707,9.387,5.973,10.24l10.24,2.56v3.413c0,4.516,0.093,9.018,0.274,13.508l-6.247-1.562
				c-4.267-1.707-9.387,1.707-10.24,5.973c-1.707,4.267,1.707,9.387,5.973,10.24l11.706,2.926
				c2.431,25.914,7.904,51.394,16.454,76.434c0.853,3.413,4.267,5.973,7.68,5.973s6.827-2.56,7.68-5.973
				c7.281-20.804,12.331-42.561,15.174-64.687l9.573,2.393c0,0,0.853,0,1.707,0c4.267,0,7.68-2.56,8.533-5.973
				c1.707-4.267-1.707-9.387-5.973-10.24l-12.107-3.027c0.428-5.535,0.714-11.083,0.868-16.636l6.972,1.743c0,0,0.853,0,1.707,0
				c4.267,0,7.68-2.56,8.533-5.973c1.707-4.267-1.707-9.387-5.973-10.24l-11.093-2.773V270.36l6.827,1.707c0,0,0.853,0,1.707,0
				c4.267,0,7.68-2.56,8.533-5.973c1.707-4.267-1.707-9.387-5.973-10.24l-11.093-2.773v-16.853l6.827,1.707c0,0,0.853,0,1.707,0
				c4.267,0,7.68-2.56,8.533-5.973c1.707-4.267-1.707-9.387-5.973-10.24l-11.093-2.773v-16.853l6.827,1.707c0,0,0.853,0,1.707,0
				c4.267,0,7.68-2.56,8.533-5.973c1.707-4.267-1.707-9.387-5.973-10.24l-11.093-2.773V167.96l6.827,1.707c0,0,0.853,0,1.707,0
				c4.267,0,7.68-2.56,8.533-5.973c1.707-4.267-1.707-9.387-5.973-10.24l-11.093-2.773v-16.853l6.827,1.707c0,0,0.853,0,1.707,0
				c4.267,0,7.68-2.56,8.533-5.973c1.707-4.267-1.707-9.387-5.973-10.24l-11.093-2.773V99.693l6.827,1.707c0,0,0.853,0,1.707,0
				c4.267,0,7.68-2.56,8.533-5.973c1.707-4.267-1.707-9.387-5.973-10.24l-11.093-2.773V50.2h8.533c2.56,0,5.12-0.853,6.827-3.413
				l25.6-34.133c1.707-2.56,2.56-5.973,0.853-8.533C320.522,0.707,317.962-1,314.548-1z M254.815,369.347
				c-3.121-12.93-5.302-25.86-6.681-38.79l13.073,3.268C259.818,345.867,257.725,357.709,254.815,369.347z M262.689,316.915
				l-15.948-3.987c-0.292-5.656-0.44-11.311-0.453-16.967l17.025,4.256C263.236,305.825,263.027,311.39,262.689,316.915z
				 M263.348,282.947l-17.067-4.267v-16.853l17.067,4.267V282.947z M263.348,248.813l-17.067-4.267v-16.853l17.067,4.267V248.813z
				 M263.348,214.68l-17.067-4.267V193.56l17.067,4.267V214.68z M263.348,180.547l-17.067-4.267v-16.853l17.067,4.267V180.547z
				 M263.348,146.413l-17.067-4.267v-16.853l17.067,4.267V146.413z M263.348,112.28l-17.067-4.267V91.16l17.067,4.267V112.28z
				 M263.348,78.147l-17.067-4.267V50.2h17.067V78.147z M284.682,33.133h-12.8h-34.133h-12.8l-12.8-17.067h85.333L284.682,33.133z"
				/>
			<path d="M451.082,50.2c2.56,0,5.12-0.853,6.827-3.413l25.6-34.133c1.707-2.56,2.56-5.973,0.853-8.533
				c-1.707-3.413-4.267-5.12-7.68-5.12H357.215c-3.413,0-5.973,1.707-7.68,5.12c-1.707,2.56-0.853,5.973,0.853,8.533l25.6,34.133
				c1.707,2.56,4.267,3.413,6.827,3.413h8.533v19.413l-5.973-1.493c-4.267-1.707-9.387,1.707-10.24,5.973
				c-1.707,4.267,1.707,9.387,5.973,10.24l10.24,2.56v16.853l-5.973-1.493c-4.267-1.707-9.387,1.707-10.24,5.973
				c-1.707,4.267,1.707,9.387,5.973,10.24l10.24,2.56v16.853l-5.973-1.493c-4.267-1.707-9.387,1.707-10.24,5.973
				c-1.707,4.267,1.707,9.387,5.973,10.24l10.24,2.56v16.853l-5.973-1.493c-4.267-1.707-9.387,1.707-10.24,5.973
				c-1.707,4.267,1.707,9.387,5.973,10.24l10.24,2.56v16.853l-5.973-1.493c-4.267-1.707-9.387,1.707-10.24,5.973
				c-1.707,4.267,1.707,9.387,5.973,10.24l10.24,2.56v16.853l-5.973-1.493c-4.267-1.707-9.387,1.707-10.24,5.973
				c-1.707,4.267,1.707,9.387,5.973,10.24l10.24,2.56v16.853l-5.973-1.493c-4.267-1.707-9.387,1.707-10.24,5.973
				c-1.707,4.267,1.707,9.387,5.973,10.24l10.24,2.56v16.853l-5.973-1.493c-4.267-1.707-9.387,1.707-10.24,5.973
				c-1.707,4.267,1.707,9.387,5.973,10.24l10.24,2.56v16.853l-5.973-1.493c-4.267-1.707-9.387,1.707-10.24,5.973
				c-1.707,4.267,1.707,9.387,5.973,10.24l10.24,2.56v16.853l-5.973-1.493c-4.267-1.707-9.387,1.707-10.24,5.973
				c-1.707,4.267,1.707,9.387,5.973,10.24l10.24,2.56v3.413c0,4.516,0.093,9.018,0.274,13.508l-6.247-1.562
				c-4.267-1.707-9.387,1.707-10.24,5.973c-1.707,4.267,1.707,9.387,5.973,10.24l11.706,2.926
				c2.431,25.914,7.904,51.394,16.454,76.434c0.853,3.413,4.267,5.973,7.68,5.973c3.413,0,6.827-2.56,7.68-5.973
				c7.281-20.804,12.331-42.561,15.174-64.687l9.573,2.393c0,0,0.853,0,1.707,0c4.267,0,7.68-2.56,8.533-5.973
				c1.707-4.267-1.707-9.387-5.973-10.24l-12.107-3.027c0.428-5.535,0.714-11.083,0.868-16.636l6.972,1.743c0,0,0.853,0,1.707,0
				c4.267,0,7.68-2.56,8.533-5.973c1.707-4.267-1.707-9.387-5.973-10.24l-11.093-2.773V372.76l6.827,1.707c0,0,0.853,0,1.707,0
				c4.267,0,7.68-2.56,8.533-5.973c1.707-4.267-1.707-9.387-5.973-10.24l-11.093-2.773v-16.853l6.827,1.707c0,0,0.853,0,1.707,0
				c4.267,0,7.68-2.56,8.533-5.973c1.707-4.267-1.707-9.387-5.973-10.24l-11.093-2.773v-16.853l6.827,1.707c0,0,0.853,0,1.707,0
				c4.267,0,7.68-2.56,8.533-5.973c1.707-4.267-1.707-9.387-5.973-10.24l-11.093-2.773V270.36l6.827,1.707c0,0,0.853,0,1.707,0
				c4.267,0,7.68-2.56,8.533-5.973c1.707-4.267-1.707-9.387-5.973-10.24l-11.093-2.773v-16.853l6.827,1.707c0,0,0.853,0,1.707,0
				c4.267,0,7.68-2.56,8.533-5.973c1.707-4.267-1.707-9.387-5.973-10.24l-11.093-2.773v-16.853l6.827,1.707c0,0,0.853,0,1.707,0
				c4.267,0,7.68-2.56,8.533-5.973c1.707-4.267-1.707-9.387-5.973-10.24l-11.093-2.773V167.96l6.827,1.707c0,0,0.853,0,1.707,0
				c4.267,0,7.68-2.56,8.533-5.973c1.707-4.267-1.707-9.387-5.973-10.24l-11.093-2.773v-16.853l6.827,1.707c0,0,0.853,0,1.707,0
				c4.267,0,7.68-2.56,8.533-5.973c1.707-4.267-1.707-9.387-5.973-10.24l-11.093-2.773V99.693l6.827,1.707c0,0,0.853,0,1.707,0
				c4.267,0,7.68-2.56,8.533-5.973c1.707-4.267-1.707-9.387-5.973-10.24l-11.093-2.773V50.2H451.082z M374.282,16.067h85.333
				l-12.8,17.067h-12.8h-34.133h-12.8L374.282,16.067z M416.948,471.747c-3.121-12.93-5.302-25.86-6.681-38.79l13.073,3.268
				C421.952,448.267,419.858,460.109,416.948,471.747z M424.822,419.315l-15.948-3.987c-0.292-5.656-0.44-11.311-0.453-16.967
				l17.025,4.256C425.369,408.225,425.161,413.79,424.822,419.315z M425.482,385.347l-17.067-4.267v-16.853l17.067,4.267V385.347z
				 M425.482,351.213l-17.067-4.267v-16.853l17.067,4.267V351.213z M425.482,317.08l-17.067-4.267V295.96l17.067,4.267V317.08z
				 M425.482,282.947l-17.067-4.267v-16.853l17.067,4.267V282.947z M425.482,248.813l-17.067-4.267v-16.853l17.067,4.267V248.813z
				 M425.482,214.68l-17.067-4.267V193.56l17.067,4.267V214.68z M425.482,180.547l-17.067-4.267v-16.853l17.067,4.267V180.547z
				 M425.482,146.413l-17.067-4.267v-16.853l17.067,4.267V146.413z M425.482,112.28l-17.067-4.267V91.16l17.067,4.267V112.28z
				 M425.482,78.147l-17.067-4.267V50.2h17.067V78.147z"/>
		</g>
	</g>
</g>
<g>
</g>
<g>
</g>
<g>
</g>
<g>
</g>
<g>
</g>
<g>
</g>
<g>
</g>
<g>
</g>
<g>
</g>
<g>
</g>
<g>
</g>
<g>
</g>
<g>
</g>
<g>
</g>
<g>
</g>
</svg>
