<?xml version="1.0" encoding="iso-8859-1"?>
<!-- Generator: Adobe Illustrator 19.0.0, SVG Export Plug-In . SVG Version: 6.00 Build 0)  -->
<svg version="1.1" id="Layer_1" xmlns="http://www.w3.org/2000/svg" xmlns:xlink="http://www.w3.org/1999/xlink" x="0px" y="0px"
	 viewBox="0 0 503.607 503.607" style="enable-background:new 0 0 503.607 503.607;" xml:space="preserve">
<g transform="translate(1 1)">
	<g>
		<g>
			<path d="M141.689-1h-33.574H40.967H7.393C2.357-1-1,2.357-1,7.393v41.967c0,5.036,3.357,8.393,8.393,8.393h25.18v176.262v50.361
				c0,2.518,0.839,4.197,2.518,5.875l33.574,33.574c0.033,0.033,0.066,0.06,0.099,0.093c0.125,0.125,0.253,0.244,0.384,0.359
				c0.81,0.729,1.643,1.262,2.582,1.604c0.89,0.455,2.126,0.463,2.81,0.463c0.646,0,1.786-0.004,2.661-0.387
				c1.293-0.399,2.517-1.107,4.054-2.131l33.574-33.574c1.679-1.679,2.518-3.357,2.518-5.875v-50.361
				c0-1.409-0.31-2.662-0.839-3.775V57.754h25.18c5.036,0,8.393-3.357,8.393-8.393V7.393C150.082,2.357,146.725-1,141.689-1z
				 M82.934,297.807v-41.967l16.787-8.393v33.574L82.934,297.807z M99.721,228.98l-24.761,12.38l-25.6-12.8V57.754h50.361V228.98z
				 M99.721,40.967H49.361v-25.18h50.361V40.967z M15.787,15.787h16.787v25.18H15.787V15.787z M49.361,247.446l16.787,8.393v41.967
				L49.361,281.02V247.446z M133.295,40.967h-16.787v-25.18h16.787V40.967z"/>
			<path d="M317.951-1h-33.574h-67.148h-33.574c-5.036,0-8.393,3.357-8.393,8.393v41.967c0,5.036,3.357,8.393,8.393,8.393h25.18
				v260.197v50.361c0,2.518,0.839,4.197,2.518,5.875l33.574,33.574c0.033,0.033,0.067,0.061,0.1,0.094
				c0.124,0.124,0.251,0.242,0.38,0.355c0.81,0.73,1.644,1.264,2.585,1.606c0.89,0.454,2.126,0.463,2.81,0.463
				c0.839,0,2.518,0,4.197-0.839c1.774-0.444,3.075-1.594,3.911-3.072l32.18-32.18c1.679-1.679,2.518-3.357,2.518-5.875v-50.361
				c0-1.409-0.31-2.661-0.839-3.775V57.754h25.18c5.036,0,8.393-3.357,8.393-8.393V7.393C326.344,2.357,322.987-1,317.951-1z
				 M260.036,339.354l15.948-7.974v33.574l-15.948,15.948V339.354z M275.984,312.915l-24.761,12.38l-25.6-12.8V57.754h50.361
				V312.915z M275.984,40.967h-50.361v-25.18h50.361V40.967z M192.049,15.787h16.787v25.18h-16.787V15.787z M225.623,331.38
				l16.787,8.393v41.967l-16.787-16.787V331.38z M309.557,40.967h-16.787v-25.18h16.787V40.967z"/>
			<path d="M494.213-1h-33.574h-67.148h-33.574c-5.036,0-8.393,3.357-8.393,8.393v41.967c0,5.036,3.357,8.393,8.393,8.393h25.18
				v352.525v50.361c0,2.518,0.839,4.197,2.518,5.875l33.574,33.574c0.033,0.033,0.066,0.061,0.1,0.093
				c0.125,0.125,0.252,0.243,0.382,0.357c0.81,0.73,1.644,1.263,2.584,1.605c0.89,0.454,2.126,0.463,2.81,0.463
				c0.839,0,2.518,0,4.197-0.839c1.774-0.444,3.075-1.594,3.911-3.072l32.18-32.18c1.679-1.679,2.518-3.357,2.518-5.875v-50.361
				c0-1.409-0.31-2.662-0.839-3.775V57.754h25.18c5.036,0,8.393-3.357,8.393-8.393V7.393C502.607,2.357,499.249-1,494.213-1z
				 M436.298,431.682l15.948-7.974v33.574l-15.948,15.948V431.682z M452.246,405.243l-24.761,12.38l-25.6-12.8V57.754h50.361
				V405.243z M452.246,40.967h-50.361v-25.18h50.361V40.967z M368.311,15.787h16.787v25.18h-16.787V15.787z M401.885,423.708
				l16.787,8.393v41.967l-16.787-16.787V423.708z M485.82,40.967h-16.787v-25.18h16.787V40.967z"/>
		</g>
	</g>
</g>
<g>
</g>
<g>
</g>
<g>
</g>
<g>
</g>
<g>
</g>
<g>
</g>
<g>
</g>
<g>
</g>
<g>
</g>
<g>
</g>
<g>
</g>
<g>
</g>
<g>
</g>
<g>
</g>
<g>
</g>
</svg>
