<?xml version="1.0" encoding="iso-8859-1"?>
<!-- Generator: Adobe Illustrator 19.0.0, SVG Export Plug-In . SVG Version: 6.00 Build 0)  -->
<svg version="1.1" id="Layer_1" xmlns="http://www.w3.org/2000/svg" xmlns:xlink="http://www.w3.org/1999/xlink" x="0px" y="0px"
	 viewBox="0 0 506.667 506.667" style="enable-background:new 0 0 506.667 506.667;" xml:space="preserve">
<g transform="translate(1 1)">
	<g>
		<g>
			<path d="M497.252,111.427L393.998,7.32c-11.947-11.093-30.72-11.093-41.813,0L161.892,198.467
				c-1.707,1.707-2.56,3.413-2.56,5.973c0,1.822,0.441,3.209,1.305,4.475c0.506,6.74,0.26,15.294-3.865,19.419
				c-5.12,4.267-17.92,3.413-23.893,3.413c-0.277,0-0.552,0.029-0.828,0.052c-2.417-0.267-4.91,0.567-6.852,2.508L101.305,258.2
				c-1.707,1.707-2.56,3.413-2.56,5.973s0.853,4.267,2.56,5.973l48.64,48.64L35.598,433.133c-1.246,1.246-2.032,2.496-2.368,4.075
				l-8.725,8.725c-9.387,8.533-16.213,18.773-22.187,29.867l-0.853,0.853c-4.267,7.68-2.56,17.067,3.413,23.04
				c4.267,4.267,9.387,5.973,14.507,5.973c2.56,0,5.973-0.853,9.387-1.707c11.947-5.973,23.04-13.653,32.427-23.04l11.093-11.093
				c0.835-0.835,1.462-1.772,1.889-2.761l111.626-112.417l48.619,48.619c1.707,1.707,3.413,2.56,5.973,2.56
				c1.707,0,4.267-0.853,5.12-3.413l22.186-22.186c0,0,0,0,0,0c3.413-1.707,5.12-5.12,5.12-8.533
				c-0.853-6.827-1.707-18.773,3.413-23.893c4.391-3.659,14.419-3.552,20.957-3.448c1.086,0.586,2.289,0.888,3.79,0.888
				c1.707,0,4.267-0.853,5.973-2.56l190.293-190.293C508.345,141.293,508.345,122.52,497.252,111.427z M48.398,468.12
				c-7.68,8.533-17.067,15.36-28.16,19.627c-0.853,0-2.56,0-3.413-0.853s-1.707-2.56-0.853-3.413l0.853-0.853
				c5.12-9.387,11.093-17.92,18.773-25.6l5.973-5.973l0.001,0.001l11.946,12.799L48.398,468.12z M173.838,342.68L65.465,451.053
				l-11.947-11.947l108.373-108.373l5.973,5.973L173.838,342.68z M240.398,384.493l-120.32-120.32l11.947-11.947l120.32,120.32
				L240.398,384.493z M264.292,336.707c-4.267,4.267-6.827,10.24-7.68,16.213l-104.96-104.96c5.973-0.853,11.947-3.413,16.213-7.68
				s6.827-10.24,7.68-16.213l104.96,104.96C274.532,329.88,268.558,332.44,264.292,336.707z M485.305,140.44L301.412,324.333
				L180.667,203.589L364.985,20.12c4.267-5.12,11.947-5.12,17.067,0l103.253,103.253
				C489.572,128.493,489.572,136.173,485.305,140.44z"/>
			<path d="M421.305,83.267c-3.413-3.413-8.533-3.413-11.947,0L252.345,240.28c-3.413,3.413-3.413,8.533,0,11.947
				c1.707,1.707,3.413,2.56,5.973,2.56s4.267-0.853,5.973-2.56L421.305,95.213C424.718,91.8,424.718,86.68,421.305,83.267z"/>
			<path d="M391.438,53.4c-3.413-3.413-8.533-3.413-11.947,0L222.478,210.413c-3.413,3.413-3.413,8.533,0,11.947
				c1.707,1.707,3.413,2.56,5.973,2.56c1.707,0,4.267-0.853,5.973-2.56L391.438,65.347C394.852,61.933,394.852,56.813,391.438,53.4z
				"/>
			<path d="M440.078,113.133L283.065,270.147c-3.413,3.413-3.413,8.533,0,11.947c1.707,1.707,3.413,2.56,5.973,2.56
				c1.707,0,4.267-0.853,5.973-1.707L452.025,125.08c3.413-3.413,3.413-8.533,0-11.947S443.492,109.72,440.078,113.133z"/>
		</g>
	</g>
</g>
<g>
</g>
<g>
</g>
<g>
</g>
<g>
</g>
<g>
</g>
<g>
</g>
<g>
</g>
<g>
</g>
<g>
</g>
<g>
</g>
<g>
</g>
<g>
</g>
<g>
</g>
<g>
</g>
<g>
</g>
</svg>
