<?xml version="1.0" encoding="iso-8859-1"?>
<!-- Generator: Adobe Illustrator 19.0.0, SVG Export Plug-In . SVG Version: 6.00 Build 0)  -->
<svg version="1.1" id="Layer_1" xmlns="http://www.w3.org/2000/svg" xmlns:xlink="http://www.w3.org/1999/xlink" x="0px" y="0px"
	 viewBox="0 0 512 512" style="enable-background:new 0 0 512 512;" xml:space="preserve">
<g transform="translate(1 1)">
	<g>
		<path d="M374.467-1H331.8H178.2h-42.667c-9.387,0-17.067,7.68-17.067,17.067v51.2c0,9.387,7.68,17.067,17.067,17.067H178.2h25.6
			v128.549l-7.68-0.549c-5.12-0.853-9.387,2.56-9.387,7.68c-0.853,5.12,2.56,9.387,7.68,9.387l9.387,0.666v16.95l-7.68-0.549
			c-5.12-0.853-9.387,2.56-9.387,7.68c-0.853,5.12,2.56,9.387,7.68,9.387l9.387,0.666v16.95l-7.68-0.549
			c-5.12-0.853-9.387,2.56-9.387,7.68c-0.853,5.12,2.56,9.387,7.68,9.387l9.387,0.666v16.95l-7.68-0.549
			c-5.12-0.853-9.387,2.56-9.387,7.68c-0.853,5.12,2.56,9.387,7.68,9.387l9.387,0.666v16.95l-7.68-0.549
			c-5.12-0.853-9.387,2.56-9.387,7.68c-0.853,5.12,2.56,9.387,7.68,9.387l9.387,0.666v16.95L196.12,383
			c-5.12-0.853-9.387,2.56-9.387,7.68c-0.853,5.12,2.56,9.387,7.68,9.387l9.387,0.666v16.95l-7.68-0.549
			c-5.12-0.853-9.387,2.56-9.387,7.68c-0.853,5.12,2.56,9.387,7.68,9.387l9.387,0.666v16.95l-7.68-0.549
			c-5.12-0.853-9.387,3.413-9.387,7.68c-0.853,5.12,2.56,9.387,7.68,9.387l9.387,0.666v24.934c0,9.387,7.68,17.067,17.067,17.067
			h68.267c9.387,0,17.067-7.68,17.067-17.067v-17.672l8.533,0.605c4.267,0,8.533-3.413,8.533-7.68c0.853-5.12-2.56-9.387-7.68-9.387
			l-9.387-0.67v-17.001l8.533,0.605c4.267,0,8.533-3.413,8.533-7.68c0.853-5.12-2.56-9.387-7.68-9.387l-9.387-0.67v-17.001
			l8.533,0.605c4.267,0,8.533-3.413,8.533-7.68c0.853-5.12-2.56-9.387-7.68-9.387l-9.387-0.67v-17.001l8.533,0.605
			c4.267,0,8.533-3.413,8.533-7.68c0.853-5.12-2.56-9.387-7.68-9.387l-9.387-0.67v-17.001l8.533,0.605
			c4.267,0,8.533-3.413,8.533-7.68c0.853-5.12-2.56-9.387-7.68-9.387l-9.387-0.67v-17.001l8.533,0.605
			c4.267,0,8.533-3.413,8.533-7.68c0.853-5.12-2.56-9.387-7.68-9.387l-9.387-0.67v-17.001l8.533,0.605
			c4.267,0,8.533-3.413,8.533-7.68c0.853-5.12-2.56-9.387-7.68-9.387l-9.387-0.67v-17.001l8.533,0.605
			c4.267,0,8.533-3.413,8.533-7.68c0.853-5.12-2.56-9.387-7.68-9.387l-9.387-0.67V84.333h25.6h42.667
			c9.387,0,17.067-7.68,17.067-17.067v-51.2C391.533,6.68,383.853-1,374.467-1z M135.533,16.067h34.133v51.2h-34.133V16.067z
			 M186.733,16.067h136.533v51.2h-25.6h-85.333h-25.6V16.067z M289.133,493.933h-68.267v-23.724l68.267,4.842V493.933z
			 M289.133,457.911l-68.267-4.876v-16.958l68.267,4.842V457.911z M289.133,423.777l-68.267-4.876v-16.958l68.267,4.842V423.777z
			 M289.133,389.644l-68.267-4.876v-16.958l68.267,4.842V389.644z M289.133,355.51l-68.267-4.876v-16.958l68.267,4.842V355.51z
			 M289.133,321.377l-68.267-4.876v-16.958l68.267,4.842V321.377z M289.133,287.244l-68.267-4.876v-16.958l68.267,4.842V287.244z
			 M289.133,253.11l-68.267-4.876v-16.958l68.267,4.842V253.11z M289.133,218.977l-68.267-4.876V84.333h68.267V218.977z
			 M374.467,67.267h-34.133v-51.2h34.133V67.267z"/>
	</g>
</g>
<g>
</g>
<g>
</g>
<g>
</g>
<g>
</g>
<g>
</g>
<g>
</g>
<g>
</g>
<g>
</g>
<g>
</g>
<g>
</g>
<g>
</g>
<g>
</g>
<g>
</g>
<g>
</g>
<g>
</g>
</svg>
