<?xml version="1.0" encoding="iso-8859-1"?>
<!-- Generator: Adobe Illustrator 19.0.0, SVG Export Plug-In . SVG Version: 6.00 Build 0)  -->
<svg version="1.1" id="Layer_1" xmlns="http://www.w3.org/2000/svg" xmlns:xlink="http://www.w3.org/1999/xlink" x="0px" y="0px"
	 viewBox="0 0 512 512" style="enable-background:new 0 0 512 512;" xml:space="preserve">
<g transform="translate(1 1)">
	<g>
		<path d="M374.442,80.92C357.375,37.4,318.975,5.827,273.748-1c-2.56,0-5.12,0.853-7.68,1.707c-1.707,1.707-2.56,4.267-2.56,6.827
			v25.6h-17.067v-25.6c0-2.56-0.853-5.12-2.56-6.827S239.615-1,237.055-1c-46.08,6.827-84.48,38.4-101.547,81.92
			c-0.853,3.413-0.853,5.973,1.707,8.533c1.707,1.707,4.267,3.413,6.827,3.413h59.733v77.349l-7.68-0.549
			c-5.12-0.853-9.387,2.56-9.387,7.68c-0.853,5.12,2.56,9.387,7.68,9.387l9.387,0.666v16.95l-7.68-0.549
			c-5.12-0.853-9.387,2.56-9.387,7.68c-0.853,5.12,2.56,9.387,7.68,9.387l9.387,0.666v16.95l-7.68-0.549
			c-5.12-0.853-9.387,2.56-9.387,7.68c-0.853,5.12,2.56,9.387,7.68,9.387l9.387,0.666v16.95l-7.68-0.549
			c-5.12-0.853-9.387,2.56-9.387,7.68c-0.853,5.12,2.56,9.387,7.68,9.387l9.387,0.666v16.95l-7.68-0.549
			c-5.12-0.853-9.387,2.56-9.387,7.68c-0.853,5.12,2.56,9.387,7.68,9.387l9.387,0.666v16.95l-7.68-0.549
			c-5.12-0.853-9.387,3.413-9.387,7.68c-0.853,5.12,2.56,9.387,7.68,9.387l9.387,0.666v16.95l-7.68-0.549
			c-5.12-0.853-9.387,2.56-9.387,7.68c-0.853,5.12,2.56,9.387,7.68,9.387l9.387,0.666v16.95l-7.68-0.549
			c-5.12-0.853-9.387,2.56-9.387,7.68c-0.853,5.12,2.56,9.387,7.68,9.387l9.387,0.666v24.934c0,1.707,0.853,4.267,1.707,5.12
			l42.667,51.2c1.707,2.56,4.267,3.413,6.827,3.413c2.56,0,5.12-0.853,6.827-3.413l42.667-51.2c0.853-0.853,1.707-3.413,1.707-5.12
			v-17.672l8.533,0.605c4.267,0,8.533-3.413,8.533-7.68c0.853-5.12-2.56-9.387-7.68-9.387l-9.387-0.67v-17.001l8.533,0.605
			c4.267,0,8.533-3.413,8.533-7.68c0.853-5.12-2.56-9.387-7.68-9.387l-9.387-0.67v-17.001l8.533,0.605
			c4.267,0,8.533-3.413,8.533-7.68c0.853-5.12-2.56-9.387-7.68-9.387l-9.387-0.67v-17.001l8.533,0.605
			c4.267,0,8.533-3.413,8.533-7.68c0.853-5.12-2.56-9.387-7.68-9.387l-9.387-0.67v-17.001l8.533,0.605
			c4.267,0,8.533-3.413,8.533-7.68c0.853-5.12-2.56-9.387-7.68-9.387l-9.387-0.67v-17.001l8.533,0.605
			c4.267,0,8.533-3.413,8.533-7.68c0.853-5.12-2.56-9.387-7.68-9.387l-9.387-0.67v-17.001l8.533,0.605
			c4.267,0,8.533-3.413,8.533-7.68c0.853-5.12-2.56-9.387-7.68-9.387l-9.387-0.67v-17.001l8.533,0.605
			c4.267,0,8.533-3.413,8.533-7.68c0.853-5.12-2.56-9.387-7.68-9.387l-9.387-0.67V92.867h60.587c2.56,0,5.12-1.707,6.827-4.267
			C375.295,86.893,375.295,83.48,374.442,80.92z M289.108,447.853l-34.133,40.96l-34.133-40.96v-20.311l68.267,4.842V447.853z
			 M289.108,415.244l-68.267-4.876v-16.958l68.267,4.842V415.244z M289.108,381.11l-68.267-4.876v-16.958l68.267,4.842V381.11z
			 M289.108,346.977l-68.267-4.876v-16.958l68.267,4.842V346.977z M289.108,312.844l-68.267-4.876v-16.958l68.267,4.842V312.844z
			 M289.108,278.711l-68.267-4.876v-16.958l68.267,4.842V278.711z M289.108,244.577l-68.267-4.876v-16.958l68.267,4.842V244.577z
			 M289.108,210.444l-68.267-4.876v-16.958l68.267,4.842V210.444z M289.108,176.31l-68.267-4.876V92.867h68.267V176.31z
			 M297.642,75.8h-85.333h-55.467c15.36-29.013,41.813-50.347,72.533-58.027v23.893c0,5.12,3.413,8.533,8.533,8.533h34.133
			c5.12,0,8.533-3.413,8.533-8.533V17.773c30.72,7.68,57.173,29.013,72.533,58.027H297.642z"/>
	</g>
</g>
<g>
</g>
<g>
</g>
<g>
</g>
<g>
</g>
<g>
</g>
<g>
</g>
<g>
</g>
<g>
</g>
<g>
</g>
<g>
</g>
<g>
</g>
<g>
</g>
<g>
</g>
<g>
</g>
<g>
</g>
</svg>
