<?xml version="1.0" encoding="iso-8859-1"?>
<!-- Generator: Adobe Illustrator 19.0.0, SVG Export Plug-In . SVG Version: 6.00 Build 0)  -->
<svg version="1.1" id="Layer_1" xmlns="http://www.w3.org/2000/svg" xmlns:xlink="http://www.w3.org/1999/xlink" x="0px" y="0px"
	 viewBox="0 0 498.57 498.57" style="enable-background:new 0 0 498.57 498.57;" xml:space="preserve">
<g transform="translate(1 1)">
	<g>
		<g>
			<path d="M472.937,46.003L451.114,24.18C435.166,8.233,413.343-1,390.681-1s-44.485,9.233-60.433,25.18L159.022,195.407
				c-1.679,1.679-2.518,3.357-2.518,5.875c0,1.792,0.434,3.157,1.284,4.401c0.498,6.629,0.255,15.043-3.802,19.1
				c-5.036,4.197-17.626,3.357-23.502,3.357c-0.272,0-0.543,0.029-0.815,0.051c-2.378-0.262-4.83,0.558-6.739,2.467l-23.502,23.502
				c-1.679,1.679-2.518,3.357-2.518,5.875c0,2.518,0.839,4.197,2.518,5.875l47.843,47.843L42.149,418.876
				c-0.653,0.386-1.174,0.874-1.474,1.474l-8.393,8.393c-10.072,10.911-20.144,22.662-27.698,36.092l-2.518,3.357
				c-5.036,7.554-3.357,17.626,2.518,23.502c3.357,4.197,8.393,5.875,13.43,5.875c3.357,0,6.715-0.839,10.072-3.357l1.679-0.839
				c14.269-8.393,27.698-19.305,39.449-31.056l6.715-6.715l106.597-106.597l47.843,47.843c1.679,1.679,3.357,2.518,5.875,2.518
				c1.679,0,4.197-0.839,5.036-3.357l21.823-21.823c3.357-1.679,5.036-5.036,5.036-8.393c-0.839-6.715-1.679-18.466,3.357-23.502
				c4.319-3.599,14.183-3.494,20.613-3.391c1.068,0.577,2.252,0.873,3.728,0.873c1.679,0,4.197-0.839,5.875-2.518L472.937,166.03
				C505.671,133.295,505.671,78.738,472.937,46.003z M56.622,450.567C46.55,461.479,33.96,471.551,20.53,479.105l-1.679,0.839
				c-0.839,0.839-1.679,0.839-2.518,0c-0.839-0.839-0.839-2.518-0.839-3.357l2.518-3.357c7.554-11.751,15.948-22.662,26.02-32.734
				l1.679-2.518l11.751,11.751L56.622,450.567z M70.052,437.977l-11.751-11.751l100.721-100.721l11.751,11.751L70.052,437.977z
				 M236.242,378.384L117.894,260.036l11.751-11.751l59.174,59.174l59.174,59.174L236.242,378.384z M259.743,331.38
				c-4.197,4.197-6.715,10.072-7.554,15.948L148.95,244.089c5.875-0.839,11.751-3.357,15.948-7.554s6.715-10.072,7.554-15.948
				l103.239,103.239C269.816,324.666,263.94,327.184,259.743,331.38z M461.186,154.279L296.255,319.21L177.488,200.443
				L341.999,35.931c12.59-12.59,30.216-20.144,48.682-20.144s35.252,7.554,48.682,20.144l21.823,21.823
				C488.045,84.613,488.045,127.42,461.186,154.279z"/>
			<path d="M436.006,60.272c-3.357-3.357-8.393-3.357-11.751,0L247.993,236.534c-3.357,3.357-3.357,8.393,0,11.751
				c1.679,1.679,3.357,2.518,5.875,2.518s4.197-0.839,5.875-2.518L436.006,72.023C439.363,68.666,439.363,63.63,436.006,60.272z"/>
			<path d="M394.038,43.485c-3.357-3.357-8.393-3.357-11.751,0L222.812,202.961c-3.357,3.357-3.357,8.393,0,11.751
				c1.679,1.679,3.357,2.518,5.875,2.518c2.518,0,4.197-0.839,5.875-2.518L394.038,55.236
				C397.396,51.879,397.396,46.843,394.038,43.485z"/>
			<path d="M441.042,102.239L281.566,261.715c-3.357,3.357-3.357,8.393,0,11.751c1.679,1.679,3.357,2.518,5.875,2.518
				c2.518,0,4.197-0.839,5.875-2.518L452.793,113.99c3.357-3.357,3.357-8.393,0-11.751
				C449.435,98.882,444.399,98.882,441.042,102.239z"/>
		</g>
	</g>
</g>
<g>
</g>
<g>
</g>
<g>
</g>
<g>
</g>
<g>
</g>
<g>
</g>
<g>
</g>
<g>
</g>
<g>
</g>
<g>
</g>
<g>
</g>
<g>
</g>
<g>
</g>
<g>
</g>
<g>
</g>
</svg>
