<?xml version="1.0" encoding="iso-8859-1"?>
<!-- Generator: Adobe Illustrator 19.0.0, SVG Export Plug-In . SVG Version: 6.00 Build 0)  -->
<svg version="1.1" id="Layer_1" xmlns="http://www.w3.org/2000/svg" xmlns:xlink="http://www.w3.org/1999/xlink" x="0px" y="0px"
	 viewBox="0 0 512 512" style="enable-background:new 0 0 512 512;" xml:space="preserve">
<g transform="translate(1 1)">
	<g>
		<path d="M489.667,203.8c-5.12,0-8.533,3.413-8.533,8.533c0,100.693-123.733,213.333-290.133,213.333h-68.267v-25.6
			c0-5.12-3.413-8.533-8.533-8.533h-8.533V220.867H165.4c5.12,0,8.533-3.413,8.533-8.533V178.2c0-5.12-3.413-8.533-8.533-8.533
			h-59.733v-34.133V41.667V7.533c0-5.12-3.413-8.533-8.533-8.533H63c-5.12,0-8.533,3.413-8.533,8.533v34.133v93.867v256h-8.533
			c-5.12,0-8.533,3.413-8.533,8.533v25.6H20.333c-5.12,0-8.533,3.413-8.533,8.533v68.267c0,5.12,3.413,8.533,8.533,8.533H191
			c74.24,0,150.187-31.573,209.92-87.04c63.147-58.88,97.28-133.973,97.28-211.627C498.2,207.213,494.787,203.8,489.667,203.8z
			 M71.533,50.2H88.6V127H71.533V50.2z M88.6,16.067v17.067H71.533V16.067H88.6z M71.533,144.067H88.6V178.2
			c0,5.12,3.413,8.533,8.533,8.533h59.733V203.8H97.133c-5.12,0-8.533,3.413-8.533,8.533v179.2H71.533V144.067z M54.467,408.6H63
			h34.133h8.533v17.067h-51.2V408.6z M191,493.933H28.867v-51.2h17.067H114.2H191c96.427,0,199.68-43.52,258.56-110.933
			C402.627,421.4,307.053,493.933,191,493.933z"/>
	</g>
</g>
<g>
</g>
<g>
</g>
<g>
</g>
<g>
</g>
<g>
</g>
<g>
</g>
<g>
</g>
<g>
</g>
<g>
</g>
<g>
</g>
<g>
</g>
<g>
</g>
<g>
</g>
<g>
</g>
<g>
</g>
</svg>
