<?xml version="1.0" encoding="iso-8859-1"?>
<!-- Generator: Adobe Illustrator 19.0.0, SVG Export Plug-In . SVG Version: 6.00 Build 0)  -->
<svg version="1.1" id="Layer_1" xmlns="http://www.w3.org/2000/svg" xmlns:xlink="http://www.w3.org/1999/xlink" x="0px" y="0px"
	 viewBox="0 0 512 512" style="enable-background:new 0 0 512 512;" xml:space="preserve">
<g transform="translate(1 1)">
	<g>
		<path d="M280.6,392.359V62.591c4.042-3.314,7.704-6.15,11.947-8.978c11.093-7.68,22.187-16.213,22.187-37.547
			C314.733,5.827,307.907-1,297.667-1h-85.333c-10.24,0-17.067,6.827-17.067,17.067c0,21.333,11.947,29.867,23.04,37.547
			c3.443,2.754,7.436,5.517,11.093,8.72v330.026c-19.681,3.86-34.133,20.878-34.133,41.841v68.267c0,5.12,3.413,8.533,8.533,8.533
			h102.4c5.12,0,8.533-3.413,8.533-8.533V434.2C314.733,413.237,300.281,396.219,280.6,392.359z M246.467,67.267h17.067v324.267
			h-17.067V67.267z M212.333,16.067h85.333c0,12.8-5.12,16.213-15.36,23.893c-4.267,2.56-8.533,5.973-13.653,10.24h-27.307
			c-4.267-4.267-9.387-7.68-13.653-11.093C217.453,32.28,212.333,28.867,212.333,16.067z M297.667,493.933h-85.333V434.2
			c0-14.507,11.093-25.6,25.6-25.6h34.133c14.507,0,25.6,11.093,25.6,25.6V493.933z"/>
	</g>
</g>
<g>
</g>
<g>
</g>
<g>
</g>
<g>
</g>
<g>
</g>
<g>
</g>
<g>
</g>
<g>
</g>
<g>
</g>
<g>
</g>
<g>
</g>
<g>
</g>
<g>
</g>
<g>
</g>
<g>
</g>
</svg>
