<?xml version="1.0" encoding="iso-8859-1"?>
<!-- Generator: Adobe Illustrator 19.0.0, SVG Export Plug-In . SVG Version: 6.00 Build 0)  -->
<svg version="1.1" id="Layer_1" xmlns="http://www.w3.org/2000/svg" xmlns:xlink="http://www.w3.org/1999/xlink" x="0px" y="0px"
	 viewBox="0 0 512 512" style="enable-background:new 0 0 512 512;" xml:space="preserve">
<g transform="translate(1 1)">
	<g>
		<g>
			<path d="M289.133,306.2v-42.667H280.6V116.031c24.816-7.249,42.667-29.964,42.667-57.298V16.067h-25.6V-1h-85.333v17.067h-25.6
				v42.667c0,27.334,17.851,50.049,42.667,57.298v147.502h-8.533V306.2H152.6v98.987v42.667L252.44,511h5.973l98.987-64v-41.813
				V306.2H289.133z M229.4,16.067h51.2v17.067h-51.2V16.067z M203.8,58.733v-25.6h8.533V50.2h85.333V33.133h8.533v25.6
				c0,19.543-12.562,35.654-30.21,40.875l-5.63,0.938c-1.009,0.336-1.884,0.537-2.732,0.661c-1.347,0.123-2.711,0.193-4.094,0.193
				h-17.067c-1.148,0-2.28-0.057-3.403-0.142c-1.088-0.115-2.254-0.322-3.424-0.712l-5.63-0.938
				C216.362,94.387,203.8,78.276,203.8,58.733z M246.467,118.467h17.067v145.067h-17.067V118.467z M237.933,280.6h34.133v25.6
				h-34.133V280.6z M169.667,323.267h51.2h68.267h51.2V395.8L255,450.413L169.667,395.8V323.267z M340.333,438.467L255,493.08
				l-85.333-54.613v-22.486l82.773,52.352h5.973l81.92-52.259V438.467z"/>
			<path d="M289.133,348.013v-7.68c0-5.12-3.413-8.533-8.533-8.533c-5.12,0-8.533,3.413-8.533,8.533v7.68
				c0,5.12-4.267,9.387-9.387,9.387h-15.36c-5.12,0-9.387-4.267-9.387-9.387v-7.68c0-5.12-3.413-8.533-8.533-8.533
				c-5.12,0-8.533,3.413-8.533,8.533v7.68c0,14.507,11.947,26.453,26.453,26.453h15.36
				C277.187,374.467,289.133,362.52,289.133,348.013z"/>
		</g>
	</g>
</g>
<g>
</g>
<g>
</g>
<g>
</g>
<g>
</g>
<g>
</g>
<g>
</g>
<g>
</g>
<g>
</g>
<g>
</g>
<g>
</g>
<g>
</g>
<g>
</g>
<g>
</g>
<g>
</g>
<g>
</g>
</svg>
