<?xml version="1.0" encoding="iso-8859-1"?>
<!-- Generator: Adobe Illustrator 19.0.0, SVG Export Plug-In . SVG Version: 6.00 Build 0)  -->
<svg version="1.1" id="Layer_1" xmlns="http://www.w3.org/2000/svg" xmlns:xlink="http://www.w3.org/1999/xlink" x="0px" y="0px"
	 viewBox="0 0 512 512" style="enable-background:new 0 0 512 512;" xml:space="preserve">
<g transform="translate(1 1)">
	<g>
		<path d="M299.373,383c-0.853,0-0.853,0-1.707,0H280.6V62.591c4.042-3.314,7.704-6.15,11.947-8.978
			c11.093-7.68,22.187-16.213,22.187-37.547C314.733,5.827,307.907-1,297.667-1h-85.333c-10.24,0-17.067,6.827-17.067,17.067
			c0,21.333,11.947,29.867,23.04,37.547c3.443,2.754,7.436,5.517,11.093,8.72V383h-17.067c-0.853,0-0.853,0-1.707,0
			c-6.827,1.707-15.36,8.533-15.36,17.067v42.667c0,30.72,20.48,58.027,50.347,66.56c2.56,0.853,5.973,1.707,9.387,1.707
			c3.413,0,6.827-0.853,9.387-1.707c29.867-8.533,50.347-35.84,50.347-66.56v-42.667C314.733,391.533,305.347,384.707,299.373,383z
			 M212.333,16.067h85.333c0,12.8-5.12,16.213-15.36,23.893c-4.267,2.56-8.533,5.973-13.653,10.24h-27.307
			c-4.267-4.267-9.387-7.68-13.653-11.093C217.453,32.28,212.333,28.867,212.333,16.067z M246.467,67.267h17.067V383h-17.067V67.267
			z M297.667,442.733c0,23.04-15.36,43.52-37.547,50.347c-3.413,0.853-5.973,0.853-9.387,0c-23.04-6.827-38.4-27.307-38.4-50.347
			v-40.96c0.853-0.853,0.853-1.707,1.707-1.707h23.893h34.133h23.893c0.853,0,1.707,0,1.707,0.853V442.733z"/>
	</g>
</g>
<g>
</g>
<g>
</g>
<g>
</g>
<g>
</g>
<g>
</g>
<g>
</g>
<g>
</g>
<g>
</g>
<g>
</g>
<g>
</g>
<g>
</g>
<g>
</g>
<g>
</g>
<g>
</g>
<g>
</g>
</svg>
