<?xml version="1.0" encoding="iso-8859-1"?>
<!-- Generator: Adobe Illustrator 19.0.0, SVG Export Plug-In . SVG Version: 6.00 Build 0)  -->
<svg version="1.1" id="Layer_1" xmlns="http://www.w3.org/2000/svg" xmlns:xlink="http://www.w3.org/1999/xlink" x="0px" y="0px"
	 viewBox="0 0 512 512" style="enable-background:new 0 0 512 512;" xml:space="preserve">
<g transform="translate(1 1)">
	<g>
		<g>
			<path d="M272.067,340.333v7.68c0,5.12-4.267,9.387-9.387,9.387h-15.36c-5.12,0-9.387-4.267-9.387-9.387v-7.68
				c0-5.12-3.413-8.533-8.533-8.533s-8.533,3.413-8.533,8.533v7.68c0,14.507,11.947,26.453,26.453,26.453h15.36
				c14.507,0,26.453-11.947,26.453-26.453v-7.68c0-5.12-3.413-8.533-8.533-8.533S272.067,335.213,272.067,340.333z"/>
			<path d="M359.96,295.107c-3.413-3.413-8.533-5.973-13.653-5.973H280.6V280.6v-17.067V115.944
				c24.395-7.347,42.667-29.991,42.667-57.211V16.067h-25.6V-1h-85.333v17.067h-25.6v42.667c0,27.334,17.851,50.049,42.667,57.298
				v147.502V280.6v8.533h-65.707c-5.12,0-10.24,1.707-13.653,5.973s-4.267,9.387-3.413,14.507L188.44,511h133.12l41.813-201.387
				C364.227,304.493,363.373,298.52,359.96,295.107z M229.4,16.067h51.2v17.067h-51.2V16.067z M203.8,58.733v-25.6h8.533V50.2
				h85.333V33.133h8.533v25.6c0,19.543-12.562,35.654-30.21,40.875l-5.63,0.938c-1.009,0.336-1.884,0.537-2.732,0.661
				c-1.347,0.123-2.711,0.193-4.094,0.193h-17.067c-1.148,0-2.28-0.057-3.403-0.142c-1.088-0.115-2.254-0.322-3.424-0.712
				l-5.63-0.938C216.362,94.387,203.8,78.276,203.8,58.733z M246.467,118.467h17.067v145.067h-17.067V118.467z M246.467,280.6
				h17.067v8.533v8.533h-17.067v-8.533V280.6z M307.907,493.933H202.093L162.84,306.2h66.56v8.533h51.2V306.2h66.56L307.907,493.933
				z"/>
		</g>
	</g>
</g>
<g>
</g>
<g>
</g>
<g>
</g>
<g>
</g>
<g>
</g>
<g>
</g>
<g>
</g>
<g>
</g>
<g>
</g>
<g>
</g>
<g>
</g>
<g>
</g>
<g>
</g>
<g>
</g>
<g>
</g>
</svg>
