<?xml version="1.0" encoding="iso-8859-1"?>
<!-- Generator: Adobe Illustrator 19.0.0, SVG Export Plug-In . SVG Version: 6.00 Build 0)  -->
<svg version="1.1" id="Layer_1" xmlns="http://www.w3.org/2000/svg" xmlns:xlink="http://www.w3.org/1999/xlink" x="0px" y="0px"
	 viewBox="0 0 505.285 505.285" style="enable-background:new 0 0 505.285 505.285;" xml:space="preserve">
<g transform="translate(1 1)">
	<g>
		<g>
			<path d="M342.292,310.397c-5.875-5.875-14.269-9.233-23.502-9.233h-33.574v-41.967h-8.393V114.113
				c24.409-7.13,41.967-29.473,41.967-56.359V15.787h-25.18V-1h-83.934v16.787h-25.18v41.967c0,26.886,17.558,49.228,41.967,56.359
				v145.084h-8.393v41.967h-33.574c-8.393,0-16.787,3.357-23.502,10.072c-6.715,5.875-10.072,14.269-10.072,23.502v91.489
				c0,17.626,7.554,35.252,20.984,47.003c22.662,20.984,51.2,31.056,79.738,31.056s57.075-10.072,79.738-32.734
				c13.43-11.751,20.984-28.538,20.984-46.164v-91.489C352.364,325.505,349.007,317.111,342.292,310.397z M226.462,15.787h50.361
				v16.787h-50.361V15.787z M201.282,57.754v-25.18h8.393v16.787h83.934V32.574h8.393v25.18c0,19.222-12.356,35.069-29.715,40.205
				l-5.538,0.923c-0.992,0.331-1.853,0.528-2.687,0.65c-1.325,0.121-2.667,0.19-4.028,0.19h-16.787c-1.13,0-2.243-0.056-3.348-0.139
				c-1.07-0.113-2.217-0.316-3.367-0.7l-5.538-0.923C213.638,92.823,201.282,76.976,201.282,57.754z M243.249,116.508h16.787
				v142.689h-16.787V116.508z M234.856,275.984h33.574v25.18h-33.574V275.984z M335.577,426.226c0,13.429-5.875,26.02-15.108,34.413
				c-39.449,36.092-98.203,36.092-137.652,0c-9.233-9.233-15.108-21.823-15.108-34.413v-91.489c0-5.036,1.679-9.233,5.036-11.751
				c3.357-3.357,7.554-5.036,11.751-5.036h33.574h67.148h33.574c5.036,0,9.233,1.679,11.751,5.036
				c3.357,3.357,5.036,7.554,5.036,11.751V426.226z"/>
			<path d="M276.823,326.344c-5.036,0-8.393,3.357-8.393,8.393v7.554c0,5.036-4.197,9.233-9.233,9.233h-15.108
				c-5.036,0-9.233-4.197-9.233-9.233v-7.554c0-5.036-3.357-8.393-8.393-8.393c-5.036,0-8.393,3.357-8.393,8.393v7.554
				c0,14.269,11.751,26.02,26.02,26.02h15.108c14.269,0,26.02-11.751,26.02-26.02v-7.554
				C285.216,329.702,281.859,326.344,276.823,326.344z"/>
		</g>
	</g>
</g>
<g>
</g>
<g>
</g>
<g>
</g>
<g>
</g>
<g>
</g>
<g>
</g>
<g>
</g>
<g>
</g>
<g>
</g>
<g>
</g>
<g>
</g>
<g>
</g>
<g>
</g>
<g>
</g>
<g>
</g>
</svg>
