<?xml version="1.0" encoding="iso-8859-1"?>
<!-- Generator: Adobe Illustrator 19.0.0, SVG Export Plug-In . SVG Version: 6.00 Build 0)  -->
<svg version="1.1" id="Layer_1" xmlns="http://www.w3.org/2000/svg" xmlns:xlink="http://www.w3.org/1999/xlink" x="0px" y="0px"
	 viewBox="0 0 503.607 503.607" style="enable-background:new 0 0 503.607 503.607;" xml:space="preserve">
<g transform="translate(1 1)">
	<g>
		<g>
			<path d="M452.246-1H49.361C21.662-1-1,21.662-1,49.361v402.885c0,27.698,22.662,50.361,50.361,50.361h402.885
				c27.698,0,50.361-22.662,50.361-50.361V49.361C502.607,21.662,479.944-1,452.246-1z M485.82,452.246
				c0,18.466-15.108,33.574-33.574,33.574H49.361c-18.466,0-33.574-15.108-33.574-33.574V49.361
				c0-18.466,15.108-33.574,33.574-33.574h402.885c18.466,0,33.574,15.108,33.574,33.574V452.246z"/>
			<path d="M439.656,32.574H61.951c-15.948,0-29.377,13.43-29.377,29.377v377.705c0,15.948,13.43,29.377,29.377,29.377h377.705
				c15.948,0,29.377-13.43,29.377-29.377V61.951C469.033,46.003,455.603,32.574,439.656,32.574z M452.246,439.656
				c0,6.715-5.875,12.59-12.59,12.59H61.951c-6.715,0-12.59-5.875-12.59-12.59V61.951c0-6.715,5.875-12.59,12.59-12.59h377.705
				c6.715,0,12.59,5.875,12.59,12.59V439.656z"/>
			<path d="M250.803,124.902c-69.666,0-125.902,56.236-125.902,125.902s56.236,125.902,125.902,125.902
				s125.902-56.236,125.902-125.902S320.469,124.902,250.803,124.902z M259.197,359.602v-16.471c0-5.036-3.357-8.393-8.393-8.393
				s-8.393,3.357-8.393,8.393v16.471c-56.484-4.261-100.721-51.191-100.721-108.799s44.237-104.538,100.721-108.799v16.471
				c0,5.036,3.357,8.393,8.393,8.393s8.393-3.357,8.393-8.393v-16.471c56.484,4.261,100.721,51.191,100.721,108.799
				S315.681,355.341,259.197,359.602z"/>
			<path d="M192.049,217.229c-18.466,0-33.574,15.108-33.574,33.574s15.108,33.574,33.574,33.574s33.574-15.108,33.574-33.574
				S210.515,217.229,192.049,217.229z M192.049,267.59c-9.233,0-16.787-7.554-16.787-16.787c0-9.233,7.554-16.787,16.787-16.787
				s16.787,7.554,16.787,16.787C208.836,260.036,201.282,267.59,192.049,267.59z"/>
			<path d="M275.984,250.803c0,18.466,15.108,33.574,33.574,33.574s33.574-15.108,33.574-33.574s-15.108-33.574-33.574-33.574
				S275.984,232.338,275.984,250.803z M326.344,250.803c0,9.233-7.554,16.787-16.787,16.787s-16.787-7.554-16.787-16.787
				c0-9.233,7.554-16.787,16.787-16.787S326.344,241.57,326.344,250.803z"/>
			<path d="M250.803,242.41c-5.036,0-8.393,3.357-8.393,8.393s3.357,8.393,8.393,8.393s8.393-3.357,8.393-8.393
				S255.839,242.41,250.803,242.41z"/>
		</g>
	</g>
</g>
<g>
</g>
<g>
</g>
<g>
</g>
<g>
</g>
<g>
</g>
<g>
</g>
<g>
</g>
<g>
</g>
<g>
</g>
<g>
</g>
<g>
</g>
<g>
</g>
<g>
</g>
<g>
</g>
<g>
</g>
</svg>
