<?xml version="1.0" encoding="iso-8859-1"?>
<!-- Generator: Adobe Illustrator 19.0.0, SVG Export Plug-In . SVG Version: 6.00 Build 0)  -->
<svg version="1.1" id="Layer_1" xmlns="http://www.w3.org/2000/svg" xmlns:xlink="http://www.w3.org/1999/xlink" x="0px" y="0px"
	 viewBox="0 0 503.607 503.607" style="enable-background:new 0 0 503.607 503.607;" xml:space="preserve">
<g transform="translate(1 1)">
	<g>
		<g>
			<path d="M452.246,36.77H49.361C21.662,36.77-1,59.433-1,87.131v268.59c0,27.698,22.662,50.361,50.361,50.361h92.328
				c0,8.393,1.679,15.948,5.036,22.662c10.072,26.02,41.128,38.61,69.666,27.698c16.787-5.875,42.807-5.036,53.718,5.875
				c1.679,1.679,3.357,2.518,5.875,2.518c2.518,0,4.197-0.839,5.875-2.518c3.357-3.357,3.357-8.393,0-11.751
				c-15.948-15.948-49.521-17.626-71.344-9.233c-20.144,7.554-41.128-0.839-48.682-18.466c-2.518-5.036-3.357-10.911-3.357-16.787
				h184.656c0,8.393,1.679,15.948,5.036,22.662c10.072,26.02,41.128,38.61,69.666,27.698c16.787-5.875,42.807-5.036,53.718,5.875
				c1.679,1.679,3.357,2.518,5.875,2.518s4.197-0.839,5.875-2.518c3.357-3.357,3.357-8.393,0-11.751
				c-15.948-15.948-49.521-17.626-71.344-9.233c-20.144,7.554-41.128-0.839-48.682-18.466c-2.518-5.036-3.357-10.911-3.357-16.787
				h92.328c27.698,0,50.361-22.662,50.361-50.361V87.131C502.607,59.433,479.944,36.77,452.246,36.77z M158.475,389.295v-16.787
				h184.656v16.787H158.475z M150.082,238.213c-5.036,0-8.393,3.357-8.393,8.393v41.967H99.721c-9.233,0-16.787-7.554-16.787-16.787
				v-66.308c0-9.233,3.357-17.626,10.072-24.341l20.984-20.984c4.197-3.357,9.233-5.875,15.108-5.875v0.839h41.967
				c5.875,0,10.911,1.679,15.108,5.875l20.984,20.984c6.715,5.875,10.072,14.269,10.072,23.502v66.308
				c0,9.233-7.554,16.787-16.787,16.787h-41.967v-41.967C158.475,241.57,155.118,238.213,150.082,238.213z M200.443,305.361
				c18.466,0,33.574-15.108,34.413-33.574v-66.308c0-13.43-5.875-26.02-15.108-35.252l-20.984-20.984
				c-7.554-6.715-16.787-10.911-26.859-10.911h-42.807c-10.072,0-19.305,3.357-26.859,10.911l-20.984,20.984
				c-10.072,9.233-15.108,21.823-15.108,35.252v66.308c0,18.466,15.108,33.574,33.574,33.574h41.967v50.361H61.951
				c-6.715,0-12.59-5.875-12.59-12.59V99.721c0-6.715,5.875-12.59,12.59-12.59h377.705c6.715,0,12.59,5.875,12.59,12.59v243.41
				c0,6.715-5.875,12.59-12.59,12.59h-79.738v-50.361h41.967c18.466,0,33.574-15.108,34.413-33.574v-66.308
				c0-13.43-5.875-26.02-15.108-35.252l-20.984-20.984c-7.554-6.715-16.787-10.911-26.859-10.911h-42.807
				c-10.072,0-19.305,3.357-26.859,10.911l-20.984,20.984c-10.072,9.233-15.108,21.823-15.108,35.252v66.308
				c0,18.466,15.108,33.574,33.574,33.574h41.967v50.361H158.475v-50.361H200.443z M351.525,238.213
				c-5.036,0-8.393,3.357-8.393,8.393v41.967h-41.967c-9.233,0-16.787-7.554-16.787-16.787v-66.308
				c0-9.233,3.357-17.626,10.072-24.341l20.984-20.984c4.197-3.357,9.233-5.875,15.108-5.875v0.839h41.967
				c5.875,0,10.911,1.679,15.108,5.875l20.984,20.984c6.715,5.875,10.072,14.269,10.072,23.502v66.308
				c0,9.233-7.554,16.787-16.787,16.787h-41.967v-41.967C359.918,241.57,356.561,238.213,351.525,238.213z M485.82,355.721
				c0,18.466-15.108,33.574-33.574,33.574h-92.328v-16.787h79.738c15.948,0,29.377-13.43,29.377-29.377V99.721
				c0-15.948-13.43-29.377-29.377-29.377H61.951c-15.948,0-29.377,13.43-29.377,29.377v243.41c0,15.948,13.43,29.377,29.377,29.377
				h79.738v16.787H49.361c-18.466,0-33.574-15.108-33.574-33.574V87.131c0-18.466,15.108-33.574,33.574-33.574h402.885
				c18.466,0,33.574,15.108,33.574,33.574V355.721z"/>
			<path d="M368.311,221.426c0-5.036-3.357-8.393-8.393-8.393h-16.787c-5.036,0-8.393,3.357-8.393,8.393s3.357,8.393,8.393,8.393
				h16.787C364.954,229.82,368.311,226.462,368.311,221.426z"/>
			<path d="M166.869,221.426c0-5.036-3.357-8.393-8.393-8.393h-16.787c-5.036,0-8.393,3.357-8.393,8.393s3.357,8.393,8.393,8.393
				h16.787C163.511,229.82,166.869,226.462,166.869,221.426z"/>
		</g>
	</g>
</g>
<g>
</g>
<g>
</g>
<g>
</g>
<g>
</g>
<g>
</g>
<g>
</g>
<g>
</g>
<g>
</g>
<g>
</g>
<g>
</g>
<g>
</g>
<g>
</g>
<g>
</g>
<g>
</g>
<g>
</g>
</svg>
