<?xml version="1.0" encoding="iso-8859-1"?>
<!-- Generator: Adobe Illustrator 19.0.0, SVG Export Plug-In . SVG Version: 6.00 Build 0)  -->
<svg version="1.1" id="Layer_1" xmlns="http://www.w3.org/2000/svg" xmlns:xlink="http://www.w3.org/1999/xlink" x="0px" y="0px"
	 viewBox="0 0 503.607 503.607" style="enable-background:new 0 0 503.607 503.607;" xml:space="preserve">
<g transform="translate(1 1)">
	<g>
		<g>
			<path d="M452.246,66.148H49.361C21.662,66.148-1,88.81-1,116.508v268.59c0,27.698,22.662,50.361,50.361,50.361h402.885
				c27.698,0,50.361-22.662,50.361-50.361v-268.59C502.607,88.81,479.944,66.148,452.246,66.148z M485.82,385.098
				c0,18.466-15.108,33.574-33.574,33.574H49.361c-18.466,0-33.574-15.108-33.574-33.574v-268.59
				c0-18.466,15.108-33.574,33.574-33.574h402.885c18.466,0,33.574,15.108,33.574,33.574V385.098z"/>
			<path d="M439.656,99.721H61.951c-15.948,0-29.377,13.43-29.377,29.377v243.41c0,15.948,13.43,29.377,29.377,29.377h377.705
				c15.948,0,29.377-13.43,29.377-29.377v-243.41C469.033,113.151,455.603,99.721,439.656,99.721z M452.246,372.508
				c0,6.715-5.875,12.59-12.59,12.59H61.951c-6.715,0-12.59-5.875-12.59-12.59v-243.41c0-6.715,5.875-12.59,12.59-12.59h377.705
				c6.715,0,12.59,5.875,12.59,12.59V372.508z"/>
			<path d="M225.623,166.869H74.541c-5.036,0-8.393,3.357-8.393,8.393v151.082c0,5.036,3.357,8.393,8.393,8.393h151.082
				c5.036,0,8.393-3.357,8.393-8.393V175.262C234.016,170.226,230.659,166.869,225.623,166.869z M217.229,317.951H82.934V183.656
				h134.295V317.951z"/>
			<path d="M427.066,166.869H275.984c-5.036,0-8.393,3.357-8.393,8.393v151.082c0,5.036,3.357,8.393,8.393,8.393h151.082
				c5.036,0,8.393-3.357,8.393-8.393V175.262C435.459,170.226,432.102,166.869,427.066,166.869z M418.672,317.951H284.377V183.656
				h134.295V317.951z"/>
			<path d="M116.508,242.41c5.036,0,8.393-3.357,8.393-8.393v-25.18c0-5.036-3.357-8.393-8.393-8.393s-8.393,3.357-8.393,8.393
				v25.18C108.115,239.052,111.472,242.41,116.508,242.41z"/>
			<path d="M183.656,242.41c5.036,0,8.393-3.357,8.393-8.393v-25.18c0-5.036-3.357-8.393-8.393-8.393s-8.393,3.357-8.393,8.393
				v25.18C175.262,239.052,178.62,242.41,183.656,242.41z"/>
			<path d="M150.082,301.164c5.036,0,8.393-3.357,8.393-8.393v-16.787c0-5.036-3.357-8.393-8.393-8.393s-8.393,3.357-8.393,8.393
				v16.787C141.689,297.807,145.046,301.164,150.082,301.164z"/>
			<path d="M317.951,242.41c5.036,0,8.393-3.357,8.393-8.393v-25.18c0-5.036-3.357-8.393-8.393-8.393
				c-5.036,0-8.393,3.357-8.393,8.393v25.18C309.557,239.052,312.915,242.41,317.951,242.41z"/>
			<path d="M385.098,242.41c5.036,0,8.393-3.357,8.393-8.393v-25.18c0-5.036-3.357-8.393-8.393-8.393
				c-5.036,0-8.393,3.357-8.393,8.393v25.18C376.705,239.052,380.062,242.41,385.098,242.41z"/>
			<path d="M351.525,301.164c5.036,0,8.393-3.357,8.393-8.393v-16.787c0-5.036-3.357-8.393-8.393-8.393
				c-5.036,0-8.393,3.357-8.393,8.393v16.787C343.131,297.807,346.489,301.164,351.525,301.164z"/>
		</g>
	</g>
</g>
<g>
</g>
<g>
</g>
<g>
</g>
<g>
</g>
<g>
</g>
<g>
</g>
<g>
</g>
<g>
</g>
<g>
</g>
<g>
</g>
<g>
</g>
<g>
</g>
<g>
</g>
<g>
</g>
<g>
</g>
</svg>
