<?xml version="1.0" encoding="iso-8859-1"?>
<!-- Generator: Adobe Illustrator 19.0.0, SVG Export Plug-In . SVG Version: 6.00 Build 0)  -->
<svg version="1.1" id="Layer_1" xmlns="http://www.w3.org/2000/svg" xmlns:xlink="http://www.w3.org/1999/xlink" x="0px" y="0px"
	 viewBox="0 0 503.607 503.607" style="enable-background:new 0 0 503.607 503.607;" xml:space="preserve">
<g transform="translate(1 1)">
	<g>
		<g>
			<path d="M452.246,36.77H49.361C21.662,36.77-1,59.433-1,87.131v268.59c0,27.698,22.662,50.361,50.361,50.361h92.328
				c0,8.393,1.679,15.948,5.036,22.662c10.072,26.02,41.128,38.61,69.666,27.698c16.787-5.875,42.807-5.036,53.718,5.875
				c1.679,1.679,3.357,2.518,5.875,2.518c2.518,0,4.197-0.839,5.875-2.518c3.357-3.357,3.357-8.393,0-11.751
				c-15.948-15.948-49.521-17.626-71.344-9.233c-20.144,7.554-41.128-0.839-48.682-18.466c-2.518-5.036-3.357-10.911-3.357-16.787
				h184.656c0,8.393,1.679,15.948,5.036,22.662c10.072,26.02,41.128,38.61,69.666,27.698c16.787-5.875,42.807-5.036,53.718,5.875
				c1.679,1.679,3.357,2.518,5.875,2.518s4.197-0.839,5.875-2.518c3.357-3.357,3.357-8.393,0-11.751
				c-15.948-15.948-49.521-17.626-71.344-9.233c-20.144,7.554-41.128-0.839-48.682-18.466c-2.518-5.036-3.357-10.911-3.357-16.787
				h92.328c27.698,0,50.361-22.662,50.361-50.361V87.131C502.607,59.433,479.944,36.77,452.246,36.77z M158.475,389.295v-16.787
				h184.656v16.787H158.475z M82.934,221.426c0-19.605,8.516-37.318,22.031-49.622c4.146,32.974,4.18,66.351,0.097,99.332
				C91.492,258.827,82.934,241.078,82.934,221.426z M195.101,271.136c-4.083-32.98-4.048-66.357,0.097-99.332
				c13.515,12.305,22.031,30.017,22.031,49.622C217.229,241.078,208.672,258.827,195.101,271.136z M120.718,161.09
				c8.883-4.356,18.85-6.812,29.364-6.812c10.514,0,20.48,2.456,29.364,6.812c-5.857,40.224-5.857,80.448,0,120.671
				c-6.481,3.178-13.543,5.327-20.97,6.265v-41.42c0-5.036-3.357-8.393-8.393-8.393s-8.393,3.357-8.393,8.393v41.42
				c-7.427-0.937-14.489-3.087-20.97-6.265C126.575,241.538,126.575,201.314,120.718,161.09z M158.475,304.937
				c0.454-0.046,0.901-0.112,1.352-0.165c0.681-0.08,1.361-0.164,2.039-0.261c0.637-0.09,1.27-0.188,1.902-0.293
				c0.554-0.092,1.106-0.195,1.658-0.298c0.938-0.175,1.87-0.364,2.797-0.57c0.681-0.151,1.362-0.306,2.038-0.474
				c0.466-0.116,0.93-0.235,1.393-0.359c7.518-1.995,14.714-4.997,21.232-8.907c0.672-0.336,1.274-0.742,1.805-1.199
				c23.574-14.903,39.323-41.186,39.323-70.984c0-46.164-37.771-83.934-83.934-83.934s-83.934,37.771-83.934,83.934
				c0,30.391,16.372,57.138,40.729,71.872c0.134,0.103,0.26,0.219,0.399,0.311c6.518,3.911,13.714,6.913,21.232,8.907
				c0.463,0.124,0.927,0.243,1.393,0.359c0.677,0.167,1.357,0.323,2.038,0.474c0.927,0.206,1.859,0.395,2.797,0.57
				c0.552,0.103,1.104,0.206,1.658,0.298c0.632,0.105,1.266,0.202,1.902,0.293c0.678,0.097,1.358,0.181,2.039,0.261
				c0.451,0.053,0.899,0.12,1.352,0.165v50.784H61.951c-6.715,0-12.59-5.875-12.59-12.59V99.721c0-6.715,5.875-12.59,12.59-12.59
				h377.705c6.715,0,12.59,5.875,12.59,12.59v243.41c0,6.715-5.875,12.59-12.59,12.59h-79.738v-50.784
				c0.454-0.046,0.901-0.112,1.352-0.165c0.681-0.08,1.361-0.164,2.039-0.261c0.637-0.09,1.27-0.188,1.902-0.293
				c0.554-0.092,1.106-0.195,1.658-0.298c0.938-0.175,1.871-0.364,2.799-0.571c0.681-0.151,1.361-0.306,2.038-0.473
				c0.466-0.116,0.93-0.235,1.393-0.359c7.518-1.995,14.714-4.997,21.232-8.907c0.672-0.336,1.274-0.742,1.805-1.199
				c23.574-14.903,39.323-41.186,39.323-70.984c0-46.164-37.77-83.934-83.934-83.934s-83.934,37.771-83.934,83.934
				c0,30.391,16.372,57.138,40.729,71.872c0.134,0.103,0.26,0.219,0.399,0.311c6.518,3.911,13.714,6.913,21.232,8.907
				c0.463,0.124,0.927,0.243,1.393,0.359c0.677,0.167,1.357,0.323,2.038,0.474c0.927,0.206,1.859,0.395,2.797,0.57
				c0.552,0.103,1.104,0.206,1.658,0.298c0.632,0.105,1.266,0.202,1.902,0.293c0.678,0.097,1.358,0.181,2.039,0.261
				c0.451,0.053,0.899,0.12,1.352,0.165v50.784H158.475V304.937z M284.377,221.426c0-19.605,8.516-37.318,22.031-49.622
				c4.146,32.974,4.18,66.351,0.097,99.332C292.934,258.827,284.377,241.078,284.377,221.426z M396.544,271.136
				c-4.083-32.98-4.048-66.357,0.097-99.332c13.515,12.305,22.031,30.017,22.031,49.622
				C418.672,241.078,410.115,258.827,396.544,271.136z M322.161,161.09c8.883-4.356,18.85-6.812,29.364-6.812
				c10.514,0,20.48,2.456,29.364,6.812c-5.857,40.224-5.857,80.448,0,120.671c-6.481,3.178-13.543,5.327-20.97,6.265v-41.42
				c0-5.036-3.357-8.393-8.393-8.393c-5.036,0-8.393,3.357-8.393,8.393v41.42c-7.427-0.937-14.489-3.087-20.97-6.265
				C328.017,241.538,328.017,201.314,322.161,161.09z M485.82,355.721c0,18.466-15.108,33.574-33.574,33.574h-92.328v-16.787h79.738
				c15.948,0,29.377-13.43,29.377-29.377V99.721c0-15.948-13.43-29.377-29.377-29.377H61.951c-15.948,0-29.377,13.43-29.377,29.377
				v243.41c0,15.948,13.43,29.377,29.377,29.377h79.738v16.787H49.361c-18.466,0-33.574-15.108-33.574-33.574V87.131
				c0-18.466,15.108-33.574,33.574-33.574h402.885c18.466,0,33.574,15.108,33.574,33.574V355.721z"/>
			<path d="M343.131,229.82h16.787c5.036,0,8.393-3.357,8.393-8.393s-3.357-8.393-8.393-8.393h-16.787
				c-5.036,0-8.393,3.357-8.393,8.393S338.095,229.82,343.131,229.82z"/>
			<path d="M141.689,229.82h16.787c5.036,0,8.393-3.357,8.393-8.393s-3.357-8.393-8.393-8.393h-16.787
				c-5.036,0-8.393,3.357-8.393,8.393S136.652,229.82,141.689,229.82z"/>
		</g>
	</g>
</g>
<g>
</g>
<g>
</g>
<g>
</g>
<g>
</g>
<g>
</g>
<g>
</g>
<g>
</g>
<g>
</g>
<g>
</g>
<g>
</g>
<g>
</g>
<g>
</g>
<g>
</g>
<g>
</g>
<g>
</g>
</svg>
