<?xml version="1.0" encoding="iso-8859-1"?>
<!-- Generator: Adobe Illustrator 19.0.0, SVG Export Plug-In . SVG Version: 6.00 Build 0)  -->
<svg version="1.1" id="Layer_1" xmlns="http://www.w3.org/2000/svg" xmlns:xlink="http://www.w3.org/1999/xlink" x="0px" y="0px"
	 viewBox="0 0 512 512" style="enable-background:new 0 0 512 512;" xml:space="preserve">
<g transform="translate(1 1)">
	<g>
		<g>
			<path d="M391.533-1H118.467c-28.16,0-51.2,23.04-51.2,51.2v409.6c0,28.16,23.04,51.2,51.2,51.2h273.067
				c28.16,0,51.2-23.04,51.2-51.2V50.2C442.733,22.04,419.693-1,391.533-1z M425.667,459.8c0,18.773-15.36,34.133-34.133,34.133
				H118.467c-18.773,0-34.133-15.36-34.133-34.133V50.2c0-18.773,15.36-34.133,34.133-34.133h273.067
				c18.773,0,34.133,15.36,34.133,34.133V459.8z"/>
			<path d="M378.733,33.133H131.267C115.053,33.133,101.4,46.787,101.4,63v384c0,16.213,13.653,29.867,29.867,29.867h247.467
				c16.213,0,29.867-13.653,29.867-29.867V63C408.6,46.787,394.947,33.133,378.733,33.133z M391.533,447
				c0,6.827-5.973,12.8-12.8,12.8H131.267c-6.827,0-12.8-5.973-12.8-12.8V63c0-6.827,5.973-12.8,12.8-12.8h247.467
				c6.827,0,12.8,5.973,12.8,12.8V447z"/>
			<path d="M331.8,67.267H178.2c-5.12,0-8.533,3.413-8.533,8.533v153.6c0,5.12,3.413,8.533,8.533,8.533h153.6
				c5.12,0,8.533-3.413,8.533-8.533V75.8C340.333,70.68,336.92,67.267,331.8,67.267z M323.267,220.867H186.733V84.333h136.533
				V220.867z"/>
			<path d="M331.8,272.067H178.2c-5.12,0-8.533,3.413-8.533,8.533v153.6c0,5.12,3.413,8.533,8.533,8.533h153.6
				c5.12,0,8.533-3.413,8.533-8.533V280.6C340.333,275.48,336.92,272.067,331.8,272.067z M323.267,425.667H186.733V289.133h136.533
				V425.667z"/>
			<path d="M220.867,144.067c5.12,0,8.533-3.413,8.533-8.533v-25.6c0-5.12-3.413-8.533-8.533-8.533s-8.533,3.413-8.533,8.533v25.6
				C212.333,140.653,215.747,144.067,220.867,144.067z"/>
			<path d="M289.133,144.067c5.12,0,8.533-3.413,8.533-8.533v-25.6c0-5.12-3.413-8.533-8.533-8.533c-5.12,0-8.533,3.413-8.533,8.533
				v25.6C280.6,140.653,284.013,144.067,289.133,144.067z"/>
			<path d="M255,203.8c5.12,0,8.533-3.413,8.533-8.533V178.2c0-5.12-3.413-8.533-8.533-8.533s-8.533,3.413-8.533,8.533v17.067
				C246.467,200.387,249.88,203.8,255,203.8z"/>
			<path d="M220.867,348.867c5.12,0,8.533-3.413,8.533-8.533v-25.6c0-5.12-3.413-8.533-8.533-8.533s-8.533,3.413-8.533,8.533v25.6
				C212.333,345.453,215.747,348.867,220.867,348.867z"/>
			<path d="M289.133,348.867c5.12,0,8.533-3.413,8.533-8.533v-25.6c0-5.12-3.413-8.533-8.533-8.533c-5.12,0-8.533,3.413-8.533,8.533
				v25.6C280.6,345.453,284.013,348.867,289.133,348.867z"/>
			<path d="M255,408.6c5.12,0,8.533-3.413,8.533-8.533V383c0-5.12-3.413-8.533-8.533-8.533s-8.533,3.413-8.533,8.533v17.067
				C246.467,405.187,249.88,408.6,255,408.6z"/>
		</g>
	</g>
</g>
<g>
</g>
<g>
</g>
<g>
</g>
<g>
</g>
<g>
</g>
<g>
</g>
<g>
</g>
<g>
</g>
<g>
</g>
<g>
</g>
<g>
</g>
<g>
</g>
<g>
</g>
<g>
</g>
<g>
</g>
</svg>
