<?xml version="1.0" encoding="iso-8859-1"?>
<!-- Generator: Adobe Illustrator 19.0.0, SVG Export Plug-In . SVG Version: 6.00 Build 0)  -->
<svg version="1.1" id="Layer_1" xmlns="http://www.w3.org/2000/svg" xmlns:xlink="http://www.w3.org/1999/xlink" x="0px" y="0px"
	 viewBox="0 0 503.607 503.607" style="enable-background:new 0 0 503.607 503.607;" xml:space="preserve">
<g transform="translate(1 1)">
	<g>
		<g>
			<path d="M368.311,221.426c0-5.036-3.357-8.393-8.393-8.393h-16.787c-5.036,0-8.393,3.357-8.393,8.393s3.357,8.393,8.393,8.393
				h16.787C364.954,229.82,368.311,226.462,368.311,221.426z"/>
			<path d="M452.246,36.77H49.361C21.662,36.77-1,59.433-1,87.131v268.59c0,27.698,22.662,50.361,50.361,50.361h293.771
				c0,8.393,1.679,15.948,5.036,22.662c10.072,26.02,41.128,38.61,69.666,27.698c16.787-5.875,42.807-5.036,53.718,5.875
				c1.679,1.679,3.357,2.518,5.875,2.518s4.197-0.839,5.875-2.518c3.357-3.357,3.357-8.393,0-11.751
				c-15.948-15.948-49.521-17.626-71.344-9.233c-20.144,7.554-41.128-0.839-48.682-18.466c-2.518-5.036-3.357-10.911-3.357-16.787
				h92.328c27.698,0,50.361-22.662,50.361-50.361V87.131C502.607,59.433,479.944,36.77,452.246,36.77z M485.82,355.721
				c0,18.466-15.108,33.574-33.574,33.574h-92.328v-16.787h79.738c15.948,0,29.377-13.43,29.377-29.377V99.721
				c0-15.948-13.43-29.377-29.377-29.377H61.951c-15.948,0-29.377,13.43-29.377,29.377v243.41c0,15.948,13.43,29.377,29.377,29.377
				h281.18v16.787H49.361c-18.466,0-33.574-15.108-33.574-33.574V87.131c0-18.466,15.108-33.574,33.574-33.574h402.885
				c18.466,0,33.574,15.108,33.574,33.574V355.721z M351.525,238.213c-5.036,0-8.393,3.357-8.393,8.393v41.967h-41.967
				c-9.233,0-16.787-7.554-16.787-16.787v-66.308c0-9.233,3.357-17.626,10.072-24.341l20.984-20.984
				c4.197-3.357,9.233-5.875,15.108-5.875l45.325,0.839c5.875,0,7.554,1.679,11.751,5.875l20.984,20.984
				c6.715,5.875,10.072,14.269,10.072,23.502v66.308c0,9.233-7.554,16.787-16.787,16.787h-41.967v-41.967
				C359.918,241.57,356.561,238.213,351.525,238.213z M401.885,305.361c18.466,0,33.574-15.108,34.413-33.574v-66.308
				c0-13.43-5.875-26.02-15.108-35.252l-20.984-20.984c-7.554-6.715-16.787-10.911-26.859-10.911h-42.807
				c-10.072,0-19.305,3.357-26.859,10.911l-20.984,20.984c-10.072,9.233-15.108,21.823-15.108,35.252v66.308
				c0,18.466,15.108,33.574,33.574,33.574h41.967v50.361H61.951c-6.715,0-12.59-5.875-12.59-12.59V99.721
				c0-6.715,5.875-12.59,12.59-12.59h377.705c6.715,0,12.59,5.875,12.59,12.59v243.41c0,6.715-5.875,12.59-12.59,12.59h-79.738
				v-50.361H401.885z"/>
			<path d="M225.623,137.492H74.541c-5.036,0-8.393,3.357-8.393,8.393v151.082c0,5.036,3.357,8.393,8.393,8.393h151.082
				c5.036,0,8.393-3.357,8.393-8.393V145.885C234.016,140.849,230.659,137.492,225.623,137.492z M217.229,288.574H82.934V154.279
				h134.295V288.574z"/>
			<path d="M166.869,263.393h16.787c5.036,0,8.393-3.357,8.393-8.393c0-5.036-3.357-8.393-8.393-8.393h-16.787
				c-5.036,0-8.393,3.357-8.393,8.393C158.475,260.036,161.833,263.393,166.869,263.393z"/>
			<path d="M116.508,263.393h16.787c5.036,0,8.393-3.357,8.393-8.393c0-5.036-3.357-8.393-8.393-8.393h-16.787
				c-5.036,0-8.393,3.357-8.393,8.393C108.115,260.036,111.472,263.393,116.508,263.393z"/>
			<path d="M150.082,213.033c5.036,0,8.393-3.357,8.393-8.393v-25.18c0-5.036-3.357-8.393-8.393-8.393s-8.393,3.357-8.393,8.393
				v25.18C141.689,209.675,145.046,213.033,150.082,213.033z"/>
		</g>
	</g>
</g>
<g>
</g>
<g>
</g>
<g>
</g>
<g>
</g>
<g>
</g>
<g>
</g>
<g>
</g>
<g>
</g>
<g>
</g>
<g>
</g>
<g>
</g>
<g>
</g>
<g>
</g>
<g>
</g>
<g>
</g>
</svg>
