<?xml version="1.0" encoding="iso-8859-1"?>
<!-- Generator: Adobe Illustrator 19.0.0, SVG Export Plug-In . SVG Version: 6.00 Build 0)  -->
<svg version="1.1" id="Layer_1" xmlns="http://www.w3.org/2000/svg" xmlns:xlink="http://www.w3.org/1999/xlink" x="0px" y="0px"
	 viewBox="0 0 512 512" style="enable-background:new 0 0 512 512;" xml:space="preserve">
<g transform="translate(1 1)">
	<g>
		<g>
			<path d="M255,75.8c-46.933,0-85.333,38.4-85.333,85.333c0,46.933,38.4,85.333,85.333,85.333s85.333-38.4,85.333-85.333
				C340.333,114.2,301.933,75.8,255,75.8z M263.533,228.844v-7.977c0-5.12-3.413-8.533-8.533-8.533c-5.12,0-8.533,3.413-8.533,8.533
				v7.977c-33.555-4.235-59.733-33.054-59.733-67.71c0-34.656,26.178-63.475,59.733-67.71v7.977c0,5.12,3.413,8.533,8.533,8.533
				c5.12,0,8.533-3.413,8.533-8.533v-7.977c33.555,4.235,59.733,33.054,59.733,67.71
				C323.267,195.789,297.088,224.608,263.533,228.844z"/>
			<path d="M229.4,144.067c-9.387,0-17.067,7.68-17.067,17.067c0,9.387,7.68,17.067,17.067,17.067
				c9.387,0,17.067-7.68,17.067-17.067C246.467,151.747,238.787,144.067,229.4,144.067z"/>
			<path d="M280.6,144.067c-9.387,0-17.067,7.68-17.067,17.067c0,9.387,7.68,17.067,17.067,17.067
				c9.387,0,17.067-7.68,17.067-17.067C297.667,151.747,289.987,144.067,280.6,144.067z"/>
			<path d="M365.933-1H144.067c-28.16,0-51.2,23.04-51.2,51.2v221.867c0,28.16,23.04,51.2,51.2,51.2h51.2v17.067h-8.533
				c-5.12,0-8.533,3.413-8.533,8.533c0,23.893,5.973,46.933,17.92,68.267c11.093,17.92,16.213,39.253,16.213,59.733
				c0,18.773,15.36,34.133,34.133,34.133h17.067c18.773,0,34.133-15.36,34.133-34.133c0-20.48,5.973-40.96,16.213-59.733
				c11.947-21.333,17.92-44.373,17.92-68.267c0-5.12-3.413-8.533-8.533-8.533h-8.533v-17.067h51.2c28.16,0,51.2-23.04,51.2-51.2
				V50.2C417.133,22.04,394.093-1,365.933-1z M313.357,272.067C309.967,261.963,300.624,255,289.133,255
				c-0.176,0-0.35,0.009-0.525,0.013c-0.11-0.001-0.218-0.013-0.328-0.013c-11.093,0-20.48,6.827-23.893,17.067h-19.296
				c-3.176-9.463-11.575-16.164-22.068-16.976c-0.075-0.006-0.149-0.011-0.224-0.016c-0.638-0.044-1.28-0.074-1.932-0.074
				s-1.294,0.03-1.932,0.074c-0.075,0.005-0.15,0.01-0.224,0.016c-10.493,0.812-18.892,7.513-22.068,16.976h-39.776
				c-6.827,0-12.8-5.973-12.8-12.8V63c0-6.827,5.973-12.8,12.8-12.8h196.267c6.827,0,12.8,5.973,12.8,12.8v196.267
				c0,6.827-5.973,12.8-12.8,12.8H313.357z M246.467,340.333v-17.067h17.067v17.067H246.467z M263.533,289.133V306.2h-17.067
				v-17.067H263.533z M212.333,314.733V280.6c0-5.12,3.413-8.533,8.533-8.533s8.533,3.413,8.533,8.533v34.133v25.6h-17.067V314.733z
				 M298.52,408.6c-11.947,21.333-17.92,44.373-17.92,68.267c0,9.387-7.68,17.067-17.067,17.067h-17.067
				c-9.387,0-17.067-7.68-17.067-17.067c0-23.893-5.973-46.933-17.92-68.267c-8.533-16.213-13.653-33.28-15.36-51.2h7.68h34.133
				h34.133H306.2h7.68C313.027,375.32,307.907,392.387,298.52,408.6z M280.6,340.333v-25.6V280.6c0-5.12,3.413-8.533,8.533-8.533
				c5.12,0,8.533,3.413,8.533,8.533v34.133v25.6H280.6z M400.067,272.067c0,18.773-15.36,34.133-34.133,34.133h-51.2v-17.067h38.4
				c16.213,0,29.867-13.653,29.867-29.867V63c0-16.213-13.653-29.867-29.867-29.867H156.867C140.653,33.133,127,46.787,127,63
				v196.267c0,16.213,13.653,29.867,29.867,29.867h38.4V306.2h-51.2c-18.773,0-34.133-15.36-34.133-34.133V50.2
				c0-18.773,15.36-34.133,34.133-34.133h221.867c18.773,0,34.133,15.36,34.133,34.133V272.067z"/>
		</g>
	</g>
</g>
<g>
</g>
<g>
</g>
<g>
</g>
<g>
</g>
<g>
</g>
<g>
</g>
<g>
</g>
<g>
</g>
<g>
</g>
<g>
</g>
<g>
</g>
<g>
</g>
<g>
</g>
<g>
</g>
<g>
</g>
</svg>
