<?xml version="1.0" encoding="iso-8859-1"?>
<!-- Generator: Adobe Illustrator 19.0.0, SVG Export Plug-In . SVG Version: 6.00 Build 0)  -->
<svg version="1.1" id="Layer_1" xmlns="http://www.w3.org/2000/svg" xmlns:xlink="http://www.w3.org/1999/xlink" x="0px" y="0px"
	 viewBox="0 0 503.607 503.607" style="enable-background:new 0 0 503.607 503.607;" xml:space="preserve">
<g transform="translate(1 1)">
	<g>
		<g>
			<path d="M452.246,66.148H49.361C21.662,66.148-1,88.81-1,116.508v268.59c0,27.698,22.662,50.361,50.361,50.361h402.885
				c27.698,0,50.361-22.662,50.361-50.361v-268.59C502.607,88.81,479.944,66.148,452.246,66.148z M485.82,385.098
				c0,18.466-15.108,33.574-33.574,33.574H49.361c-18.466,0-33.574-15.108-33.574-33.574v-268.59
				c0-18.466,15.108-33.574,33.574-33.574h402.885c18.466,0,33.574,15.108,33.574,33.574V385.098z"/>
			<path d="M439.656,99.721H61.951c-15.948,0-29.377,13.43-29.377,29.377v243.41c0,15.948,13.43,29.377,29.377,29.377h377.705
				c15.948,0,29.377-13.43,29.377-29.377v-243.41C469.033,113.151,455.603,99.721,439.656,99.721z M452.246,372.508
				c0,6.715-5.875,12.59-12.59,12.59H61.951c-6.715,0-12.59-5.875-12.59-12.59v-243.41c0-6.715,5.875-12.59,12.59-12.59h377.705
				c6.715,0,12.59,5.875,12.59,12.59V372.508z"/>
			<path d="M326.344,234.016c-9.233,0-16.787,7.554-16.787,16.787c0,9.233,7.554,16.787,16.787,16.787
				c9.233,0,16.787-7.554,16.787-16.787C343.131,241.57,335.577,234.016,326.344,234.016z"/>
			<path d="M376.705,234.016c-9.233,0-16.787,7.554-16.787,16.787c0,9.233,7.554,16.787,16.787,16.787
				c9.233,0,16.787-7.554,16.787-16.787C393.492,241.57,385.938,234.016,376.705,234.016z"/>
			<path d="M369.99,166.869c-1.679-0.839-5.036,0-6.715,1.679c-2.518,1.679-3.357,4.197-3.357,6.715v16.787h-16.787v-16.787
				c0-2.518-1.679-5.036-3.357-6.715s-4.197-2.518-6.715-1.679c-37.771,8.393-65.469,43.646-65.469,83.934
				s27.698,75.541,65.469,83.934c2.518,0,5.036,0,6.715-1.679c2.518-1.679,3.357-4.197,3.357-6.715v-16.787h16.787v16.787
				c0,2.518,1.679,5.036,3.357,6.715c1.679,0.839,3.357,1.679,5.036,1.679c0.839,0,1.679,0,1.679,0
				c37.771-8.393,65.469-43.646,65.469-83.934S407.761,175.262,369.99,166.869z M376.705,314.593v-13.43
				c0-5.036-3.357-8.393-8.393-8.393h-33.574c-4.197,0-8.393,4.197-8.393,8.393v13.43c-24.341-10.072-41.967-36.092-41.967-63.79
				s17.626-53.718,41.967-63.79v13.43c0,5.036,3.357,8.393,8.393,8.393h33.574c5.036,0,8.393-3.357,8.393-8.393v-13.43
				c24.341,10.072,41.967,36.092,41.967,63.79S401.046,304.521,376.705,314.593z"/>
			<path d="M124.902,234.016c-9.233,0-16.787,7.554-16.787,16.787c0,9.233,7.554,16.787,16.787,16.787s16.787-7.554,16.787-16.787
				C141.689,241.57,134.134,234.016,124.902,234.016z"/>
			<path d="M175.262,234.016c-9.233,0-16.787,7.554-16.787,16.787c0,9.233,7.554,16.787,16.787,16.787s16.787-7.554,16.787-16.787
				C192.049,241.57,184.495,234.016,175.262,234.016z"/>
			<path d="M168.548,166.869c-2.518-0.839-5.036,0-6.715,1.679c-2.518,1.679-3.357,4.197-3.357,6.715v16.787h-16.787v-16.787
				c0-2.518-1.679-5.036-3.357-6.715c-1.679-1.679-4.197-2.518-6.715-1.679c-37.771,8.393-65.469,43.646-65.469,83.934
				s27.698,75.541,65.469,83.934c2.518,0,4.197,0,6.715-1.679c2.518-1.679,3.357-4.197,3.357-6.715v-16.787h16.787v16.787
				c0,2.518,1.679,5.036,3.357,6.715c1.679,0.839,3.357,1.679,5.036,1.679c0.839,0,1.679,0,1.679,0
				c37.771-8.393,65.469-43.646,65.469-83.934S206.318,175.262,168.548,166.869z M175.262,314.593v-13.43
				c0-5.036-3.357-8.393-8.393-8.393h-33.574c-5.036,0-8.393,3.357-8.393,8.393v13.43c-24.341-10.072-41.967-36.092-41.967-63.79
				s17.626-53.718,41.967-63.79v13.43c0,5.036,3.357,8.393,8.393,8.393h33.574c5.036,0,8.393-3.357,8.393-8.393v-13.43
				c24.341,10.072,41.967,36.092,41.967,63.79S199.603,304.521,175.262,314.593z"/>
		</g>
	</g>
</g>
<g>
</g>
<g>
</g>
<g>
</g>
<g>
</g>
<g>
</g>
<g>
</g>
<g>
</g>
<g>
</g>
<g>
</g>
<g>
</g>
<g>
</g>
<g>
</g>
<g>
</g>
<g>
</g>
<g>
</g>
</svg>
