<?xml version="1.0" encoding="iso-8859-1"?>
<!-- Generator: Adobe Illustrator 19.0.0, SVG Export Plug-In . SVG Version: 6.00 Build 0)  -->
<svg version="1.1" id="Layer_1" xmlns="http://www.w3.org/2000/svg" xmlns:xlink="http://www.w3.org/1999/xlink" x="0px" y="0px"
	 viewBox="0 0 503.607 503.607" style="enable-background:new 0 0 503.607 503.607;" xml:space="preserve">
<g transform="translate(1 1)">
	<g>
		<g>
			<path d="M158.475,427.066c46.164,0,83.934-37.77,83.934-83.934s-37.771-83.934-83.934-83.934s-83.934,37.771-83.934,83.934
				S112.311,427.066,158.475,427.066z M150.082,276.531v7.846c0,5.036,3.357,8.393,8.393,8.393s8.393-3.357,8.393-8.393v-7.846
				c33.005,4.166,58.754,32.512,58.754,66.6s-25.749,62.434-58.754,66.6v-7.846c0-5.036-3.357-8.393-8.393-8.393
				s-8.393,3.357-8.393,8.393v7.846c-33.005-4.166-58.754-32.512-58.754-66.6S117.077,280.697,150.082,276.531z"/>
			<path d="M133.295,359.918c9.233,0,16.787-7.554,16.787-16.787c0-9.233-7.554-16.787-16.787-16.787s-16.787,7.554-16.787,16.787
				C116.508,352.364,124.062,359.918,133.295,359.918z"/>
			<path d="M183.656,359.918c9.233,0,16.787-7.554,16.787-16.787c0-9.233-7.554-16.787-16.787-16.787s-16.787,7.554-16.787,16.787
				C166.869,352.364,174.423,359.918,183.656,359.918z"/>
			<path d="M418.672,183.656H301.164c-5.036,0-8.393,3.357-8.393,8.393s3.357,8.393,8.393,8.393h117.508
				c5.036,0,8.393-3.357,8.393-8.393S423.708,183.656,418.672,183.656z"/>
			<path d="M418.672,217.229H301.164c-5.036,0-8.393,3.357-8.393,8.393c0,5.036,3.357,8.393,8.393,8.393h117.508
				c5.036,0,8.393-3.357,8.393-8.393C427.066,220.587,423.708,217.229,418.672,217.229z"/>
			<path d="M494.213,108.115h-25.18V24.18c0-14.269-10.911-25.18-25.18-25.18s-25.18,10.911-25.18,25.18v83.934H301.164V24.18
				c0-14.269-10.911-25.18-25.18-25.18s-25.18,10.911-25.18,25.18v83.934h-25.18c-5.036,0-8.393,3.357-8.393,8.393v62.951
				c0,1.4,0.021,2.799,0.056,4.197H49.361C21.662,183.656-1,206.318-1,234.016v218.23c0,27.698,22.662,50.361,50.361,50.361h218.23
				c27.443,0,49.929-22.249,51.158-49.598c6.835,4.815,15.223,7.63,24.383,7.63h8.393v33.574c0,5.036,3.357,8.393,8.393,8.393
				s8.393-3.357,8.393-8.393v-33.574h8.393c23.502,0,41.967-18.466,41.967-41.967v-20.984c0-38.61,13.43-74.702,39.449-103.239
				c28.538-31.056,44.485-72.184,44.485-114.151v-63.79C502.607,111.472,499.249,108.115,494.213,108.115z M435.459,24.18
				c0-5.036,3.357-8.393,8.393-8.393c5.036,0,8.393,3.357,8.393,8.393v83.934h-16.787V24.18z M267.59,24.18
				c0-5.036,3.357-8.393,8.393-8.393c5.036,0,8.393,3.357,8.393,8.393v83.934H267.59V24.18z M230.48,244.834
				c7.47,18.304,17.873,34.847,31.235,49.615c1.679,2.518,4.197,5.036,5.875,7.554v137.652c0,6.715-5.875,12.59-12.59,12.59H61.951
				c-6.715,0-12.59-5.875-12.59-12.59V246.607c0-6.715,5.875-12.59,12.59-12.59v0h164.411
				C227.611,237.667,228.984,241.275,230.48,244.834z M301.164,452.246c0,18.466-15.108,33.574-33.574,33.574H49.361
				c-18.466,0-33.574-15.108-33.574-33.574v-218.23c0-18.466,15.108-33.574,33.574-33.574v-0.839h169.098
				c0.722,5.932,1.762,11.816,3.104,17.626H61.951c-15.948,0-29.377,13.43-29.377,29.377v193.049
				c0,15.948,13.43,29.377,29.377,29.377H255c15.948,0,29.377-13.43,30.216-29.377v-110.89
				c10.357,21.131,15.948,44.442,15.948,68.083v21.823V452.246z M485.82,179.459c0,38.61-13.43,74.702-39.449,103.239
				c-28.538,31.056-44.485,72.184-44.485,114.151v21.823c0,14.269-10.911,25.18-25.18,25.18h-33.574
				c-11.946,0-21.535-7.651-24.341-18.514v-28.489c0-37.146-12.502-73.629-35.162-103.057c-0.03-0.061-0.06-0.121-0.091-0.182
				c-3.357-4.197-5.875-7.554-9.233-10.911c-0.886-0.984-1.758-1.986-2.62-2.998c-0.134-0.157-0.266-0.315-0.399-0.472
				c-10.768-12.749-19.656-27.642-26.004-43.348c-0.194-0.487-0.391-0.973-0.581-1.463c-0.055-0.14-0.107-0.281-0.161-0.421
				c-5.267-13.735-8.588-28.181-9.684-42.787c0-0.95-0.224-1.852-0.605-2.687c-0.15-2.735-0.234-5.477-0.234-8.224v-55.397h25.18
				h33.574h134.295h33.574h25.18V179.459z"/>
		</g>
	</g>
</g>
<g>
</g>
<g>
</g>
<g>
</g>
<g>
</g>
<g>
</g>
<g>
</g>
<g>
</g>
<g>
</g>
<g>
</g>
<g>
</g>
<g>
</g>
<g>
</g>
<g>
</g>
<g>
</g>
<g>
</g>
</svg>
