<?xml version="1.0" encoding="iso-8859-1"?>
<!-- Generator: Adobe Illustrator 19.0.0, SVG Export Plug-In . SVG Version: 6.00 Build 0)  -->
<svg version="1.1" id="Layer_1" xmlns="http://www.w3.org/2000/svg" xmlns:xlink="http://www.w3.org/1999/xlink" x="0px" y="0px"
	 viewBox="0 0 512 512" style="enable-background:new 0 0 512 512;" xml:space="preserve">
<g transform="translate(1 1)">
	<g>
		<g>
			<path d="M391.533-1H118.467c-28.16,0-51.2,23.04-51.2,51.2v409.6c0,28.16,23.04,51.2,51.2,51.2h273.067
				c28.16,0,51.2-23.04,51.2-51.2V50.2C442.733,22.04,419.693-1,391.533-1z M425.667,459.8c0,18.773-15.36,34.133-34.133,34.133
				H118.467c-18.773,0-34.133-15.36-34.133-34.133V50.2c0-18.773,15.36-34.133,34.133-34.133h273.067
				c18.773,0,34.133,15.36,34.133,34.133V459.8z"/>
			<path d="M378.733,33.133H131.267C115.053,33.133,101.4,46.787,101.4,63v384c0,16.213,13.653,29.867,29.867,29.867h247.467
				c16.213,0,29.867-13.653,29.867-29.867V63C408.6,46.787,394.947,33.133,378.733,33.133z M391.533,447
				c0,6.827-5.973,12.8-12.8,12.8H131.267c-6.827,0-12.8-5.973-12.8-12.8V63c0-6.827,5.973-12.8,12.8-12.8h247.467
				c6.827,0,12.8,5.973,12.8,12.8V447z"/>
			<path d="M255,67.267c-46.933,0-85.333,38.4-85.333,85.333c0,46.933,38.4,85.333,85.333,85.333s85.333-38.4,85.333-85.333
				C340.333,105.667,301.933,67.267,255,67.267z M263.533,220.31v-7.977c0-5.12-3.413-8.533-8.533-8.533s-8.533,3.413-8.533,8.533
				v7.977c-33.555-4.235-59.733-33.054-59.733-67.71c0-34.656,26.178-63.475,59.733-67.71v7.977c0,5.12,3.413,8.533,8.533,8.533
				s8.533-3.413,8.533-8.533V84.89c33.555,4.235,59.733,33.054,59.733,67.71C323.267,187.256,297.088,216.075,263.533,220.31z"/>
			<path d="M255,272.067c-46.933,0-85.333,38.4-85.333,85.333s38.4,85.333,85.333,85.333s85.333-38.4,85.333-85.333
				S301.933,272.067,255,272.067z M263.533,425.11v-7.977c0-5.12-3.413-8.533-8.533-8.533s-8.533,3.413-8.533,8.533v7.977
				c-33.555-4.235-59.733-33.054-59.733-67.71s26.178-63.475,59.733-67.71v7.977c0,5.12,3.413,8.533,8.533,8.533
				s8.533-3.413,8.533-8.533v-7.977c33.555,4.235,59.733,33.054,59.733,67.71S297.088,420.875,263.533,425.11z"/>
			<path d="M229.4,135.533c-9.387,0-17.067,7.68-17.067,17.067c0,9.387,7.68,17.067,17.067,17.067
				c9.387,0,17.067-7.68,17.067-17.067C246.467,143.213,238.787,135.533,229.4,135.533z"/>
			<path d="M280.6,135.533c-9.387,0-17.067,7.68-17.067,17.067c0,9.387,7.68,17.067,17.067,17.067s17.067-7.68,17.067-17.067
				C297.667,143.213,289.987,135.533,280.6,135.533z"/>
			<path d="M229.4,340.333c-9.387,0-17.067,7.68-17.067,17.067s7.68,17.067,17.067,17.067c9.387,0,17.067-7.68,17.067-17.067
				S238.787,340.333,229.4,340.333z"/>
			<path d="M280.6,340.333c-9.387,0-17.067,7.68-17.067,17.067s7.68,17.067,17.067,17.067s17.067-7.68,17.067-17.067
				S289.987,340.333,280.6,340.333z"/>
		</g>
	</g>
</g>
<g>
</g>
<g>
</g>
<g>
</g>
<g>
</g>
<g>
</g>
<g>
</g>
<g>
</g>
<g>
</g>
<g>
</g>
<g>
</g>
<g>
</g>
<g>
</g>
<g>
</g>
<g>
</g>
<g>
</g>
</svg>
