<?xml version="1.0" encoding="iso-8859-1"?>
<!-- Generator: Adobe Illustrator 19.0.0, SVG Export Plug-In . SVG Version: 6.00 Build 0)  -->
<svg version="1.1" id="Layer_1" xmlns="http://www.w3.org/2000/svg" xmlns:xlink="http://www.w3.org/1999/xlink" x="0px" y="0px"
	 viewBox="0 0 503.607 503.607" style="enable-background:new 0 0 503.607 503.607;" xml:space="preserve">
<g transform="translate(1 1)">
	<g>
		<g>
			<path d="M452.246-1H49.361C21.662-1-1,21.662-1,49.361v402.885c0,27.698,22.662,50.361,50.361,50.361h402.885
				c27.698,0,50.361-22.662,50.361-50.361V49.361C502.607,21.662,479.944-1,452.246-1z M485.82,452.246
				c0,18.466-15.108,33.574-33.574,33.574H49.361c-18.466,0-33.574-15.108-33.574-33.574V49.361
				c0-18.466,15.108-33.574,33.574-33.574h402.885c18.466,0,33.574,15.108,33.574,33.574V452.246z"/>
			<path d="M439.656,32.574H61.951c-15.948,0-29.377,13.43-29.377,29.377v377.705c0,15.948,13.43,29.377,29.377,29.377h377.705
				c15.948,0,29.377-13.43,29.377-29.377V61.951C469.033,46.003,455.603,32.574,439.656,32.574z M452.246,439.656
				c0,6.715-5.875,12.59-12.59,12.59H61.951c-6.715,0-12.59-5.875-12.59-12.59V61.951c0-6.715,5.875-12.59,12.59-12.59h377.705
				c6.715,0,12.59,5.875,12.59,12.59V439.656z"/>
			<path d="M368.311,124.902H133.295c-5.036,0-8.393,3.357-8.393,8.393v235.016c0,5.036,3.357,8.393,8.393,8.393h235.016
				c5.036,0,8.393-3.357,8.393-8.393V133.295C376.705,128.259,373.348,124.902,368.311,124.902z M359.918,359.918h-218.23v-218.23
				h218.23V359.918z"/>
			<path d="M192.049,234.016h33.574c5.036,0,8.393-3.357,8.393-8.393v-50.361c0-5.036-3.357-8.393-8.393-8.393h-33.574
				c-5.036,0-8.393,3.357-8.393,8.393v50.361C183.656,230.659,187.013,234.016,192.049,234.016z M200.443,183.656h16.787v33.574
				h-16.787V183.656z"/>
			<path d="M275.984,234.016h33.574c5.036,0,8.393-3.357,8.393-8.393v-50.361c0-5.036-3.357-8.393-8.393-8.393h-33.574
				c-5.036,0-8.393,3.357-8.393,8.393v50.361C267.59,230.659,270.948,234.016,275.984,234.016z M284.377,183.656h16.787v33.574
				h-16.787V183.656z"/>
			<path d="M225.623,292.771v33.574c0,5.036,3.357,8.393,8.393,8.393h33.574c5.036,0,8.393-3.357,8.393-8.393v-33.574
				c0-14.269-10.911-25.18-25.18-25.18C236.534,267.59,225.623,278.502,225.623,292.771z M242.41,292.771
				c0-5.036,3.357-8.393,8.393-8.393s8.393,3.357,8.393,8.393v25.18H242.41V292.771z"/>
		</g>
	</g>
</g>
<g>
</g>
<g>
</g>
<g>
</g>
<g>
</g>
<g>
</g>
<g>
</g>
<g>
</g>
<g>
</g>
<g>
</g>
<g>
</g>
<g>
</g>
<g>
</g>
<g>
</g>
<g>
</g>
<g>
</g>
</svg>
