<?xml version="1.0" encoding="iso-8859-1"?>
<!-- Generator: Adobe Illustrator 19.0.0, SVG Export Plug-In . SVG Version: 6.00 Build 0)  -->
<svg version="1.1" id="Layer_1" xmlns="http://www.w3.org/2000/svg" xmlns:xlink="http://www.w3.org/1999/xlink" x="0px" y="0px"
	 viewBox="0 0 512.202 512.202" style="enable-background:new 0 0 512.202 512.202;" xml:space="preserve">
<g transform="translate(1 1)">
	<g>
		<path d="M408.701,349.068H296.428c-2.328-8.773-7.669-16.608-15.727-22.187c-10.061-6.708-24.236-8.458-36.06-4.471
			l-12.664-39.801l16.297-4.368c1.707-0.853,4.267-2.56,5.12-4.267c0.853-2.56,1.707-4.267,0.853-6.827l-61.44-230.4
			c-6.827-27.307-34.987-43.52-62.293-35.84c-12.8,3.413-23.893,11.947-30.72,23.893c-6.827,11.947-8.533,25.6-5.12,39.253
			l61.44,230.4c1.707,3.413,5.12,5.973,8.533,5.973c0.313,0,0.625,0,0.853,0l16.972-4.549l12.037,36.112
			c-0.283,0.002-0.567,0.011-0.85,0.011h-23.893c-5.12,0-8.533,3.413-8.533,8.533v51.2v93.013c0,15.36,11.093,26.453,25.6,26.453
			c13.653,0,25.6-11.093,26.453-23.893l7.057-87.04h17.689v42.667c0,5.12,3.413,8.533,8.533,8.533s8.533-3.413,8.533-8.533v-42.667
			h2.56c19.939,0,36.424-14.477,39.56-34.133h111.479c5.12,0,8.533-3.413,8.533-8.533S413.821,349.068,408.701,349.068z
			 M167.17,265.605l23.931-6.136c4.267-0.853,6.827-5.973,5.973-10.24s-5.973-6.827-10.24-5.973l-24.008,6.156l-4.601-17.155
			l15.809-4.361c4.267-0.853,6.827-5.973,5.973-10.24s-5.973-6.827-10.24-5.973l-15.885,4.382L111.741,58.935
			c-2.56-8.533-1.707-17.92,3.413-25.6c4.267-7.68,11.947-13.653,20.48-16.213c2.56-0.853,5.973-0.853,8.533-0.853
			c15.36,0,29.013,10.24,33.28,25.6l59.733,221.867l-32.186,8.778l-19.014,4.875c-0.417,0.209-0.835,0.418-1.252,0.652
			l-13.255,3.615L167.17,265.605z M200.488,291.895l17.067-4.267l12.573,39.396c-5.618,1.509-11.305,2.703-17.031,3.539
			L200.488,291.895z M196.221,485.602c-0.853,5.12-4.267,8.533-9.387,8.533s-8.533-4.267-8.533-9.387v-84.48h24.747L196.221,485.602
			z M257.661,383.202h-45.227h-34.133v-34.133h15.36c11.643,0,23.614-1.316,35.099-3.942c4.452-0.896,8.702-1.889,12.688-2.885
			c1.401-0.467,2.288-0.945,3.086-1.691c1.548-0.551,3.084-1.118,4.594-1.722c7.68-2.56,15.36-1.707,21.333,2.56
			c6.827,4.267,10.24,11.093,10.24,18.773C280.701,372.962,270.461,383.202,257.661,383.202z"/>
	</g>
</g>
<g>
</g>
<g>
</g>
<g>
</g>
<g>
</g>
<g>
</g>
<g>
</g>
<g>
</g>
<g>
</g>
<g>
</g>
<g>
</g>
<g>
</g>
<g>
</g>
<g>
</g>
<g>
</g>
<g>
</g>
</svg>
