<?xml version="1.0" encoding="iso-8859-1"?>
<!-- Generator: Adobe Illustrator 19.0.0, SVG Export Plug-In . SVG Version: 6.00 Build 0)  -->
<svg version="1.1" id="Layer_1" xmlns="http://www.w3.org/2000/svg" xmlns:xlink="http://www.w3.org/1999/xlink" x="0px" y="0px"
	 viewBox="0 0 512 512" style="enable-background:new 0 0 512 512;" xml:space="preserve">
<g transform="translate(1 1)">
	<g>
		<path d="M281.947,88.825h-17.965v-8.982h17.965c5.39,0,8.982-3.593,8.982-8.982V7.982c0-5.39-3.593-8.982-8.982-8.982h-53.895
			c-5.389,0-8.982,3.593-8.982,8.982V70.86c0,5.39,4.491,8.982,8.982,8.982h17.965v8.982h-17.965
			c-53.895,0-98.807,44.014-98.807,98.807V475.07c0,19.761,16.168,35.93,35.93,35.93h179.649c19.761,0,35.93-16.168,35.93-35.93
			v-89.825V241.526v-53.895C380.754,132.839,336.74,88.825,281.947,88.825z M237.035,16.965h35.93v44.912h-35.93V16.965z
			 M228.951,106.789h53.895c41.319,0,75.453,31.439,79.944,71.86H148.109C152.6,138.228,186.733,106.789,228.951,106.789z
			 M344.825,493.035H165.175c-9.881,0-17.965-8.084-17.965-17.965h44.912c5.389,0,8.982-3.593,8.982-8.982s-3.593-8.982-8.982-8.982
			h-44.912V439.14h26.947c5.389,0,8.982-3.593,8.982-8.982s-3.593-8.982-8.982-8.982h-26.947V196.614h215.579v35.93H228.053
			c-5.389,0-8.982,3.593-8.982,8.982v143.719c0,5.389,3.593,8.982,8.982,8.982h134.737v80.842
			C362.789,484.951,354.705,493.035,344.825,493.035z M362.789,376.263H237.035V250.509h125.754V376.263z"/>
	</g>
</g>
<g>
</g>
<g>
</g>
<g>
</g>
<g>
</g>
<g>
</g>
<g>
</g>
<g>
</g>
<g>
</g>
<g>
</g>
<g>
</g>
<g>
</g>
<g>
</g>
<g>
</g>
<g>
</g>
<g>
</g>
</svg>
