<?xml version="1.0" encoding="iso-8859-1"?>
<!-- Generator: Adobe Illustrator 19.0.0, SVG Export Plug-In . SVG Version: 6.00 Build 0)  -->
<svg version="1.1" id="Layer_1" xmlns="http://www.w3.org/2000/svg" xmlns:xlink="http://www.w3.org/1999/xlink" x="0px" y="0px"
	 viewBox="0 0 512 512" style="enable-background:new 0 0 512 512;" xml:space="preserve">
<g transform="translate(1 1)">
	<g>
		<g>
			<path d="M190.787,374.467c-28.16,0-51.2,23.04-51.2,51.2s23.04,51.2,51.2,51.2c28.16,0,51.2-23.04,51.2-51.2
				S218.947,374.467,190.787,374.467z M190.787,459.8c-18.773,0-34.133-15.36-34.133-34.133s15.36-34.133,34.133-34.133
				s34.133,15.36,34.133,34.133S209.56,459.8,190.787,459.8z"/>
			<path d="M190.787,135.533c28.16,0,51.2-23.04,51.2-51.2c0-28.16-23.04-51.2-51.2-51.2c-28.16,0-51.2,23.04-51.2,51.2
				C139.587,112.493,162.627,135.533,190.787,135.533z M190.787,50.2c18.773,0,34.133,15.36,34.133,34.133
				c0,18.773-15.36,34.133-34.133,34.133s-34.133-15.36-34.133-34.133C156.653,65.56,172.013,50.2,190.787,50.2z"/>
			<path d="M420.333,344.6L293.187,105.564V101.4c0-56.32-46.08-102.4-102.4-102.4s-102.4,46.08-102.4,102.4v307.2
				c0,56.32,46.08,102.4,102.4,102.4s102.4-46.08,102.4-102.4V307.101c31.32,29.048,74.463,47.395,119.467,50.299
				c3.413,0,5.973-1.707,7.68-4.267S422.04,347.16,420.333,344.6z M276.12,408.6c0,46.933-38.4,85.333-85.333,85.333
				s-85.333-38.4-85.333-85.333V101.4c0-46.933,38.4-85.333,85.333-85.333s85.333,38.4,85.333,85.333v6.827v64.32
				c-0.45,1.424-0.467,3.006,0,4.561V285.72V408.6z M293.187,282.307v-71.617l18.773,36.631c1.707,2.56,4.267,4.267,7.68,4.267
				c1.707,0,2.56,0,3.413-0.853c4.267-1.707,5.973-6.827,3.413-11.093l-33.28-64.936V142.36l104.107,196.267
				C356.333,332.653,318.787,312.173,293.187,282.307z"/>
			<path d="M250.52,220.867h-25.6v-25.6c0-5.12-3.413-8.533-8.533-8.533h-51.2c-5.12,0-8.533,3.413-8.533,8.533v25.6h-25.6
				c-5.12,0-8.533,3.413-8.533,8.533v51.2c0,5.12,3.413,8.533,8.533,8.533h25.6v25.6c0,5.12,3.413,8.533,8.533,8.533h51.2
				c5.12,0,8.533-3.413,8.533-8.533v-25.6h25.6c5.12,0,8.533-3.413,8.533-8.533v-51.2C259.053,224.28,255.64,220.867,250.52,220.867
				z M241.987,272.067h-25.6c-5.12,0-8.533,3.413-8.533,8.533v25.6H173.72v-25.6c0-5.12-3.413-8.533-8.533-8.533h-25.6v-34.133h25.6
				c5.12,0,8.533-3.413,8.533-8.533v-25.6h34.133v25.6c0,5.12,3.413,8.533,8.533,8.533h25.6V272.067z"/>
		</g>
	</g>
</g>
<g>
</g>
<g>
</g>
<g>
</g>
<g>
</g>
<g>
</g>
<g>
</g>
<g>
</g>
<g>
</g>
<g>
</g>
<g>
</g>
<g>
</g>
<g>
</g>
<g>
</g>
<g>
</g>
<g>
</g>
</svg>
