<?xml version="1.0" encoding="iso-8859-1"?>
<!-- Generator: Adobe Illustrator 19.0.0, SVG Export Plug-In . SVG Version: 6.00 Build 0)  -->
<svg version="1.1" id="Layer_1" xmlns="http://www.w3.org/2000/svg" xmlns:xlink="http://www.w3.org/1999/xlink" x="0px" y="0px"
	 viewBox="0 0 512 512" style="enable-background:new 0 0 512 512;" xml:space="preserve">
<g transform="translate(1 1)">
	<g>
		<g>
			<path d="M255.102,374.467c-28.16,0-51.2,23.04-51.2,51.2s23.04,51.2,51.2,51.2s51.2-23.04,51.2-51.2
				S283.262,374.467,255.102,374.467z M255.102,459.8c-18.773,0-34.133-15.36-34.133-34.133s15.36-34.133,34.133-34.133
				s34.133,15.36,34.133,34.133S273.875,459.8,255.102,459.8z"/>
			<path d="M255.102,135.533c28.16,0,51.2-23.04,51.2-51.2c0-28.16-23.04-51.2-51.2-51.2s-51.2,23.04-51.2,51.2
				C203.902,112.493,226.942,135.533,255.102,135.533z M255.102,50.2c18.773,0,34.133,15.36,34.133,34.133
				c0,18.773-15.36,34.133-34.133,34.133s-34.133-15.36-34.133-34.133C220.969,65.56,236.329,50.2,255.102,50.2z"/>
			<path d="M484.649,353.133L357.502,107.317V101.4c0-56.32-46.08-102.4-102.4-102.4C199.345-1,153.631,44.166,152.724,99.717
				L54,251.093c-0.433,0.411-0.816,0.864-1.138,1.347L26.409,293.4c-0.853,0.853-1.707,2.56-1.707,4.267v56.921
				c-0.728,2.871-0.3,5.925,1.707,7.932c0.744,1.116,1.656,1.892,2.653,2.43c0.51,0.368,1.049,0.701,1.613,0.983
				c0.853,0,1.707,0,2.56,0s2.56,0,3.413,0l56.32-24.747c1.707-0.853,2.56-1.707,4.267-3.413l55.467-80.193V408.6
				c0,56.32,46.08,102.4,102.4,102.4s102.4-46.08,102.4-102.4v-99.271c27.706,27.821,67.683,55.186,119.467,56.605
				c3.413,0,5.973-1.707,7.68-4.267C485.502,359.107,486.355,355.693,484.649,353.133z M100.649,301.933l-16.213,23.893
				l-24.703,11.229l-3.352,1.408l5.5-8.608l14.098-21.967L100.649,301.933z M56.275,278.04l4.745,18.98l-19.252,29.997v-26.791
				L56.275,278.04z M115.112,281.815l-38.697,8.006l-7.375-31.342l83.661-128.066v96.427L115.112,281.815z M340.435,408.6
				c0,46.933-38.4,85.333-85.333,85.333s-85.333-38.4-85.333-85.333V230.253v-128V101.4c0-46.933,38.4-85.333,85.333-85.333
				s85.333,38.4,85.333,85.333v8.533v177.493V408.6z M357.502,284.013v-69.163l17.92,36.736c1.707,3.413,4.267,5.12,7.68,5.12
				c1.707,0,2.56-0.853,3.413-0.853c4.267-1.707,5.973-6.827,4.267-11.093l-33.28-68.224V144.92l104.96,202.24
				C415.529,341.187,379.689,310.467,357.502,284.013z"/>
			<path d="M314.835,220.867h-25.6v-25.6c0-5.12-3.413-8.533-8.533-8.533h-51.2c-5.12,0-8.533,3.413-8.533,8.533v25.6h-25.6
				c-5.12,0-8.533,3.413-8.533,8.533v51.2c0,5.12,3.413,8.533,8.533,8.533h25.6v25.6c0,5.12,3.413,8.533,8.533,8.533h51.2
				c5.12,0,8.533-3.413,8.533-8.533v-25.6h25.6c5.12,0,8.533-3.413,8.533-8.533v-51.2
				C323.369,224.28,319.955,220.867,314.835,220.867z M306.302,272.067h-25.6c-5.12,0-8.533,3.413-8.533,8.533v25.6h-34.133v-25.6
				c0-5.12-3.413-8.533-8.533-8.533h-25.6v-34.133h25.6c5.12,0,8.533-3.413,8.533-8.533v-25.6h34.133v25.6
				c0,5.12,3.413,8.533,8.533,8.533h25.6V272.067z"/>
		</g>
	</g>
</g>
<g>
</g>
<g>
</g>
<g>
</g>
<g>
</g>
<g>
</g>
<g>
</g>
<g>
</g>
<g>
</g>
<g>
</g>
<g>
</g>
<g>
</g>
<g>
</g>
<g>
</g>
<g>
</g>
<g>
</g>
</svg>
