<?xml version="1.0" encoding="iso-8859-1"?>
<!-- Generator: Adobe Illustrator 19.0.0, SVG Export Plug-In . SVG Version: 6.00 Build 0)  -->
<svg version="1.1" id="Layer_1" xmlns="http://www.w3.org/2000/svg" xmlns:xlink="http://www.w3.org/1999/xlink" x="0px" y="0px"
	 viewBox="0 0 512 512" style="enable-background:new 0 0 512 512;" xml:space="preserve">
<g transform="translate(1 1)">
	<g>
		<g>
			<path d="M262.827,374.467c-28.16,0-51.2,23.04-51.2,51.2s23.04,51.2,51.2,51.2s51.2-23.04,51.2-51.2
				S290.987,374.467,262.827,374.467z M262.827,459.8c-18.773,0-34.133-15.36-34.133-34.133s15.36-34.133,34.133-34.133
				s34.133,15.36,34.133,34.133S281.601,459.8,262.827,459.8z"/>
			<path d="M262.827,135.533c28.16,0,51.2-23.04,51.2-51.2c0-28.16-23.04-51.2-51.2-51.2s-51.2,23.04-51.2,51.2
				C211.627,112.493,234.667,135.533,262.827,135.533z M262.827,50.2c18.773,0,34.133,15.36,34.133,34.133
				c0,18.773-15.36,34.133-34.133,34.133s-34.133-15.36-34.133-34.133C228.694,65.56,244.054,50.2,262.827,50.2z"/>
			<path d="M492.374,353.133L365.227,107.317V101.4c0-56.32-46.08-102.4-102.4-102.4s-102.4,46.08-102.4,102.4v161.333l-18.773-1.76
				l5.973-23.893c1.707-4.267-1.707-9.387-5.973-10.24l-25.6-5.973l6.827-26.453c0.853-3.413-0.853-7.68-4.267-9.387
				c-27.307-15.36-58.027-23.893-88.747-23.893h-4.267c-3.413,0-5.973,1.707-7.68,4.267s-1.707,5.973,0,8.533l142.551,237.585
				C162.031,466.503,207.484,511,262.827,511c56.32,0,102.4-46.08,102.4-102.4v-99.271c27.706,27.821,67.683,55.186,119.467,56.605
				c3.413,0,5.973-1.707,7.68-4.267C493.227,359.107,494.081,355.693,492.374,353.133z M104.107,196.12l-6.827,29.013
				c-0.853,2.56,0,4.267,0.853,6.827s2.56,3.413,5.12,4.267l25.6,5.973l-5.973,24.747c0,2.56,0,5.12,1.707,6.827
				s3.413,3.413,5.973,3.413l29.867,2.56v98.133L40.961,178.2C63.147,179.907,84.481,185.88,104.107,196.12z M348.161,408.6
				c0,46.933-38.4,85.333-85.333,85.333s-85.333-38.4-85.333-85.333V101.4c0-46.933,38.4-85.333,85.333-85.333
				s85.333,38.4,85.333,85.333v8.533v177.493V408.6z M365.227,284.013v-69.163l17.92,36.736c1.707,3.413,4.267,5.12,7.68,5.12
				c1.707,0,2.56-0.853,3.413-0.853c4.267-1.707,5.973-6.827,4.267-11.093l-33.28-68.224V144.92l104.96,202.24
				C423.254,341.187,387.414,310.467,365.227,284.013z"/>
			<path d="M322.561,220.867h-25.6v-25.6c0-5.12-3.413-8.533-8.533-8.533h-51.2c-5.12,0-8.533,3.413-8.533,8.533v25.6h-25.6
				c-5.12,0-8.533,3.413-8.533,8.533v51.2c0,5.12,3.413,8.533,8.533,8.533h25.6v25.6c0,5.12,3.413,8.533,8.533,8.533h51.2
				c5.12,0,8.533-3.413,8.533-8.533v-25.6h25.6c5.12,0,8.533-3.413,8.533-8.533v-51.2
				C331.094,224.28,327.681,220.867,322.561,220.867z M314.027,272.067h-25.6c-5.12,0-8.533,3.413-8.533,8.533v25.6h-34.133v-25.6
				c0-5.12-3.413-8.533-8.533-8.533h-25.6v-34.133h25.6c5.12,0,8.533-3.413,8.533-8.533v-25.6h34.133v25.6
				c0,5.12,3.413,8.533,8.533,8.533h25.6V272.067z"/>
		</g>
	</g>
</g>
<g>
</g>
<g>
</g>
<g>
</g>
<g>
</g>
<g>
</g>
<g>
</g>
<g>
</g>
<g>
</g>
<g>
</g>
<g>
</g>
<g>
</g>
<g>
</g>
<g>
</g>
<g>
</g>
<g>
</g>
</svg>
