<?xml version="1.0" encoding="iso-8859-1"?>
<!-- Generator: Adobe Illustrator 19.0.0, SVG Export Plug-In . SVG Version: 6.00 Build 0)  -->
<svg version="1.1" id="Layer_1" xmlns="http://www.w3.org/2000/svg" xmlns:xlink="http://www.w3.org/1999/xlink" x="0px" y="0px"
	 viewBox="0 0 512 512" style="enable-background:new 0 0 512 512;" xml:space="preserve">
<g transform="translate(1 1)">
	<g>
		<g>
			<path d="M255.147,374.467c-28.16,0-51.2,23.04-51.2,51.2s23.04,51.2,51.2,51.2s51.2-23.04,51.2-51.2
				S283.307,374.467,255.147,374.467z M255.147,459.8c-18.773,0-34.133-15.36-34.133-34.133s15.36-34.133,34.133-34.133
				s34.133,15.36,34.133,34.133S273.921,459.8,255.147,459.8z"/>
			<path d="M255.147,135.533c28.16,0,51.2-23.04,51.2-51.2c0-28.16-23.04-51.2-51.2-51.2s-51.2,23.04-51.2,51.2
				C203.947,112.493,226.987,135.533,255.147,135.533z M255.147,50.2c18.773,0,34.133,15.36,34.133,34.133
				c0,18.773-15.36,34.133-34.133,34.133s-34.133-15.36-34.133-34.133C221.014,65.56,236.374,50.2,255.147,50.2z"/>
			<path d="M484.694,353.133L357.547,107.317V101.4c0-56.32-46.08-102.4-102.4-102.4c-55.442,0-100.96,44.654-102.366,99.773
				l-127.18,254.36c-1.707,2.56-1.707,5.973,0,8.533s5.12,4.267,7.68,4.267h8.533c44.373,0,81.067-23.04,100.693-64
				c0.853-2.56,0.853-5.12,0-7.68l-11.947-24.747l22.187-5.255V408.6c0,56.32,46.08,102.4,102.4,102.4s102.4-46.08,102.4-102.4
				v-99.271c27.706,27.821,67.683,55.186,119.467,56.605c3.413,0,5.973-1.707,7.68-4.267
				C485.547,359.107,486.401,355.693,484.694,353.133z M116.054,255c-2.56,0.853-5.12,2.56-5.973,5.12s-0.853,5.12,0,7.68
				l15.36,29.867c-16.213,30.72-45.227,49.493-78.507,51.2l104.96-209.92v107.52L116.054,255z M340.481,408.6
				c0,46.933-38.4,85.333-85.333,85.333s-85.333-38.4-85.333-85.333V253.293V101.4c0-46.933,38.4-85.333,85.333-85.333
				s85.333,38.4,85.333,85.333v8.533v55.787c-0.45,1.424-0.467,3.006,0,4.561v117.146V408.6z M357.547,284.013v-80.151
				l18.773,36.631c1.707,2.56,4.267,4.267,7.68,4.267c1.707,0,2.56,0,3.413-0.853c4.267-1.707,5.973-6.827,3.413-11.093
				l-33.28-64.937V144.92l104.96,202.24C415.574,341.187,379.734,310.467,357.547,284.013z"/>
			<path d="M314.881,220.867h-25.6v-25.6c0-5.12-3.413-8.533-8.533-8.533h-51.2c-5.12,0-8.533,3.413-8.533,8.533v25.6h-25.6
				c-5.12,0-8.533,3.413-8.533,8.533v51.2c0,5.12,3.413,8.533,8.533,8.533h25.6v25.6c0,5.12,3.413,8.533,8.533,8.533h51.2
				c5.12,0,8.533-3.413,8.533-8.533v-25.6h25.6c5.12,0,8.533-3.413,8.533-8.533v-51.2
				C323.414,224.28,320.001,220.867,314.881,220.867z M306.347,272.067h-25.6c-5.12,0-8.533,3.413-8.533,8.533v25.6h-34.133v-25.6
				c0-5.12-3.413-8.533-8.533-8.533h-25.6v-34.133h25.6c5.12,0,8.533-3.413,8.533-8.533v-25.6h34.133v25.6
				c0,5.12,3.413,8.533,8.533,8.533h25.6V272.067z"/>
		</g>
	</g>
</g>
<g>
</g>
<g>
</g>
<g>
</g>
<g>
</g>
<g>
</g>
<g>
</g>
<g>
</g>
<g>
</g>
<g>
</g>
<g>
</g>
<g>
</g>
<g>
</g>
<g>
</g>
<g>
</g>
<g>
</g>
</svg>
