<?xml version="1.0" encoding="iso-8859-1"?>
<!-- Generator: Adobe Illustrator 19.0.0, SVG Export Plug-In . SVG Version: 6.00 Build 0)  -->
<svg version="1.1" id="Layer_1" xmlns="http://www.w3.org/2000/svg" xmlns:xlink="http://www.w3.org/1999/xlink" x="0px" y="0px"
	 viewBox="0 0 512 512" style="enable-background:new 0 0 512 512;" xml:space="preserve">
<g transform="translate(1 1)">
	<g>
		<g>
			<path d="M484.547,353.133L357.4,107.317V101.4C357.4,45.08,311.32-1,255-1S152.6,45.08,152.6,101.4v144.999l-21.333-5.053
				l11.947-24.747c0.853-2.56,0.853-5.12,0-7.68c-20.48-40.96-57.173-64.853-101.547-64.853h-8.533c-2.56,0-5.973,1.707-7.68,3.413
				c-0.853,2.56-1.707,5.973,0,8.533l127.169,254.338C153.567,465.871,199.266,511,255,511c56.32,0,102.4-46.08,102.4-102.4v-99.271
				c27.706,27.821,67.683,55.186,119.467,56.605c3.413,0,5.973-1.707,7.68-4.267C485.4,359.107,486.253,355.693,484.547,353.133z
				 M126.147,212.333l-15.36,29.867c-0.853,2.56-0.853,5.12,0,7.68c1.707,2.56,3.413,4.267,5.973,5.12l35.84,8.533V372.76
				L46.787,161.133C80.92,162.84,109.08,181.613,126.147,212.333z M340.333,408.6c0,46.933-38.4,85.333-85.333,85.333
				c-45.67,0-83.247-36.364-85.237-81.566c0.494-1.133,0.757-2.406,0.757-3.768V257.56c0-1.297-0.319-2.513-0.853-3.604V101.4
				c0-46.933,38.4-85.333,85.333-85.333s85.333,38.4,85.333,85.333v8.533v177.493V408.6z M357.4,284.013V214.04l17.92,35.84
				c1.707,3.413,4.267,5.12,7.68,5.12c1.707,0,2.56,0,3.413-1.707c3.413-1.707,5.12-6.827,3.413-11.093L357.4,177.347V144.92
				l104.96,202.24C415.427,341.187,379.587,310.467,357.4,284.013z"/>
			<path d="M255,374.467c-28.16,0-51.2,23.04-51.2,51.2s23.04,51.2,51.2,51.2s51.2-23.04,51.2-51.2S283.16,374.467,255,374.467z
				 M255,459.8c-18.773,0-34.133-15.36-34.133-34.133s15.36-34.133,34.133-34.133s34.133,15.36,34.133,34.133
				S273.773,459.8,255,459.8z"/>
			<path d="M255,135.533c28.16,0,51.2-23.04,51.2-51.2c0-28.16-23.04-51.2-51.2-51.2s-51.2,23.04-51.2,51.2
				C203.8,112.493,226.84,135.533,255,135.533z M255,50.2c18.773,0,34.133,15.36,34.133,34.133c0,18.773-15.36,34.133-34.133,34.133
				s-34.133-15.36-34.133-34.133C220.867,65.56,236.227,50.2,255,50.2z"/>
			<path d="M314.733,220.867h-25.6v-25.6c0-5.12-3.413-8.533-8.533-8.533h-51.2c-5.12,0-8.533,3.413-8.533,8.533v25.6h-25.6
				c-5.12,0-8.533,3.413-8.533,8.533v51.2c0,5.12,3.413,8.533,8.533,8.533h25.6v25.6c0,5.12,3.413,8.533,8.533,8.533h51.2
				c5.12,0,8.533-3.413,8.533-8.533v-25.6h25.6c5.12,0,8.533-3.413,8.533-8.533v-51.2
				C323.267,224.28,319.853,220.867,314.733,220.867z M306.2,272.067h-25.6c-5.12,0-8.533,3.413-8.533,8.533v25.6h-34.133v-25.6
				c0-5.12-3.413-8.533-8.533-8.533h-25.6v-34.133h25.6c5.12,0,8.533-3.413,8.533-8.533v-25.6h34.133v25.6
				c0,5.12,3.413,8.533,8.533,8.533h25.6V272.067z"/>
		</g>
	</g>
</g>
<g>
</g>
<g>
</g>
<g>
</g>
<g>
</g>
<g>
</g>
<g>
</g>
<g>
</g>
<g>
</g>
<g>
</g>
<g>
</g>
<g>
</g>
<g>
</g>
<g>
</g>
<g>
</g>
<g>
</g>
</svg>
