<?xml version="1.0" encoding="iso-8859-1"?>
<!-- Generator: Adobe Illustrator 19.0.0, SVG Export Plug-In . SVG Version: 6.00 Build 0)  -->
<svg version="1.1" id="Layer_1" xmlns="http://www.w3.org/2000/svg" xmlns:xlink="http://www.w3.org/1999/xlink" x="0px" y="0px"
	 viewBox="0 0 512 512" style="enable-background:new 0 0 512 512;" xml:space="preserve">
<g transform="translate(1 1)">
	<g>
		<g>
			<path d="M484.075,147.48c-0.853-2.56-4.267-4.267-6.827-4.267h-7.68c-43.52,0-81.067,23.893-101.547,64.853
				c-0.853,2.56-0.853,5.12,0,7.68l11.947,24.747l-22.187,5.255V101.4c0-56.32-46.08-102.4-102.4-102.4
				C199.624-1,153.911,44.166,153.003,99.717L54.28,251.093c-0.433,0.411-0.816,0.864-1.138,1.347L26.688,293.4
				c-0.853,0.853-1.707,2.56-1.707,4.267v56.921c-0.728,2.871-0.3,5.925,1.707,7.932c0.744,1.116,1.656,1.892,2.653,2.43
				c0.51,0.368,1.049,0.701,1.613,0.983c0.853,0,1.707,0,2.56,0s2.56,0,3.413,0l56.32-24.747c1.707-0.853,2.56-1.707,4.267-3.413
				l55.467-80.193V408.6c0,56.32,46.08,102.4,102.4,102.4s102.4-46.08,102.4-102.4l126.293-252.587
				C485.781,153.453,485.781,150.04,484.075,147.48z M100.928,301.933l-16.213,23.893l-24.703,11.229l-3.352,1.408l5.5-8.608
				l14.098-21.967L100.928,301.933z M56.555,278.04l4.745,18.98l-19.252,29.997v-26.791L56.555,278.04z M115.391,281.815
				l-38.697,8.006l-7.375-31.342l83.661-128.066v96.427L115.391,281.815z M255.381,493.933c-46.933,0-85.333-38.4-85.333-85.333
				V230.253v-128V101.4c0-46.933,38.4-85.333,85.333-85.333s85.333,38.4,85.333,85.333v155.307V408.6
				C340.715,455.533,302.315,493.933,255.381,493.933z M357.781,372.76V263.533L394.475,255c2.56-0.853,5.12-2.56,5.973-5.12
				c0.853-2.56,0.853-5.12,0-7.68l-15.36-29.867c16.213-30.72,45.227-49.493,78.507-51.2L357.781,372.76z"/>
			<path d="M255.381,374.467c-28.16,0-51.2,23.04-51.2,51.2s23.04,51.2,51.2,51.2s51.2-23.04,51.2-51.2
				S283.541,374.467,255.381,374.467z M255.381,459.8c-18.773,0-34.133-15.36-34.133-34.133s15.36-34.133,34.133-34.133
				s34.133,15.36,34.133,34.133S274.155,459.8,255.381,459.8z"/>
			<path d="M255.381,135.533c28.16,0,51.2-23.04,51.2-51.2c0-28.16-23.04-51.2-51.2-51.2s-51.2,23.04-51.2,51.2
				C204.181,112.493,227.221,135.533,255.381,135.533z M255.381,50.2c18.773,0,34.133,15.36,34.133,34.133
				c0,18.773-15.36,34.133-34.133,34.133s-34.133-15.36-34.133-34.133C221.248,65.56,236.608,50.2,255.381,50.2z"/>
			<path d="M315.115,220.867h-25.6v-25.6c0-5.12-3.413-8.533-8.533-8.533h-51.2c-5.12,0-8.533,3.413-8.533,8.533v25.6h-25.6
				c-5.12,0-8.533,3.413-8.533,8.533v51.2c0,5.12,3.413,8.533,8.533,8.533h25.6v25.6c0,5.12,3.413,8.533,8.533,8.533h51.2
				c5.12,0,8.533-3.413,8.533-8.533v-25.6h25.6c5.12,0,8.533-3.413,8.533-8.533v-51.2
				C323.648,224.28,320.235,220.867,315.115,220.867z M306.581,272.067h-25.6c-5.12,0-8.533,3.413-8.533,8.533v25.6h-34.133v-25.6
				c0-5.12-3.413-8.533-8.533-8.533h-25.6v-34.133h25.6c5.12,0,8.533-3.413,8.533-8.533v-25.6h34.133v25.6
				c0,5.12,3.413,8.533,8.533,8.533h25.6V272.067z"/>
		</g>
	</g>
</g>
<g>
</g>
<g>
</g>
<g>
</g>
<g>
</g>
<g>
</g>
<g>
</g>
<g>
</g>
<g>
</g>
<g>
</g>
<g>
</g>
<g>
</g>
<g>
</g>
<g>
</g>
<g>
</g>
<g>
</g>
</svg>
