<?xml version="1.0" encoding="iso-8859-1"?>
<!-- Generator: Adobe Illustrator 19.0.0, SVG Export Plug-In . SVG Version: 6.00 Build 0)  -->
<svg version="1.1" id="Layer_1" xmlns="http://www.w3.org/2000/svg" xmlns:xlink="http://www.w3.org/1999/xlink" x="0px" y="0px"
	 viewBox="0 0 503.607 503.607" style="enable-background:new 0 0 503.607 503.607;" xml:space="preserve">
<g>
	<g>
		<path d="M293.77,226.372c-4.196-0.001-8.393,4.196-8.393,8.393c0,5.036,3.357,8.393,8.393,8.393s8.393-3.357,8.393-8.393
			S298.806,226.372,293.77,226.372z"/>
	</g>
</g>
<g>
	<g>
		<path d="M243.409,226.372c-4.196-0.001-8.393,4.196-8.393,8.393c0,5.036,3.357,8.393,8.393,8.393s8.393-3.357,8.393-8.393
			S248.445,226.372,243.409,226.372z"/>
	</g>
</g>
<g>
	<g>
		<path d="M193.049,226.372c-4.197-0.001-8.393,4.196-8.393,8.393c0,5.036,3.357,8.393,8.393,8.393s8.393-3.357,8.393-8.393
			S198.085,226.372,193.049,226.372z"/>
	</g>
</g>
<g>
	<g>
		<path d="M318.95,201.191c-4.196,0-8.393,4.197-8.393,8.393c0,5.036,3.357,8.393,8.393,8.393s8.393-3.357,8.393-8.393
			S323.986,201.191,318.95,201.191z"/>
	</g>
</g>
<g>
	<g>
		<path d="M268.59,201.191c-4.197,0-8.393,4.197-8.393,8.393c0,5.036,3.357,8.393,8.393,8.393s8.393-3.357,8.393-8.393
			S273.626,201.191,268.59,201.191z"/>
	</g>
</g>
<g>
	<g>
		<path d="M318.95,150.831c-4.196-0.001-8.393,4.196-8.393,8.393c0,5.036,3.357,8.393,8.393,8.393s8.393-3.357,8.393-8.393
			S323.986,150.831,318.95,150.831z"/>
	</g>
</g>
<g>
	<g>
		<path d="M268.59,150.831c-4.197-0.001-8.393,4.196-8.393,8.393c0,5.036,3.357,8.393,8.393,8.393s8.393-3.357,8.393-8.393
			S273.626,150.831,268.59,150.831z"/>
	</g>
</g>
<g>
	<g>
		<path d="M293.77,176.011c-4.196-0.001-8.393,4.196-8.393,8.393c0,5.036,3.357,8.393,8.393,8.393s8.393-3.357,8.393-8.393
			S298.806,176.011,293.77,176.011z"/>
	</g>
</g>
<g>
	<g>
		<path d="M243.409,176.011c-4.196-0.001-8.393,4.196-8.393,8.393c0,5.036,3.357,8.393,8.393,8.393s8.393-3.357,8.393-8.393
			S248.445,176.011,243.409,176.011z"/>
	</g>
</g>
<g>
	<g>
		<path d="M293.77,125.65c-4.196,0-8.393,4.197-8.393,8.393c0,5.036,3.357,8.393,8.393,8.393s8.393-3.357,8.393-8.393
			C302.163,129.007,298.806,125.65,293.77,125.65z"/>
	</g>
</g>
<g>
	<g>
		<path d="M243.409,125.65c-4.196,0-8.393,4.197-8.393,8.393c0,5.036,3.357,8.393,8.393,8.393s8.393-3.357,8.393-8.393
			C251.802,129.007,248.445,125.65,243.409,125.65z"/>
	</g>
</g>
<g>
	<g>
		<path d="M218.229,201.191c-4.196,0-8.393,4.197-8.393,8.393c0,5.036,3.357,8.393,8.393,8.393s8.393-3.357,8.393-8.393
			S223.265,201.191,218.229,201.191z"/>
	</g>
</g>
<g>
	<g>
		<path d="M218.229,150.831c-4.196-0.001-8.393,4.196-8.393,8.393c0,5.036,3.357,8.393,8.393,8.393s8.393-3.357,8.393-8.393
			S223.265,150.831,218.229,150.831z"/>
	</g>
</g>
<g>
	<g>
		<path d="M193.049,176.011c-4.197-0.001-8.393,4.196-8.393,8.393c0,5.036,3.357,8.393,8.393,8.393s8.393-3.357,8.393-8.393
			S198.085,176.011,193.049,176.011z"/>
	</g>
</g>
<g>
	<g>
		<path d="M193.049,125.65c-4.197,0-8.393,4.197-8.393,8.393c0,5.036,3.357,8.393,8.393,8.393s8.393-3.357,8.393-8.393
			C201.442,129.007,198.085,125.65,193.049,125.65z"/>
	</g>
</g>
<g>
	<g>
		<path d="M318.95,100.47c-4.196,0-8.393,4.196-8.393,8.393c0,5.036,3.357,8.393,8.393,8.393s8.393-3.357,8.393-8.393
			C327.343,103.827,323.986,100.47,318.95,100.47z"/>
	</g>
</g>
<g>
	<g>
		<path d="M268.59,100.47c-4.197,0-8.393,4.196-8.393,8.393c0,5.036,3.357,8.393,8.393,8.393s8.393-3.357,8.393-8.393
			C276.983,103.827,273.626,100.47,268.59,100.47z"/>
	</g>
</g>
<g>
	<g>
		<path d="M218.229,100.47c-4.196,0-8.393,4.196-8.393,8.393c0,5.036,3.357,8.393,8.393,8.393s8.393-3.357,8.393-8.393
			C226.622,103.827,223.265,100.47,218.229,100.47z"/>
	</g>
</g>
<g transform="translate(1 1)">
	<g>
		<g>
			<path d="M469.033-1H32.574C14.108-1-1,14.108-1,32.574v436.459c0,18.465,15.108,33.574,33.574,33.574h436.459
				c18.465,0,33.574-15.109,33.574-33.574V32.574C502.607,14.108,487.499-1,469.033-1z M485.82,469.033
				c0,9.233-7.554,16.787-16.787,16.787H32.574c-9.233,0-16.787-7.554-16.787-16.787V32.574c0-9.233,7.554-16.787,16.787-16.787
				h436.459c9.233,0,16.787,7.554,16.787,16.787V469.033z"/>
			<path d="M334.737,99.721c0-5.036-3.357-8.393-8.393-8.393H175.262c-5.036,0-8.393,3.357-8.393,8.393v151.083
				c0,1.485,0.299,2.82,0.84,3.97v147.112c0,5.036,3.357,8.393,8.393,8.393h150.242c5.036,0,8.394-3.358,8.394-8.394V250.803
				c0-0.008-0.001-0.016-0.001-0.025V99.721z M183.656,108.115h134.295V242.41H183.656V108.115z M317.951,393.492H184.495V259.197
				h133.456V393.492z"/>
			<path d="M49.361,32.574c-9.233,0-16.787,7.554-16.787,16.787c0,9.233,7.554,16.787,16.787,16.787
				c9.233,0,16.787-7.555,16.787-16.787C66.148,40.128,58.594,32.574,49.361,32.574z"/>
			<path d="M49.361,435.459c-9.233,0-16.787,7.554-16.787,16.787c0,9.233,7.554,16.787,16.787,16.787
				c9.233,0,16.787-7.554,16.787-16.787C66.148,443.013,58.594,435.459,49.361,435.459z"/>
			<path d="M452.246,32.574c-9.233,0-16.787,7.554-16.787,16.787c0,9.233,7.554,16.787,16.787,16.787
				c9.233,0,16.787-7.555,16.787-16.787C469.033,40.128,461.479,32.574,452.246,32.574z"/>
			<path d="M452.246,435.459c-9.233,0-16.787,7.554-16.787,16.787c0,9.233,7.554,16.787,16.787,16.787
				c9.233,0,16.787-7.554,16.787-16.787C469.033,443.013,461.479,435.459,452.246,435.459z"/>
			<path d="M250.803,359.918c5.036,0,8.394-3.357,8.393-8.393v-50.361c0-5.036-3.357-8.393-8.393-8.393s-8.393,3.357-8.393,8.393
				v50.361C242.41,356.561,245.767,359.918,250.803,359.918z"/>
		</g>
	</g>
</g>
<g>
</g>
<g>
</g>
<g>
</g>
<g>
</g>
<g>
</g>
<g>
</g>
<g>
</g>
<g>
</g>
<g>
</g>
<g>
</g>
<g>
</g>
<g>
</g>
<g>
</g>
<g>
</g>
<g>
</g>
</svg>
