<?xml version="1.0" encoding="iso-8859-1"?>
<!-- Generator: Adobe Illustrator 19.0.0, SVG Export Plug-In . SVG Version: 6.00 Build 0)  -->
<svg version="1.1" id="Layer_1" xmlns="http://www.w3.org/2000/svg" xmlns:xlink="http://www.w3.org/1999/xlink" x="0px" y="0px"
	 viewBox="0 0 503.607 503.607" style="enable-background:new 0 0 503.607 503.607;" xml:space="preserve">
<g transform="translate(1 1)">
	<g>
		<g>
			<path d="M469.033-1H32.574C14.108-1-1,14.108-1,32.574v436.459c0,18.466,15.108,33.574,33.574,33.574h436.459
				c18.466,0,33.574-15.108,33.574-33.574V32.574C502.607,14.108,487.498-1,469.033-1z M485.82,469.033
				c0,9.233-7.554,16.787-16.787,16.787H32.574c-9.233,0-16.787-7.554-16.787-16.787V32.574c0-9.233,7.554-16.787,16.787-16.787
				h436.459c9.233,0,16.787,7.554,16.787,16.787V469.033z"/>
			<path d="M175.262,141.689c-18.466,0-33.574,15.108-33.574,33.574c0,18.466,15.108,33.574,33.574,33.574
				c18.466,0,33.574-15.108,33.574-33.574C208.836,156.797,193.728,141.689,175.262,141.689z M175.262,192.049
				c-9.233,0-16.787-7.554-16.787-16.787s7.554-16.787,16.787-16.787s16.787,7.554,16.787,16.787S184.495,192.049,175.262,192.049z"
				/>
			<path d="M175.262,292.771c-5.036,0-8.393,3.357-8.393,8.393v50.361c0,5.036,3.357,8.393,8.393,8.393
				c5.036,0,8.393-3.357,8.393-8.393v-50.361C183.656,296.128,180.298,292.771,175.262,292.771z"/>
			<path d="M401.885,91.328H250.803H99.721c-5.036,0-8.393,3.357-8.393,8.393v151.082v151.082c0,5.036,3.357,8.393,8.393,8.393
				h151.082c0.143,0,0.279-0.012,0.42-0.018c0.14,0.005,0.277,0.018,0.42,0.018h150.243c5.036,0,8.393-3.357,8.393-8.393V250.803
				V99.721C410.279,94.685,406.921,91.328,401.885,91.328z M393.492,242.41H259.197V108.115h134.295V242.41z M108.115,108.115
				H242.41V242.41H108.115V108.115z M108.954,259.197h134.295v134.295H108.954V259.197z M394.331,393.492H260.036V259.197h134.295
				V393.492z"/>
			<path d="M326.344,208.836c18.466,0,33.574-15.108,33.574-33.574c0-18.466-15.108-33.574-33.574-33.574
				s-33.574,15.108-33.574,33.574C292.771,193.728,307.879,208.836,326.344,208.836z M326.344,158.475
				c9.233,0,16.787,7.554,16.787,16.787s-7.554,16.787-16.787,16.787c-9.233,0-16.787-7.554-16.787-16.787
				S317.112,158.475,326.344,158.475z"/>
			<path d="M326.344,359.918c5.036,0,8.393-3.357,8.393-8.393v-50.361c0-5.036-3.357-8.393-8.393-8.393
				c-5.036,0-8.393,3.357-8.393,8.393v50.361C317.951,356.561,321.308,359.918,326.344,359.918z"/>
			<path d="M49.361,32.574c-9.233,0-16.787,7.554-16.787,16.787s7.554,16.787,16.787,16.787s16.787-7.554,16.787-16.787
				S58.593,32.574,49.361,32.574z"/>
			<path d="M49.361,435.459c-9.233,0-16.787,7.554-16.787,16.787c0,9.233,7.554,16.787,16.787,16.787s16.787-7.554,16.787-16.787
				C66.148,443.013,58.593,435.459,49.361,435.459z"/>
			<path d="M452.246,32.574c-9.233,0-16.787,7.554-16.787,16.787s7.554,16.787,16.787,16.787c9.233,0,16.787-7.554,16.787-16.787
				S461.479,32.574,452.246,32.574z"/>
			<path d="M452.246,435.459c-9.233,0-16.787,7.554-16.787,16.787c0,9.233,7.554,16.787,16.787,16.787
				c9.233,0,16.787-7.554,16.787-16.787C469.033,443.013,461.479,435.459,452.246,435.459z"/>
		</g>
	</g>
</g>
<g>
</g>
<g>
</g>
<g>
</g>
<g>
</g>
<g>
</g>
<g>
</g>
<g>
</g>
<g>
</g>
<g>
</g>
<g>
</g>
<g>
</g>
<g>
</g>
<g>
</g>
<g>
</g>
<g>
</g>
</svg>
