<?xml version="1.0" encoding="iso-8859-1"?>
<!-- Generator: Adobe Illustrator 19.0.0, SVG Export Plug-In . SVG Version: 6.00 Build 0)  -->
<svg version="1.1" id="Layer_1" xmlns="http://www.w3.org/2000/svg" xmlns:xlink="http://www.w3.org/1999/xlink" x="0px" y="0px"
	 viewBox="0 0 503.607 503.607" style="enable-background:new 0 0 503.607 503.607;" xml:space="preserve">
<g>
	<g>
		<path d="M293.77,377.454c-4.196-0.001-8.393,4.196-8.393,8.393c0,5.036,3.357,8.393,8.393,8.393s8.393-3.357,8.393-8.393
			S298.806,377.454,293.77,377.454z"/>
	</g>
</g>
<g>
	<g>
		<path d="M243.409,377.454c-4.196-0.001-8.393,4.196-8.393,8.393c0,5.036,3.357,8.393,8.393,8.393s8.393-3.357,8.393-8.393
			S248.445,377.454,243.409,377.454z"/>
	</g>
</g>
<g>
	<g>
		<path d="M193.049,377.454c-4.197-0.001-8.393,4.196-8.393,8.393c0,5.036,3.357,8.393,8.393,8.393s8.393-3.357,8.393-8.393
			S198.085,377.454,193.049,377.454z"/>
	</g>
</g>
<g>
	<g>
		<path d="M318.95,352.273c-4.196,0-8.393,4.196-8.393,8.393c0,5.036,3.357,8.393,8.393,8.393s8.393-3.357,8.393-8.393
			S323.986,352.273,318.95,352.273z"/>
	</g>
</g>
<g>
	<g>
		<path d="M268.59,352.273c-4.197,0-8.393,4.196-8.393,8.393c0,5.036,3.357,8.393,8.393,8.393s8.393-3.357,8.393-8.393
			S273.626,352.273,268.59,352.273z"/>
	</g>
</g>
<g>
	<g>
		<path d="M318.95,301.913c-4.196-0.001-8.393,4.196-8.393,8.393c0,5.036,3.357,8.393,8.393,8.393s8.393-3.357,8.393-8.393
			S323.986,301.913,318.95,301.913z"/>
	</g>
</g>
<g>
	<g>
		<path d="M268.59,301.913c-4.197-0.001-8.393,4.196-8.393,8.393c0,5.036,3.357,8.393,8.393,8.393s8.393-3.357,8.393-8.393
			S273.626,301.913,268.59,301.913z"/>
	</g>
</g>
<g>
	<g>
		<path d="M293.77,327.093c-4.196-0.001-8.393,4.196-8.393,8.393c0,5.036,3.357,8.393,8.393,8.393s8.393-3.357,8.393-8.393
			S298.806,327.093,293.77,327.093z"/>
	</g>
</g>
<g>
	<g>
		<path d="M243.409,327.093c-4.196-0.001-8.393,4.196-8.393,8.393c0,5.036,3.357,8.393,8.393,8.393s8.393-3.357,8.393-8.393
			S248.445,327.093,243.409,327.093z"/>
	</g>
</g>
<g>
	<g>
		<path d="M293.77,276.732c-4.196,0-8.393,4.196-8.393,8.393c0,5.036,3.357,8.393,8.393,8.393s8.393-3.357,8.393-8.393
			S298.806,276.732,293.77,276.732z"/>
	</g>
</g>
<g>
	<g>
		<path d="M243.409,276.732c-4.196,0-8.393,4.196-8.393,8.393c0,5.036,3.357,8.393,8.393,8.393s8.393-3.357,8.393-8.393
			S248.445,276.732,243.409,276.732z"/>
	</g>
</g>
<g>
	<g>
		<path d="M218.229,352.273c-4.196,0-8.393,4.196-8.393,8.393c0,5.036,3.357,8.393,8.393,8.393s8.393-3.357,8.393-8.393
			S223.265,352.273,218.229,352.273z"/>
	</g>
</g>
<g>
	<g>
		<path d="M218.229,301.913c-4.196-0.001-8.393,4.196-8.393,8.393c0,5.036,3.357,8.393,8.393,8.393s8.393-3.357,8.393-8.393
			S223.265,301.913,218.229,301.913z"/>
	</g>
</g>
<g>
	<g>
		<path d="M193.049,327.093c-4.197-0.001-8.393,4.196-8.393,8.393c0,5.036,3.357,8.393,8.393,8.393s8.393-3.357,8.393-8.393
			S198.085,327.093,193.049,327.093z"/>
	</g>
</g>
<g>
	<g>
		<path d="M193.049,276.732c-4.197,0-8.393,4.196-8.393,8.393c0,5.036,3.357,8.393,8.393,8.393s8.393-3.357,8.393-8.393
			S198.085,276.732,193.049,276.732z"/>
	</g>
</g>
<g>
	<g>
		<path d="M318.95,251.552c-4.196-0.001-8.393,4.196-8.393,8.393c0,5.036,3.357,8.393,8.393,8.393s8.393-3.357,8.393-8.393
			C327.343,254.909,323.986,251.552,318.95,251.552z"/>
	</g>
</g>
<g>
	<g>
		<path d="M268.59,251.552c-4.197-0.001-8.393,4.196-8.393,8.393c0,5.036,3.357,8.393,8.393,8.393s8.393-3.357,8.393-8.393
			C276.983,254.909,273.626,251.552,268.59,251.552z"/>
	</g>
</g>
<g>
	<g>
		<path d="M218.229,251.552c-4.196-0.001-8.393,4.196-8.393,8.393c0,5.036,3.357,8.393,8.393,8.393s8.393-3.357,8.393-8.393
			C226.622,254.909,223.265,251.552,218.229,251.552z"/>
	</g>
</g>
<g transform="translate(1 1)">
	<g>
		<g>
			<path d="M469.033-1H32.574C14.108-1-1,14.108-1,32.574v436.459c0,18.465,15.108,33.574,33.574,33.574h436.459
				c18.465,0,33.574-15.109,33.574-33.574V32.574C502.607,14.108,487.499-1,469.033-1z M485.82,469.033
				c0,9.233-7.554,16.787-16.787,16.787H32.574c-9.233,0-16.787-7.554-16.787-16.787V32.574c0-9.233,7.554-16.787,16.787-16.787
				h436.459c9.233,0,16.787,7.554,16.787,16.787V469.033z"/>
			<path d="M334.737,99.721c0-5.036-3.357-8.393-8.393-8.393H175.262c-5.036,0-8.393,3.357-8.393,8.393v151.083
				c0,1.485,0.299,2.82,0.84,3.97v147.112c0,5.036,3.357,8.393,8.393,8.393h150.242c5.036,0,8.394-3.358,8.394-8.394V250.803
				c0-0.008-0.001-0.016-0.001-0.025V99.721z M183.656,108.115h134.295V242.41H183.656V108.115z M317.951,393.492H184.495V259.197
				h133.456V393.492z"/>
			<path d="M250.803,141.688c-18.466,0-33.574,15.108-33.574,33.574s15.108,33.574,33.574,33.574
				c18.466,0,33.574-15.108,33.574-33.574S269.269,141.688,250.803,141.688z M250.803,192.049c-9.233,0-16.787-7.554-16.787-16.787
				c0-9.233,7.554-16.787,16.787-16.787c9.233,0,16.787,7.554,16.787,16.787C267.59,184.495,260.036,192.049,250.803,192.049z"/>
			<path d="M49.361,32.574c-9.233,0-16.787,7.554-16.787,16.787c0,9.233,7.554,16.787,16.787,16.787
				c9.233,0,16.787-7.555,16.787-16.787C66.148,40.128,58.594,32.574,49.361,32.574z"/>
			<path d="M49.361,435.459c-9.233,0-16.787,7.554-16.787,16.787c0,9.233,7.554,16.787,16.787,16.787
				c9.233,0,16.787-7.554,16.787-16.787C66.148,443.013,58.594,435.459,49.361,435.459z"/>
			<path d="M452.246,32.574c-9.233,0-16.787,7.554-16.787,16.787c0,9.233,7.554,16.787,16.787,16.787
				c9.233,0,16.787-7.555,16.787-16.787C469.033,40.128,461.479,32.574,452.246,32.574z"/>
			<path d="M452.246,435.459c-9.233,0-16.787,7.554-16.787,16.787c0,9.233,7.554,16.787,16.787,16.787
				c9.233,0,16.787-7.554,16.787-16.787C469.033,443.013,461.479,435.459,452.246,435.459z"/>
		</g>
	</g>
</g>
<g>
</g>
<g>
</g>
<g>
</g>
<g>
</g>
<g>
</g>
<g>
</g>
<g>
</g>
<g>
</g>
<g>
</g>
<g>
</g>
<g>
</g>
<g>
</g>
<g>
</g>
<g>
</g>
<g>
</g>
</svg>
