<?xml version="1.0" encoding="iso-8859-1"?>
<!-- Generator: Adobe Illustrator 19.0.0, SVG Export Plug-In . SVG Version: 6.00 Build 0)  -->
<svg version="1.1" id="Layer_1" xmlns="http://www.w3.org/2000/svg" xmlns:xlink="http://www.w3.org/1999/xlink" x="0px" y="0px"
	 viewBox="0 0 503.607 503.607" style="enable-background:new 0 0 503.607 503.607;" xml:space="preserve">
<g>
	<g>
		<path d="M218.229,226.372c-4.196-0.001-8.393,4.196-8.393,8.393c0,5.036,3.357,8.393,8.393,8.393s8.393-3.357,8.393-8.393
			S223.265,226.372,218.229,226.372z"/>
	</g>
</g>
<g>
	<g>
		<path d="M167.868,226.372c-4.196-0.001-8.393,4.196-8.393,8.393c0,5.036,3.357,8.393,8.393,8.393c5.036,0,8.393-3.357,8.393-8.393
			S172.904,226.372,167.868,226.372z"/>
	</g>
</g>
<g>
	<g>
		<path d="M117.508,226.372c-4.197-0.001-8.393,4.196-8.393,8.393c0,5.036,3.357,8.393,8.393,8.393s8.393-3.357,8.393-8.393
			S122.544,226.372,117.508,226.372z"/>
	</g>
</g>
<g>
	<g>
		<path d="M243.409,201.191c-4.196,0-8.393,4.197-8.393,8.393c0,5.036,3.357,8.393,8.393,8.393s8.393-3.357,8.393-8.393
			S248.445,201.191,243.409,201.191z"/>
	</g>
</g>
<g>
	<g>
		<path d="M193.049,201.191c-4.197,0-8.393,4.197-8.393,8.393c0,5.036,3.357,8.393,8.393,8.393s8.393-3.357,8.393-8.393
			S198.085,201.191,193.049,201.191z"/>
	</g>
</g>
<g>
	<g>
		<path d="M243.409,150.831c-4.196-0.001-8.393,4.196-8.393,8.393c0,5.036,3.357,8.393,8.393,8.393s8.393-3.357,8.393-8.393
			S248.445,150.831,243.409,150.831z"/>
	</g>
</g>
<g>
	<g>
		<path d="M193.049,150.831c-4.197-0.001-8.393,4.196-8.393,8.393c0,5.036,3.357,8.393,8.393,8.393s8.393-3.357,8.393-8.393
			S198.085,150.831,193.049,150.831z"/>
	</g>
</g>
<g>
	<g>
		<path d="M218.229,176.011c-4.196-0.001-8.393,4.196-8.393,8.393c0,5.036,3.357,8.393,8.393,8.393s8.393-3.357,8.393-8.393
			S223.265,176.011,218.229,176.011z"/>
	</g>
</g>
<g>
	<g>
		<path d="M167.868,176.011c-4.196-0.001-8.393,4.196-8.393,8.393c0,5.036,3.357,8.393,8.393,8.393c5.036,0,8.393-3.357,8.393-8.393
			S172.904,176.011,167.868,176.011z"/>
	</g>
</g>
<g>
	<g>
		<path d="M218.229,125.65c-4.196,0-8.393,4.197-8.393,8.393c0,5.036,3.357,8.393,8.393,8.393s8.393-3.357,8.393-8.393
			C226.622,129.007,223.265,125.65,218.229,125.65z"/>
	</g>
</g>
<g>
	<g>
		<path d="M167.868,125.65c-4.196,0-8.393,4.197-8.393,8.393c0,5.036,3.357,8.393,8.393,8.393c5.036,0,8.393-3.357,8.393-8.393
			C176.261,129.007,172.904,125.65,167.868,125.65z"/>
	</g>
</g>
<g>
	<g>
		<path d="M142.688,201.191c-4.196,0-8.393,4.197-8.393,8.393c0,5.036,3.357,8.393,8.393,8.393s8.393-3.357,8.393-8.393
			S147.724,201.191,142.688,201.191z"/>
	</g>
</g>
<g>
	<g>
		<path d="M142.688,150.831c-4.196-0.001-8.393,4.196-8.393,8.393c0,5.036,3.357,8.393,8.393,8.393s8.393-3.357,8.393-8.393
			S147.724,150.831,142.688,150.831z"/>
	</g>
</g>
<g>
	<g>
		<path d="M117.508,176.011c-4.197-0.001-8.393,4.196-8.393,8.393c0,5.036,3.357,8.393,8.393,8.393s8.393-3.357,8.393-8.393
			S122.544,176.011,117.508,176.011z"/>
	</g>
</g>
<g>
	<g>
		<path d="M117.508,125.65c-4.197,0-8.393,4.197-8.393,8.393c0,5.036,3.357,8.393,8.393,8.393s8.393-3.357,8.393-8.393
			C125.901,129.007,122.544,125.65,117.508,125.65z"/>
	</g>
</g>
<g>
	<g>
		<path d="M243.409,100.47c-4.196,0-8.393,4.196-8.393,8.393c0,5.036,3.357,8.393,8.393,8.393s8.393-3.357,8.393-8.393
			C251.802,103.827,248.445,100.47,243.409,100.47z"/>
	</g>
</g>
<g>
	<g>
		<path d="M193.049,100.47c-4.197,0-8.393,4.196-8.393,8.393c0,5.036,3.357,8.393,8.393,8.393s8.393-3.357,8.393-8.393
			C201.442,103.827,198.085,100.47,193.049,100.47z"/>
	</g>
</g>
<g>
	<g>
		<path d="M142.688,100.47c-4.196,0-8.393,4.196-8.393,8.393c0,5.036,3.357,8.393,8.393,8.393s8.393-3.357,8.393-8.393
			C151.081,103.827,147.724,100.47,142.688,100.47z"/>
	</g>
</g>
<g>
	<g>
		<path d="M369.311,377.454c-4.196-0.001-8.393,4.196-8.393,8.393c0,5.036,3.357,8.393,8.393,8.393s8.393-3.357,8.393-8.393
			S374.347,377.454,369.311,377.454z"/>
	</g>
</g>
<g>
	<g>
		<path d="M318.95,377.454c-4.196-0.001-8.393,4.196-8.393,8.393c0,5.036,3.357,8.393,8.393,8.393s8.393-3.357,8.393-8.393
			S323.986,377.454,318.95,377.454z"/>
	</g>
</g>
<g>
	<g>
		<path d="M268.59,377.454c-4.197-0.001-8.393,4.196-8.393,8.393c0,5.036,3.357,8.393,8.393,8.393s8.393-3.357,8.393-8.393
			S273.626,377.454,268.59,377.454z"/>
	</g>
</g>
<g>
	<g>
		<path d="M394.491,352.273c-4.196,0-8.393,4.196-8.393,8.393c0,5.036,3.357,8.393,8.393,8.393s8.393-3.357,8.393-8.393
			S399.527,352.273,394.491,352.273z"/>
	</g>
</g>
<g>
	<g>
		<path d="M344.131,352.273c-4.197,0-8.393,4.196-8.393,8.393c0,5.036,3.357,8.393,8.393,8.393s8.393-3.357,8.393-8.393
			S349.167,352.273,344.131,352.273z"/>
	</g>
</g>
<g>
	<g>
		<path d="M394.491,301.913c-4.196-0.001-8.393,4.196-8.393,8.393c0,5.036,3.357,8.393,8.393,8.393s8.393-3.357,8.393-8.393
			S399.527,301.913,394.491,301.913z"/>
	</g>
</g>
<g>
	<g>
		<path d="M344.131,301.913c-4.197-0.001-8.393,4.196-8.393,8.393c0,5.036,3.357,8.393,8.393,8.393s8.393-3.357,8.393-8.393
			S349.167,301.913,344.131,301.913z"/>
	</g>
</g>
<g>
	<g>
		<path d="M369.311,327.093c-4.196-0.001-8.393,4.196-8.393,8.393c0,5.036,3.357,8.393,8.393,8.393s8.393-3.357,8.393-8.393
			S374.347,327.093,369.311,327.093z"/>
	</g>
</g>
<g>
	<g>
		<path d="M318.95,327.093c-4.196-0.001-8.393,4.196-8.393,8.393c0,5.036,3.357,8.393,8.393,8.393s8.393-3.357,8.393-8.393
			S323.986,327.093,318.95,327.093z"/>
	</g>
</g>
<g>
	<g>
		<path d="M369.311,276.732c-4.196,0-8.393,4.196-8.393,8.393c0,5.036,3.357,8.393,8.393,8.393s8.393-3.357,8.393-8.393
			S374.347,276.732,369.311,276.732z"/>
	</g>
</g>
<g>
	<g>
		<path d="M318.95,276.732c-4.196,0-8.393,4.196-8.393,8.393c0,5.036,3.357,8.393,8.393,8.393s8.393-3.357,8.393-8.393
			S323.986,276.732,318.95,276.732z"/>
	</g>
</g>
<g>
	<g>
		<path d="M293.77,352.273c-4.196,0-8.393,4.196-8.393,8.393c0,5.036,3.357,8.393,8.393,8.393s8.393-3.357,8.393-8.393
			S298.806,352.273,293.77,352.273z"/>
	</g>
</g>
<g>
	<g>
		<path d="M293.77,301.913c-4.196-0.001-8.393,4.196-8.393,8.393c0,5.036,3.357,8.393,8.393,8.393s8.393-3.357,8.393-8.393
			S298.806,301.913,293.77,301.913z"/>
	</g>
</g>
<g>
	<g>
		<path d="M268.59,327.093c-4.197-0.001-8.393,4.196-8.393,8.393c0,5.036,3.357,8.393,8.393,8.393s8.393-3.357,8.393-8.393
			S273.626,327.093,268.59,327.093z"/>
	</g>
</g>
<g>
	<g>
		<path d="M268.59,276.732c-4.197,0-8.393,4.196-8.393,8.393c0,5.036,3.357,8.393,8.393,8.393s8.393-3.357,8.393-8.393
			S273.626,276.732,268.59,276.732z"/>
	</g>
</g>
<g>
	<g>
		<path d="M394.491,251.552c-4.196-0.001-8.393,4.196-8.393,8.393c0,5.036,3.357,8.393,8.393,8.393s8.393-3.357,8.393-8.393
			C402.884,254.909,399.527,251.552,394.491,251.552z"/>
	</g>
</g>
<g>
	<g>
		<path d="M344.131,251.552c-4.197-0.001-8.393,4.196-8.393,8.393c0,5.036,3.357,8.393,8.393,8.393s8.393-3.357,8.393-8.393
			C352.524,254.909,349.167,251.552,344.131,251.552z"/>
	</g>
</g>
<g>
	<g>
		<path d="M293.77,251.552c-4.196-0.001-8.393,4.196-8.393,8.393c0,5.036,3.357,8.393,8.393,8.393s8.393-3.357,8.393-8.393
			C302.163,254.909,298.806,251.552,293.77,251.552z"/>
	</g>
</g>
<g transform="translate(1 1)">
	<g>
		<g>
			<path d="M469.033-1H32.574C14.108-1-1,14.108-1,32.574v436.459c0,18.465,15.108,33.574,33.574,33.574h436.459
				c18.465,0,33.574-15.109,33.574-33.574V32.574C502.607,14.108,487.499-1,469.033-1z M485.82,469.033
				c0,9.233-7.554,16.787-16.787,16.787H32.574c-9.233,0-16.787-7.554-16.787-16.787V32.574c0-9.233,7.554-16.787,16.787-16.787
				h436.459c9.233,0,16.787,7.554,16.787,16.787V469.033z"/>
			<path d="M49.361,32.574c-9.233,0-16.787,7.554-16.787,16.787c0,9.233,7.554,16.787,16.787,16.787
				c9.233,0,16.787-7.555,16.787-16.787C66.148,40.128,58.594,32.574,49.361,32.574z"/>
			<path d="M49.361,435.459c-9.233,0-16.787,7.554-16.787,16.787c0,9.233,7.554,16.787,16.787,16.787
				c9.233,0,16.787-7.554,16.787-16.787C66.148,443.013,58.594,435.459,49.361,435.459z"/>
			<path d="M452.246,32.574c-9.233,0-16.787,7.554-16.787,16.787c0,9.233,7.554,16.787,16.787,16.787
				c9.233,0,16.787-7.555,16.787-16.787C469.033,40.128,461.479,32.574,452.246,32.574z"/>
			<path d="M452.246,435.459c-9.233,0-16.787,7.554-16.787,16.787c0,9.233,7.554,16.787,16.787,16.787
				c9.233,0,16.787-7.554,16.787-16.787C469.033,443.013,461.479,435.459,452.246,435.459z"/>
			<path d="M410.278,99.721c0-5.036-3.357-8.393-8.393-8.393H250.803h0H99.721c-5.036,0-8.393,3.357-8.393,8.393v151.082v0.001
				v151.082c0,5.036,3.357,8.393,8.393,8.393h151.082c0.143,0,0.28-0.012,0.42-0.018c0.14,0.005,0.277,0.018,0.42,0.018h150.242
				c5.036,0,8.394-3.358,8.394-8.394V250.803c0-0.008-0.001-0.015-0.001-0.023V99.721z M259.197,108.115h134.295V242.41H259.197
				V108.115z M108.115,108.115H242.41V242.41H108.115V108.115z M243.249,393.492H108.954V259.197h134.295V393.492z M394.331,393.492
				H260.036V259.197h134.295V393.492z"/>
			<path d="M326.344,141.688c-18.466,0-33.574,15.108-33.574,33.574s15.108,33.574,33.574,33.574s33.574-15.108,33.574-33.574
				S344.81,141.688,326.344,141.688z M326.344,192.049c-9.233,0-16.787-7.554-16.787-16.787c0-9.233,7.554-16.787,16.787-16.787
				c9.233,0,16.787,7.554,16.787,16.787C343.131,184.495,335.577,192.049,326.344,192.049z"/>
			<path d="M175.262,359.918c5.036,0,8.394-3.357,8.393-8.393v-50.361c0-5.036-3.357-8.393-8.393-8.393s-8.393,3.357-8.393,8.393
				v50.361C166.869,356.561,170.226,359.918,175.262,359.918z"/>
		</g>
	</g>
</g>
<g>
</g>
<g>
</g>
<g>
</g>
<g>
</g>
<g>
</g>
<g>
</g>
<g>
</g>
<g>
</g>
<g>
</g>
<g>
</g>
<g>
</g>
<g>
</g>
<g>
</g>
<g>
</g>
<g>
</g>
</svg>
