<?xml version="1.0" encoding="iso-8859-1"?>
<!-- Generator: Adobe Illustrator 19.0.0, SVG Export Plug-In . SVG Version: 6.00 Build 0)  -->
<svg version="1.1" id="Layer_1" xmlns="http://www.w3.org/2000/svg" xmlns:xlink="http://www.w3.org/1999/xlink" x="0px" y="0px"
	 viewBox="0 0 503.607 503.607" style="enable-background:new 0 0 503.607 503.607;" xml:space="preserve">
<g>
	<g>
		<path d="M369.311,226.372c-4.196-0.001-8.393,4.196-8.393,8.393c0,5.036,3.357,8.393,8.393,8.393s8.393-3.357,8.393-8.393
			S374.347,226.372,369.311,226.372z"/>
	</g>
</g>
<g>
	<g>
		<path d="M318.95,226.372c-4.196-0.001-8.393,4.196-8.393,8.393c0,5.036,3.357,8.393,8.393,8.393s8.393-3.357,8.393-8.393
			S323.986,226.372,318.95,226.372z"/>
	</g>
</g>
<g>
	<g>
		<path d="M268.59,226.372c-4.197-0.001-8.393,4.196-8.393,8.393c0,5.036,3.357,8.393,8.393,8.393s8.393-3.357,8.393-8.393
			S273.626,226.372,268.59,226.372z"/>
	</g>
</g>
<g>
	<g>
		<path d="M394.491,201.191c-4.196,0-8.393,4.197-8.393,8.393c0,5.036,3.357,8.393,8.393,8.393s8.393-3.357,8.393-8.393
			S399.527,201.191,394.491,201.191z"/>
	</g>
</g>
<g>
	<g>
		<path d="M344.131,201.191c-4.197,0-8.393,4.197-8.393,8.393c0,5.036,3.357,8.393,8.393,8.393s8.393-3.357,8.393-8.393
			S349.167,201.191,344.131,201.191z"/>
	</g>
</g>
<g>
	<g>
		<path d="M394.491,150.831c-4.196-0.001-8.393,4.196-8.393,8.393c0,5.036,3.357,8.393,8.393,8.393s8.393-3.357,8.393-8.393
			S399.527,150.831,394.491,150.831z"/>
	</g>
</g>
<g>
	<g>
		<path d="M344.131,150.831c-4.197-0.001-8.393,4.196-8.393,8.393c0,5.036,3.357,8.393,8.393,8.393s8.393-3.357,8.393-8.393
			S349.167,150.831,344.131,150.831z"/>
	</g>
</g>
<g>
	<g>
		<path d="M369.311,176.011c-4.196-0.001-8.393,4.196-8.393,8.393c0,5.036,3.357,8.393,8.393,8.393s8.393-3.357,8.393-8.393
			S374.347,176.011,369.311,176.011z"/>
	</g>
</g>
<g>
	<g>
		<path d="M318.95,176.011c-4.196-0.001-8.393,4.196-8.393,8.393c0,5.036,3.357,8.393,8.393,8.393s8.393-3.357,8.393-8.393
			S323.986,176.011,318.95,176.011z"/>
	</g>
</g>
<g>
	<g>
		<path d="M369.311,125.65c-4.196,0-8.393,4.197-8.393,8.393c0,5.036,3.357,8.393,8.393,8.393s8.393-3.357,8.393-8.393
			C377.704,129.007,374.347,125.65,369.311,125.65z"/>
	</g>
</g>
<g>
	<g>
		<path d="M318.95,125.65c-4.196,0-8.393,4.197-8.393,8.393c0,5.036,3.357,8.393,8.393,8.393s8.393-3.357,8.393-8.393
			C327.343,129.007,323.986,125.65,318.95,125.65z"/>
	</g>
</g>
<g>
	<g>
		<path d="M293.77,201.191c-4.196,0-8.393,4.197-8.393,8.393c0,5.036,3.357,8.393,8.393,8.393s8.393-3.357,8.393-8.393
			S298.806,201.191,293.77,201.191z"/>
	</g>
</g>
<g>
	<g>
		<path d="M293.77,150.831c-4.196-0.001-8.393,4.196-8.393,8.393c0,5.036,3.357,8.393,8.393,8.393s8.393-3.357,8.393-8.393
			S298.806,150.831,293.77,150.831z"/>
	</g>
</g>
<g>
	<g>
		<path d="M268.59,176.011c-4.197-0.001-8.393,4.196-8.393,8.393c0,5.036,3.357,8.393,8.393,8.393s8.393-3.357,8.393-8.393
			S273.626,176.011,268.59,176.011z"/>
	</g>
</g>
<g>
	<g>
		<path d="M268.59,125.65c-4.197,0-8.393,4.197-8.393,8.393c0,5.036,3.357,8.393,8.393,8.393s8.393-3.357,8.393-8.393
			C276.983,129.007,273.626,125.65,268.59,125.65z"/>
	</g>
</g>
<g>
	<g>
		<path d="M394.491,100.47c-4.196,0-8.393,4.196-8.393,8.393c0,5.036,3.357,8.393,8.393,8.393s8.393-3.357,8.393-8.393
			C402.884,103.827,399.527,100.47,394.491,100.47z"/>
	</g>
</g>
<g>
	<g>
		<path d="M344.131,100.47c-4.197,0-8.393,4.196-8.393,8.393c0,5.036,3.357,8.393,8.393,8.393s8.393-3.357,8.393-8.393
			C352.524,103.827,349.167,100.47,344.131,100.47z"/>
	</g>
</g>
<g>
	<g>
		<path d="M293.77,100.47c-4.196,0-8.393,4.196-8.393,8.393c0,5.036,3.357,8.393,8.393,8.393s8.393-3.357,8.393-8.393
			C302.163,103.827,298.806,100.47,293.77,100.47z"/>
	</g>
</g>
<g>
	<g>
		<path d="M218.229,377.454c-4.196-0.001-8.393,4.196-8.393,8.393c0,5.036,3.357,8.393,8.393,8.393s8.393-3.357,8.393-8.393
			S223.265,377.454,218.229,377.454z"/>
	</g>
</g>
<g>
	<g>
		<path d="M167.868,377.454c-4.196-0.001-8.393,4.196-8.393,8.393c0,5.036,3.357,8.393,8.393,8.393c5.036,0,8.393-3.357,8.393-8.393
			S172.904,377.454,167.868,377.454z"/>
	</g>
</g>
<g>
	<g>
		<path d="M117.508,377.454c-4.197-0.001-8.393,4.196-8.393,8.393c0,5.036,3.357,8.393,8.393,8.393s8.393-3.357,8.393-8.393
			S122.544,377.454,117.508,377.454z"/>
	</g>
</g>
<g>
	<g>
		<path d="M243.409,352.273c-4.196,0-8.393,4.196-8.393,8.393c0,5.036,3.357,8.393,8.393,8.393s8.393-3.357,8.393-8.393
			S248.445,352.273,243.409,352.273z"/>
	</g>
</g>
<g>
	<g>
		<path d="M193.049,352.273c-4.197,0-8.393,4.196-8.393,8.393c0,5.036,3.357,8.393,8.393,8.393s8.393-3.357,8.393-8.393
			S198.085,352.273,193.049,352.273z"/>
	</g>
</g>
<g>
	<g>
		<path d="M243.409,301.913c-4.196-0.001-8.393,4.196-8.393,8.393c0,5.036,3.357,8.393,8.393,8.393s8.393-3.357,8.393-8.393
			S248.445,301.913,243.409,301.913z"/>
	</g>
</g>
<g>
	<g>
		<path d="M193.049,301.913c-4.197-0.001-8.393,4.196-8.393,8.393c0,5.036,3.357,8.393,8.393,8.393s8.393-3.357,8.393-8.393
			S198.085,301.913,193.049,301.913z"/>
	</g>
</g>
<g>
	<g>
		<path d="M218.229,327.093c-4.196-0.001-8.393,4.196-8.393,8.393c0,5.036,3.357,8.393,8.393,8.393s8.393-3.357,8.393-8.393
			S223.265,327.093,218.229,327.093z"/>
	</g>
</g>
<g>
	<g>
		<path d="M167.868,327.093c-4.196-0.001-8.393,4.196-8.393,8.393c0,5.036,3.357,8.393,8.393,8.393c5.036,0,8.393-3.357,8.393-8.393
			S172.904,327.093,167.868,327.093z"/>
	</g>
</g>
<g>
	<g>
		<path d="M218.229,276.732c-4.196,0-8.393,4.196-8.393,8.393c0,5.036,3.357,8.393,8.393,8.393s8.393-3.357,8.393-8.393
			S223.265,276.732,218.229,276.732z"/>
	</g>
</g>
<g>
	<g>
		<path d="M167.868,276.732c-4.196,0-8.393,4.196-8.393,8.393c0,5.036,3.357,8.393,8.393,8.393c5.036,0,8.393-3.357,8.393-8.393
			S172.904,276.732,167.868,276.732z"/>
	</g>
</g>
<g>
	<g>
		<path d="M142.688,352.273c-4.196,0-8.393,4.196-8.393,8.393c0,5.036,3.357,8.393,8.393,8.393s8.393-3.357,8.393-8.393
			S147.724,352.273,142.688,352.273z"/>
	</g>
</g>
<g>
	<g>
		<path d="M142.688,301.913c-4.196-0.001-8.393,4.196-8.393,8.393c0,5.036,3.357,8.393,8.393,8.393s8.393-3.357,8.393-8.393
			S147.724,301.913,142.688,301.913z"/>
	</g>
</g>
<g>
	<g>
		<path d="M117.508,327.093c-4.197-0.001-8.393,4.196-8.393,8.393c0,5.036,3.357,8.393,8.393,8.393s8.393-3.357,8.393-8.393
			S122.544,327.093,117.508,327.093z"/>
	</g>
</g>
<g>
	<g>
		<path d="M117.508,276.732c-4.197,0-8.393,4.196-8.393,8.393c0,5.036,3.357,8.393,8.393,8.393s8.393-3.357,8.393-8.393
			S122.544,276.732,117.508,276.732z"/>
	</g>
</g>
<g>
	<g>
		<path d="M243.409,251.552c-4.196-0.001-8.393,4.196-8.393,8.393c0,5.036,3.357,8.393,8.393,8.393s8.393-3.357,8.393-8.393
			C251.802,254.909,248.445,251.552,243.409,251.552z"/>
	</g>
</g>
<g>
	<g>
		<path d="M193.049,251.552c-4.197-0.001-8.393,4.196-8.393,8.393c0,5.036,3.357,8.393,8.393,8.393s8.393-3.357,8.393-8.393
			C201.442,254.909,198.085,251.552,193.049,251.552z"/>
	</g>
</g>
<g>
	<g>
		<path d="M142.688,251.552c-4.196-0.001-8.393,4.196-8.393,8.393c0,5.036,3.357,8.393,8.393,8.393s8.393-3.357,8.393-8.393
			C151.081,254.909,147.724,251.552,142.688,251.552z"/>
	</g>
</g>
<g transform="translate(1 1)">
	<g>
		<g>
			<path d="M469.033-1H32.574C14.108-1-1,14.108-1,32.574v436.459c0,18.465,15.108,33.574,33.574,33.574h436.459
				c18.465,0,33.574-15.109,33.574-33.574V32.574C502.607,14.108,487.499-1,469.033-1z M485.82,469.033
				c0,9.233-7.554,16.787-16.787,16.787H32.574c-9.233,0-16.787-7.554-16.787-16.787V32.574c0-9.233,7.554-16.787,16.787-16.787
				h436.459c9.233,0,16.787,7.554,16.787,16.787V469.033z"/>
			<path d="M49.361,32.574c-9.233,0-16.787,7.554-16.787,16.787c0,9.233,7.554,16.787,16.787,16.787
				c9.233,0,16.787-7.555,16.787-16.787C66.148,40.128,58.594,32.574,49.361,32.574z"/>
			<path d="M49.361,435.459c-9.233,0-16.787,7.554-16.787,16.787c0,9.233,7.554,16.787,16.787,16.787
				c9.233,0,16.787-7.554,16.787-16.787C66.148,443.013,58.594,435.459,49.361,435.459z"/>
			<path d="M452.246,32.574c-9.233,0-16.787,7.554-16.787,16.787c0,9.233,7.554,16.787,16.787,16.787
				c9.233,0,16.787-7.555,16.787-16.787C469.033,40.128,461.479,32.574,452.246,32.574z"/>
			<path d="M452.246,435.459c-9.233,0-16.787,7.554-16.787,16.787c0,9.233,7.554,16.787,16.787,16.787
				c9.233,0,16.787-7.554,16.787-16.787C469.033,443.013,461.479,435.459,452.246,435.459z"/>
			<path d="M175.262,141.688c-18.466,0-33.574,15.108-33.574,33.574s15.108,33.574,33.574,33.574s33.574-15.108,33.574-33.574
				S193.728,141.688,175.262,141.688z M175.262,192.049c-9.233,0-16.787-7.554-16.787-16.787c0-9.233,7.554-16.787,16.787-16.787
				c9.233,0,16.787,7.554,16.787,16.787C192.049,184.495,184.495,192.049,175.262,192.049z"/>
			<path d="M410.278,99.721c0-5.036-3.357-8.393-8.393-8.393H250.803h0H99.721c-5.036,0-8.393,3.357-8.393,8.393v151.082v0.001
				v151.082c0,5.036,3.357,8.393,8.393,8.393h151.082c0.143,0,0.28-0.012,0.42-0.018c0.14,0.005,0.277,0.018,0.42,0.018h150.242
				c5.036,0,8.394-3.358,8.394-8.394V250.803c0-0.008-0.001-0.015-0.001-0.023V99.721z M259.197,108.115h134.295V242.41H259.197
				V108.115z M108.115,108.115H242.41V242.41H108.115V108.115z M243.249,393.492H108.954V259.197h134.295V393.492z M394.331,393.492
				H260.036V259.197h134.295V393.492z"/>
			<path d="M326.344,359.918c5.036,0,8.394-3.357,8.393-8.393v-50.361c0-5.036-3.357-8.393-8.393-8.393s-8.393,3.357-8.393,8.393
				v50.361C317.951,356.561,321.308,359.918,326.344,359.918z"/>
		</g>
	</g>
</g>
<g>
</g>
<g>
</g>
<g>
</g>
<g>
</g>
<g>
</g>
<g>
</g>
<g>
</g>
<g>
</g>
<g>
</g>
<g>
</g>
<g>
</g>
<g>
</g>
<g>
</g>
<g>
</g>
<g>
</g>
</svg>
