<?xml version="1.0" encoding="iso-8859-1"?>
<!-- Generator: Adobe Illustrator 19.0.0, SVG Export Plug-In . SVG Version: 6.00 Build 0)  -->
<svg version="1.1" id="Layer_1" xmlns="http://www.w3.org/2000/svg" xmlns:xlink="http://www.w3.org/1999/xlink" x="0px" y="0px"
	 viewBox="0 0 503.607 503.607" style="enable-background:new 0 0 503.607 503.607;" xml:space="preserve">
<g>
	<g>
		<path d="M369.311,226.372c-4.196-0.001-8.393,4.196-8.393,8.393c0,5.036,3.357,8.393,8.393,8.393s8.393-3.357,8.393-8.393
			S374.347,226.372,369.311,226.372z"/>
	</g>
</g>
<g>
	<g>
		<path d="M318.95,226.372c-4.196-0.001-8.393,4.196-8.393,8.393c0,5.036,3.357,8.393,8.393,8.393s8.393-3.357,8.393-8.393
			S323.986,226.372,318.95,226.372z"/>
	</g>
</g>
<g>
	<g>
		<path d="M268.59,226.372c-4.197-0.001-8.393,4.196-8.393,8.393c0,5.036,3.357,8.393,8.393,8.393s8.393-3.357,8.393-8.393
			S273.626,226.372,268.59,226.372z"/>
	</g>
</g>
<g>
	<g>
		<path d="M394.491,201.191c-4.196,0-8.393,4.197-8.393,8.393c0,5.036,3.357,8.393,8.393,8.393s8.393-3.357,8.393-8.393
			S399.527,201.191,394.491,201.191z"/>
	</g>
</g>
<g>
	<g>
		<path d="M344.131,201.191c-4.197,0-8.393,4.197-8.393,8.393c0,5.036,3.357,8.393,8.393,8.393s8.393-3.357,8.393-8.393
			S349.167,201.191,344.131,201.191z"/>
	</g>
</g>
<g>
	<g>
		<path d="M394.491,150.831c-4.196-0.001-8.393,4.196-8.393,8.393c0,5.036,3.357,8.393,8.393,8.393s8.393-3.357,8.393-8.393
			S399.527,150.831,394.491,150.831z"/>
	</g>
</g>
<g>
	<g>
		<path d="M344.131,150.831c-4.197-0.001-8.393,4.196-8.393,8.393c0,5.036,3.357,8.393,8.393,8.393s8.393-3.357,8.393-8.393
			S349.167,150.831,344.131,150.831z"/>
	</g>
</g>
<g>
	<g>
		<path d="M369.311,176.011c-4.196-0.001-8.393,4.196-8.393,8.393c0,5.036,3.357,8.393,8.393,8.393s8.393-3.357,8.393-8.393
			S374.347,176.011,369.311,176.011z"/>
	</g>
</g>
<g>
	<g>
		<path d="M318.95,176.011c-4.196-0.001-8.393,4.196-8.393,8.393c0,5.036,3.357,8.393,8.393,8.393s8.393-3.357,8.393-8.393
			S323.986,176.011,318.95,176.011z"/>
	</g>
</g>
<g>
	<g>
		<path d="M369.311,125.65c-4.196,0-8.393,4.197-8.393,8.393c0,5.036,3.357,8.393,8.393,8.393s8.393-3.357,8.393-8.393
			C377.704,129.007,374.347,125.65,369.311,125.65z"/>
	</g>
</g>
<g>
	<g>
		<path d="M318.95,125.65c-4.196,0-8.393,4.197-8.393,8.393c0,5.036,3.357,8.393,8.393,8.393s8.393-3.357,8.393-8.393
			C327.343,129.007,323.986,125.65,318.95,125.65z"/>
	</g>
</g>
<g>
	<g>
		<path d="M293.77,201.191c-4.196,0-8.393,4.197-8.393,8.393c0,5.036,3.357,8.393,8.393,8.393s8.393-3.357,8.393-8.393
			S298.806,201.191,293.77,201.191z"/>
	</g>
</g>
<g>
	<g>
		<path d="M293.77,150.831c-4.196-0.001-8.393,4.196-8.393,8.393c0,5.036,3.357,8.393,8.393,8.393s8.393-3.357,8.393-8.393
			S298.806,150.831,293.77,150.831z"/>
	</g>
</g>
<g>
	<g>
		<path d="M268.59,176.011c-4.197-0.001-8.393,4.196-8.393,8.393c0,5.036,3.357,8.393,8.393,8.393s8.393-3.357,8.393-8.393
			S273.626,176.011,268.59,176.011z"/>
	</g>
</g>
<g>
	<g>
		<path d="M268.59,125.65c-4.197,0-8.393,4.197-8.393,8.393c0,5.036,3.357,8.393,8.393,8.393s8.393-3.357,8.393-8.393
			C276.983,129.007,273.626,125.65,268.59,125.65z"/>
	</g>
</g>
<g>
	<g>
		<path d="M394.491,100.47c-4.196,0-8.393,4.196-8.393,8.393c0,5.036,3.357,8.393,8.393,8.393s8.393-3.357,8.393-8.393
			C402.884,103.827,399.527,100.47,394.491,100.47z"/>
	</g>
</g>
<g>
	<g>
		<path d="M344.131,100.47c-4.197,0-8.393,4.196-8.393,8.393c0,5.036,3.357,8.393,8.393,8.393s8.393-3.357,8.393-8.393
			C352.524,103.827,349.167,100.47,344.131,100.47z"/>
	</g>
</g>
<g>
	<g>
		<path d="M293.77,100.47c-4.196,0-8.393,4.196-8.393,8.393c0,5.036,3.357,8.393,8.393,8.393s8.393-3.357,8.393-8.393
			C302.163,103.827,298.806,100.47,293.77,100.47z"/>
	</g>
</g>
<g>
	<g>
		<path d="M218.229,226.372c-4.196-0.001-8.393,4.196-8.393,8.393c0,5.036,3.357,8.393,8.393,8.393s8.393-3.357,8.393-8.393
			S223.265,226.372,218.229,226.372z"/>
	</g>
</g>
<g>
	<g>
		<path d="M167.868,226.372c-4.196-0.001-8.393,4.196-8.393,8.393c0,5.036,3.357,8.393,8.393,8.393c5.036,0,8.393-3.357,8.393-8.393
			S172.904,226.372,167.868,226.372z"/>
	</g>
</g>
<g>
	<g>
		<path d="M117.508,226.372c-4.197-0.001-8.393,4.196-8.393,8.393c0,5.036,3.357,8.393,8.393,8.393s8.393-3.357,8.393-8.393
			S122.544,226.372,117.508,226.372z"/>
	</g>
</g>
<g>
	<g>
		<path d="M243.409,201.191c-4.196,0-8.393,4.197-8.393,8.393c0,5.036,3.357,8.393,8.393,8.393s8.393-3.357,8.393-8.393
			S248.445,201.191,243.409,201.191z"/>
	</g>
</g>
<g>
	<g>
		<path d="M193.049,201.191c-4.197,0-8.393,4.197-8.393,8.393c0,5.036,3.357,8.393,8.393,8.393s8.393-3.357,8.393-8.393
			S198.085,201.191,193.049,201.191z"/>
	</g>
</g>
<g>
	<g>
		<path d="M243.409,150.831c-4.196-0.001-8.393,4.196-8.393,8.393c0,5.036,3.357,8.393,8.393,8.393s8.393-3.357,8.393-8.393
			S248.445,150.831,243.409,150.831z"/>
	</g>
</g>
<g>
	<g>
		<path d="M193.049,150.831c-4.197-0.001-8.393,4.196-8.393,8.393c0,5.036,3.357,8.393,8.393,8.393s8.393-3.357,8.393-8.393
			S198.085,150.831,193.049,150.831z"/>
	</g>
</g>
<g>
	<g>
		<path d="M218.229,176.011c-4.196-0.001-8.393,4.196-8.393,8.393c0,5.036,3.357,8.393,8.393,8.393s8.393-3.357,8.393-8.393
			S223.265,176.011,218.229,176.011z"/>
	</g>
</g>
<g>
	<g>
		<path d="M167.868,176.011c-4.196-0.001-8.393,4.196-8.393,8.393c0,5.036,3.357,8.393,8.393,8.393c5.036,0,8.393-3.357,8.393-8.393
			S172.904,176.011,167.868,176.011z"/>
	</g>
</g>
<g>
	<g>
		<path d="M218.229,125.65c-4.196,0-8.393,4.197-8.393,8.393c0,5.036,3.357,8.393,8.393,8.393s8.393-3.357,8.393-8.393
			C226.622,129.007,223.265,125.65,218.229,125.65z"/>
	</g>
</g>
<g>
	<g>
		<path d="M167.868,125.65c-4.196,0-8.393,4.197-8.393,8.393c0,5.036,3.357,8.393,8.393,8.393c5.036,0,8.393-3.357,8.393-8.393
			C176.261,129.007,172.904,125.65,167.868,125.65z"/>
	</g>
</g>
<g>
	<g>
		<path d="M142.688,201.191c-4.196,0-8.393,4.197-8.393,8.393c0,5.036,3.357,8.393,8.393,8.393s8.393-3.357,8.393-8.393
			S147.724,201.191,142.688,201.191z"/>
	</g>
</g>
<g>
	<g>
		<path d="M142.688,150.831c-4.196-0.001-8.393,4.196-8.393,8.393c0,5.036,3.357,8.393,8.393,8.393s8.393-3.357,8.393-8.393
			S147.724,150.831,142.688,150.831z"/>
	</g>
</g>
<g>
	<g>
		<path d="M117.508,176.011c-4.197-0.001-8.393,4.196-8.393,8.393c0,5.036,3.357,8.393,8.393,8.393s8.393-3.357,8.393-8.393
			S122.544,176.011,117.508,176.011z"/>
	</g>
</g>
<g>
	<g>
		<path d="M117.508,125.65c-4.197,0-8.393,4.197-8.393,8.393c0,5.036,3.357,8.393,8.393,8.393s8.393-3.357,8.393-8.393
			C125.901,129.007,122.544,125.65,117.508,125.65z"/>
	</g>
</g>
<g>
	<g>
		<path d="M243.409,100.47c-4.196,0-8.393,4.196-8.393,8.393c0,5.036,3.357,8.393,8.393,8.393s8.393-3.357,8.393-8.393
			C251.802,103.827,248.445,100.47,243.409,100.47z"/>
	</g>
</g>
<g>
	<g>
		<path d="M193.049,100.47c-4.197,0-8.393,4.196-8.393,8.393c0,5.036,3.357,8.393,8.393,8.393s8.393-3.357,8.393-8.393
			C201.442,103.827,198.085,100.47,193.049,100.47z"/>
	</g>
</g>
<g>
	<g>
		<path d="M142.688,100.47c-4.196,0-8.393,4.196-8.393,8.393c0,5.036,3.357,8.393,8.393,8.393s8.393-3.357,8.393-8.393
			C151.081,103.827,147.724,100.47,142.688,100.47z"/>
	</g>
</g>
<g transform="translate(1 1)">
	<g>
		<g>
			<path d="M469.033-1H32.574C14.108-1-1,14.108-1,32.574v436.459c0,18.465,15.108,33.574,33.574,33.574h436.459
				c18.465,0,33.574-15.109,33.574-33.574V32.574C502.607,14.108,487.499-1,469.033-1z M485.82,469.033
				c0,9.233-7.554,16.787-16.787,16.787H32.574c-9.233,0-16.787-7.554-16.787-16.787V32.574c0-9.233,7.554-16.787,16.787-16.787
				h436.459c9.233,0,16.787,7.554,16.787,16.787V469.033z"/>
			<path d="M49.361,32.574c-9.233,0-16.787,7.554-16.787,16.787c0,9.233,7.554,16.787,16.787,16.787
				c9.233,0,16.787-7.555,16.787-16.787C66.148,40.128,58.594,32.574,49.361,32.574z"/>
			<path d="M49.361,435.459c-9.233,0-16.787,7.554-16.787,16.787c0,9.233,7.554,16.787,16.787,16.787
				c9.233,0,16.787-7.554,16.787-16.787C66.148,443.013,58.594,435.459,49.361,435.459z"/>
			<path d="M452.246,32.574c-9.233,0-16.787,7.554-16.787,16.787c0,9.233,7.554,16.787,16.787,16.787
				c9.233,0,16.787-7.555,16.787-16.787C469.033,40.128,461.479,32.574,452.246,32.574z"/>
			<path d="M452.246,435.459c-9.233,0-16.787,7.554-16.787,16.787c0,9.233,7.554,16.787,16.787,16.787
				c9.233,0,16.787-7.554,16.787-16.787C469.033,443.013,461.479,435.459,452.246,435.459z"/>
			<path d="M175.262,292.519c-5.036,0-8.393,3.357-8.393,8.393v50.361c0,5.036,3.357,8.393,8.393,8.393s8.394-3.357,8.393-8.393
				v-50.361C183.655,295.876,180.298,292.519,175.262,292.519z"/>
			<path d="M410.278,250.551V99.469c0-5.036-3.357-8.393-8.393-8.393H250.803c-0.793,0-1.538,0.092-2.241,0.252H99.721
				c-5.036,0-8.393,3.357-8.393,8.393v150.83v0.253v150.83c0,5.036,3.357,8.393,8.393,8.393h149.681
				c0.703,0.16,1.448,0.252,2.241,0.252h150.242c5.036,0,8.394-3.358,8.394-8.394V250.803c0-0.047-0.005-0.091-0.006-0.137
				C410.274,250.627,410.278,250.59,410.278,250.551z M259.197,107.863h134.295v134.295H259.197V107.863z M242.41,108.115v134.043
				H108.115V108.115H242.41z M108.954,393.24V259.197h134.295V393.24H108.954z M394.331,393.492H260.036V259.197h134.295V393.492z"
				/>
			<path d="M326.344,359.918c5.036,0,8.394-3.357,8.393-8.393v-50.361c0-5.036-3.357-8.393-8.393-8.393s-8.393,3.357-8.393,8.393
				v50.361C317.951,356.561,321.308,359.918,326.344,359.918z"/>
		</g>
	</g>
</g>
<g>
</g>
<g>
</g>
<g>
</g>
<g>
</g>
<g>
</g>
<g>
</g>
<g>
</g>
<g>
</g>
<g>
</g>
<g>
</g>
<g>
</g>
<g>
</g>
<g>
</g>
<g>
</g>
<g>
</g>
</svg>
