<?xml version="1.0" encoding="iso-8859-1"?>
<!-- Generator: Adobe Illustrator 19.0.0, SVG Export Plug-In . SVG Version: 6.00 Build 0)  -->
<svg version="1.1" id="Layer_1" xmlns="http://www.w3.org/2000/svg" xmlns:xlink="http://www.w3.org/1999/xlink" x="0px" y="0px"
	 viewBox="0 0 503.607 503.607" style="enable-background:new 0 0 503.607 503.607;" xml:space="preserve">
<g transform="translate(1 1)">
	<g>
		<g>
			<path d="M242.41,227.46h-16.787c-28.538,0-55.397,5.875-79.738,18.466c-4.197,1.679-5.036,6.715-3.357,10.911
				c1.679,2.518,4.197,4.197,7.554,4.197c1.679,0,2.518,0,4.197,0c21.823-10.911,46.164-16.787,71.344-16.787h16.787
				c5.036,0,8.393-3.357,8.393-8.393S247.446,227.46,242.41,227.46z"/>
			<path d="M110.633,268.588c-12.59,10.911-23.502,23.502-32.734,36.931c-2.518,4.197-1.679,9.233,2.518,11.751
				c1.679,0.839,3.357,1.679,5.036,1.679c2.518,0,5.875-1.679,6.715-4.197c8.393-12.59,18.466-23.502,29.377-33.574
				c3.357-3.357,4.197-8.393,0.839-11.751S113.99,265.231,110.633,268.588z"/>
			<path d="M71.184,335.736c-4.197-1.679-9.233,0.839-10.911,5.036c-3.357,9.233-5.875,17.626-7.554,26.859
				c-0.839,5.036,2.518,9.233,6.715,10.072c0.839,0,0.839,0,1.679,0c4.197,0,7.554-2.518,8.393-7.554
				c1.679-7.554,4.197-15.948,6.715-23.502C77.898,342.451,75.38,337.414,71.184,335.736z"/>
			<path d="M494.213,176.26h-33.574c-5.036,0-8.393,3.357-8.393,8.393v8.393h-83.934v-33.574c0-5.036-3.357-8.393-8.393-8.393
				h-16.787v-16.786c14.183,0.635,28.295,2.857,41.967,6.713c10.072,3.357,20.144,0.839,28.538-5.036
				c8.393-5.875,13.43-15.948,13.43-26.02v-26.02c0-8.393-4.197-16.787-10.072-21.823c-7.554-5.036-15.948-6.715-24.341-4.197
				l-13.43,4.197c-28.538,6.715-58.754,6.715-87.292,0l-14.269-4.197c-8.393-2.518-17.626-0.839-24.341,4.197
				c-6.715,5.036-10.911,13.43-10.911,21.823v26.02c0,10.072,5.036,20.144,13.43,26.02c5.875,4.197,12.59,6.715,19.305,6.715
				c3.357,0,5.875,0,9.233-1.679c13.672-3.856,27.784-6.078,41.967-6.713v16.786h-16.787c-5.036,0-8.393,3.357-8.393,8.393v33.574
				h-75.541c-113.017,0-205.241,89.501-209.654,201.443H7.393c-5.036,0-8.393,3.357-8.393,8.393v33.574
				c0,5.036,3.357,8.393,8.393,8.393h134.295c5.036,0,8.393-3.357,8.393-8.393v-33.574c0-5.036-3.357-8.393-8.393-8.393h-8.014
				c4.207-47.227,43.58-83.934,91.949-83.934h226.623v8.393c0,5.036,3.357,8.393,8.393,8.393h33.574
				c5.036,0,8.393-3.357,8.393-8.393V184.654C502.607,179.618,499.249,176.26,494.213,176.26z M280.18,125.06
				c-5.036,1.679-10.072,0.839-14.269-2.518c-4.197-2.518-6.715-7.554-6.715-12.59v-26.02c0-3.357,1.679-6.715,4.197-8.393
				c2.518-1.679,5.875-2.518,9.233-1.679l14.269,4.197c31.056,7.554,64.63,7.554,95.685,0l14.269-4.197
				c3.357-0.839,6.715,0,9.233,1.679c2.518,1.679,4.197,5.036,4.197,8.393v26.02c0,5.036-2.518,10.072-5.875,12.59
				c-4.197,3.357-9.233,4.197-14.269,2.518c-18.466-5.036-36.931-7.554-55.397-7.554C316.272,117.506,297.807,120.024,280.18,125.06
				z M317.951,167.867h33.574v25.18h-33.574V167.867z M133.295,428.064H15.787v-16.787h8.393h100.721h8.393V428.064z
				 M225.623,293.769c-57.915,0-104.918,44.485-109.115,100.721H32.574c5.036-102.4,89.81-184.656,193.049-184.656h83.934h50.361
				h92.328v16.787H292.771c-5.036,0-8.393,3.357-8.393,8.393s3.357,8.393,8.393,8.393h159.475v50.361H225.623z M485.82,310.555
				h-16.787v-8.393V201.441v-8.393h16.787V310.555z"/>
		</g>
	</g>
</g>
<g>
</g>
<g>
</g>
<g>
</g>
<g>
</g>
<g>
</g>
<g>
</g>
<g>
</g>
<g>
</g>
<g>
</g>
<g>
</g>
<g>
</g>
<g>
</g>
<g>
</g>
<g>
</g>
<g>
</g>
</svg>
