<?xml version="1.0" encoding="iso-8859-1"?>
<!-- Generator: Adobe Illustrator 19.0.0, SVG Export Plug-In . SVG Version: 6.00 Build 0)  -->
<svg version="1.1" id="Layer_1" xmlns="http://www.w3.org/2000/svg" xmlns:xlink="http://www.w3.org/1999/xlink" x="0px" y="0px"
	 viewBox="0 0 503.607 503.607" style="enable-background:new 0 0 503.607 503.607;" xml:space="preserve">
<g transform="translate(1 1)">
	<g>
		<g>
			<path d="M301.164,82.934c1.679,0,4.197-0.839,5.875-1.679l39.449-31.895h147.725c5.036,0,8.393-3.357,8.393-8.393V7.393
				c0-5.036-3.357-8.393-8.393-8.393H326.344c-1.679,0-3.357,0.839-5.875,1.679L281.02,32.574h-5.036V24.18
				c0-14.269-10.911-25.18-25.18-25.18c-14.269,0-25.18,10.911-25.18,25.18v8.393h-8.393c-5.036,0-8.393,3.357-8.393,8.393v33.574
				v25.18h-16.787C58.593,99.721-1,212.193-1,292.771c0,5.036,3.357,8.393,8.393,8.393h100.721c5.036,0,8.393-3.357,8.393-8.393
				c0-19.305,14.269-75.541,75.541-75.541h117.508c19.305,0,75.541,14.269,75.541,75.541v200.603c0,5.036,3.357,8.393,8.393,8.393
				c5.036,0,8.393-3.357,8.393-8.393V291.931c0-67.148-55.397-88.131-83.934-91.489v-83.934
				c72.184,4.197,167.869,59.593,167.869,176.262v201.443c0,5.036,3.357,8.393,8.393,8.393c5.036,0,8.393-3.357,8.393-8.393V292.771
				c0-133.456-112.472-193.049-193.049-193.049h-16.787V82.934H301.164z M242.41,24.18c0-5.036,3.357-8.393,8.393-8.393
				s8.393,3.357,8.393,8.393v8.393H242.41V24.18z M225.623,49.361h8.393h33.574h16.787c1.679,0,4.197-0.839,5.875-1.679
				l39.449-31.895H485.82v16.787H343.131c-1.679,0-3.357,0.839-5.875,1.679l-39.449,31.895h-13.429h-58.754V49.361z
				 M182.816,200.443c-61.272,5.036-79.738,56.236-83.095,83.934H15.787c4.197-70.505,57.075-162.833,167.029-167.869V200.443z
				 M301.164,200.443H200.443v-83.934h16.787h67.148h16.787V200.443z M275.984,99.721h-50.361V82.934h50.361V99.721z"/>
			<path d="M32.574,418.672c-5.036,0-8.393,3.357-8.393,8.393v16.787c0,5.036,3.357,8.393,8.393,8.393s8.393-3.357,8.393-8.393
				v-16.787C40.967,422.03,37.61,418.672,32.574,418.672z"/>
			<path d="M32.574,317.951c-5.036,0-8.393,3.357-8.393,8.393v16.787c0,5.036,3.357,8.393,8.393,8.393s8.393-3.357,8.393-8.393
				v-16.787C40.967,321.308,37.61,317.951,32.574,317.951z"/>
			<path d="M32.574,469.033c-5.036,0-8.393,3.357-8.393,8.393v16.787c0,5.036,3.357,8.393,8.393,8.393s8.393-3.357,8.393-8.393
				v-16.787C40.967,472.39,37.61,469.033,32.574,469.033z"/>
			<path d="M32.574,368.311c-5.036,0-8.393,3.357-8.393,8.393v16.787c0,5.036,3.357,8.393,8.393,8.393s8.393-3.357,8.393-8.393
				v-16.787C40.967,371.669,37.61,368.311,32.574,368.311z"/>
			<path d="M74.541,469.033c-5.036,0-8.393,3.357-8.393,8.393v16.787c0,5.036,3.357,8.393,8.393,8.393s8.393-3.357,8.393-8.393
				v-16.787C82.934,472.39,79.577,469.033,74.541,469.033z"/>
			<path d="M74.541,317.951c-5.036,0-8.393,3.357-8.393,8.393v16.787c0,5.036,3.357,8.393,8.393,8.393s8.393-3.357,8.393-8.393
				v-16.787C82.934,321.308,79.577,317.951,74.541,317.951z"/>
			<path d="M74.541,368.311c-5.036,0-8.393,3.357-8.393,8.393v16.787c0,5.036,3.357,8.393,8.393,8.393s8.393-3.357,8.393-8.393
				v-16.787C82.934,371.669,79.577,368.311,74.541,368.311z"/>
			<path d="M74.541,418.672c-5.036,0-8.393,3.357-8.393,8.393v16.787c0,5.036,3.357,8.393,8.393,8.393s8.393-3.357,8.393-8.393
				v-16.787C82.934,422.03,79.577,418.672,74.541,418.672z"/>
		</g>
	</g>
</g>
<g>
</g>
<g>
</g>
<g>
</g>
<g>
</g>
<g>
</g>
<g>
</g>
<g>
</g>
<g>
</g>
<g>
</g>
<g>
</g>
<g>
</g>
<g>
</g>
<g>
</g>
<g>
</g>
<g>
</g>
</svg>
