<?xml version="1.0" encoding="iso-8859-1"?>
<!-- Generator: Adobe Illustrator 19.0.0, SVG Export Plug-In . SVG Version: 6.00 Build 0)  -->
<svg version="1.1" id="Layer_1" xmlns="http://www.w3.org/2000/svg" xmlns:xlink="http://www.w3.org/1999/xlink" x="0px" y="0px"
	 viewBox="0 0 504.553 504.553" style="enable-background:new 0 0 504.553 504.553;" xml:space="preserve">
<g transform="translate(1 1)">
	<g>
		<g>
			<path d="M387.81,354.22c-1.707-3.413-4.267-5.12-7.68-5.12s-5.973,1.707-7.68,5.12c0,0-15.36,32.427-21.333,45.227
				c-3.413,7.68-6.827,14.507-5.12,24.747c2.56,13.653,13.653,24.747,27.307,27.307c1.707,0.853,4.267,0.853,5.973,0.853
				c7.68,0,16.213-2.56,23.04-8.533c7.68-6.827,11.947-16.213,11.947-26.453c0-6.827-1.707-11.093-4.267-16.213
				C404.877,389.207,388.663,355.927,387.81,354.22z M390.37,431.873c-4.267,3.413-9.387,4.267-14.507,3.413
				c-6.827-1.707-12.8-6.827-13.653-13.653c-0.853-4.267,0-7.68,3.413-14.507c3.413-6.827,9.387-18.773,13.653-29.013
				c5.12,11.093,11.947,24.747,14.507,31.573c1.707,4.267,2.56,6.827,2.56,9.387C396.343,424.193,394.637,428.46,390.37,431.873z"/>
			<path d="M459.49,93.953c17.067,0,30.72-13.653,30.72-30.72c0-16.213-11.947-29.013-28.16-31.573L131.81-0.767
				C107.917-2.473,84.023,5.207,66.103,21.42c-17.92,16.213-28.16,40.107-28.16,64v368.021c-14.679,3.814-25.6,17.216-25.6,33.046
				v8.533c0,5.12,3.413,8.533,8.533,8.533h170.667c5.12,0,8.533-3.413,8.533-8.533v-8.533c0-15.829-10.921-29.232-25.6-33.046
				v-77.034c0-32.427,12.8-63.147,34.987-83.627c25.6-23.893,58.88-36.693,93.013-36.693c0.853,0,0.853,0,1.707,0h23.893v25.6
				c0,5.12,3.413,8.533,8.533,8.533h85.333c5.12,0,8.533-3.413,8.533-8.533v-25.6h25.6c5.12,0,8.533-3.413,8.533-8.533v-75.947
				c0-19.627-16.213-34.987-34.987-34.987H302.477c-44.373,0-87.893,12.8-128,35.84V93.953H459.49z M78.05,34.22
				c13.653-12.8,33.28-18.773,52.907-17.067L460.343,49.58c7.68,0.853,12.8,6.827,12.8,13.653c0,7.68-5.973,13.653-13.653,13.653
				H165.943H55.863C57.57,60.673,65.25,45.313,78.05,34.22z M183.01,486.487H29.41c0-9.387,7.68-17.067,17.067-17.067h119.467
				C175.33,469.42,183.01,477.1,183.01,486.487z M413.41,273.153h-68.267v-17.067h68.267V273.153z M162.53,194.647
				c2.56,1.707,5.973,1.707,8.533,0c40.107-26.453,86.187-40.96,131.413-40.96h128c10.24,0,17.92,8.533,17.92,17.92v67.413h-26.453
				H336.61h-33.28c-0.853,0-0.853,0-1.707,0c-38.4,0-75.093,14.507-103.253,40.96c-26.453,23.893-40.96,59.733-40.96,96.427v75.947
				H89.143v-25.6c0-5.12-3.413-8.533-8.533-8.533s-8.533,3.413-8.533,8.533v25.6H55.01v-358.4h17.067v17.067
				c0,5.12,3.413,8.533,8.533,8.533s8.533-3.413,8.533-8.533V93.953h68.267v93.867C157.41,191.233,159.117,193.793,162.53,194.647z"
				/>
			<path d="M80.61,281.687c-5.12,0-8.533,3.413-8.533,8.533v68.267c0,5.12,3.413,8.533,8.533,8.533s8.533-3.413,8.533-8.533V290.22
				C89.143,285.1,85.73,281.687,80.61,281.687z"/>
			<path d="M80.61,384.087c-5.12,0-8.533,3.413-8.533,8.533c0,5.12,3.413,8.533,8.533,8.533s8.533-3.413,8.533-8.533
				C89.143,388.353,85.73,384.087,80.61,384.087z"/>
			<path d="M80.61,153.687c-5.12,0-8.533,3.413-8.533,8.533v85.333c0,5.12,3.413,8.533,8.533,8.533s8.533-3.413,8.533-8.533V162.22
				C89.143,157.1,85.73,153.687,80.61,153.687z"/>
		</g>
	</g>
</g>
<g>
</g>
<g>
</g>
<g>
</g>
<g>
</g>
<g>
</g>
<g>
</g>
<g>
</g>
<g>
</g>
<g>
</g>
<g>
</g>
<g>
</g>
<g>
</g>
<g>
</g>
<g>
</g>
<g>
</g>
</svg>
