<?xml version="1.0" encoding="iso-8859-1"?>
<!-- Generator: Adobe Illustrator 19.0.0, SVG Export Plug-In . SVG Version: 6.00 Build 0)  -->
<svg version="1.1" id="Layer_1" xmlns="http://www.w3.org/2000/svg" xmlns:xlink="http://www.w3.org/1999/xlink" x="0px" y="0px"
	 viewBox="0 0 510.972 510.972" style="enable-background:new 0 0 510.972 510.972;" xml:space="preserve">
<g transform="translate(1 1)">
	<g>
		<g>
			<path d="M499.053,269.037l-12.8-26.453c-11.093-22.187-11.947-48.64-3.413-71.68l10.24-29.867c0.853-2.56,0.853-5.12-0.853-7.68
				c-1.707-1.707-4.267-3.413-6.827-3.413H383c-3.413,0-6.827,2.56-8.533,5.973l-9.387,29.013
				c-10.24,28.16-8.533,58.88,4.267,85.333l12.8,26.453c11.093,22.187,11.947,48.64,3.413,71.68l-8.068,22.187h-84.945l2.56-2.56
				c11.411-11.411,18.061-25.537,19.902-40.107H331.8v17.067c0,5.12,3.413,8.533,8.533,8.533c5.12,0,8.533-4.267,8.533-8.533v-51.2
				c0-5.12-3.413-8.533-8.533-8.533c-5.12,0-8.533,3.413-8.533,8.533v17.067h-16.834c-1.345-10.193-5.064-20.167-11.182-29.157
				l33.136-33.136c3.413-3.413,3.413-8.533,0-11.947l-36.481-37.226c10.484-19.364,13.047-41.35,8.321-62.615
				c-5.12-23.04-18.773-42.667-39.253-55.467c-17.067-10.24-36.693-13.653-55.467-9.387s-34.987,16.213-45.227,32.427
				c-8.533,13.653-11.093,29.867-7.68,45.227c3.413,15.36,12.8,29.013,26.453,37.547c11.093,6.827,24.747,9.387,37.547,5.973
				s23.893-11.093,30.72-22.187c5.973-9.387,7.68-20.48,5.12-31.573c-2.56-10.24-9.387-19.627-18.773-25.6
				c-16.213-10.24-37.547-5.12-47.787,11.093c-2.56,4.267-1.707,9.387,2.56,11.947s9.387,1.707,11.947-2.56
				c5.12-8.533,16.213-11.093,24.747-5.973c5.973,3.413,10.24,8.533,11.093,15.36s0,13.653-3.413,18.773
				c-5.12,7.68-11.947,12.8-20.48,14.507s-17.067,0-24.747-4.267c-20.48-11.947-26.453-39.253-13.653-58.88
				c7.68-12.8,20.48-21.333,34.987-24.747c14.507-3.413,29.013-0.853,41.813,6.827c34.133,20.48,44.373,65.707,23.04,98.987
				c0,0,0,0,0,0L106.52,370.584H92.867v-56.228c24.955-10.182,42.667-34.736,42.667-63.239c0-37.547-30.72-68.267-68.267-68.267
				S-1,213.571-1,251.117c0,28.504,17.712,53.058,42.667,63.239v56.227c-14.507,0-25.6,11.093-25.6,25.6v17.067
				c0,14.507,11.093,25.6,25.6,25.6h426.667c14.507,0,25.6-11.947,25.6-25.6v-33.067l9.387-25.813
				C513.56,326.211,511.853,295.491,499.053,269.037z M396.653,269.037l-12.8-26.453c-11.093-22.187-11.947-48.64-3.413-71.68
				l8.533-23.893h84.48l-5.973,17.067c-10.24,28.16-8.533,58.88,4.267,85.333l12.8,26.453c11.093,22.187,11.947,48.64,3.413,71.68
				l-8.533,23.04h-84.48l5.973-16.213C411.16,326.211,409.453,295.491,396.653,269.037z M298.098,316.445
				c-0.277,0.898-0.431,1.879-0.431,2.939c0,0.98,0.127,1.897,0.366,2.74c-0.809,12.175-5.86,24.088-14.872,33.1l-15.36,15.36
				h-52.907l76.8-76.8C295.663,300.807,297.765,308.596,298.098,316.445z M289.133,211.864L319,242.584l-128,128h-60.587
				L289.133,211.864z M16.067,251.117c0-28.16,23.04-51.2,51.2-51.2c28.16,0,51.2,22.187,51.2,51.2c0,28.16-23.04,51.2-51.2,51.2
				C39.107,302.317,16.067,279.277,16.067,251.117z M58.733,319.384H75.8v51.2H58.733V319.384z M476.867,413.251
				c0,5.12-3.413,8.533-8.533,8.533H41.667c-5.12,0-8.533-3.413-8.533-8.533v-17.067c0-5.12,3.413-8.533,8.533-8.533H50.2h34.133
				h25.6h84.48h76.8H383h93.867V413.251z"/>
			<path d="M75.8,225.517c0-5.12-3.413-8.533-8.533-8.533c-18.773,0-34.133,15.36-34.133,34.133c0,5.12,3.413,8.533,8.533,8.533
				s8.533-4.267,8.533-8.533c0-9.387,7.68-17.067,17.067-17.067C72.387,234.051,75.8,230.637,75.8,225.517z"/>
			<path d="M434.2,199.917c0-9.387-7.68-17.067-17.067-17.067s-17.067,7.68-17.067,17.067s7.68,17.067,17.067,17.067
				S434.2,209.304,434.2,199.917z"/>
			<path d="M451.267,336.451c9.387,0,17.067-7.68,17.067-17.067s-7.68-17.067-17.067-17.067c-9.387,0-17.067,7.68-17.067,17.067
				S441.88,336.451,451.267,336.451z"/>
		</g>
	</g>
</g>
<g>
</g>
<g>
</g>
<g>
</g>
<g>
</g>
<g>
</g>
<g>
</g>
<g>
</g>
<g>
</g>
<g>
</g>
<g>
</g>
<g>
</g>
<g>
</g>
<g>
</g>
<g>
</g>
<g>
</g>
</svg>
