<?xml version="1.0" encoding="iso-8859-1"?>
<!-- Generator: Adobe Illustrator 19.0.0, SVG Export Plug-In . SVG Version: 6.00 Build 0)  -->
<svg version="1.1" id="Layer_1" xmlns="http://www.w3.org/2000/svg" xmlns:xlink="http://www.w3.org/1999/xlink" x="0px" y="0px"
	 viewBox="0 0 512 512" style="enable-background:new 0 0 512 512;" xml:space="preserve">
<g transform="translate(1 1)">
	<g>
		<g>
			<path d="M273.773,1.56c-12.8-3.413-25.6-3.413-38.4,0C170.52,22.04,127,80.92,127,149.187v92.16
				c0,11.947,8.533,22.187,20.48,24.747l40.96,9.387c13.382,2.974,27.411,4.65,40.96,5.033v41.047l-16.213,32.427
				c-0.853,0.853-0.853,1.707-0.853,3.413v110.933C212.333,492.227,231.107,511,255,511c23.893,0,42.667-18.773,42.667-42.667V357.4
				c0-1.707,0-2.56-0.853-3.413L280.6,321.56v-41.031c13.663-0.337,27.401-2.015,41.813-5.049l40.96-9.387
				c11.093-2.56,19.627-12.8,19.627-24.747v-92.16C383,80.92,339.48,22.04,273.773,1.56z M263.533,241.347v30.72v42.667h-17.067
				v-42.667v-30.72l8.533-8.533L263.533,241.347z M280.6,468.333c0,14.507-11.093,25.6-25.6,25.6c-14.507,0-25.6-11.093-25.6-25.6
				h17.067c5.12,0,8.533-3.413,8.533-8.533c0-5.12-3.413-8.533-8.533-8.533H229.4V434.2h17.067c5.12,0,8.533-3.413,8.533-8.533
				s-3.413-8.533-8.533-8.533H229.4v-58.027l13.653-27.307h23.893l13.653,27.307V468.333z M365.933,241.347
				c0,4.267-2.56,7.68-6.827,8.533l-40.96,9.387c-12.8,2.56-24.747,4.267-37.547,4.267v-25.6c0-2.56-0.853-4.267-2.56-5.973
				l-17.067-17.067c-1.705-1.704-3.409-2.557-5.964-2.56c-2.136-0.002-4.273,0.85-5.982,2.56L231.96,231.96
				c-1.707,1.707-2.56,3.413-2.56,5.973v25.6c-12.8,0-24.747-1.707-37.547-4.267l-40.96-9.387c-4.267-0.853-6.827-4.267-6.827-8.533
				v-92.16c0-60.587,39.253-113.493,97.28-131.413c9.387-2.56,18.773-2.56,28.16,0c57.173,17.92,96.427,70.827,96.427,131.413
				V241.347z"/>
			<path d="M243.907,33.133c-47.787,15.36-80.213,58.027-82.773,110.933c0,4.267,3.413,8.533,8.533,8.533
				c5.12,0,8.533-3.413,8.533-8.533c1.707-44.373,29.867-81.92,69.973-94.72c5.12-0.853,7.68-5.973,5.973-10.24
				C253.293,33.987,248.173,31.427,243.907,33.133z"/>
		</g>
	</g>
</g>
<g>
</g>
<g>
</g>
<g>
</g>
<g>
</g>
<g>
</g>
<g>
</g>
<g>
</g>
<g>
</g>
<g>
</g>
<g>
</g>
<g>
</g>
<g>
</g>
<g>
</g>
<g>
</g>
<g>
</g>
</svg>
