<?xml version="1.0" encoding="iso-8859-1"?>
<!-- Generator: Adobe Illustrator 19.0.0, SVG Export Plug-In . SVG Version: 6.00 Build 0)  -->
<svg version="1.1" id="Layer_1" xmlns="http://www.w3.org/2000/svg" xmlns:xlink="http://www.w3.org/1999/xlink" x="0px" y="0px"
	 viewBox="0 0 512 512" style="enable-background:new 0 0 512 512;" xml:space="preserve">
<g transform="translate(1 1)">
	<g>
		<path d="M397.507,73.24C364.227,26.307,312.173-1,255-1S145.773,25.453,112.493,72.387c-3.413,5.12-3.413,11.093,0,16.213
			c3.413,5.12,9.387,7.68,15.36,5.973c5.12-0.853,10.24-1.707,16.213-1.707c40.96,0,68.267,34.133,68.267,85.333v44.634
			c-5.047,2.098-9.593,5.703-12.8,9.979c-5.12,6.827-5.973,16.213-2.56,24.747l6.827,17.067c0,0.853,0.853,1.707,0.853,1.707
			c9.387,16.213,10.24,35.84,2.56,62.293c-2.56,5.973-3.413,12.8-3.413,18.773v110.933c0,23.893,18.773,42.667,42.667,42.667h17.067
			c23.893,0,42.667-18.773,41.813-43.52V356.547c0-5.973-0.853-12.8-3.413-17.92c-7.68-24.747-6.827-46.933,2.56-62.293
			c0.853,0,0.853-0.853,0.853-0.853l6.827-17.92c3.413-7.68,2.56-17.067-2.56-24.747c-3.024-4.537-7.244-7.871-11.947-9.849V178.2
			c0-51.2,27.307-85.333,68.267-85.333c6.827,0,11.947,0.853,16.213,2.56c5.973,0.853,11.947-0.853,15.36-5.973
			C400.92,84.333,400.92,78.36,397.507,73.24z M296.813,251.587l-6.827,17.067c-11.093,18.773-12.8,46.08-3.413,75.947
			c1.707,4.267,2.56,8.533,2.56,12.8v110.933c0,13.653-11.093,25.6-25.6,25.6h-17.067c-13.653,0-25.6-11.093-25.6-25.6v-17.067
			h17.067c5.12,0,8.533-3.413,8.533-8.533s-3.413-8.533-8.533-8.533h-17.067v-17.067h17.067c5.12,0,8.533-3.413,8.533-8.533
			s-3.413-8.533-8.533-8.533h-17.067V357.4c0-4.267,0.853-8.533,2.56-12.8v-0.853c8.533-31.573,7.68-55.467-3.413-75.093
			l-6.827-17.067c-1.707-3.413-1.707-6.827,0.853-9.387s5.12-4.267,8.533-4.267h65.707c2.56,0,5.973,1.707,7.68,4.267
			C297.667,245.613,297.667,248.173,296.813,251.587z M365.933,75.8c-50.347,0-85.333,41.813-85.333,102.4v42.667h-51.2V178.2
			c0-60.587-34.987-102.4-85.333-102.4c-4.267,0-8.533,0-12.8,0.853C161.133,37.4,205.507,16.067,255,16.067
			c50.347,0,93.867,21.333,123.733,60.587C375.32,75.8,371.053,75.8,365.933,75.8z"/>
	</g>
</g>
<g>
</g>
<g>
</g>
<g>
</g>
<g>
</g>
<g>
</g>
<g>
</g>
<g>
</g>
<g>
</g>
<g>
</g>
<g>
</g>
<g>
</g>
<g>
</g>
<g>
</g>
<g>
</g>
<g>
</g>
</svg>
