<?xml version="1.0" encoding="iso-8859-1"?>
<!-- Generator: Adobe Illustrator 19.0.0, SVG Export Plug-In . SVG Version: 6.00 Build 0)  -->
<svg version="1.1" id="Layer_1" xmlns="http://www.w3.org/2000/svg" xmlns:xlink="http://www.w3.org/1999/xlink" x="0px" y="0px"
	 viewBox="0 0 512 512" style="enable-background:new 0 0 512 512;" xml:space="preserve">
<g transform="translate(1 1)">
	<g>
		<path d="M347.16,201.24L272.067,10.947C269.507,3.267,262.68-1,255-1c-7.68,0-14.507,5.12-17.067,11.947L162.84,201.24
			c-3.413,8.533-2.56,17.067,2.56,24.747c5.12,7.68,13.653,11.947,22.187,11.947h58.88V306.2h-23.893
			c-9.387,0-17.92,4.267-23.04,11.947c-5.12,6.827-5.973,16.213-2.56,24.747l6.827,17.067c0,0.853,0.853,1.707,0.853,1.707
			c9.387,16.213,10.24,35.84,2.56,62.293c-2.56,5.12-3.413,11.947-3.413,18.773v19.627c0,26.453,22.187,48.64,48.64,48.64h5.12
			c26.453,0,48.64-22.187,48.64-48.64v-19.627c0-6.827-0.853-12.8-3.413-18.773c-6.827-24.747-6.827-46.933,2.56-62.293
			c0.853,0,0.853-0.853,0.853-0.853l6.827-17.92c3.413-7.68,2.56-17.067-2.56-24.747c-5.12-7.68-13.653-11.947-22.187-11.947
			h-24.747v-68.267h58.88c8.533,0,17.067-4.267,22.187-11.947C349.72,218.307,350.573,209.773,347.16,201.24z M295.96,327.533
			c1.707,3.413,1.707,5.973,0.853,9.387l-6.827,17.067c-11.093,18.773-12.8,46.08-3.413,75.947c1.707,4.267,2.56,8.533,2.56,12.8
			v19.627c0,17.067-13.653,31.573-31.573,31.573h-5.12c-11.882,0-22.517-7.035-27.885-17.067h13.379c5.12,0,8.533-3.413,8.533-8.533
			s-3.413-8.533-8.533-8.533h-17.067v-17.067h17.067c5.12,0,8.533-3.413,8.533-8.533s-3.413-8.533-8.533-8.533h-13.616
			c7.563-29.89,6.386-52.768-4.304-71.68l-6.827-17.067c-0.853-3.413-0.853-6.827,0.853-9.387c2.56-2.56,5.12-4.267,8.533-4.267
			h65.707C290.84,323.267,294.253,324.973,295.96,327.533z M330.093,216.6c-1.707,2.56-4.267,4.267-7.68,4.267H187.587
			c-2.56,0-5.973-1.707-7.68-4.267s-1.707-5.12-0.853-8.533L254.147,16.92c0,0,0-0.853,0.853-0.853s1.707,0.853,1.707,0.853
			l74.24,191.147C332.653,210.627,331.8,214.04,330.093,216.6z"/>
	</g>
</g>
<g>
</g>
<g>
</g>
<g>
</g>
<g>
</g>
<g>
</g>
<g>
</g>
<g>
</g>
<g>
</g>
<g>
</g>
<g>
</g>
<g>
</g>
<g>
</g>
<g>
</g>
<g>
</g>
<g>
</g>
</svg>
