<?xml version="1.0" encoding="iso-8859-1"?>
<!-- Generator: Adobe Illustrator 19.0.0, SVG Export Plug-In . SVG Version: 6.00 Build 0)  -->
<svg version="1.1" id="Layer_1" xmlns="http://www.w3.org/2000/svg" xmlns:xlink="http://www.w3.org/1999/xlink" x="0px" y="0px"
	 viewBox="0 0 511.36 511.36" style="enable-background:new 0 0 511.36 511.36;" xml:space="preserve">
<g transform="translate(1 1)">
	<g>
		<g>
			<path d="M275.16,6.04c-11.093-9.387-29.867-9.387-40.96,0c-68.267,58.027-107.52,141.653-107.52,231.253v20.48
				c0,22.187,14.507,40.96,35.84,47.787l23.04,6.827c13.797,4.357,28.829,6.857,43.52,8.558v25.575
				c-5.889,22.713-8.455,46.256-8.526,69.811c-0.001,0.055-0.007,0.107-0.007,0.162c0,0.04,0.005,0.078,0.005,0.118
				c-0.001,0.245-0.005,0.49-0.005,0.736v30.655c-13.752,13.767-21.528,28.249-24.747,42.731c-0.853,5.12,0,9.387,3.413,13.653
				c3.413,3.413,8.533,5.973,13.653,5.973h83.627c5.12,0,10.24-2.56,13.653-5.973c3.413-3.413,4.267-8.533,3.413-13.653
				c-3.208-14.436-11.695-28.872-24.747-42.599v-30.787c0-23.893-2.56-47.787-8.533-70.827v-25.351
				c15.056-1.384,30.017-4.476,44.373-8.783l40.107-11.947c10.24-3.413,17.92-13.653,17.92-24.747v-38.4
				C382.68,148.547,343.427,64.067,275.16,6.04z M271.747,417.347v24.747h-34.133c0,0,0-9.801,0-17.067h8.533
				c5.12,0,8.533-3.413,8.533-8.533s-3.413-8.533-8.533-8.533h-8.35c0.213-5.705,0.609-11.4,1.181-17.067h7.169
				c5.12,0,8.533-3.413,8.533-8.533s-3.413-8.533-8.533-8.533h-4.929c0.922-5.745,2-11.442,3.222-17.067h20.48
				C269.187,376.387,271.747,396.867,271.747,417.347z M254.68,266.307l8.533,8.533v38.4v26.453h-17.067V313.24v-38.4
				L254.68,266.307z M212.867,493.293c1.707-11.093,8.533-22.187,19.627-34.133h44.373c11.093,11.947,17.92,23.04,19.627,34.133
				H212.867z M363.907,275.693c0,4.267-2.56,7.68-5.973,8.533l-40.107,11.947c-11.683,3.338-24.994,5.854-37.547,7.56v-32.307
				c0-2.56-0.853-4.267-2.56-5.973l-17.067-17.067c-1.812-1.812-4.106-2.652-6.37-2.54c-0.152-0.007-0.298-0.02-0.457-0.02
				c-2.56,0-4.267,0.853-5.973,2.56l-17.067,17.067c-1.707,1.707-2.56,3.413-2.56,5.973V303c-12.8-0.853-25.6-4.267-38.4-7.68
				l-23.04-6.827c-13.653-3.413-23.04-16.213-23.04-30.72v-20.48c0-84.48,36.693-163.84,101.547-218.453
				c2.56-2.56,5.973-3.413,9.387-3.413s6.827,0.853,7.68,3.413c64.853,54.613,101.547,133.973,101.547,218.453V275.693z"/>
			<path d="M248.707,35.053c-29.013,26.453-53.76,63.147-69.973,104.96c-1.707,4.267,0.853,9.387,5.12,11.093
				c1.707,0.853,2.56,0.853,3.413,0.853c3.413,0,5.973-1.707,6.827-5.12c15.36-39.253,38.4-74.24,65.707-98.987
				c3.413-3.413,4.267-8.533,0.853-11.947S252.12,31.64,248.707,35.053z"/>
		</g>
	</g>
</g>
<g>
</g>
<g>
</g>
<g>
</g>
<g>
</g>
<g>
</g>
<g>
</g>
<g>
</g>
<g>
</g>
<g>
</g>
<g>
</g>
<g>
</g>
<g>
</g>
<g>
</g>
<g>
</g>
<g>
</g>
</svg>
