<?xml version="1.0" encoding="iso-8859-1"?>
<!-- Generator: Adobe Illustrator 19.0.0, SVG Export Plug-In . SVG Version: 6.00 Build 0)  -->
<svg version="1.1" id="Layer_1" xmlns="http://www.w3.org/2000/svg" xmlns:xlink="http://www.w3.org/1999/xlink" x="0px" y="0px"
	 viewBox="0 0 512 512" style="enable-background:new 0 0 512 512;" xml:space="preserve">
<g transform="translate(1 1)">
	<g>
		<path d="M340.333-1H169.667c-5.12,0-8.533,3.413-8.533,8.533v77.653c0,23.04,3.413,46.08,11.093,68.267
			c4.267,12.8,10.24,26.453,17.067,38.4l18.934,33.134c-3.427,2.065-6.404,4.772-8.694,7.826c-5.12,6.827-5.973,16.213-2.56,24.747
			l6.827,17.067c0,0.853,0.853,1.707,0.853,1.707c9.387,16.213,10.24,35.84,2.56,62.293c-2.56,5.973-3.413,12.8-3.413,18.773
			v110.933c0,23.893,18.773,42.667,42.667,42.667h17.067c23.893,0,42.667-18.773,42.667-43.52V356.547
			c0-5.973-0.853-12.8-3.413-17.92c-7.68-24.747-6.827-46.933,2.56-62.293c0.853,0,0.853-0.853,0.853-0.853l6.827-17.92
			c3.413-7.68,2.56-17.067-2.56-24.747c-2.269-3.404-5.211-6.134-8.524-8.122l18.764-32.838c6.827-11.947,12.8-24.747,17.067-38.4
			c7.68-22.187,11.093-45.227,11.093-68.267V7.533C348.867,2.413,345.453-1,340.333-1z M296.813,251.587l-6.827,17.067
			c-11.093,18.773-12.8,46.08-3.413,75.947c1.707,4.267,2.56,8.533,2.56,12.8v110.933c0,13.653-11.093,25.6-25.6,25.6h-17.067
			c-13.653,0-25.6-11.093-25.6-25.6v-17.067h17.067c5.12,0,8.533-3.413,8.533-8.533s-3.413-8.533-8.533-8.533h-17.067v-17.067
			h17.067c5.12,0,8.533-3.413,8.533-8.533s-3.413-8.533-8.533-8.533h-17.067V357.4c0-4.267,0.853-8.533,2.56-12.8v-0.853
			c8.533-31.573,7.68-55.467-3.413-75.093l-6.827-17.067c-0.853-3.413-1.707-6.827,0.853-9.387s5.12-4.267,8.533-4.267h65.707
			c2.56,0,5.973,1.707,7.68,4.267C297.667,245.613,297.667,248.173,296.813,251.587z M331.8,85.187
			c0,21.333-3.413,41.813-10.24,62.293c-4.267,12.8-9.387,24.747-16.213,35.84l-21.333,37.547h-58.027l-21.333-37.547
			c-6.827-11.093-11.947-23.893-16.213-35.84c-6.827-19.627-10.24-40.96-10.24-62.293v-69.12h153.6V85.187z"/>
	</g>
</g>
<g>
</g>
<g>
</g>
<g>
</g>
<g>
</g>
<g>
</g>
<g>
</g>
<g>
</g>
<g>
</g>
<g>
</g>
<g>
</g>
<g>
</g>
<g>
</g>
<g>
</g>
<g>
</g>
<g>
</g>
</svg>
