<?xml version="1.0" encoding="iso-8859-1"?>
<!-- Generator: Adobe Illustrator 19.0.0, SVG Export Plug-In . SVG Version: 6.00 Build 0)  -->
<svg version="1.1" id="Layer_1" xmlns="http://www.w3.org/2000/svg" xmlns:xlink="http://www.w3.org/1999/xlink" x="0px" y="0px"
	 viewBox="0 0 504.265 504.265" style="enable-background:new 0 0 504.265 504.265;" xml:space="preserve">
<g transform="translate(1 1)">
	<g>
		<path d="M452.541,242.229c-0.339-9.846-3.552-22.28-7.52-30.216c-19.305-40.289-34.413-122.544-34.413-187.174
			c0-14.269-11.751-25.18-25.18-25.18h-13.43c-2.229-1.114-4.824-0.743-6.81,0.611c-2.662,1.031-4.423,3.312-4.838,6.37
			c-22.357,32.197-62.242,50.934-108.378,50.934c-47.843,0-88.971-20.144-110.793-54.557c-2.518-2.518-5.875-4.197-10.072-3.357
			h-14.269c-14.269,0-25.18,11.751-25.18,25.18c0,63.79-15.108,146.046-34.413,186.334c-4.074,8.147-7.347,21.816-7.536,31.056
			H49.69v0.839v83.095v41.967v83.934v26.02c0,14.269,10.911,25.18,25.18,25.18h352.525c14.269,0,25.18-11.751,25.18-24.341v-26.859
			v-83.934v-41.967v-82.256v-1.679H452.541z M66.477,309.377v-50.361h369.311v50.361H66.477z M393.821,24.839
			c0,67.148,15.948,151.082,36.092,193.888c3.223,5.641,5.667,16.686,5.857,23.502H259.526v-34.052
			c0.935-0.108,1.861-0.239,2.783-0.382c0.328-0.051,0.656-0.102,0.983-0.156c0.903-0.153,1.8-0.323,2.691-0.509
			c0.442-0.092,0.881-0.189,1.32-0.288c0.773-0.177,1.542-0.362,2.306-0.563c0.576-0.151,1.148-0.313,1.719-0.478
			c0.265-0.077,0.529-0.158,0.793-0.238c36.892-11.097,62.654-50.626,79.484-91.958c15.423-37.677,23.445-76.808,25.647-97.158
			h8.176C390.464,16.445,393.821,20.642,393.821,24.839z M251.133,75.2c41.967,0,79.738-14.269,105.757-40.289
			c-7.706,42.381-29.659,111.78-66.985,142.052c-0.051,0.042-0.103,0.084-0.154,0.125c-0.682,0.551-1.371,1.087-2.063,1.611
			c-0.168,0.127-0.337,0.251-0.505,0.376c-0.638,0.475-1.279,0.943-1.925,1.395c-0.208,0.145-0.42,0.283-0.629,0.426
			c-1.038,0.71-2.088,1.385-3.148,2.034c-0.397,0.243-0.792,0.494-1.192,0.728c-0.423,0.247-0.853,0.477-1.279,0.715
			c-0.501,0.278-1.001,0.556-1.507,0.82c-0.409,0.214-0.821,0.417-1.233,0.622c-0.542,0.268-1.086,0.53-1.633,0.782
			c-0.39,0.179-0.78,0.356-1.172,0.527c-0.607,0.264-1.219,0.515-1.833,0.758c-0.341,0.135-0.681,0.276-1.024,0.405
			c-0.849,0.319-1.704,0.617-2.565,0.895c-0.114,0.037-0.226,0.08-0.34,0.116c-0.981,0.31-1.971,0.589-2.968,0.845
			c-0.292,0.075-0.587,0.137-0.88,0.207c-0.713,0.171-1.429,0.332-2.151,0.475c-0.362,0.071-0.726,0.135-1.089,0.199
			c-0.672,0.119-1.348,0.225-2.027,0.319c-0.374,0.052-0.748,0.102-1.124,0.146c-0.715,0.083-1.435,0.148-2.157,0.203
			c-0.332,0.025-0.662,0.058-0.996,0.078c-1.052,0.061-2.11,0.099-3.179,0.099s-2.126-0.038-3.179-0.099
			c-0.334-0.019-0.664-0.052-0.996-0.078c-0.722-0.055-1.442-0.119-2.157-0.203c-0.376-0.044-0.75-0.095-1.124-0.146
			c-0.679-0.094-1.355-0.2-2.027-0.319c-0.364-0.064-0.727-0.128-1.089-0.199c-0.722-0.143-1.438-0.304-2.151-0.475
			c-0.293-0.07-0.588-0.132-0.88-0.207c-0.997-0.256-1.987-0.535-2.968-0.845c-0.114-0.036-0.226-0.08-0.34-0.116
			c-0.861-0.278-1.716-0.576-2.565-0.895c-0.343-0.129-0.683-0.27-1.024-0.405c-0.614-0.244-1.226-0.494-1.833-0.758
			c-0.392-0.171-0.783-0.348-1.172-0.527c-0.547-0.252-1.091-0.514-1.633-0.782c-0.412-0.204-0.824-0.408-1.232-0.621
			c-0.506-0.264-1.007-0.543-1.509-0.821c-0.426-0.237-0.855-0.467-1.278-0.714c-0.402-0.235-0.798-0.487-1.198-0.731
			c-1.056-0.646-2.103-1.319-3.137-2.027c-0.211-0.144-0.424-0.283-0.635-0.43c-0.646-0.451-1.285-0.918-1.922-1.393
			c-0.17-0.126-0.34-0.251-0.509-0.378c-0.692-0.524-1.38-1.059-2.062-1.61c-0.051-0.041-0.103-0.083-0.154-0.125
			c-37.326-30.272-59.279-99.671-66.985-142.052C171.395,60.931,209.165,75.2,251.133,75.2z M72.352,218.727
			c20.144-42.807,36.092-125.902,36.092-193.888c0-5.036,4.197-8.393,8.393-8.393h8.859c2.106,22.495,11.48,67.944,30.186,109.004
			c16.683,36.826,40.919,70.081,74.261,80.112c0.265,0.08,0.53,0.162,0.796,0.239c0.571,0.165,1.142,0.327,1.718,0.478
			c0.764,0.201,1.534,0.387,2.307,0.564c0.438,0.1,0.877,0.196,1.318,0.288c0.891,0.186,1.789,0.356,2.692,0.509
			c0.326,0.055,0.654,0.106,0.982,0.156c0.922,0.143,1.848,0.275,2.783,0.382v34.052H66.495
			C66.686,235.413,69.129,224.369,72.352,218.727z M66.477,326.163h176.262v41.967H66.477V326.163z M66.477,435.278v-50.361h369.311
			v50.361H66.477z M66.477,478.085v-26.02h176.262v34.413H74.87C69.834,486.478,66.477,483.121,66.477,478.085z M435.788,478.085
			c0,5.036-3.357,8.393-8.393,8.393H259.526v-34.413h176.262V478.085z M435.788,368.131H259.526v-41.967h176.262V368.131z"/>
	</g>
</g>
<g>
</g>
<g>
</g>
<g>
</g>
<g>
</g>
<g>
</g>
<g>
</g>
<g>
</g>
<g>
</g>
<g>
</g>
<g>
</g>
<g>
</g>
<g>
</g>
<g>
</g>
<g>
</g>
<g>
</g>
</svg>
