<?xml version="1.0" encoding="iso-8859-1"?>
<!-- Generator: Adobe Illustrator 19.0.0, SVG Export Plug-In . SVG Version: 6.00 Build 0)  -->
<svg version="1.1" id="Layer_1" xmlns="http://www.w3.org/2000/svg" xmlns:xlink="http://www.w3.org/1999/xlink" x="0px" y="0px"
	 viewBox="0 0 512 512" style="enable-background:new 0 0 512 512;" xml:space="preserve">
<g transform="translate(1 1)">
	<g>
		<path d="M400.067,447c-13.261,0-24.805,9.136-28.571,21.333h-18.363v-57.727c2.29-1.208,4.567-2.442,6.827-3.713l14.507-7.68
			c2.56-1.707,4.267-4.267,4.267-7.68v-17.067c0-5.12-3.413-8.533-8.533-8.533h-17.067v-17.835l7.68,0.768h0.853
			c4.267,0,8.533-3.413,8.533-7.68c0.853-5.12-3.413-8.533-7.68-9.387l-9.387-0.939v-16.896l7.68,0.768h0.853
			c4.267,0,8.533-3.413,8.533-7.68c0.853-5.12-3.413-8.533-7.68-9.387l-9.387-0.939v-16.896l7.68,0.768h0.853
			c4.267,0,8.533-3.413,8.533-7.68c0.853-5.12-3.413-8.533-7.68-9.387l-9.387-0.939v-16.973l8.533,0.845
			c4.267,0,8.533-3.413,8.533-7.68c0.853-5.12-3.413-8.533-7.68-9.387l-9.387-0.939v-41.728c4.267,0,7.68-2.56,8.533-5.973
			l8.533-34.133c0.853-2.56,0-5.12-1.707-7.68s-4.267-3.413-6.827-3.413h-85.333c-2.56,0-5.12,0-6.827,2.56
			c-1.707,2.56-2.56,5.12-1.707,7.68l8.533,34.133c0.853,4.267,4.267,6.827,8.533,6.827v34.901l-7.68-0.768
			c-5.12-0.853-8.533,2.56-9.387,7.68s3.413,8.533,7.68,9.387l9.387,0.929v16.905l-7.68-0.768c-5.12-0.853-8.533,3.413-9.387,7.68
			c-0.853,5.12,3.413,8.533,7.68,9.387l9.387,0.939v16.896l-7.68-0.768c-5.12,0-8.533,3.413-9.387,7.68
			c-0.853,5.12,3.413,8.533,7.68,9.387l9.387,0.939v16.896l-7.68-0.768c-5.12,0-8.533,3.413-9.387,7.68
			c-0.853,5.12,3.413,8.533,7.68,9.387l9.387,0.939v24.661h-67.413c-19.627,0-34.987-16.213-34.987-34.987V109.933
			c0-18.773,15.36-34.133,34.133-34.133h51.2v17.067c0,5.12,3.413,8.533,8.533,8.533h85.333c5.12,0,8.533-3.413,8.533-8.533V68.12
			c0-1.707-0.853-4.267-2.56-5.12C334.36,22.04,284.867-1,231.96-1H165.4c-46.933,0-85.333,38.4-85.333,85.333V357.4
			c0,46.933,38.4,85.333,85.333,85.333h59.733c20.307,0,40.304-2.32,59.733-6.746v32.346h-18.363
			C262.738,456.136,251.194,447,237.933,447c-16.213,0-29.867,13.653-29.867,29.867c0,16.213,13.653,29.867,29.867,29.867
			c13.261,0,24.805-9.136,28.571-21.333h18.363v17.067c0,5.12,3.413,8.533,8.533,8.533h51.2c5.12,0,8.533-3.413,8.533-8.533V485.4
			h18.363c3.766,12.198,15.31,21.333,28.571,21.333c16.213,0,29.867-13.653,29.867-29.867C429.933,460.653,416.28,447,400.067,447z
			 M237.933,489.667c-6.827,0-12.8-5.973-12.8-12.8s5.973-12.8,12.8-12.8s12.8,5.973,12.8,12.8S244.76,489.667,237.933,489.667z
			 M350.573,152.6l-4.267,17.067H344.6h-51.2h-1.707l-4.267-17.067H350.573z M301.933,186.733h34.133v40.021l-34.133-3.413V186.733z
			 M301.933,240.552l34.133,3.38v16.956l-34.133-3.413V240.552z M301.933,274.712l34.133,3.413v16.896l-34.133-3.413V274.712z
			 M301.933,308.845l34.133,3.413v16.896l-34.133-3.413V308.845z M301.933,342.979l34.133,3.413v19.541h-34.133V342.979z
			 M165.4,425.667c-37.547,0-68.267-30.72-68.267-68.267V84.333c0-37.547,30.72-68.267,68.267-68.267h67.413
			c46.08,0,90.453,20.48,120.32,55.467v12.8h-68.267V67.267c0-5.12-3.413-8.533-8.533-8.533H216.6c-28.16,0-51.2,23.04-51.2,51.2
			v221.013c0,29.013,23.04,52.053,52.053,52.053H293.4h51.2h17.067v3.413l-10.24,5.973c-2.563,1.424-5.15,2.803-7.757,4.142
			c-1.175,0.032-2.323,0.302-3.336,0.978c-16.213,7.68-32.427,14.507-49.493,18.773c-0.705,0.352-1.371,0.744-1.988,1.177
			c-20.71,5.37-42.112,8.21-63.719,8.21H165.4z M336.067,493.933h-34.133V431.64c10.498-2.999,20.337-6.659,30.096-10.976
			c1.35-0.576,2.696-1.163,4.038-1.761V493.933z M400.067,489.667c-6.827,0-12.8-5.973-12.8-12.8s5.973-12.8,12.8-12.8
			s12.8,5.973,12.8,12.8S406.893,489.667,400.067,489.667z"/>
	</g>
</g>
<g>
</g>
<g>
</g>
<g>
</g>
<g>
</g>
<g>
</g>
<g>
</g>
<g>
</g>
<g>
</g>
<g>
</g>
<g>
</g>
<g>
</g>
<g>
</g>
<g>
</g>
<g>
</g>
<g>
</g>
</svg>
