<?xml version="1.0" encoding="iso-8859-1"?>
<!-- Generator: Adobe Illustrator 19.0.0, SVG Export Plug-In . SVG Version: 6.00 Build 0)  -->
<svg version="1.1" id="Layer_1" xmlns="http://www.w3.org/2000/svg" xmlns:xlink="http://www.w3.org/1999/xlink" x="0px" y="0px"
	 viewBox="0 0 503.607 503.607" style="enable-background:new 0 0 503.607 503.607;" xml:space="preserve">
<g transform="translate(1 1)">
	<g>
		<path d="M494.213,200.443h-16.787v-33.574c9.233,0,16.787-7.554,16.787-16.787v-16.787c0-9.233-7.554-16.787-16.787-16.787
			h-15.948c-9.233,0-16.787,7.554-16.787,16.787v16.787c0,8.95,7.103,16.3,15.948,16.744v33.617h-16.787
			c-5.036,0-8.393,3.357-8.393,8.393h-16.787v-50.361c0-1.679,0-2.518-0.839-3.357l-31.056-62.111
			c-8.393-16.787-24.341-26.859-42.807-26.859h-42.807c-5.036,0-8.393,3.357-8.393,8.393v41.967c0,9.233,7.554,16.787,16.787,16.787
			h16.787v58.754h-40.96l-1.007-2.518c-1.679-5.036-6.715-6.715-10.911-5.036c-3.731,1.244-5.615,4.331-5.66,7.554H251.81
			l-1.007-2.518c-1.679-5.036-6.715-6.715-10.911-5.036c-3.731,1.244-5.615,4.331-5.66,7.554h-17.002v-58.754h33.574
			c9.233,0,16.787-7.554,16.787-16.787V74.541c0-5.036-3.357-8.393-8.393-8.393H108.115c-5.036,0-8.393,3.357-8.393,8.393v41.967
			c0,9.233,7.554,16.787,16.787,16.787h33.574v33.574c-22.559,0-43.132,9.412-57.931,25.18H24.18C9.911,192.049-1,202.961-1,217.229
			v33.574c0,14.269,10.911,25.18,25.18,25.18H55.3c-3.912,17.852-5.94,36.126-5.94,54.557v38.363
			C20.684,372.912-1,397.186-1,427.066c0,5.036,3.357,8.393,8.393,8.393h310.557c5.036,0,8.393-3.357,8.393-8.393
			c0-29.88-21.684-54.153-50.361-58.161v-67.74c0-4.197-2.518-7.554-5.875-8.393c-11.384-3.077-21.519-8.981-29.801-16.787h26.779
			l1.343,3.357c0.839,3.357,4.197,5.036,7.554,5.036c0.839,0,2.518,0,3.357,0c4.055-1.352,5.929-4.88,5.631-8.393h15.688
			l1.343,3.357c0.839,3.357,4.197,5.036,7.554,5.036c0.839,0,2.518,0,3.357,0c4.055-1.352,5.929-4.88,5.631-8.393h7.799v8.393
			c0,14.269,10.911,25.18,25.18,25.18h41.967c14.269,0,25.18-10.911,25.18-25.18v-25.18h16.787c0,5.036,3.357,8.393,8.393,8.393
			h16.787v92.371c-8.844,0.444-15.948,7.795-15.948,16.744v16.787c0,9.233,7.554,16.787,16.787,16.787h15.948
			c9.233,0,16.787-7.554,16.787-16.787v-16.787c0-9.233-7.554-16.787-16.787-16.787V267.59h16.787c5.036,0,8.393-3.357,8.393-8.393
			v-50.361C502.607,203.8,499.249,200.443,494.213,200.443z M461.479,133.295h16.787v16.787h-16.787V133.295z M116.508,82.934
			h134.295v33.574h-41.967h-50.361h-41.967V82.934z M59.433,259.197H24.18c-5.036,0-8.393-3.357-8.393-8.393v-33.574
			c0-5.036,3.357-8.393,8.393-8.393h55.796c-2.103,3.976-4.101,7.998-5.998,12.062C67.946,233.19,63.216,245.957,59.433,259.197z
			 M308.718,418.672H16.626c4.197-19.305,20.984-33.574,41.128-33.574H267.59C287.734,385.098,304.521,399.367,308.718,418.672z
			 M259.197,368.311H66.148v-16.787h58.754c5.036,0,8.393-3.357,8.393-8.393c0-5.036-3.357-8.393-8.393-8.393H66.148v-4.197
			c0-4.198,0.121-8.397,0.347-12.59h25.672c4.197,0,7.554-3.357,7.554-8.393s-2.518-8.393-7.554-8.393H67.993
			c1.238-9.889,3.091-19.711,5.532-29.4c0.382-0.522,0.726-1.075,1.016-1.656c5.036-19.305,11.751-36.931,20.984-53.718
			c1.679-3.357,4.197-6.715,7.554-10.072c0.571-0.857,1.041-1.813,1.352-2.832c11.988-12.466,28.326-19.831,45.651-19.831h8.393
			c5.036,0,8.393-3.357,8.393-8.393v-41.967h33.574v89.81c0,37.771,23.502,71.344,58.754,83.934V368.311z M227.302,259.197
			c-3.235-5.256-5.682-10.904-7.359-16.752c-0.118-0.416-0.236-0.831-0.346-1.249c-0.087-0.326-0.17-0.653-0.252-0.98
			c-0.176-0.707-0.343-1.416-0.498-2.129c-0.029-0.134-0.06-0.267-0.089-0.401c-0.39-1.852-0.709-3.724-0.951-5.611
			c-0.013-0.101-0.023-0.203-0.036-0.304c-0.099-0.794-0.182-1.592-0.254-2.391c-0.021-0.233-0.04-0.467-0.059-0.701
			c-0.055-0.694-0.098-1.389-0.133-2.086c-0.012-0.249-0.028-0.498-0.037-0.747c-0.036-0.911-0.058-1.824-0.058-2.74v-14.269h22.998
			l20.144,50.361H227.302z M278.67,259.197l-20.144-50.361h15.276l20.144,50.361H278.67z M325.505,259.197h-13.262l-20.144-50.361
			h33.406V259.197z M478.266,376.705v16.787h-16.787v-16.787H478.266z M401.885,284.377c0,5.036-3.357,8.393-8.393,8.393h-41.967
			c-5.036,0-8.393-3.357-8.393-8.393V267.59v-67.148v-75.541c0-5.036-3.357-8.393-8.393-8.393h-25.18V82.934h34.413
			c11.751,0,22.662,6.715,27.698,16.787l30.216,60.433v57.075v33.574V284.377z M418.672,242.41v-16.787h16.787v16.787H418.672z
			 M485.82,250.803h-33.574v-33.574h33.574V250.803z"/>
	</g>
</g>
<g>
</g>
<g>
</g>
<g>
</g>
<g>
</g>
<g>
</g>
<g>
</g>
<g>
</g>
<g>
</g>
<g>
</g>
<g>
</g>
<g>
</g>
<g>
</g>
<g>
</g>
<g>
</g>
<g>
</g>
</svg>
