<?xml version="1.0" encoding="iso-8859-1"?>
<!-- Generator: Adobe Illustrator 19.0.0, SVG Export Plug-In . SVG Version: 6.00 Build 0)  -->
<svg version="1.1" id="Layer_1" xmlns="http://www.w3.org/2000/svg" xmlns:xlink="http://www.w3.org/1999/xlink" x="0px" y="0px"
	 viewBox="0 0 512 512" style="enable-background:new 0 0 512 512;" xml:space="preserve">
<g transform="translate(1 1)">
	<g>
		<path d="M387.267,84.333H225.133V67.267c5.12,0,8.533-3.413,8.533-8.533V41.667h120.32c0,9.387,7.68,17.067,17.067,17.067h16.213
			c9.387,0,17.067-7.68,17.067-17.067V24.6c0-9.387-7.68-17.067-17.067-17.067h-16.213c-9.387,0-17.067,7.68-17.067,17.067h-120.32
			V7.533c0-5.12-3.413-8.533-8.533-8.533h-51.2c-5.12,0-8.533,3.413-8.533,8.533V24.6h-34.133c0-9.387-7.68-17.067-17.067-17.067
			H97.987c-9.387,0-17.067,7.68-17.067,17.067v17.067c0,9.387,7.68,17.067,17.067,17.067H114.2c9.387,0,17.067-7.68,17.067-17.067
			H165.4v17.067c0,5.12,4.267,8.533,8.533,8.533v17.067H114.2c-18.773,0-34.133,15.36-34.133,34.133S95.427,152.6,114.2,152.6
			h59.733v9.493l-7.68-0.96c-4.267,0-8.533,3.413-9.387,7.68c0,4.267,2.56,8.533,7.68,9.387l9.387,1.173v15.893h-17.067
			c-5.12,0-8.533,3.413-8.533,8.533v34.133c0,5.12,3.413,8.533,8.533,8.533H242.2c5.12,0,8.533-3.413,8.533-8.533V203.8
			c0-5.12-3.413-8.533-8.533-8.533h-17.067v-9.493l7.68,0.96h0.853c4.267,0,7.68-3.413,8.533-7.68c0-4.267-3.413-8.533-7.68-9.387
			l-9.387-1.173V152.6H319c5.12,0,8.533,3.413,8.533,8.533V434.2c0,5.12-3.413,8.533-8.533,8.533h-93.867v-26.56l7.68,0.96h0.853
			c4.267,0,7.68-3.413,8.533-7.68c0-4.267-3.413-8.533-7.68-9.387l-9.387-1.173V382.04l7.68,0.96h0.853
			c4.267,0,7.68-3.413,8.533-7.68c0-4.267-3.413-8.533-7.68-9.387l-9.387-1.173v-16.853l7.68,0.96h0.853
			c4.267,0,7.68-3.413,8.533-7.68c0-4.267-3.413-8.533-7.68-9.387l-9.387-1.173v-15.893H242.2c5.12,0,8.533-3.413,8.533-8.533
			v-34.133c0-5.12-3.413-8.533-8.533-8.533h-85.333c-5.12,0-8.533,3.413-8.533,8.533V306.2c0,5.12,3.413,8.533,8.533,8.533h17.067
			v9.493l-7.68-0.96c-4.267,0-8.533,3.413-9.387,7.68c0,4.267,2.56,8.533,7.68,9.387l9.387,1.173v16.853l-7.68-0.96
			c-4.267,0-8.533,3.413-9.387,7.68c0,4.267,2.56,8.533,7.68,9.387l9.387,1.173v16.853l-7.68-0.96c-4.267,0-8.533,3.413-9.387,7.68
			c0,4.267,2.56,8.533,7.68,9.387l9.387,1.173v32.96H114.2c-18.773,0-34.133,15.36-34.133,34.133
			C80.067,495.64,95.427,511,114.2,511h273.067c23.893,0,42.667-18.773,42.667-42.667V127
			C429.933,103.107,411.16,84.333,387.267,84.333z M371.053,24.6h17.067v17.067h-17.067V24.6z M97.987,41.667V24.6h17.067v4.499
			c-0.55,1.169-0.853,2.525-0.853,4.035c0,1.379,0.317,2.629,0.853,3.728v4.806H97.987z M182.467,16.067H216.6V50.2h-34.133V16.067z
			 M191,67.267h17.067v17.067H191V67.267z M233.667,229.4H165.4v-17.067h17.067H216.6h17.067V229.4z M208.067,195.267H191v-13.76
			l17.067,2.133V195.267z M208.067,166.36L191,164.227V152.6h17.067V166.36z M165.4,280.6h68.267v17.067H216.6h-34.133H165.4V280.6z
			 M191,314.733h17.067v13.76L191,326.36V314.733z M191,343.64l17.067,2.133v16.853L191,360.493V343.64z M191,377.773l17.067,2.133
			v16.853L191,394.627V377.773z M191,411.907l17.067,2.133v28.693H191V411.907z M387.267,493.933H114.2
			c-9.387,0-17.067-7.68-17.067-17.067s7.68-17.067,17.067-17.067h68.267H216.6H319c14.507,0,25.6-11.093,25.6-25.6V161.133
			c0-14.507-11.093-25.6-25.6-25.6H216.6h-34.133H114.2c-9.387,0-17.067-7.68-17.067-17.067s7.68-17.067,17.067-17.067h68.267H216.6
			h170.667c14.507,0,25.6,11.093,25.6,25.6v281.6H395.8c-5.12,0-8.533,3.413-8.533,8.533s3.413,8.533,8.533,8.533h17.067v17.067
			h-34.133c-5.12,0-8.533,3.413-8.533,8.533c0,5.12,3.413,8.533,8.533,8.533h34.133v8.533
			C412.867,482.84,401.773,493.933,387.267,493.933z"/>
	</g>
</g>
<g>
</g>
<g>
</g>
<g>
</g>
<g>
</g>
<g>
</g>
<g>
</g>
<g>
</g>
<g>
</g>
<g>
</g>
<g>
</g>
<g>
</g>
<g>
</g>
<g>
</g>
<g>
</g>
<g>
</g>
</svg>
