<?xml version="1.0" encoding="iso-8859-1"?>
<!-- Generator: Adobe Illustrator 19.0.0, SVG Export Plug-In . SVG Version: 6.00 Build 0)  -->
<svg version="1.1" id="Layer_1" xmlns="http://www.w3.org/2000/svg" xmlns:xlink="http://www.w3.org/1999/xlink" x="0px" y="0px"
	 viewBox="0 0 503.607 503.607" style="enable-background:new 0 0 503.607 503.607;" xml:space="preserve">
<g transform="translate(1 1)">
	<g>
		<path d="M494.213,162.672h-16.787v-33.574c9.233,0,16.787-7.554,16.787-16.787V95.525c0-9.233-7.554-16.787-16.787-16.787h-15.948
			c-9.233,0-16.787,7.554-16.787,16.787v16.787c0,8.95,7.103,16.3,15.948,16.744v33.616h-16.787c-5.036,0-8.393,3.357-8.393,8.393
			h-16.787v-58.754c0-18.466-15.108-33.574-33.574-33.574s-33.574,15.108-33.574,33.574v58.754h-9.338l0.944-7.554
			c0-4.197-3.357-8.393-7.554-9.233c-4.197,0-8.393,3.357-9.233,7.554l-1.154,9.233h-15.633v-16.787
			c0-5.036-3.357-8.393-8.393-8.393H267.59c-5.036,0-8.393,3.357-8.393,8.393v83.934c0,5.036,3.357,8.393,8.393,8.393h33.574
			c5.036,0,8.393-3.357,8.393-8.393v-16.787h9.338l-0.944,7.554c0,4.197,3.357,8.393,7.554,9.233h0.839
			c4.197,0,7.554-3.357,8.393-7.554l1.154-9.233h15.633v92.328c0,5.036-3.357,8.393-8.393,8.393H99.721c0-1.679,0-4.197,0-5.875
			v-94.846h9.338l-0.944,7.554c0,4.197,3.357,8.393,7.554,9.233h0.839c4.197,0,7.554-3.357,8.393-7.554l1.154-9.233h16.577
			l-0.944,7.554c0,4.197,3.357,8.393,7.554,9.233h0.839c4.197,0,7.554-3.357,8.393-7.554l1.154-9.233h15.633v16.787
			c0,5.036,3.357,8.393,8.393,8.393h33.574c5.036,0,8.393-3.357,8.393-8.393v-83.934c0-5.036-3.357-8.393-8.393-8.393h-33.574
			c-5.036,0-8.393,3.357-8.393,8.393v16.787h-9.338l0.944-7.554c0-4.197-3.357-8.393-7.554-9.233c-4.197,0-8.393,3.357-9.233,7.554
			l-1.154,9.233h-16.577l0.944-7.554c0-4.197-3.357-8.393-7.554-9.233c-4.197,0-8.393,3.357-9.233,7.554l-1.154,9.233H99.721
			v-58.754c0-18.466-15.108-33.574-33.574-33.574c-18.466,0-33.574,15.108-33.574,33.574v58.754H24.18
			C9.911,171.066-1,181.977-1,196.246s10.911,25.18,25.18,25.18h8.393v159.475c0,23.502,18.466,41.967,41.967,41.967h302.164
			c23.502,0,41.967-18.466,41.967-41.967V221.426h16.787c0,5.036,3.357,8.393,8.393,8.393h16.787v117.551
			c-8.844,0.444-15.948,7.795-15.948,16.744v16.787c0,9.233,7.554,16.787,16.787,16.787h15.948c9.233,0,16.787-7.554,16.787-16.787
			v-16.787c0-9.233-7.554-16.787-16.787-16.787V229.82h16.787c5.036,0,8.393-3.357,8.393-8.393v-50.361
			C502.607,166.03,499.249,162.672,494.213,162.672z M461.479,95.525h16.787v16.787h-16.787V95.525z M478.266,364.115v16.787
			h-16.787v-16.787H478.266z M292.771,229.82h-16.787v-67.148h16.787v16.787v33.574V229.82z M309.557,204.639v-16.787h13.534
			l-2.098,16.787H309.557z M337.99,204.639l2.098-16.787h11.436v16.787H337.99z M192.049,162.672h16.787v67.148h-16.787v-16.787
			v-33.574V162.672z M175.262,187.852v16.787h-13.534l2.098-16.787H175.262z M146.83,187.852l-2.098,16.787h-16.577l2.098-16.787
			H146.83z M113.256,187.852l-2.098,16.787H99.721v-16.787H113.256z M24.18,204.639c-5.036,0-8.393-3.357-8.393-8.393
			s3.357-8.393,8.393-8.393h8.393v16.787H24.18z M401.885,380.902c0,14.269-10.911,25.18-25.18,25.18H74.541
			c-14.269,0-25.18-10.911-25.18-25.18V213.033v-33.574v-67.148c0-9.233,7.554-16.787,16.787-16.787s16.787,7.554,16.787,16.787
			v67.148v33.574v100.721v2.518c0,6.715,0,13.43,5.036,18.466c2.518,2.518,6.715,4.197,11.751,4.197h243.41
			c14.269,0,25.18-10.911,25.18-25.18V213.033v-33.574v-67.148c0-9.233,7.554-16.787,16.787-16.787
			c9.233,0,16.787,7.554,16.787,16.787v67.148v33.574V380.902z M418.672,204.639v-16.787h16.787v16.787H418.672z M485.82,213.033
			h-33.574v-33.574h33.574V213.033z"/>
	</g>
</g>
<g>
</g>
<g>
</g>
<g>
</g>
<g>
</g>
<g>
</g>
<g>
</g>
<g>
</g>
<g>
</g>
<g>
</g>
<g>
</g>
<g>
</g>
<g>
</g>
<g>
</g>
<g>
</g>
<g>
</g>
</svg>
