<?xml version="1.0" encoding="iso-8859-1"?>
<!-- Generator: Adobe Illustrator 19.0.0, SVG Export Plug-In . SVG Version: 6.00 Build 0)  -->
<svg version="1.1" id="Layer_1" xmlns="http://www.w3.org/2000/svg" xmlns:xlink="http://www.w3.org/1999/xlink" x="0px" y="0px"
	 viewBox="0 0 512 512" style="enable-background:new 0 0 512 512;" xml:space="preserve">
<g transform="translate(1 1)">
	<g>
		<g>
			<path d="M408.6,68.973c0-0.853,0-0.853,0-1.707C408.6,29.72,377.88-1,340.333-1H169.667C132.12-1,101.4,29.72,101.4,67.267
				c0,0.853,0,0.853,0,1.707l4.267,24.747c18.773,105.813,17.067,214.187-4.267,321.707c0,0.853,0,0.853,0,1.707
				c0,52.053,42.667,93.867,93.867,93.867h119.467c52.053,0,93.867-41.813,93.867-93.867c0-0.853,0-0.853,0-1.707
				c-21.333-101.547-23.04-212.48-4.267-321.707L408.6,68.973z M387.267,90.307c-18.773,110.933-17.067,224.427,4.267,327.68
				c-0.853,41.813-34.987,75.947-76.8,75.947H195.267c-41.813,0-75.947-34.133-76.8-75.947
				c22.187-109.227,23.893-219.307,4.267-327.68l-4.267-23.893c0-28.16,23.04-50.347,51.2-50.347h170.667
				c28.16,0,51.2,22.187,51.2,50.347L387.267,90.307z"/>
			<path d="M340.333,50.2H169.667c-14.507,0-25.6,11.093-25.6,25.6v93.867c0,13.833,10.09,24.555,23.605,25.521
				c0.059,0.005,0.117,0.009,0.176,0.013c0.601,0.039,1.206,0.066,1.819,0.066h170.667c0.613,0,1.218-0.027,1.819-0.066
				c0.059-0.004,0.117-0.008,0.176-0.013c13.515-0.967,23.605-11.688,23.605-25.521V75.8C365.933,61.293,354.84,50.2,340.333,50.2z
				 M169.667,67.267h170.667c5.12,0,8.533,3.413,8.533,8.533v83.565c-21.808-17.061-47.342-27.737-74.593-31.159L303.64,98.84
				c3.413-3.413,3.413-8.533,0-11.947s-8.533-3.413-11.947,0l-40.148,40.148c-33.159,0.732-64.431,11.998-90.412,32.324V75.8
				C161.133,71.533,165.4,67.267,169.667,67.267z M169.667,178.2c-0.863,0-1.674-0.105-2.432-0.291
				c-0.373-0.126-0.72-0.301-0.982-0.563c24.747-21.333,56.32-33.28,88.747-33.28c33.28,0,64.853,11.947,88.747,33.28
				c-0.201,0.201-0.402,0.351-0.614,0.468c-0.86,0.25-1.795,0.385-2.799,0.385H169.667z"/>
			<path d="M255,255c-56.32,0-102.4,46.08-102.4,102.4S198.68,459.8,255,459.8s102.4-46.08,102.4-102.4S311.32,255,255,255z
				 M255,442.733c-46.933,0-85.333-38.4-85.333-85.333s38.4-85.333,85.333-85.333s85.333,38.4,85.333,85.333
				S301.933,442.733,255,442.733z"/>
			<path d="M255,289.133c-37.547,0-68.267,30.72-68.267,68.267s30.72,68.267,68.267,68.267s68.267-30.72,68.267-68.267
				S292.547,289.133,255,289.133z M255,408.6c-28.16,0-51.2-23.04-51.2-51.2s23.04-51.2,51.2-51.2s51.2,23.04,51.2,51.2
				S283.16,408.6,255,408.6z"/>
			<path d="M263.533,331.8c0-5.12-3.413-8.533-8.533-8.533c-18.773,0-34.133,15.36-34.133,34.133c0,5.12,3.413,8.533,8.533,8.533
				c5.12,0,8.533-3.413,8.533-8.533c0-9.387,7.68-17.067,17.067-17.067C260.12,340.333,263.533,336.92,263.533,331.8z"/>
			<path d="M280.6,348.867c-5.12,0-8.533,3.413-8.533,8.533c0,9.387-7.68,17.067-17.067,17.067c-5.12,0-8.533,3.413-8.533,8.533
				s3.413,8.533,8.533,8.533c18.773,0,34.133-15.36,34.133-34.133C289.133,352.28,285.72,348.867,280.6,348.867z"/>
		</g>
	</g>
</g>
<g>
</g>
<g>
</g>
<g>
</g>
<g>
</g>
<g>
</g>
<g>
</g>
<g>
</g>
<g>
</g>
<g>
</g>
<g>
</g>
<g>
</g>
<g>
</g>
<g>
</g>
<g>
</g>
<g>
</g>
</svg>
