<?xml version="1.0" encoding="iso-8859-1"?>
<!-- Generator: Adobe Illustrator 19.0.0, SVG Export Plug-In . SVG Version: 6.00 Build 0)  -->
<svg version="1.1" id="Layer_1" xmlns="http://www.w3.org/2000/svg" xmlns:xlink="http://www.w3.org/1999/xlink" x="0px" y="0px"
	 viewBox="0 0 512 512" style="enable-background:new 0 0 512 512;" xml:space="preserve">
<g transform="translate(1 1)">
	<g>
		<g>
			<path d="M284.867,186.733c14.507,0,25.6-11.093,25.6-25.6V67.267c0-14.507-11.093-25.6-25.6-25.6H97.133
				c-14.507,0-25.6,11.093-25.6,25.6v93.867c0,14.507,11.093,25.6,25.6,25.6H284.867z M88.6,161.133V67.267
				c0-4.267,4.267-8.533,8.533-8.533h187.733c5.12,0,8.533,3.413,8.533,8.533v93.867c0,5.12-3.413,8.533-8.533,8.533H97.133
				C92.013,169.667,88.6,166.253,88.6,161.133z"/>
			<path d="M284.867,297.667c0-52.053-41.813-93.867-93.867-93.867c-25.383,0-48.329,9.946-65.181,26.171
				c-0.482,0.324-0.945,0.701-1.379,1.136s-0.812,0.897-1.136,1.379c-16.225,16.852-26.171,39.797-26.171,65.181
				c0,52.053,42.667,93.867,93.867,93.867C243.053,391.533,284.867,349.72,284.867,297.667z M267.8,297.667
				c0,18.265-6.269,34.954-16.771,48.082L142.918,237.638c13.129-10.502,29.818-16.771,48.082-16.771
				C233.667,220.867,267.8,255,267.8,297.667z M114.2,297.667c0-18.265,6.269-34.954,16.771-48.082l108.112,108.112
				c-13.129,10.502-29.818,16.771-48.082,16.771C148.333,374.467,114.2,340.333,114.2,297.667z"/>
			<path d="M464.067,171.043V152.6c0-5.12-3.413-8.533-8.533-8.533S447,147.48,447,152.6v18.443
				c-10.103,3.391-17.067,12.734-17.067,24.224V255c0,5.12,3.413,8.533,8.533,8.533H447v204.8c0,14.507-11.093,25.6-25.6,25.6
				H182.467c-14.507,0-25.6-11.093-25.6-25.6V434.2h68.267v17.067c0,14.507,11.093,25.6,25.6,25.6H370.2
				c14.507,0,25.6-11.093,25.6-25.6V263.533h8.533c5.12,0,8.533-3.413,8.533-8.533v-59.733c0-11.491-6.963-20.833-17.067-24.224
				V152.6c0-5.12-3.413-8.533-8.533-8.533s-8.533,3.413-8.533,8.533v18.443c-10.103,3.391-17.067,12.734-17.067,24.224V255
				c0,5.12,3.413,8.533,8.533,8.533h8.533v187.733c0,5.12-3.413,8.533-8.533,8.533H250.733c-5.12,0-8.533-3.413-8.533-8.533V434.2
				h11.947c54.613,0,98.987-41.813,98.987-93.867c0-0.853,0-0.853,0-1.707C331.8,232.813,330.947,198.68,348.013,93.72l5.12-24.747
				c0-0.853,0-0.853,0-1.707C353.133,29.72,320.707-1,281.453-1H100.547c-39.253,0-71.68,30.72-71.68,68.267
				c0,0.853,0,0.853,0,1.707l5.12,24.747c17.067,101.547,17.067,133.973-5.12,244.907c0,0.853,0,0.853,0,1.707
				c0,52.053,44.373,93.867,98.987,93.867H139.8v34.133c0,23.893,18.773,42.667,42.667,42.667H421.4
				c23.893,0,42.667-18.773,42.667-42.667v-204.8h8.533c5.12,0,8.533-3.413,8.533-8.533v-59.733
				C481.133,183.776,474.17,174.433,464.067,171.043z M378.733,195.267c0-5.12,3.413-8.533,8.533-8.533s8.533,3.413,8.533,8.533
				v51.2h-17.067V195.267z M45.933,341.187C67.267,228.547,68.12,193.56,50.2,90.307l-4.267-23.893
				c0.853-28.16,24.747-50.347,54.613-50.347h180.907c29.867,0,54.613,22.187,54.613,50.347L331.8,90.307
				c-17.92,107.52-17.067,143.36,4.267,250.88c-0.853,41.813-36.693,75.947-81.92,75.947H127.853
				C83.48,417.133,46.787,383,45.933,341.187z M464.067,246.467H447v-51.2c0-5.12,3.413-8.533,8.533-8.533s8.533,3.413,8.533,8.533
				V246.467z"/>
			<path d="M114.2,152.6h34.133c5.12,0,8.533-3.413,8.533-8.533c0-5.12-3.413-8.533-8.533-8.533h-25.6
				c0-5.12,3.413-8.533,8.533-8.533c14.507,0,25.6-11.093,25.6-25.6c0-14.507-11.093-25.6-25.6-25.6s-25.6,11.093-25.6,25.6
				c0,5.12,3.413,8.533,8.533,8.533s8.533-3.413,8.533-8.533s3.413-8.533,8.533-8.533s8.533,3.413,8.533,8.533
				s-3.413,8.533-8.533,8.533c-14.507,0-25.6,11.093-25.6,25.6v8.533C105.667,149.187,109.08,152.6,114.2,152.6z"/>
			<path d="M173.933,152.6h34.133c5.12,0,8.533-3.413,8.533-8.533c0-5.12-3.413-8.533-8.533-8.533h-25.6
				c0-5.12,3.413-8.533,8.533-8.533c14.507,0,25.6-11.093,25.6-25.6c0-14.507-11.093-25.6-25.6-25.6s-25.6,11.093-25.6,25.6
				c0,5.12,3.413,8.533,8.533,8.533s8.533-3.413,8.533-8.533s3.413-8.533,8.533-8.533s8.533,3.413,8.533,8.533
				s-3.413,8.533-8.533,8.533c-14.507,0-25.6,11.093-25.6,25.6v8.533C165.4,149.187,168.813,152.6,173.933,152.6z"/>
			<path d="M243.053,152.6h14.507c10.24,0,18.773-8.533,18.773-17.92V94.573c0-10.24-8.533-18.773-17.92-18.773h-14.507
				c-10.24,0-18.773,8.533-18.773,17.92v40.107C225.133,144.067,233.667,152.6,243.053,152.6z M242.2,94.573
				c0-0.853,0.853-1.707,1.707-1.707h14.507c0.853,0,1.707,0.853,1.707,1.707v40.107c0,0.853-0.853,1.707-1.707,1.707h-14.507
				c-0.853,0-1.707-0.853-1.707-1.707V94.573z"/>
		</g>
	</g>
</g>
<g>
</g>
<g>
</g>
<g>
</g>
<g>
</g>
<g>
</g>
<g>
</g>
<g>
</g>
<g>
</g>
<g>
</g>
<g>
</g>
<g>
</g>
<g>
</g>
<g>
</g>
<g>
</g>
<g>
</g>
</svg>
