<?xml version="1.0" encoding="iso-8859-1"?>
<!-- Generator: Adobe Illustrator 19.0.0, SVG Export Plug-In . SVG Version: 6.00 Build 0)  -->
<svg version="1.1" id="Layer_1" xmlns="http://www.w3.org/2000/svg" xmlns:xlink="http://www.w3.org/1999/xlink" x="0px" y="0px"
	 viewBox="0 0 512 512" style="enable-background:new 0 0 512 512;" xml:space="preserve">
<g transform="translate(1 1)">
	<g>
		<g>
			<path d="M357.4-1H152.6c-28.16,0-51.2,23.04-51.2,51.2v409.6c0,28.16,23.04,51.2,51.2,51.2h204.8c28.16,0,51.2-23.04,51.2-51.2
				V50.2C408.6,22.04,385.56-1,357.4-1z M391.533,459.8c0,18.773-15.36,34.133-34.133,34.133H152.6
				c-18.773,0-34.133-15.36-34.133-34.133V50.2c0-18.773,15.36-34.133,34.133-34.133h204.8c18.773,0,34.133,15.36,34.133,34.133
				V459.8z"/>
			<path d="M167.672,237.854c0.059,0.005,0.117,0.009,0.176,0.013c0.601,0.039,1.206,0.066,1.819,0.066h170.667
				c0.613,0,1.218-0.027,1.819-0.066c0.059-0.004,0.117-0.008,0.176-0.013c13.515-0.967,23.605-11.688,23.605-25.521V75.8
				c0-14.507-11.093-25.6-25.6-25.6H169.667c-14.507,0-25.6,11.093-25.6,25.6v136.533
				C144.067,226.166,154.156,236.888,167.672,237.854z M169.667,220.867c-0.863,0-1.674-0.105-2.432-0.291
				c-0.373-0.126-0.72-0.301-0.982-0.563c24.747-21.333,56.32-33.28,88.747-33.28c33.28,0,64.853,11.947,88.747,33.28
				c-0.201,0.201-0.402,0.351-0.614,0.468c-0.86,0.25-1.795,0.385-2.799,0.385H169.667z M169.667,67.267h170.667
				c5.12,0,8.533,3.413,8.533,8.533v126.232c-23.099-18.07-50.379-28.98-79.45-31.692l35.93-64.674
				c2.56-4.267,0.853-9.387-3.413-11.947s-9.387-0.853-11.947,3.413l-40.354,72.636c-32.448,1.115-63.019,12.328-88.5,32.262V75.8
				C161.133,71.533,165.4,67.267,169.667,67.267z"/>
			<path d="M203.8,289.133c0-18.773-15.36-34.133-34.133-34.133c-18.773,0-34.133,15.36-34.133,34.133
				c0,18.773,15.36,34.133,34.133,34.133C188.44,323.267,203.8,307.907,203.8,289.133z M169.667,306.2
				c-9.387,0-17.067-7.68-17.067-17.067s7.68-17.067,17.067-17.067c9.387,0,17.067,7.68,17.067,17.067S179.053,306.2,169.667,306.2z
				"/>
			<path d="M220.867,289.133c0,18.773,15.36,34.133,34.133,34.133s34.133-15.36,34.133-34.133C289.133,270.36,273.773,255,255,255
				S220.867,270.36,220.867,289.133z M272.067,289.133c0,9.387-7.68,17.067-17.067,17.067c-9.387,0-17.067-7.68-17.067-17.067
				s7.68-17.067,17.067-17.067C264.387,272.067,272.067,279.747,272.067,289.133z"/>
			<path d="M340.333,255c-18.773,0-34.133,15.36-34.133,34.133c0,18.773,15.36,34.133,34.133,34.133
				c18.773,0,34.133-15.36,34.133-34.133C374.467,270.36,359.107,255,340.333,255z M340.333,306.2
				c-9.387,0-17.067-7.68-17.067-17.067s7.68-17.067,17.067-17.067c9.387,0,17.067,7.68,17.067,17.067S349.72,306.2,340.333,306.2z"
				/>
			<path d="M255,340.333c-37.547,0-68.267,30.72-68.267,68.267s30.72,68.267,68.267,68.267s68.267-30.72,68.267-68.267
				S292.547,340.333,255,340.333z M255,459.8c-28.16,0-51.2-23.04-51.2-51.2c0-28.16,23.04-51.2,51.2-51.2s51.2,23.04,51.2,51.2
				C306.2,436.76,283.16,459.8,255,459.8z"/>
		</g>
	</g>
</g>
<g>
</g>
<g>
</g>
<g>
</g>
<g>
</g>
<g>
</g>
<g>
</g>
<g>
</g>
<g>
</g>
<g>
</g>
<g>
</g>
<g>
</g>
<g>
</g>
<g>
</g>
<g>
</g>
<g>
</g>
</svg>
