<?xml version="1.0" encoding="iso-8859-1"?>
<!-- Generator: Adobe Illustrator 19.0.0, SVG Export Plug-In . SVG Version: 6.00 Build 0)  -->
<svg version="1.1" id="Layer_1" xmlns="http://www.w3.org/2000/svg" xmlns:xlink="http://www.w3.org/1999/xlink" x="0px" y="0px"
	 viewBox="0 0 512.035 512.035" style="enable-background:new 0 0 512.035 512.035;" xml:space="preserve">
<g transform="translate(1 1)">
	<g>
		<path d="M346.324,363.373c1.205-1.205,1.975-2.416,2.33-3.921l49.724-74.586c2.56-4.267,1.707-9.387-2.56-11.947
			s-9.387-1.707-11.947,2.56L345.3,333.336L318.164,306.2l28.16-28.16c1.205-1.205,1.975-2.416,2.329-3.921l49.724-74.586
			c2.56-4.267,1.707-9.387-2.56-11.947s-9.387-1.707-11.947,2.56L345.3,248.003l-27.136-27.136l28.16-28.16
			c1.707-1.707,2.56-3.413,2.56-5.973v-17.067c0-2.56-0.853-4.267-2.56-5.973l-28.16-28.16l28.16-28.16
			c1.707-1.707,2.56-3.413,2.56-5.973V48.824c10.103-3.391,17.067-12.734,17.067-24.224c0-14.507-11.093-25.6-25.6-25.6H169.684
			c-14.507,0-25.6,11.093-25.6,25.6c0,11.362,7.329,20.629,17.067,24.113V101.4c0,2.56,0.853,4.267,2.56,5.973l28.16,28.16
			l-28.16,28.16c-1.707,1.707-2.56,3.413-2.56,5.973v17.067c0,2.56,0.853,4.267,2.56,5.973l28.16,28.16l-27.477,27.477L126.164,191
			c-2.56-4.267-7.68-5.12-11.947-2.56c-4.267,2.56-5.12,7.68-2.56,11.947l51.2,76.8c0.142,0.142,0.299,0.284,0.453,0.425
			c0.131,0.143,0.258,0.286,0.401,0.428l28.16,28.16l-27.477,27.477l-38.229-57.344c-2.56-4.267-7.68-5.12-11.947-2.56
			c-4.267,2.56-5.12,7.68-2.56,11.947l51.2,76.8c0.142,0.142,0.299,0.284,0.453,0.425c0.131,0.143,0.258,0.286,0.401,0.428
			l28.16,28.16l-27.477,27.477l-38.229-57.344c-2.56-4.267-7.68-5.12-11.947-2.56c-4.267,2.56-5.12,7.68-2.56,11.947l50.062,75.093
			c0.425,1.163,1.084,2.107,1.992,2.561l68.267,59.733c2.56,2.56,5.973,3.413,9.387,1.707s5.12-4.267,5.12-7.68V152.6
			c0-5.12,3.413-8.533,8.533-8.533c5.12,0,8.533,3.413,8.533,8.533v349.867c0,3.413,1.707,6.827,5.12,7.68
			c0.853,0.853,2.56,0.853,3.413,0.853c2.56,0,4.267-0.853,5.973-1.707l68.267-59.733c1.266-1.266,2.061-3.003,2.387-4.861
			l49.666-74.499c2.56-4.267,1.707-9.387-2.56-11.947s-9.387-1.707-11.947,2.56L345.3,418.669l-27.136-27.136L346.324,363.373z
			 M169.684,16.067h170.667c5.12,0,8.533,3.413,8.533,8.533s-3.413,8.533-8.533,8.533H169.684c-5.12,0-8.533-4.267-8.533-8.533
			S165.417,16.067,169.684,16.067z M331.817,429.933v9.387l-51.2,44.373V152.6c0-14.507-11.093-25.6-25.6-25.6
			c-13.653,0-25.6,11.093-25.6,25.6v330.24l-51.2-44.373v-9.387l31.573-31.573c3.413-3.413,3.413-8.533,0-11.947l-31.573-31.573
			v-10.24l31.573-31.573c3.413-3.413,3.413-8.533,0-11.947l-31.573-31.573v-10.24l31.573-31.573c3.413-3.413,3.413-8.533,0-11.947
			l-31.573-31.573v-10.24l31.573-31.573c3.413-3.413,3.413-8.533,0-11.947l-31.573-31.573V50.2h153.6v48.64l-31.573,31.573
			c-3.413,3.413-3.413,8.533,0,11.947l31.573,31.573v10.24l-31.573,31.573c-3.413,3.413-3.413,8.533,0,11.947l31.573,31.573v9.472
			c-0.133,0.363-0.239,0.728-0.326,1.094l-31.247,31.247c-3.413,3.413-3.413,8.533,0,11.947l31.573,31.573v9.472
			c-0.133,0.363-0.239,0.728-0.327,1.094l-31.247,31.247c-3.413,3.413-3.413,8.533,0,11.947L331.817,429.933z"/>
	</g>
</g>
<g>
</g>
<g>
</g>
<g>
</g>
<g>
</g>
<g>
</g>
<g>
</g>
<g>
</g>
<g>
</g>
<g>
</g>
<g>
</g>
<g>
</g>
<g>
</g>
<g>
</g>
<g>
</g>
<g>
</g>
</svg>
