<?xml version="1.0" encoding="iso-8859-1"?>
<!-- Generator: Adobe Illustrator 19.0.0, SVG Export Plug-In . SVG Version: 6.00 Build 0)  -->
<svg version="1.1" id="Layer_1" xmlns="http://www.w3.org/2000/svg" xmlns:xlink="http://www.w3.org/1999/xlink" x="0px" y="0px"
	 viewBox="0 0 503.322 503.322" style="enable-background:new 0 0 503.322 503.322;" xml:space="preserve">
<g transform="translate(1 1)">
	<g>
		<path d="M493.644-1H372.153H250.661H129.169H7.678C2.471-1-1,2.471-1,7.678v69.424v69.424v69.424v69.424v69.424v69.424v69.424
			c0,5.207,3.471,8.678,8.678,8.678h121.492h121.492h121.492h121.492c5.207,0,8.678-3.471,8.678-8.678V424.22v-69.424v-69.424
			v-69.424v-69.424V77.102V7.678C502.322,2.471,498.851-1,493.644-1z M372.153,415.542h-52.068v-52.068h86.78h17.356v52.068H372.153
			z M250.661,415.542h-52.068v-52.068h104.136v52.068H250.661z M129.169,415.542H77.102v-52.068h17.356h86.78v52.068H129.169z
			 M16.356,415.542v-52.068h43.39v52.068H16.356z M85.78,85.78v52.068H68.424V85.78H85.78z M129.169,85.78h42.522
			c-3.471,32.976-25.166,86.78-42.522,86.78h-26.034v-26.034V85.78H129.169z M250.661,85.78h61.3
			c2.721,24.541,15.4,69.9,35.916,91.743c-6.399,4.669-10.436,12.247-10.436,21.07c0,13.077,8.867,23.419,21.155,25.602
			c-12.639,18.068-20.077,48.438-21.038,87.212H163.765c-0.961-38.774-8.399-69.144-21.038-87.212
			c12.288-2.182,21.155-12.525,21.155-25.602c0-8.725-3.948-16.234-10.224-20.915c20.735-21.784,33.087-67.299,35.723-91.898
			H250.661z M372.153,85.78h26.034v60.746v26.034h-26.034c-17.356,0-39.051-53.803-42.522-86.78H372.153z M432.898,85.78v52.068
			h-17.356V85.78H432.898z M484.966,85.78v52.068h-34.712V85.78H484.966z M484.966,207.271h-43.39h-26.034v-26.034v-26.034h26.034
			h43.39V207.271z M484.966,276.695h-34.712v-52.068h34.712V276.695z M484.966,346.119h-52.068h-17.356v-26.034v-26.034h26.034
			h43.39V346.119z M311.407,346.119H189.915h-86.78v-17.356h52.068h190.915h52.068v17.356H311.407z M68.424,346.119H16.356v-52.068
			h43.39H85.78v26.034v26.034H68.424z M16.356,224.627h34.712v52.068H16.356V224.627z M16.356,155.203h43.39H85.78v26.034v26.034
			H59.746h-43.39V155.203z M137.847,189.915c5.207,0,8.678,3.471,8.678,8.678s-3.471,8.678-8.678,8.678h-17.356h-17.356v-17.356
			h26.034H137.847z M68.424,224.627H85.78v52.068H68.424V224.627z M103.136,285.373v-60.746h15.62
			c12.149,6.942,26.034,32.976,27.77,86.78h-43.39V285.373z M363.475,189.915h8.678h26.034v17.356h-17.356h-17.356
			c-5.207,0-8.678-3.471-8.678-8.678S358.268,189.915,363.475,189.915z M415.542,276.695v-52.068h17.356v52.068H415.542z
			 M382.566,224.627h15.62v60.746v26.034h-43.39C356.532,257.603,370.417,231.569,382.566,224.627z M51.068,137.847H16.356V85.78
			h34.712V137.847z M441.576,363.475h43.39v52.068h-43.39V363.475z M484.966,68.424h-43.39h-34.712h-26.034V16.356h104.136V68.424z
			 M363.475,68.424h-43.39h-60.746V16.356h104.136V68.424z M241.983,68.424h-60.746h-43.39V16.356h104.136V68.424z M16.356,16.356
			h104.136v52.068H94.458H59.746h-43.39V16.356z M16.356,432.898h52.068h52.068v52.068H16.356V432.898z M137.847,432.898h52.068
			h52.068v52.068H137.847V432.898z M259.339,432.898h52.068h52.068v52.068H259.339V432.898z M484.966,484.966H380.831v-52.068
			h52.068h52.068V484.966z"/>
	</g>
</g>
<g>
</g>
<g>
</g>
<g>
</g>
<g>
</g>
<g>
</g>
<g>
</g>
<g>
</g>
<g>
</g>
<g>
</g>
<g>
</g>
<g>
</g>
<g>
</g>
<g>
</g>
<g>
</g>
<g>
</g>
</svg>
