<?xml version="1.0" encoding="iso-8859-1"?>
<!-- Generator: Adobe Illustrator 19.0.0, SVG Export Plug-In . SVG Version: 6.00 Build 0)  -->
<svg version="1.1" id="Layer_1" xmlns="http://www.w3.org/2000/svg" xmlns:xlink="http://www.w3.org/1999/xlink" x="0px" y="0px"
	 viewBox="0 0 512 512" style="enable-background:new 0 0 512 512;" xml:space="preserve">
<g transform="translate(1 1)">
	<g>
		<g>
			<path d="M485.4,459.8h-17.067H459.8V48.824c10.103-3.391,17.067-12.734,17.067-24.224c0-14.507-11.093-25.6-25.6-25.6H58.733
				c-14.507,0-25.6,11.093-25.6,25.6c0,11.362,7.329,20.629,17.067,24.113V459.8h-8.533H24.6c-5.12,0-8.533,3.413-8.533,8.533
				s3.413,8.533,8.533,8.533h8.533v8.533c0,14.507,11.093,25.6,25.6,25.6h392.533c14.507,0,25.6-11.093,25.6-25.6v-8.533h8.533
				c5.12,0,8.533-3.413,8.533-8.533S490.52,459.8,485.4,459.8z M58.733,16.067h392.533c5.12,0,8.533,3.413,8.533,8.533
				s-3.413,8.533-8.533,8.533H58.733c-5.12,0-8.533-4.267-8.533-8.533S54.467,16.067,58.733,16.067z M67.267,50.2h375.467v409.6
				H67.267V50.2z M459.8,485.4c0,5.12-3.413,8.533-8.533,8.533H58.733c-5.12,0-8.533-3.413-8.533-8.533v-8.533h8.533h392.533h8.533
				V485.4z"/>
			<path d="M237.933,67.267H178.2H92.867c-5.12,0-8.533,3.413-8.533,8.533v162.133c0,5.12,3.413,8.533,8.533,8.533H127h110.933
				c5.12,0,8.533-3.413,8.533-8.533V75.8C246.467,70.68,243.053,67.267,237.933,67.267z M101.4,229.4V84.333h68.267
				C167.107,143.213,140.653,229.4,127,229.4H101.4z M229.4,229.4h-79.406c22.229-34.794,34.259-113.333,36.392-145.067H229.4V229.4
				z"/>
			<path d="M417.133,67.267H331.8h-59.733c-5.12,0-8.533,3.413-8.533,8.533v162.133c0,5.12,3.413,8.533,8.533,8.533H383h34.133
				c5.12,0,8.533-3.413,8.533-8.533V75.8C425.667,70.68,422.253,67.267,417.133,67.267z M280.6,84.333h43.013
				c2.133,31.734,14.164,110.273,36.392,145.067H280.6V84.333z M408.6,229.4H383c-13.653,0-40.107-86.187-42.667-145.067H408.6
				V229.4z"/>
			<path d="M237.933,263.533H118.467h-25.6c-5.12,0-8.533,3.413-8.533,8.533V434.2c0,5.12,3.413,8.533,8.533,8.533H152.6h85.333
				c5.12,0,8.533-3.413,8.533-8.533V272.067C246.467,266.947,243.053,263.533,237.933,263.533z M101.4,425.667V280.6h14.507
				c13.653,11.947,27.307,67.413,28.16,145.067H101.4z M229.4,425.667h-68.323c-0.669-53.007-7.614-114.523-24.354-145.067H229.4
				V425.667z"/>
			<path d="M417.133,263.533h-25.6H272.067c-5.12,0-8.533,3.413-8.533,8.533V434.2c0,5.12,3.413,8.533,8.533,8.533H357.4h59.733
				c5.12,0,8.533-3.413,8.533-8.533V272.067C425.667,266.947,422.253,263.533,417.133,263.533z M280.6,280.6h92.854
				c-16.867,30.672-23.86,91.927-24.532,145.067H280.6V280.6z M408.6,425.667h-42.667c0.853-77.653,14.507-133.12,28.16-145.067
				H408.6V425.667z"/>
		</g>
	</g>
</g>
<g>
</g>
<g>
</g>
<g>
</g>
<g>
</g>
<g>
</g>
<g>
</g>
<g>
</g>
<g>
</g>
<g>
</g>
<g>
</g>
<g>
</g>
<g>
</g>
<g>
</g>
<g>
</g>
<g>
</g>
</svg>
