<?xml version="1.0" encoding="iso-8859-1"?>
<!-- Generator: Adobe Illustrator 19.0.0, SVG Export Plug-In . SVG Version: 6.00 Build 0)  -->
<svg version="1.1" id="Layer_1" xmlns="http://www.w3.org/2000/svg" xmlns:xlink="http://www.w3.org/1999/xlink" x="0px" y="0px"
	 viewBox="0 0 512 512" style="enable-background:new 0 0 512 512;" xml:space="preserve">
<g transform="translate(1 1)">
	<g>
		<g>
			<path d="M485.4,459.8h-17.067H459.8V48.824c10.103-3.391,17.067-12.734,17.067-24.224c0-14.507-11.093-25.6-25.6-25.6H58.733
				c-14.507,0-25.6,11.093-25.6,25.6c0,11.362,7.329,20.629,17.067,24.113V459.8h-8.533H24.6c-5.12,0-8.533,3.413-8.533,8.533
				s3.413,8.533,8.533,8.533h8.533v8.533c0,14.507,11.093,25.6,25.6,25.6h392.533c14.507,0,25.6-11.093,25.6-25.6v-8.533h8.533
				c5.12,0,8.533-3.413,8.533-8.533S490.52,459.8,485.4,459.8z M58.733,16.067h392.533c5.12,0,8.533,3.413,8.533,8.533
				s-3.413,8.533-8.533,8.533H58.733c-5.12,0-8.533-4.267-8.533-8.533S54.467,16.067,58.733,16.067z M67.267,50.2h375.467v409.6
				h-17.067v-384c0-5.12-3.413-8.533-8.533-8.533H272.067h-34.133H92.867c-5.12,0-8.533,3.413-8.533,8.533v384H67.267V50.2z
				 M101.4,459.8V84.333h128V459.8H101.4z M246.467,84.333h17.067V459.8h-17.067V84.333z M280.6,84.333h128V459.8h-128V84.333z
				 M459.8,485.4c0,5.12-3.413,8.533-8.533,8.533H58.733c-5.12,0-8.533-3.413-8.533-8.533v-8.533h8.533h34.133h145.067h34.133
				h145.067h34.133h8.533V485.4z"/>
			<path d="M150.04,95.427c-3.413-3.413-8.533-3.413-11.947,0l-25.6,25.6c-3.413,3.413-3.413,8.533,0,11.947
				c1.707,1.707,3.413,2.56,5.973,2.56s4.267-0.853,5.973-2.56l25.6-25.6C153.453,103.96,153.453,98.84,150.04,95.427z"/>
			<path d="M129.56,146.627l-17.067,17.067c-3.413,3.413-3.413,8.533,0,11.947c1.707,1.707,3.413,2.56,5.973,2.56
				s4.267-0.853,5.973-2.56l17.067-17.067c3.413-3.413,3.413-8.533,0-11.947S132.973,143.213,129.56,146.627z"/>
			<path d="M167.107,132.973l25.6-25.6c3.413-3.413,3.413-8.533,0-11.947s-8.533-3.413-11.947,0l-25.6,25.6
				c-3.413,3.413-3.413,8.533,0,11.947c1.707,1.707,3.413,2.56,5.973,2.56S165.4,134.68,167.107,132.973z"/>
			<path d="M385.56,411.16l-25.6,25.6c-3.413,3.413-3.413,8.533,0,11.947c1.707,1.707,3.413,2.56,5.973,2.56s4.267-0.853,5.973-2.56
				l25.6-25.6c3.413-3.413,3.413-8.533,0-11.947C394.093,407.747,388.973,407.747,385.56,411.16z"/>
			<path d="M385.56,368.493l-17.067,17.067c-3.413,3.413-3.413,8.533,0,11.947c1.707,1.707,3.413,2.56,5.973,2.56
				s4.267-0.853,5.973-2.56l17.067-17.067c3.413-3.413,3.413-8.533,0-11.947C394.093,365.08,388.973,365.08,385.56,368.493z"/>
			<path d="M354.84,411.16c-3.413-3.413-8.533-3.413-11.947,0l-25.6,25.6c-3.413,3.413-3.413,8.533,0,11.947
				c1.707,1.707,3.413,2.56,5.973,2.56s4.267-0.853,5.973-2.56l25.6-25.6C358.253,419.693,358.253,414.573,354.84,411.16z"/>
			<path d="M186.733,229.4c-14.507,0-25.6,11.093-25.6,25.6v34.133c0,14.507,11.093,25.6,25.6,25.6c14.507,0,25.6-11.093,25.6-25.6
				V255C212.333,240.493,201.24,229.4,186.733,229.4z M195.267,289.133c0,5.12-3.413,8.533-8.533,8.533s-8.533-3.413-8.533-8.533
				V255c0-5.12,3.413-8.533,8.533-8.533s8.533,4.267,8.533,8.533V289.133z"/>
			<path d="M348.867,289.133V255c0-14.507-11.093-25.6-25.6-25.6s-25.6,11.093-25.6,25.6v34.133c0,14.507,11.093,25.6,25.6,25.6
				S348.867,303.64,348.867,289.133z M314.733,289.133V255c0-5.12,3.413-8.533,8.533-8.533s8.533,4.267,8.533,8.533v34.133
				c0,5.12-3.413,8.533-8.533,8.533S314.733,294.253,314.733,289.133z"/>
		</g>
	</g>
</g>
<g>
</g>
<g>
</g>
<g>
</g>
<g>
</g>
<g>
</g>
<g>
</g>
<g>
</g>
<g>
</g>
<g>
</g>
<g>
</g>
<g>
</g>
<g>
</g>
<g>
</g>
<g>
</g>
<g>
</g>
</svg>
