<?xml version="1.0" encoding="iso-8859-1"?>
<!-- Generator: Adobe Illustrator 19.0.0, SVG Export Plug-In . SVG Version: 6.00 Build 0)  -->
<svg version="1.1" id="Layer_1" xmlns="http://www.w3.org/2000/svg" xmlns:xlink="http://www.w3.org/1999/xlink" x="0px" y="0px"
	 viewBox="0 0 512 512" style="enable-background:new 0 0 512 512;" xml:space="preserve">
<g transform="translate(1 1)">
	<g>
		<path d="M485.4,459.8h-17.067H459.8V48.824c10.103-3.391,17.067-12.734,17.067-24.224c0-14.507-11.093-25.6-25.6-25.6H58.733
			c-14.507,0-25.6,11.093-25.6,25.6c0,11.362,7.329,20.629,17.067,24.113V459.8h-8.533H24.6c-5.12,0-8.533,3.413-8.533,8.533
			s3.413,8.533,8.533,8.533h8.533v8.533c0,14.507,11.093,25.6,25.6,25.6h392.533c14.507,0,25.6-11.093,25.6-25.6v-8.533h8.533
			c5.12,0,8.533-3.413,8.533-8.533S490.52,459.8,485.4,459.8z M58.733,16.067h392.533c5.12,0,8.533,3.413,8.533,8.533
			s-3.413,8.533-8.533,8.533H58.733c-5.12,0-8.533-4.267-8.533-8.533S54.467,16.067,58.733,16.067z M67.267,50.2h375.467v409.6
			h-17.067V212.333V75.8c0-5.12-3.413-8.533-8.533-8.533H92.867c-5.12,0-8.533,3.413-8.533,8.533v136.533V459.8H67.267V50.2z
			 M408.6,101.4h-51.2c-5.12,0-8.533,3.413-8.533,8.533s3.413,8.533,8.533,8.533h51.2v17.067h-34.133
			c-5.12,0-8.533,3.413-8.533,8.533c0,5.12,3.413,8.533,8.533,8.533H408.6v17.067h-17.067c-5.12,0-8.533,3.413-8.533,8.533
			s3.413,8.533,8.533,8.533H408.6V203.8H101.4v-17.067h51.2c5.12,0,8.533-3.413,8.533-8.533s-3.413-8.533-8.533-8.533h-51.2V152.6
			h34.133c5.12,0,8.533-3.413,8.533-8.533c0-5.12-3.413-8.533-8.533-8.533H101.4v-17.067h17.067c5.12,0,8.533-3.413,8.533-8.533
			s-3.413-8.533-8.533-8.533H101.4V84.333h307.2V101.4z M255,255c9.387,0,17.067,7.68,17.067,17.067s-7.68,17.067-17.067,17.067
			c-9.387,0-17.067-7.68-17.067-17.067S245.613,255,255,255z M101.4,220.867h145.067v18.154c-14.679,3.814-25.6,17.216-25.6,33.046
			c0,18.773,15.36,34.133,34.133,34.133s34.133-15.36,34.133-34.133c0-15.829-10.921-29.232-25.6-33.046v-18.154H408.6V459.8H101.4
			V220.867z M459.8,485.4c0,5.12-3.413,8.533-8.533,8.533H58.733c-5.12,0-8.533-3.413-8.533-8.533v-8.533h8.533h34.133h324.267
			h34.133h8.533V485.4z"/>
	</g>
</g>
<g>
</g>
<g>
</g>
<g>
</g>
<g>
</g>
<g>
</g>
<g>
</g>
<g>
</g>
<g>
</g>
<g>
</g>
<g>
</g>
<g>
</g>
<g>
</g>
<g>
</g>
<g>
</g>
<g>
</g>
</svg>
