<?xml version="1.0" encoding="iso-8859-1"?>
<!-- Generator: Adobe Illustrator 19.0.0, SVG Export Plug-In . SVG Version: 6.00 Build 0)  -->
<svg version="1.1" id="Layer_1" xmlns="http://www.w3.org/2000/svg" xmlns:xlink="http://www.w3.org/1999/xlink" x="0px" y="0px"
	 viewBox="0 0 503.607 503.607" style="enable-background:new 0 0 503.607 503.607;" xml:space="preserve">
<g transform="translate(1 1)">
	<g>
		<g>
			<path d="M497.57,167.603L254.161,58.488c-1.679-0.839-4.197-0.839-6.715,0L4.036,167.603C0.679,168.443-1,171.8-1,175.157
				v260.197c0,5.036,3.357,8.393,8.393,8.393h50.361h67.148h125.902h125.902h67.148h50.361c5.036,0,8.393-3.357,8.393-8.393V175.157
				C502.607,171.8,500.928,169.282,497.57,167.603z M99.721,401.78c0-14.269,10.911-25.18,25.18-25.18
				c14.269,0,25.18,10.911,25.18,25.18s-10.911,25.18-25.18,25.18C110.633,426.961,99.721,416.049,99.721,401.78z M99.721,334.633
				c0-14.269,10.911-25.18,25.18-25.18c14.269,0,25.18,10.911,25.18,25.18s-10.911,25.18-25.18,25.18
				C110.633,359.813,99.721,348.902,99.721,334.633z M376.705,359.813h-92.128c4.834-6.527,7.79-14.56,8.149-23.366
				c0.028-0.604,0.045-1.209,0.045-1.814s-0.016-1.21-0.045-1.814c-0.359-8.806-3.315-16.839-8.149-23.366h92.128
				c14.269,0,25.18,10.911,25.18,25.18S390.974,359.813,376.705,359.813z M166.824,403.595c0.028-0.604,0.045-1.209,0.045-1.814
				s-0.016-1.21-0.045-1.814c-0.359-8.806-3.315-16.839-8.149-23.366h58.355c-4.834,6.527-7.79,14.56-8.149,23.366
				c-0.028,0.604-0.045,1.209-0.045,1.814s0.016,1.21,0.045,1.814c0.359,8.806,3.315,16.839,8.149,23.366h-58.355
				C163.509,420.433,166.465,412.4,166.824,403.595z M225.623,401.78c0-14.269,10.911-25.18,25.18-25.18
				c14.269,0,25.18,10.911,25.18,25.18s-10.911,25.18-25.18,25.18C236.534,426.961,225.623,416.049,225.623,401.78z
				 M275.984,334.633c0,14.269-10.911,25.18-25.18,25.18c-14.269,0-25.18-10.911-25.18-25.18s10.911-25.18,25.18-25.18
				C265.072,309.452,275.984,320.364,275.984,334.633z M208.881,332.818c-0.028,0.604-0.045,1.209-0.045,1.814
				s0.016,1.21,0.045,1.814c0.359,8.806,3.315,16.839,8.149,23.366h-58.355c4.834-6.527,7.79-14.56,8.149-23.366
				c0.028-0.604,0.045-1.209,0.045-1.814s-0.016-1.21-0.045-1.814c-0.359-8.806-3.315-16.839-8.149-23.366h58.355
				C212.196,315.98,209.24,324.013,208.881,332.818z M284.577,426.961c4.834-6.527,7.79-14.56,8.149-23.366
				c0.028-0.604,0.045-1.209,0.045-1.814s-0.016-1.21-0.045-1.814c-0.359-8.806-3.315-16.839-8.149-23.366h92.128
				c14.269,0,25.18,10.911,25.18,25.18s-10.911,25.18-25.18,25.18H284.577z M410.478,426.961c5.164-6.974,8.194-15.663,8.194-25.18
				c0-13.864-6.43-25.972-16.525-33.574c10.095-7.602,16.525-19.709,16.525-33.574c0-23.502-18.466-41.967-41.967-41.967H250.803
				H124.902c-23.502,0-41.967,18.466-41.967,41.967c0,13.864,6.43,25.972,16.525,33.574c-10.095,7.602-16.525,19.71-16.525,33.574
				c0,9.517,3.029,18.207,8.194,25.18H66.148V284.272h369.311v142.688H410.478z M435.459,267.485H66.148v-41.967h369.311V267.485z
				 M485.82,426.961h-33.574V275.879v-58.754c0-5.036-3.357-8.393-8.393-8.393H57.754c-5.036,0-8.393,3.357-8.393,8.393v58.754
				v151.082H15.787V180.193L250.803,75.275L485.82,180.193V426.961z"/>
			<path d="M225.623,116.403c-14.269,0-25.18,10.911-25.18,25.18v25.18c0,14.269,10.911,25.18,25.18,25.18h25.18h25.18
				c14.269,0,25.18-10.911,25.18-25.18v-25.18c0-14.269-10.911-25.18-25.18-25.18h-25.18H225.623z M217.229,166.764v-25.18
				c0-5.036,3.357-8.393,8.393-8.393h16.787v41.967h-16.787C220.587,175.157,217.229,171.8,217.229,166.764z M284.377,141.584v25.18
				c0,5.036-3.357,8.393-8.393,8.393h-16.787V133.19h16.787C281.02,133.19,284.377,136.548,284.377,141.584z"/>
		</g>
	</g>
</g>
<g>
</g>
<g>
</g>
<g>
</g>
<g>
</g>
<g>
</g>
<g>
</g>
<g>
</g>
<g>
</g>
<g>
</g>
<g>
</g>
<g>
</g>
<g>
</g>
<g>
</g>
<g>
</g>
<g>
</g>
</svg>
