<?xml version="1.0" encoding="iso-8859-1"?>
<!-- Generator: Adobe Illustrator 19.0.0, SVG Export Plug-In . SVG Version: 6.00 Build 0)  -->
<svg version="1.1" id="Layer_1" xmlns="http://www.w3.org/2000/svg" xmlns:xlink="http://www.w3.org/1999/xlink" x="0px" y="0px"
	 viewBox="0 0 511.404 511.404" style="enable-background:new 0 0 511.404 511.404;" xml:space="preserve">
<g transform="translate(1 1)">
	<g>
		<path d="M480.947,385.817c-10.781-7.586-23.243-11.622-35.813-12.196c-45.981-30.167-76.19-52.873-93.894-70.577l-48.593-48.593
			l48.593-47.834c31.573-31.573,61.44-53.76,94.72-70.827c0.14-0.047,0.266-0.117,0.4-0.173c16.321-1.078,32.211-7.766,43.12-19.454
			c14.507-14.507,21.333-34.987,19.627-55.467c0-2.56-1.707-5.12-4.267-6.827s-5.973-1.707-8.533,0l-41.813,24.747
			c-11.093-5.12-17.92-16.213-17.067-29.013l40.96-23.893c2.56-0.853,4.267-4.267,4.267-6.827c0-3.413-1.707-5.973-4.267-7.68
			c-30.72-20.48-71.68-11.947-93.013,17.92c-7.504,10.663-11.527,22.972-12.17,35.402c-17.037,32.273-39.161,62.863-69.75,93.451
			l-48.64,48.64l-48.64-48.64c-31.494-31.494-53.646-61.291-70.695-94.47c-0.895-16.789-7.632-32.497-19.758-44.623
			C101.214,4.377,80.734-2.45,60.254-0.743c-2.56,0.853-5.12,2.56-5.973,4.267c-1.707,2.56-1.707,5.973,0,8.533l23.893,42.667
			c-5.12,11.093-17.067,17.92-29.013,17.067L24.414,30.83c-0.853-2.56-4.267-4.267-6.827-4.267c-2.56-0.853-5.12,0.853-6.827,3.413
			c-20.48,30.72-12.8,71.68,17.92,93.013c10.584,7.56,22.508,11.764,34.584,12.626c0.135,0.057,0.262,0.127,0.402,0.174
			c33.28,17.067,63.147,39.253,93.867,69.12l48.64,48.64l-48.64,48.64c-17.917,17.917-49.484,40.953-95.554,71.667
			c-16.058,1.294-31.027,7.981-42.686,19.64C4.787,408.004-2.04,428.484-0.333,448.964c0,2.56,1.707,5.12,4.267,6.827
			s5.973,1.707,8.533,0l41.813-24.747c11.093,5.973,17.92,17.067,17.067,29.867l-40.96,23.893c-2.56,0.853-4.267,3.413-4.267,6.827
			s1.707,5.973,4.267,7.68c11.947,7.68,24.747,11.093,37.547,11.093c21.333,0,41.813-10.24,55.467-29.867
			c8.038-11.423,12.086-24.734,12.258-38.06c29.712-45.2,52.138-74.975,69.662-92.5l48.64-48.64l48.64,48.64
			c6.318,6.318,13.275,14.34,20.978,24.089c0.42,1.156,1.101,2.256,2.062,3.217c0.449,0.449,0.899,0.835,1.363,1.166
			c5.357,6.934,11.067,14.671,17.158,23.208c0.426,1.052,1.076,2.05,1.959,2.933c0.125,0.125,0.25,0.236,0.376,0.351
			c8.463,11.953,17.65,25.41,27.655,40.416c0.907,16.768,7.643,32.454,19.756,44.566c12.8,12.8,29.867,19.627,47.787,19.627
			c2.56,0,5.12,0,6.827,0c2.56,0,5.12-1.707,6.827-4.267s1.707-5.973,0-8.533L430.6,454.937
			c5.973-11.093,17.067-17.92,29.867-17.067l23.893,40.96c0.853,2.56,4.267,4.267,6.827,4.267c3.413-0.853,5.973-1.707,7.68-4.267
			C519.347,448.11,510.814,407.15,480.947,385.817z M109.747,471.15c-12.8,17.92-35.84,25.6-56.32,19.627l30.72-17.92
			c2.56-1.707,4.267-4.267,4.267-6.827v-4.267c1.707-19.627-9.387-37.547-26.453-46.08l-4.267-1.707c-2.56-1.707-5.12-1.707-7.68,0
			L17.587,432.75c1.707-10.24,6.827-19.627,14.507-27.307c11.093-10.24,25.6-16.213,40.96-14.507
			c12.96,1.44,24.692,7.754,33.172,17.377c1.248,1.523,2.429,3.122,3.521,4.81c5.12,7.68,8.533,17.067,8.533,27.307
			c0,1.131,0.177,2.09,0.51,2.961C118.532,453.141,115.556,462.852,109.747,471.15z M194.227,339.737
			c-16.18,15.328-36.61,41.707-62.137,79.979c-1.879-5.585-4.493-10.964-7.837-15.979c-8.798-12.569-20.843-21.881-34.757-26.607
			c6.533-4.357,13.293-8.944,20.078-13.672l12.119,12.119c1.707,1.707,3.413,2.56,5.973,2.56s5.12-0.853,5.973-2.56
			c3.413-3.413,3.413-8.533,0-11.947l-10.102-10.102c4.974-3.614,9.886-7.274,14.654-10.946l8.248,8.248
			c1.707,1.707,3.413,2.56,5.973,2.56c1.707,0,4.267-0.853,5.973-2.56c3.413-3.413,3.413-8.533,0-11.947l-6.907-6.907
			c6.939-5.759,13.333-11.466,18.854-16.987l48.64-47.787l23.893,23.893L194.227,339.737z M399.88,38.51
			c10.24-14.507,25.6-22.187,41.813-22.187c5.12,0,10.24,0.853,13.653,1.707l-30.72,17.92c-2.56,1.707-4.267,4.267-4.267,6.827
			v4.267c-0.853,19.627,9.387,37.547,26.453,46.08l5.12,2.56c2.56,1.707,5.12,1.707,7.68,0L492.04,76.91
			c-1.707,10.24-6.827,19.627-14.507,27.307c-9.531,8.798-21.585,14.431-34.533,14.764c-0.657-0.165-1.364-0.258-2.161-0.258
			c-3.952,0-7.807-0.477-11.523-1.361c-12.356-3.219-23.129-10.938-30.29-21.68C387.934,78.617,387.934,55.577,399.88,38.51z
			 M315.4,169.924c25.345-25.345,45.665-50.694,61.801-78.524c1.832,5.063,4.267,9.947,7.319,14.524
			c8.198,11.711,19.209,20.607,31.929,25.59c-25.974,16.08-51.153,36.301-77.155,62.303l-48.64,48.64l-11.947-11.947l-11.947-11.947
			L315.4,169.924z M18.44,53.017l17.92,30.72c1.707,2.56,4.267,4.267,6.827,4.267h4.267C67.08,88.857,85,78.617,93.534,61.55
			l1.707-4.267c1.707-2.56,1.707-5.12,0-7.68L76.467,17.177c10.24,1.707,19.627,6.827,27.307,14.507
			c8.798,9.531,14.431,21.585,14.764,34.533c-0.165,0.657-0.258,1.364-0.258,2.161c0,3.952-0.477,7.807-1.36,11.523
			c-3.219,12.356-10.938,23.129-21.68,30.291c-17.067,11.093-40.107,11.093-57.173-0.853C20.147,96.537,12.467,73.497,18.44,53.017z
			 M261.804,286.141c-0.426-0.975-1.047-1.9-1.871-2.724l-35.84-35.84c-0.903-0.903-1.809-1.559-2.838-1.985l-50.922-50.922
			c-25.6-26.453-51.2-46.933-78.507-63.147c4.267-1.707,9.387-4.267,12.8-6.827c9.845-6.563,17.157-14.647,22.342-24.239
			c1.617-2.849,3.04-5.801,4.221-8.861c16.196,27.235,36.643,51.932,63.038,78.327l53.231,52.92c0.374,0.583,0.828,1.14,1.382,1.693
			l35.84,35.84c0.726,0.726,1.455,1.287,2.246,1.704l53.22,52.909c15.328,16.18,41.707,36.61,79.979,62.137
			c-5.584,1.879-10.964,4.493-15.979,7.837c-12.57,8.799-21.883,20.845-26.608,34.76c-4.92-7.213-9.648-14.012-14.196-20.41
			l11.79-11.79c3.413-3.413,3.413-8.533,0-11.947c-3.413-3.413-8.533-3.413-11.947,0l-9.875,9.875
			c-3.55-4.81-6.978-9.347-10.285-13.608l8.213-8.213c3.413-3.413,3.413-8.533,0-11.947c-3.413-3.413-8.533-3.413-11.947,0
			l-6.901,6.901c-6.123-7.358-11.779-13.635-16.992-18.848L261.804,286.141z M490.334,455.79l-17.92-30.72
			c-1.707-2.56-4.267-4.267-6.827-4.267h-4.267c-19.627-1.707-37.547,9.387-46.08,26.453l-1.707,4.267
			c-1.707,2.56-1.707,5.12,0,7.68l18.773,32.427c-10.24-1.707-19.627-6.827-27.307-14.507c-8.631-9.351-14.21-21.13-14.735-33.797
			c0.146-0.624,0.228-1.294,0.228-2.043c0-17.067,8.533-32.427,23.04-41.813c7.68-5.12,17.067-8.533,27.307-8.533
			c1.391,0,2.527-0.261,3.551-0.765c9.328,0.541,18.532,3.85,26.316,9.299C488.627,412.27,496.307,435.31,490.334,455.79z"/>
	</g>
</g>
<g>
</g>
<g>
</g>
<g>
</g>
<g>
</g>
<g>
</g>
<g>
</g>
<g>
</g>
<g>
</g>
<g>
</g>
<g>
</g>
<g>
</g>
<g>
</g>
<g>
</g>
<g>
</g>
<g>
</g>
</svg>
