<?xml version="1.0" encoding="iso-8859-1"?>
<!-- Generator: Adobe Illustrator 19.0.0, SVG Export Plug-In . SVG Version: 6.00 Build 0)  -->
<svg version="1.1" id="Layer_1" xmlns="http://www.w3.org/2000/svg" xmlns:xlink="http://www.w3.org/1999/xlink" x="0px" y="0px"
	 viewBox="0 0 511.467 511.467" style="enable-background:new 0 0 511.467 511.467;" xml:space="preserve">
<g transform="translate(1 1)">
	<g>
		<g>
			<path d="M266.297,450.733l11.093-11.093c3.413-3.413,3.413-8.533,0-11.947s-8.533-3.413-11.947,0l-11.093,11.093l-11.093-11.093
				c-3.413-3.413-8.533-3.413-11.947,0s-3.413,8.533,0,11.947l11.093,11.093l-11.093,11.093c-3.413,3.413-3.413,8.533,0,11.947
				c1.707,1.707,3.413,2.56,5.973,2.56s4.267-0.853,5.973-2.56l11.093-11.093l11.093,11.093c1.707,1.707,3.413,2.56,5.973,2.56
				s4.267-0.853,5.973-2.56c3.413-3.413,3.413-8.533,0-11.947L266.297,450.733z"/>
			<path d="M287.63,280.067v-51.2c0-42.786,5.568-78.428,15.91-113.053c12.474-13.12,19.93-29.992,19.93-48.227
				c0-20.48-9.387-40.107-25.6-52.907c-1.707-1.707-5.12-2.56-7.68-1.707c-3.413,0.853-5.12,3.413-5.973,5.973l-12.8,46.933
				c-11.947,3.413-24.747,0-32.427-8.533l-0.853-0.853L250.083,9.56c0.853-2.56,0-5.12-1.707-7.68s-5.12-3.413-7.68-2.56
				c-36.693,7.68-59.733,41.813-53.76,78.507c2.34,12.872,8.077,24.489,16.214,33.805c0,0.109-0.001,0.219-0.001,0.328
				c11.947,35.84,17.067,72.533,17.067,116.907v51.2c0,20.932-1.214,47.687-3.899,74.055c-0.239,0.845-0.367,1.763-0.367,2.745
				c0,0.184,0.014,0.362,0.023,0.542c-2.175,20.391-5.238,40.396-9.312,57.127c-7.571,10.008-12.044,22.524-12.044,36.199
				c0,33.28,26.453,59.733,59.733,59.733c33.28,0,59.733-26.453,59.733-59.733c0-13.743-4.52-26.314-12.159-36.346
				C291.623,375.164,287.63,318.036,287.63,280.067z M254.35,391c-9.849,0-19.09,2.332-27.235,6.457
				c2.035-10.231,3.706-21.061,5.065-32.057h13.636c5.12,0,8.533-3.413,8.533-8.533s-3.413-8.533-8.533-8.533h-11.775
				c0.543-5.726,1.007-11.433,1.402-17.067h10.374c5.12,0,8.533-3.413,8.533-8.533s-3.413-8.533-8.533-8.533h-9.371
				c0.584-12.333,0.837-23.949,0.837-34.133v-51.2c0-36.693-3.413-69.12-11.093-99.84c5.12,1.707,9.387,3.413,14.507,5.12
				c10.245,1.808,20.486,1.477,30.13-0.971c3.954-0.884,7.813-2.084,11.548-3.588c-7.582,30.554-10.958,62.808-10.958,99.279v51.2
				c0,32.323,2.545,79.058,10.168,117.39C273.44,393.332,264.199,391,254.35,391z M229.603,21.507L221.07,55.64
				c-0.853,3.413-0.853,5.973,0.853,7.68l4.267,4.267c11.947,14.507,32.427,19.627,50.347,13.653l4.267-0.853
				c2.56-0.853,4.267-3.413,5.12-5.973l10.24-36.693c5.973,8.533,9.387,17.92,9.387,29.013c0,15.36-6.827,29.867-18.773,39.253
				c-11.947,9.387-27.307,13.653-42.667,10.24c-20.48-3.413-36.693-20.48-40.107-40.96C199.737,53.08,210.83,31.747,229.603,21.507z
				 M254.35,493.4c-23.893,0-42.667-18.773-42.667-42.667c0-8.612,2.449-16.552,6.688-23.195c0.68-0.484,1.308-1.015,1.845-1.552
				c7.68-11.093,20.48-17.92,34.133-17.92c13.653,0,25.6,6.827,34.133,17.92c0.525,1.051,1.376,1.857,2.399,2.422
				c3.903,6.46,6.135,14.088,6.135,22.324C297.017,474.627,278.243,493.4,254.35,493.4z"/>
		</g>
	</g>
</g>
<g>
</g>
<g>
</g>
<g>
</g>
<g>
</g>
<g>
</g>
<g>
</g>
<g>
</g>
<g>
</g>
<g>
</g>
<g>
</g>
<g>
</g>
<g>
</g>
<g>
</g>
<g>
</g>
<g>
</g>
</svg>
