<?xml version="1.0" encoding="iso-8859-1"?>
<!-- Generator: Adobe Illustrator 19.0.0, SVG Export Plug-In . SVG Version: 6.00 Build 0)  -->
<svg version="1.1" id="Layer_1" xmlns="http://www.w3.org/2000/svg" xmlns:xlink="http://www.w3.org/1999/xlink" x="0px" y="0px"
	 viewBox="0 0 512 512" style="enable-background:new 0 0 512 512;" xml:space="preserve">
<g transform="translate(1 1)">
	<g>
		<path d="M382.909,142.36c-0.853-4.267-4.267-6.827-8.533-6.827h-76.8V67.267h76.8c3.413,0,5.973-1.707,7.68-3.413
			c0.853-2.56,1.707-5.973,0-8.533C364.989,20.333,330.002-1,291.602-1h-32.427c-48.64,0-94.72,18.773-129.707,53.76
			c-2.56,2.56-3.413,5.973-1.707,9.387c0.853,3.413,4.267,5.12,7.68,5.12h76.8v68.267h-75.947c-4.267,0-7.68,2.56-8.533,6.827
			c-0.853,3.413,0.853,7.68,4.267,9.387l63.147,31.573v46.08c0,11.491,6.963,20.833,17.067,24.224v214.709
			c0,23.893,18.773,42.667,42.667,42.667s42.667-18.773,42.667-42.667V253.624c10.103-3.391,17.067-12.734,17.067-24.224v-46.08
			l64-31.573C382.055,150.04,383.762,146.627,382.909,142.36z M260.029,16.067h32.427c27.307,0,52.053,12.8,67.413,34.133h-70.827
			h-68.267h-62.293C187.495,28.013,222.482,16.067,260.029,16.067z M207.975,170.52l-35.84-17.92h48.64h8.533v76.8
			c0,5.12-3.413,8.533-8.533,8.533c-5.12,0-8.533-3.413-8.533-8.533v-51.2C212.242,174.787,210.535,172.227,207.975,170.52z
			 M254.909,493.933c-14.507,0-25.6-11.093-25.6-25.6h17.067c5.12,0,8.533-3.413,8.533-8.533c0-5.12-3.413-8.533-8.533-8.533
			h-17.067V434.2h17.067c5.12,0,8.533-3.413,8.533-8.533s-3.413-8.533-8.533-8.533h-17.067V253.627
			c10.137-3.389,17.244-12.733,17.92-24.227v-85.333c0-5.12-3.413-8.533-8.533-8.533h-0.853h-8.533V67.267h51.2v68.267h-8.533
			c-5.12,0-8.533,3.413-8.533,8.533V229.4c0,0.652,0.03,1.294,0.074,1.932c0.005,0.075,0.01,0.15,0.016,0.224
			c0.812,10.493,7.513,18.892,16.976,22.068v214.709C280.509,482.84,269.415,493.933,254.909,493.933z M302.695,170.52
			c-3.413,1.707-5.12,4.267-5.12,7.68v51.2c0,5.12-3.413,8.533-8.533,8.533s-8.533-3.413-8.533-8.533v-76.8h8.533h49.493
			L302.695,170.52z"/>
	</g>
</g>
<g>
</g>
<g>
</g>
<g>
</g>
<g>
</g>
<g>
</g>
<g>
</g>
<g>
</g>
<g>
</g>
<g>
</g>
<g>
</g>
<g>
</g>
<g>
</g>
<g>
</g>
<g>
</g>
<g>
</g>
</svg>
