<?xml version="1.0" encoding="iso-8859-1"?>
<!-- Generator: Adobe Illustrator 19.0.0, SVG Export Plug-In . SVG Version: 6.00 Build 0)  -->
<svg version="1.1" id="Layer_1" xmlns="http://www.w3.org/2000/svg" xmlns:xlink="http://www.w3.org/1999/xlink" x="0px" y="0px"
	 viewBox="0 0 512 512" style="enable-background:new 0 0 512 512;" xml:space="preserve">
<g transform="translate(1 1)">
	<g>
		<path d="M365.766,135.533H203.633v-51.2h162.133c2.56,0,5.12,0,6.827-2.56s2.56-5.12,1.707-7.68l-5.12-19.627
			C360.646,22.04,331.633-1,297.499-1h-85.333c-34.133,0-63.147,23.04-71.68,56.32l-5.12,18.773c0,2.56,0,4.267,1.707,6.827
			s4.267,3.413,6.827,3.413v51.2c-5.12,0-8.533,3.413-8.533,8.533v68.267c0,5.12,3.413,8.533,8.533,8.533V255
			c0,5.12,3.413,8.533,8.533,8.533h42.667c5.12,0,8.533-3.413,8.533-8.533v-34.133h17.067v247.467
			c0,23.893,18.773,42.667,42.667,42.667s42.667-18.773,42.667-42.667V220.867c29.867-3.413,55.467-25.6,63.147-55.467l5.12-18.773
			c0.853-2.56,0-5.12-1.707-7.68S368.326,135.533,365.766,135.533z M156.699,58.733c6.827-24.747,29.013-42.667,55.467-42.667
			h86.187c25.6,0,48.64,17.067,54.613,42.667l1.707,8.533H195.099h-40.107L156.699,58.733z M160.966,84.333h25.6v51.2h-25.6V84.333z
			 M186.566,246.467h-25.6v-25.6h25.6V246.467z M352.966,161.133c-6.827,24.747-29.013,42.667-55.467,42.667
			c-5.12,0-8.533,3.413-8.533,8.533v256c0,14.507-11.093,25.6-25.6,25.6c-14.507,0-25.6-11.093-25.6-25.6h17.067
			c5.12,0,8.533-3.413,8.533-8.533c0-5.12-3.413-8.533-8.533-8.533h-17.067V434.2h17.067c5.12,0,8.533-3.413,8.533-8.533
			s-3.413-8.533-8.533-8.533h-17.067v-204.8c0-5.12-3.413-8.533-8.533-8.533h-34.133h-42.667v-51.2h42.667h159.573L352.966,161.133z
			"/>
	</g>
</g>
<g>
</g>
<g>
</g>
<g>
</g>
<g>
</g>
<g>
</g>
<g>
</g>
<g>
</g>
<g>
</g>
<g>
</g>
<g>
</g>
<g>
</g>
<g>
</g>
<g>
</g>
<g>
</g>
<g>
</g>
</svg>
