<?xml version="1.0" encoding="iso-8859-1"?>
<!-- Generator: Adobe Illustrator 19.0.0, SVG Export Plug-In . SVG Version: 6.00 Build 0)  -->
<svg version="1.1" id="Layer_1" xmlns="http://www.w3.org/2000/svg" xmlns:xlink="http://www.w3.org/1999/xlink" x="0px" y="0px"
	 viewBox="0 0 512 512" style="enable-background:new 0 0 512 512;" xml:space="preserve">
<g transform="translate(1 1)">
	<g>
		<path d="M361.649,157.72c-0.853-3.413-4.267-5.12-7.68-5.12H249.863V83.48h93.867c5.12,0,8.533-3.413,8.533-8.533v-25.6
			c0-1.707-0.853-4.267-2.56-5.973l-33.28-29.867C303.623,4.12,289.969-1,275.463-1h-34.133c-37.547,0-68.267,30.72-68.267,68.267
			V152.6h-17.067c-5.12,0-8.533,3.413-8.533,8.533v51.2c0,5.12,3.413,8.533,8.533,8.533h17.067v42.667v34.133V331.8
			c0,23.893,18.773,42.667,42.667,42.667c9.676,0,18.51-3.08,25.6-8.33v102.197c0,23.893,18.773,42.667,42.667,42.667
			c23.893,0,42.667-18.773,42.667-42.667v-222.72c0-29.013,11.947-58.027,33.28-78.507
			C362.503,164.547,363.356,161.133,361.649,157.72z M190.129,67.267c0-28.16,23.04-51.2,51.2-51.2h34.133
			c11.093,0,20.48,3.413,29.013,11.093l30.72,27.307v12.8h-93.867c-5.12,0-8.533,3.413-8.533,8.533v76.8h-42.667V67.267z
			 M190.129,220.867h51.2V255h-51.2V220.867z M215.729,357.4c-14.507,0-25.6-11.093-25.6-25.6v-25.6h51.2v25.6
			C241.329,346.307,230.236,357.4,215.729,357.4z M309.596,245.613v222.72c0,14.507-11.093,25.6-25.6,25.6
			c-14.507,0-25.6-11.093-25.6-25.6h17.067c5.12,0,8.533-3.413,8.533-8.533c0-5.12-3.413-8.533-8.533-8.533h-17.067V434.2h17.067
			c5.12,0,8.533-3.413,8.533-8.533s-3.413-8.533-8.533-8.533h-17.067V331.8v-34.133c0-5.12-3.413-8.533-8.533-8.533h-59.733v-17.067
			h59.733c5.12,0,8.533-3.413,8.533-8.533v-51.2c0-5.12-3.413-8.533-8.533-8.533h-68.267h-17.067v-34.133h17.067h59.733h93.867
			C318.983,191,309.596,218.307,309.596,245.613z"/>
	</g>
</g>
<g>
</g>
<g>
</g>
<g>
</g>
<g>
</g>
<g>
</g>
<g>
</g>
<g>
</g>
<g>
</g>
<g>
</g>
<g>
</g>
<g>
</g>
<g>
</g>
<g>
</g>
<g>
</g>
<g>
</g>
</svg>
