<?xml version="1.0" encoding="iso-8859-1"?>
<!-- Generator: Adobe Illustrator 19.0.0, SVG Export Plug-In . SVG Version: 6.00 Build 0)  -->
<svg version="1.1" id="Layer_1" xmlns="http://www.w3.org/2000/svg" xmlns:xlink="http://www.w3.org/1999/xlink" x="0px" y="0px"
	 viewBox="0 0 510.613 510.613" style="enable-background:new 0 0 510.613 510.613;" xml:space="preserve">
<g transform="translate(1 1)">
	<g>
		<path d="M304.928,397.127c-11.837-54.239-16.915-92.421-16.915-117.061v-51.2c0-43.877,5.849-80.243,16.705-115.702
			C316.195,100.316,323,84.148,323,66.733c0-20.48-9.387-40.107-25.6-52.907c-1.707-1.707-5.12-2.56-7.68-1.707
			c-3.413,0.853-5.12,3.413-5.973,5.973l-12.8,46.933c-11.093,4.267-23.893,0.853-32.427-8.533L250.467,9.56
			c0.853-2.56,0-5.12-1.707-7.68s-5.12-3.413-7.68-2.56C204.387,7,181.347,41.133,187.32,77.827
			c2.34,12.872,8.077,24.489,16.214,33.805c0,0.109-0.001,0.219-0.001,0.328C215.48,147.8,220.6,184.493,220.6,228.867v51.2
			c0,8.518-0.607,18.654-1.89,30.511c-0.434,1.072-0.67,2.287-0.67,3.622c0,0.479,0.039,0.938,0.098,1.385
			c-2.571,21.568-7.239,48.442-14.376,81.187c-11.395,12.824-18.149,28.934-18.149,46.281c0,20.48,9.387,40.107,25.6,52.907
			c1.707,1.707,5.12,2.56,7.68,1.707c3.413-0.853,5.12-3.413,5.973-5.973l12.8-46.933c11.947-4.267,24.747-0.853,33.28,8.533
			L259,499.373c-0.853,2.56,0,5.12,1.707,7.68c1.707,1.707,3.413,2.56,5.973,2.56c0.853,0,1.707,0,0.853,0
			c36.693-7.68,59.733-41.813,53.76-78.507C318.938,418.155,313.147,406.473,304.928,397.127z M284.6,380.76
			c-5.12-2.56-10.24-5.12-16.213-5.973c-15.36-2.56-29.867-0.853-43.52,5.973c1.585-8.399,3.022-16.355,4.312-23.893H246.2
			c5.12,0,8.533-3.413,8.533-8.533s-3.413-8.533-8.533-8.533h-14.243c0.92-5.987,1.729-11.673,2.426-17.067H246.2
			c5.12,0,8.533-3.413,8.533-8.533s-3.413-8.533-8.533-8.533h-9.892c0.904-9.603,1.359-18.102,1.359-25.6v-51.2
			c0-36.693-3.413-69.12-11.093-99.84c5.12,1.707,9.387,3.413,14.507,5.12c11.007,1.942,22.012,1.422,32.273-1.548
			c3.254-0.868,6.421-1.97,9.477-3.311c-7.634,30.643-11.03,62.989-11.03,99.578v51.2C271.8,303.107,276.067,335.533,284.6,380.76z
			 M229.987,21.507l-8.533,34.987c-0.853,2.56-0.853,5.12,1.707,7.68l2.56,3.413c12.8,14.507,33.28,19.627,51.2,13.653l4.267-0.853
			c2.56-0.853,4.267-3.413,5.12-5.973l10.24-36.693c5.973,8.533,9.387,17.92,9.387,29.013c0,15.36-6.827,29.867-18.773,39.253
			c-11.947,9.387-27.307,13.653-42.667,10.24c-20.48-3.413-36.693-20.48-40.107-40.96C200.973,53.08,211.213,31.747,229.987,21.507z
			 M279.48,486.573l9.387-34.133c0.853-2.56,0-5.12-1.707-7.68l-3.413-3.413c-9.387-10.24-22.187-16.213-35.84-16.213
			c-5.12,0-10.24,0.853-15.36,1.707l-4.267,1.707c-2.56,0.853-4.267,3.413-5.12,5.973l-10.24,36.693
			c-5.973-8.533-9.387-17.92-9.387-29.013c0-13.244,5.086-25.847,14.143-35.634c0.413-0.307,0.815-0.658,1.217-1.059
			c3.558-3.558,7.579-6.496,11.91-8.798c10.328-5.213,22.245-6.843,34.17-4.855c9.387,1.707,18.773,6.827,25.6,13.653
			c0.597,0.597,1.197,1.084,1.831,1.472c6.514,7.1,11.05,16.078,12.676,25.835C309.347,455,298.253,476.333,279.48,486.573z"/>
	</g>
</g>
<g>
</g>
<g>
</g>
<g>
</g>
<g>
</g>
<g>
</g>
<g>
</g>
<g>
</g>
<g>
</g>
<g>
</g>
<g>
</g>
<g>
</g>
<g>
</g>
<g>
</g>
<g>
</g>
<g>
</g>
</svg>
