<?xml version="1.0" encoding="iso-8859-1"?>
<!-- Generator: Adobe Illustrator 19.0.0, SVG Export Plug-In . SVG Version: 6.00 Build 0)  -->
<svg version="1.1" id="Layer_1" xmlns="http://www.w3.org/2000/svg" xmlns:xlink="http://www.w3.org/1999/xlink" x="0px" y="0px"
	 viewBox="0 0 512.427 512.427" style="enable-background:new 0 0 512.427 512.427;" xml:space="preserve">
<g transform="translate(1 1)">
	<g>
		<path d="M366.147,100.12c0-40.96-21.333-80.213-55.467-99.84c-2.56-1.707-5.973-1.707-8.533,0s-4.267,4.267-4.267,7.68v79.36
			c-28.16,8.533-57.173,8.533-85.333,0V7.96c0-3.413-1.707-5.973-4.267-7.68s-5.973-1.707-8.533,0
			c-33.28,19.627-55.467,58.88-55.467,99.84c0,36.626,17.591,69.003,44.813,89.184c10.188,23.881,14.92,49.266,14.92,74.656v196.267
			c0,28.16,23.04,51.2,51.2,51.2c28.16,0,51.2-23.04,51.2-51.2V263.96c0-25.423,5.529-50.841,15.048-74.749
			C348.611,169.024,366.147,136.689,366.147,100.12z M161.347,99.267c0-28.16,13.653-57.173,34.133-75.093V87.32
			c0,7.68,5.12,14.507,12.8,15.36c30.72,9.387,64,9.387,94.72,0c6.827-1.707,11.947-8.533,11.947-16.213V24.173
			c20.48,17.92,34.133,46.08,34.133,75.093c0,52.053-41.813,93.867-93.867,93.867S161.347,151.32,161.347,99.267z M289.347,263.96
			v196.267c0,18.773-15.36,34.133-34.133,34.133S221.08,479,221.08,460.227h25.6c5.12,0,8.533-3.413,8.533-8.533
			c0-5.12-3.413-8.533-8.533-8.533h-25.6v-17.067h25.6c5.12,0,8.533-3.413,8.533-8.533s-3.413-8.533-8.533-8.533h-25.6V263.96
			c0-21.105-3.345-41.374-9.2-61.635c13.301,5.621,27.942,8.728,43.333,8.728s30.032-3.107,43.333-8.728
			C292.691,222.586,289.347,242.855,289.347,263.96z"/>
	</g>
</g>
<g>
</g>
<g>
</g>
<g>
</g>
<g>
</g>
<g>
</g>
<g>
</g>
<g>
</g>
<g>
</g>
<g>
</g>
<g>
</g>
<g>
</g>
<g>
</g>
<g>
</g>
<g>
</g>
<g>
</g>
</svg>
